<?xml version="1.0" encoding="UTF-8"?>
<svg width="733px" height="844px" viewBox="0 0 733 844" version="1.1" xmlns="http://www.w3.org/2000/svg" xmlns:xlink="http://www.w3.org/1999/xlink">
    <!-- Generator: Sketch 57.1 (83088) - https://sketch.com -->
    <title>Illustration</title>
    <desc>Created with Sketch.</desc>
    <defs>
        <polygon id="path-1" points="0 0.17083301 179.46243 0.17083301 179.46243 168.38374 0 168.38374"></polygon>
        <polygon id="path-3" points="0.468528603 0.17083301 100.71235 0.17083301 100.71235 168.383291 0.468528603 168.383291"></polygon>
    </defs>
    <g id="For-EMS" stroke="none" stroke-width="1" fill="none" fill-rule="evenodd">
        <g transform="translate(-646.000000, -116.000000)" id="Hero">
            <g transform="translate(-0.720000, 0.000000)">
                <g id="Illustration" transform="translate(645.720000, 116.000000)">
                    <g id="Group-6" transform="translate(80.360000, 0.200000)">
                        <g id="Group-3">
                            <path d="M37.0359128,355.471111 C37.0359128,355.471111 142.188327,381.022975 200.776298,380.88 C259.364269,380.738338 290.307433,368.020341 369.000033,366.556852 C447.690116,365.095881 507.244196,368.94982 534.121652,374.19168 C560.999107,379.436059 618.339187,374.579593 632.29745,369.186598 C646.253197,363.793603 661.947437,233.978845 646.935008,208.293478 C631.925095,182.608111 589.909416,214.117208 539.271717,189.237893 C488.631502,164.358578 443.397976,-5.09633021 380.039841,0.11782199 C316.67919,5.33197419 279.028613,6.93652248 259.641019,76.5215247 C240.258457,146.109046 220.941308,124.31792 180.103074,116.647826 C139.26484,108.977733 134.773943,142.194653 100.514811,167.613015 C66.2607109,193.033897 -62.4682854,237.653941 37.0359128,355.471111" id="Fill-1" fill="#0A1D44"></path>
                            <g id="Group-7" transform="translate(145.440000, 20.160000)">
                                <g id="Group-3">
                                    <path d="M2.17130893,61.1343326 L135.060841,61.1343326 C136.485021,61.1343326 137.52113,59.0628272 137.151899,56.9537944 C135.921754,49.9436999 131.941209,36.0736199 119.391096,30.8479472 C99.3602722,22.5112635 96.1690547,39.2653144 87.1341791,34.4336781 C76.2003972,28.586929 90.1162908,-6.3941183 52.2813363,1.02877624 C37.0147325,4.02345261 47.4511818,31.9775181 36.8282328,37.0305653 C31.8925835,39.3778962 25.7927237,35.9403981 16.3038437,40.0327472 C8.23160811,43.5171544 1.91510729,48.8422744 0.121695781,56.7436417 C-0.368101479,58.8920781 0.686846466,61.1343326 2.17130893,61.1343326" id="Fill-1" fill="#0A1D44"></path>
                                    <g transform="translate(0.000000, 24.414145)" fill="#11295B" id="Fill-1">
                                        <path d="M137.444593,32.5471742 C136.895226,29.4287923 135.790828,24.9488106 133.629227,20.4800662 C128.462153,18.7382673 122.237876,17.8224182 115.328306,17.4778042 C98.1468866,16.6200151 97.0292731,27.4791012 81.7187234,19.8844834 C66.4081737,12.2917384 69.7685656,-1.04707003 58.1922042,0.0654337916 C46.6158428,1.17606471 50.3500311,17.8467659 45.8701379,23.0347047 C41.3883567,28.2207705 28.692494,24.8870048 12.2605551,27.1794369 C6.73667487,27.9510726 2.94962644,29.6198283 0.346266634,31.4946033 C0.268864348,31.7736657 0.18579848,32.0489823 0.121611219,32.3374092 C-0.369232545,34.481882 0.687969408,36.72 2.17560358,36.72 L135.349068,36.72 C136.776291,36.72 137.814614,34.6523161 137.444593,32.5471742"></path>
                                    </g>
                                </g>
                            </g>
                        </g>
                    </g>
                    <g id="Group-30" transform="translate(256.580000, 522.580000) scale(-1, 1) translate(-256.580000, -522.580000) translate(0.080000, 201.080000)">
                        <g id="Group-62" transform="translate(52.323120, 0.000000)">
                            <path d="M335.768781,68.1040566 L335.768781,68.1040566 C332.899099,68.1040566 330.551003,70.4546161 330.551003,73.327308 L330.551003,88.4511673 C330.551003,91.323217 332.899099,93.6737764 335.768781,93.6737764 C338.638462,93.6737764 340.986559,91.323217 340.986559,88.4511673 L340.986559,73.327308 C340.986559,70.4546161 338.638462,68.1040566 335.768781,68.1040566" id="Fill-1" fill="#FFE6E6"></path>
                            <path d="M27.2942451,168.855008 L61.876057,168.855008 C61.876057,168.855008 86.8730171,156.648154 77.9675734,146.50928 C69.0627712,136.370405 78.2517828,133.958191 54.8612799,135.646612 C31.4714185,137.335033 17.3340827,154.05997 27.2942451,168.855008" id="Fill-3" fill="#E59C9C"></path>
                            <path d="M87.2919534,168.855008 C87.2919534,155.63279 80.1674701,144.756636 71.0304246,143.423367 L56.9700756,143.285288 L56.9700756,194.424086 L71.0304246,194.286648 C80.1674701,192.95338 87.2919534,182.077226 87.2919534,168.855008" id="Fill-5" fill="#0E244C"></path>
                            <path d="M75.123105,168.855008 C75.123105,182.976347 66.9958691,194.424086 56.9702681,194.424086 C46.944667,194.424086 38.8167896,182.976347 38.8167896,168.855008 C38.8167896,154.733669 46.944667,143.28593 56.9702681,143.28593 C66.9958691,143.28593 75.123105,154.733669 75.123105,168.855008" id="Fill-7" fill="#163774"></path>
                            <path d="M66.0927503,168.855008 C66.0927503,176.87003 62.0086025,183.368749 56.969819,183.368749 C51.931677,183.368749 47.8475292,176.87003 47.8475292,168.855008 C47.8475292,160.839343 51.931677,154.341267 56.969819,154.341267 C62.0086025,154.341267 66.0927503,160.839343 66.0927503,168.855008" id="Fill-9" fill="#FFFFFF"></path>
                            <path d="M56.9700114,154.341524 C56.2437696,154.341524 55.5386992,154.480245 54.8612157,154.73521 C58.8824909,156.250229 61.8759928,161.994329 61.8759928,168.855265 C61.8759928,175.715559 58.8824909,181.460301 54.8612157,182.974677 C55.5386992,183.229 56.2437696,183.368364 56.9700114,183.368364 C62.008795,183.368364 66.0929427,176.870287 66.0929427,168.855265 C66.0929427,160.838958 62.008795,154.341524 56.9700114,154.341524" id="Fill-11" fill="#FFE6E6"></path>
                            <path d="M389.46153,168.855008 C389.46153,155.63279 382.337047,144.756636 373.19936,143.423367 L359.139011,143.285288 L359.139011,194.424086 L373.19936,194.286648 C382.337047,192.95338 389.46153,182.077226 389.46153,168.855008" id="Fill-13" fill="#163774"></path>
                            <path d="M377.292682,168.855008 C377.292682,182.976347 369.164804,194.424086 359.139203,194.424086 C349.113602,194.424086 340.986366,182.976347 340.986366,168.855008 C340.986366,154.733669 349.113602,143.28593 359.139203,143.28593 C369.164804,143.28593 377.292682,154.733669 377.292682,168.855008" id="Fill-15" fill="#0E244C"></path>
                            <path d="M273.923134,168.855008 C273.923134,168.855008 313.763783,153.416456 335.611343,157.919769 C357.459544,162.421796 342.680011,127.043308 319.546772,125.113408 C296.414175,123.183509 291.272742,124.791651 291.272742,124.791651 L276.81527,132.832363 C276.81527,132.832363 261.392897,157.598012 273.923134,168.855008" id="Fill-17" fill="#E59C9C"></path>
                            <g id="Group-21" transform="translate(1.270533, 0.471396)">
                                <mask id="mask-2" fill="white">
                                    <use xlink:href="#path-1"></use>
                                </mask>
                                <g id="Clip-20"></g>
                                <path d="M-0.00012831127,8.54312764 L-0.00012831127,168.38374 L27.2942451,168.38374 C27.2942451,153.373555 39.4491717,141.205236 54.4436267,141.205236 C67.0020922,141.205236 77.5691669,149.741748 80.6704503,161.333988 C81.7777765,165.472514 85.4712165,168.38374 89.7503973,168.38374 L179.46243,168.38374 L179.46243,0.17038345 L8.36384183,0.17038345 C3.74463611,0.17038345 -0.00012831127,3.91907623 -0.00012831127,8.54312764" id="Fill-19" fill="#FFF1F6" mask="url(#mask-2)"></path>
                            </g>
                            <g id="Group-24" transform="translate(178.994222, 0.471396)">
                                <mask id="mask-4" fill="white">
                                    <use xlink:href="#path-3"></use>
                                </mask>
                                <g id="Clip-23"></g>
                                <polygon id="Fill-22" fill="#EFDAE2" mask="url(#mask-4)" points="99.4418167 159.619429 93.6581862 168.383291 -0.802004562 168.383291 -0.802004562 0.170576118 99.4418167 0.170576118"></polygon>
                            </g>
                            <polygon id="Fill-25" fill="#930C3A" points="179.462558 128.329629 209.033815 128.329629 209.033815 99.0767236 179.462558 99.0767236"></polygon>
                            <polygon id="Fill-27" fill="#BA104A" points="0 128.329629 179.462558 128.329629 179.462558 99.0767236 0 99.0767236"></polygon>
                            <path d="M328.860759,168.855008 C328.860759,155.63279 321.735634,144.756636 312.598588,143.423367 L298.538239,143.285288 L298.538239,194.424086 L312.598588,194.286648 C321.735634,192.95338 328.860759,182.077226 328.860759,168.855008" id="Fill-28" fill="#0E244C"></path>
                            <path d="M316.69191,168.855008 C316.69191,182.976347 308.564033,194.424086 298.538432,194.424086 C288.512831,194.424086 280.385595,182.976347 280.385595,168.855008 C280.385595,154.733669 288.512831,143.28593 298.538432,143.28593 C308.564033,143.28593 316.69191,154.733669 316.69191,168.855008" id="Fill-29" fill="#163774"></path>
                            <path d="M307.661235,168.855008 C307.661235,176.87003 303.577087,183.368749 298.538303,183.368749 C293.500161,183.368749 289.416014,176.87003 289.416014,168.855008 C289.416014,160.839343 293.500161,154.341267 298.538303,154.341267 C303.577087,154.341267 307.661235,160.839343 307.661235,168.855008" id="Fill-30" fill="#FFFFFF"></path>
                            <path d="M298.538496,154.341524 C297.812254,154.341524 297.107184,154.480245 296.430342,154.73521 C300.450975,156.250229 303.444477,161.994329 303.444477,168.855265 C303.444477,175.715559 300.450975,181.460301 296.430342,182.974677 C297.107184,183.229 297.812254,183.368364 298.538496,183.368364 C303.57728,183.368364 307.661427,176.870287 307.661427,168.855265 C307.661427,160.838958 303.57728,154.341524 298.538496,154.341524" id="Fill-31" fill="#FFE6E6"></path>
                            <path d="M309.73128,54.8009819 C307.652638,52.3361056 304.807977,50.6451157 301.649595,50.004813 C292.853216,48.2200576 273.720723,44.8734004 255.931007,45.3486501 C247.447707,45.5753571 240.406626,45.8328911 234.843691,46.0711582 C225.006066,46.4937451 216.533031,53.1196254 213.730713,62.5693882 C211.605237,69.7392368 209.626035,78.4831896 209.343109,86.8392358 C208.70027,105.815829 208.058072,168.855136 208.058072,168.855136 L273.923454,168.855136 C273.923454,168.855136 274.565652,138.300432 303.161102,138.300432 C320.974556,138.300432 326.936539,149.878543 326.936539,149.878543 L393.765539,149.878543 L393.765539,121.725135 C393.765539,117.072825 391.153122,112.816771 387.004177,110.720535 C378.944946,106.649443 364.37071,100.553402 347.070502,99.076274 L309.73128,54.8009819 Z" id="Fill-32" fill="#FFF1F6"></path>
                            <path d="M385.412347,129.93745 L393.766052,129.93745 L393.766052,121.725263 C393.766052,120.149232 393.46003,118.622011 392.902517,117.206537 L385.412347,117.555268 L385.412347,129.93745 Z" id="Fill-33" fill="#FFFFFF"></path>
                            <polygon id="Fill-34" fill="#163774" points="59.9105208 79.7281512 52.9284631 73.9750606 45.442142 80.1436736 45.442142 71.4202722 35.5679482 71.4202722 35.5679482 80.1436736 28.0816272 73.9750606 21.0989278 79.7281512 33.5226666 89.964645 21.0989278 100.200497 28.0816272 105.953587 35.5679482 99.7849742 35.5679482 108.508376 45.442142 108.508376 45.442142 99.7849742 52.9284631 105.953587 59.9105208 100.200497 47.4874236 89.964645"></polygon>
                            <path d="M209.033879,99.0765309 C208.860017,107.532765 208.693854,118.04606 208.550145,128.329436 L318.181861,128.329436 C325.678447,128.329436 331.75591,122.245597 331.75591,114.740505 L331.75591,111.604499 C331.75591,111.604499 288.488067,99.0765309 259.839368,99.0765309 L209.033879,99.0765309 Z" id="Fill-35" fill="#BA104A"></path>
                            <path d="M328.215481,116.303242 C328.215481,116.303242 325.078271,120.595261 326.151594,125.614283 C326.694351,128.151089 328.97765,129.937129 331.569538,129.937129 L349.656936,129.937129 L346.306729,119.645403 L328.215481,116.303242 Z" id="Fill-36" fill="#FFFFFF"></path>
                            <path d="M258.562799,51.0733542 L302.404194,51.0733542 C305.13979,51.0733542 307.773379,52.0964256 309.791715,53.9454039 C317.788073,61.2719565 338.592463,81.3313483 347.07063,99.0767878 L278.829564,99.0767878 C267.779398,99.0767878 258.143221,91.564631 255.437136,80.8400429 C253.871739,74.6348228 252.072815,67.8162737 250.364992,62.0554763 C248.738647,56.5734065 252.850381,51.0733542 258.562799,51.0733542" id="Fill-37" fill="#163774"></path>
                            <path d="M336.956045,119.645468 L393.583016,119.645468 C392.931837,115.833836 390.524717,112.499381 387.004497,110.721048 C378.944625,106.649956 364.370389,100.553273 347.070822,99.0767878 L259.839689,99.0767878 C259.839689,99.0767878 315.948924,105.457337 328.215481,116.303306 C330.634149,118.441288 333.7303,119.645468 336.956045,119.645468" id="Fill-38" fill="#EFDAE2"></path>
                            <path d="M393.765731,149.878543 L326.936731,149.878543 C326.936731,149.878543 325.877522,153.655494 325.683772,157.919897 L397.013931,157.919897 C397.226928,155.295106 396.532122,152.407 393.765731,149.878543" id="Fill-39" fill="#163774"></path>
                            <path d="M325.683707,157.919576 C325.557321,160.695291 325.796621,163.677804 326.936667,165.96093 L393.765667,165.96093 C393.765667,165.96093 396.659086,162.307929 397.014509,157.919576 L325.683707,157.919576 Z" id="Fill-40" fill="#0E244C"></path>
                            <path d="M346.306857,119.645468 L350.165177,131.498453 C350.970972,133.97232 353.274801,135.646612 355.873745,135.646612 L380.650652,135.646612 C383.689063,135.646612 386.248231,133.375047 386.611993,130.355927 L387.902163,119.645468 L346.306857,119.645468 Z" id="Fill-41" fill="#0E244C"></path>
                            <path d="M244.293174,65.0518616 L249.39034,83.6829354 C251.065443,89.8053079 246.462276,95.8448328 240.121133,95.8448328 L224.800768,95.8448328 C219.167261,95.8448328 214.744372,91.0191214 215.224898,85.3996145 C215.761239,79.1320981 216.785163,71.168454 218.726512,64.8046033 C219.964716,60.7495671 223.691517,57.9725673 227.927072,57.9725673 L235.023968,57.9725673 C239.353832,57.9725673 243.149279,60.8715907 244.293174,65.0518616" id="Fill-42" fill="#163774"></path>
                            <polygon id="Fill-43" fill="#BA104A" points="192.475245 25.9871689 225.488452 25.9871689 225.488452 15.3736865 192.475245 15.3736865"></polygon>
                            <polygon id="Fill-44" fill="#930C3A" points="202.355213 25.9871689 289.827572 25.9871689 289.827572 15.3736865 202.355213 15.3736865"></polygon>
                            <polygon id="Fill-45" fill="#BA104A" points="230.580485 25.9871689 233.376387 25.9871689 233.376387 15.3736865 230.580485 15.3736865"></polygon>
                            <polygon id="Fill-46" fill="#BA104A" points="258.806398 25.9871689 261.6023 25.9871689 261.6023 15.3736865 258.806398 15.3736865"></polygon>
                            <polygon id="Fill-47" fill="#BA104A" points="14.2816859 29.2696032 27.916683 29.2696032 27.916683 13.5073679 14.2816859 13.5073679"></polygon>
                            <path d="M42.9573301,27.3397039 L52.7365735,27.3397039 L52.7365735,15.4372672 L42.9573301,15.4372672 L42.9573301,27.3397039 Z M41.0294533,29.2696032 L54.6644504,29.2696032 L54.6644504,13.5073679 L41.0294533,13.5073679 L41.0294533,29.2696032 Z" id="Fill-48" fill="#BA104A"></path>
                            <polygon id="Fill-49" fill="#BA104A" points="149.020067 29.2696032 162.655065 29.2696032 162.655065 13.5073679 149.020067 13.5073679"></polygon>
                            <path d="M124.200177,27.3397039 L133.980062,27.3397039 L133.980062,15.4372672 L124.200177,15.4372672 L124.200177,27.3397039 Z M122.272942,29.2696032 L135.907297,29.2696032 L135.907297,13.5073679 L122.272942,13.5073679 L122.272942,29.2696032 Z" id="Fill-50" fill="#BA104A"></path>
                            <path d="M126.306406,161.118007 L160.741302,161.118007 L160.741302,45.285519 L126.306406,45.285519 L126.306406,161.118007 Z M161.753678,43.2580009 L125.293389,43.2580009 C124.734593,43.2580009 124.281013,43.712057 124.281013,44.272081 L124.281013,162.132087 C124.281013,162.692111 124.734593,163.145525 125.293389,163.145525 L161.753678,163.145525 C162.313115,163.145525 162.766695,162.692111 162.766695,162.132087 L162.766695,44.272081 C162.766695,43.712057 162.313115,43.2580009 161.753678,43.2580009 L161.753678,43.2580009 Z" id="Fill-51" fill="#FFF1F6"></path>
                            <path d="M15.2816798,27.8198346 L15.9238777,14.7934965 L23.3941598,14.7934965 C23.3941598,14.7934965 20.5026654,15.8390459 20.4224708,18.5730162 C20.3422763,21.3069866 20.5828599,21.467544 19.3382406,22.8342081 C18.0929797,24.2015144 15.2816798,27.8198346 15.2816798,27.8198346" id="Fill-52" fill="#E55D8C"></path>
                            <path d="M149.984391,27.8198346 L150.626589,14.7934965 L158.096871,14.7934965 C158.096871,14.7934965 155.205376,15.8390459 155.125182,18.5730162 C155.044987,21.3069866 155.285571,21.467544 154.04031,22.8342081 C152.795691,24.2015144 149.984391,27.8198346 149.984391,27.8198346" id="Fill-53" fill="#E55D8C"></path>
                            <polygon id="Fill-54" fill="#FB3377" points="203.559992 24.4427999 203.559992 16.8439421 227.536236 16.8439421"></polygon>
                            <polygon id="Fill-55" fill="#FB3377" points="235.187308 24.4427999 235.187308 16.8439421 255.60933 16.8439421"></polygon>
                            <polygon id="Fill-56" fill="#FB3377" points="263.862504 24.4427999 263.862504 16.8439421 286.814824 16.8439421"></polygon>
                            <path d="M272.718355,54.3544398 L265.448238,55.07181 C260.190684,55.5907313 256.610158,60.6470031 257.864401,65.7841957 C259.743519,73.4838836 262.391864,83.2952215 264.163843,85.5314641 C267.17595,89.3315353 272.718355,54.3544398 272.718355,54.3544398" id="Fill-57" fill="#21478C"></path>
                            <path d="M230.580549,60.4653164 C230.580549,60.4653164 225.40768,60.1435595 222.516186,63.1992868 C219.624691,66.2550141 217.536425,84.4268939 219.142882,88.607807 C220.749339,92.7893624 239.896589,60.2649408 230.580549,60.4653164" id="Fill-58" fill="#21478C"></path>
                            <path d="M309.791394,53.9455324 C307.773058,52.096554 305.139469,51.0734826 302.403873,51.0734826 L279.849959,51.0734826 C282.007513,53.9095675 285.08955,56.6345467 289.415565,57.9729527 C300.590193,61.4300733 302.51807,64.9141676 304.445947,70.0873251 C306.373824,75.2604826 302.51807,89.7337635 309.908158,91.6630205 C312.917057,92.4491093 314.299611,95.6082355 314.883427,99.076274 L347.070309,99.076274 C338.592784,81.3314768 317.788394,61.2720849 309.791394,53.9455324" id="Fill-59" fill="#0E244C"></path>
                            <path d="M249.390532,83.6828069 L244.293367,65.0517331 C243.431115,61.9015981 241.063131,59.4803934 238.095291,58.4778734 C239.891649,60.1136316 241.233785,62.3306073 241.151024,65.289358 C240.909799,73.8933048 234.645642,76.5469965 239.223147,82.8183662 C243.801935,89.0903782 241.031053,87.6434354 235.187116,91.7440699 C230.591006,94.9693457 224.84202,92.9443966 222.830741,95.6417599 C223.465881,95.7734169 224.124118,95.8447043 224.80096,95.8447043 L240.121326,95.8447043 C246.462469,95.8447043 251.064994,89.8051794 249.390532,83.6828069" id="Fill-60" fill="#1E1240"></path>
                            <path d="M238.594358,68.1040566 L238.594358,68.1040566 C235.724034,68.1040566 233.37658,70.4546161 233.37658,73.327308 L233.37658,88.4511673 C233.37658,91.323217 235.724034,93.6737764 238.594358,93.6737764 C241.464039,93.6737764 243.812135,91.323217 243.812135,88.4511673 L243.812135,73.327308 C243.812135,70.4546161 241.464039,68.1040566 238.594358,68.1040566" id="Fill-61" fill="#FFE6E6"></path>
                        </g>
                        <g id="Group-161" transform="translate(0.000000, 136.800000)">
                            <path d="M367.221685,62.750823 C367.221685,71.3304774 362.849182,78.2861756 357.456777,78.2861756 C352.0635,78.2861756 347.691869,71.3304774 347.691869,62.750823 C347.691869,54.1711687 352.0635,47.2154704 357.456777,47.2154704 C362.849182,47.2154704 367.221685,54.1711687 367.221685,62.750823" id="Fill-28" fill="#FFFFFF"></path>
                            <path d="M357.456603,47.215645 C356.679036,47.215645 355.924135,47.3648639 355.199743,47.6371231 C359.504252,49.2584614 362.70779,55.4078536 362.70779,62.7509975 C362.70779,70.0941415 359.504252,76.2435337 355.199743,77.8639994 C355.924135,78.1371311 356.679036,78.2854775 357.456603,78.2854775 C362.849879,78.2854775 367.22151,71.3306519 367.22151,62.7509975 C367.22151,54.1713432 362.849879,47.215645 357.456603,47.215645" id="Fill-29" fill="#FFE6E6"></path>
                            <path d="M211.100668,68.4910411 C211.100668,68.4910411 215.732069,64.7727837 217.682087,66.936895 C219.632105,69.1010064 213.171854,72.7738873 212.313219,71.909988 C211.454583,71.0452161 211.100668,68.4910411 211.100668,68.4910411" id="Fill-60" fill="#311E69"></path>
                            <path d="M394.365984,21.5430887 C394.365984,21.5430887 397.687203,15.6877713 395.822613,11.3804916 C393.959766,7.07233927 389.079928,7.03830687 386.301784,8.39523959 C383.523641,9.75217232 381.896156,14.7226474 380.439527,16.3247879 C378.982898,17.9260558 374.222484,18.6520803 374.67926,22.5309008 C375.832534,32.3173963 389.588135,31.5695562 394.365984,21.5430887" id="Fill-61" fill="#163774"></path>
                            <path d="M394.523066,9.42563584 C393.969529,10.2406681 393.272161,11.1159115 392.389989,12.0478756 C388.400167,16.2600391 383.495049,15.6745074 381.283518,15.1142818 C380.992366,15.6055699 380.712547,16.0244302 380.439701,16.3246134 C378.982201,17.9267539 374.221786,18.6527784 374.679435,22.5307263 C375.832708,32.3172218 389.588309,31.5693817 394.366158,21.5429142 C394.366158,21.5429142 397.686506,15.6875967 395.822787,11.3803171 C395.481076,10.5897183 395.036504,9.94572066 394.523066,9.42563584" id="Fill-62" fill="#0E244C"></path>
                            <path d="M400.297716,23.0974093 C408.492672,27.1603538 414.960768,37.7374481 417.902793,37.9704391 C421.939687,38.28982 436.653299,29.7686316 439.703416,26.9090377 C442.752662,24.0503164 447.419803,30.9353319 444.169192,37.4573353 C440.918581,43.9793386 430.201765,53.1680856 418.485096,53.1680856 C402.164921,53.1680856 393.494883,32.5444535 393.494883,32.5444535 C393.494883,32.5444535 395.423108,20.6802365 400.297716,23.0974093" id="Fill-63" fill="#BA104A"></path>
                            <path d="M395.125331,35.8042334 C398.341945,41.6167922 406.271029,53.1677365 418.484573,53.1677365 C430.202114,53.1677365 440.91893,43.9789895 444.168669,37.4578588 C446.766368,32.2474117 444.308143,26.8083367 441.659885,26.2899971 C440.921545,27.0579076 440.32791,27.6992874 440.216331,27.8921376 C439.882466,28.4663252 439.14587,33.5650763 438.443271,37.4255717 C437.740671,41.2869397 431.655256,45.2024106 425.960368,45.5191736 C420.264607,45.8368093 421.044789,46.9974013 416.754227,46.6073377 C412.462793,46.2172741 411.448993,42.3122748 408.40585,37.4255717 C405.362706,32.5406139 396.097289,27.2385411 396.097289,27.2385411 L395.125331,35.8042334 Z" id="Fill-64" fill="#930C3A"></path>
                            <path d="M439.640914,26.4550106 C439.579895,25.9881559 440.006161,24.7010333 440.414122,24.0247485 C441.194304,22.7297722 440.574517,22.1922348 440.486474,21.6197925 C440.398431,21.0482227 441.366902,21.1223959 441.794041,22.3336002 C442.066886,23.1093643 441.695537,24.0945585 442.280456,23.5439318 C442.865374,22.9924324 443.944552,18.1737942 444.672431,20.2192285 C444.776164,20.5080675 445.017628,21.7428327 445.017628,21.7428327 C445.017628,21.7428327 445.259964,22.7943465 445.208533,23.4749944 C445.12049,24.608535 444.181658,26.3834553 442.703236,27.6810495 C441.978844,28.3180662 439.983497,29.05718 439.640914,26.4550106" id="Fill-65" fill="#F39B9B"></path>
                            <path d="M339.634644,138.987928 C341.562869,138.887576 343.151126,138.06469 344.385469,137.295907 L347.616902,141.572645 C347.616902,141.572645 345.931885,142.391168 345.330404,143.979346 C345.068019,144.672211 346.842823,153.795511 346.223908,154.398495 C345.191802,155.40376 336.313424,143.577939 335.935973,140.782046 C335.738967,139.319526 337.520744,139.097006 339.634644,138.987928" id="Fill-66" fill="#0E244C"></path>
                            <path d="M384.62653,174.008835 C385.703093,172.404076 385.998603,170.638755 386.123258,169.188451 L391.480794,169.165763 C391.480794,169.165763 391.124264,171.007003 392.032587,172.440727 C392.429216,173.066399 400.785438,177.118 400.897017,177.97579 C401.080949,179.405151 386.30283,179.422604 383.84199,178.047346 C382.554473,177.328302 383.446233,175.768048 384.62653,174.008835" id="Fill-67" fill="#0E244C"></path>
                            <path d="M391.156692,170.996357 C390.261445,171.227603 387.379568,171.248546 384.3495,170.574006 C381.235748,169.879396 379.387721,166.658535 380.36578,163.618308 C383.598085,153.574388 391.406001,132.894035 396.965775,123.840545 C399.717767,119.35874 396.960545,83.1727041 396.534278,72.1470804 C396.168159,61.2951091 409.545438,60.0551082 413.880457,58.4398783 C425.804593,95.0962596 407.898775,166.688205 391.156692,170.996357" id="Fill-68" fill="#BA104A"></path>
                            <path d="M373.492164,113.03238 C375.882396,112.298501 372.862789,99.7963953 373.843464,85.5019162 C374.341211,78.2521432 375.887626,66.2107833 378.759043,62.5405203 C384.740724,54.89283 394.18397,67.5240847 398.919105,67.3155272 C401.671969,106.823649 389.291056,137.98598 353.441065,147.168618 C346.630387,148.912997 342.901207,138.116873 342.901207,138.116873 C342.901207,138.116873 359.197846,117.419068 373.492164,113.03238" id="Fill-69" fill="#BA104A"></path>
                            <path d="M378.758607,62.5402585 C377.881665,63.6615823 377.128507,65.5665239 376.490414,67.875491 C380.32943,69.8947466 389.618383,73.4873459 398.918669,67.3161381 C394.184406,67.523823 384.740288,54.8925682 378.758607,62.5402585" id="Fill-70" fill="#1E1240"></path>
                            <path d="M379.519698,64.003477 C377.977641,63.0043207 377.655108,60.8925669 378.803151,59.4570979 C381.473202,56.1201778 384.664536,51.0676759 384.844109,50.1793431 C386.195261,43.4906683 376.308314,38.3439228 383.146016,30.0696874 C386.092399,26.5041394 389.982846,22.8120607 398.291124,22.8146772 C399.900303,22.8146772 400.712738,24.1733566 402.178084,25.8304725 C403.061999,26.8287561 405.764304,27.9361179 406.464288,28.7415513 C409.984257,32.794897 408.43697,43.9095286 413.398749,55.2763489 C418.678703,66.2339079 391.866614,72.003708 379.519698,64.003477" id="Fill-71" fill="#BA104A"></path>
                            <path d="M405.130831,48.1257934 C408.152182,50.5368578 411.745375,52.4199837 415.891233,52.9880629 C414.561002,42.1884492 406.377378,32.9333827 406.377378,32.9333827 L405.130831,48.1257934 Z" id="Fill-72" fill="#1E1240"></path>
                            <path d="M413.398924,55.2763489 C408.437144,43.9095286 409.984431,32.794897 406.46359,28.7415513 C405.764478,27.9361179 403.062173,26.8287561 402.177387,25.8304725 C400.712912,24.1733566 399.900477,22.8146752 398.290427,22.8146752 C396.574028,22.813806 395.054635,22.9778596 393.684306,23.2597177 C396.297695,26.810431 399.684293,32.0837072 401.386745,37.5088202 C404.388046,47.0762867 401.965561,53.9857357 402.356959,60.0784073 C402.480742,61.9938203 402.681236,64.3952858 402.898292,66.7871525 C410.57458,64.9982701 416.058514,60.7957055 413.398924,55.2763489" id="Fill-73" fill="#930C3A"></path>
                            <path d="M384.098273,28.9604058 C384.098273,28.9604058 359.799326,52.7795927 357.225163,67.7355219 C354.651,82.6897059 353.245802,87.8416871 360.268307,87.8416871 C363.118802,87.8416871 368.268871,84.2124375 369.300977,68.3969721 L384.304868,46.6101301 C387.072551,42.5908168 387.614756,37.4414535 385.745807,32.9334699 L384.098273,28.9604058 Z" id="Fill-74" fill="#BA104A"></path>
                            <path d="M385.745545,32.9332081 C382.79829,37.0179683 379.091775,42.2990981 378.05531,44.4204508 C376.2622,48.0915865 365.651733,58.1660484 365.261206,59.4933118 C364.871552,60.8214479 361.750826,72.6926458 361.593918,75.2712543 C361.49803,76.8629233 359.764196,83.1292474 358.453143,87.6887158 C358.983143,87.790813 359.584624,87.8414253 360.268045,87.8414253 C363.118541,87.8414253 368.269481,84.2130483 369.300716,68.3975829 L384.304607,46.6098683 C387.07229,42.590555 387.615366,37.4411917 385.745545,32.9332081" id="Fill-75" fill="#930C3A"></path>
                            <polygon id="Fill-76" fill="#DDBCBC" points="396.540205 31.8322165 402.823499 29.1951421 403.923598 32.2135538 397.797213 34.6673769"></polygon>
                            <path d="M389.241281,32.9332081 C389.017251,32.9332081 388.814143,32.7770082 388.764455,32.5492529 C388.59883,31.7944318 387.210194,25.1214643 389.328452,22.954735 C389.731183,22.5428558 390.45819,22.0978167 391.635872,22.332553 C391.900872,22.3840379 392.073471,22.6414625 392.020296,22.9067406 C391.967994,23.1720188 391.709967,23.3447986 391.445839,23.2924411 C390.837384,23.1728914 390.372762,23.2854601 390.027565,23.6397461 C388.543912,25.1563693 389.302301,30.4340086 389.719851,32.3389501 C389.777384,32.6033557 389.610887,32.8642707 389.346758,32.921864 C389.311018,32.9297176 389.27615,32.9332081 389.241281,32.9332081" id="Fill-77" fill="#163774"></path>
                            <path d="M401.867929,37.9159 C401.633439,37.9159 401.426843,37.7474833 401.386745,37.5083839 C401.379771,37.4734788 400.759984,33.9061856 399.200493,28.9217485 C397.722943,24.1982264 393.066262,23.5428846 393.020062,23.5367763 C392.751575,23.5027439 392.562413,23.2575361 392.597282,22.98964 C392.63215,22.721744 392.879716,22.5315116 393.144716,22.5664167 C393.361772,22.5943407 398.470871,23.3142567 400.134096,28.6294189 C401.714508,33.6801756 402.343884,37.30768 402.350857,37.3434576 C402.396186,37.6096084 402.217485,37.8626698 401.950742,37.9080464 C401.922847,37.9132821 401.894952,37.9159 401.867929,37.9159" id="Fill-78" fill="#163774"></path>
                            <path d="M390.143241,18.8417018 L390.217336,25.9474916 C390.23477,27.1159372 393.17941,30.0558127 394.989083,28.5322085 C395.519083,28.0871694 394.860069,25.6673788 394.323095,24.4657734 L392.706943,19.2247844 L390.143241,18.8417018 Z" id="Fill-79" fill="#F39B9B"></path>
                            <path d="M390.206614,24.8844592 C391.142832,24.407133 392.908047,23.2631209 392.663968,21.5082709 C392.459987,20.0431326 391.145447,20.5989951 390.168259,21.2386296 L390.206614,24.8844592 Z" id="Fill-80" fill="#311E69"></path>
                            <path d="M391.855107,15.2953516 L392.941259,17.8329467 C393.801638,19.8443485 392.99269,22.2632665 391.001702,23.166434 C389.163263,23.9997914 387.020597,23.3636474 386.116633,21.00145 C385.312043,18.9001677 386.372044,16.6409402 386.678886,15.5196163 C387.377127,12.9645687 390.393247,12.4689174 391.855107,15.2953516" id="Fill-81" fill="#F39B9B"></path>
                            <path d="M392.426775,17.8540642 C392.457285,17.6132195 392.450311,17.3706296 392.42939,17.1289124 C392.389292,16.6699113 392.435492,15.9779193 393.145937,16.2536689 C394.178914,16.6542041 394.259112,19.1132629 393.140706,19.399484 C392.310838,19.611532 392.350936,18.4605389 392.426775,17.8540642" id="Fill-82" fill="#F39B9B"></path>
                            <path d="M386.672959,18.4556522 C386.580557,18.2313875 386.522153,17.9966512 386.478567,17.7575518 C386.395755,17.3046591 386.166495,16.6493174 385.554554,17.1039553 C384.665408,17.7654054 385.241609,20.1572721 386.394883,20.1354564 C387.251775,20.1188765 386.907449,19.020241 386.672959,18.4556522" id="Fill-83" fill="#F39B9B"></path>
                            <path d="M387.77114,20.6951584 C387.77114,20.6951584 389.077835,21.0529349 390.403708,20.5075439 C390.403708,20.5075439 390.286899,20.2789161 389.606964,20.0982826 C388.797144,19.8844893 388.143361,19.9918222 387.77114,20.6951584" id="Fill-84" fill="#FFFFFF"></path>
                            <path d="M390.548412,22.365451 C389.763,22.5923336 388.276733,22.6377102 387.575005,22.3017493 C386.953475,22.0050566 386.233442,21.0887998 386.078278,20.8837328 C386.091353,20.923001 386.100942,20.9622691 386.116633,21.0015373 C387.020597,23.3637346 389.163263,23.9998786 391.001702,23.1665212 C392.228199,22.6097861 393.004894,21.4762456 393.219335,20.2187922 C392.400798,21.5085327 391.25537,22.1630019 390.548412,22.365451" id="Fill-85" fill="#C87171"></path>
                            <path d="M173.207213,174.189468 C172.903857,173.706034 172.717311,170.844695 172.618808,170.348171 C169.525105,170.785356 168.277687,170.01221 166.270136,170.819388 C166.029544,171.998306 162.452913,179.67741 163.906927,180.497678 C166.686814,182.066659 183.215328,182.130361 183.2162,180.497678 C183.217943,178.305643 173.652657,174.898913 173.207213,174.189468" id="Fill-86" fill="#0E244C"></path>
                            <path d="M104.907254,145.032344 C105.012731,144.471245 106.818916,142.246923 107.083916,141.814101 C104.518471,140.030454 104.127072,138.615055 102.107318,137.840164 C101.13013,138.541755 93.2917034,141.741673 93.8016544,143.332469 C94.7762274,146.374442 106.857271,157.667089 107.966088,156.469847 C109.455842,154.864216 104.752089,145.856102 104.907254,145.032344" id="Fill-87" fill="#0E244C"></path>
                            <path d="M189.811391,28.9237555 C189.811391,28.9237555 195.752102,47.8963801 197.444965,53.5195792 C200.850741,64.8349146 212.57787,79.0133345 210.939053,83.0780242 C209.301108,87.1418414 198.493634,88.0336647 193.540571,83.0780242 C188.586637,78.1215111 179.45895,53.7534428 180.511977,41.3359813 C181.565004,28.9176472 189.811391,28.9237555 189.811391,28.9237555" id="Fill-88" fill="#930C3A"></path>
                            <path d="M185.930446,68.2847524 C186.438654,65.640697 187.067158,61.8857893 186.772519,60.7827906 C186.305282,59.0253228 188.177718,57.8542593 189.347554,53.9291896 C190.518262,50.0049925 186.772519,34.247993 186.772519,34.247993 L180.918108,49.5049781 C181.786332,55.4746094 183.713685,62.2950507 185.930446,68.2847524" id="Fill-89" fill="#1E1240"></path>
                            <path d="M179.238495,3.09604645 C179.238495,3.09604645 177.508148,0.450245792 174.188672,0.570668118 C170.868325,0.691090443 168.336876,4.21475239 168.958406,8.67474156 C169.299245,11.1233288 170.5702,12.6390794 170.5702,12.6390794 C170.5702,12.6390794 178.045994,13.8956602 179.482574,10.2079446 C180.920025,6.52022908 179.238495,3.09604645 179.238495,3.09604645" id="Fill-90" fill="#163774"></path>
                            <path d="M98.5916197,130.175632 C104.766821,121.116034 119.933722,109.30941 127.77302,108.613927 C137.238931,107.774462 138.219606,81.5232673 142.606928,69.5386281 C144.311123,64.8831708 147.373444,63.1789331 147.832836,62.0183411 C152.807691,63.0846895 165.708144,65.4564858 178.708843,64.6109116 C179.815044,68.5865936 181.847875,69.680866 182.022217,73.7551547 C182.66554,88.7337722 182.107645,144.161202 173.958018,169.694225 C172.562408,174.068697 164.812896,172.864474 162.255296,170.787625 C155.577117,165.366875 155.414979,151.166639 156.644092,138.099945 C157.400737,130.053464 158.594109,126.06033 160.206775,122.236485 C162.958767,115.710118 161.254572,87.5435109 161.254572,87.5435109 C158.721379,93.9241489 151.333628,115.862828 142.757734,123.247858 C125.976424,137.698537 109.460114,147.7634 100.534664,140.64103 C97.6275072,138.321591 96.4541841,133.310976 98.5916197,130.175632" id="Fill-91" fill="#BA104A"></path>
                            <path d="M158.59071,77.9118192 L143.626045,67.320763 C143.259055,67.9761048 142.910371,68.7091102 142.607015,69.5381045 C141.91662,71.4247209 141.310781,73.6647507 140.742425,76.1028665 C143.753315,78.390018 149.434256,80.8194075 158.59071,77.9118192" id="Fill-92" fill="#1E1240"></path>
                            <path d="M178.709017,64.6110861 C177.345661,64.700094 175.983177,64.7507062 174.630281,64.7742671 C172.564326,68.3939179 170.94643,71.793667 170.65615,73.9761035 C169.745212,80.8157425 174.22232,105.339138 173.388093,114.086337 C172.553865,122.834408 166.312414,136.423805 166.312414,149.232203 C166.312414,152.35882 167.103056,163.339068 168.748846,172.656091 C171.102466,172.624676 173.280001,171.81837 173.958192,169.6944 C182.106947,144.161376 182.665714,88.7339467 182.022391,73.7553292 C181.848049,69.6810406 179.815219,68.5867681 178.709017,64.6110861" id="Fill-93" fill="#930C3A"></path>
                            <path d="M182.656387,74.028461 C183.320631,41.8041449 195.728566,36.7341905 188.161242,25.9581376 C182.523887,17.9299826 172.344044,13.9220135 164.637247,15.3993685 C142.454814,19.6516728 138.915667,66.0029239 141.033925,70.6627443 C145.664455,80.8489023 178.999559,79.1664802 182.656387,74.028461" id="Fill-94" fill="#BA104A"></path>
                            <path d="M150.552487,34.2481676 C150.552487,34.2481676 148.153539,42.5075684 147.977453,49.3602968 C147.802239,56.2138978 147.637486,69.2762296 162.260439,75.4264944 C176.884264,81.5767593 150.552487,34.2481676 150.552487,34.2481676" id="Fill-95" fill="#1E1240"></path>
                            <path d="M188.161591,25.9582249 C185.357296,21.965963 181.430238,18.9684943 177.242538,17.1447069 C177.929446,20.2224572 179.053953,25.5332562 179.545598,29.3867707 C180.277836,35.1269015 176.375185,42.3897639 176.220021,48.364631 C176.064856,54.3394981 170.915659,63.5945646 169.394523,71.7946269 C169.084194,73.4665774 168.685822,75.611491 168.249094,77.96758 C175.26201,77.5173052 181.226257,76.0373323 182.656735,74.0285483 C183.320979,41.8042322 195.728915,36.7342777 188.161591,25.9582249" id="Fill-96" fill="#930C3A"></path>
                            <path d="M403.745421,61.6897976 C403.264236,64.0738106 402.933858,65.9569365 402.898117,66.787676 C402.749055,70.2720698 406.962035,75.8952689 409.42026,84.3300674 C411.877613,92.7648659 405.675389,97.3339333 407.313334,106.589 C408.952151,115.844066 409.18577,111.509735 405.909008,121.818061 C402.632246,132.128132 390.227797,147.006397 389.525198,156.846995 C389.01699,163.965875 385.694027,167.405765 385.045474,170.715633 C387.810542,171.242699 390.329787,171.209539 391.157041,170.996619 C407.899124,166.687594 425.80407,95.0965214 413.880806,58.4392675 C411.769521,59.2263757 407.513828,59.927094 403.745421,61.6897976" id="Fill-97" fill="#930C3A"></path>
                            <path d="M168.350649,26.4968094 C167.410944,38.3636442 165.552456,45.9040015 168.350649,55.3405741 C172.372724,68.8976846 193.083708,77.1876273 197.444878,80.5036044 C199.704353,82.2209314 196.696078,92.8407843 187.966763,90.2106909 C179.824982,87.7559953 150.903351,78.1091199 149.616706,48.0131374 C149.178235,37.7658957 150.71419,28.7481833 153.330195,24.1180321 C158.472419,15.0191656 168.84055,20.3046585 168.350649,26.4968094" id="Fill-98" fill="#BA104A"></path>
                            <path d="M179.736503,4.53963088 C180.083444,5.87998372 180.345829,7.99348279 179.482835,10.2082064 C178.046255,13.895922 170.570461,12.6393412 170.570461,12.6393412 C170.570461,12.6393412 169.299506,11.1235906 168.957795,8.67500334 C168.750328,7.18368629 168.901134,5.80232005 169.309967,4.61293143 C173.187338,7.4812516 177.437801,5.85467758 179.736503,4.53963088" id="Fill-99" fill="#0E244C"></path>
                            <path d="M172.623602,8.92832654 L168.35309,16.6466995 C168.246741,18.5525137 171.614161,21.4775545 174.243241,19.8108397 C174.827288,19.4399739 175.588292,11.3550982 175.588292,11.3550982 L172.623602,8.92832654 Z" id="Fill-100" fill="#F39B9B"></path>
                            <path d="M175.348135,13.6514996 C175.261836,14.4246458 175.156359,15.3059976 175.040421,16.1585528 C173.841818,15.7510366 172.210847,14.9691641 172.058298,13.7038571 C171.897031,12.3591411 173.951654,13.0424069 175.348135,13.6514996" id="Fill-101" fill="#311E69"></path>
                            <path d="M174.097666,6.21926053 L171.772812,10.4907626 C171.119029,11.9576461 171.746661,13.6828268 173.194573,14.3756915 C174.351334,14.9298087 175.140232,15.0772824 176.731977,15.1767618 C178.059593,15.2587886 178.95484,14.1348469 179.268656,12.4323544 C179.675745,10.2228665 179.422949,8.07271719 179.223327,6.92957773 C178.769165,4.32304522 175.81668,3.54640849 174.097666,6.21926053" id="Fill-102" fill="#F39B9B"></path>
                            <path d="M176.583786,11.8917629 C176.583786,11.8917629 178.378639,11.4083283 179.053343,11.9947327 C179.053343,11.9947327 178.330695,12.5863728 176.583786,11.8917629" id="Fill-103" fill="#FFFFFF"></path>
                            <path d="M173.217848,12.7887347 C172.808143,12.3105359 171.851005,10.9762914 171.823982,10.3968681 L171.773422,10.490239 C171.119639,11.9571225 171.747271,13.6823032 173.194311,14.3760406 C174.351072,14.9301578 175.139971,15.0776315 176.732587,15.1762382 C177.541535,15.2268505 178.189216,14.8263153 178.644249,14.1212339 C178.377506,14.1151255 175.415431,15.3525085 173.217848,12.7887347" id="Fill-104" fill="#C87171"></path>
                            <path d="M173.849925,8.71959451 C173.779317,8.15151528 173.339974,6.93333002 172.548461,7.45254222 C171.397802,8.20823594 171.688082,10.5521082 173.119431,10.6088288 C174.182919,10.6498422 173.886537,9.01890507 173.849925,8.71959451" id="Fill-105" fill="#F39B9B"></path>
                            <path d="M179.501577,6.94833918 C178.130375,7.79042283 176.046986,9.00599021 173.193876,8.22499035 C170.339893,7.44486311 170.788825,6.0233561 170.788825,6.0233561 C170.788825,6.0233561 173.10932,6.26158287 173.706442,4.93780992 C174.302692,3.61403697 178.574076,2.05378249 179.91041,3.52939229 C181.247614,5.00500209 179.931331,6.68480626 179.501577,6.94833918" id="Fill-106" fill="#163774"></path>
                            <path d="M259.67642,175.178851 C259.67642,178.779304 256.760547,181.699109 253.163867,181.699109 C249.567187,181.699109 246.652185,178.779304 246.652185,175.178851 C246.652185,171.578398 249.567187,168.659466 253.163867,168.659466 C256.760547,168.659466 259.67642,171.578398 259.67642,175.178851" id="Fill-107" fill="#0E244C"></path>
                            <path d="M305.478736,130.997122 L349.006758,93.542288 C350.132137,92.5736736 350.260279,90.8755443 349.29268,89.7489847 C348.325952,88.6224252 346.629602,88.4941492 345.504223,89.4627636 L301.357286,127.451644 L257.21035,89.4627636 C256.084971,88.4950218 254.388621,88.6232978 253.421893,89.7489847 C252.454294,90.8755443 252.582436,92.5736736 253.707815,93.542288 L297.235836,130.997122 L253.707815,168.452828 C252.582436,169.42057 252.454294,171.119572 253.421893,172.246131 C253.952765,172.864823 254.70418,173.181586 255.460826,173.181586 C256.080612,173.181586 256.703014,172.967792 257.21035,172.53148 L301.357286,134.543472 L345.504223,172.53148 C346.011559,172.967792 346.633961,173.181586 347.253747,173.181586 C348.010393,173.181586 348.761807,172.864823 349.29268,172.246131 C350.260279,171.119572 350.132137,169.42057 349.006758,168.452828 L305.478736,130.997122 Z" id="Fill-108" fill="#163774"></path>
                            <path d="M248.070459,170.604373 L248.070459,170.742248 C248.070459,171.593058 248.297104,172.428161 248.727729,173.162039 L249.552368,174.566966 C251.572994,178.008601 254.970052,177.938791 256.934889,174.413384 L257.807472,172.848766 C258.102982,172.319955 258.258146,171.723079 258.258146,171.117477 L258.258146,167.802373 L250.869523,167.802373 C249.323108,167.802373 248.070459,169.057208 248.070459,170.604373" id="Fill-109" fill="#163774"></path>
                            <path d="M342.030106,175.178851 C342.030106,178.779304 344.945979,181.699109 348.542659,181.699109 C352.139339,181.699109 355.055213,178.779304 355.055213,175.178851 C355.055213,171.578398 352.139339,168.659466 348.542659,168.659466 C344.945979,168.659466 342.030106,171.578398 342.030106,175.178851" id="Fill-110" fill="#0E244C"></path>
                            <path d="M353.636503,170.604373 L353.636503,170.742248 C353.636503,171.593058 353.409858,172.428161 352.979233,173.162039 L352.154594,174.566966 C350.133968,178.008601 346.73691,177.938791 344.772073,174.413384 L343.89949,172.848766 C343.60398,172.319955 343.448816,171.723079 343.448816,171.117477 L343.448816,167.802373 L350.837439,167.802373 C352.383854,167.802373 353.636503,169.057208 353.636503,170.604373" id="Fill-111" fill="#163774"></path>
                            <path d="M333.347079,173.181411 C332.727292,173.181411 332.104019,172.967618 331.596683,172.531305 L239.800274,93.5421135 C238.674895,92.5734991 238.546754,90.8762424 239.514353,89.7496829 C240.481081,88.6239959 242.178302,88.4948473 243.302809,89.4634617 L335.099218,168.452653 C336.224597,169.420395 336.352739,171.119397 335.385139,172.245957 C334.854267,172.864648 334.102852,173.181411 333.347079,173.181411" id="Fill-112" fill="#163774"></path>
                            <path d="M245.76949,175.178851 C245.76949,178.779304 242.853617,181.699109 239.256937,181.699109 C235.660257,181.699109 232.744383,178.779304 232.744383,175.178851 C232.744383,171.578398 235.660257,168.659466 239.256937,168.659466 C242.853617,168.659466 245.76949,171.578398 245.76949,175.178851" id="Fill-113" fill="#0E244C"></path>
                            <path d="M241.553111,173.181411 C240.797337,173.181411 240.045922,172.864648 239.514179,172.245957 C238.546579,171.119397 238.674721,169.420395 239.8001,168.452653 L331.596508,89.4634617 C332.722759,88.4939747 334.419109,88.6231233 335.385837,89.7496829 C336.352564,90.8762424 336.224423,92.5734991 335.099044,93.5421135 L243.302635,172.531305 C242.796171,172.967618 242.172898,173.181411 241.553111,173.181411" id="Fill-114" fill="#163774"></path>
                            <path d="M234.163093,170.604373 L234.163093,170.742248 C234.163093,171.593058 234.39061,172.428161 234.820363,173.162039 L235.645002,174.566966 C237.665628,178.008601 241.062686,177.938791 243.027523,174.413384 L243.900106,172.848766 C244.195616,172.319955 244.350781,171.723079 244.350781,171.117477 L244.350781,167.802373 L236.962157,167.802373 C235.415742,167.802373 234.163093,169.057208 234.163093,170.604373" id="Fill-115" fill="#163774"></path>
                            <path d="M328.123176,175.178851 C328.123176,178.779304 331.039049,181.699109 334.635729,181.699109 C338.232409,181.699109 341.147411,178.779304 341.147411,175.178851 C341.147411,171.578398 338.232409,168.659466 334.635729,168.659466 C331.039049,168.659466 328.123176,171.578398 328.123176,175.178851" id="Fill-116" fill="#0E244C"></path>
                            <path d="M339.729137,170.604373 L339.729137,170.742248 C339.729137,171.593058 339.502492,172.428161 339.071867,173.162039 L338.247228,174.566966 C336.226602,178.008601 332.829544,177.938791 330.864707,174.413384 L329.992124,172.848766 C329.696614,172.319955 329.54145,171.723079 329.54145,171.117477 L329.54145,167.802373 L336.930945,167.802373 C338.476488,167.802373 339.729137,169.057208 339.729137,170.604373" id="Fill-117" fill="#163774"></path>
                            <path d="M200.617122,89.186054 L197.893025,87.841338 C197.893025,87.841338 193.862233,83.0820383 209.982786,81.7373224 C226.103339,80.3926064 373.31355,84.4791118 378.182929,86.2723573 C383.052307,88.0656028 383.049692,91.6512212 383.049692,91.6512212 L200.617122,89.186054 Z" id="Fill-118" fill="#BA104A"></path>
                            <path d="M197.444878,80.5032553 C197.250487,80.354909 197.01251,80.1943459 196.755355,80.0259291 C192.358444,80.2589202 191.374282,84.428325 189.530613,84.7991909 C187.197914,85.2677908 179.081412,74.7962842 172.676951,73.9768889 C166.272489,73.1557482 162.021154,67.9287212 162.723754,64.4146581 C163.425481,60.8997224 157.925856,54.3401962 156.05342,50.1795176 C154.180985,46.018839 157.925856,35.3614632 158.276284,32.1981956 C158.508159,30.1126206 157.213668,24.3620182 156.304473,20.6839016 C155.216578,21.4657741 154.198419,22.5827348 153.330195,24.1185557 C150.71419,28.7478342 149.178235,37.7655466 149.616706,48.013661 C150.903351,78.1096434 179.824982,87.7565188 187.966763,90.2103419 C196.696078,92.8413079 199.704353,82.221455 197.444878,80.5032553" id="Fill-119" fill="#930C3A"></path>
                            <path d="M237.671643,77.251329 C237.671643,77.251329 229.597855,72.3017969 222.400136,72.8594046 C215.202418,73.4170123 207.946295,74.547935 207.478186,82.1537393 C207.010077,89.7595435 240.070592,87.6233562 241.474918,85.1712784 C242.879245,82.7200732 237.671643,77.251329 237.671643,77.251329" id="Fill-120" fill="#2E88BF"></path>
                            <path d="M296.029475,44.8014391 C280.989844,44.265647 270.233801,47.9350375 253.5693,46.882651 C224.476814,51.6847094 225.632703,68.4242853 227.489447,74.4244585 C227.632408,74.8860774 227.780599,75.3468237 227.938378,75.80757 C231.625716,86.5556988 244.381465,86.7904351 255.298774,83.6786524 C256.912312,83.2187787 258.484007,82.8924168 260.015603,82.6742604 C274.821616,84.0503909 292.388338,85.7171057 297.542766,85.4876052 C305.146702,69.0857354 303.222835,48.3477893 296.029475,44.8014391" id="Fill-121" fill="#163774"></path>
                            <path d="M224.59432,73.7847367 C224.59432,73.7847367 221.436983,78.5771962 217.030483,79.6164932 C215.840597,79.896606 214.389198,72.2532789 214.389198,72.2532789 C214.389198,72.2532789 217.77754,72.3763191 219.921949,72.9461436 C222.065486,73.515968 224.59432,73.7847367 224.59432,73.7847367" id="Fill-122" fill="#0E244C"></path>
                            <path d="M220.325115,73.9219135 L231.141306,73.5737359 C233.216851,72.4864444 234.17922,67.0927459 230.768214,65.36582 C230.010697,64.9827374 221.016382,69.2655835 221.016382,69.2655835 L220.325115,73.9219135 Z" id="Fill-123" fill="#F39B9B"></path>
                            <path d="M223.585925,68.0742751 C224.455021,67.6798484 225.449643,67.235682 226.418986,66.8220575 C226.745006,68.3439164 226.948115,70.5568948 225.710285,71.514165 C224.395744,72.5307738 223.822159,69.9312223 223.585925,68.0742751" id="Fill-124" fill="#0E244C"></path>
                            <path d="M215.833798,73.3253866 L221.723078,74.2713127 C223.687915,74.4292579 225.426107,72.9955342 225.636189,71.0347446 C225.803558,69.4666365 225.651008,68.4927864 225.114034,66.6070426 C224.665975,65.0354439 223.000135,64.4577658 220.901926,64.7911088 C218.180444,65.2230584 215.797186,66.3958672 214.556741,67.0939676 C211.729782,68.6882545 212.03924,72.4274549 215.833798,73.3253866" id="Fill-125" fill="#F39B9B"></path>
                            <path d="M220.35362,65.0388472 C220.35362,65.0388472 218.974573,65.4140762 220.731071,67.4158792 C220.731071,67.4158792 220.61339,66.4341754 220.35362,65.0388472" id="Fill-126" fill="#FFFFFF"></path>
                            <path d="M223.741351,72.8157733 C223.356055,73.4868224 222.25334,73.9824737 221.595198,74.2512423 L221.72334,74.2713127 C223.688177,74.4292579 225.426369,72.9955342 225.635579,71.0347446 C225.802948,69.4666365 225.65127,68.4927864 225.113424,66.6070426 C224.840579,65.6480271 224.1127,65.0616227 223.111104,64.8233959 C223.213094,65.1349233 225.806435,69.2205561 223.741351,72.8157733" id="Fill-127" fill="#C87171"></path>
                            <path d="M213.112665,67.9907649 C213.112665,67.9907649 209.672021,65.3440916 206.719536,68.3249805 C205.200143,69.8590562 204.508876,74.6314453 207.549405,76.2615098 C209.794061,77.4639878 211.903601,76.6445924 211.903601,76.6445924 C211.903601,76.6445924 211.253305,77.9544034 212.350789,78.90382 C213.448274,79.8523639 217.060644,80.3209638 218.077931,78.9491965 C219.740284,76.7082941 213.112665,67.9907649 213.112665,67.9907649" id="Fill-128" fill="#0E244C"></path>
                            <path d="M218.826034,72.5891525 C218.19753,72.9032977 216.969289,73.9120528 217.893303,74.615389 C219.238353,75.6398514 221.82995,74.3457477 221.309539,72.662453 C220.922499,71.4128532 219.156412,72.4242262 218.826034,72.5891525" id="Fill-129" fill="#F39B9B"></path>
                            <path d="M257.210263,89.4630254 C256.084884,88.4952836 254.388534,88.6235596 253.421806,89.7492465 C252.454207,90.8758061 252.582348,92.5730628 253.707727,93.5425498 L265.534232,103.719109 L273.777132,103.719109 L257.210263,89.4630254 Z" id="Fill-130" fill="#0E244C"></path>
                            <path d="M349.006758,93.5423753 C350.132137,92.5737609 350.260279,90.8756316 349.29268,89.749072 C348.325952,88.6225124 346.629602,88.4942365 345.504223,89.4628508 L328.936482,103.718934 L337.180254,103.718934 L349.006758,93.5423753 Z" id="Fill-131" fill="#0E244C"></path>
                            <path d="M196.740013,82.2212805 C196.740013,82.2212805 200.796956,83.003153 201.655591,83.7832802 C202.513355,84.5651527 201.000936,85.4491224 199.782284,85.0337526 C198.564504,84.6166376 200.328847,87.2135712 201.577137,87.840989 C202.825428,88.4692794 205.868571,89.8157406 203.449573,90.6272824 C201.030575,91.4379515 193.463251,88.3130794 193.541705,85.8924162 C193.619287,83.4717529 195.313893,81.9106258 196.740013,82.2212805" id="Fill-132" fill="#F39B9B"></path>
                            <path d="M163.537496,37.325307 C163.537496,40.0609881 161.322478,42.277457 158.590535,42.277457 C155.858593,42.277457 153.643575,40.0609881 153.643575,37.325307 C153.643575,34.5904986 155.858593,32.3731571 158.590535,32.3731571 C161.322478,32.3731571 163.537496,34.5904986 163.537496,37.325307" id="Fill-133" fill="#DDBCBC"></path>
                            <polygon id="Fill-134" fill="#BA104A" points="162.260613 36.0002251 159.914839 36.0002251 159.914839 33.6519898 157.266581 33.6519898 157.266581 36.0002251 154.920806 36.0002251 154.920806 38.6512615 157.266581 38.6512615 157.266581 40.9994969 159.914839 40.9994969 159.914839 38.6512615 162.260613 38.6512615"></polygon>
                            <path d="M147.2759,105.651713 C145.403464,115.609243 142.478002,115.683416 137.445614,118.633763 C132.413226,121.58411 123.752776,120.647783 117.78417,124.044041 C113.019397,126.757034 101.995739,133.422148 97.7417885,136.001629 C98.1706704,137.828907 99.1530888,139.539253 100.533879,140.641379 C109.460201,147.763749 125.976511,137.698886 142.757821,123.247334 C151.333715,115.862304 158.721466,93.924498 161.254659,87.5429874 C161.254659,87.5429874 149.148335,95.6941826 147.2759,105.651713" id="Fill-135" fill="#930C3A"></path>
                            <polygon id="Fill-136" fill="#DDBCBC" points="176.219846 32.0810893 185.245543 33.0959528 184.569095 37.3255688 175.843267 36.1990092"></polygon>
                            <path d="M403.763727,37.4259208 C403.763727,38.473944 402.91468,39.3238813 401.868627,39.3238813 C400.821702,39.3238813 399.972655,38.473944 399.972655,37.4259208 C399.972655,36.3787701 400.821702,35.5288328 401.868627,35.5288328 C402.91468,35.5288328 403.763727,36.3787701 403.763727,37.4259208" id="Fill-137" fill="#163774"></path>
                            <path d="M387.792846,44.2040397 L387.854738,44.3916542 L389.884081,45.4623657 C389.956433,45.5007612 390.034887,45.5190864 390.111598,45.5190864 C390.287683,45.5190864 390.456795,45.4239702 390.544838,45.2581713 C390.671236,45.0190719 390.579706,44.7223792 390.340858,44.5958485 L388.663685,43.7110062 C388.42135,42.9265159 387.513899,39.8156058 387.46857,37.1767862 L386.496612,37.3233873 C386.575937,40.4674571 387.727468,44.005081 387.792846,44.2040397" id="Fill-138" fill="#DDBCBC"></path>
                            <path d="M393.281488,35.7504797 C392.917113,33.9799225 391.351519,32.4920959 389.716189,32.3629473 C388.433902,32.263468 387.400925,32.9938556 386.883128,34.3708587 C386.568441,35.206834 386.469937,36.2417679 386.49696,37.3238236 L387.468918,37.1772225 C387.453227,36.2609656 387.540399,35.4005569 387.797553,34.7155458 C388.161057,33.7486767 388.801765,33.2713505 389.639479,33.3385427 C390.843312,33.4345315 392.046273,34.6047224 392.323477,35.9485657 C392.354859,36.1021478 392.387112,36.2635835 392.419366,36.4293824 L393.387837,36.2827813 C393.352096,36.0986573 393.316356,35.9206417 393.281488,35.7504797" id="Fill-139" fill="#163774"></path>
                            <path d="M393.387837,36.2831303 L392.419366,36.4297314 C392.887474,38.8233433 393.412244,42.2763226 393.548231,43.186471 L392.192721,44.7030942 C392.013148,44.9046707 392.030582,45.2135802 392.231076,45.3942137 C392.433313,45.5748471 392.74277,45.5582673 392.922343,45.3558181 L394.582952,43.4979983 L394.549827,43.2711157 C394.542854,43.2266118 393.931784,39.0729142 393.387837,36.2831303" id="Fill-140" fill="#DDBCBC"></path>
                            <path d="M377.251418,44.3940975 C375.570759,46.5512279 373.320001,47.6053595 372.22426,46.7493139 C371.128519,45.8941408 371.60273,43.4516619 373.282518,41.2945316 C374.963177,39.1391465 377.213935,38.0850148 378.309675,38.9401879 C379.405416,39.7953609 378.932077,42.2378398 377.251418,44.3940975" id="Fill-141" fill="#DDBCBC"></path>
                            <polygon id="Fill-142" fill="#BA104A" points="377.55364 42.9488551 376.612192 42.2141044 378.055746 40.362393 376.99313 39.5333987 375.550448 41.3851101 374.609 40.6503594 372.980644 42.7402976 373.92122 43.4750483 372.478538 45.3267597 373.540283 46.1566266 374.983836 44.3049152 375.924412 45.0396659"></polygon>
                            <path d="M234.893064,80.1862305 C234.910498,79.8886651 234.898294,79.5928451 234.890449,79.2952798 C234.849478,77.9366018 235.174627,74.1380628 239.611636,71.2095315 C245.112133,67.5776639 266.177032,67.4685858 277.061216,69.6309519 C287.944529,71.7950632 304.4713,77.4182622 301.357548,82.1042614 C298.270819,86.7492472 234.10155,94.0147275 234.893064,80.1862305" id="Fill-143" fill="#F39B9B"></path>
                            <path d="M248.388459,81.4704735 C243.390939,81.394555 238.225179,79.7452928 234.917908,78.4520617 C234.889141,78.7862773 234.883911,79.0751163 234.890013,79.2958906 C234.89873,79.5934559 234.910062,79.889276 234.8935,80.1859687 C234.101986,94.0144657 298.270383,86.7489854 301.357112,82.1048722 C301.457359,81.953908 301.535813,81.8029438 301.596833,81.6502343 C298.765515,81.3378344 295.891484,81.1729082 293.171745,80.8160043 C283.653531,79.5655319 256.658382,81.5970042 248.388459,81.4704735" id="Fill-144" fill="#C87171"></path>
                            <path d="M399.079936,84.9695274 C397.730527,89.943493 395.014275,98.7796993 392.068763,101.668962 C387.887165,105.768557 386.53427,114.672828 385.045387,118.06996 C383.556505,121.467091 373.374919,126.820649 367.640803,130.997034 C361.905816,135.17342 350.671203,135.994561 346.809523,138.689229 C345.610049,139.526076 345.562976,141.527879 346.067697,143.890949 C347.832912,146.122253 350.311187,147.970474 353.441501,147.168531 C383.755255,139.403909 397.286826,115.922428 399.079936,84.9695274" id="Fill-145" fill="#930C3A"></path>
                            <path d="M197.892589,87.841338 L383.049256,91.6512212 C383.049256,94.9628351 380.313826,97.617362 377.007426,97.5143922 L203.637165,92.8973305 C201.217295,92.8222847 199.092935,91.2646481 198.291833,88.9783691 L197.892589,87.841338 Z" id="Fill-146" fill="#163774"></path>
                            <path d="M249.219723,47.7379986 C249.219723,47.7379986 261.144731,83.9240347 261.378349,88.812483 C261.378349,88.812483 294.26365,88.3752976 299.997766,88.812483 C305.732753,89.250541 328.772077,89.0733981 336.035174,89.9538772 C337.788185,90.1659252 343.83786,93.7899391 348.253077,93.9365402 C354.465762,94.1433525 359.880831,90.8474458 366.81355,91.0027731 C375.36765,91.1938781 382.445073,91.3814926 383.049169,91.6511339 C383.049169,91.6511339 385.214499,94.2873357 386.842855,91.6511339 C388.472083,89.0166774 380.747851,53.2023798 356.991109,46.1568011 C333.234366,39.1094772 260.871885,42.3896766 249.219723,47.7379986" id="Fill-147" fill="#2DBAF6"></path>
                            <path d="M378.450021,64.8258393 C375.320578,66.0291899 371.741332,67.4166645 369.300541,68.3974956 C364.056327,70.5066316 355.586782,82.2216295 349.942453,84.5288515 C344.298124,86.836946 340.607299,73.3173585 335.92098,71.743142 C331.234661,70.1671803 322.819162,58.3230337 316.733747,57.695616 C310.64746,57.0690708 306.200862,62.3056967 301.357635,63.8231925 C296.513537,65.3398157 290.050671,57.1510976 282.326439,54.9311382 C274.603078,52.7120515 274.837568,61.8370968 268.313683,63.4776328 C264.038811,64.5527075 257.616916,62.8921011 253.695088,61.6189404 C257.106093,72.3897575 261.241491,85.953849 261.378349,88.8125703 C261.378349,88.8125703 294.26365,88.3753849 299.997766,88.8125703 C305.732753,89.2506283 328.772077,89.0734853 336.035174,89.9539645 C337.788185,90.1660125 343.83786,93.7900264 348.253077,93.9366275 C354.465762,94.1434397 359.880831,90.847533 366.81355,91.0028604 C375.36765,91.1939654 382.445073,91.3815799 383.049169,91.6512212 C383.049169,91.6512212 385.214499,94.2874229 386.842855,91.6512212 C387.810455,90.0866036 385.478627,76.8192048 378.450021,64.8258393" id="Fill-148" fill="#1D8EBF"></path>
                            <path d="M308.192199,75.8819177 L280.248628,74.9708966 L277.731126,74.8879972 L249.787555,73.9769761 C248.396305,73.9324722 247.23257,75.0241268 247.188113,76.4150919 L247.154988,77.423847 L246.701698,88.840407 C246.674675,89.5402527 247.22211,90.129275 247.921222,90.1528359 C248.612489,90.1746515 249.193048,89.6362415 249.222687,88.9442495 L249.543476,81.4536318 C249.614957,79.2738132 251.438576,77.5634671 253.616111,77.6341498 L273.671568,78.2886189 C275.849974,78.3593016 277.558527,80.1848343 277.487919,82.3655255 L277.168001,89.830837 C277.137491,90.532428 277.684926,91.1231955 278.38491,91.1450111 C279.075305,91.168572 279.654121,90.630162 279.683759,89.9390426 L280.005421,82.4466797 C280.076029,80.2659884 281.899649,78.5556424 284.077183,78.6271977 L304.133512,79.2816668 C306.311918,79.3532221 308.0196,81.1770095 307.948991,83.3577007 L307.629073,90.8265028 C307.598564,91.5263485 308.145126,92.1162433 308.844239,92.1389316 C309.534634,92.1607472 310.114322,91.6214646 310.141345,90.9303452 L310.594635,79.4919696 L310.62776,78.4840871 C310.673089,77.0922493 309.582578,75.9272942 308.192199,75.8819177" id="Fill-149" fill="#0E244C"></path>
                            <path d="M377.007949,98.691215 C376.996617,98.691215 376.986156,98.691215 376.974824,98.6903424 L202.201108,93.8559969 C201.552555,93.8376717 201.040861,93.2957713 201.057862,92.6465379 C201.076601,91.9973045 201.626651,91.4824554 202.266487,91.5033984 L377.040203,96.3386166 C377.688756,96.3560691 378.20045,96.8970969 378.18262,97.5463303 C378.16471,98.1859648 377.641683,98.691215 377.007949,98.691215" id="Fill-150" fill="#0E244C"></path>
                            <g id="Group-26" transform="translate(417.775202, 199.237079)">
                                <path d="M8.71092573,33.1597707 L85.4161803,33.1597707 C91.5526007,33.1597707 95.8252233,28.2631194 93.5027755,23.7860412 C91.5976141,20.1126353 88.430861,16.6410648 83.2117406,16.1150693 C71.5508387,14.9407537 66.6030152,24.2105074 66.6030152,24.2105074 C66.6030152,24.2105074 69.0775353,1.63673676 46.1085391,0.070982649 C23.139543,-1.49354822 22.0799034,23.3236545 22.0799034,23.3236545 C22.0799034,23.3236545 14.5796989,18.9322035 7.55760961,19.5120218 C-3.22857258,20.4037677 -2.13608537,33.1597707 8.71092573,33.1597707" id="Fill-151" fill="#FFCACA"></path>
                                <path d="M94.1447982,28.4010531 C91.0758616,26.1949776 87.3533099,24.781225 84.8243693,24.3354687 C79.6785249,23.4260302 71.9609801,29.6056708 65.0888588,29.422827 C58.2167376,29.2411783 62.8274728,24.3187379 53.3482215,19.4919021 C43.8689702,14.6638712 37.1263503,26.3336043 32.8613591,27.060199 C28.596368,27.7867938 13.4300546,28.8778809 5.8468979,25.6070095 C3.75166449,24.7023513 2.2196396,23.7988881 1.095666,22.9647382 C-1.76191472,26.9227675 1.03335876,33.1597707 8.74112993,33.1597707 L85.7699732,33.1597707 C89.8358255,33.1597707 93.0721365,31.0732009 94.1447982,28.4010531" id="Fill-152" fill="#FF8F8F"></path>
                            </g>
                            <g id="Group-26" transform="translate(0.175202, 446.197079)">
                                <path d="M8.71092573,33.3626922 L85.4161803,33.3626922 C91.5526007,33.3626922 95.8252233,28.4660409 93.5027755,23.9889627 C91.5976141,20.3155568 88.430861,16.8439863 83.2117406,16.3179908 C71.5508387,15.1436752 66.6030152,24.4134288 66.6030152,24.4134288 C66.6030152,24.4134288 69.0775353,1.83965824 46.1085391,0.273904127 C23.139543,-1.29062674 22.0799034,23.5265759 22.0799034,23.5265759 C22.0799034,23.5265759 14.5796989,19.1351249 7.55760961,19.7149433 C-3.22857258,20.6066892 -2.13608537,33.3626922 8.71092573,33.3626922" id="Fill-151" fill="#FFCACA"></path>
                                <path d="M94.1447982,28.6039746 C91.0758616,26.3978991 87.3533099,24.9841465 84.8243693,24.5383902 C79.6785249,23.6289517 71.9609801,29.8085922 65.0888588,29.6257485 C58.2167376,29.4440998 62.8274728,24.5216594 53.3482215,19.6948236 C43.8689702,14.8667927 37.1263503,26.5365258 32.8613591,27.2631205 C28.596368,27.9897152 13.4300546,29.0808024 5.8468979,25.809931 C3.75166449,24.9052727 2.2196396,24.0018095 1.095666,23.1676596 C-1.76191472,27.1256889 1.03335876,33.3626922 8.74112993,33.3626922 L85.7699732,33.3626922 C89.8358255,33.3626922 93.0721365,31.2761224 94.1447982,28.6039746" id="Fill-152" fill="#FF8F8F"></path>
                            </g>
                            <g id="Group-25" transform="translate(118.209114, 446.197079)">
                                <path d="M138.475213,29.7720773 C131.671739,30.8961479 129.095036,33.367901 128.121887,35.1748295 C130.065737,27.4361744 134.974325,1.14734872 112.223448,0.245687807 C85.5334594,-0.812261002 85.9704584,18.1093939 85.9704584,18.1093939 C85.9704584,18.1093939 77.657685,8.03964477 69.7819106,12.6116667 C61.9061362,17.1824865 60.5939151,28.4604612 60.5939151,28.4604612 C60.5939151,28.4604612 48.3432545,8.16707951 25.5911533,12.6116667 C8.4184397,15.9646431 2.50365232,24.727585 0.14483707,34.9175556 C-0.824639669,39.1024645 3.19770953,42.9615732 8.47474769,42.9615732 L139.628303,42.9615732 C147.404926,42.9615732 151.251007,35.0365748 145.257878,31.0416159 C143.534364,29.8922988 141.318767,29.3020114 138.475213,29.7720773" id="Fill-155" fill="#FFCACA"></path>
                                <path d="M148.138396,35.9816851 C144.874861,37.0866722 140.263557,38.1585832 136.449162,37.9172501 C130.146108,37.5191117 126.510437,37.9172501 124.571412,32.9386829 C122.632387,27.9576656 125.540924,11.6229672 114.631462,8.43541015 C103.723224,5.24785313 98.3896825,23.1763301 93.2997427,24.7701086 C88.2085789,26.3638871 86.0271761,22.1803717 77.3003409,19.1924963 C68.5735058,16.203396 65.9073469,32.7390012 63.72472,33.5352779 C61.5433172,34.3315547 49.4231889,26.7632505 36.8170802,22.0492923 C24.2121957,17.335334 18.1515195,35.7268765 9.18230626,35.3287381 C4.76319069,35.1327316 2.93556201,32.1791574 2.21577254,29.2341585 C1.31481159,31.2763021 0.647659789,33.4237992 0.144541644,35.6386736 C-0.82374656,39.9018167 3.1975262,43.8341987 8.47598225,43.8341987 L139.634353,43.8341987 C145.138049,43.8341987 148.668445,39.7891129 148.138396,35.9816851" id="Fill-156" fill="#FF8F8F"></path>
                            </g>
                            <path d="M317.582887,369.402131 C317.582887,369.402131 237.391569,366.188252 241.356111,350.283778 C245.320653,334.378433 297.877858,330.895784 297.877858,330.895784 C297.877858,330.895784 238.355681,305.099228 249.601626,278.589736 C260.847571,252.080245 340.65185,287.666787 340.65185,287.666787 C340.65185,287.666787 319.612231,261.522053 340.65185,261.159041 C361.691469,260.796029 420.093497,325.296146 411.75035,347.696444 C403.407203,370.096741 338.768954,373.065413 317.582887,369.402131" id="Fill-157" fill="#FFCACA"></path>
                            <path d="M333.396685,365.039004 C333.396685,365.039004 335.331012,379.810809 344.701907,386.393023 C354.073673,392.974365 356.975599,399.238944 358.063494,423.704746 C359.15139,448.169676 351.89701,499.717412 358.788758,503.53864 C365.681378,507.358994 372.935757,504.759443 372.935757,502.064775 C372.935757,499.370107 364.229979,474.69662 363.867347,466.879641 C363.504715,459.063534 367.131905,437.274946 365.318746,428.92392 C363.504715,420.572021 362.054188,400.9458 368.945936,395.144585 C375.838555,389.34337 385.269598,366.590532 378.37785,358.358183 C371.48523,350.12496 375.590989,362.328629 375.35214,367.302594 C375.11242,372.275687 369.671199,378.137986 366.406641,365.039004 C363.142083,351.940894 359.15139,358.166205 360.602789,365.039004 C362.054188,371.912675 368.583304,385.360707 367.495408,387.895685 C366.406641,390.432407 348.995084,385.638202 350.446483,377.867472 C351.89701,370.096741 354.073673,362.530205 351.534378,359.414059 C348.995084,356.297914 348.632452,377.386655 347.181053,377.373566 C345.729654,377.359604 333.396685,365.039004 333.396685,365.039004" id="Fill-158" fill="#0E244C"></path>
                            <path d="M340.651675,261.158605 C319.612056,261.522489 340.651675,287.667223 340.651675,287.667223 C340.651675,287.667223 306.997525,272.6633 280.317935,269.400553 C281.43111,272.122272 284.955438,275.734069 294.843257,278.952312 C313.808204,285.125265 330.659251,286.940326 337.287742,292.75114 C343.916233,298.561081 383.818809,298.561081 388.650703,331.211238 C390.005342,340.369443 366.769011,337.461855 351.171485,340.344137 C335.573087,343.225547 320.966695,340.191428 305.633297,345.016174 C290.299899,349.840048 266.489111,358.794932 254.237211,350.283342 C251.192324,348.16897 248.385415,346.062452 245.885347,344.090319 C243.552648,345.909743 241.933881,347.963903 241.355936,350.283342 C237.391394,366.188688 317.582713,369.401695 317.582713,369.401695 C338.768779,373.06585 403.407029,370.096305 411.750176,347.696007 C420.093323,325.29571 361.691294,260.795592 340.651675,261.158605" id="Fill-159" fill="#FF8F8F"></path>
                        </g>
                    </g>
                </g>
            </g>
        </g>
    </g>
</svg>