<?xml version="1.0" encoding="UTF-8"?>
<svg width="86px" height="76px" viewBox="0 0 86 76" version="1.1" xmlns="http://www.w3.org/2000/svg" xmlns:xlink="http://www.w3.org/1999/xlink">
    <!-- Generator: Sketch 57.1 (83088) - https://sketch.com -->
    <title>Icon</title>
    <desc>Created with Sketch.</desc>
    <defs>
        <linearGradient x1="50%" y1="0%" x2="50%" y2="100%" id="linearGradient-1">
            <stop stop-color="#BA104A" stop-opacity="0" offset="0%"></stop>
            <stop stop-color="#27B8F5" offset="100%"></stop>
        </linearGradient>
    </defs>
    <g id="For-Hospitals" stroke="none" stroke-width="1" fill="none" fill-rule="evenodd">
        <g transform="translate(-302.000000, -1310.000000)" id="Icon">
            <g transform="translate(302.400000, 1310.400000)">
                <path d="M42.5729032,74.88 C66.0852684,74.88 85.1458065,58.117541 85.1458065,37.44 C85.1458065,25.2800709 64.196878,35.4578128 53.9844555,28.6186282 C46.8310049,23.8280147 52.2582522,0 42.5729032,0 C19.060538,0 0,16.762459 0,37.44 C0,58.117541 19.060538,74.88 42.5729032,74.88 Z" id="Oval" fill="url(#linearGradient-1)" opacity="0.25"></path>
                <g id="medical-history-5" transform="translate(15.840000, 10.800000)" fill="#0A1B43" fill-rule="nonzero">
                    <path d="M48.3750352,20.25 L25.8749648,20.25 C22.7698594,20.2536914 20.2536914,22.7699648 20.25,25.8749648 L20.25,33.75 L22.4999648,33.75 L22.4999648,25.8749648 C22.4999648,24.0110156 24.0110156,22.4999648 25.8749648,22.4999648 L48.3749297,22.4999648 C50.2388789,22.4999648 51.7499297,24.0110156 51.7499297,25.8749648 L51.7499297,48.3749297 C51.7499297,50.2388789 50.2388789,51.7499297 48.3749297,51.7499297 L25.8749648,51.7499297 C24.0110156,51.7499297 22.4999648,50.2388789 22.4999648,48.3749297 L22.4999648,43.875 L20.25,43.875 L20.25,48.3750352 C20.2536914,51.4801406 22.7699648,53.9963086 25.8749648,54 L48.3749297,54 C51.4800352,53.9963086 53.9962031,51.4800352 53.9998945,48.3750352 L53.9998945,25.8749648 C53.9963086,22.7699648 51.4800352,20.2536914 48.3750352,20.25 Z" id="Path"></path>
                    <path d="M46.1249648,24.7500352 L28.1250352,24.7500352 C26.2610859,24.7500352 24.7500352,26.2610859 24.7500352,28.1250352 L24.7500352,32.6250703 L27,32.6250703 L27,28.1250352 C27,27.5037188 27.5037188,27 28.1250352,27 L46.1250703,27 C46.7463867,27 47.2501055,27.5037188 47.2501055,28.1250352 L47.2501055,41.6250352 C47.2501055,42.2463516 46.7463867,42.7500703 46.1250703,42.7500703 L28.1250352,42.7500703 C27.5037187,42.7500703 27,42.2463516 27,41.6250352 L24.7500352,41.6250352 C24.7500352,43.4889844 26.2610859,45.0000352 28.1250352,45.0000352 L46.1250703,45.0000352 C47.9890195,45.0000352 49.5000703,43.4889844 49.5000703,41.6250352 L49.5000703,28.1250352 C49.5000703,26.2610859 47.9889141,24.7500352 46.1249648,24.7500352 Z" id="Path"></path>
                    <rect id="Rectangle" x="24.7500352" y="47.25" width="4.50003516" height="2.24996484"></rect>
                    <rect id="Rectangle" x="31.5000352" y="47.25" width="4.50003516" height="2.24996484"></rect>
                    <rect id="Rectangle" x="38.2500352" y="47.25" width="4.50003516" height="2.24996484"></rect>
                    <rect id="Rectangle" x="45.0000352" y="47.25" width="4.50003516" height="2.24996484"></rect>
                    <path d="M12.0455859,0.32990625 C11.6063086,-0.109476562 10.8939727,-0.109582031 10.4545898,0.329695313 L0.329589844,10.4546953 L1.920375,12.0454805 L10.125,3.84075 L10.125,8.99996484 C10.125,9.62128125 9.62128125,10.125 8.99996484,10.125 L5.62496484,10.125 L5.62496484,12.3749648 L8.99996484,12.3749648 L8.99996484,12.3749648 C10.8639141,12.3749648 12.3749648,10.8639141 12.3749648,8.99996484 L12.3749648,1.12503516 C12.3749648,0.826769531 12.256418,0.540738281 12.0455859,0.32990625 Z" id="Path"></path>
                    <path d="M34.8750352,0 L11.2500352,0 C10.9516641,0 10.6656328,0.118652344 10.4546953,0.329589844 L0.329695312,10.4545898 C0.118757812,10.6655273 0.00010546875,10.9516641 0.00010546875,11.2499297 L0.00010546875,43.875 C0.003796875,46.9801055 2.52007031,49.4962734 5.62507031,49.4999648 L18.0000352,49.4999648 L18.0000352,47.25 L5.62496484,47.25 C3.76101563,47.25 2.24996484,45.7389492 2.24996484,43.875 L2.24996484,11.7157852 L11.7156797,2.25007031 L34.8749297,2.25007031 C36.7388789,2.25007031 38.2499297,3.76112109 38.2499297,5.62507031 L38.2499297,18.0000352 L40.5,18.0000352 L40.5,5.62496484 C40.4963086,2.51996484 37.9800352,0.00369140625 34.8750352,0 Z" id="Path"></path>
                    <path d="M38.7157852,34.8750352 L33.4204102,29.5796602 C32.9811328,29.1404883 32.2690078,29.1404883 31.829625,29.5796602 L22.4999648,38.9093203 L18.795375,35.2047305 C18.5844375,34.9936875 18.2983008,34.8751406 18.0000352,34.8751406 L5.62496484,34.8751406 L5.62496484,37.125 L17.5341797,37.125 L21.7045195,41.2953398 C21.915457,41.5062773 22.2015938,41.6249297 22.4998594,41.6249297 C22.7982305,41.6249297 23.0842617,41.5062773 23.2951992,41.2953398 L32.6248594,31.9656797 L37.4544844,36.7953047 C37.6654219,37.0063477 37.9515586,37.1248945 38.2498242,37.1248945 L44.9998242,37.1248945 L44.9998242,34.8749297 L38.7157852,34.8749297 L38.7157852,34.8750352 Z" id="Path"></path>
                    <path d="M31.100625,5.84328516 C29.3302266,4.29732422 26.7645937,4.07003906 24.7500352,5.28082031 C22.7342109,4.07162109 20.1685781,4.30112109 18.3994453,5.84898047 C18.2601211,5.9720625 18.1284961,6.1036875 18.0054141,6.24301172 C16.3563047,8.10980859 16.5326484,10.9599961 18.3994453,12.6091055 L23.9918203,17.7065156 C24.1991719,17.8955156 24.4695937,18.0001407 24.7500352,18.0001407 C25.0313203,17.9986641 25.3018477,17.8919297 25.50825,17.7009258 L31.100625,12.6035156 C31.2399492,12.4804336 31.3715742,12.3488086 31.4946562,12.2094844 C33.1437656,10.342582 32.9674219,7.49239453 31.100625,5.84328516 Z M29.5874648,10.945125 L24.7499297,15.3517148 L19.9157695,10.9507148 C19.8264375,10.8743555 19.7432227,10.7910352 19.6667578,10.7017031 C18.8564414,9.75385547 18.9679219,8.32865625 19.9157695,7.51833984 C20.476125,7.01767969 21.2029102,6.74367187 21.9542695,6.75 L21.9542695,6.75 C22.7057344,6.74166797 23.4332578,7.01356641 23.9949844,7.51275 C24.4245586,7.90467187 25.0819453,7.90467187 25.5115195,7.51275 C26.6772656,6.48885937 28.4217188,6.48885937 29.5873594,7.51275 C29.6766914,7.58910937 29.7599063,7.67242969 29.8363711,7.76176172 C30.646793,8.70950391 30.5353125,10.1348086 29.5874648,10.945125 Z" id="Shape"></path>
                    <rect id="Rectangle" x="5.62496484" y="29.2499648" width="11.2500352" height="2.24996484"></rect>
                    <rect id="Rectangle" x="5.62496484" y="23.625" width="11.2500352" height="2.24996484"></rect>
                    <rect id="Rectangle" x="10.125" y="18.0000352" width="6.75" height="2.24996484"></rect>
                    <rect id="Rectangle" x="5.62496484" y="18.0000352" width="2.24996484" height="2.24996484"></rect>
                </g>
            </g>
        </g>
    </g>
</svg>