<?xml version="1.0" encoding="UTF-8"?>
<svg width="86px" height="75px" viewBox="0 0 86 75" version="1.1" xmlns="http://www.w3.org/2000/svg" xmlns:xlink="http://www.w3.org/1999/xlink">
    <!-- Generator: Sketch 57.1 (83088) - https://sketch.com -->
    <title>Icon</title>
    <desc>Created with Sketch.</desc>
    <defs>
        <linearGradient x1="50%" y1="0%" x2="50%" y2="100%" id="linearGradient-1">
            <stop stop-color="#BA104A" stop-opacity="0" offset="0%"></stop>
            <stop stop-color="#27B8F5" offset="100%"></stop>
        </linearGradient>
    </defs>
    <g id="For-Hospitals" stroke="none" stroke-width="1" fill="none" fill-rule="evenodd">
        <g transform="translate(-302.000000, -1410.000000)" id="Icon">
            <g transform="translate(302.400000, 1409.760000)">
                <path d="M42.5729032,74.88 C66.0852684,74.88 85.1458065,58.117541 85.1458065,37.44 C85.1458065,25.2800709 64.196878,35.4578128 53.9844555,28.6186282 C46.8310049,23.8280147 52.2582522,0 42.5729032,0 C19.060538,0 0,16.762459 0,37.44 C0,58.117541 19.060538,74.88 42.5729032,74.88 Z" id="Oval" fill="url(#linearGradient-1)" opacity="0.25"></path>
                <g id="network-2" transform="translate(17.280000, 12.240000)" fill="#0A1B43" fill-rule="nonzero">
                    <path d="M50.0923828,3.45761719 L46.9423828,0.307617188 C46.7455078,0.110742188 46.4784469,0 46.2000656,0 L37.8,0 C36.6402094,0 35.7000328,0.940176562 35.7000328,2.09996719 L35.7000328,14.6999672 C35.7000328,15.8597578 36.6402094,16.7999344 37.8,16.7999344 L48.3000328,16.7999344 C49.4598234,16.7999344 50.4,15.8597578 50.4,14.6999672 L50.4,4.20003281 C50.4,3.92155312 50.2892578,3.65449219 50.0923828,3.45761719 Z M48.3000328,14.6999672 L37.8,14.6999672 L37.8,2.09996719 L45.7652672,2.09996719 L48.3000328,4.63463437 L48.3000328,14.6999672 L48.3000328,14.6999672 Z" id="Shape"></path>
                    <path d="M47.25,3.15 L47.25,1.05003281 L45.1500328,1.05003281 L45.1500328,4.20003281 C45.1500328,4.77992812 45.6201703,5.25006562 46.2000656,5.25006562 L49.3500656,5.25006562 L49.3500656,3.15 L47.25,3.15 Z" id="Path"></path>
                    <path d="M14.39235,3.45761719 L11.24235,0.307617188 C11.045475,0.110742188 10.7784141,0 10.5000328,0 L2.09996719,0 C0.940176562,0 0,0.940176562 0,2.09996719 L0,14.6999672 C0,15.8597578 0.940176562,16.7999344 2.09996719,16.7999344 L12.6,16.7999344 C13.7597906,16.7999344 14.6999672,15.8597578 14.6999672,14.6999672 L14.6999672,4.20003281 C14.6999672,3.92155312 14.5893234,3.65449219 14.39235,3.45761719 Z M12.6,14.6999672 L2.09996719,14.6999672 L2.09996719,2.09996719 L10.0652344,2.09996719 L12.6,4.63473281 L12.6,14.6999672 Z" id="Shape"></path>
                    <path d="M11.5499672,3.15 L11.5499672,1.05003281 L9.45,1.05003281 L9.45,4.20003281 C9.45,4.77992812 9.9201375,5.25006562 10.5000328,5.25006562 L13.6500328,5.25006562 L13.6500328,3.15 L11.5499672,3.15 Z" id="Path"></path>
                    <path d="M14.39235,37.0576828 L11.24235,33.9076828 C11.045475,33.7107094 10.7784141,33.6000656 10.5000328,33.6000656 L2.09996719,33.6000656 C0.940176562,33.6000656 0,34.5402422 0,35.7000328 L0,48.3000328 C0,49.4598234 0.940176562,50.4 2.09996719,50.4 L12.6,50.4 C13.7597906,50.4 14.6999672,49.4598234 14.6999672,48.3000328 L14.6999672,37.8 C14.6999672,37.5215203 14.5893234,37.2545578 14.39235,37.0576828 Z M12.6,48.3000328 L2.09996719,48.3000328 L2.09996719,35.7000328 L10.0652344,35.7000328 L12.6,38.2347 L12.6,48.3000328 Z" id="Shape"></path>
                    <path d="M11.5499672,36.7499672 L11.5499672,34.65 L9.45,34.65 L9.45,37.8 C9.45,38.3798953 9.9201375,38.8500328 10.5000328,38.8500328 L13.6500328,38.8500328 L13.6500328,36.7500656 L11.5499672,36.7500656 L11.5499672,36.7499672 Z" id="Path"></path>
                    <path d="M50.0923828,37.0576828 L46.9423828,33.9076828 C46.7455078,33.7107094 46.4784469,33.6000656 46.2000656,33.6000656 L37.8,33.6000656 C36.6402094,33.6000656 35.7000328,34.5402422 35.7000328,35.7000328 L35.7000328,48.3000328 C35.7000328,49.4598234 36.6402094,50.4 37.8,50.4 L48.3000328,50.4 C49.4598234,50.4 50.4,49.4598234 50.4,48.3000328 L50.4,37.8 C50.4,37.5215203 50.2892578,37.2545578 50.0923828,37.0576828 Z M48.3000328,48.3000328 L37.8,48.3000328 L37.8,35.7000328 L45.7652672,35.7000328 L48.3000328,38.2347 L48.3000328,48.3000328 L48.3000328,48.3000328 Z" id="Shape"></path>
                    <path d="M47.25,36.7499672 L47.25,34.65 L45.1500328,34.65 L45.1500328,37.8 C45.1500328,38.3798953 45.6201703,38.8500328 46.2000656,38.8500328 L49.3500656,38.8500328 L49.3500656,36.7500656 L47.25,36.7500656 L47.25,36.7499672 Z" id="Path"></path>
                    <rect id="Rectangle" x="16.8000328" y="7.35003281" width="16.8000328" height="2.09996719"></rect>
                    <rect id="Rectangle" x="16.8000328" y="40.95" width="16.8000328" height="2.09996719"></rect>
                    <rect id="Rectangle" x="6.3" y="18.9" width="2.09996719" height="12.6"></rect>
                    <rect id="Rectangle" x="42.0000328" y="18.9" width="2.09996719" height="12.6"></rect>
                    <path d="M25.2,13.6500328 C18.8211516,13.6500328 13.6500328,18.8211516 13.6500328,25.2 C13.6500328,31.5788484 18.8211516,36.7499672 25.2,36.7499672 C31.5757969,36.7424859 36.7424859,31.5757969 36.7499672,25.2 C36.7499672,18.8211516 31.5788484,13.6500328 25.2,13.6500328 Z M25.2,34.65 C19.9809422,34.65 15.75,30.4190578 15.75,25.2 C15.75,19.9809422 19.9809422,15.75 25.2,15.75 C30.4166953,15.7558078 34.6441922,19.9833047 34.65,25.2 C34.65,30.4190578 30.4190578,34.65 25.2,34.65 Z" id="Shape"></path>
                    <rect id="Rectangle" x="24.1499672" y="24.1499672" width="2.09996719" height="2.09996719"></rect>
                    <rect id="Rectangle" x="28.35" y="24.1499672" width="2.09996719" height="2.09996719"></rect>
                    <rect id="Rectangle" x="19.9500328" y="24.1499672" width="2.09996719" height="2.09996719"></rect>
                    <rect id="Rectangle" x="4.20003281" y="6.3" width="3.15" height="2.09996719"></rect>
                    <rect id="Rectangle" x="4.20003281" y="10.5000328" width="6.3" height="2.09996719"></rect>
                    <rect id="Rectangle" x="39.8999672" y="6.3" width="3.15" height="2.09996719"></rect>
                    <rect id="Rectangle" x="39.8999672" y="10.5000328" width="6.3" height="2.09996719"></rect>
                    <rect id="Rectangle" x="39.8999672" y="39.8999672" width="3.15" height="2.09996719"></rect>
                    <rect id="Rectangle" x="39.8999672" y="44.1" width="6.3" height="2.09996719"></rect>
                    <rect id="Rectangle" x="4.20003281" y="39.8999672" width="3.15" height="2.09996719"></rect>
                    <rect id="Rectangle" x="4.20003281" y="44.1" width="6.3" height="2.09996719"></rect>
                </g>
            </g>
        </g>
    </g>
</svg>