<?xml version="1.0" encoding="UTF-8"?>
<svg width="121px" height="106px" viewBox="0 0 121 106" version="1.1" xmlns="http://www.w3.org/2000/svg" xmlns:xlink="http://www.w3.org/1999/xlink">
    <!-- Generator: Sketch 57.1 (83088) - https://sketch.com -->
    <title>Icon</title>
    <desc>Created with Sketch.</desc>
    <defs>
        <linearGradient x1="50%" y1="0%" x2="50%" y2="100%" id="linearGradient-1">
            <stop stop-color="#BA104A" stop-opacity="0" offset="0%"></stop>
            <stop stop-color="#27B8F5" offset="100%"></stop>
        </linearGradient>
    </defs>
    <g id="Home" stroke="none" stroke-width="1" fill="none" fill-rule="evenodd">
        <g transform="translate(-1239.000000, -2442.000000)" id="Main-Benefits">
            <g transform="translate(150.000000, 1840.000000)">
                <g id="More-Business" transform="translate(930.000000, 602.000000)">
                    <g id="Icon" transform="translate(159.000000, 0.000000)">
                        <path d="M60.5,106 C93.9132274,106 121,82.2710917 121,53 C121,35.7864251 91.2296514,50.1940192 76.7168623,40.5124811 C66.551153,33.7308969 74.2637692,0 60.5,0 C27.0867726,0 0,23.7289083 0,53 C0,82.2710917 27.0867726,106 60.5,106 Z" id="Oval" fill="url(#linearGradient-1)" opacity="0.25"></path>
                        <g id="medical-history-3" transform="translate(30.000000, 8.000000)" fill="#0A1B43" fill-rule="nonzero">
                            <path d="M46.7946012,12.6065661 L43.6818093,12.6065661 L43.6818093,7.93730545 C43.6818093,7.07772374 42.9849222,6.38083658 42.1253405,6.38083658 L37.3003891,6.38083658 C36.6785019,3.31838521 34.2850681,0.924805447 31.2226167,0.302918288 C27.0106518,-0.552431907 22.9028696,2.16872568 22.0475195,6.38083658 L17.2225681,6.38083658 C16.3629864,6.38083658 15.6660992,7.07772374 15.6660992,7.93730545 L15.6660992,12.6065661 L12.5533074,12.6065661 C11.6937257,12.6065661 10.9968385,13.3034533 10.9968385,14.163035 L10.9968385,20.3887646 C10.9968385,21.2483463 11.6937257,21.9452335 12.5533074,21.9452335 L46.7946012,21.9452335 C47.6541829,21.9452335 48.35107,21.2483463 48.35107,20.3887646 L48.35107,14.163035 C48.35107,13.3034533 47.6541829,12.6065661 46.7946012,12.6065661 Z M45.2382782,18.8322957 L14.1097763,18.8322957 L14.1097763,15.7195039 L17.2225681,15.7195039 C18.0821498,15.7195039 18.779037,15.0226167 18.779037,14.163035 L18.779037,9.49377432 L23.4482977,9.49377432 C24.3078794,9.49377432 25.0047665,8.79688716 25.0047665,7.93730545 C25.0047665,5.35856031 27.0952821,3.26804475 29.6740272,3.26804475 C32.2527724,3.26804475 34.3432879,5.35856031 34.3432879,7.93730545 C34.3432879,8.79688716 35.0401751,9.49377432 35.8997568,9.49377432 L40.5690175,9.49377432 L40.5690175,14.163035 C40.5690175,15.0226167 41.2659047,15.7195039 42.1254864,15.7195039 L45.2382782,15.7195039 L45.2382782,18.8322957 L45.2382782,18.8322957 Z" id="Shape"></path>
                            <rect id="Rectangle" x="17.2225681" y="12.6065661" width="18.6770428" height="3.11279183"></rect>
                            <rect id="Rectangle" x="28.1175584" y="6.38098249" width="3.11279183" height="3.11279183"></rect>
                            <path d="M56.1331226,9.49377432 L49.907393,9.49377432 L49.907393,12.6065661 L56.1331226,12.6065661 L56.1331226,43.7349222 L59.2459144,43.7349222 L59.2459144,12.6065661 C59.2459144,10.8874027 57.852286,9.49377432 56.1331226,9.49377432 Z" id="Path"></path>
                            <path d="M3.21478599,71.7506323 L3.21478599,12.6065661 L9.44051556,12.6065661 L9.44051556,9.49377432 L3.21478599,9.49377432 C1.49562257,9.49377432 0.101994163,10.8874027 0.101994163,12.6065661 L0.101994163,71.7504864 C0.101994163,73.4696498 1.49562257,74.8632782 3.21478599,74.8632782 L25.0046206,74.8632782 L25.0046206,71.7504864 L3.21478599,71.7504864 L3.21478599,71.7506323 Z" id="Path"></path>
                            <rect id="Rectangle" x="6.32757782" y="25.0580253" width="3.11279183" height="14.0077821"></rect>
                            <path d="M9.44051556,65.5249027 L9.44051556,54.6299125 L6.32757782,54.6299125 L6.32757782,67.0812257 C6.32757782,67.9408074 7.02446498,68.6376946 7.88404669,68.6376946 L25.0046206,68.6376946 L25.0046206,65.5249027 L9.44051556,65.5249027 L9.44051556,65.5249027 Z" id="Path"></path>
                            <rect id="Rectangle" x="49.907393" y="25.0580253" width="3.11279183" height="18.6770428"></rect>
                            <path d="M59.2459144,65.5249027 L46.7946012,65.5249027 C45.0754377,65.5249027 43.6818093,66.9185311 43.6818093,68.6376946 L43.6818093,71.7504864 C43.6818093,73.4696498 45.0754377,74.8632782 46.7946012,74.8632782 L59.2459144,74.8632782 C60.9650778,74.8632782 62.3587062,73.4696498 62.3587062,71.7504864 L62.3587062,68.6376946 C62.3587062,66.9185311 60.9650778,65.5249027 59.2459144,65.5249027 Z M59.2459144,71.7506323 L46.7946012,71.7506323 L46.7946012,68.6378405 L59.2459144,68.6378405 L59.2459144,71.7506323 L59.2459144,71.7506323 Z" id="Shape"></path>
                            <path d="M59.2459144,59.2991732 L46.7946012,59.2991732 C45.0754377,59.2991732 43.6818093,60.6928016 43.6818093,62.411965 L43.6818093,65.5247568 C43.6818093,67.2439202 45.0754377,68.6375486 46.7946012,68.6375486 L59.2459144,68.6375486 C60.9650778,68.6375486 62.3587062,67.2439202 62.3587062,65.5247568 L62.3587062,62.411965 C62.3587062,60.6929475 60.9650778,59.2991732 59.2459144,59.2991732 Z M59.2459144,65.5249027 L46.7946012,65.5249027 L46.7946012,62.4121109 L59.2459144,62.4121109 L59.2459144,65.5249027 L59.2459144,65.5249027 Z" id="Shape"></path>
                            <path d="M43.6816634,59.2991732 L31.2303502,59.2991732 C29.5111868,59.2991732 28.1175584,60.6928016 28.1175584,62.411965 L28.1175584,65.5247568 C28.1175584,67.2439202 29.5111868,68.6375486 31.2303502,68.6375486 L43.6816634,68.6375486 C45.4008268,68.6375486 46.7944553,67.2439202 46.7944553,65.5247568 L46.7944553,62.411965 C46.7944553,60.6929475 45.4008268,59.2991732 43.6816634,59.2991732 Z M43.6816634,65.5249027 L31.2303502,65.5249027 L31.2303502,62.4121109 L43.6816634,62.4121109 L43.6816634,65.5249027 Z" id="Shape"></path>
                            <path d="M43.6816634,65.5249027 L31.2303502,65.5249027 C29.5111868,65.5249027 28.1175584,66.9185311 28.1175584,68.6376946 L28.1175584,71.7504864 C28.1175584,73.4696498 29.5111868,74.8632782 31.2303502,74.8632782 L43.6816634,74.8632782 C45.4008268,74.8632782 46.7944553,73.4696498 46.7944553,71.7504864 L46.7944553,68.6376946 C46.7944553,66.9185311 45.4008268,65.5249027 43.6816634,65.5249027 Z M43.6816634,71.7506323 L31.2303502,71.7506323 L31.2303502,68.6378405 L43.6816634,68.6378405 L43.6816634,71.7506323 Z" id="Shape"></path>
                            <path d="M43.6816634,53.0735895 L31.2303502,53.0735895 C29.5111868,53.0735895 28.1175584,54.4672179 28.1175584,56.1863813 L28.1175584,59.2991732 C28.1175584,61.0183366 29.5111868,62.411965 31.2303502,62.411965 L43.6816634,62.411965 C45.4008268,62.411965 46.7944553,61.0183366 46.7944553,59.2991732 L46.7944553,56.1863813 C46.7944553,54.4672179 45.4008268,53.0735895 43.6816634,53.0735895 Z M43.6816634,59.2991732 L31.2303502,59.2991732 L31.2303502,56.1863813 L43.6816634,56.1863813 L43.6816634,59.2991732 Z" id="Shape"></path>
                            <path d="M59.2459144,53.0735895 L46.7946012,53.0735895 C45.0754377,53.0735895 43.6818093,54.4672179 43.6818093,56.1863813 L43.6818093,59.2991732 C43.6818093,61.0183366 45.0754377,62.411965 46.7946012,62.411965 L59.2459144,62.411965 C60.9650778,62.411965 62.3587062,61.0183366 62.3587062,59.2991732 L62.3587062,56.1863813 C62.3587062,54.4672179 60.9650778,53.0735895 59.2459144,53.0735895 Z M59.2459144,59.2991732 L46.7946012,59.2991732 L46.7946012,56.1863813 L59.2459144,56.1863813 L59.2459144,59.2991732 L59.2459144,59.2991732 Z" id="Shape"></path>
                            <path d="M43.6816634,46.8478599 L31.2303502,46.8478599 C29.5111868,46.8478599 28.1175584,48.2414883 28.1175584,49.9606518 L28.1175584,53.0734436 C28.1175584,54.792607 29.5111868,56.1862354 31.2303502,56.1862354 L43.6816634,56.1862354 C45.4008268,56.1862354 46.7944553,54.792607 46.7944553,53.0734436 L46.7944553,49.9606518 C46.7944553,48.2414883 45.4008268,46.8478599 43.6816634,46.8478599 Z M43.6816634,53.0735895 L31.2303502,53.0735895 L31.2303502,49.9607977 L43.6816634,49.9607977 L43.6816634,53.0735895 Z" id="Shape"></path>
                            <path d="M43.6816634,40.6221304 L31.2303502,40.6221304 C29.5111868,40.6221304 28.1175584,42.0157588 28.1175584,43.7349222 L28.1175584,46.847714 C28.1175584,48.5668774 29.5111868,49.9605058 31.2303502,49.9605058 L43.6816634,49.9605058 C45.4008268,49.9605058 46.7944553,48.5668774 46.7944553,46.847714 L46.7944553,43.7349222 C46.7944553,42.0159047 45.4008268,40.6221304 43.6816634,40.6221304 Z M43.6816634,46.8478599 L31.2303502,46.8478599 L31.2303502,43.7350681 L43.6816634,43.7350681 L43.6816634,46.8478599 Z" id="Shape"></path>
                            <path d="M59.2459144,46.8478599 L46.7946012,46.8478599 C45.0754377,46.8478599 43.6818093,48.2414883 43.6818093,49.9606518 L43.6818093,53.0734436 C43.6818093,54.792607 45.0754377,56.1862354 46.7946012,56.1862354 L59.2459144,56.1862354 C60.9650778,56.1862354 62.3587062,54.792607 62.3587062,53.0734436 L62.3587062,49.9606518 C62.3587062,48.2414883 60.9650778,46.8478599 59.2459144,46.8478599 Z M59.2459144,53.0735895 L46.7946012,53.0735895 L46.7946012,49.9607977 L59.2459144,49.9607977 L59.2459144,53.0735895 L59.2459144,53.0735895 Z" id="Shape"></path>
                            <path d="M43.6816634,34.3965467 L31.2303502,34.3965467 C29.5111868,34.3965467 28.1175584,35.7901751 28.1175584,37.5093385 L28.1175584,40.6221304 C28.1175584,42.3412938 29.5111868,43.7349222 31.2303502,43.7349222 L43.6816634,43.7349222 C45.4008268,43.7349222 46.7944553,42.3412938 46.7944553,40.6221304 L46.7944553,37.5093385 C46.7944553,35.7901751 45.4008268,34.3965467 43.6816634,34.3965467 Z M43.6816634,40.6221304 L31.2303502,40.6221304 L31.2303502,37.5093385 L43.6816634,37.5093385 L43.6816634,40.6221304 Z" id="Shape"></path>
                            <path d="M21.8918288,45.2913911 L25.0046206,45.2913911 L25.0046206,42.1785992 L23.4481518,42.1785992 L23.4481518,37.5093385 C23.4481518,35.7901751 22.0545233,34.3965467 20.3353599,34.3965467 L17.2225681,34.3965467 C15.5034047,34.3965467 14.1097763,35.7901751 14.1097763,37.5093385 L14.1097763,42.1785992 L9.44051556,42.1785992 C7.72135214,42.1785992 6.32772374,43.5722276 6.32772374,45.2913911 L6.32772374,48.4041829 C6.32772374,50.1233463 7.72135214,51.5169747 9.44051556,51.5169747 L14.1097763,51.5169747 L14.1097763,56.1862354 C14.1097763,57.9053988 15.5034047,59.2990272 17.2225681,59.2990272 L20.3353599,59.2990272 C22.0545233,59.2990272 23.4481518,57.9053988 23.4481518,56.1862354 L23.4481518,51.5169747 L25.0046206,51.5169747 L25.0046206,48.4041829 L21.8918288,48.4041829 C21.0322471,48.4041829 20.3353599,49.10107 20.3353599,49.9606518 L20.3353599,56.1863813 L17.2225681,56.1863813 L17.2225681,49.9606518 C17.2225681,49.10107 16.5256809,48.4041829 15.6660992,48.4041829 L9.44036965,48.4041829 L9.44036965,45.2913911 L15.6660992,45.2913911 C16.5256809,45.2913911 17.2225681,44.5945039 17.2225681,43.7349222 L17.2225681,37.5091926 L20.3353599,37.5091926 L20.3353599,43.7349222 C20.3353599,44.5946498 21.0322471,45.2913911 21.8918288,45.2913911 Z" id="Path"></path>
                        </g>
                    </g>
                </g>
            </g>
        </g>
    </g>
</svg>