<?xml version="1.0" encoding="UTF-8"?>
<svg width="62px" height="55px" viewBox="0 0 62 55" version="1.1" xmlns="http://www.w3.org/2000/svg" xmlns:xlink="http://www.w3.org/1999/xlink">
    <!-- Generator: Sketch 57.1 (83088) - https://sketch.com -->
    <title>Icon</title>
    <desc>Created with Sketch.</desc>
    <defs>
        <linearGradient x1="50%" y1="0%" x2="50%" y2="100%" id="linearGradient-1">
            <stop stop-color="#BA104A" stop-opacity="0" offset="0%"></stop>
            <stop stop-color="#27B8F5" offset="100%"></stop>
        </linearGradient>
    </defs>
    <g id="Our-Story" stroke="none" stroke-width="1" fill="none" fill-rule="evenodd">
        <g transform="translate(-487.000000, -1487.000000)" id="FieldMed-is-the-first-complete-solution-for-in-home-community-health-programs,-with-everything-CHP/MIHs-need-to-serve-patients-better,-track-data-more-effectively,-and-reduce-costs-for-communities-and-healthcare-providers.">
            <g transform="translate(228.614400, 1487.289600)">
                <g id="Icon" transform="translate(259.200000, 0.000000)">
                    <path d="M30.5856,53.9136 C47.4775604,53.9136 61.1712,41.8446295 61.1712,26.9568 C61.1712,18.201651 46.1208864,25.5296252 38.7839878,20.6054123 C33.6447429,17.1561706 37.5438337,0 30.5856,0 C13.6936396,0 0,12.0689705 0,26.9568 C0,41.8446295 13.6936396,53.9136 30.5856,53.9136 Z" id="Oval" fill="url(#linearGradient-1)" opacity="0.25"></path>
                    <path d="M17.8789639,20.0959133 L23.5954793,20.0959133 C23.6301989,20.0959133 23.6623466,20.0811253 23.686136,20.057336 C23.7092824,20.0341896 23.7240703,20.0020418 23.7240703,19.9673222 L23.7240703,12.4029534 C23.7240703,11.8422964 23.9523195,11.3330759 24.3207328,10.9646625 C24.6891462,10.5968921 25.1983668,10.368 25.7590238,10.368 L35.9299333,10.368 C36.4912332,10.368 36.9998108,10.5968921 37.3682242,10.9646625 C37.7366376,11.3330759 37.9648867,11.8422964 37.9648867,12.4029534 L37.9648867,19.9673222 C37.9648867,20.0020418 37.9796747,20.0341896 38.0028211,20.057336 C38.0266104,20.0811253 38.0587582,20.0959133 38.0934778,20.0959133 L45.6578466,20.0959133 C46.2185036,20.0959133 46.7277241,20.3241624 47.0961375,20.6925758 C47.4639079,21.0609892 47.6928,21.5695668 47.6928,22.1308667 L47.6928,27.216 C47.6928,27.7425804 47.2658777,28.1695027 46.7392973,28.1695027 L36.2012604,28.1695027 C35.7833395,28.1695027 35.4277852,27.9001044 35.2991941,27.5246185 L33.8801918,24.1143838 L31.7751563,33.9940345 C31.6664968,34.5083987 31.161134,34.8363059 30.6474127,34.7276465 C30.2957162,34.6530637 30.0308186,34.3933097 29.9337324,34.0718321 L29.9324465,34.072475 L27.2718975,25.2877771 L26.373689,27.5625529 C26.2270952,27.9380388 25.8676832,28.1675738 25.4876967,28.1675738 L25.4876967,28.1695027 L15.9031624,28.1695027 L15.9031624,32.3017762 C15.9031624,32.3364958 15.9179504,32.3686436 15.9410967,32.39179 C15.9648861,32.4155793 15.9970339,32.4303673 16.0317534,32.4303673 L23.5954793,32.4303673 C24.1567792,32.4303673 24.6659998,32.6586164 25.0337702,33.0270298 C25.4021836,33.3954431 25.6310757,33.9040208 25.6310757,34.4653207 L25.6310757,42.0290466 C25.6310757,42.0644091 25.6452207,42.0959139 25.66901,42.1197033 C25.6921564,42.1428496 25.7243042,42.1576376 25.7590238,42.1576376 L35.9299333,42.1576376 C35.9646528,42.1576376 35.9968,42.1428496 36.02059,42.1197033 C36.0437363,42.0959139 36.0585243,42.0644091 36.0585243,42.0290466 L36.0585243,34.4653207 C36.0585243,33.9040208 36.2867734,33.3954431 36.6551868,33.0270298 C37.0236002,32.6586164 37.5328208,32.4303673 38.0934778,32.4303673 L43.8099931,32.4303673 C44.1539742,31.773267 44.8412934,31.3251272 45.6340572,31.3251272 C46.7708021,31.3251272 47.6928,32.2464821 47.6928,33.383227 C47.6928,34.5199719 46.7708021,35.4413268 45.6340572,35.4413268 C44.8412934,35.4413268 44.1539742,34.993187 43.8099931,34.3367297 L38.0934778,34.3367297 C38.0587582,34.3367297 38.0266104,34.3508747 38.0028211,34.374664 C37.9796747,34.3984534 37.9648867,34.4306011 37.9648867,34.4653207 L37.9648867,42.0290466 C37.9648867,42.5903465 37.7366376,43.0989241 37.3682242,43.4673375 C36.9998108,43.8357509 36.4912332,44.064 35.9299333,44.064 L25.7590238,44.064 C25.1983668,44.064 24.6891462,43.8357509 24.3207328,43.4673375 C23.9523195,43.0989241 23.7240703,42.5903465 23.7240703,42.0290466 L23.7240703,34.4653207 C23.7240703,34.4306011 23.7092824,34.3984534 23.686136,34.374664 C23.6623466,34.3508747 23.6301989,34.3367297 23.5954793,34.3367297 L16.0317534,34.3367297 C15.4704535,34.3367297 14.9612329,34.1084805 14.5934625,33.7400672 C14.2250491,33.3716538 13.9968,32.8624332 13.9968,32.3017762 L13.9968,27.216 C13.9968,26.6900626 14.4230793,26.2631403 14.9496597,26.2631403 L24.8408837,26.2631403 L26.4855632,22.0955042 C26.5800777,21.810675 26.8063979,21.5747104 27.1156594,21.4814819 C27.6190934,21.3291015 28.1508174,21.6145737 28.3031978,22.1180076 L30.6847041,29.9807077 L32.6547191,20.733082 C32.7177287,20.4373225 32.9202596,20.1762827 33.2205197,20.0515494 C33.705951,19.8503044 34.2627502,20.0804824 34.4639952,20.5652706 L36.8352143,26.2631403 L45.7857947,26.2631403 L45.7857947,22.1308667 C45.7857947,22.0961472 45.7716496,22.0639994 45.7478603,22.04021 C45.724071,22.0170637 45.6925661,22.0022757 45.6578466,22.0022757 L38.0934778,22.0022757 C37.5328208,22.0022757 37.0236002,21.7740266 36.6551868,21.4056132 C36.2867734,21.0371998 36.0585243,20.5286222 36.0585243,19.9673222 L36.0585243,12.4029534 C36.0585243,12.3682339 36.0437363,12.3360861 36.02059,12.3129397 C35.9968,12.2891504 35.9646528,12.2750053 35.9299333,12.2750053 L25.7590238,12.2750053 C25.7243042,12.2750053 25.6921564,12.2891504 25.66901,12.3129397 C25.6452207,12.3360861 25.6310757,12.3682339 25.6310757,12.4029534 L25.6310757,19.9673222 C25.6310757,20.5286222 25.4021836,21.0371998 25.0337702,21.4056132 C24.6659998,21.7740266 24.1567792,22.0022757 23.5954793,22.0022757 L17.8789639,22.0022757 C17.5356258,22.658733 16.8476637,23.1075158 16.0548998,23.1075158 C14.9181549,23.1075158 13.9968,22.1855179 13.9968,21.048773 C13.9968,19.912671 14.9181549,18.9906732 16.0548998,18.9906732 C16.8476637,18.9906732 17.5356258,19.439456 17.8789639,20.0959133" id="Fill-17" fill="#BA104A"></path>
                </g>
            </g>
        </g>
    </g>
</svg>