<?xml version="1.0" encoding="UTF-8"?>
<svg width="88px" height="77px" viewBox="0 0 88 77" version="1.1" xmlns="http://www.w3.org/2000/svg" xmlns:xlink="http://www.w3.org/1999/xlink">
    <!-- Generator: Sketch 57.1 (83088) - https://sketch.com -->
    <title>Icon</title>
    <desc>Created with Sketch.</desc>
    <defs>
        <linearGradient x1="50%" y1="0%" x2="50%" y2="100%" id="linearGradient-1">
            <stop stop-color="#BA104A" stop-opacity="0" offset="0%"></stop>
            <stop stop-color="#27B8F5" offset="100%"></stop>
        </linearGradient>
    </defs>
    <g id="For-Hospitals" stroke="none" stroke-width="1" fill="none" fill-rule="evenodd">
        <g transform="translate(-309.000000, -4674.000000)" id="Icon">
            <g transform="translate(309.600000, 4674.240000)">
                <path d="M43.56,76.32 C67.6175237,76.32 87.12,59.2351861 87.12,38.16 C87.12,25.7662261 65.685349,36.1396938 55.2361409,29.1689864 C47.9168302,24.2862458 53.4699138,0 43.56,0 C19.5024763,0 0,17.0848139 0,38.16 C0,59.2351861 19.5024763,76.32 43.56,76.32 Z" id="Oval" fill="url(#linearGradient-1)" opacity="0.25"></path>
                <g id="medical-history-4" transform="translate(16.560000, 11.520000)" fill="#0A1B43" fill-rule="nonzero">
                    <path d="M43.7898947,4.492 L5.61442105,4.492 C2.51536842,4.49568421 0.00410526316,7.00705263 0.000421052632,10.106 L0.000421052632,48.2814737 C0.00410526316,51.3805263 2.51547368,53.8917895 5.61442105,53.8954737 L37.0530526,53.8954737 C40.1521053,53.8917895 42.6633684,51.3804211 42.6670526,48.2814737 L42.6670526,23.5796842 L43.7898947,23.5796842 C46.8889474,23.576 49.4002105,21.0646316 49.4038947,17.9656842 L49.4038947,10.106 C49.4002105,7.00705263 46.8888421,4.49568421 43.7898947,4.492 Z M47.1583158,17.9656842 C47.1583158,19.826 45.6502105,21.3341053 43.7898947,21.3341053 L41.5442105,21.3341053 C40.9241053,21.3341053 40.4213684,21.8368421 40.4213684,22.4569474 L40.4213684,48.2814737 C40.4213684,50.1417895 38.9132632,51.6498947 37.0529474,51.6498947 L5.61442105,51.6498947 C3.75410526,51.6498947 2.246,50.1417895 2.246,48.2814737 L2.246,10.106 C2.246,8.24568421 3.75410526,6.73757895 5.61442105,6.73757895 L43.7898947,6.73757895 C45.6502105,6.73757895 47.1583158,8.24568421 47.1583158,10.106 L47.1583158,17.9656842 Z" id="Shape"></path>
                    <rect id="Rectangle" x="40.4214737" y="13.4744211" width="2.24557895" height="8.98242105"></rect>
                    <path d="M10.3448421,0.00642105263 C10.2649474,0.00210526316 10.1849474,0 10.1048421,0 C7.62442105,0.000421052632 5.614,2.01157895 5.61442099,4.492 L5.61442099,5.61484211 L7.86,5.61484211 L7.86,4.492 C7.85631579,3.87442105 8.11021053,3.28315789 8.56063158,2.86052632 C9.00831579,2.43526316 9.61136842,2.21315789 10.228,2.24631579 C11.4636842,2.37894737 12.3888421,3.44063158 12.3512632,4.68284211 L12.3512632,16.8428421 C12.3512632,18.0830526 11.3458947,19.0884211 10.1056842,19.0884211 C8.86547368,19.0884211 7.86010526,18.0830526 7.86010526,16.8428421 L7.86010526,8.98326316 L5.61442099,8.98326316 L5.61442099,16.8429474 C5.61442099,19.3233684 7.62526316,21.3342105 10.1056842,21.3342105 C12.5861053,21.3342105 14.5969474,19.3233684 14.5969474,16.8429474 L14.5969474,4.68284211 C14.6488421,2.24126316 12.7803158,0.186210526 10.3448421,0.00642105263 Z" id="Path"></path>
                    <path d="M31.4389474,12.3516842 L16.8425263,12.3516842 L16.8425263,14.5972632 L31.4389474,14.5972632 C32.0590526,14.5972632 32.5617895,15.1 32.5617895,15.7201053 L32.5617895,34.8077895 C32.5617895,35.4278947 32.0590526,35.9306316 31.4389474,35.9306316 L11.2284211,35.9306316 C10.6083158,35.9306316 10.1055789,35.4278947 10.1055789,34.8077895 L10.1055789,23.5796842 L7.86,23.5796842 L7.86,34.8077895 C7.86,36.6681053 9.36810526,38.1762105 11.2284211,38.1762105 L31.4389474,38.1762105 C33.2992632,38.1762105 34.8073684,36.6681053 34.8073684,34.8077895 L34.8073684,15.7201053 C34.8073684,13.8596842 33.2992632,12.3516842 31.4389474,12.3516842 Z" id="Path"></path>
                    <path d="M21.3336842,17.9656842 C18.8532632,17.9656842 16.8424211,19.9764211 16.8424211,22.4569474 C16.8424211,24.9374737 18.8532632,26.9482105 21.3336842,26.9482105 C23.8141053,26.9482105 25.8249474,24.9373684 25.8249474,22.4569474 C25.8249474,19.9765263 23.8141053,17.9656842 21.3336842,17.9656842 Z M21.3336842,24.7025263 C20.0934737,24.7025263 19.0881053,23.6971579 19.0881053,22.4569474 C19.0881053,21.2167368 20.0934737,20.2113684 21.3336842,20.2113684 C22.5738947,20.2113684 23.5792632,21.2167368 23.5792632,22.4569474 C23.5793684,23.6971579 22.5738947,24.7025263 21.3336842,24.7025263 Z" id="Shape"></path>
                    <path d="M22.4565263,25.8253684 L20.2109474,25.8253684 C16.4917895,25.8290526 13.4777895,28.8430526 13.4741053,32.5622105 L15.7196842,32.5622105 C15.7196842,30.0817895 17.7305263,28.0709474 20.2109474,28.0709474 L22.4565263,28.0709474 C24.9369474,28.0709474 26.9477895,30.0816842 26.9477895,32.5622105 L29.1933684,32.5622105 C29.1896842,28.8430526 26.1756842,25.8290526 22.4565263,25.8253684 Z" id="Path"></path>
                    <path d="M50.5267368,0.000736842105 L20.2109474,0.000736842105 C18.3506316,0.000736842105 16.8425263,1.50884211 16.8425263,3.36915789 L16.8425263,5.61473684 L19.0881053,5.61473684 L19.0881053,3.36915789 C19.0881053,2.74905263 19.5908421,2.24631579 20.2109474,2.24631579 L50.5267368,2.24631579 C51.1468421,2.24631579 51.6495789,2.74905263 51.6495789,3.36915789 L51.6495789,44.9130526 C51.6495789,45.5331579 51.1468421,46.0358947 50.5267368,46.0358947 L41.5442105,46.0358947 L41.5442105,48.2814737 L50.5266316,48.2814737 C52.3869474,48.2814737 53.8950526,46.7733684 53.8950526,44.9130526 L53.8950526,3.36915789 C53.8950526,1.50884211 52.3870526,0.000736842105 50.5267368,0.000736842105 Z" id="Path"></path>
                    <rect id="Rectangle" x="41.5442105" y="40.4217895" width="6.73684211" height="2.24557895"></rect>
                    <rect id="Rectangle" x="41.5442105" y="34.8077895" width="6.73684211" height="2.24557895"></rect>
                    <rect id="Rectangle" x="41.5442105" y="29.1937895" width="6.73684211" height="2.24557895"></rect>
                    <rect id="Rectangle" x="4.49157895" y="47.1586316" width="11.2281053" height="2.24557895"></rect>
                    <rect id="Rectangle" x="4.49157895" y="42.6674737" width="6.73684211" height="2.24557895"></rect>
                    <rect id="Rectangle" x="17.9652632" y="47.1586316" width="2.24557895" height="2.24557895"></rect>
                </g>
            </g>
        </g>
    </g>
</svg>