<?xml version="1.0" encoding="UTF-8"?>
<svg width="86px" height="75px" viewBox="0 0 86 75" version="1.1" xmlns="http://www.w3.org/2000/svg" xmlns:xlink="http://www.w3.org/1999/xlink">
    <!-- Generator: Sketch 57.1 (83088) - https://sketch.com -->
    <title>Icon</title>
    <desc>Created with Sketch.</desc>
    <defs>
        <linearGradient x1="50%" y1="0%" x2="50%" y2="100%" id="linearGradient-1">
            <stop stop-color="#BA104A" stop-opacity="0" offset="0%"></stop>
            <stop stop-color="#27B8F5" offset="100%"></stop>
        </linearGradient>
    </defs>
    <g id="For-Hospitals" stroke="none" stroke-width="1" fill="none" fill-rule="evenodd">
        <g transform="translate(-302.000000, -3195.000000)" id="Icon">
            <g transform="translate(302.400000, 3194.640000)">
                <path d="M42.5729032,74.88 C66.0852684,74.88 85.1458065,58.117541 85.1458065,37.44 C85.1458065,25.2800709 64.196878,35.4578128 53.9844555,28.6186282 C46.8310049,23.8280147 52.2582522,0 42.5729032,0 C19.060538,0 0,16.762459 0,37.44 C0,58.117541 19.060538,74.88 42.5729032,74.88 Z" id="Oval" fill="url(#linearGradient-1)" opacity="0.25"></path>
                <g id="emergency-call" transform="translate(17.280000, 12.240000)" fill="#0A1B43" fill-rule="nonzero">
                    <path d="M31.5,10.4999344 L31.5,3.15 C31.5,1.41031406 30.0896859,0 28.35,0 L3.15,0 C1.41031406,0 0,1.41031406 0,3.15 L0,47.25 C0,48.9896859 1.41031406,50.4 3.15,50.4 L28.35,50.4 C30.0896859,50.4 31.5,48.9896859 31.5,47.25 L31.5,39.8999672 L29.4000328,39.8999672 L29.4000328,42.0000328 L2.09996719,42.0000328 L2.09996719,8.39996719 L29.3999344,8.39996719 L29.3999344,10.4999344 L31.5,10.4999344 Z M29.3999344,44.1 L29.3999344,47.25 C29.3999344,47.8298953 28.9298953,48.3000328 28.35,48.3000328 L3.15,48.3000328 C2.57010469,48.3000328 2.09996719,47.8298953 2.09996719,47.25 L2.09996719,44.1 L29.3999344,44.1 Z M2.09996719,6.3 L2.09996719,3.15 C2.09996719,2.57010469 2.57010469,2.09996719 3.15,2.09996719 L28.35,2.09996719 C28.9298953,2.09996719 29.4000328,2.57010469 29.4000328,3.15 L29.4000328,6.3 L2.09996719,6.3 Z" id="Shape"></path>
                    <rect id="Rectangle" x="12.6" y="3.15" width="6.3" height="2.09996719"></rect>
                    <path d="M6.3,37.8 L6.3,34.65 L4.20003281,34.65 L4.20003281,38.8500328 C4.20003281,39.4299281 4.67017031,39.9000656 5.25006562,39.9000656 L9.45,39.9000656 L9.45,37.8 L6.3,37.8 Z" id="Path"></path>
                    <rect id="Rectangle" x="4.20003281" y="30.4496719" width="2.09996719" height="2.09996719"></rect>
                    <path d="M5.24996719,10.5000328 C4.67007187,10.5000328 4.19993437,10.9701703 4.19993437,11.5500656 L4.19993437,15.75 L6.3,15.75 L6.3,12.6 L9.45,12.6 L9.45,10.5000328 L5.24996719,10.5000328 Z" id="Path"></path>
                    <rect id="Rectangle" x="4.20003281" y="17.8496719" width="2.09996719" height="2.09996719"></rect>
                    <path d="M47.25,12.6 L15.75,12.6 C14.0103141,12.6 12.6,14.0103141 12.6,15.75 L12.6,34.65 C12.6,36.3896859 14.0103141,37.8 15.75,37.8 L47.25,37.8 C48.9896859,37.8 50.4,36.3896859 50.4,34.65 L50.4,15.75 C50.4,14.0103141 48.9896859,12.6 47.25,12.6 Z M48.3000328,34.65 C48.3000328,35.2298953 47.8298953,35.7000328 47.25,35.7000328 L15.75,35.7000328 C15.1701047,35.7000328 14.6999672,35.2298953 14.6999672,34.65 L14.6999672,15.75 C14.6999672,15.1701047 15.1701047,14.6999672 15.75,14.6999672 L47.25,14.6999672 C47.8298953,14.6999672 48.3000328,15.1701047 48.3000328,15.75 L48.3000328,34.65 Z" id="Shape"></path>
                    <path d="M26.2500328,18.9 L19.9500328,18.9 C19.3701375,18.9 18.9,19.3701375 18.9,19.9500328 L18.9,26.2500328 C18.9,26.8299281 19.3701375,27.3000656 19.9500328,27.3000656 L25.2,27.3000656 L25.2,29.4000328 L19.9500328,29.4000328 L19.9500328,31.5 L26.2500328,31.5 C26.8299281,31.5 27.3000656,31.0298625 27.3000656,30.4499672 L27.3000656,26.2499344 L27.3000656,19.9499344 C27.2999672,19.3701375 26.8299281,18.9 26.2500328,18.9 Z M25.2,25.2 L20.9999672,25.2 L20.9999672,20.9999672 L25.2,20.9999672 L25.2,25.2 Z" id="Shape"></path>
                    <path d="M33.6000656,29.4000328 L33.6000656,19.9500328 L33.5999672,19.9500328 C33.5999672,19.3701375 33.1298297,18.9 32.5499344,18.9 L29.3999344,18.9 L29.3999344,20.9999672 L31.5,20.9999672 L31.5,29.3999344 L29.4000328,29.3999344 L29.4000328,31.5 L35.7000328,31.5 L35.7000328,29.4000328 L33.6000656,29.4000328 L33.6000656,29.4000328 Z" id="Path"></path>
                    <path d="M42.0000328,29.4000328 L42.0000328,19.9500328 C42.0000328,19.3701375 41.5298953,18.9 40.95,18.9 L37.8,18.9 L37.8,20.9999672 L39.8999672,20.9999672 L39.8999672,29.3999344 L37.8,29.3999344 L37.8,31.5 L44.1,31.5 L44.1,29.4000328 L42.0000328,29.4000328 L42.0000328,29.4000328 Z" id="Path"></path>
                </g>
            </g>
        </g>
    </g>
</svg>