<?xml version="1.0" encoding="UTF-8"?>
<svg width="86px" height="75px" viewBox="0 0 86 75" version="1.1" xmlns="http://www.w3.org/2000/svg" xmlns:xlink="http://www.w3.org/1999/xlink">
    <!-- Generator: Sketch 57.1 (83088) - https://sketch.com -->
    <title>Icon</title>
    <desc>Created with Sketch.</desc>
    <defs>
        <linearGradient x1="50%" y1="0%" x2="50%" y2="100%" id="linearGradient-1">
            <stop stop-color="#BA104A" stop-opacity="0" offset="0%"></stop>
            <stop stop-color="#27B8F5" offset="100%"></stop>
        </linearGradient>
    </defs>
    <g id="For-Hospitals" stroke="none" stroke-width="1" fill="none" fill-rule="evenodd">
        <g transform="translate(-302.000000, -3293.000000)" id="Icon">
            <g transform="translate(302.400000, 3292.560000)">
                <path d="M42.5729032,74.88 C66.0852684,74.88 85.1458065,58.117541 85.1458065,37.44 C85.1458065,25.2800709 64.196878,35.4578128 53.9844555,28.6186282 C46.8310049,23.8280147 52.2582522,0 42.5729032,0 C19.060538,0 0,16.762459 0,37.44 C0,58.117541 19.060538,74.88 42.5729032,74.88 Z" id="Oval" fill="url(#linearGradient-1)" opacity="0.25"></path>
                <g id="doctor-2" transform="translate(17.280000, 12.240000)" fill="#0A1B43" fill-rule="nonzero">
                    <path d="M20.9999672,20.9999672 L20.9999672,24.1499672 C20.9999672,27.0494438 18.6494766,29.3999344 15.75,29.3999344 C12.8505234,29.3999344 10.5000328,27.0494438 10.5000328,24.1499672 L10.5000328,20.9999672 L8.39996719,20.9999672 L8.39996719,24.1499672 C8.40459375,28.2073641 11.6926031,31.4953734 15.75,31.5 C19.8073969,31.4953734 23.0954062,28.2073641 23.1000328,24.1499672 L23.1000328,20.9999672 L20.9999672,20.9999672 Z" id="Path"></path>
                    <path d="M15.75,8.39996719 C11.1108375,8.39996719 7.35003281,12.1607719 7.35003281,16.7999344 L7.35003281,20.9999672 C7.35003281,21.5798625 7.82017031,22.05 8.40006562,22.05 L9.45,22.05 C11.6703562,22.1886984 13.7738672,21.0436734 14.8627828,19.1036672 C15.9599672,20.6073 18.0600328,22.05 22.05,22.05 L23.1000328,22.05 C23.6799281,22.05 24.1500656,21.5798625 24.1500656,20.9999672 L24.1500656,16.7999344 C24.1500656,12.1607719 20.3891625,8.39996719 15.75,8.39996719 Z M22.05,19.9500328 C15.9999328,19.9500328 15.7583672,16.1700328 15.75,15.75 C15.75,15.1701047 15.2798625,14.6999672 14.6999672,14.6999672 C14.1200719,14.6999672 13.6499344,15.1701047 13.6499344,15.75 C13.6499344,15.9211828 13.6016016,19.9500328 9.44990156,19.9500328 L9.44990156,16.8000328 C9.44990156,13.3206609 12.2705297,10.5000328 15.7499016,10.5000328 C19.2292734,10.5000328 22.05,13.3206609 22.05,16.8000328 L22.05,19.9500328 L22.05,19.9500328 Z" id="Shape"></path>
                    <rect id="Rectangle" x="17.8499672" y="29.4000328" width="2.09996719" height="3.15"></rect>
                    <rect id="Rectangle" x="11.5499672" y="29.4000328" width="2.09996719" height="3.15"></rect>
                    <path d="M22.05,31.5 L18.9,31.5 C18.4361625,31.5 18.0272531,31.8042703 17.8940672,32.2486172 L15.75,39.3959672 L13.6059328,32.2486172 C13.4727469,31.8042703 13.0638375,31.5 12.6,31.5 L9.45,31.5 C4.23330469,31.5058078 0.0058078125,35.7333047 0,40.95 L0,49.3499672 C0,49.9298625 0.4701375,50.4 1.05003281,50.4 L30.4500656,50.4 C31.0299609,50.4 31.5000984,49.9298625 31.5000984,49.3499672 L31.5000984,40.95 C31.4941922,35.7333047 27.2666953,31.5058078 22.05,31.5 Z M29.4000328,48.3000328 L2.09996719,48.3000328 L2.09996719,40.95 C2.10459375,36.8926031 5.39260313,33.6045937 9.45,33.5999672 L11.8188,33.5999672 L14.7440672,43.3512844 C14.8454578,43.6898109 15.1102547,43.9547063 15.4488797,44.0560969 C16.0044609,44.2223578 16.5895734,43.9068656 16.7559328,43.3512844 L19.6812,33.5999672 L22.05,33.5999672 C26.1073969,33.6045937 29.3954063,36.8926031 29.4000328,40.95 L29.4000328,48.3000328 L29.4000328,48.3000328 Z" id="Shape"></path>
                    <rect id="Rectangle" x="24.1499672" y="44.1" width="2.09996719" height="5.24996719"></rect>
                    <rect id="Rectangle" x="5.24996719" y="44.1" width="2.09996719" height="5.24996719"></rect>
                    <path d="M20.9999672,32.5500328 L20.9999672,37.3086 L15.0768844,42.2435672 L16.4230172,43.8563672 L22.7230172,38.6064 C22.9620234,38.4067687 23.1001312,38.1113578 23.0999346,37.8 L23.0999346,32.5500328 L20.9999672,32.5500328 L20.9999672,32.5500328 Z" id="Path"></path>
                    <path d="M10.5000328,37.3086 L10.5000328,32.5500328 L8.39996713,32.5500328 L8.39996713,37.8 C8.39986875,38.1113578 8.53787812,38.4067687 8.77688437,38.6064 L15.0768844,43.8563672 L16.4230172,42.2435672 L10.5000328,37.3086 Z" id="Path"></path>
                    <rect id="Rectangle" x="14.6999672" y="43.0499672" width="2.09996719" height="6.3"></rect>
                    <rect id="Rectangle" x="9.45" y="23.1000328" width="12.6" height="2.09996719"></rect>
                    <path d="M45.1500328,24.1499672 C42.2505562,24.1499672 39.9000656,26.5004578 39.9000656,29.3999344 C39.9000656,32.2994109 42.2505562,34.6499016 45.1500328,34.6499016 C48.0481312,34.6464562 50.3965547,32.2979344 50.4,29.3999344 C50.4,26.5004578 48.0495094,24.1499672 45.1500328,24.1499672 Z M45.1500328,32.5500328 C43.4103469,32.5500328 42.0000328,31.1397187 42.0000328,29.4000328 C42.0000328,27.6603469 43.4103469,26.2500328 45.1500328,26.2500328 C46.8897187,26.2500328 48.3000328,27.6603469 48.3000328,29.4000328 C48.3000328,31.1397187 46.8897187,32.5500328 45.1500328,32.5500328 Z" id="Shape"></path>
                    <path d="M44.1,33.5999672 L44.1,44.6249672 C44.1,46.65465 42.4546172,48.2999344 40.4250328,48.2999344 C38.3954484,48.2999344 36.7500656,46.6545516 36.7500656,44.6249672 L36.7500656,18.9 L34.65,18.9 L34.65,44.6249672 C34.6534453,47.8129641 37.2370359,50.3964562 40.4250328,50.4 C43.6130297,50.3965547 46.1965219,47.8129641 46.2000656,44.6249672 L46.2000656,33.5999672 L44.1,33.5999672 Z" id="Path"></path>
                    <path d="M29.4000328,0 C27.6603469,0 26.2500328,1.41031406 26.2500328,3.15 C26.2500328,4.88968594 27.6603469,6.3 29.4000328,6.3 C31.1397188,6.3 32.5500328,4.88968594 32.5500328,3.15 C32.5500328,1.41031406 31.1397188,0 29.4000328,0 Z M29.4000328,4.20003281 C28.8201375,4.20003281 28.35,3.72989531 28.35,3.15 C28.35,2.57010469 28.8201375,2.09996719 29.4000328,2.09996719 C29.9799281,2.09996719 30.4500656,2.57010469 30.4500656,3.15 C30.4500656,3.72989531 29.9799281,4.20003281 29.4000328,4.20003281 Z" id="Shape"></path>
                    <path d="M42.0000328,0 C40.2603469,0 38.8500328,1.41031406 38.8500328,3.15 C38.8500328,4.88968594 40.2603469,6.3 42.0000328,6.3 C43.7397187,6.3 45.1500328,4.88968594 45.1500328,3.15 C45.1500328,1.41031406 43.7397187,0 42.0000328,0 Z M42.0000328,4.20003281 C41.4201375,4.20003281 40.95,3.72989531 40.95,3.15 C40.95,2.57010469 41.4201375,2.09996719 42.0000328,2.09996719 C42.5799281,2.09996719 43.0499672,2.57010469 43.0499672,3.15 C43.0499672,3.72989531 42.5799281,4.20003281 42.0000328,4.20003281 Z" id="Shape"></path>
                    <path d="M44.0422172,3.41883281 L42.6393844,4.98123281 C43.5547547,5.76873281 44.0869078,6.91218281 44.0999016,8.11971562 C44.0872031,9.32754375 43.55505,10.4713875 42.6393844,11.2591828 L35.6999344,17.4888 L28.7604844,11.2591828 C27.8448188,10.4713875 27.3126656,9.32754375 27.2999672,8.11971562 C27.3130594,6.91228125 27.8451141,5.76883125 28.7604844,4.98123281 L27.35775,3.41883281 C27.1217953,3.6217125 26.9014922,3.84201562 26.6987109,4.07787187 C24.4662469,6.67435781 24.7612641,10.5890203 27.35775,12.8215828 L34.9985672,19.6812 C35.1909141,19.8547453 35.4409453,19.950525 35.6999344,19.9500355 C35.9590219,19.9506234 36.2089547,19.8547453 36.4013016,19.6812 L44.0421188,12.8215828 C44.2780734,12.6187031 44.4983766,12.3984 44.7011578,12.1625437 C46.9338188,9.56595937 46.6387031,5.65129687 44.0422172,3.41883281 Z" id="Path"></path>
                    <rect id="Rectangle" x="44.1" y="28.35" width="2.09996719" height="2.09996719"></rect>
                </g>
            </g>
        </g>
    </g>
</svg>