<?xml version="1.0" encoding="UTF-8"?>
<svg width="86px" height="75px" viewBox="0 0 86 75" version="1.1" xmlns="http://www.w3.org/2000/svg" xmlns:xlink="http://www.w3.org/1999/xlink">
    <!-- Generator: Sketch 57.1 (83088) - https://sketch.com -->
    <title>Icon</title>
    <desc>Created with Sketch.</desc>
    <defs>
        <linearGradient x1="50%" y1="0%" x2="50%" y2="100%" id="linearGradient-1">
            <stop stop-color="#BA104A" stop-opacity="0" offset="0%"></stop>
            <stop stop-color="#27B8F5" offset="100%"></stop>
        </linearGradient>
    </defs>
    <g id="For-Hospitals" stroke="none" stroke-width="1" fill="none" fill-rule="evenodd">
        <g transform="translate(-662.000000, -2235.000000)" id="Icon">
            <g transform="translate(662.400000, 2234.880000)">
                <path d="M42.5729032,74.88 C66.0852684,74.88 85.1458065,58.117541 85.1458065,37.44 C85.1458065,25.2800709 64.196878,35.4578128 53.9844555,28.6186282 C46.8310049,23.8280147 52.2582522,0 42.5729032,0 C19.060538,0 0,16.762459 0,37.44 C0,58.117541 19.060538,74.88 42.5729032,74.88 Z" id="Oval" fill="url(#linearGradient-1)" opacity="0.25"></path>
                <g id="networking-3" transform="translate(17.280000, 12.240000)" fill="#0A1B43" fill-rule="nonzero">
                    <path d="M32.8817672,39.9535172 C31.3416141,39.4424297 29.8290234,38.8519031 28.35,38.1843 L28.35,38.1349828 C30.9111469,36.9170156 32.5449141,34.3360828 32.5500328,31.5 L32.5500328,28.35 C32.5500328,24.2907328 29.2593656,20.9999672 25.2,20.9999672 C21.1406344,20.9999672 17.8499672,24.2907328 17.8499672,28.35 L17.8499672,31.5 C17.8549875,34.3360828 19.4887547,36.9170156 22.05,38.1349828 L22.05,38.1843 C20.5709766,38.8520016 19.0583859,39.4425281 17.5182328,39.9535172 C13.6941328,41.2281844 13.6500328,43.98345 13.6500328,44.1 L13.6500328,50.4 L15.75,50.4 L15.75,44.12835 C15.75,44.07165 15.8550328,42.7213828 18.1818,41.9517 C20.0222859,41.3497547 21.8219203,40.6293891 23.5693828,39.7950328 C23.9271047,39.6162703 24.1522312,39.2498859 24.1500656,38.8500328 L24.1500656,37.4336156 C24.1502625,36.9887766 23.8701094,36.5920734 23.4507656,36.4434328 C21.3562125,35.7012141 19.9547578,33.7221281 19.9500328,31.5 L19.9500328,28.35 C19.9500328,25.4505234 22.3005234,23.1000328 25.2,23.1000328 C28.0994766,23.1000328 30.4499672,25.4505234 30.4499672,28.35 L30.4499672,31.5 C30.4453406,33.7221281 29.0437875,35.7012141 26.9492344,36.4434328 C26.5298906,36.591975 26.2497375,36.9886781 26.2499344,37.4336156 L26.2499344,38.8500328 C26.2477687,39.2498859 26.4728953,39.6162703 26.8306172,39.7950328 C28.5781781,40.6276172 30.3778125,41.3463094 32.2182,41.9464828 C34.5449672,42.7213828 34.65,44.07165 34.65,44.1 L34.65,50.4 L36.7499672,50.4 L36.7499672,44.1 C36.7499672,43.98345 36.7058672,41.2282828 32.8817672,39.9535172 Z" id="Path"></path>
                    <path d="M14.6977031,20.9977027 C10.6384359,20.9989828 7.34875312,24.2907328 7.35003281,28.35 L7.35003281,31.5 C7.35505312,34.3360828 8.98882031,36.9170156 11.5500656,38.1349828 L11.5500656,38.1843 C10.0710422,38.8520016 8.55845156,39.4425281 7.01829844,39.9535172 C3.1941,41.2282828 3.15,43.98345 3.15,44.1 L3.15,50.4 L5.24996719,50.4 L5.24996719,44.12835 C5.24996719,44.07165 5.355,42.7213828 7.68176719,41.9517 C9.52225313,41.3497547 11.3218875,40.6293891 13.06935,39.7950328 C13.4270719,39.6162703 13.6521984,39.2498859 13.6500328,38.8500328 L13.6500328,37.4336156 C13.6502297,36.9887766 13.3700766,36.5920734 12.9507328,36.4434328 C10.8561797,35.7012141 9.45462656,33.7221281 9.45,31.5 L9.45,28.35 C9.44901562,27.4734141 9.66764531,26.6104125 10.0857094,25.8399422 C11.4687562,23.2915922 14.6558672,22.3468875 17.2042172,23.7299344 L18.207,21.8882672 C17.1297984,21.30345 15.9234469,20.9973094 14.6977031,20.9977027 Z" id="Path"></path>
                    <rect id="Rectangle" x="24.1499672" y="45.1500328" width="2.09996719" height="2.09996719"></rect>
                    <rect id="Rectangle" x="28.35" y="45.1500328" width="2.09996719" height="2.09996719"></rect>
                    <rect id="Rectangle" x="19.9500328" y="45.1500328" width="2.09996719" height="2.09996719"></rect>
                    <path d="M47.25,50.4 L47.25,44.1 C47.25,43.98345 47.2059,41.2282828 43.3818,39.9535172 C41.8416469,39.4424297 40.3290563,38.8519031 38.8500328,38.1843 L38.8500328,38.1349828 C41.4111797,36.9170156 43.0449469,34.3360828 43.0500656,31.5 L43.0500656,28.5221672 C43.0805813,27.2376563 42.77385,25.9675172 42.1603875,24.8384391 C40.22235,21.2716547 35.7598828,19.9512141 32.1930984,21.8892516 L33.1958813,23.7340688 C34.3359844,23.1174563 35.662725,22.9406625 36.9243984,23.2374516 C39.3288328,23.8531781 40.9950844,26.0404594 40.9500984,28.5220688 L40.9500984,31.5 C40.9454719,33.7221281 39.5439188,35.7012141 37.4493656,36.4434328 C37.0300219,36.591975 36.7498688,36.9886781 36.7500656,37.4336156 L36.7500656,38.8500328 C36.7479,39.2498859 36.9730266,39.6162703 37.3307484,39.7950328 C39.0783094,40.6276172 40.8779438,41.3463094 42.7183313,41.9464828 C45.0450984,42.7213828 45.1501313,44.07165 45.1501313,44.1 L45.1501313,50.4 L47.25,50.4 Z" id="Path"></path>
                    <path d="M45.1500328,0 L5.24996719,0 C2.35196719,0.0034453125 0.0034453125,2.35196719 0,5.24996719 L0,22.05 L2.09996719,22.05 L2.09996719,5.24996719 C2.09996719,3.51028125 3.51028125,2.09996719 5.24996719,2.09996719 L45.1499344,2.09996719 C46.8896203,2.09996719 48.2999344,3.51028125 48.2999344,5.24996719 L48.2999344,22.05 L50.4,22.05 L50.4,5.24996719 C50.3965547,2.35196719 48.0480328,0.0034453125 45.1500328,0 Z" id="Path"></path>
                    <path d="M26.2500328,5.24996719 L7.35003281,5.24996719 C6.7701375,5.24996719 6.3,5.72010469 6.3,6.3 L6.3,10.5000328 C6.3,11.0799281 6.7701375,11.5500656 7.35003281,11.5500656 L26.2500328,11.5500656 C26.8299281,11.5500656 27.3000656,11.0799281 27.3000656,10.5000328 L27.3000656,6.3 C27.3000656,5.72010469 26.8299281,5.24996719 26.2500328,5.24996719 Z M25.2,9.45 L8.39996719,9.45 L8.39996719,7.35003281 L25.2,7.35003281 L25.2,9.45 Z" id="Shape"></path>
                    <rect id="Rectangle" x="29.4000328" y="5.24996719" width="2.09996719" height="2.09996719"></rect>
                    <rect id="Rectangle" x="33.5999672" y="5.24996719" width="2.09996719" height="2.09996719"></rect>
                    <rect id="Rectangle" x="29.4000328" y="9.45" width="14.6999672" height="2.09996719"></rect>
                    <path d="M16.8126328,14.6999672 C16.7487469,14.7067594 16.6842703,14.7071531 16.6202859,14.7011484 C16.0897078,14.6512406 15.7000922,14.1806109 15.75,13.6500328 L13.6500328,13.6500328 C13.6482609,13.7096859 13.6482609,13.7694375 13.6500328,13.8290906 C13.6994484,15.5193609 15.1097625,16.8495469 16.8000328,16.8000328 L25.2,16.8000328 L25.2,14.7000656 L16.8126328,14.7000656 L16.8126328,14.6999672 Z" id="Path"></path>
                    <path d="M36.7499672,13.6500328 L34.65,13.6500328 C34.6561031,13.7124422 34.6561031,13.7753437 34.65,13.8377531 C34.5982219,14.3658703 34.1280844,14.7518438 33.5999672,14.7000656 L25.2,14.7000656 C24.6201047,14.7000656 24.1499672,15.1702031 24.1499672,15.7500984 L24.1499672,18.9000984 L26.2499344,18.9000984 L26.2499344,16.8001312 L33.5999672,16.8001312 C33.6596203,16.8019031 33.7193719,16.8019031 33.779025,16.8001312 C35.4692953,16.7505187 36.7994813,15.3403031 36.7499672,13.6500328 Z" id="Path"></path>
                </g>
            </g>
        </g>
    </g>
</svg>