<?xml version="1.0" encoding="UTF-8"?>
<svg width="88px" height="77px" viewBox="0 0 88 77" version="1.1" xmlns="http://www.w3.org/2000/svg" xmlns:xlink="http://www.w3.org/1999/xlink">
    <!-- Generator: Sketch 57.1 (83088) - https://sketch.com -->
    <title>Icon</title>
    <desc>Created with Sketch.</desc>
    <defs>
        <linearGradient x1="50%" y1="0%" x2="50%" y2="100%" id="linearGradient-1">
            <stop stop-color="#BA104A" stop-opacity="0" offset="0%"></stop>
            <stop stop-color="#27B8F5" offset="100%"></stop>
        </linearGradient>
    </defs>
    <g id="For-Hospitals" stroke="none" stroke-width="1" fill="none" fill-rule="evenodd">
        <g transform="translate(-741.000000, -4999.000000)" id="Icon">
            <g transform="translate(741.600000, 4998.960000)">
                <path d="M43.56,76.32 C67.6175237,76.32 87.12,59.2351861 87.12,38.16 C87.12,25.7662261 65.685349,36.1396938 55.2361409,29.1689864 C47.9168302,24.2862458 53.4699138,0 43.56,0 C19.5024763,0 0,17.0848139 0,38.16 C0,59.2351861 19.5024763,76.32 43.56,76.32 Z" id="Oval" fill="url(#linearGradient-1)" opacity="0.25"></path>
                <g id="file" transform="translate(20.160000, 11.520000)" fill="#0A1B43" fill-rule="nonzero">
                    <rect id="Rectangle" x="6.75" y="6.75" width="11.2500352" height="2.24996484"></rect>
                    <rect id="Rectangle" x="6.75" y="11.2500352" width="2.24996484" height="2.24996484"></rect>
                    <rect id="Rectangle" x="11.2500352" y="11.2500352" width="2.24996484" height="2.24996484"></rect>
                    <path d="M42.420375,9.32966016 L33.4204102,0.329589844 C33.2094727,0.118652344 32.9233359,0 32.6250703,0 L3.375,0 C1.51105078,0 0,1.51105078 0,3.375 L0,50.625 C0,52.4889492 1.51105078,54 3.375,54 L25.8749648,54 L25.8749648,51.7500352 L3.375,51.7500352 C2.75368359,51.7500352 2.24996484,51.2463164 2.24996484,50.625 L2.24996484,3.375 C2.24996484,2.75368359 2.75368359,2.24996484 3.375,2.24996484 L32.1592148,2.24996484 L40.5,10.59075 L40.5,25.8749648 L42.7499648,25.8749648 L42.7499648,10.125 C42.7499648,9.82662891 42.631418,9.54059766 42.420375,9.32966016 Z" id="Path"></path>
                    <path d="M6.58944,25.2 L6.58944,17.712 L8.57088,17.712 L8.57088,20.49984 L10.80576,20.49984 L10.80576,17.712 L12.7872,17.712 L12.7872,25.2 L10.80576,25.2 L10.80576,22.22784 L8.57088,22.22784 L8.57088,25.2 L6.58944,25.2 Z M14.25408,25.2 L14.25408,17.712 L16.23552,17.712 L16.23552,25.2 L14.25408,25.2 Z M17.7024001,25.2 L17.7024001,17.712 L20.4441601,17.712 C20.8512021,17.712 21.2390382,17.7523196 21.6076801,17.83296 C21.9763219,17.9136004 22.2988787,18.051839 22.5753601,18.24768 C22.8518414,18.443521 23.0726392,18.7007984 23.2377601,19.01952 C23.4028809,19.3382416 23.4854401,19.7318377 23.4854401,20.20032 C23.4854401,20.6611223 23.4028809,21.0566383 23.2377601,21.38688 C23.0726392,21.7171217 22.8518414,21.9878389 22.5753601,22.19904 C22.2988787,22.4102411 21.9801619,22.5676795 21.6192001,22.67136 C21.2582383,22.7750405 20.881922,22.82688 20.4902401,22.82688 L19.6838401,22.82688 L19.6838401,25.2 L17.7024001,25.2 Z M19.6838401,21.26016 L20.3980801,21.26016 C20.789762,21.26016 21.0796791,21.1680009 21.2678401,20.98368 C21.456001,20.7993591 21.5500801,20.5382417 21.5500801,20.20032 C21.5500801,19.8623983 21.4464011,19.6243207 21.2390401,19.48608 C21.031679,19.3478393 20.736002,19.27872 20.3520001,19.27872 L19.6838401,19.27872 L19.6838401,21.26016 Z M25.8739201,21.55968 L25.7472001,22.07808 L27.1296001,22.07808 L27.0028801,21.55968 C26.9107196,21.1987182 26.8185606,20.8070421 26.7264001,20.38464 C26.6342396,19.9622379 26.5420806,19.5628819 26.4499201,19.18656 L26.4038401,19.18656 C26.3193597,19.5705619 26.2329605,19.9718379 26.1446401,20.3904 C26.0563197,20.8089621 25.9660806,21.1987182 25.8739201,21.55968 Z M22.9939201,25.2 L25.2748801,17.712 L27.6710401,17.712 L29.9520001,25.2 L27.8553601,25.2 L27.4867201,23.61024 L25.3900801,23.61024 L25.0214401,25.2 L22.9939201,25.2 Z M32.4096001,21.55968 L32.2828801,22.07808 L33.6652801,22.07808 L33.5385601,21.55968 C33.4463997,21.1987182 33.3542406,20.8070421 33.2620801,20.38464 C33.1699197,19.9622379 33.0777606,19.5628819 32.9856001,19.18656 L32.9395201,19.18656 C32.8550397,19.5705619 32.7686406,19.9718379 32.6803201,20.3904 C32.5919997,20.8089621 32.5017606,21.1987182 32.4096001,21.55968 Z M29.5296001,25.2 L31.8105601,17.712 L34.2067201,17.712 L36.4876801,25.2 L34.3910401,25.2 L34.0224001,23.61024 L31.9257601,23.61024 L31.5571201,25.2 L29.5296001,25.2 Z" id="HIPAA"></path>
                    <path d="M34.8750352,8.99996484 C34.2537187,8.99996484 33.75,8.49624609 33.75,7.87492969 L33.75,1.12492969 L31.5000352,1.12492969 L31.5000352,7.87492969 C31.5000352,9.73887891 33.0110859,11.2499297 34.8750352,11.2499297 L37.125,11.2499297 L37.125,8.99996484 L34.8750352,8.99996484 Z" id="Path"></path>
                    <path d="M46.1249648,38.2500352 L42.7499648,38.2500352 L42.7499648,40.5 L44.9999297,40.5 L44.9999297,50.625 C44.9999297,51.2463164 44.4962109,51.7500352 43.8748945,51.7500352 L32.6249648,51.7500352 C32.0036484,51.7500352 31.4999297,51.2463164 31.4999297,50.625 L31.4999297,40.5 L33.75,40.5 L33.75,38.2500352 L30.375,38.2500352 C29.7536836,38.2500352 29.2499648,38.7537539 29.2499648,39.3750703 L29.2499648,50.625 C29.2499648,52.4889492 30.7610156,54 32.6249648,54 L43.875,54 C45.7389492,54 47.25,52.4889492 47.25,50.625 L47.25,39.3749648 C47.25,38.7536484 46.7462813,38.2500352 46.1249648,38.2500352 Z" id="Path"></path>
                    <path d="M41.6250352,29.2499648 L34.8750352,29.2499648 C34.8439219,29.249332 34.8129141,29.249332 34.7818008,29.2499648 C33.5649023,29.2756992 32.5993359,30.2830312 32.6250703,31.4999297 L32.6250703,35.9999648 L34.8750352,35.9999648 L34.8750352,31.4999297 L41.6250352,31.4999297 L41.6250352,35.9999648 L43.875,35.9999648 L43.875,31.4999297 C43.8756328,31.4688164 43.8756328,31.4378086 43.875,31.4066953 C43.8492656,30.1899023 42.8419336,29.2242305 41.6250352,29.2499648 Z" id="Path"></path>
                    <path d="M38.2500352,38.2500352 C36.3860859,38.2500352 34.8750352,39.7610859 34.8750352,41.6250352 C34.8750352,43.4889844 36.3860859,45.0000352 38.2500352,45.0000352 C40.1139844,45.0000352 41.6250352,43.4889844 41.6250352,41.6250352 C41.6250352,39.7610859 40.1139844,38.2500352 38.2500352,38.2500352 Z M38.2500352,42.7499648 C37.6287187,42.7499648 37.125,42.2462461 37.125,41.6249297 C37.125,41.0036133 37.6287188,40.5 38.2500352,40.5 C38.8713516,40.5 39.3750703,41.0037188 39.3750703,41.6250352 C39.3750703,42.2463516 38.8713516,42.7499648 38.2500352,42.7499648 Z" id="Shape"></path>
                    <rect id="Rectangle" x="37.125" y="43.875" width="2.24996484" height="5.62496484"></rect>
                </g>
            </g>
        </g>
    </g>
</svg>