<?xml version="1.0" encoding="UTF-8"?>
<svg width="88px" height="76px" viewBox="0 0 88 76" version="1.1" xmlns="http://www.w3.org/2000/svg" xmlns:xlink="http://www.w3.org/1999/xlink">
    <!-- Generator: Sketch 57.1 (83088) - https://sketch.com -->
    <title>Icon</title>
    <desc>Created with Sketch.</desc>
    <defs>
        <linearGradient x1="50%" y1="0%" x2="50%" y2="100%" id="linearGradient-1">
            <stop stop-color="#BA104A" stop-opacity="0" offset="0%"></stop>
            <stop stop-color="#27B8F5" offset="100%"></stop>
        </linearGradient>
    </defs>
    <g id="For-Hospitals" stroke="none" stroke-width="1" fill="none" fill-rule="evenodd">
        <g transform="translate(-741.000000, -4674.000000)" id="Icon">
            <g transform="translate(741.600000, 4673.520000)">
                <path d="M43.56,76.32 C67.6175237,76.32 87.12,59.2351861 87.12,38.16 C87.12,25.7662261 65.685349,36.1396938 55.2361409,29.1689864 C47.9168302,24.2862458 53.4699138,0 43.56,0 C19.5024763,0 0,17.0848139 0,38.16 C0,59.2351861 19.5024763,76.32 43.56,76.32 Z" id="Oval" fill="url(#linearGradient-1)" opacity="0.25"></path>
                <g id="doctor" transform="translate(16.560000, 5.760000)" fill="#0A1B43" fill-rule="nonzero">
                    <path d="M22.4999648,22.4999648 L22.4999648,25.8749648 C22.4999648,28.9815469 19.981582,31.4999297 16.875,31.4999297 C13.768418,31.4999297 11.2500352,28.9815469 11.2500352,25.8749648 L11.2500352,22.4999648 L8.99996484,22.4999648 L8.99996484,25.8749648 C9.00555469,30.2219648 12.5281055,33.7444102 16.875,33.75 C21.2218945,33.7444102 24.7444453,30.2219648 24.7500352,25.8749648 L24.7500352,22.4999648 L22.4999648,22.4999648 Z" id="Path"></path>
                    <path d="M16.875,8.99996484 C11.9044688,8.99996484 7.87503516,13.0293984 7.87503516,17.9999297 L7.87503516,22.4999648 C7.87503516,23.1212812 8.37875391,23.625 9.00007031,23.625 L10.125,23.625 C12.5041641,23.7737109 14.7582422,22.5462656 15.9244102,20.4671602 C17.0999648,22.0804102 19.3500352,23.625 23.625,23.625 L24.7500352,23.625 C25.3713516,23.625 25.8750703,23.1212812 25.8750703,22.4999648 L25.8750703,17.9999297 C25.8750703,13.0293984 21.8455313,8.99996484 16.875,8.99996484 Z M23.625,21.3750352 C17.1427852,21.3750352 16.8839648,17.3250352 16.875,16.875 C16.875,16.2536836 16.3712812,15.7499648 15.7499648,15.7499648 C15.1286484,15.7499648 14.6249297,16.2536836 14.6249297,16.875 C14.6249297,17.0584102 14.5731445,21.3750352 10.1248945,21.3750352 L10.1248945,18.0000352 C10.1248945,14.2721367 13.1469961,11.2500352 16.8748945,11.2500352 C20.602793,11.2500352 23.625,14.2721367 23.625,18.0000352 L23.625,21.3750352 L23.625,21.3750352 Z" id="Shape"></path>
                    <rect id="Rectangle" x="19.1249648" y="31.5000352" width="2.24996484" height="3.375"></rect>
                    <rect id="Rectangle" x="12.3749648" y="31.5000352" width="2.24996484" height="3.375"></rect>
                    <path d="M23.625,33.75 L20.25,33.75 C19.7530312,33.75 19.3149141,34.0760039 19.1722148,34.5520898 L16.875,42.2099648 L14.5777852,34.5520898 C14.4350859,34.0760039 13.9969688,33.75 13.5,33.75 L10.125,33.75 C4.53568359,33.7562227 0.00622265625,38.2856836 0,43.875 L0,52.8749648 C0,53.4962812 0.50371875,54 1.12503516,54 L32.6250703,54 C33.2463867,54 33.7501055,53.4962812 33.7501055,52.8749648 L33.7501055,43.875 C33.7437773,38.2856836 29.2143164,33.7562227 23.625,33.75 Z M31.5000352,51.7500352 L2.24996484,51.7500352 L2.24996484,43.875 C2.25555469,39.5281055 5.778,36.0055547 10.125,35.9999648 L12.663,35.9999648 L15.7972148,46.4478047 C15.9058477,46.8105117 16.1895586,47.0943281 16.5523711,47.2029609 C17.1476367,47.3810977 17.774543,47.0430703 17.9527852,46.4478047 L21.087,35.9999648 L23.625,35.9999648 C27.9718945,36.0055547 31.4944453,39.528 31.5000352,43.875 L31.5000352,51.7500352 L31.5000352,51.7500352 Z" id="Shape"></path>
                    <rect id="Rectangle" x="25.8749648" y="47.25" width="2.24996484" height="5.62496484"></rect>
                    <rect id="Rectangle" x="5.62496484" y="47.25" width="2.24996484" height="5.62496484"></rect>
                    <path d="M22.4999648,34.8750352 L22.4999648,39.9724453 L16.1538047,45.2599102 L17.5960898,46.990125 L24.3460898,41.3651602 C24.6024844,41.1510586 24.750457,40.8340195 24.7499311,40.5 L24.7499311,34.8750352 L22.4999648,34.8750352 L22.4999648,34.8750352 Z" id="Path"></path>
                    <path d="M11.2500352,39.9723398 L11.2500352,34.8749297 L8.99996344,34.8749297 L8.99996344,40.5 C8.9994375,40.8340195 9.14741016,41.1510586 9.40380469,41.3651602 L16.1538047,46.990125 L17.5960898,45.2599102 L11.2500352,39.9723398 Z" id="Path"></path>
                    <rect id="Rectangle" x="15.7499648" y="46.1249648" width="2.24996484" height="6.75"></rect>
                    <rect id="Rectangle" x="10.125" y="24.7500352" width="13.5" height="2.24996484"></rect>
                    <path d="M52.079625,13.1704102 L53.6704102,11.579625 L42.420375,0.329589844 C42.2094375,0.118757813 41.9235117,0.000210920937 41.6252461,0.000210920937 C41.0039297,0.000210920937 40.5,0.50371875 40.5,1.12503516 L40.5,7.87503516 C40.5036914,10.9801406 43.0199648,13.4963086 46.1249648,13.5 L48.3749297,13.5 L48.3749297,11.2500352 L46.1249648,11.2500352 C44.2610156,11.2500352 42.7499648,9.73898437 42.7499648,7.87503516 L42.7499648,3.84075 L52.079625,13.1704102 Z" id="Path"></path>
                    <path d="M53.6704102,11.579625 L42.420375,0.329589844 C42.2094375,0.118652344 41.9233008,0 41.6250352,0 L21.3750352,0 C18.2699297,0.00369140625 15.7537617,2.51996484 15.7500703,5.62496484 L15.7500703,6.75 L18.0000352,6.75 L18.0000352,5.62496484 C18.0000352,3.76101562 19.5110859,2.24996484 21.3750352,2.24996484 L41.1592852,2.24996484 L51.7500352,12.8407148 L51.7500352,48.3749297 C51.7500352,50.2388789 50.2389844,51.7499297 48.3750352,51.7499297 L35.9999648,51.7499297 L35.9999648,54 L48.3749297,54 C51.4800352,53.9963086 53.9962031,51.4800352 53.9998945,48.3750352 L53.9998945,12.3749648 C53.9998945,12.0766992 53.8813477,11.7905625 53.6704102,11.579625 Z" id="Path"></path>
                    <path d="M45.54225,22.9454648 C43.5304336,21.1119961 40.5360703,20.8639336 38.2500352,22.3413398 C35.9642109,20.8627734 32.9692148,21.1089375 30.9555,22.9409297 C30.8399062,23.0466094 30.7291641,23.1573516 30.6234844,23.2729453 C28.6633477,25.4164922 28.8119531,28.7431875 30.9555,30.7034297 L37.4805352,36.8200898 C37.6889414,37.0158398 37.9641094,37.1247891 38.2500352,37.1250019 L38.2500352,37.1250019 C38.5345898,37.1255273 38.8087031,37.0181602 39.0173203,36.824625 L45.5423555,30.7079648 C45.6579492,30.6022852 45.7686914,30.491543 45.8743711,30.3759492 C47.8345078,28.2324023 47.6857969,24.905707 45.54225,22.9454648 Z M44.0044102,29.0575898 L38.2500352,34.4575898 L32.4945,29.0655 C32.4172969,28.9958906 32.3437852,28.9223789 32.2741758,28.8451758 C31.1600039,27.6093984 31.2586172,25.7043164 32.4945,24.5901445 C33.1729805,23.9638711 34.0641914,23.6188828 34.9874648,23.6248945 C35.9097891,23.6165625 36.8007891,23.9588086 37.4804297,24.5822344 C37.913168,24.9879727 38.5866914,24.9879727 39.0194297,24.5822344 C40.4317617,23.2949883 42.5919727,23.2949883 44.0043047,24.5822344 C44.0815078,24.6518437 44.1550195,24.7253555 44.2246289,24.8025586 C45.3388008,26.0384414 45.2401875,27.9435234 44.0044102,29.0575898 Z" id="Shape"></path>
                    <rect id="Rectangle" x="37.125" y="41.6250352" width="6.75" height="2.24996484"></rect>
                    <rect id="Rectangle" x="46.1249648" y="41.6250352" width="2.24996484" height="2.24996484"></rect>
                    <rect id="Rectangle" x="37.125" y="46.1249648" width="6.75" height="2.24996484"></rect>
                    <rect id="Rectangle" x="46.1249648" y="46.1249648" width="2.24996484" height="2.24996484"></rect>
                    <rect id="Rectangle" x="29.2499648" y="16.875" width="13.5" height="2.24996484"></rect>
                    <rect id="Rectangle" x="45.0000352" y="16.875" width="2.24996484" height="2.24996484"></rect>
                </g>
            </g>
        </g>
    </g>
</svg>