<?xml version="1.0" encoding="UTF-8"?>
<svg width="86px" height="75px" viewBox="0 0 86 75" version="1.1" xmlns="http://www.w3.org/2000/svg" xmlns:xlink="http://www.w3.org/1999/xlink">
    <!-- Generator: Sketch 57.1 (83088) - https://sketch.com -->
    <title>Icon</title>
    <desc>Created with Sketch.</desc>
    <defs>
        <linearGradient x1="50%" y1="0%" x2="50%" y2="100%" id="linearGradient-1">
            <stop stop-color="#BA104A" stop-opacity="0" offset="0%"></stop>
            <stop stop-color="#27B8F5" offset="100%"></stop>
        </linearGradient>
    </defs>
    <g id="For-Hospitals" stroke="none" stroke-width="1" fill="none" fill-rule="evenodd">
        <g transform="translate(-302.000000, -1509.000000)" id="Icon">
            <g transform="translate(302.400000, 1509.120000)">
                <path d="M42.5729032,74.88 C66.0852684,74.88 85.1458065,58.117541 85.1458065,37.44 C85.1458065,25.2800709 64.196878,35.4578128 53.9844555,28.6186282 C46.8310049,23.8280147 52.2582522,0 42.5729032,0 C19.060538,0 0,16.762459 0,37.44 C0,58.117541 19.060538,74.88 42.5729032,74.88 Z" id="Oval" fill="url(#linearGradient-1)" opacity="0.25"></path>
                <g id="file" transform="translate(20.160000, 12.240000)" fill="#0A1B43" fill-rule="nonzero">
                    <rect id="Rectangle" x="6.3" y="6.3" width="10.5000328" height="2.09996719"></rect>
                    <rect id="Rectangle" x="6.3" y="10.5000328" width="2.09996719" height="2.09996719"></rect>
                    <rect id="Rectangle" x="10.5000328" y="10.5000328" width="2.09996719" height="2.09996719"></rect>
                    <path d="M39.59235,8.70768281 L31.1923828,0.307617188 C30.9955078,0.110742187 30.7284469,0 30.4500656,0 L3.15,0 C1.41031406,0 0,1.41031406 0,3.15 L0,47.25 C0,48.9896859 1.41031406,50.4 3.15,50.4 L24.1499672,50.4 L24.1499672,48.3000328 L3.15,48.3000328 C2.57010469,48.3000328 2.09996719,47.8298953 2.09996719,47.25 L2.09996719,3.15 C2.09996719,2.57010469 2.57010469,2.09996719 3.15,2.09996719 L30.0152672,2.09996719 L37.8,9.8847 L37.8,24.1499672 L39.8999672,24.1499672 L39.8999672,9.45 C39.8999672,9.17152031 39.7893234,8.90455781 39.59235,8.70768281 Z" id="Path"></path>
                    <path d="M6.150144,23.52 L6.150144,16.5312 L7.999488,16.5312 L7.999488,19.133184 L10.085376,19.133184 L10.085376,16.5312 L11.93472,16.5312 L11.93472,23.52 L10.085376,23.52 L10.085376,20.745984 L7.999488,20.745984 L7.999488,23.52 L6.150144,23.52 Z M13.303808,23.52 L13.303808,16.5312 L15.153152,16.5312 L15.153152,23.52 L13.303808,23.52 Z M16.5222401,23.52 L16.5222401,16.5312 L19.0812161,16.5312 C19.461122,16.5312 19.8231023,16.5688316 20.1671681,16.644096 C20.5112338,16.7193604 20.8122868,16.8483831 21.0703361,17.031168 C21.3283854,17.2139529 21.5344633,17.4540785 21.6885761,17.751552 C21.8426888,18.0490255 21.9197441,18.4163818 21.9197441,18.853632 C21.9197441,19.2837142 21.8426888,19.6528625 21.6885761,19.961088 C21.5344633,20.2693135 21.3283854,20.521983 21.0703361,20.719104 C20.8122868,20.916225 20.5148177,21.0631675 20.1779201,21.159936 C19.8410224,21.2567045 19.4897939,21.305088 19.1242241,21.305088 L18.3715841,21.305088 L18.3715841,23.52 L16.5222401,23.52 Z M18.3715841,19.842816 L19.0382081,19.842816 C19.4037779,19.842816 19.6743672,19.7568009 19.8499841,19.584768 C20.0256009,19.4127351 20.1134081,19.1690256 20.1134081,18.853632 C20.1134081,18.5382384 20.016641,18.3160326 19.8231041,18.187008 C19.6295671,18.0579834 19.3536019,17.993472 18.9952001,17.993472 L18.3715841,17.993472 L18.3715841,19.842816 Z M24.1489921,20.122368 L24.0307201,20.606208 L25.3209601,20.606208 L25.2026881,20.122368 C25.1166717,19.7854703 25.0306565,19.419906 24.9446401,19.025664 C24.8586237,18.631422 24.7726085,18.2586898 24.6865921,17.907456 L24.6435841,17.907456 C24.5647357,18.2658578 24.4840965,18.640382 24.4016641,19.03104 C24.3192317,19.421698 24.2350085,19.7854703 24.1489921,20.122368 Z M21.4609921,23.52 L23.5898881,16.5312 L25.8263041,16.5312 L27.9552001,23.52 L25.9983361,23.52 L25.6542721,22.036224 L23.6974081,22.036224 L23.3533441,23.52 L21.4609921,23.52 Z M30.2489601,20.122368 L30.1306881,20.606208 L31.4209281,20.606208 L31.3026561,20.122368 C31.2166397,19.7854703 31.1306246,19.419906 31.0446081,19.025664 C30.9585917,18.631422 30.8725766,18.2586898 30.7865601,17.907456 L30.7435521,17.907456 C30.6647037,18.2658578 30.5840645,18.640382 30.5016321,19.03104 C30.4191997,19.421698 30.3349766,19.7854703 30.2489601,20.122368 Z M27.5609601,23.52 L29.6898561,16.5312 L31.9262721,16.5312 L34.0551681,23.52 L32.0983041,23.52 L31.7542401,22.036224 L29.7973761,22.036224 L29.4533121,23.52 L27.5609601,23.52 Z" id="HIPAA"></path>
                    <path d="M32.5500328,8.39996719 C31.9701375,8.39996719 31.5,7.92982969 31.5,7.34993437 L31.5,1.04993438 L29.4000328,1.04993438 L29.4000328,7.34993437 C29.4000328,9.08962031 30.8103469,10.4999344 32.5500328,10.4999344 L34.65,10.4999344 L34.65,8.39996719 L32.5500328,8.39996719 Z" id="Path"></path>
                    <path d="M43.0499672,35.7000328 L39.8999672,35.7000328 L39.8999672,37.8 L41.9999344,37.8 L41.9999344,47.25 C41.9999344,47.8298953 41.5297969,48.3000328 40.9499016,48.3000328 L30.4499672,48.3000328 C29.8700719,48.3000328 29.3999344,47.8298953 29.3999344,47.25 L29.3999344,37.8 L31.5,37.8 L31.5,35.7000328 L28.35,35.7000328 C27.7701047,35.7000328 27.2999672,36.1701703 27.2999672,36.7500656 L27.2999672,47.25 C27.2999672,48.9896859 28.7102813,50.4 30.4499672,50.4 L40.95,50.4 C42.6896859,50.4 44.1,48.9896859 44.1,47.25 L44.1,36.7499672 C44.1,36.1700719 43.6298625,35.7000328 43.0499672,35.7000328 Z" id="Path"></path>
                    <path d="M38.8500328,27.2999672 L32.5500328,27.2999672 C32.5209937,27.2993766 32.4920531,27.2993766 32.4630141,27.2999672 C31.3272422,27.3239859 30.4260469,28.2641625 30.4500656,29.3999344 L30.4500656,33.5999672 L32.5500328,33.5999672 L32.5500328,29.3999344 L38.8500328,29.3999344 L38.8500328,33.5999672 L40.95,33.5999672 L40.95,29.3999344 C40.9505906,29.3708953 40.9505906,29.3419547 40.95,29.3129156 C40.9259812,28.1772422 39.9858047,27.2759484 38.8500328,27.2999672 Z" id="Path"></path>
                    <path d="M35.7000328,35.7000328 C33.9603469,35.7000328 32.5500328,37.1103469 32.5500328,38.8500328 C32.5500328,40.5897188 33.9603469,42.0000328 35.7000328,42.0000328 C37.4397187,42.0000328 38.8500328,40.5897188 38.8500328,38.8500328 C38.8500328,37.1103469 37.4397187,35.7000328 35.7000328,35.7000328 Z M35.7000328,39.8999672 C35.1201375,39.8999672 34.65,39.4298297 34.65,38.8499344 C34.65,38.2700391 35.1201375,37.8 35.7000328,37.8 C36.2799281,37.8 36.7500656,38.2701375 36.7500656,38.8500328 C36.7500656,39.4299281 36.2799281,39.8999672 35.7000328,39.8999672 Z" id="Shape"></path>
                    <rect id="Rectangle" x="34.65" y="40.95" width="2.09996719" height="5.24996719"></rect>
                </g>
            </g>
        </g>
    </g>
</svg>