<?xml version="1.0" encoding="UTF-8"?>
<svg width="86px" height="76px" viewBox="0 0 86 76" version="1.1" xmlns="http://www.w3.org/2000/svg" xmlns:xlink="http://www.w3.org/1999/xlink">
    <!-- Generator: Sketch 57.1 (83088) - https://sketch.com -->
    <title>Icon</title>
    <desc>Created with Sketch.</desc>
    <defs>
        <linearGradient x1="50%" y1="0%" x2="50%" y2="100%" id="linearGradient-1">
            <stop stop-color="#BA104A" stop-opacity="0" offset="0%"></stop>
            <stop stop-color="#27B8F5" offset="100%"></stop>
        </linearGradient>
    </defs>
    <g id="For-Hospitals" stroke="none" stroke-width="1" fill="none" fill-rule="evenodd">
        <g transform="translate(-302.000000, -3393.000000)" id="Icon">
            <g transform="translate(302.400000, 3393.360000)">
                <path d="M42.5729032,74.88 C66.0852684,74.88 85.1458065,58.117541 85.1458065,37.44 C85.1458065,25.2800709 64.196878,35.4578128 53.9844555,28.6186282 C46.8310049,23.8280147 52.2582522,0 42.5729032,0 C19.060538,0 0,16.762459 0,37.44 C0,58.117541 19.060538,74.88 42.5729032,74.88 Z" id="Oval" fill="url(#linearGradient-1)" opacity="0.25"></path>
                <g id="hospital-4" transform="translate(17.280000, 12.240000)" fill="#0A1B43" fill-rule="nonzero">
                    <rect id="Rectangle" x="8.38329825" y="16.7672842" width="3.14385965" height="2.09587368"></rect>
                    <rect id="Rectangle" x="8.38329825" y="22.0067228" width="3.14385965" height="2.09587368"></rect>
                    <rect id="Rectangle" x="8.38329825" y="27.2471439" width="3.14385965" height="2.09587368"></rect>
                    <rect id="Rectangle" x="13.6237193" y="16.7672842" width="3.14385965" height="2.09587368"></rect>
                    <rect id="Rectangle" x="13.6237193" y="22.0067228" width="3.14385965" height="2.09587368"></rect>
                    <rect id="Rectangle" x="13.6237193" y="27.2471439" width="3.14385965" height="2.09587368"></rect>
                    <path d="M45.6792,18.5698947 C45.7268491,18.5233263 45.774007,18.4761684 45.8205754,18.4285193 C49.0553123,15.1156772 48.9920421,9.80785965 45.6792,6.57312281 C42.3663579,3.33838596 37.0585404,3.40165614 33.8238035,6.71449825 C30.5890667,10.0273404 30.6523368,15.3351579 33.9651789,18.5698947 C31.9743298,19.9105544 30.5327719,21.8729123 29.8285474,24.1030877 L25.1508772,24.1030877 L25.1508772,7.33580351 C25.1508772,6.7570386 24.6816561,6.28781754 24.1028912,6.28781754 L19.9110456,6.28781754 L19.9110456,5.23992982 C19.9110456,4.66116491 19.4418246,4.19194386 18.8630596,4.19194386 L15.7192,4.19194386 L15.7192,1.04808421 C15.7192,0.469319298 15.2499789,9.8245614e-05 14.671214,9.8245614e-05 L10.4793684,9.8245614e-05 C9.9008,9.8245614e-05 9.43157895,0.469319298 9.43157895,1.04808421 L9.43157895,4.19194386 L6.2877193,4.19194386 C5.70895439,4.19194386 5.23973333,4.66116491 5.23973333,5.23992982 L5.23973333,6.28791579 L1.04798596,6.28791579 C0.469221053,6.28791579 0,6.7570386 0,7.33580351 L0,49.2539649 C0,49.8327298 0.469221053,50.3019509 1.04798596,50.3019509 L23.0550035,50.3019509 L24.1029895,50.3019509 L49.2538667,50.3019509 C49.8326316,50.3019509 50.3020937,49.8327298 50.3020937,49.2539649 L50.3020937,27.3364491 C50.3248421,23.9449123 48.7032,20.6062316 45.6792,18.5698947 Z M7.33570526,6.28791579 L10.4795649,6.28791579 C11.0583298,6.28791579 11.5275509,5.81869474 11.5275509,5.23992982 L11.5275509,2.09607018 L13.6234246,2.09607018 L13.6234246,5.23992982 C13.6234246,5.81869474 14.0926456,6.28791579 14.6714105,6.28791579 L17.8152702,6.28791579 L17.8152702,8.38378947 L14.6714105,8.38378947 C14.0926456,8.38378947 13.6234246,8.85301053 13.6234246,9.43177544 L13.6234246,12.5756351 L11.5275509,12.5756351 L11.5275509,9.43177544 C11.5275509,8.85301053 11.0583298,8.38378947 10.4795649,8.38378947 L7.33570526,8.38378947 L7.33570526,6.28791579 Z M8.38359298,48.2059789 L8.38359298,35.6305404 L16.767186,35.6305404 L16.767186,48.2059789 L8.38359298,48.2059789 Z M23.0551018,48.2060772 L18.8631579,48.2060772 L18.8631579,48.2060772 L18.8631579,34.5826526 C18.8631579,34.0038877 18.3939368,33.5346667 17.8151719,33.5346667 L7.33570526,33.5346667 C6.75694035,33.5346667 6.2877193,34.0038877 6.2877193,34.5826526 L6.2877193,48.2060772 L2.09587368,48.2060772 L2.09587368,8.38378947 L5.23973333,8.38378947 L5.23973333,9.43177544 C5.23973333,10.0105404 5.70895439,10.4797614 6.2877193,10.4797614 L9.43157895,10.4797614 L9.43157895,13.6236211 C9.43157895,14.202386 9.9008,14.671607 10.4795649,14.671607 L14.6714105,14.671607 C15.2501754,14.671607 15.7193965,14.202386 15.7193965,13.6236211 L15.7193965,10.4797614 L18.8632561,10.4797614 C19.4420211,10.4797614 19.9112421,10.0105404 19.9112421,9.43177544 L19.9112421,8.38378947 L23.0551018,8.38378947 L23.0551018,48.2060772 Z M28.2947368,48.2059789 L25.1508772,48.2059789 L25.1508772,35.6305404 L27.2467509,35.6305404 C27.8255158,35.6305404 28.2947368,36.0997614 28.2947368,36.6785263 L28.2947368,48.2059789 L28.2947368,48.2059789 Z M38.7743018,48.2059789 L30.3907088,48.2059789 L30.3907088,46.1101053 L35.6304421,46.1101053 L35.6304421,44.0142316 L30.3907088,44.0142316 L30.3907088,41.9183579 L35.6304421,41.9183579 L35.6304421,39.8224842 L30.3907088,39.8224842 L30.3907088,36.6786246 C30.3907088,34.9423298 28.9831439,33.5347649 27.2468491,33.5347649 L25.1508772,33.5347649 L25.1508772,26.1990596 L29.3971509,26.1990596 C29.3614877,26.5507789 29.3425263,26.9058386 29.3428211,27.2635509 C29.3471439,32.6928982 33.4828912,37.1536421 38.7743018,37.6752281 L38.7743018,48.2059789 L38.7743018,48.2059789 Z M48.2058807,48.2059789 L40.8701754,48.2059789 L40.8701754,37.6739509 C43.7780491,37.3840281 46.4431579,35.8884351 48.2058807,33.5382035 L48.2058807,48.2059789 L48.2058807,48.2059789 Z M48.2058807,27.2468491 L48.2058807,27.3822316 C48.1566596,30.4852211 46.3801825,33.4402526 43.3811368,34.8464421 C42.5651088,35.2290105 41.7187228,35.4669614 40.8702737,35.5740491 L40.8702737,19.9112421 L38.7744,19.9112421 L38.7744,35.5723789 C36.019593,35.2225263 33.4976281,33.5149193 32.2315368,30.8146386 C30.2659368,26.6224 32.0711018,21.6305404 36.2633404,19.6650386 C36.4391018,19.582414 36.5884351,19.4526316 36.6947368,19.2901333 C37.0114807,18.8057825 36.875607,18.1562807 36.3911579,17.8395368 C34.6162526,16.6799439 33.5451789,14.7038316 33.5425263,12.5836912 C33.5381053,9.11110175 36.3496,6.29233684 39.8221895,6.28791579 C41.9423298,6.29066667 43.9183439,7.36164211 45.0780351,9.13654737 C46.9774175,12.0437333 46.160407,15.9401544 43.2532211,17.8394386 C43.0907228,17.9457404 42.9608421,18.0950737 42.8783158,18.2708351 C42.6322105,18.7946807 42.8572912,19.4188351 43.3811368,19.6649404 C45.1548632,20.4965895 46.5814877,21.9231158 47.4130386,23.6968421 C47.952014,24.846414 48.2056842,26.0559158 48.2061754,27.2468491 L48.2058807,27.2468491 Z" id="Shape"></path>
                    <rect id="Rectangle" x="10.4798596" y="40.8698807" width="2.09587368" height="2.09587368"></rect>
                    <rect id="Rectangle" x="4.19184561" y="16.7672842" width="2.09587368" height="2.09587368"></rect>
                    <rect id="Rectangle" x="4.19184561" y="22.0067228" width="2.09587368" height="2.09587368"></rect>
                    <rect id="Rectangle" x="4.19184561" y="27.2471439" width="2.09587368" height="2.09587368"></rect>
                    <rect id="Rectangle" x="18.8631579" y="27.2471439" width="2.09587368" height="2.09587368"></rect>
                    <rect id="Rectangle" x="18.8631579" y="16.7672842" width="2.09587368" height="2.09587368"></rect>
                    <rect id="Rectangle" x="18.8631579" y="22.0067228" width="2.09587368" height="2.09587368"></rect>
                </g>
            </g>
        </g>
    </g>
</svg>