<?xml version="1.0" encoding="UTF-8"?>
<svg width="88px" height="77px" viewBox="0 0 88 77" version="1.1" xmlns="http://www.w3.org/2000/svg" xmlns:xlink="http://www.w3.org/1999/xlink">
    <!-- Generator: Sketch 57.1 (83088) - https://sketch.com -->
    <title>Icon</title>
    <desc>Created with Sketch.</desc>
    <defs>
        <linearGradient x1="50%" y1="0%" x2="50%" y2="100%" id="linearGradient-1">
            <stop stop-color="#BA104A" stop-opacity="0" offset="0%"></stop>
            <stop stop-color="#27B8F5" offset="100%"></stop>
        </linearGradient>
    </defs>
    <g id="For-Hospitals" stroke="none" stroke-width="1" fill="none" fill-rule="evenodd">
        <g transform="translate(-736.000000, -4522.000000)" id="Icon">
            <g transform="translate(736.560000, 4522.320000)">
                <path d="M43.56,76.32 C67.6175237,76.32 87.12,59.2351861 87.12,38.16 C87.12,25.7662261 65.685349,36.1396938 55.2361409,29.1689864 C47.9168302,24.2862458 53.4699138,0 43.56,0 C19.5024763,0 0,17.0848139 0,38.16 C0,59.2351861 19.5024763,76.32 43.56,76.32 Z" id="Oval" fill="url(#linearGradient-1)" opacity="0.25"></path>
                <g id="tasks-2" transform="translate(16.560000, 11.520000)" fill="#0A1B43" fill-rule="nonzero">
                    <rect id="Rectangle" x="6.73684211" y="6.73684211" width="11.2284211" height="2.24557895"></rect>
                    <rect id="Rectangle" x="6.73684211" y="11.2284211" width="2.24557895" height="2.24557895"></rect>
                    <rect id="Rectangle" x="11.2284211" y="11.2284211" width="2.24557895" height="2.24557895"></rect>
                    <path d="M42.3376842,9.31157895 L33.3552632,0.329052632 C33.1447368,0.118526316 32.8591579,0.000105263158 32.5614737,0.000105263158 L3.36842105,0.000105263158 C1.50810526,0.000105263158 0,1.50821053 0,3.36852632 L0,50.5264211 C0,52.3867368 1.50810526,53.8948421 3.36842105,53.8948421 L15.7192632,53.8948421 L15.7192632,51.6492632 L3.36842105,51.6492632 C2.74831579,51.6492632 2.24557895,51.1465263 2.24557895,50.5264211 L2.24557895,3.36852632 C2.24557895,2.74842105 2.74831579,2.24568421 3.36842105,2.24568421 L32.0965263,2.24568421 L40.4210526,10.5702105 L40.4210526,17.9650526 L42.6666316,17.9650526 L42.6666316,10.1053684 C42.6666316,9.80757895 42.5483158,9.52210526 42.3376842,9.31157895 Z" id="Path"></path>
                    <path d="M34.8070526,8.98252632 C34.1869474,8.98252632 33.6842105,8.47978947 33.6842105,7.85968421 L33.6842105,1.12284211 L31.4386316,1.12284211 L31.4386316,7.85968421 C31.4386316,9.72 32.9467368,11.2281053 34.8070526,11.2281053 L37.0526316,11.2281053 L37.0526316,8.98252632 L34.8070526,8.98252632 Z" id="Path"></path>
                    <path d="M53.8610526,49.1307368 L52.7382105,44.6394737 C52.6130526,44.1398947 52.1641053,43.7894737 51.6490526,43.7894737 L49.4034737,43.7894737 L49.4034737,30.3157895 C49.3985263,25.9770526 45.8825263,22.4610526 41.5437895,22.4561053 L40.2794737,22.4561053 C39.8717895,20.8705263 38.6336842,19.6324211 37.0481053,19.2247368 C34.6457895,18.6070526 32.1976842,20.0537895 31.58,22.4561053 L30.3157895,22.4561053 C25.9770526,22.4610526 22.4610526,25.9770526 22.4561053,30.3157895 L22.4561053,43.7894737 L20.2105263,43.7894737 C19.6954737,43.7894737 19.2465263,44.1398947 19.1213684,44.6394737 L17.9985263,49.1307368 C17.9762105,49.22 17.9648421,49.3115789 17.9648421,49.4035789 C17.9648421,50.0236842 18.4674737,50.5264211 19.0875789,50.5264211 L52.7717895,50.5264211 C52.8637895,50.5264211 52.9553684,50.5151579 53.0446316,50.4927368 C53.6463158,50.3421053 54.0117895,49.7323158 53.8610526,49.1307368 Z M20.526,48.2808421 L20.526,48.2808421 L21.0873684,46.0352632 L23.5789474,46.0352632 C24.1990526,46.0352632 24.7017895,45.5325263 24.7017895,44.9124211 L24.7017895,30.3158947 C24.7054737,27.2168421 27.2168421,24.7055789 30.3157895,24.7018947 L32.5613684,24.7018947 C33.1814737,24.7018947 33.6842105,24.1991579 33.6842105,23.5790526 C33.6842105,22.3388421 34.6895789,21.3334737 35.9297895,21.3334737 C37.17,21.3334737 38.1753684,22.3388421 38.1753684,23.5790526 C38.1753684,24.1991579 38.6781053,24.7018947 39.2982105,24.7018947 L41.5437895,24.7018947 C44.6428421,24.7055789 47.1541053,27.2169474 47.1577895,30.3158947 L47.1577895,44.9124211 C47.1577895,45.5325263 47.6605263,46.0352632 48.2806316,46.0352632 L50.7721053,46.0352632 L51.3334737,48.2808421 L20.526,48.2808421 Z" id="Shape"></path>
                    <rect id="Rectangle" x="23.5789474" y="43.7894737" width="21.3336842" height="2.24557895"></rect>
                    <path d="M32.1516842,26.9474737 C29.1643158,27.0606316 26.8342105,29.5741053 26.9473684,32.5614737 L29.1929474,32.5614737 C29.1869474,32.4485263 29.1869474,32.3353684 29.1929474,32.2224211 C29.2866316,30.4556842 30.7946316,29.0994737 32.5613684,29.1930526 L32.5613684,26.9474737 C32.4248421,26.9423158 32.2882105,26.9423158 32.1516842,26.9474737 Z" id="Path"></path>
                    <path d="M38.1754737,49.4036842 L38.1754737,49.4036842 C38.1754737,50.6438947 37.1701053,51.6492632 35.9298947,51.6492632 C34.6896842,51.6492632 33.6843158,50.6438947 33.6843158,49.4036842 L31.4387368,49.4036842 C31.4387368,51.8841053 33.4494737,53.8949474 35.93,53.8949474 C38.4104211,53.8949474 40.4212632,51.8842105 40.4212632,49.4036842 L38.1754737,49.4036842 L38.1754737,49.4036842 Z" id="Path"></path>
                    <path d="M12.3508421,16.8422105 L7.85968421,16.8422105 C7.23957895,16.8422105 6.73684211,17.3449474 6.73684211,17.9650526 L6.73684211,22.4563158 C6.73684211,23.0764211 7.23957895,23.5791579 7.85968421,23.5791579 L12.3509474,23.5791579 C12.9710526,23.5791579 13.4737895,23.0764211 13.4737895,22.4563158 L13.4737895,17.9650526 C13.4736842,17.3449474 12.9709474,16.8422105 12.3508421,16.8422105 Z M8.98242105,21.3334737 L8.98242105,19.0878947 L11.228,19.0878947 L11.228,21.3334737 L8.98242105,21.3334737 Z" id="Shape"></path>
                    <path d="M12.3508421,28.0703158 L7.85968421,28.0703158 C7.23957895,28.0703158 6.73684211,28.5730526 6.73684211,29.1931579 L6.73684211,33.6844211 C6.73684211,34.3045263 7.23957895,34.8072632 7.85968421,34.8072632 L12.3509474,34.8072632 C12.9710526,34.8072632 13.4737895,34.3045263 13.4737895,33.6844211 L13.4737895,29.1931579 C13.4736842,28.5729474 12.9709474,28.0703158 12.3508421,28.0703158 Z M8.98242105,32.5614737 L8.98242105,30.3158947 L11.228,30.3158947 L11.228,32.5614737 L8.98242105,32.5614737 L8.98242105,32.5614737 Z" id="Shape"></path>
                    <path d="M12.3508421,39.2984211 L7.85968421,39.2984211 C7.23957895,39.2984211 6.73684211,39.8011579 6.73684211,40.4212632 L6.73684211,44.9125263 C6.73684211,45.5326316 7.23957895,46.0353684 7.85968421,46.0353684 L12.3509474,46.0353684 C12.9710526,46.0353684 13.4737895,45.5326316 13.4737895,44.9125263 L13.4737895,40.4212632 C13.4736842,39.8010526 12.9709474,39.2984211 12.3508421,39.2984211 Z M8.98242105,43.7895789 L8.98242105,41.544 L11.228,41.544 L11.228,43.7895789 L8.98242105,43.7895789 Z" id="Shape"></path>
                    <rect id="Rectangle" x="15.7189474" y="16.8421053" width="11.2284211" height="2.24557895"></rect>
                    <rect id="Rectangle" x="15.7189474" y="21.3336842" width="4.49126316" height="2.24557895"></rect>
                    <rect id="Rectangle" x="15.7189474" y="28.0705263" width="2.24557895" height="2.24557895"></rect>
                    <rect id="Rectangle" x="15.7189474" y="32.5610526" width="4.49126316" height="2.24557895"></rect>
                    <rect id="Rectangle" x="15.7189474" y="39.2978947" width="2.24557895" height="2.24557895"></rect>
                </g>
            </g>
        </g>
    </g>
</svg>