<?xml version="1.0" encoding="UTF-8"?>
<svg width="86px" height="75px" viewBox="0 0 86 75" version="1.1" xmlns="http://www.w3.org/2000/svg" xmlns:xlink="http://www.w3.org/1999/xlink">
    <!-- Generator: Sketch 57.1 (83088) - https://sketch.com -->
    <title>Icon</title>
    <desc>Created with Sketch.</desc>
    <defs>
        <linearGradient x1="50%" y1="0%" x2="50%" y2="100%" id="linearGradient-1">
            <stop stop-color="#BA104A" stop-opacity="0" offset="0%"></stop>
            <stop stop-color="#27B8F5" offset="100%"></stop>
        </linearGradient>
    </defs>
    <g id="For-Hospitals" stroke="none" stroke-width="1" fill="none" fill-rule="evenodd">
        <g transform="translate(-662.000000, -2333.000000)" id="Icon">
            <g transform="translate(662.400000, 2332.800000)">
                <g id="Group-9">
                    <path d="M42.5729032,74.88 C66.0852684,74.88 85.1458065,58.117541 85.1458065,37.44 C85.1458065,25.2800709 64.196878,35.4578128 53.9844555,28.6186282 C46.8310049,23.8280147 52.2582522,0 42.5729032,0 C19.060538,0 0,16.762459 0,37.44 C0,58.117541 19.060538,74.88 42.5729032,74.88 Z" id="Oval" fill="url(#linearGradient-1)" opacity="0.25"></path>
                    <g id="medical-history-6" transform="translate(17.280000, 12.240000)" fill="#0A1B43" fill-rule="nonzero">
                        <path d="M40.95,16.8000328 L18.9,16.8000328 L18.9,15.75 C18.8965547,12.8519016 16.5480328,10.5034781 13.6500328,10.5000328 L3.15,10.5000328 C1.41031406,10.5000328 0,11.9103469 0,13.6500328 L0,45.1500328 C0.0034453125,48.0480328 2.35196719,50.3965547 5.24996719,50.4 L40.95,50.4 C43.8480984,50.3965547 46.1965219,48.0480328 46.1999672,45.1500328 L46.1999672,22.05 C46.1965219,19.1519016 43.8480984,16.8034781 40.95,16.8000328 Z M44.1,45.1500328 C44.1,46.8897187 42.6896859,48.3000328 40.95,48.3000328 L5.24996719,48.3000328 C3.51028125,48.3000328 2.09996719,46.8897187 2.09996719,45.1500328 L2.09996719,13.6500328 C2.09996719,13.0701375 2.57010469,12.6 3.15,12.6 L13.6500328,12.6 C15.3897187,12.6 16.8000328,14.0103141 16.8000328,15.75 L16.8000328,16.8000328 L13.6500328,16.8000328 L13.6500328,18.9 L40.95,18.9 C42.6896859,18.9 44.1,20.3103141 44.1,22.05 L44.1,45.1500328 Z" id="Shape"></path>
                        <path d="M47.25,0 L17.8499672,0 C16.1102812,0 14.6999672,1.41031406 14.6999672,3.15 L14.6999672,12.6 L16.7999344,12.6 L16.7999344,3.15 C16.7999344,2.57010469 17.2700719,2.09996719 17.8499672,2.09996719 L47.25,2.09996719 C47.8298953,2.09996719 48.3000328,2.57010469 48.3000328,3.15 L48.3000328,43.0499672 C48.3000328,43.6298625 47.8298953,44.1 47.25,44.1 L45.1500328,44.1 L45.1500328,46.1999672 L47.25,46.1999672 C48.9896859,46.1999672 50.4,44.7896531 50.4,43.0499672 L50.4,3.15 C50.4,1.41031406 48.9896859,0 47.25,0 Z" id="Path"></path>
                        <path d="M22.05,4.20003281 C20.3103141,4.20003281 18.9,5.61034687 18.9,7.35003281 L18.9,9.45 L20.9999672,9.45 L20.9999672,7.35003281 C20.9999672,6.7701375 21.4701047,6.3 22.05,6.3 L24.1499672,6.3 L24.1499672,4.20003281 L22.05,4.20003281 Z" id="Path"></path>
                        <rect id="Rectangle" x="26.2500328" y="4.20003281" width="2.09996719" height="2.09996719"></rect>
                        <rect id="Rectangle" x="24.1499672" y="8.39996719" width="20.9999672" height="2.09996719"></rect>
                        <rect id="Rectangle" x="24.1499672" y="12.6" width="20.9999672" height="2.09996719"></rect>
                        <path d="M29.9071828,27.7157672 C28.0291922,26.0044313 25.2339609,25.7729063 23.1000328,27.1519172 C20.9663016,25.7722172 18.1710703,26.0024625 16.2918,27.7126172 C16.1855859,27.8098734 16.0838016,27.9116578 15.9865453,28.0178719 C14.1544266,30.0185156 14.2911562,33.1255969 16.2918,34.9576172 L22.3818328,40.6654172 C22.57605,40.8486094 22.8330703,40.9504922 23.1000328,40.9500086 L23.1000328,40.9500086 C23.3662078,40.9510828 23.6227359,40.8503813 23.81715,40.6685672 L29.9071828,34.9607672 C30.0133969,34.8635109 30.1151813,34.7617266 30.2124375,34.6555125 C32.0444578,32.6548688 31.9078266,29.5478859 29.9071828,27.7157672 Z M28.4707828,33.4257328 L23.1000328,38.4605156 L17.7282,33.4288828 C17.6563406,33.3641109 17.5878281,33.2955984 17.5230562,33.2237391 C16.4826703,32.0700516 16.5745125,30.2913844 17.7282,29.2509 C18.3614484,28.6663781 19.1932453,28.3443891 20.0549672,28.35 C20.9162953,28.3434047 21.7480922,28.6643109 22.3817344,29.24775 C22.7856234,29.6264391 23.4142453,29.6264391 23.8181344,29.24775 C25.1363109,28.0463203 27.1525078,28.0463203 28.4706844,29.24775 C28.5425438,29.3125219 28.6110562,29.3810344 28.6758281,29.4528937 C29.7163125,30.6065812 29.6244703,32.3852484 28.4707828,33.4257328 Z" id="Shape"></path>
                        <rect id="Rectangle" x="9.45" y="16.8000328" width="2.09996719" height="2.09996719"></rect>
                        <rect id="Rectangle" x="5.24996719" y="44.1" width="10.5000328" height="2.09996719"></rect>
                        <rect id="Rectangle" x="17.8499672" y="44.1" width="2.09996719" height="2.09996719"></rect>
                    </g>
                </g>
            </g>
        </g>
    </g>
</svg>