<?xml version="1.0" encoding="UTF-8"?>
<svg width="88px" height="77px" viewBox="0 0 88 77" version="1.1" xmlns="http://www.w3.org/2000/svg" xmlns:xlink="http://www.w3.org/1999/xlink">
    <!-- Generator: Sketch 57.1 (83088) - https://sketch.com -->
    <title>Icon</title>
    <desc>Created with Sketch.</desc>
    <defs>
        <linearGradient x1="50%" y1="0%" x2="50%" y2="100%" id="linearGradient-1">
            <stop stop-color="#BA104A" stop-opacity="0" offset="0%"></stop>
            <stop stop-color="#27B8F5" offset="100%"></stop>
        </linearGradient>
    </defs>
    <g id="For-Hospitals" stroke="none" stroke-width="1" fill="none" fill-rule="evenodd">
        <g transform="translate(-309.000000, -4999.000000)" id="Icon">
            <g transform="translate(309.600000, 4998.960000)">
                <path d="M43.56,76.32 C67.6175237,76.32 87.12,59.2351861 87.12,38.16 C87.12,25.7662261 65.685349,36.1396938 55.2361409,29.1689864 C47.9168302,24.2862458 53.4699138,0 43.56,0 C19.5024763,0 0,17.0848139 0,38.16 C0,59.2351861 19.5024763,76.32 43.56,76.32 Z" id="Oval" fill="url(#linearGradient-1)" opacity="0.25"></path>
                <g id="browser-4" transform="translate(16.560000, 11.520000)" fill="#0A1B43" fill-rule="nonzero">
                    <path d="M52.8749648,37.125 L50.0388047,37.125 C49.9197305,36.7907695 49.7834648,36.4629727 49.6304297,36.142875 L51.6373945,34.1359102 C52.0765664,33.6966328 52.0765664,32.9845078 51.6373945,32.545125 L48.454875,29.3625 C48.0155977,28.9233281 47.3034727,28.9233281 46.8640898,29.3625 L44.857125,31.3694648 C44.5369219,31.2170625 44.209125,31.0812187 43.875,30.96225 L43.875,28.1250352 C43.875,27.5037187 43.3712812,27 42.7499648,27 L38.2499297,27 C37.6286133,27 37.1248945,27.5037187 37.1248945,28.1250352 L37.1248945,30.96225 C36.790875,31.0807969 36.4629727,31.2164297 36.1427695,31.3684102 L34.1359102,29.3625 C33.6966328,28.9233281 32.9845078,28.9233281 32.545125,29.3625 L29.3625,32.545125 C28.9233281,32.9844023 28.9233281,33.6965273 29.3625,34.1359102 L31.370625,36.142875 C31.2175898,36.4629727 31.0813242,36.7907695 30.96225,37.125 L28.1250352,37.125 C27.5037187,37.125 27,37.6287188 27,38.2500352 L27,42.7500703 C27,43.3713867 27.5037187,43.8751055 28.1250352,43.8751055 L30.96225,43.8751055 C31.0809023,44.2093359 31.2168516,44.5371328 31.3694648,44.8572305 L29.3625,46.8640898 C28.9233281,47.3033672 28.9233281,48.0154922 29.3625,48.454875 L32.545125,51.6375 C32.9844023,52.0766719 33.6965273,52.0766719 34.1359102,51.6375 L36.142875,49.6305352 C36.4630781,49.7829375 36.790875,49.9187813 37.125,50.03775 L37.125,52.8749648 C37.125,53.4962813 37.6287188,54 38.2500352,54 L42.7500703,54 C43.3713867,54 43.8751055,53.4962813 43.8751055,52.8749648 L43.8751055,50.0388047 C44.2092305,49.9198359 44.5370273,49.7838867 44.8572305,49.6315898 L46.8641953,51.6375 C47.3034727,52.0766719 48.0155977,52.0766719 48.4549805,51.6375 L51.6376055,48.454875 C52.0767773,48.0155977 52.0767773,47.3034727 51.6376055,46.8640898 L49.6294805,44.857125 C49.7825156,44.5370273 49.9187812,44.2092305 50.0378555,43.875 L52.8750703,43.875 C53.4963867,43.875 54.0001055,43.3712813 54.0001055,42.7499648 L54.0001055,38.2499297 C54.0001055,37.6287188 53.4962812,37.125 52.8749648,37.125 Z M51.7501406,41.623875 L49.2064453,41.623875 C48.6939727,41.6245078 48.2466797,41.9713945 48.1185352,42.467625 C47.9341758,43.1784844 47.6513086,43.8601289 47.2781602,44.492625 C47.0172305,44.9349609 47.0889492,45.4978477 47.4525,45.8606602 L49.2525352,47.6606953 L47.66175,49.2514805 L45.8617148,47.4514453 C45.4986914,47.0882109 44.9358047,47.0169141 44.4936797,47.2781602 C43.8610781,47.6505703 43.1794336,47.9326992 42.4686797,48.1163203 C41.9720273,48.2445703 41.6250352,48.6923906 41.6249297,49.2052852 L41.6249297,51.7500352 L39.3749648,51.7500352 L39.376125,49.2075 C39.3760195,48.6946055 39.0290273,48.2466797 38.532375,48.1185352 C37.8216211,47.9349141 37.1399766,47.6527852 36.507375,47.280375 C36.06525,47.0191289 35.5023633,47.0904258 35.1393398,47.4536602 L33.3393047,49.2536953 L31.7485195,47.6629102 L33.5485547,45.862875 C33.9121055,45.500168 33.9839297,44.9371758 33.7228945,44.4948398 C33.3497461,43.8623438 33.0668789,43.1806992 32.8825195,42.4698398 C32.754375,41.9736094 32.307082,41.6267227 31.7946094,41.6260898 L29.2498594,41.6260898 L29.2498594,39.376125 L31.7934492,39.376125 C32.3059219,39.3754922 32.7532148,39.0286055 32.8813594,38.532375 C33.0657188,37.8215156 33.3485859,37.1398711 33.7217344,36.507375 C33.9826641,36.0650391 33.9109453,35.5021523 33.5473945,35.1393398 L31.7473594,33.3393047 L33.3381445,31.7485195 L35.1381797,33.5485547 C35.5012031,33.9117891 36.0640898,33.9830859 36.5062148,33.7218398 C37.1388164,33.3494297 37.8204609,33.0673008 38.5312148,32.8836797 C39.0278672,32.7554297 39.3748594,32.3076094 39.3749648,31.7947148 L39.3749648,29.2499648 L41.623875,29.2499648 L41.623875,31.7935547 C41.6239805,32.3064492 41.9709727,32.754375 42.467625,32.8825195 C43.1783789,33.0661406 43.8600234,33.3482695 44.492625,33.7206797 C44.93475,33.9819258 45.4976367,33.9106289 45.8606602,33.5473945 L47.6606953,31.7473594 L49.2514805,33.3381445 L47.4514453,35.1381797 C47.0878945,35.5008867 47.0161758,36.0638789 47.2771055,36.5062148 C47.6502539,37.1387109 47.9331211,37.8203555 48.1174805,38.5312148 C48.245625,39.0274453 48.692918,39.374332 49.2053906,39.3749648 L51.7501406,39.3749648 L51.7501406,41.623875 L51.7501406,41.623875 Z" id="Shape"></path>
                    <path d="M40.5,35.9999648 C38.0147344,35.9999648 35.9999648,38.0147344 35.9999648,40.5 C35.9999648,42.9852656 38.0146289,45.0000352 40.5,45.0000352 C42.9852656,45.0000352 45.0000352,42.9853711 45.0000352,40.5 C45.0000352,38.0147344 42.9852656,35.9999648 40.5,35.9999648 Z M40.5,42.7499648 C39.2573672,42.7499648 38.2500352,41.7426328 38.2500352,40.5 C38.2500352,39.2573672 39.2573672,38.2500352 40.5,38.2500352 C41.7426328,38.2500352 42.7499648,39.2573672 42.7499648,40.5 C42.7499648,41.7426328 41.7426328,42.7499648 40.5,42.7499648 Z" id="Shape"></path>
                    <path d="M48.3750352,0 L5.62496484,0 C2.51996484,0.00369140625 0.00369140625,2.51996484 0,5.62496484 L0,48.3749297 C0.00369140625,51.4800352 2.51996484,53.9963086 5.62496484,54 L30.375,54 L30.375,51.7500352 L5.62496484,51.7500352 C3.76101562,51.7500352 2.24996484,50.2389844 2.24996484,48.3750352 L2.24996484,5.62496484 C2.24996484,3.76101562 3.76101562,2.24996484 5.62496484,2.24996484 L48.3749297,2.24996484 C50.2388789,2.24996484 51.7499297,3.76101562 51.7499297,5.62496484 L51.7499297,27 L54,27 L54,5.62496484 C53.9963086,2.51996484 51.4800352,0.00369140625 48.3750352,0 Z" id="Path"></path>
                    <rect id="Rectangle" x="4.50003516" y="8.99996484" width="45.0000352" height="2.24996484"></rect>
                    <rect id="Rectangle" x="5.62496484" y="4.50003516" width="2.24996484" height="2.24996484"></rect>
                    <rect id="Rectangle" x="10.125" y="4.50003516" width="2.24996484" height="2.24996484"></rect>
                    <rect id="Rectangle" x="46.1249648" y="4.50003516" width="2.24996484" height="2.24996484"></rect>
                    <rect id="Rectangle" x="18.0000352" y="13.5" width="2.24996484" height="35.9999648"></rect>
                    <path d="M46.1249648,16.875 L25.8749648,16.875 C24.632332,16.875 23.625,17.882332 23.625,19.1249648 L23.625,21.3749297 C23.625,22.6175625 24.632332,23.6248945 25.8749648,23.6248945 L46.1249648,23.6248945 C47.3675977,23.6248945 48.3749297,22.6175625 48.3749297,21.3749297 L48.3749297,19.1249648 C48.3749297,17.882332 47.3675977,16.875 46.1249648,16.875 Z M46.1249648,21.3750352 L25.8749648,21.3750352 L25.8749648,19.1250703 L46.1249648,19.1250703 L46.1249648,21.3750352 Z" id="Shape"></path>
                    <rect id="Rectangle" x="23.625" y="25.8749648" width="2.24996484" height="2.24996484"></rect>
                    <rect id="Rectangle" x="23.625" y="30.375" width="2.24996484" height="2.24996484"></rect>
                    <rect id="Rectangle" x="28.1250352" y="25.8749648" width="2.24996484" height="2.24996484"></rect>
                    <rect id="Rectangle" x="6.75" y="19.1249648" width="5.62496484" height="2.24996484"></rect>
                    <rect id="Rectangle" x="6.75" y="24.7500352" width="5.62496484" height="2.24996484"></rect>
                    <rect id="Rectangle" x="6.75" y="30.375" width="5.62496484" height="2.24996484"></rect>
                    <rect id="Rectangle" x="6.75" y="35.9999648" width="5.62496484" height="2.24996484"></rect>
                    <rect id="Rectangle" x="6.75" y="41.6250352" width="5.62496484" height="2.24996484"></rect>
                </g>
            </g>
        </g>
    </g>
</svg>