<?xml version="1.0" encoding="UTF-8"?>
<svg width="86px" height="75px" viewBox="0 0 86 75" version="1.1" xmlns="http://www.w3.org/2000/svg" xmlns:xlink="http://www.w3.org/1999/xlink">
    <!-- Generator: Sketch 57.1 (83088) - https://sketch.com -->
    <title>Icon</title>
    <desc>Created with Sketch.</desc>
    <defs>
        <linearGradient x1="50%" y1="0%" x2="50%" y2="100%" id="linearGradient-1">
            <stop stop-color="#BA104A" stop-opacity="0" offset="0%"></stop>
            <stop stop-color="#27B8F5" offset="100%"></stop>
        </linearGradient>
    </defs>
    <g id="For-Hospitals" stroke="none" stroke-width="1" fill="none" fill-rule="evenodd">
        <g transform="translate(-662.000000, -2434.000000)" id="Icon">
            <g transform="translate(662.400000, 2433.600000)">
                <g id="Group-9">
                    <path d="M42.5729032,74.88 C66.0852684,74.88 85.1458065,58.117541 85.1458065,37.44 C85.1458065,25.2800709 64.196878,35.4578128 53.9844555,28.6186282 C46.8310049,23.8280147 52.2582522,0 42.5729032,0 C19.060538,0 0,16.762459 0,37.44 C0,58.117541 19.060538,74.88 42.5729032,74.88 Z" id="Oval" fill="url(#linearGradient-1)" opacity="0.25"></path>
                    <g id="medical-history-7" transform="translate(17.280000, 12.240000)" fill="#0A1B43" fill-rule="nonzero">
                        <path d="M49.2537684,6.28781754 L20.8846596,6.28781754 C20.3590456,2.68092632 17.2684351,0.00461754386 13.6234246,9.8245614e-05 L1.04798596,9.8245614e-05 C0.469221053,9.8245614e-05 0,0.469319298 0,1.04808421 L0,49.2539649 C0,49.8326316 0.469221053,50.3017544 1.04798596,50.3017544 L27.2468491,50.3017544 L27.2468491,48.2058807 L2.09597193,48.2058807 L2.09597193,2.09597193 L13.6234246,2.09597193 C16.1568842,2.09901754 18.2693614,3.89769825 18.7570526,6.28781754 L8.38359298,6.28781754 L8.38359298,8.38369123 L19.9110456,8.38369123 L48.2057825,8.38369123 L48.2057825,16.7672842 L50.3017544,16.7672842 L50.3017544,7.33570526 C50.3017544,6.7570386 49.8325333,6.28781754 49.2537684,6.28781754 Z" id="Path"></path>
                        <path d="M45.012407,30.6842667 C46.9565895,29.1488842 48.2058807,26.7726175 48.2058807,24.1029895 L48.2058807,22.0071158 C48.2058807,17.3769965 44.452407,13.6235228 39.8222877,13.6235228 C35.1921684,13.6235228 31.4385965,17.3769965 31.4385965,22.0071158 L31.4385965,23.7948912 C31.4075509,26.567186 32.6944702,29.0573193 34.7261895,30.6574456 C31.6249684,31.5147368 29.3465544,34.3532491 29.3427228,37.726414 L29.3427228,49.2538667 C29.3427228,49.8326316 29.8119439,50.3018526 30.3907088,50.3018526 L49.2538667,50.3018526 C49.8326316,50.3018526 50.3018526,49.8326316 50.3018526,49.2538667 L50.3018526,37.726414 C50.2979228,34.3875368 48.0654877,31.5725053 45.012407,30.6842667 Z M39.8221895,15.7193965 C42.5476211,15.7221474 44.8666105,17.4572632 45.7392281,19.8827509 C39.8869333,19.6467649 37.2823439,18.0058667 37.2599439,17.9913263 C36.8901474,17.7447298 36.4051088,17.7581895 36.0495579,18.0248281 L34.0449544,19.5282807 C35.0079579,17.2900491 37.2314526,15.7219509 39.8221895,15.7193965 Z M33.5344702,23.7948912 L33.5344702,22.5310596 L36.7695018,20.1049825 C38.0114246,20.709193 41.0052632,21.8522807 46.1095158,21.9927719 C46.1095158,21.997586 46.1099088,22.0022035 46.1099088,22.0070175 L46.1099088,24.1028912 C46.1099088,24.1685193 46.1089263,24.2341474 46.1069614,24.2997754 C46.003607,27.6487719 43.299593,30.3042526 39.9919579,30.3906105 L39.6283509,30.3906105 C36.1600842,30.1753544 33.4751298,27.2693474 33.5344702,23.7948912 Z M42.4658807,32.4866807 L39.8221895,39.0971368 L37.1784982,32.4866807 L39.5612491,32.4866807 C39.6492772,32.4866807 39.7352421,32.4866807 39.8221895,32.4866807 L42.4658807,32.4866807 Z M31.4385965,48.2059789 L31.4385965,37.726414 C31.4413474,35.4109614 32.9447018,33.4483088 35.0279018,32.755186 L38.7742035,42.1210386 L38.7742035,46.1101053 L40.8701754,46.1101053 L40.8701754,42.1210386 L44.6164772,32.755186 C46.6997754,33.4483088 48.2030316,35.4108632 48.2057825,37.726414 L48.2057825,48.2059789 L31.4385965,48.2059789 Z" id="Shape"></path>
                        <path d="M40.8701754,25.1509754 C40.8701754,25.7297404 40.4009544,26.1989614 39.8221895,26.1989614 C39.2434246,26.1989614 38.7742035,25.7297404 38.7742035,25.1509754 L36.6783298,25.1509754 C36.6783298,26.8872702 38.0858947,28.2948351 39.8221895,28.2948351 C41.5584842,28.2948351 42.9660491,26.8872702 42.9660491,25.1509754 L40.8701754,25.1509754 Z" id="Path"></path>
                        <rect id="Rectangle" x="8.38329825" y="11.5272561" width="12.5754386" height="2.09587368"></rect>
                        <rect id="Rectangle" x="8.38329825" y="16.7676772" width="12.5754386" height="2.09587368"></rect>
                        <rect id="Rectangle" x="8.38329825" y="22.0071158" width="12.5754386" height="2.09587368"></rect>
                        <path d="M6.2877193,44.0141333 L6.2877193,40.8702737 L4.19184561,40.8702737 L4.19184561,45.0621193 C4.19184561,45.6408842 4.66106667,46.1101053 5.23983158,46.1101053 L9.43157895,46.1101053 L9.43157895,44.0141333 L6.2877193,44.0141333 Z" id="Path"></path>
                        <rect id="Rectangle" x="11.5271579" y="44.0141333" width="2.09587368" height="2.09587368"></rect>
                        <rect id="Rectangle" x="23.0552982" y="11.5272561" width="2.09587368" height="2.09587368"></rect>
                        <rect id="Rectangle" x="23.0552982" y="16.7676772" width="2.09587368" height="2.09587368"></rect>
                        <rect id="Rectangle" x="23.0552982" y="22.0071158" width="2.09587368" height="2.09587368"></rect>
                        <rect id="Rectangle" x="4.19184561" y="6.28781754" width="2.09587368" height="2.09587368"></rect>
                        <path d="M19.9110456,27.2468491 L9.43157895,27.2468491 C8.85281404,27.2468491 8.38359298,27.7160702 8.38359298,28.2948351 L8.38359298,36.6784281 C8.38359298,37.257193 8.85281404,37.726414 9.43157895,37.726414 L19.9111439,37.726414 C20.4899088,37.726414 20.9590316,37.257193 20.9590316,36.6784281 L20.9590316,28.2948351 C20.9590316,27.7160702 20.4898105,27.2468491 19.9110456,27.2468491 Z M18.8631579,35.6305404 L10.4795649,35.6305404 L10.4795649,29.3428211 L18.8631579,29.3428211 L18.8631579,35.6305404 Z" id="Shape"></path>
                    </g>
                </g>
            </g>
        </g>
    </g>
</svg>