<?xml version="1.0" encoding="UTF-8"?>
<svg width="88px" height="77px" viewBox="0 0 88 77" version="1.1" xmlns="http://www.w3.org/2000/svg" xmlns:xlink="http://www.w3.org/1999/xlink">
    <!-- Generator: Sketch 57.1 (83088) - https://sketch.com -->
    <title>Icon</title>
    <desc>Created with Sketch.</desc>
    <defs>
        <linearGradient x1="50%" y1="0%" x2="50%" y2="100%" id="linearGradient-1">
            <stop stop-color="#BA104A" stop-opacity="0" offset="0%"></stop>
            <stop stop-color="#27B8F5" offset="100%"></stop>
        </linearGradient>
    </defs>
    <g id="For-Hospitals" stroke="none" stroke-width="1" fill="none" fill-rule="evenodd">
        <g transform="translate(-309.000000, -4522.000000)" id="Icon">
            <g transform="translate(309.600000, 4522.320000)">
                <path d="M43.56,76.32 C67.6175237,76.32 87.12,59.2351861 87.12,38.16 C87.12,25.7662261 65.685349,36.1396938 55.2361409,29.1689864 C47.9168302,24.2862458 53.4699138,0 43.56,0 C19.5024763,0 0,17.0848139 0,38.16 C0,59.2351861 19.5024763,76.32 43.56,76.32 Z" id="Oval" fill="url(#linearGradient-1)" opacity="0.25"></path>
                <g id="calendar-6" transform="translate(16.560000, 5.760000)" fill="#0A1B43" fill-rule="nonzero">
                    <path d="M50.625,3.375 L45.0000352,3.375 L45.0000352,0 L42.7500703,0 L42.7500703,3.375 L28.1250352,3.375 L28.1250352,0 L25.8750703,0 L25.8750703,3.375 L11.2500352,3.375 L11.2500352,0 L8.99996484,0 L8.99996484,3.375 L3.375,3.375 C1.51105078,3.375 0,4.88605078 0,6.75 L0,50.625 C0,52.4889492 1.51105078,54 3.375,54 L50.625,54 C52.4889492,54 54,52.4889492 54,50.625 L54,6.75 C54,4.88605078 52.4889492,3.375 50.625,3.375 Z M51.7500352,50.625 C51.7500352,51.2463164 51.2463164,51.7500352 50.625,51.7500352 L3.375,51.7500352 C2.75368359,51.7500352 2.24996484,51.2463164 2.24996484,50.625 L2.24996484,13.5 L51.7500352,13.5 L51.7500352,50.625 L51.7500352,50.625 Z M51.7500352,11.2500352 L2.24996484,11.2500352 L2.24996484,6.75 C2.24996484,6.12868359 2.75368359,5.62496484 3.375,5.62496484 L8.99996484,5.62496484 L8.99996484,7.87492969 L11.2499297,7.87492969 L11.2499297,5.62496484 L25.8749648,5.62496484 L25.8749648,7.87492969 L28.1249297,7.87492969 L28.1249297,5.62496484 L42.7499648,5.62496484 L42.7499648,7.87492969 L44.9999297,7.87492969 L44.9999297,5.62496484 L50.625,5.62496484 C51.2463164,5.62496484 51.7500352,6.12868359 51.7500352,6.75 L51.7500352,11.2500352 Z" id="Shape"></path>
                    <path d="M19.1249648,23.625 L19.1249648,19.1249648 L16.875,19.1249648 L16.875,22.4999648 L11.2500352,22.4999648 L11.2500352,24.7499297 L18.0000352,24.7499297 C18.6213516,24.7500352 19.1249648,24.2463164 19.1249648,23.625 Z" id="Path"></path>
                    <path d="M23.625,24.7500352 L30.375,24.7500352 C30.9963164,24.7500352 31.5000352,24.2463164 31.5000352,23.625 L31.5000352,19.1249648 C31.5000352,18.5036484 30.9963164,17.9999297 30.375,17.9999297 L23.625,17.9999297 C23.0036836,17.9999297 22.4999648,18.5036484 22.4999648,19.1249648 L22.4999648,23.625 C22.4999648,24.2463164 23.0036836,24.7500352 23.625,24.7500352 Z M24.7500352,20.25 L29.2500703,20.25 L29.2500703,22.4999648 L24.7500352,22.4999648 L24.7500352,20.25 Z" id="Shape"></path>
                    <path d="M35.9999648,24.7500352 L42.7499648,24.7500352 C43.3712813,24.7500352 43.875,24.2463164 43.875,23.625 L43.875,19.1249648 C43.875,18.5036484 43.3712812,17.9999297 42.7499648,17.9999297 L35.9999648,17.9999297 C35.3786484,17.9999297 34.8749297,18.5036484 34.8749297,19.1249648 L34.8749297,23.625 C34.8750352,24.2463164 35.3786484,24.7500352 35.9999648,24.7500352 Z M37.125,20.25 L41.6250352,20.25 L41.6250352,22.4999648 L37.125,22.4999648 L37.125,20.25 Z" id="Shape"></path>
                    <path d="M11.2500352,35.9999648 L18.0000352,35.9999648 C18.6213516,35.9999648 19.1250703,35.4962461 19.1250703,34.8749297 L19.1250703,30.375 C19.1250703,29.7536836 18.6213516,29.2499648 18.0000352,29.2499648 L11.2500352,29.2499648 C10.6287187,29.2499648 10.125,29.7536836 10.125,30.375 L10.125,34.8750352 C10.125,35.4963516 10.6287187,35.9999648 11.2500352,35.9999648 Z M12.3749648,31.5000352 L16.875,31.5000352 L16.875,33.75 L12.3749648,33.75 L12.3749648,31.5000352 Z" id="Shape"></path>
                    <path d="M23.625,35.9999648 L30.375,35.9999648 C30.9963164,35.9999648 31.5000352,35.4962461 31.5000352,34.8749297 L31.5000352,30.375 C31.5000352,29.7536836 30.9963164,29.2499648 30.375,29.2499648 L23.625,29.2499648 C23.0036836,29.2499648 22.4999648,29.7536836 22.4999648,30.375 L22.4999648,34.8750352 C22.4999648,35.4963516 23.0036836,35.9999648 23.625,35.9999648 Z M24.7500352,31.5000352 L29.2500703,31.5000352 L29.2500703,33.75 L24.7500352,33.75 L24.7500352,31.5000352 Z" id="Shape"></path>
                    <path d="M35.9999648,35.9999648 L42.7499648,35.9999648 C43.3712813,35.9999648 43.875,35.4962461 43.875,34.8749297 L43.875,30.375 C43.875,29.7536836 43.3712812,29.2499648 42.7499648,29.2499648 L35.9999648,29.2499648 C35.3786484,29.2499648 34.8749297,29.7536836 34.8749297,30.375 L34.8749297,34.8750352 C34.8750352,35.4963516 35.3786484,35.9999648 35.9999648,35.9999648 Z M37.125,31.5000352 L41.6250352,31.5000352 L41.6250352,33.75 L37.125,33.75 L37.125,31.5000352 Z" id="Shape"></path>
                    <path d="M11.2500352,47.25 L18.0000352,47.25 C18.6213516,47.25 19.1250703,46.7462812 19.1250703,46.1249648 L19.1250703,41.6249297 C19.1250703,41.0036133 18.6213516,40.4998945 18.0000352,40.4998945 L11.2500352,40.4998945 C10.6287187,40.5 10.125,41.0037187 10.125,41.6250352 L10.125,46.1250703 C10.125,46.7462812 10.6287187,47.25 11.2500352,47.25 Z M12.3749648,42.7499648 L16.875,42.7499648 L16.875,44.9999297 L12.3749648,44.9999297 L12.3749648,42.7499648 Z" id="Shape"></path>
                    <path d="M23.625,47.25 L30.375,47.25 C30.9963164,47.25 31.5000352,46.7462812 31.5000352,46.1249648 L31.5000352,41.6249297 C31.5000352,41.0036133 30.9963164,40.4998945 30.375,40.4998945 L23.625,40.4998945 C23.0036836,40.4998945 22.4999648,41.0036133 22.4999648,41.6249297 L22.4999648,46.1249648 C22.4999648,46.7462812 23.0036836,47.25 23.625,47.25 Z M24.7500352,42.7499648 L29.2500703,42.7499648 L29.2500703,44.9999297 L24.7500352,44.9999297 L24.7500352,42.7499648 Z" id="Shape"></path>
                    <path d="M37.125,42.7499648 L42.7499648,42.7499648 L42.7499648,40.5 L35.9999648,40.5 C35.3786484,40.5 34.8749297,41.0037188 34.8749297,41.6250352 L34.8749297,46.1250703 L37.125,46.1250703 L37.125,42.7499648 Z" id="Path"></path>
                    <rect id="Rectangle" x="11.2500352" y="19.1249648" width="2.24996484" height="2.24996484"></rect>
                    <rect id="Rectangle" x="40.5" y="43.875" width="2.24996484" height="2.24996484"></rect>
                </g>
            </g>
        </g>
    </g>
</svg>