<?xml version="1.0" encoding="UTF-8"?>
<svg width="88px" height="76px" viewBox="0 0 88 76" version="1.1" xmlns="http://www.w3.org/2000/svg" xmlns:xlink="http://www.w3.org/1999/xlink">
    <!-- Generator: Sketch 57.1 (83088) - https://sketch.com -->
    <title>Icon</title>
    <desc>Created with Sketch.</desc>
    <defs>
        <linearGradient x1="50%" y1="0%" x2="50%" y2="100%" id="linearGradient-1">
            <stop stop-color="#BA104A" stop-opacity="0" offset="0%"></stop>
            <stop stop-color="#27B8F5" offset="100%"></stop>
        </linearGradient>
    </defs>
    <g id="For-Hospitals" stroke="none" stroke-width="1" fill="none" fill-rule="evenodd">
        <g transform="translate(-741.000000, -4826.000000)" id="Icon">
            <g transform="translate(741.600000, 4825.440000)">
                <path d="M43.56,76.32 C67.6175237,76.32 87.12,59.2351861 87.12,38.16 C87.12,25.7662261 65.685349,36.1396938 55.2361409,29.1689864 C47.9168302,24.2862458 53.4699138,0 43.56,0 C19.5024763,0 0,17.0848139 0,38.16 C0,59.2351861 19.5024763,76.32 43.56,76.32 Z" id="Oval" fill="url(#linearGradient-1)" opacity="0.25"></path>
                <g id="computer-5" transform="translate(16.560000, 11.520000)" fill="#0A1B43" fill-rule="nonzero">
                    <path d="M49.4999648,0 L4.50003516,0 C2.01476953,0 0,2.01476953 0,4.50003516 L0,38.2500352 C0,40.7353008 2.01476953,42.7500703 4.50003516,42.7500703 L23.625,42.7500703 L23.625,40.5 L4.50003516,40.5 C3.25740234,40.5 2.25007031,39.492668 2.25007031,38.2500352 L2.25007031,4.50003516 C2.25007031,3.25740234 3.25740234,2.25007031 4.50003516,2.25007031 L49.5000703,2.25007031 C50.7427031,2.25007031 51.7500352,3.25740234 51.7500352,4.50003516 L51.7500352,7.87503516 L54,7.87503516 L54,4.50003516 C54,2.01476953 51.9853359,0 49.4999648,0 Z" id="Path"></path>
                    <path d="M11.2500352,49.4999648 L23.625,49.4999648 L23.625,47.25 L11.2500352,47.25 C9.38608594,47.25 7.87503516,48.7610508 7.87503516,50.625 C7.87503516,52.4889492 9.38608594,54 11.2500352,54 L23.625,54 L23.625,51.7500352 L11.2500352,51.7500352 C10.6287187,51.7500352 10.125,51.2463164 10.125,50.625 C10.125,50.0036836 10.6287187,49.4999648 11.2500352,49.4999648 Z" id="Path"></path>
                    <path d="M21.3750352,47.25 L21.3750352,41.6250352 L19.1250703,41.6250352 L19.1250703,48.3750352 C19.1250703,48.9963516 19.6287891,49.5000703 20.2501055,49.5000703 L23.6251055,49.5000703 L23.6251055,47.25 L21.3750352,47.25 Z" id="Path"></path>
                    <path d="M47.25,33.7499999 L0,33.7499999 L0,35.9999648 L44.9089102,35.9999648 L41.8714102,39.7968398 L43.628625,41.2030547 L48.1286602,35.5780898 C48.2885508,35.3784375 48.3754571,35.1302695 48.3754571,34.8745078 C48.3754571,34.2532969 47.8713164,33.7497891 47.25,33.7499999 Z" id="Path"></path>
                    <rect id="Rectangle" x="19.1249648" y="37.125" width="4.50003516" height="2.24996484"></rect>
                    <path d="M48.3750352,8.99996484 L9.09108984,8.99996484 L12.1285898,5.20308984 L10.371375,3.796875 L5.87133984,9.42183984 C5.71144922,9.62149219 5.62454287,9.86966016 5.62454287,10.1254219 C5.62454287,10.7467383 6.12868359,11.2502461 6.75,11.2500352 L48.3750352,11.2500352 C50.2389844,11.2500352 51.7500352,12.7610859 51.7500352,14.6250352 L51.7500352,48.3750352 C51.7500352,50.2389844 50.2389844,51.7500352 48.3750352,51.7500352 L30.375,51.7500352 C28.5110508,51.7500352 27,50.2389844 27,48.3750352 L27,34.8750352 L24.7500352,34.8750352 L24.7500352,48.3750352 C24.7537266,51.4800352 27.2698945,53.9963086 30.375,54 L48.3750352,54 C51.4801406,53.9963086 53.9963086,51.4800352 54,48.3750352 L54,14.6250352 C53.9963086,11.5199297 51.4800352,9.00376172 48.3750352,8.99996484 Z" id="Path"></path>
                    <rect id="Rectangle" x="24.7500352" y="13.5" width="2.24996484" height="18.0000352"></rect>
                    <path d="M19.1249648,15.7499648 L19.1249648,13.5 L6.75,13.5 C6.12868359,13.5 5.62496484,14.0037188 5.62496484,14.6250352 L5.62496484,20.25 C5.62496484,20.8713164 6.12868359,21.3750352 6.75,21.3750352 L19.1249648,21.3750352 L19.1249648,19.1250703 L7.87503516,19.1250703 L7.87503516,15.7500703 L19.1249648,15.7500703 L19.1249648,15.7499648 Z" id="Path"></path>
                    <rect id="Rectangle" x="5.62496484" y="23.625" width="7.87503516" height="2.24996484"></rect>
                    <rect id="Rectangle" x="15.7499648" y="23.625" width="3.375" height="2.24996484"></rect>
                    <rect id="Rectangle" x="11.2500352" y="28.1250352" width="7.87503516" height="2.24996484"></rect>
                    <rect id="Rectangle" x="5.62496484" y="28.1250352" width="3.375" height="2.24996484"></rect>
                    <rect id="Rectangle" x="25.8749648" y="15.7499648" width="28.1250352" height="2.24996484"></rect>
                    <rect id="Rectangle" x="33.75" y="12.3749648" width="10.125" height="2.24996484"></rect>
                    <rect id="Rectangle" x="35.9999648" y="20.25" width="6.75" height="2.24996484"></rect>
                    <rect id="Rectangle" x="31.5000352" y="23.625" width="6.75" height="2.24996484"></rect>
                    <rect id="Rectangle" x="40.5" y="23.625" width="6.75" height="2.24996484"></rect>
                    <rect id="Rectangle" x="31.5000352" y="28.1250352" width="15.7499648" height="2.24996484"></rect>
                    <path d="M45.0000352,43.8749999 C44.573625,43.8747891 44.1838125,44.1156797 43.993125,44.4971602 L43.17975,46.1250703 L35.5702852,46.1250703 L34.7569102,44.4971602 C34.5663281,44.1156797 34.1764102,43.8747891 33.75,43.8749999 L25.8749648,43.8749999 L25.8749648,46.1249648 L33.05475,46.1249648 L33.868125,47.752875 C34.058707,48.1343555 34.448625,48.3752461 34.8750352,48.3750517 L43.875,48.3750517 C44.3034141,48.3773555 44.6959687,48.1361484 44.8875,47.752875 L45.6952852,46.1249648 L52.8750703,46.1249648 L52.8750703,43.8749999 L45.0000352,43.8749999 Z" id="Path"></path>
                </g>
            </g>
        </g>
    </g>
</svg>