<?xml version="1.0" encoding="UTF-8"?>
<svg width="121px" height="106px" viewBox="0 0 121 106" version="1.1" xmlns="http://www.w3.org/2000/svg" xmlns:xlink="http://www.w3.org/1999/xlink">
    <!-- Generator: Sketch 57.1 (83088) - https://sketch.com -->
    <title>Icon</title>
    <desc>Created with Sketch.</desc>
    <defs>
        <linearGradient x1="50%" y1="0%" x2="50%" y2="100%" id="linearGradient-1">
            <stop stop-color="#BA104A" stop-opacity="0" offset="0%"></stop>
            <stop stop-color="#27B8F5" offset="100%"></stop>
        </linearGradient>
    </defs>
    <g id="Home" stroke="none" stroke-width="1" fill="none" fill-rule="evenodd">
        <g transform="translate(-640.000000, -2442.000000)" id="Main-Benefits">
            <g transform="translate(150.000000, 1840.000000)">
                <g id="Improved-Reporting-&amp;-Tracking" transform="translate(330.000000, 602.000000)">
                    <g id="Icon" transform="translate(160.000000, 0.000000)">
                        <g id="Group-36">
                            <path d="M60.5,106 C93.9132274,106 121,82.2710917 121,53 C121,35.7864251 91.2296514,50.1940192 76.7168623,40.5124811 C66.551153,33.7308969 74.2637692,0 60.5,0 C27.0867726,0 0,23.7289083 0,53 C0,82.2710917 27.0867726,106 60.5,106 Z" id="Oval" fill="url(#linearGradient-1)" opacity="0.25"></path>
                            <g id="medical-report" transform="translate(30.000000, 8.000000)" fill="#0A1B43" fill-rule="nonzero">
                                <path d="M46.7458658,12.6065661 L43.6330739,12.6065661 L43.6330739,7.93730545 C43.6330739,7.07772374 42.9361868,6.38083658 42.0766051,6.38083658 L37.2516537,6.38083658 C36.6297665,3.31838521 34.2363327,0.924805447 31.1737354,0.302918288 C26.9617704,-0.552431907 22.8539883,2.16872568 21.9986381,6.38083658 L17.1736868,6.38083658 C16.3141051,6.38083658 15.6172179,7.07772374 15.6172179,7.93730545 L15.6172179,12.6065661 L12.5044261,12.6065661 C11.6448444,12.6065661 10.9479572,13.3034533 10.9479572,14.163035 L10.9479572,20.3887646 C10.9479572,21.2483463 11.6448444,21.9452335 12.5044261,21.9452335 L46.7457198,21.9452335 C47.6053016,21.9452335 48.3021887,21.2483463 48.3021887,20.3887646 L48.3021887,14.163035 C48.3021887,13.3034533 47.6054475,12.6065661 46.7458658,12.6065661 Z M45.1895428,18.8322957 L14.0610409,18.8322957 L14.0610409,15.7195039 L17.1738327,15.7195039 C18.0334144,15.7195039 18.7303016,15.0226167 18.7303016,14.163035 L18.7303016,9.49377432 L23.3995623,9.49377432 C24.259144,9.49377432 24.9560311,8.79688716 24.9560311,7.93730545 C24.9560311,5.35856031 27.0465467,3.26804475 29.6252918,3.26804475 C32.204037,3.26804475 34.2945525,5.35856031 34.2945525,7.93730545 C34.2945525,8.79688716 34.9914397,9.49377432 35.8510214,9.49377432 L40.5202821,9.49377432 L40.5202821,14.163035 C40.5202821,15.0226167 41.2171693,15.7195039 42.076751,15.7195039 L45.1895428,15.7195039 L45.1895428,18.8322957 L45.1895428,18.8322957 Z" id="Shape"></path>
                                <rect id="Rectangle" x="17.1739786" y="12.6065661" width="18.6770428" height="3.11279183"></rect>
                                <rect id="Rectangle" x="28.068823" y="6.38098249" width="3.11279183" height="3.11279183"></rect>
                                <path d="M56.0843872,9.49377432 L49.8586576,9.49377432 L49.8586576,12.6065661 L56.0843872,12.6065661 L56.0843872,71.7504864 L3.1661965,71.7504864 L3.1661965,12.6065661 L9.39192607,12.6065661 L9.39192607,9.49377432 L3.1661965,9.49377432 C1.44703307,9.49377432 0.0534046693,10.8874027 0.0534046693,12.6065661 L0.0534046693,71.7504864 C0.0534046693,73.4696498 1.44703307,74.8632782 3.1661965,74.8632782 L56.0845331,74.8632782 C57.8036965,74.8632782 59.1973249,73.4696498 59.1973249,71.7504864 L59.1973249,12.6065661 C59.1973249,10.8874027 57.8035506,9.49377432 56.0843872,9.49377432 Z" id="Path"></path>
                                <path d="M49.8588035,54.6299125 L49.8588035,65.5249027 L9.39178016,65.5249027 L9.39178016,54.6299125 L6.27898833,54.6299125 L6.27898833,67.0812257 C6.27898833,67.9408074 6.97587549,68.6376946 7.8354572,68.6376946 L51.4152724,68.6376946 C52.2748541,68.6376946 52.9717412,67.9408074 52.9717412,67.0812257 L52.9717412,54.6299125 L49.8588035,54.6299125 L49.8588035,54.6299125 Z" id="Path"></path>
                                <path d="M37.4073444,46.8478599 C36.9945525,46.8480058 36.5988327,47.0120136 36.3070039,47.3038424 L31.1817607,52.4290856 L21.3872568,42.6345817 C20.7795233,42.0269942 19.7943093,42.0269942 19.18643,42.6345817 L13.4168288,48.4041829 L7.8354572,48.4041829 L7.8354572,51.5169747 L14.0611868,51.5169747 C14.4739786,51.5168288 14.8696984,51.352821 15.1615272,51.0609922 L20.2867704,45.935749 L30.0812743,55.7302529 C30.3731031,56.0222276 30.7689689,56.1862354 31.1816148,56.1862354 C31.5944066,56.1860895 31.9901265,56.0220817 32.2819553,55.7302529 L38.0515564,49.9606518 L43.632928,49.9606518 L43.632928,46.8478599 L37.4073444,46.8478599 L37.4073444,46.8478599 Z" id="Path"></path>
                                <path d="M46.7458658,43.7350681 C44.1671206,43.7350681 42.0766051,45.8255837 42.0766051,48.4043288 C42.0766051,50.9830739 44.1671206,53.0735895 46.7458658,53.0735895 C49.3246109,53.0735895 51.4151265,50.9830739 51.4151265,48.4043288 C51.4151265,45.8254377 49.3246109,43.7350681 46.7458658,43.7350681 Z M46.7458658,49.9606518 C45.886284,49.9606518 45.1893969,49.2637646 45.1893969,48.4041829 C45.1893969,47.5446012 45.886284,46.847714 46.7458658,46.847714 C47.6054475,46.847714 48.3023346,47.5446012 48.3023346,48.4041829 C48.3023346,49.2639105 47.6054475,49.9606518 46.7458658,49.9606518 Z" id="Shape"></path>
                                <rect id="Rectangle" x="6.27898833" y="25.0580253" width="3.11279183" height="20.2335117"></rect>
                                <rect id="Rectangle" x="49.8588035" y="25.0580253" width="3.11279183" height="15.564251"></rect>
                                <rect id="Rectangle" x="34.2945525" y="29.727286" width="3.11279183" height="3.11279183"></rect>
                                <rect id="Rectangle" x="40.5202821" y="29.727286" width="3.11279183" height="3.11279183"></rect>
                                <rect id="Rectangle" x="34.2945525" y="35.9528696" width="12.4513132" height="3.11279183"></rect>
                                <path d="M26.5125,29.727286 C25.6529183,29.727286 24.9560311,30.4241732 24.9560311,31.2837549 L24.9560311,42.1787451 L28.068823,42.1787451 L28.068823,32.8402237 L31.1816148,32.8402237 L31.1816148,29.7274319 L26.5125,29.7274319 L26.5125,29.727286 Z" id="Path"></path>
                            </g>
                        </g>
                    </g>
                </g>
            </g>
        </g>
    </g>
</svg>