<?xml version="1.0" encoding="UTF-8"?>
<svg width="191px" height="194px" viewBox="0 0 191 194" version="1.1" xmlns="http://www.w3.org/2000/svg" xmlns:xlink="http://www.w3.org/1999/xlink">
    <!-- Generator: Sketch 57.1 (83088) - https://sketch.com -->
    <title>Illustration</title>
    <desc>Created with Sketch.</desc>
    <defs>
        <polygon id="path-1" points="0.379569103 0.334445554 14.2081105 0.334445554 14.2081105 15.4095144 0.379569103 15.4095144"></polygon>
        <polygon id="path-3" points="0.0350677059 0.18690837 16.1818909 0.18690837 16.1818909 16.3347425 0.0350677059 16.3347425"></polygon>
        <polygon id="path-5" points="0.571359107 0.18690837 16.7183019 0.18690837 16.7183019 16.3347425 0.571359107 16.3347425"></polygon>
    </defs>
    <g id="Solutions" stroke="none" stroke-width="1" fill="none" fill-rule="evenodd">
        <g transform="translate(-625.000000, -978.000000)" id="Illustration">
            <g transform="translate(625.680000, 977.760000)">
                <g id="Group-191" transform="translate(0.121152, 0.000000)">
                    <path d="M183.53215,187.899687 C180.018266,186.04404 179.414758,182.244759 179.414758,182.244759 C179.414758,182.244759 179.19366,181.038871 178.803354,178.896699 C176.212217,179.563378 173.527452,180.125149 170.781772,180.591034 C171.169822,181.146036 171.560128,181.698782 171.954947,182.244759 C172.627266,184.406108 172.908151,185.852271 171.690982,187.648131 C172.094825,187.958345 172.459186,188.358804 172.745712,188.8653 C173.601903,190.375762 182.727848,190.370122 184.282305,189.869266 C185.190387,189.575973 184.371421,188.634049 183.53215,187.899687" id="Fill-1" fill="#F39B9B"></path>
                    <path d="M172.746276,188.865751 C173.602467,190.376213 182.728412,190.370573 184.282869,189.868589 C185.189823,189.576424 184.371985,188.633372 183.532714,187.900138 C186.350589,189.347429 189.830631,191.213228 189.950205,192.176585 C190.150998,193.780676 173.548321,193.731041 170.790233,192.176585 C169.346325,191.363259 170.355932,189.617034 171.690418,187.647454 C172.095389,187.958797 172.458622,188.359255 172.746276,188.865751" id="Fill-3" fill="#0E244C"></path>
                    <path d="M120.562792,187.899687 C124.075547,186.04404 124.680183,182.244759 124.680183,182.244759 C124.680183,182.244759 124.901282,181.038871 125.291588,178.896699 C127.882724,179.563378 130.567489,180.125149 133.312041,180.591034 C132.923991,181.146036 132.534813,181.698782 132.139995,182.244759 C131.467675,184.406108 131.18679,185.852271 132.403959,187.648131 C132.000116,187.958345 131.635755,188.358804 131.34923,188.8653 C130.49191,190.375762 121.367093,190.370122 119.812637,189.869266 C118.904554,189.575973 119.72352,188.634049 120.562792,187.899687" id="Fill-5" fill="#F39B9B"></path>
                    <path d="M131.348779,188.865751 C130.491459,190.376213 121.366642,190.370573 119.812185,189.868589 C118.905231,189.576424 119.723069,188.633372 120.56234,187.900138 C117.743337,189.347429 114.264423,191.213228 114.143721,192.176585 C113.942928,193.780676 130.546733,193.731041 133.304822,192.176585 C134.747601,191.363259 133.739122,189.617034 132.404636,187.647454 C131.999665,187.958797 131.636432,188.359255 131.348779,188.865751" id="Fill-7" fill="#0E244C"></path>
                    <path d="M132.349023,22.8140506 C132.349023,22.8140506 107.269031,40.0924311 98.6958318,54.0430566 C95.3985343,59.4080744 91.9534619,74.5578198 96.6145749,77.3948719 C101.275688,80.2307959 108.251565,63.7510766 112.023772,59.1159088 C115.562473,54.7683944 129.525507,45.1021123 129.525507,45.1021123 L132.349023,22.8140506 Z" id="Fill-9" fill="#C87171"></path>
                    <path d="M129.52562,45.1018867 L132.349136,22.813825 C132.349136,22.813825 116.577833,33.6803549 105.773346,45.1346003 C106.139963,48.7297036 107.581614,55.417927 113.193676,57.8454961 C117.928112,53.1324926 129.52562,45.1018867 129.52562,45.1018867" id="Fill-11" fill="#930C3A"></path>
                    <path d="M162.532098,79.0756701 C162.052676,67.6857238 158.04809,61.203934 154.161949,56.4762659 C149.619281,56.6150164 144.277953,56.5619979 138.930984,56.0227888 C132.620658,55.3876952 126.300179,54.0768982 121.262297,51.6042071 C119.648054,56.6105042 117.809328,62.7256769 115.594961,70.417867 C107.460574,98.6620461 122.868644,172.681468 124.670144,181.112533 C126.676949,181.307686 127.474482,185.07651 141.42398,185.07651 C141.637182,166.0598 135.518625,95.9456956 138.436897,78.3514604 C138.439153,78.3401799 138.451561,78.3322835 138.459458,78.3232591 C138.459458,78.3232591 139.9812,145.528116 166.851412,183.967634 C175.503574,183.967634 177.589343,179.496034 179.9199,178.89591 C176.936201,162.528996 162.764477,84.6110239 162.532098,79.0756701" id="Fill-13" fill="#D8E7EB"></path>
                    <path d="M118.404827,146.958148 C121.088464,164.042504 123.953717,177.760751 124.670031,181.112195 C126.676836,181.308476 127.474369,185.076171 141.423867,185.076171 C141.635941,166.076383 135.529792,96.0671869 138.430015,78.3985002 C137.889678,79.7307302 129.856816,99.7265893 127.298393,116.61692 C124.999422,131.790354 129.341296,143.63265 118.404827,146.958148" id="Fill-15" fill="#C1D6DB"></path>
                    <path d="M179.920013,178.896135 C176.935186,162.528093 162.76459,84.6112495 162.532211,79.0758958 C162.052789,67.6859494 158.048202,61.2041596 154.162062,56.4764915 C149.674669,56.6129859 144.411176,56.5610955 139.130762,56.0410633 C143.014646,71.3430957 149.458082,96.2922334 154.570417,113.967688 C160.198271,133.419826 162.97328,160.067811 161.965929,176.196706 C163.493312,178.889367 165.118836,181.489528 166.851524,183.96786 C175.503687,183.96786 177.589456,179.496259 179.920013,178.896135" id="Fill-17" fill="#C1D6DB"></path>
                    <path d="M125.290911,34.0240725 C125.290911,34.0240725 116.868871,46.6909743 115.379841,55.8372242 C118.483114,53.147947 122.686238,50.0074487 125.704906,47.8190268 L125.290911,34.0240725 Z" id="Fill-19" fill="#0E244C"></path>
                    <path d="M147.365094,7.30107232 C147.365094,7.30107232 151.696816,10.9424259 155.572804,12.7969442 C160.12224,14.9729575 163.672221,19.5923326 156.977229,26.216257 C154.308257,28.8547719 144.565267,22.6843246 145.581643,16.44281 C146.598018,10.2024234 147.365094,7.30107232 147.365094,7.30107232" id="Fill-21" fill="#091A40"></path>
                    <g id="Group-25" transform="translate(138.571044, 0.207562)">
                        <mask id="mask-2" fill="white">
                            <use xlink:href="#path-1"></use>
                        </mask>
                        <g id="Clip-24"></g>
                        <path d="M0.525312041,6.31244709 C-0.743747047,11.2567013 6.64612503,15.0131162 8.31789886,15.3786052 C9.99080075,15.7429662 13.1820613,12.860792 14.0574301,8.06544071 C14.9339269,3.26896138 11.8487033,0.308951567 8.37655759,1.33322326 C8.37655759,1.33322326 2.90888702,-2.97819348 0.525312041,6.31244709" id="Fill-23" fill="#091A40" mask="url(#mask-2)"></path>
                    </g>
                    <path d="M137.00991,71.2987633 C137.00991,71.2987633 151.101542,74.7054819 162.127128,74.5825241 C161.288985,68.5282663 159.369039,64.0803552 157.14452,60.5664716 L137.00991,71.2987633 Z" id="Fill-26" fill="#311E69"></path>
                    <path d="M163.11061,81.2578878 L141.762216,95.052842 C141.762216,95.052842 155.928299,98.1245291 164.95836,92.9117984 C164.093144,87.7520861 163.443385,83.6832007 163.11061,81.2578878" id="Fill-28" fill="#0E244C"></path>
                    <path d="M163.768106,82.8486674 C163.239049,78.285695 154.452648,47.4819647 155.166705,31.9306327 C155.400212,26.8340914 155.545731,23.4138361 149.077478,20.4560824 C143.895204,18.0883002 133.87133,19.1058035 129.304973,26.117778 C122.609981,36.3988487 115.257335,63.015248 112.40449,90.0287217 C111.840464,95.3677943 165.83921,100.729428 163.768106,82.8486674" id="Fill-30" fill="#BA104A"></path>
                    <path d="M146.853973,12.684139 L146.947626,20.3515119 C146.957754,21.6149308 143.848841,24.8569537 141.856701,23.2585033 C141.274625,22.7903615 142.040573,21.0554167 142.591063,19.7457477 L144.094757,13.1601771 L146.853973,12.684139 Z" id="Fill-32" fill="#F39B9B"></path>
                    <path d="M143.201001,17.0713608 C144.846829,16.5671213 146.499426,14.1000705 146.499426,14.1000705 L143.880088,14.1000705 L143.201001,17.0713608 Z" id="Fill-34" fill="#311E69"></path>
                    <path d="M146.852845,7.77203425 L147.313091,10.7151233 C147.677452,13.0490639 146.185038,15.3626997 143.860122,15.7755669 C141.713438,16.1568486 139.640077,14.919375 139.323095,12.2075368 C139.041081,9.79576047 140.754593,7.71563162 141.373894,6.62480483 C142.786216,4.13970513 146.076745,4.42623047 146.852845,7.77203425" id="Fill-36" fill="#F39B9B"></path>
                    <path d="M140.584709,9.69434855 C140.547483,9.43602452 140.549739,9.17431634 140.56666,8.91260815 C140.601629,8.41626504 140.536202,7.67062233 139.774767,7.98196482 C138.668147,8.43656999 138.633178,11.0920056 139.846962,11.3774029 C140.748276,11.5883487 140.679465,10.347491 140.584709,9.69434855" id="Fill-38" fill="#F39B9B"></path>
                    <path d="M144.004061,11.9124382 C144.004061,11.9124382 142.791405,12.0105788 141.177162,11.5390528 C141.177162,11.5390528 141.39262,12.7832948 141.982591,13.2627171 C142.572563,13.7410114 143.406194,13.1307349 144.004061,11.9124382" id="Fill-40" fill="#FFFFFF"></path>
                    <path d="M143.599767,14.8173991 C142.71763,14.8444723 141.149637,14.4947761 140.504391,13.9578231 C139.932469,13.4806568 139.423717,12.3300433 139.314296,12.0751034 C139.318808,12.1190974 139.31768,12.1630915 139.32332,12.2082136 C139.640303,14.9200519 141.713664,16.1563974 143.859219,15.7762437 C145.294102,15.5213039 146.40749,14.5432823 146.968132,13.2855038 C145.767884,14.4146843 144.393916,14.79371 143.599767,14.8173991" id="Fill-42" fill="#C87171"></path>
                    <path d="M141.177387,5.18766592 C141.177387,5.18766592 142.199403,7.39639276 143.329712,8.34282882 C144.46002,9.28926489 145.985147,11.0772281 145.985147,11.0772281 C145.985147,11.0772281 147.062437,10.3406098 147.469664,9.39417378 C147.878019,8.44773771 148.877474,4.34613874 145.985147,2.92592061 C143.092821,1.50570249 140.501684,3.9265032 141.177387,5.18766592" id="Fill-44" fill="#091A40"></path>
                    <path d="M146.769144,10.6004003 C146.865028,10.356741 146.922559,10.1018011 146.965425,9.84347709 C147.045517,9.35164619 147.277895,8.64097311 147.949087,9.11813932 C148.922596,9.81301968 148.350673,12.4064124 147.105303,12.4075405 C146.179172,12.4075405 146.52774,11.2140609 146.769144,10.6004003" id="Fill-46" fill="#F39B9B"></path>
                    <path d="M163.768106,82.8486674 C163.239049,78.285695 154.452648,47.4819647 155.166705,31.9306327 C155.400212,26.8340914 155.546859,23.4138361 149.077478,20.4560824 C148.250615,20.0793129 147.299667,19.7882753 146.268627,19.5931222 C146.444603,21.3889819 146.490853,23.9767343 145.864784,26.8419877 C144.69725,32.1979811 145.864784,40.3301118 141.429281,47.8542221 C137.862379,53.9050958 144.368986,81.1069543 145.695576,94.7191641 C156.056739,93.5944957 164.616401,90.1719844 163.768106,82.8486674" id="Fill-48" fill="#930C3A"></path>
                    <path d="M163.471766,81.1780216 C163.192009,79.8187183 162.7453,77.899901 162.200451,75.5783689 L144.849875,81.3743028 C144.849875,81.3743028 156.212748,82.8633321 163.471766,81.1780216" id="Fill-50" fill="#0E244C"></path>
                    <path d="M155.163434,35.7772918 L148.441369,28.2024191 C148.441369,28.2024191 147.756641,37.6194015 152.099643,46.0843077 C154.408767,50.5841092 156.361426,53.3692709 157.683503,54.9914104 C156.400907,48.2569368 155.368739,41.4051458 155.163434,35.7772918" id="Fill-52" fill="#0E244C"></path>
                    <path d="M73.5966632,38.2217816 C73.5966632,38.2217816 74.2170921,35.6407974 76.5814902,35.9025056 C78.9447602,36.1642138 81.1117491,38.3345868 80.4281493,40.0526108 C79.7445494,41.7695068 77.3045718,43.7142693 75.6271577,41.7920678 C73.9486156,39.8698663 73.5966632,38.2217816 73.5966632,38.2217816" id="Fill-54" fill="#B5B5B5"></path>
                    <path d="M66.4074717,44.8600323 C66.4074717,44.8600323 61.4823943,41.761272 64.138958,38.2067785 C67.8491228,33.2433474 71.4509945,35.2659456 74.9614939,37.3731477 C80.7032813,40.8193481 80.6615433,49.450078 75.7330819,49.8471525 C70.8034923,50.244227 66.4074717,44.8600323 66.4074717,44.8600323" id="Fill-56" fill="#D3D3D3"></path>
                    <path d="M68.5821313,46.9944204 C70.3294847,48.4484801 72.9454385,50.0717477 75.7328562,49.8472653 C80.6624458,49.4501908 80.7030557,40.8194609 74.9612683,37.3732605 C73.9042831,36.7381669 72.8371454,36.1132258 71.7632394,35.6823098 L71.7621114,35.6823098 C71.7621114,35.6823098 75.4734042,37.9248782 75.3030682,40.7664425 C75.1936471,42.5803509 71.4146712,45.2809087 68.5821313,46.9944204" id="Fill-58" fill="#B5B5B5"></path>
                    <path d="M76.5402034,95.6273592 C75.7641033,79.0540115 75.7077007,61.1867876 62.957323,60.2414796 C56.105532,59.734984 54.8556498,88.6120006 54.8556498,88.6120006 C54.8556498,88.6120006 51.1172837,90.06042 47.5323328,91.4389002 C27.1642165,99.2698408 26.0598531,107.068068 34.4198503,105.054494 C42.7809756,103.042048 77.3151755,112.199579 76.5402034,95.6273592" id="Fill-60" fill="#C87171"></path>
                    <path d="M6.10189663,182.746291 C5.84244455,182.746291 5.57735221,182.689889 5.32692455,182.569187 C4.43801916,182.140527 4.06463377,181.07339 4.49329373,180.184484 L24.5421712,138.588675 C24.9708312,137.700898 26.0379689,137.327513 26.9268742,137.756173 C27.8146516,138.184833 28.188037,139.25197 27.759377,140.139748 L7.71162758,181.735556 C7.40366924,182.374034 6.76631956,182.746291 6.10189663,182.746291" id="Fill-62" fill="#2550A0"></path>
                    <path d="M75.9893754,114.257823 C75.9893754,114.257823 75.7513563,130.726262 59.7894131,130.033638 C43.8263419,129.341014 33.7517048,126.479144 30.2502298,127.616221 C26.7498828,128.753298 25.7357636,161.848103 25.0724687,170.827401 C24.4103019,179.805571 21.2630353,174.0604 17.1682047,174.051375 C13.0745021,174.043479 -2.78027613,128.302077 2.67047366,112.851142 C8.12122345,97.4013346 28.4746751,94.1908971 46.6994917,97.2952977 C67.1499558,100.778724 76.5748347,111.268484 75.9893754,114.257823" id="Fill-64" fill="#C87171"></path>
                    <g id="Group-68" transform="translate(0.000000, 94.641662)" fill="#153572">
                        <path d="M75.6267844,18.1657974 C75.6267844,18.1657974 75.3887653,34.6342362 59.4268221,33.9416119 C43.4637509,33.2489877 33.3891138,30.3871184 29.8876388,31.5241953 C26.3872918,32.6612723 31.1059355,56.1337892 30.4426406,65.1119592 C29.7793457,74.0901292 10.4298608,68.2298964 6.33503016,68.2208719 C2.2401995,68.2129756 -3.14286713,32.2100513 2.30788266,16.7591159 C7.75863244,1.30930854 28.1120841,-1.90112893 46.3369006,1.20327161 C66.7873648,4.68669779 76.2122436,15.1764582 75.6267844,18.1657974" id="Fill-66"></path>
                    </g>
                    <path d="M5.59404738,181.637529 C5.59404738,181.637529 13.6517265,186.03919 29.7230908,182.746404 L31.1951994,177.911571 C31.1951994,177.911571 16.1921008,181.041917 8.45140442,176.397725 L5.59404738,181.637529 Z" id="Fill-69" fill="#0E244C"></path>
                    <path d="M14.1998473,170.412052 C14.1998473,170.412052 16.7402215,173.075384 15.3042107,174.946824 C14.6781415,175.762405 13.0165202,176.263261 10.7231894,176.987471 C9.60077714,177.796284 8.48062098,178.863422 9.57483193,179.323667 C11.4519113,180.112176 22.7865831,181.127423 24.0161603,179.366533 C24.4278995,178.776562 24.9242426,178.324213 25.4600675,177.986925 C24.1447583,175.645088 25.0787858,172.843006 25.0731455,170.827176 L14.1998473,170.412052 Z" id="Fill-71" fill="#C87171"></path>
                    <path d="M24.0162731,179.366533 C22.8645315,181.016874 16.5970717,172.557608 11.6844029,176.109846 C10.8236989,176.733659 9.92576907,177.304453 8.94210727,177.71168 C5.73956616,179.03827 2.49754321,180.546476 2.28208518,181.532394 C1.85680938,183.481669 22.487762,185.256096 26.0839934,183.650877 C27.965585,182.811606 26.9029595,180.553245 25.4601804,177.986925 C24.9243554,178.324213 24.4280123,178.776562 24.0162731,179.366533" id="Fill-73" fill="#0E244C"></path>
                    <path d="M35.327707,177.990648 L35.4077987,177.644336 L33.3152613,177.226956 C33.1607181,177.190858 33.0039188,177.160401 32.8471195,177.133328 L32.7839485,177.120919 L32.7828205,177.122047 C32.2007454,177.028419 31.5994934,176.994577 30.9858328,177.031803 C26.5356656,177.308176 23.1515081,181.14017 23.4267529,185.590337 C23.6489792,189.16852 26.1701766,192.055206 29.4629619,192.906886 L29.4629619,192.908014 L29.4810108,192.912526 C29.7686642,192.984722 30.0608298,193.044509 30.3586356,193.086246 L31.7405,193.361491 L31.7878782,193.155058 C31.8544333,193.152802 31.9198603,193.152802 31.9841593,193.148289 C36.4343265,192.871917 39.8184841,189.04105 39.5432393,184.590883 C39.365007,181.707581 37.6932331,179.273243 35.327707,177.990648" id="Fill-75" fill="#2550A0"></path>
                    <g id="Group-79" transform="translate(25.765792, 177.311808)">
                        <mask id="mask-4" fill="white">
                            <use xlink:href="#path-3"></use>
                        </mask>
                        <g id="Clip-78"></g>
                        <path d="M16.1660987,7.76165616 C16.4424715,12.2118234 13.058314,16.0426897 8.60814678,16.3190626 C4.15685153,16.5954355 0.32598516,13.2112779 0.0507403445,8.75998265 C-0.224504471,4.30981545 3.15852504,0.478949082 7.60869224,0.202576214 C12.0588594,-0.0726686015 15.8908539,3.31148897 16.1660987,7.76165616" id="Fill-77" fill="#0E244C" mask="url(#mask-4)"></path>
                    </g>
                    <path d="M37.1166855,185.372059 C37.2283627,187.162279 35.8668033,188.704326 34.0754559,188.814876 C32.2852365,188.926553 30.7431887,187.563865 30.6315115,185.773646 C30.5209624,183.983427 31.8825218,182.441379 33.6727411,182.33083 C35.4640885,182.220281 37.0050083,183.58184 37.1166855,185.372059" id="Fill-80" fill="#EAE8FF"></path>
                    <path d="M33.8757906,186.528764 C33.4493867,186.528764 33.0320073,186.326843 32.7714272,185.950073 L27.2766833,177.982638 C26.4847905,176.834281 26.0606427,175.472722 26.0606427,174.077321 L26.0606427,140.46474 C26.0606427,139.731505 26.625797,139.090772 27.3601592,139.069339 C28.1182105,139.046778 28.7397674,139.654798 28.7397674,140.408337 L28.7397674,173.24369 C28.7397674,174.637963 29.1639152,176.00065 29.9558081,177.149008 L34.9530807,184.393361 C35.3535394,184.974308 35.2689354,185.780866 34.722958,186.225318 C34.4702743,186.431752 34.1713403,186.528764 33.8757906,186.528764" id="Fill-82" fill="#163774"></path>
                    <path d="M23.7386594,166.147788 L11.6199912,127.409337 C11.6199912,127.409337 8.08016234,155.180862 8.87431131,164.549338 C12.5066404,165.113364 18.8135821,166.470411 23.7386594,166.147788" id="Fill-84" fill="#0E244C"></path>
                    <path d="M71.1301763,142.328621 L26.0013071,142.328621 C24.5720646,142.328621 23.4112986,141.168983 23.4112986,139.738612 C23.4112986,138.308242 24.5720646,137.148604 26.0013071,137.148604 L71.1301763,137.148604 C71.5261228,137.148604 71.874691,136.882383 71.9807279,136.501101 L87.8388903,79.3663693 C88.5168499,76.9207514 90.7639305,75.2117518 93.3031767,75.2117518 L115.567549,75.2117518 C116.996792,75.2117518 118.15643,76.3713898 118.15643,77.8017604 C118.15643,79.232131 116.996792,80.391769 115.567549,80.391769 L93.3031767,80.391769 C93.0832065,80.391769 92.8880534,80.5395439 92.8293947,80.7516178 L76.9723604,137.88635 C76.2458945,140.502304 73.8442707,142.328621 71.1301763,142.328621" id="Fill-86" fill="#163774"></path>
                    <path d="M90.336737,82.0885856 C90.336737,82.0885856 96.629014,86.9110102 113.240715,82.0885856 L98.1451166,139.00786 L75.3731203,130.755028 L90.336737,82.0885856 Z" id="Fill-88" fill="#0E244C"></path>
                    <path d="M71.698602,130.75514 C57.006846,130.75514 45.0528734,143.900336 45.0528734,160.057433 C45.0528734,176.214529 57.006846,189.359725 71.698602,189.359725 C86.3914861,189.359725 98.3443306,176.214529 98.3443306,160.057433 C98.3443306,143.900336 86.3914861,130.75514 71.698602,130.75514 M71.698602,193.646325 C54.6424479,193.646325 40.7651457,178.578927 40.7651457,160.057433 C40.7651457,141.537066 54.6424479,126.468541 71.698602,126.468541 C88.7547561,126.468541 102.632058,141.537066 102.632058,160.057433 C102.632058,178.578927 88.7547561,193.646325 71.698602,193.646325" id="Fill-90" fill="#0E244C"></path>
                    <path d="M71.698602,166.325118 C68.5163658,166.325118 65.9263573,163.512883 65.9263573,160.057658 C65.9263573,156.601305 68.5163658,153.790198 71.698602,153.790198 C74.8808382,153.790198 77.4708468,156.601305 77.4708468,160.057658 C77.4708468,163.512883 74.8808382,166.325118 71.698602,166.325118" id="Fill-92" fill="#0E244C"></path>
                    <path d="M100.117968,160.032728 L75.0898663,159.424708 L75.5106299,159.24986 L75.4102332,159.253244 L98.0592718,149.600499 C98.4225047,149.445955 98.5905845,149.02632 98.4360413,148.663087 C98.2814981,148.299854 97.8618626,148.130646 97.4997577,148.285189 L74.4119067,158.124063 L92.3479418,138.307565 C92.6141622,138.015399 92.5904731,137.564178 92.2983075,137.299086 C92.0061419,137.033993 91.5537929,137.056555 91.2898286,137.34872 L73.4169644,157.09528 L81.9360171,130.976351 C82.0589748,130.601838 81.8536692,130.197995 81.4791558,130.076166 C81.1035143,129.953208 80.6996715,130.158513 80.5778418,130.534155 L72.4129977,155.563384 L72.4129977,129.131986 C72.4129977,128.737167 72.0926308,128.417928 71.6989404,128.417928 C71.304122,128.417928 70.9837551,128.737167 70.9837551,129.131986 L70.9837551,155.563384 L62.820039,130.534155 C62.6970813,130.158513 62.2932385,129.953208 61.9187251,130.076166 C61.5442116,130.197995 61.3389061,130.601838 61.4607357,130.976351 L69.8827759,156.797474 L69.2713714,156.071008 L69.4541159,156.513204 L52.1069242,137.34872 C51.8429599,137.056555 51.3917389,137.033993 51.0984453,137.299086 C50.8062797,137.564178 50.7837186,138.015399 51.048811,138.307565 L68.9848461,158.124063 L45.8992512,148.285189 C45.5360183,148.130646 45.1152547,148.299854 44.9607115,148.663087 C44.8061683,149.02632 44.9753762,149.445955 45.337481,149.600499 L67.9876476,159.253244 L67.887251,159.24986 L68.3091426,159.424708 L43.2787852,160.032728 C42.8850949,160.042881 42.5714963,160.370016 42.581409,160.764834 C42.5918012,161.152884 42.908784,161.461971 43.295706,161.461971 L43.3137548,161.461971 L67.887251,160.864103 L44.777967,170.446909 C44.413606,170.598068 44.242142,171.015448 44.3933011,171.380937 C44.5061063,171.655053 44.7723267,171.822005 45.0532118,171.822005 C45.1445841,171.822005 45.2370844,171.803956 45.3262005,171.766731 L69.0344804,161.935753 L68.9848461,161.989899 L69.2160968,161.891759 L51.8249111,182.511431 C51.5710993,182.812621 51.6094531,183.263842 51.9106431,183.517654 C52.0448813,183.630459 52.208449,183.685734 52.3708885,183.685734 C52.575066,183.685734 52.7758594,183.600002 52.9168659,183.43305 L69.3740242,163.921125 L59.8746939,187.541417 C59.726919,187.906906 59.9051513,188.323158 60.2717684,188.469804 C60.6372574,188.617579 61.0535088,188.440475 61.2001556,188.073858 L70.9837551,163.748533 L70.9837551,164.551707 L71.2747927,163.661673 L71.7011965,191.570821 C71.7350381,191.940822 72.0463806,192.217195 72.4107416,192.217195 C72.4333026,192.217195 72.4569917,192.216067 72.4784247,192.213811 C72.8721151,192.176585 73.1608965,191.828017 73.1225427,191.435454 L72.3419304,164.332865 L72.4129977,164.551707 L72.4129977,163.643624 L82.9196789,188.963891 C83.0324841,189.239136 83.2987045,189.40496 83.5795896,189.40496 C83.6709618,189.40496 83.7634622,189.386911 83.8525783,189.350813 C84.2169393,189.198526 84.3906594,188.781147 84.2395003,188.416786 L74.1265095,164.044083 L90.4798869,183.43305 C90.7348267,183.73424 91.1849197,183.771466 91.4872378,183.517654 C91.7872997,183.263842 91.8256535,182.812621 91.5718417,182.511431 L74.180656,161.891759 L74.4119067,161.989899 L74.3622724,161.935753 L98.0716803,171.766731 C98.1607965,171.803956 98.2532968,171.822005 98.3446691,171.822005 C98.6244261,171.822005 98.8906465,171.655053 99.0045798,171.380937 C99.1557388,171.015448 98.9831468,170.598068 98.6187858,170.446909 L75.5106299,160.864103 L100.084126,161.461971 C100.474432,161.467611 100.804952,161.159653 100.815345,160.764834 C100.825257,160.370016 100.512786,160.042881 100.117968,160.032728" id="Fill-94" fill="#0E244C"></path>
                    <path d="M97.4300441,138.971537 C97.4300441,138.971537 87.8765673,126.468202 62.8698989,126.468202 C31.1953122,126.468202 23.0394924,134.863169 25.1816642,138.971537 C27.326092,143.079904 47.4257319,141.207337 56.9340866,141.07197 C66.4424413,140.936604 97.4300441,138.971537 97.4300441,138.971537" id="Fill-96" fill="#0E244C"></path>
                    <path d="M95.7742886,142.328621 L50.6454194,142.328621 C49.2161768,142.328621 48.0554108,141.168983 48.0554108,139.738612 C48.0554108,138.308242 49.2161768,137.148604 50.6454194,137.148604 L95.7742886,137.148604 C96.170235,137.148604 96.5199313,136.882383 96.6259682,136.501101 L112.483003,79.3663693 C113.16209,76.9207514 115.409171,75.2117518 117.947289,75.2117518 L140.211662,75.2117518 C141.640904,75.2117518 142.800542,76.3713898 142.800542,77.8017604 C142.800542,79.232131 141.640904,80.391769 140.211662,80.391769 L117.947289,80.391769 C117.727319,80.391769 117.532166,80.5395439 117.473507,80.7516178 L101.616473,137.88635 C100.891135,140.502304 98.4883829,142.328621 95.7742886,142.328621" id="Fill-98" fill="#163774"></path>
                    <path d="M57.8379951,177.990648 L57.9192148,177.644336 L55.8266774,177.226956 C55.6721342,177.190858 55.5153349,177.160401 55.3585356,177.133328 L55.2942366,177.120919 L55.2942366,177.122047 C54.7121615,177.028419 54.1097815,176.994577 53.4961209,177.031803 C49.0459537,177.308176 45.6629242,181.14017 45.938169,185.590337 C46.1592673,189.16852 48.6815927,192.055206 51.9743781,192.906886 L51.97325,192.908014 L51.9924269,192.912526 C52.2789522,192.984722 52.5722459,193.044509 52.8700518,193.086246 L54.250788,193.361491 L54.2992943,193.155058 C54.3647213,193.152802 54.4301484,193.152802 54.4955754,193.148289 C58.9457426,192.871917 62.3299002,189.04105 62.0535273,184.590883 C61.875295,181.707581 60.2035212,179.273243 57.8379951,177.990648" id="Fill-100" fill="#0E244C"></path>
                    <g id="Group-104" transform="translate(47.740797, 177.311808)">
                        <mask id="mask-6" fill="white">
                            <use xlink:href="#path-5"></use>
                        </mask>
                        <g id="Clip-103"></g>
                        <path d="M16.7025097,7.76165616 C16.9788825,12.2118234 13.594725,16.0426897 9.14455777,16.3190626 C4.69326252,16.5954355 0.862396153,13.2112779 0.587151338,8.75998265 C0.31077847,4.30981545 3.69493604,0.478949082 8.14510324,0.202576214 C12.5952704,-0.0726686015 16.4272649,3.31148897 16.7025097,7.76165616" id="Fill-102" fill="#2550A0" mask="url(#mask-6)"></path>
                    </g>
                    <path d="M59.6282144,185.372059 C59.7387636,187.162279 58.3772042,188.704326 56.5869848,188.814876 C54.7956374,188.926553 53.2547177,187.563865 53.1430405,185.773646 C53.0313633,183.983427 54.3929227,182.441379 56.1842701,182.33083 C57.9744894,182.220281 59.5165372,183.58184 59.6282144,185.372059" id="Fill-105" fill="#EAE8FF"></path>
                    <path d="M56.3860787,186.528764 C55.9608029,186.528764 55.5422954,186.326843 55.2817152,185.950073 L49.7880995,177.982638 C48.9962066,176.834281 48.5720588,175.472722 48.5720588,174.077321 L48.5720588,140.46474 C48.5720588,139.731505 49.1372132,139.090772 49.8715753,139.069339 C50.6284986,139.046778 51.2511836,139.654798 51.2511836,140.408337 L51.2511836,173.24369 C51.2511836,174.637963 51.6753313,176.00065 52.4672242,177.149008 L57.4633688,184.393361 C57.8649555,184.974308 57.7803516,185.780866 57.2343742,186.225318 C56.9816904,186.431752 56.6827565,186.528764 56.3860787,186.528764" id="Fill-107" fill="#163774"></path>
                    <path d="M85.33326,115.541773 C85.33326,115.541773 85.095241,132.010212 69.1332978,131.317587 C53.1702265,130.624963 43.0955895,127.763094 39.5941144,128.900171 C36.0937675,130.037248 35.0796482,163.132053 34.4163533,172.110223 C33.7541865,181.089521 30.60692,175.344349 26.5120893,175.335325 C22.4183867,175.327428 6.56360853,129.586027 12.0143583,114.135091 C17.4651081,98.685284 37.8185598,95.4748465 56.0433763,98.579247 C76.4938405,102.062673 85.9187193,112.552434 85.33326,115.541773" id="Fill-109" fill="#F39B9B"></path>
                    <path d="M82.4360102,114.729057 C82.4360102,114.729057 82.1979911,131.197496 66.2360479,130.504872 C50.2729766,129.812247 40.1983396,126.950378 36.6968645,128.087455 C33.1965176,129.224532 37.9151613,152.695921 37.2518664,161.675219 C36.5885715,170.653389 17.2390866,164.792028 13.1442559,164.784132 C9.04942527,164.776235 3.66635864,128.773311 9.11710842,113.322376 C14.5678582,97.8725682 34.9213099,94.6621307 53.1461264,97.7665313 C73.5965906,101.249957 83.0214694,111.739718 82.4360102,114.729057" id="Fill-111" fill="#163774"></path>
                    <path d="M85.9193053,116.127818 C86.2723858,114.324062 82.9750883,109.790419 75.816467,105.712509 C74.0600892,110.707526 70.8970299,116.510228 65.4970425,117.607823 C55.6886258,119.599964 43.3341946,114.88696 35.7897793,119.04609 C28.2431079,123.204092 23.7794041,120.825029 25.5955687,133.796505 C27.4117332,146.769109 26.8623717,153.422363 28.522865,164.511119 C28.695457,165.666245 28.5815237,166.784145 28.2758215,167.855795 C34.3176708,168.461559 40.3696726,168.026131 40.7351616,163.07398 C41.3984565,154.094682 36.6798128,130.623293 40.1801597,129.486216 C43.6816348,128.349139 53.7562718,131.211008 69.7193431,131.903633 C85.6812863,132.596257 85.9193053,116.127818 85.9193053,116.127818" id="Fill-113" fill="#0E244C"></path>
                    <path d="M84.5940472,120.104745 L64.5677308,110.084255 C64.5677308,110.084255 69.7500041,125.493452 76.319782,130.20984 C81.4129391,128.130839 83.6306904,123.590428 84.5940472,120.104745" id="Fill-115" fill="#0E244C"></path>
                    <path d="M23.5437319,171.696002 C23.5437319,171.696002 26.0841062,174.359334 24.6480953,176.230773 C24.0220262,177.046355 22.3604048,177.54721 20.067074,178.27142 C18.9446618,179.080234 17.8245056,180.147371 18.9187166,180.607617 C20.795796,181.396125 32.1304677,182.411373 33.360045,180.650483 C33.7717841,180.059383 34.2681272,179.608162 34.8039522,179.269746 C33.488643,176.929037 34.4226704,174.126955 34.4170302,172.111125 L23.5437319,171.696002 Z" id="Fill-117" fill="#F39B9B"></path>
                    <path d="M33.3601578,180.650483 C32.2084161,182.300824 25.9409563,173.84043 21.0282876,177.393795 C20.1675835,178.017608 19.2696537,178.588403 18.2859919,178.99563 C15.0834508,180.322219 11.8414279,181.830426 11.6259698,182.816344 C11.200694,184.765618 31.8316466,186.540045 35.427878,184.934826 C37.3094697,184.094427 36.2468442,181.837194 34.804065,179.269746 C34.2682401,179.608162 33.7718969,180.059383 33.3601578,180.650483" id="Fill-119" fill="#163774"></path>
                    <path d="M56.2935784,90.5346533 C60.4380433,79.2733049 48.6916324,62.1269066 68.8386505,54.9051144 C102.349707,42.8936111 99.0309762,100.446851 88.3584713,127.803253 C86.6855694,132.09098 76.9786775,127.559593 71.0800908,118.831851 C63.5762854,107.726174 56.7064456,101.68094 55.3753436,99.0931878 C54.2258581,96.8630279 55.1892149,93.535273 56.2935784,90.5346533" id="Fill-121" fill="#D8E7EB"></path>
                    <path d="M74.1144393,44.7560258 L76.9582597,53.3687068 C77.4207612,54.788925 75.0721559,59.5549469 72.2565368,58.462992 C71.4319304,58.1437532 71.6767178,55.9147214 71.8290049,54.2406914 L71.1736064,46.2777687 L74.1144393,44.7560258 Z" id="Fill-123" fill="#F39B9B"></path>
                    <path d="M74.469099,49.4637274 C74.0077255,47.2944824 72.2930857,48.510523 71.4222291,49.3012879 L71.8204317,54.1485295 C72.6980565,53.5822472 74.9778507,51.8540707 74.469099,49.4637274" id="Fill-125" fill="#0E244C"></path>
                    <path d="M72.3683268,41.6686589 L74.1382412,44.7155287 C75.5415385,47.1306892 74.8883961,50.3208217 72.502565,51.7737534 C70.2994785,53.1138798 67.4849874,52.6400977 65.9711409,49.7861248 C64.6276304,47.2491347 65.6225727,44.2214417 65.8380307,42.7538454 C66.3287336,39.4091697 70.0783802,38.3138307 72.3683268,41.6686589" id="Fill-127" fill="#F39B9B"></path>
                    <path d="M74.0284817,45.0606 C74.1153417,44.7627941 74.1570797,44.4570919 74.1807688,44.1480055 C74.2236348,43.5602902 74.4244281,42.698458 75.2636992,43.191417 C76.484252,43.9077303 76.0815373,47.0234114 74.6128129,47.1542655 C73.5219861,47.251278 73.8096395,45.8096269 74.0284817,45.0606" id="Fill-129" fill="#F39B9B"></path>
                    <path d="M79.4781034,53.4367284 C79.6123417,57.6996389 79.7567324,65.0590535 79.3540176,69.5757758 C78.7584059,76.2290296 74.4075073,73.4574046 73.5964376,83.8061584 C73.0109783,91.2840186 72.0453654,107.998373 71.2286553,119.043135 C77.1396505,127.630999 86.6987676,132.055221 88.3581329,127.803591 C97.7333774,103.772688 101.430006,56.4497567 79.4781034,53.4367284" id="Fill-131" fill="#C1D6DB"></path>
                    <path d="M69.4060609,47.8536581 C69.4060609,47.8536581 68.1652031,48.195458 66.3321177,47.9743597 C66.3321177,47.9743597 66.4607157,48.8666492 67.0427908,49.2005528 C67.7478237,49.6055236 68.9616082,49.3573521 69.4060609,47.8536581" id="Fill-133" fill="#FFFFFF"></path>
                    <path d="M71.8043005,50.8291222 C70.8431998,51.2374772 68.9649923,51.5251306 68.0230685,51.2081478 C67.1883096,50.9283908 66.1347086,49.879302 65.9057139,49.643539 C65.9282749,49.6909172 65.9474518,49.7394235 65.9711409,49.7856736 C67.4849874,52.6396465 70.2994785,53.1145566 72.502565,51.7733021 C73.9735455,50.8776284 74.7834872,49.3231721 74.8613229,47.6953923 C74.0220518,49.4551542 72.6695168,50.4625051 71.8043005,50.8291222" id="Fill-135" fill="#C87171"></path>
                    <path d="M82.6706049,67.7378399 C82.6706049,67.7378399 80.5555064,74.4734415 82.9176484,84.4533221 C84.0310362,89.1606853 90.9572787,92.5854528 90.9572787,92.5854528 L93.0814016,86.4860728 L82.6706049,67.7378399 Z" id="Fill-137" fill="#0E244C"></path>
                    <path d="M29.7226396,182.746291 C29.4631875,182.746291 29.1980952,182.689889 28.9476675,182.569187 C28.0587621,182.140527 27.6865048,181.07339 28.1151648,180.184484 L48.1629142,138.588675 C48.5915741,137.700898 49.6587118,137.327513 50.5476172,137.756173 C51.4365226,138.184833 51.8087799,139.25197 51.38012,140.139748 L31.3334986,181.735556 C31.0244122,182.374034 30.3870625,182.746291 29.7226396,182.746291" id="Fill-139" fill="#163774"></path>
                    <path d="M67.9111657,158.19028 C67.552445,158.19028 67.1993645,158.0222 66.9771382,157.706346 C54.0552965,139.377748 68.0138184,108.176944 68.6139424,106.85825 L68.6748572,106.742061 L69.7983975,104.874006 C70.1232767,104.334797 70.8237973,104.159948 71.3652625,104.484828 C71.9044716,104.809707 72.0793197,105.510227 71.7544406,106.050565 L70.6658699,107.859961 C69.9991909,109.365911 56.9228061,139.483785 68.8429371,156.392164 C69.20617,156.906556 69.0820842,157.618357 68.5676922,157.98159 C68.3680269,158.122597 68.1390323,158.19028 67.9111657,158.19028" id="Fill-141" fill="#2550A0"></path>
                    <path d="M108.733694,108.770186 L66.3324562,108.770186 L66.3324562,108.023416 C66.3324562,105.221333 68.6043539,102.948307 71.4064364,102.948307 L108.733694,102.948307 L108.733694,108.770186 Z" id="Fill-143" fill="#163774"></path>
                    <path d="M97.4300441,130.75514 C82.738288,130.75514 70.7843154,143.900336 70.7843154,160.057433 C70.7843154,176.214529 82.738288,189.359725 97.4300441,189.359725 C112.122928,189.359725 124.075773,176.214529 124.075773,160.057433 C124.075773,143.900336 112.122928,130.75514 97.4300441,130.75514 M97.4300441,193.646325 C80.3738899,193.646325 66.4977159,178.578927 66.4977159,160.057433 C66.4977159,141.537066 80.3738899,126.468541 97.4300441,126.468541 C114.486198,126.468541 128.3635,141.537066 128.3635,160.057433 C128.3635,178.578927 114.486198,193.646325 97.4300441,193.646325" id="Fill-145" fill="#0E244C"></path>
                    <path d="M97.4300441,166.325118 C94.2478079,166.325118 91.6577993,163.512883 91.6577993,160.057658 C91.6577993,156.601305 94.2478079,153.790198 97.4300441,153.790198 C100.61228,153.790198 103.202289,156.601305 103.202289,160.057658 C103.202289,163.512883 100.61228,166.325118 97.4300441,166.325118" id="Fill-147" fill="#0E244C"></path>
                    <path d="M125.849522,160.032728 L100.821421,159.424708 L101.242185,159.24986 L101.141788,159.253244 L123.790827,149.600499 C124.15406,149.445955 124.322139,149.02632 124.168724,148.663087 C124.013053,148.299854 123.593417,148.130646 123.231313,148.285189 L100.143462,158.124063 L118.079497,138.307565 C118.345717,138.015399 118.322028,137.564178 118.029862,137.299086 C117.737697,137.033993 117.285348,137.056555 117.021383,137.34872 L99.1485193,157.09528 L107.667572,130.976351 C107.79053,130.601838 107.586352,130.197995 107.210711,130.076166 C106.835069,129.953208 106.431226,130.158513 106.309397,130.534155 L98.1445525,155.563384 L98.1445525,129.131986 C98.1445525,128.737167 97.8241856,128.417928 97.4304953,128.417928 C97.0356769,128.417928 96.716438,128.737167 96.716438,129.131986 L96.716438,155.563384 L88.5515939,130.534155 C88.4286362,130.158513 88.0259214,129.953208 87.6502799,130.076166 C87.2757665,130.197995 87.0704609,130.601838 87.1922906,130.976351 L95.6154588,156.797474 L95.0029263,156.071008 L95.1856708,156.513204 L77.8396071,137.34872 C77.5745148,137.056555 77.1232938,137.033993 76.8300001,137.299086 C76.5378345,137.564178 76.5152735,138.015399 76.7803658,138.307565 L94.7164009,158.124063 L71.6308061,148.285189 C71.2675731,148.130646 70.8468096,148.299854 70.6922664,148.663087 C70.5377232,149.02632 70.706931,149.445955 71.0690359,149.600499 L93.7192025,159.253244 L93.6188058,159.24986 L94.0406975,159.424708 L69.01034,160.032728 C68.6166497,160.042881 68.3030511,160.370016 68.3129639,160.764834 C68.3233561,161.152884 68.6403388,161.461971 69.0272608,161.461971 L69.0453097,161.461971 L93.6188058,160.864103 L70.5095218,170.446909 C70.1451609,170.598068 69.9736969,171.015448 70.1248559,171.380937 C70.2376612,171.655053 70.5038816,171.822005 70.7847667,171.822005 C70.8761389,171.822005 70.9686392,171.803956 71.0577554,171.766731 L94.7660352,161.935753 L94.7164009,161.989899 L94.9476517,161.891759 L77.556466,182.511431 C77.3026541,182.812621 77.3410079,183.263842 77.6421979,183.517654 C77.7764362,183.630459 77.9400038,183.685734 78.1024434,183.685734 C78.3066209,183.685734 78.5074142,183.600002 78.6484208,183.43305 L95.1067071,163.921125 L85.6062488,187.541417 C85.4584739,187.906906 85.6367062,188.323158 86.0033232,188.469804 C86.3688123,188.617579 86.7850636,188.440475 86.9317105,188.073858 L96.716438,163.748533 L96.716438,164.551707 L97.0063475,163.661673 L97.4316233,191.570821 C97.467721,191.940822 97.7779355,192.217195 98.1422964,192.217195 C98.1648575,192.217195 98.1885466,192.216067 98.2111076,192.213811 C98.6036699,192.176585 98.8924514,191.828017 98.8540976,191.435454 L98.0734852,164.332865 L98.1445525,164.551707 L98.1445525,163.643624 L108.651234,188.963891 C108.764039,189.239136 109.031387,189.40496 109.311144,189.40496 C109.402517,189.40496 109.495017,189.386911 109.584133,189.350813 C109.948494,189.198526 110.122214,188.781147 109.971055,188.416786 L99.8580643,164.044083 L116.211442,183.43305 C116.466382,183.73424 116.916475,183.771466 117.218793,183.517654 C117.518855,183.263842 117.557208,182.812621 117.303397,182.511431 L99.9122108,161.891759 L100.143462,161.989899 L100.093827,161.935753 L123.803235,171.766731 C123.892351,171.803956 123.984852,171.822005 124.076224,171.822005 C124.357109,171.822005 124.622201,171.655053 124.736135,171.380937 C124.887294,171.015448 124.714702,170.598068 124.350341,170.446909 L101.242185,160.864103 L125.815681,161.461971 C126.205987,161.467611 126.537635,161.159653 126.5469,160.764834 C126.556811,160.370016 126.245469,160.042881 125.849522,160.032728" id="Fill-149" fill="#0E244C"></path>
                    <path d="M101.254819,133.210572 C87.9686163,133.210572 77.1596171,145.253661 77.1596171,160.057094 C77.1596171,174.860527 87.9686163,186.904744 101.254819,186.904744 C114.539894,186.904744 125.348893,174.860527 125.348893,160.057094 C125.348893,145.253661 114.539894,133.210572 101.254819,133.210572 M101.254819,188.690451 C86.9838265,188.690451 75.3739099,175.845317 75.3739099,160.057094 C75.3739099,144.268871 86.9838265,131.424865 101.254819,131.424865 C115.524683,131.424865 127.135728,144.268871 127.135728,160.057094 C127.135728,175.845317 115.524683,188.690451 101.254819,188.690451" id="Fill-151" fill="#2550A0"></path>
                    <path d="M107.970341,95.6273592 C107.194241,79.0540115 97.0801222,65.2669536 87.2367359,57.1077497 C86.5136542,56.5064977 82.6929403,57.3311041 81.9935477,64.2618588 C81.2941552,71.1926135 89.7568052,90.5985011 89.7568052,90.5985011 C89.7568052,90.5985011 83.6021506,91.5392969 80.5552808,92.1236281 C59.1222829,96.2263551 57.4899909,107.068068 65.8499881,105.054494 C74.2111134,103.042048 108.745313,112.199579 107.970341,95.6273592" id="Fill-153" fill="#F39B9B"></path>
                    <path d="M107.970341,95.6273592 C107.276589,80.8126454 99.1196411,68.2269634 90.3670816,59.8951675 C89.493969,63.0503304 88.8216497,68.3014149 91.6575737,73.4566149 C96.1325581,81.5887456 100.463152,82.5126206 101.255045,89.9058768 C102.045809,97.298005 104.890758,102.288509 95.4286533,100.809632 C85.9665487,99.3307556 87.1589002,98.4677954 80.5552808,99.4537134 C77.3899654,99.9274954 74.2269061,102.341528 71.7621114,104.80181 C84.5350501,105.345532 108.618971,109.499021 107.970341,95.6273592" id="Fill-155" fill="#C87171"></path>
                    <path d="M101.128139,73.4304441 C99.9211225,71.3627238 98.601301,69.3987844 97.2036439,67.5510344 C95.4179368,67.7766449 93.8352791,68.2402745 93.5442415,68.467013 C92.7128668,69.1133871 85.3590924,77.338018 85.3590924,77.338018 C85.3590924,77.338018 96.5053794,78.173905 101.128139,73.4304441" id="Fill-157" fill="#0E244C"></path>
                    <path d="M64.4587609,99.4698445 C61.7232336,99.0761542 58.2522159,106.099409 57.4670914,108.502161 C56.6808388,110.904913 59.777343,115.202793 61.3938422,115.294165 C63.0114695,115.386666 63.2878424,115.156543 63.0577197,114.32404 C62.8264689,113.492665 62.226345,112.245039 62.226345,112.245039 C62.226345,112.245039 64.6279688,108.229172 65.0442202,106.564167 C65.4604716,104.898033 66.3380964,99.7405771 64.4587609,99.4698445" id="Fill-159" fill="#F39B9B"></path>
                    <path d="M98.6958318,69.6100686 C95.2575277,64.6443814 91.22474,60.4141845 87.2370743,57.1078625 C86.5128646,56.5066105 82.6921507,57.3312169 81.9927581,64.2619716 C81.6735192,67.427287 81.6633668,73.1950195 83.4885558,78.5284519 C86.5207609,77.6530831 96.7194838,74.7539881 98.6958318,69.6100686" id="Fill-161" fill="#D8E7EB"></path>
                    <path d="M98.6958318,69.6100686 C95.2575277,64.6443814 91.22474,60.4141845 87.2370743,57.1078625 C86.8298473,56.7694468 85.4445988,56.882252 84.1856922,58.277653 C85.1400246,59.0808264 86.821951,60.7808015 87.532624,63.2918465 C88.5546396,66.8959743 88.2771387,68.4662234 88.1857665,69.9451002 C88.1090589,71.1555006 89.3950388,74.7178904 89.9895224,76.3253653 C93.6579492,74.8081347 97.5519865,72.5858712 98.6958318,69.6100686" id="Fill-163" fill="#C1D6DB"></path>
                    <path d="M64.6735421,42.995023 C64.1591502,42.995023 63.7417707,43.4845978 63.7417707,44.0858498 L63.7417707,45.4259762 C63.7417707,46.0283563 64.1591502,46.5179311 64.6735421,46.5179311 L65.9674184,46.5179311 C66.4265357,46.5179311 66.8123297,46.1332651 66.8879092,45.6042085 L67.0774221,44.2629541 C67.1214161,43.9459713 67.0458366,43.6244763 66.8676043,43.3796889 C66.6905,43.1349015 66.431048,42.995023 66.1569312,42.995023 L64.6735421,42.995023 Z M65.9674184,47.2128114 L64.6735421,47.2128114 C63.8320149,47.2128114 63.146159,46.4118941 63.146159,45.4259762 L63.146159,44.0858498 C63.146159,43.0999319 63.8320149,42.2990146 64.6735421,42.2990146 L66.1569312,42.2990146 C66.6070241,42.2990146 67.0311719,42.5291373 67.3210814,42.929596 C67.6109909,43.3311827 67.7362047,43.8579832 67.6628813,44.3768874 L67.4733685,45.7170138 C67.3526669,46.5844862 66.7187013,47.2128114 65.9674184,47.2128114 L65.9674184,47.2128114 Z" id="Fill-165" fill="#0E244C"></path>
                    <path d="M69.5801194,42.995023 C69.3071307,42.995023 69.0465505,43.1349015 68.8694463,43.3796889 C68.692342,43.6244763 68.6167625,43.9459713 68.6607566,44.2629541 L68.8502694,45.6042085 C68.9247209,46.1332651 69.3116429,46.5179311 69.7696322,46.5179311 L71.0635084,46.5179311 C71.5779004,46.5179311 71.9975359,46.0283563 71.9975359,45.4259762 L71.9975359,44.0858498 C71.9975359,43.4845978 71.5779004,42.995023 71.0635084,42.995023 L69.5801194,42.995023 Z M71.0635084,47.2128114 L69.7696322,47.2128114 C69.0194773,47.2128114 68.3855118,46.5844862 68.262554,45.7170138 L68.0741693,44.3768874 C68.0019739,43.8579832 68.1260597,43.3311827 68.4170972,42.929596 C68.7070067,42.5291373 69.1311545,42.2990146 69.5801194,42.2990146 L71.0635084,42.2990146 C71.9061637,42.2990146 72.5908916,43.0999319 72.5908916,44.0858498 L72.5908916,45.4259762 C72.5908916,46.4118941 71.9061637,47.2128114 71.0635084,47.2128114 L71.0635084,47.2128114 Z" id="Fill-167" fill="#0E244C"></path>
                    <path d="M68.1877641,44.8011479 C68.098648,44.6939829 67.9745622,44.5608727 67.8358118,44.5777935 C67.6925491,44.5890741 67.5774877,44.7616661 67.5774877,44.7627941 L67.0935532,44.3578233 C67.1206265,44.3127012 67.36767,43.922395 67.7873055,43.8840412 C68.0738308,43.8592241 68.3535879,44.0036148 68.614168,44.3160853 L68.1877641,44.8011479 Z" id="Fill-169" fill="#0E244C"></path>
                    <path d="M152.029365,23.968987 C158.477314,23.9250695 174.122274,42.856047 177.750091,60.1716532 C182.029922,80.6040685 135.057815,87.2460418 134.923577,78.3987258 C134.789339,69.5514099 159.825336,69.2378113 161.96074,60.8428444 C163.834435,53.4766615 153.339034,41.7065614 149.97631,33.3307715 C147.253191,26.5511758 149.24646,23.9882405 152.029365,23.968987" id="Fill-171" fill="#F39B9B"></path>
                    <path d="M177.749865,60.1719916 C175.831048,51.0110771 170.54725,41.4000696 165.042354,34.3847109 C165.004,40.486347 165.232995,49.3720167 166.791963,51.9620253 C169.236453,56.0241425 176.08486,60.4472364 172.66122,64.8703303 C169.236453,69.2934243 166.079034,70.1496162 159.526177,72.0041345 C152.972192,73.8586528 147.436838,78.5829368 143.266428,78.9980601 C140.05035,79.317299 137.214426,77.9895812 136.379667,80.6551693 C144.276035,85.7133568 181.585244,78.479156 177.749865,60.1719916" id="Fill-173" fill="#C87171"></path>
                    <path d="M160.267195,51.9334856 C161.018478,53.5691618 161.597168,55.1529475 161.913023,56.6476171 C165.01404,55.1303865 172.863029,51.040068 171.924489,48.933994 C171.015279,46.894475 163.52501,50.3237547 160.267195,51.9334856" id="Fill-175" fill="#0E244C"></path>
                    <path d="M173.332299,47.6757642 C167.118986,34.8441667 156.962001,22.1479356 152.066253,22.180586 C149.285603,22.199826 146.468856,25.8456918 149.190847,32.6252874 C150.959633,37.0292045 154.640469,43.3902926 157.046605,48.7113164 C157.978376,50.7700122 158.834568,52.7779457 159.526064,54.6448726 C162.346195,53.8845652 169.817287,51.344191 173.332299,47.6757642" id="Fill-177" fill="#BA104A"></path>
                    <path d="M138.039935,75.4992924 C138.039935,75.4992924 135.921452,72.7175149 133.425072,73.4304441 C130.927564,74.1445014 128.788776,74.0395925 129.001978,75.211639 C129.172314,76.1445385 132.421105,75.7136224 132.34891,76.9973462 C132.277843,78.28107 130.0725,80.3916562 128.074719,80.3916562 C126.078066,80.3916562 126.647732,80.9004079 127.218527,81.37419 C127.789322,81.847972 132.425617,82.6861151 136.207978,82.0882472 C139.98921,81.4915074 139.942959,75.855757 138.039935,75.4992924" id="Fill-179" fill="#F39B9B"></path>
                    <path d="M152.066817,22.1810372 C151.547913,22.1844845 151.026752,22.3153386 150.540562,22.5680223 C151.31779,23.7908313 152.620691,25.4140989 154.683899,26.8422134 C158.607265,29.5585638 161.461238,28.9155739 161.175841,33.4108632 C160.890444,37.9038964 161.905691,42.4860457 163.825636,45.5374278 C164.829603,47.1336221 165.950887,49.7901858 166.792414,51.9616869 C169.250441,50.8144575 171.711851,49.3671661 173.332863,47.6762154 C167.11955,34.8434899 156.962565,22.1483868 152.066817,22.1810372" id="Fill-181" fill="#930C3A"></path>
                    <path d="M158.764629,52.6986436 C160.771434,52.2677276 166.578648,50.6049782 172.026014,45.1158746 C171.837629,44.7639222 171.648116,44.4142259 171.454091,44.0656577 C165.971756,49.6946398 159.958108,51.2795536 158.319048,51.6213535 C158.472463,51.9845864 158.620238,52.3433071 158.764629,52.6986436" id="Fill-183" fill="#FFFFFF"></path>
                    <path d="M107.725779,43.1245235 C108.369897,46.0405392 110.042799,52.3429687 112.874211,54.7028545 C113.66272,55.3582531 114.294429,55.89295 114.811077,56.3362746 C115.090834,56.088103 115.380744,55.8354193 115.680806,55.5782233 C115.135956,55.1100815 114.456869,54.5359028 113.605189,53.8263577 C110.817771,51.5036976 109.169687,44.4781865 108.691392,42.1679349 C108.366513,42.4860457 108.045018,42.8041565 107.725779,43.1245235" id="Fill-185" fill="#D3D3D3"></path>
                    <polygon id="Fill-187" fill="#FFFFFF" points="140.189213 36.9896098 148.405948 37.7318684 148.083325 41.805266 139.63534 41.1318187"></polygon>
                    <path d="M143.329937,21.7345043 C143.329937,21.7345043 142.637313,19.5438263 142.790728,18.8692509 C142.944143,18.1958036 139.687456,21.211088 139.31407,22.6380744 C138.941813,24.0650609 139.025289,24.7306118 139.292637,24.3504581 C139.559986,23.9691764 141.818347,23.5833824 142.591063,23.6285045 C143.363779,23.6736266 142.84149,23.6916755 142.84149,23.6916755 C142.84149,23.6916755 145.226193,24.2071955 145.508207,25.3972909 C145.508207,25.3972909 147.485683,21.4017288 147.46989,20.1180051 C147.455225,18.8331533 146.921656,18.1879072 146.921656,18.1879072 C146.921656,18.1879072 144.578691,21.3543506 143.329937,21.7345043" id="Fill-189" fill="#0E244C"></path>
                </g>
            </g>
        </g>
    </g>
</svg>