<?xml version="1.0" encoding="UTF-8"?>
<svg width="260px" height="194px" viewBox="0 0 260 194" version="1.1" xmlns="http://www.w3.org/2000/svg" xmlns:xlink="http://www.w3.org/1999/xlink">
    <!-- Generator: Sketch 57.1 (83088) - https://sketch.com -->
    <title>Illustration</title>
    <desc>Created with Sketch.</desc>
    <defs>
        <polygon id="path-1" points="0 0.111695742 117.304213 0.111695742 117.304213 110.094336 0 110.094336"></polygon>
        <polygon id="path-3" points="0.306250056 0.111695742 65.8298397 0.111695742 65.8298397 110.094042 0.306250056 110.094042"></polygon>
    </defs>
    <g id="Solutions" stroke="none" stroke-width="1" fill="none" fill-rule="evenodd">
        <g transform="translate(-1067.000000, -978.000000)" id="Illustration">
            <g transform="translate(1067.040000, 977.760000)">
                <g id="Group-62" transform="translate(0.395173, 0.000000)">
                    <path d="M219.472637,44.5284734 L219.472637,44.5284734 C217.596892,44.5284734 216.062078,46.0653396 216.062078,47.9435917 L216.062078,57.8320242 C216.062078,59.7098564 217.596892,61.2467226 219.472637,61.2467226 C221.348382,61.2467226 222.883197,59.7098564 222.883197,57.8320242 L222.883197,47.9435917 C222.883197,46.0653396 221.348382,44.5284734 219.472637,44.5284734" id="Fill-1" fill="#FFE6E6"></path>
                    <path d="M17.8406698,110.402465 L40.4448007,110.402465 C40.4448007,110.402465 56.7838681,102.421258 50.9628945,95.7921581 C45.1423402,89.1630578 51.1486658,87.5858803 35.8596465,88.6898206 C20.5710465,89.7937608 11.3302876,100.729026 17.8406698,110.402465" id="Fill-3" fill="#E59C9C"></path>
                    <path d="M57.0577025,110.402465 C57.0577025,101.757383 52.4008398,94.646227 46.4284814,93.7744963 L37.2380443,93.6842159 L37.2380443,127.120294 L46.4284814,127.030434 C52.4008398,126.158703 57.0577025,119.047548 57.0577025,110.402465" id="Fill-5" fill="#0E244C"></path>
                    <path d="M49.10363,110.402465 C49.10363,119.63542 43.7913258,127.120294 37.2381701,127.120294 C30.6850144,127.120294 25.3722909,119.63542 25.3722909,110.402465 C25.3722909,101.16951 30.6850144,93.6846358 37.2381701,93.6846358 C43.7913258,93.6846358 49.10363,101.16951 49.10363,110.402465" id="Fill-7" fill="#163774"></path>
                    <path d="M43.2010092,110.402465 C43.2010092,115.642927 40.531438,119.891984 37.2378766,119.891984 C33.9447344,119.891984 31.2751632,115.642927 31.2751632,110.402465 C31.2751632,105.161583 33.9447344,100.912946 37.2378766,100.912946 C40.531438,100.912946 43.2010092,105.161583 43.2010092,110.402465" id="Fill-9" fill="#FFFFFF"></path>
                    <path d="M37.2380024,100.913114 C36.7633001,100.913114 36.3024363,101.003814 35.8596045,101.170518 C38.4880796,102.161083 40.4447587,105.916747 40.4447587,110.402633 C40.4447587,114.888099 38.4880796,118.644183 35.8596045,119.634328 C36.3024363,119.800612 36.7633001,119.891732 37.2380024,119.891732 C40.5315638,119.891732 43.201135,115.643095 43.201135,110.402633 C43.201135,105.161331 40.5315638,100.913114 37.2380024,100.913114" id="Fill-11" fill="#FFE6E6"></path>
                    <path d="M254.568483,110.402465 C254.568483,101.757383 249.91162,94.646227 243.938842,93.7744963 L234.748405,93.6842159 L234.748405,127.120294 L243.938842,127.030434 C249.91162,126.158703 254.568483,119.047548 254.568483,110.402465" id="Fill-13" fill="#163774"></path>
                    <path d="M246.61441,110.402465 C246.61441,119.63542 241.301687,127.120294 234.748531,127.120294 C228.195375,127.120294 222.883071,119.63542 222.883071,110.402465 C222.883071,101.16951 228.195375,93.6846358 234.748531,93.6846358 C241.301687,93.6846358 246.61441,101.16951 246.61441,110.402465" id="Fill-15" fill="#0E244C"></path>
                    <path d="M179.047714,110.402465 C179.047714,110.402465 205.089242,100.308277 219.369729,103.252678 C233.650635,106.196239 223.990109,83.0647222 208.869248,81.8028962 C193.748807,80.5410703 190.388149,81.5925219 190.388149,81.5925219 L180.938136,86.8497802 C180.938136,86.8497802 170.857422,103.042304 179.047714,110.402465" id="Fill-17" fill="#E59C9C"></path>
                    <g id="Group-21" transform="translate(0.830474, 0.308213)">
                        <mask id="mask-2" fill="white">
                            <use xlink:href="#path-1"></use>
                        </mask>
                        <g id="Clip-20"></g>
                        <path d="M-8.3869658e-05,5.5857529 L-8.3869658e-05,110.094336 L17.8406698,110.094336 C17.8406698,100.280227 25.7856425,92.3242152 35.5866507,92.3242152 C43.7953935,92.3242152 50.7024792,97.9056431 52.7296088,105.484997 C53.453404,108.190889 55.8675921,110.094336 58.6646452,110.094336 L117.304213,110.094336 L117.304213,0.111401806 L5.46695979,0.111401806 C2.4476521,0.111401806 -8.3869658e-05,2.5624095 -8.3869658e-05,5.5857529" id="Fill-19" fill="#FFF1F6" mask="url(#mask-2)"></path>
                    </g>
                    <g id="Group-24" transform="translate(116.998173, 0.308213)">
                        <mask id="mask-4" fill="white">
                            <use xlink:href="#path-3"></use>
                        </mask>
                        <g id="Clip-23"></g>
                        <polygon id="Fill-22" fill="#EFDAE2" mask="url(#mask-4)" points="64.9993657 104.363966 61.2189408 110.094042 -0.524224009 110.094042 -0.524224009 0.111527779 64.9993657 0.111527779"></polygon>
                    </g>
                    <polygon id="Fill-25" fill="#930C3A" points="117.304297 83.9057575 136.633318 83.9057575 136.633318 64.7793314 117.304297 64.7793314"></polygon>
                    <polygon id="Fill-27" fill="#BA104A" points="0 83.9057575 117.304297 83.9057575 117.304297 64.7793314 0 64.7793314"></polygon>
                    <path d="M214.957263,110.402465 C214.957263,101.757383 210.29998,94.646227 204.327622,93.7744963 L195.137185,93.6842159 L195.137185,127.120294 L204.327622,127.030434 C210.29998,126.158703 214.957263,119.047548 214.957263,110.402465" id="Fill-28" fill="#0E244C"></path>
                    <path d="M207.00319,110.402465 C207.00319,119.63542 201.690467,127.120294 195.137311,127.120294 C188.584155,127.120294 183.271851,119.63542 183.271851,110.402465 C183.271851,101.16951 188.584155,93.6846358 195.137311,93.6846358 C201.690467,93.6846358 207.00319,101.16951 207.00319,110.402465" id="Fill-29" fill="#163774"></path>
                    <path d="M201.10036,110.402465 C201.10036,115.642927 198.430788,119.891984 195.137227,119.891984 C191.844085,119.891984 189.174514,115.642927 189.174514,110.402465 C189.174514,105.161583 191.844085,100.912946 195.137227,100.912946 C198.430788,100.912946 201.10036,105.161583 201.10036,110.402465" id="Fill-30" fill="#FFFFFF"></path>
                    <path d="M195.137353,100.913114 C194.66265,100.913114 194.201787,101.003814 193.759374,101.170518 C196.38743,102.161083 198.344109,105.916747 198.344109,110.402633 C198.344109,114.888099 196.38743,118.644183 193.759374,119.634328 C194.201787,119.800612 194.66265,119.891732 195.137353,119.891732 C198.430914,119.891732 201.100485,115.643095 201.100485,110.402633 C201.100485,105.161331 198.430914,100.913114 195.137353,100.913114" id="Fill-31" fill="#FFE6E6"></path>
                    <path d="M202.453429,35.8305244 C201.09474,34.2189144 199.23535,33.1132945 197.170898,32.6946455 C191.421214,31.5277189 178.915409,29.3395741 167.287301,29.6503066 C161.742258,29.7985344 157.139911,29.9669179 153.503742,30.122704 C147.073455,30.399004 141.535122,34.7312032 139.703409,40.9097413 C138.314108,45.5976032 137.020418,51.3146616 136.835486,56.7780951 C136.415299,69.1855604 135.995531,110.402549 135.995531,110.402549 L179.047923,110.402549 C179.047923,110.402549 179.467691,90.4249677 198.158883,90.4249677 C209.802508,90.4249677 213.699511,97.9950837 213.699511,97.9950837 L257.381765,97.9950837 L257.381765,79.5875414 C257.381765,76.545722 255.674178,73.7629863 252.962253,72.392404 C247.6944,69.7306021 238.168065,65.7448277 226.859919,64.7790374 L202.453429,35.8305244 Z" id="Fill-32" fill="#FFF1F6"></path>
                    <path d="M251.921766,84.9569992 L257.3821,84.9569992 L257.3821,79.5876253 C257.3821,78.5571691 257.182071,77.558626 256.817657,76.633147 L251.921766,76.8611575 L251.921766,84.9569992 Z" id="Fill-33" fill="#FFFFFF"></path>
                    <polygon id="Fill-34" fill="#163774" points="39.1600433 52.1286548 34.5962759 48.3671117 29.7029007 52.4003358 29.7029007 46.6967145 23.2487111 46.6967145 23.2487111 52.4003358 18.3553359 48.3671117 13.7911492 52.1286548 21.9118288 58.8215813 13.7911492 65.5140878 18.3553359 69.2756309 23.2487111 65.2424068 23.2487111 70.9460281 29.7029007 70.9460281 29.7029007 65.2424068 34.5962759 69.2756309 39.1600433 65.5140878 31.039783 58.8215813"></polygon>
                    <path d="M136.63336,64.7792054 C136.519716,70.3081446 136.411105,77.1820518 136.317171,83.9056316 L207.977084,83.9056316 C212.877169,83.9056316 216.849656,79.9278355 216.849656,75.0207812 L216.849656,72.9703665 C216.849656,72.9703665 188.567968,64.7792054 169.84197,64.7792054 L136.63336,64.7792054 Z" id="Fill-35" fill="#BA104A"></path>
                    <path d="M214.535482,76.0425453 C214.535482,76.0425453 212.484869,78.8487958 213.186439,82.1303831 C213.541207,83.7890229 215.033668,84.9567893 216.727835,84.9567893 L228.550521,84.9567893 L226.360684,78.2277507 L214.535482,76.0425453 Z" id="Fill-36" fill="#FFFFFF"></path>
                    <path d="M169.007551,33.3932897 L197.664136,33.3932897 C199.452237,33.3932897 201.173662,34.0622045 202.492931,35.2711219 C207.719688,40.0614415 221.318315,53.1768732 226.860003,64.7793734 L182.254764,64.7793734 C175.031909,64.7793734 168.733297,59.8677001 166.964486,52.8556429 C165.941276,48.7984841 164.765424,44.3403123 163.649119,40.5737303 C162.586071,36.9893887 165.273674,33.3932897 169.007551,33.3932897" id="Fill-37" fill="#163774"></path>
                    <path d="M220.248683,78.2277927 L257.26246,78.2277927 C256.836821,75.7356339 255.263427,73.5554674 252.962463,72.3927399 C247.69419,69.730938 238.167855,65.7447437 226.860128,64.7793734 L169.84218,64.7793734 C169.84218,64.7793734 206.517543,68.9511673 214.535482,76.0425872 C216.116425,77.4404637 218.1402,78.2277927 220.248683,78.2277927" id="Fill-38" fill="#EFDAE2"></path>
                    <path d="M257.38189,97.9950837 L213.699637,97.9950837 C213.699637,97.9950837 213.007293,100.464567 212.88065,103.252762 L259.505051,103.252762 C259.644274,101.536595 259.19012,99.6482646 257.38189,97.9950837" id="Fill-39" fill="#163774"></path>
                    <path d="M212.880608,103.252552 C212.797996,105.067398 212.954413,107.017454 213.699595,108.51023 L257.381848,108.51023 C257.381848,108.51023 259.273109,106.121789 259.505428,103.252552 L212.880608,103.252552 Z" id="Fill-40" fill="#0E244C"></path>
                    <path d="M226.360768,78.2277927 L228.882729,85.9776296 C229.40943,87.5951183 230.91531,88.6898206 232.61409,88.6898206 L248.809321,88.6898206 C250.795355,88.6898206 252.468135,87.2046031 252.705905,85.2306118 L253.549215,78.2277927 L226.360768,78.2277927 Z" id="Fill-41" fill="#0E244C"></path>
                    <path d="M159.680323,42.5328568 L163.012045,54.7144113 C164.106963,58.7174019 161.098139,62.6662243 156.953301,62.6662243 L146.939263,62.6662243 C143.256966,62.6662243 140.365979,59.5110295 140.680071,55.8368275 C141.030646,51.7389375 141.699926,46.5320683 142.968874,42.3711919 C143.778216,39.7198877 146.21421,37.9042021 148.982748,37.9042021 L153.621578,37.9042021 C156.45176,37.9042021 158.932625,39.7996704 159.680323,42.5328568" id="Fill-42" fill="#163774"></path>
                    <polygon id="Fill-43" fill="#BA104A" points="125.809939 16.9911899 147.388763 16.9911899 147.388763 10.051777 125.809939 10.051777"></polygon>
                    <polygon id="Fill-44" fill="#930C3A" points="132.267902 16.9911899 189.443526 16.9911899 189.443526 10.051777 132.267902 10.051777"></polygon>
                    <polygon id="Fill-45" fill="#BA104A" points="150.71713 16.9911899 152.54465 16.9911899 152.54465 10.051777 150.71713 10.051777"></polygon>
                    <polygon id="Fill-46" fill="#BA104A" points="169.166778 16.9911899 170.994297 16.9911899 170.994297 10.051777 169.166778 10.051777"></polygon>
                    <polygon id="Fill-47" fill="#BA104A" points="9.33511229 19.1373438 18.2475215 19.1373438 18.2475215 8.83152199 9.33511229 8.83152199"></polygon>
                    <path d="M28.0787228,17.8755178 L34.4708488,17.8755178 L34.4708488,10.093348 L28.0787228,10.093348 L28.0787228,17.8755178 Z M26.8185812,19.1373438 L35.7309904,19.1373438 L35.7309904,8.83152199 L26.8185812,8.83152199 L26.8185812,19.1373438 Z" id="Fill-48" fill="#BA104A"></path>
                    <polygon id="Fill-49" fill="#BA104A" points="97.4058015 19.1373438 106.318211 19.1373438 106.318211 8.83152199 97.4058015 8.83152199"></polygon>
                    <path d="M81.1824742,17.8755178 L87.5750195,17.8755178 L87.5750195,10.093348 L81.1824742,10.093348 L81.1824742,17.8755178 Z M79.9227519,19.1373438 L88.8347418,19.1373438 L88.8347418,8.83152199 L79.9227519,8.83152199 L79.9227519,19.1373438 Z" id="Fill-50" fill="#BA104A"></path>
                    <path d="M82.5591946,105.343782 L105.067295,105.343782 L105.067295,29.6090296 L82.5591946,29.6090296 L82.5591946,105.343782 Z M105.729026,28.2833775 L81.8970437,28.2833775 C81.5317913,28.2833775 81.2353121,28.580253 81.2353121,28.9464135 L81.2353121,106.006818 C81.2353121,106.372978 81.5317913,106.669434 81.8970437,106.669434 L105.729026,106.669434 C106.094698,106.669434 106.391177,106.372978 106.391177,106.006818 L106.391177,28.9464135 C106.391177,28.580253 106.094698,28.2833775 105.729026,28.2833775 L105.729026,28.2833775 Z" id="Fill-51" fill="#FFF1F6"></path>
                    <path d="M9.98875047,18.1894417 L10.4085181,9.67243136 L15.2914096,9.67243136 C15.2914096,9.67243136 13.4014069,10.3560429 13.3489883,12.1435947 C13.2965698,13.9311465 13.4538254,14.0361237 12.6402897,14.9296896 C11.8263347,15.8236755 9.98875047,18.1894417 9.98875047,18.1894417" id="Fill-52" fill="#E55D8C"></path>
                    <path d="M98.0361239,18.1894417 L98.4558915,9.67243136 L103.338783,9.67243136 C103.338783,9.67243136 101.44878,10.3560429 101.396362,12.1435947 C101.343943,13.9311465 101.501199,14.0361237 100.687244,14.9296896 C99.8737081,15.8236755 98.0361239,18.1894417 98.0361239,18.1894417" id="Fill-53" fill="#E55D8C"></path>
                    <polygon id="Fill-54" fill="#FB3377" points="133.055396 15.9814352 133.055396 11.0130742 148.727281 11.0130742"></polygon>
                    <polygon id="Fill-55" fill="#FB3377" points="153.728345 15.9814352 153.728345 11.0130742 167.077039 11.0130742"></polygon>
                    <polygon id="Fill-56" fill="#FB3377" points="172.471662 15.9814352 172.471662 11.0130742 187.474266 11.0130742"></polygon>
                    <path d="M178.26022,35.5385618 L173.508165,36.0076 C170.071605,36.3468863 167.731223,39.6528283 168.551049,43.0116788 C169.77932,48.0459655 171.510389,54.4609123 172.668629,55.9230348 C174.63747,58.4076352 178.26022,35.5385618 178.26022,35.5385618" id="Fill-57" fill="#21478C"></path>
                    <path d="M150.717172,39.5340361 C150.717172,39.5340361 147.335967,39.3236618 145.445964,41.3215879 C143.555961,43.319514 142.190983,55.2008336 143.241031,57.9344399 C144.291079,60.6684662 156.806529,39.4030245 150.717172,39.5340361" id="Fill-58" fill="#21478C"></path>
                    <path d="M202.492722,35.2712059 C201.173452,34.0622884 199.452027,33.3933737 197.663926,33.3933737 L182.921737,33.3933737 C184.332005,35.247691 186.346555,37.029364 189.17422,37.904454 C196.478429,40.1648231 197.73857,42.4428284 198.998712,45.8251938 C200.258853,49.2075592 197.73857,58.6706241 202.569043,59.9320301 C204.535787,60.4459985 205.439482,62.5115299 205.821089,64.7790374 L226.859793,64.7790374 C221.318525,53.1769572 207.719898,40.0615255 202.492722,35.2712059" id="Fill-59" fill="#0E244C"></path>
                    <path d="M163.012171,54.7143273 L159.680448,42.5327728 C159.116844,40.4731201 157.56903,38.8900639 155.629125,38.2345863 C156.8033,39.304094 157.680576,40.7536192 157.62648,42.6881391 C157.468805,48.3136574 153.374289,50.0487205 156.366339,54.14913 C159.359228,58.2499594 157.548062,57.3039049 153.728219,59.9850226 C150.724008,62.0938046 146.966228,60.7698322 145.651571,62.5334491 C146.066725,62.6195304 146.496977,62.6661403 146.939389,62.6661403 L156.953426,62.6661403 C161.098265,62.6661403 164.10667,58.7173179 163.012171,54.7143273" id="Fill-60" fill="#1E1240"></path>
                    <path d="M155.955336,44.5284734 L155.955336,44.5284734 C154.079171,44.5284734 152.544776,46.0653396 152.544776,47.9435917 L152.544776,57.8320242 C152.544776,59.7098564 154.079171,61.2467226 155.955336,61.2467226 C157.83108,61.2467226 159.365895,59.7098564 159.365895,57.8320242 L159.365895,47.9435917 C159.365895,46.0653396 157.83108,44.5284734 155.955336,44.5284734" id="Fill-61" fill="#FFE6E6"></path>
                </g>
                <g id="Group-161" transform="translate(24.422111, 74.752643)">
                    <path d="M179.180523,41.2588571 C179.180523,46.8684923 176.32247,51.4163363 172.797767,51.4163363 C169.272494,51.4163363 166.415012,46.8684923 166.415012,41.2588571 C166.415012,35.649222 169.272494,31.101378 172.797767,31.101378 C176.32247,31.101378 179.180523,35.649222 179.180523,41.2588571" id="Fill-28" fill="#FFFFFF"></path>
                    <path d="M172.797653,31.1014921 C172.289403,31.1014921 171.795967,31.199056 171.322474,31.3770672 C174.136083,32.4371467 176.230051,36.4578036 176.230051,41.2589713 C176.230051,46.0601389 174.136083,50.0807958 171.322474,51.1403048 C171.795967,51.3188866 172.289403,51.4158798 172.797653,51.4158798 C176.322926,51.4158798 179.180409,46.8686064 179.180409,41.2589713 C179.180409,35.6493361 176.322926,31.1014921 172.797653,31.1014921" id="Fill-29" fill="#FFE6E6"></path>
                    <path d="M77.1332416,45.0119838 C77.1332416,45.0119838 80.1605207,42.5808756 81.4351345,43.9958365 C82.7097483,45.4107973 78.4870558,47.812237 77.9258155,47.2473937 C77.3645752,46.6819799 77.1332416,45.0119838 77.1332416,45.0119838" id="Fill-60" fill="#311E69"></path>
                    <path d="M196.923181,14.3160054 C196.923181,14.3160054 199.09407,10.4876234 197.875296,7.67139481 C196.657661,4.8545957 193.467992,4.8323443 191.652081,5.71954758 C189.836169,6.60675087 188.772376,9.85659646 187.820262,10.9041239 C186.868148,11.9510809 183.75654,12.4257774 184.055109,14.9618665 C184.808937,21.3605706 193.800178,20.8716103 196.923181,14.3160054" id="Fill-61" fill="#163774"></path>
                    <path d="M197.025857,6.39325153 C196.664042,6.92614405 196.208213,7.49840443 195.631588,8.10775048 C193.023672,10.8617892 189.81748,10.478951 188.37193,10.1126587 C188.181621,10.4338777 187.998719,10.7077411 187.820376,10.9040098 C186.867692,11.9515373 183.756084,12.4262339 184.055223,14.9617524 C184.809051,21.3604565 193.800292,20.8714962 196.923295,14.3158913 C196.923295,14.3158913 199.093615,10.4875093 197.87541,7.6712807 C197.652053,7.15436354 197.361462,6.73329858 197.025857,6.39325153" id="Fill-62" fill="#0E244C"></path>
                    <path d="M200.800412,15.3322668 C206.156981,17.9887417 210.384801,24.9043629 212.307833,25.0566994 C214.946517,25.2655203 224.563954,19.6941119 226.55764,17.8244237 C228.550755,15.955306 231.601395,20.4569355 229.476659,24.7212168 C227.351923,28.985498 220.34696,34.9933762 212.688451,34.9933762 C202.020896,34.9933762 196.353793,21.5090274 196.353793,21.5090274 C196.353793,21.5090274 197.614162,13.7518468 200.800412,15.3322668" id="Fill-63" fill="#BA104A"></path>
                    <path d="M197.419523,23.6403693 C199.522038,27.4407944 204.704821,34.993148 212.688109,34.993148 C220.347188,34.993148 227.352151,28.9852698 229.476317,24.7215591 C231.174283,21.3148126 229.567483,17.7585823 227.83647,17.4196764 C227.35386,17.9217593 226.965835,18.3411126 226.892902,18.4672039 C226.674674,18.8426249 226.193204,22.1763412 225.733955,24.7004488 C225.274707,27.225127 221.297023,29.7851791 217.574603,29.9922883 C213.851614,30.1999681 214.361574,30.9587979 211.557081,30.7037626 C208.752019,30.4487273 208.089357,27.8955217 206.10023,24.7004488 C204.111103,21.506517 198.054836,18.0398629 198.054836,18.0398629 L197.419523,23.6403693 Z" id="Fill-64" fill="#930C3A"></path>
                    <path d="M226.516786,17.5275672 C226.476901,17.2223236 226.755527,16.3807642 227.022187,15.9385889 C227.532147,15.0918946 227.127028,14.7404366 227.069479,14.3661566 C227.011931,13.9924472 227.644964,14.0409438 227.92416,14.8328655 C228.102503,15.3400833 227.859774,15.9842328 228.242101,15.6242166 C228.624428,15.2636298 229.329825,12.1130597 229.805597,13.4504259 C229.873402,13.6392775 230.031233,14.446604 230.031233,14.446604 C230.031233,14.446604 230.189634,15.1341152 230.156016,15.5791432 C230.098468,16.320286 229.484807,17.4807822 228.518448,18.3291881 C228.044955,18.7456887 226.740712,19.2289435 226.516786,17.5275672" id="Fill-65" fill="#F39B9B"></path>
                    <path d="M161.148469,91.1049615 C162.408838,91.0393484 163.44699,90.5013209 164.253809,89.9986675 L166.36601,92.7949269 C166.36601,92.7949269 165.264611,93.3301016 164.871458,94.3685003 C164.699952,94.821516 165.860039,100.786603 165.45549,101.180852 C164.780862,101.838124 158.97758,94.1060479 158.730862,92.2780097 C158.60209,91.32177 159.766735,91.1762801 161.148469,91.1049615" id="Fill-66" fill="#0E244C"></path>
                    <path d="M190.557064,114.00268 C191.260751,112.953441 191.453909,111.799221 191.535388,110.850969 L195.0373,110.836134 C195.0373,110.836134 194.804257,112.039992 195.397975,112.977404 C195.657228,113.386487 201.119208,116.035545 201.192141,116.596394 C201.312366,117.530953 191.652764,117.542364 190.044255,116.643179 C189.20268,116.173047 189.785572,115.152906 190.557064,114.00268" id="Fill-67" fill="#0E244C"></path>
                    <path d="M194.825453,112.033031 C194.240282,112.184227 192.356565,112.19792 190.375985,111.756886 C188.340706,111.302729 187.132757,109.196834 187.772058,107.209042 C189.884829,100.642026 194.988412,87.1205915 198.622515,81.2011483 C200.421333,78.27081 198.619096,54.6112951 198.34047,47.4024118 C198.101159,40.3070677 206.845113,39.496318 209.678664,38.4402323 C217.472782,62.407273 205.768785,109.216232 194.825453,112.033031" id="Fill-68" fill="#BA104A"></path>
                    <path d="M183.279173,74.1344458 C184.841529,73.6546143 182.867786,65.4803626 183.508797,56.1342038 C183.834145,51.3940849 184.844948,43.5210829 186.721826,41.1213549 C190.631706,36.1210658 196.80421,44.3797587 199.899294,44.2433976 C201.698681,70.0749916 193.605995,90.4498575 170.172929,96.4537418 C165.721182,97.5942687 163.283632,90.5354398 163.283632,90.5354398 C163.283632,90.5354398 173.935803,77.0025943 183.279173,74.1344458" id="Fill-69" fill="#BA104A"></path>
                    <path d="M186.721542,41.1211837 C186.148336,41.8543389 185.65604,43.0998467 185.238955,44.6095187 C187.748298,45.9297685 193.81995,48.2787176 199.899009,44.243797 C196.804495,44.3795876 190.631421,36.1208946 186.721542,41.1211837" id="Fill-70" fill="#1E1240"></path>
                    <path d="M187.219023,42.0778799 C186.211069,41.4246015 186.000248,40.0438736 186.750658,39.1053209 C188.495916,36.9235426 190.581906,33.6200654 190.699283,33.0392468 C191.582453,28.6659907 185.119927,25.3008943 189.589337,19.8909512 C191.515218,17.559689 194.058178,15.1456973 199.488819,15.1474081 C200.540646,15.1474081 201.071688,16.0357534 202.0295,17.1192254 C202.607264,17.7719332 204.373604,18.4959595 204.831143,19.022576 C207.131944,21.6727749 206.120571,28.9398541 209.3638,36.3718219 C212.815001,43.5362024 195.289488,47.3086707 187.219023,42.0778799" id="Fill-71" fill="#BA104A"></path>
                    <path d="M203.95954,31.6965744 C205.934422,33.2730006 208.283085,34.5042448 210.992992,34.875672 C210.123497,27.8145609 204.774335,21.763321 204.774335,21.763321 L203.95954,31.6965744 Z" id="Fill-72" fill="#1E1240"></path>
                    <path d="M209.363914,36.3718219 C206.120685,28.9398541 207.132058,21.6727749 204.830687,19.022576 C204.373718,18.4959595 202.607378,17.7719332 202.029044,17.1192254 C201.071802,16.0357534 200.54076,15.1474067 199.488363,15.1474067 C198.366452,15.1468384 197.373313,15.2541016 196.477608,15.4383889 C198.18583,17.7599517 200.399453,21.2077777 201.512247,24.7548791 C203.474024,31.0103755 201.890586,35.5279804 202.14642,39.5115516 C202.22733,40.7639061 202.358381,42.3340562 202.500258,43.8979303 C207.517803,42.7283054 211.102334,39.9805427 209.363914,36.3718219" id="Fill-73" fill="#930C3A"></path>
                    <path d="M190.211773,19.1656696 C190.211773,19.1656696 174.328956,34.7393679 172.646375,44.5180027 C170.963793,54.2954964 170.045296,57.6640161 174.635502,57.6640161 C176.498706,57.6640161 179.865008,55.2911039 180.539636,44.9504786 L190.346812,30.7055883 C192.155886,28.0776409 192.510294,24.7108328 191.28867,21.763378 L190.211773,19.1656696 Z" id="Fill-74" fill="#BA104A"></path>
                    <path d="M191.288499,21.7632069 C189.362049,24.4339455 186.939314,27.8869064 186.261837,29.2739104 C185.089785,31.6742089 178.154336,38.2611941 177.899071,39.1289987 C177.644377,39.9973739 175.604539,47.7591189 175.501977,49.4450904 C175.4393,50.4857713 174.305994,54.5828818 173.449034,57.5639989 C173.795464,57.6307531 174.188618,57.6638449 174.635331,57.6638449 C176.498535,57.6638449 179.865407,55.2915033 180.539465,44.950878 L190.346641,30.7054172 C192.155715,28.0774697 192.510693,24.7106616 191.288499,21.7632069" id="Fill-75" fill="#930C3A"></path>
                    <polygon id="Fill-76" fill="#DDBCBC" points="198.344344 21.0433455 202.45137 19.3191472 203.170442 21.2926753 199.165978 22.8970584"></polygon>
                    <path d="M193.57346,21.7632069 C193.427025,21.7632069 193.294264,21.6610786 193.261786,21.5121654 C193.153527,21.0186408 192.245856,16.6556546 193.630439,15.2389821 C193.89368,14.9696831 194.368883,14.6787032 195.138665,14.8321808 C195.31188,14.8658432 195.424698,15.0341551 195.389941,15.2076019 C195.355754,15.3810487 195.187097,15.4940174 195.014451,15.4597844 C194.61674,15.3816193 194.313044,15.45522 194.087408,15.6868628 C193.11763,16.6784765 193.613345,20.1291553 193.886273,21.3746632 C193.923879,21.5475394 193.81505,21.7181335 193.642404,21.7557897 C193.619043,21.7609247 193.596251,21.7632069 193.57346,21.7632069" id="Fill-77" fill="#163774"></path>
                    <path d="M201.82677,25.0210401 C201.673497,25.0210401 201.538457,24.9109242 201.512247,24.7545939 C201.507689,24.7317719 201.10257,22.3993687 200.083221,19.1403943 C199.117432,16.052014 196.073629,15.6235319 196.04343,15.6195381 C195.867936,15.5972867 195.744292,15.4369625 195.767083,15.261804 C195.789875,15.0866456 195.951694,14.9622659 196.12491,14.9850879 C196.266787,15.0033454 199.606309,15.4740481 200.693463,18.9492605 C201.726487,22.2515966 202.137873,24.6233677 202.142432,24.6467602 C202.172061,24.8207775 202.055254,24.9862367 201.880899,25.0159052 C201.862666,25.0193285 201.844433,25.0210401 201.82677,25.0210401" id="Fill-78" fill="#163774"></path>
                    <path d="M194.163019,12.5497577 L194.21145,17.195736 C194.222846,17.9597008 196.147587,19.8818795 197.330465,18.8857014 C197.676896,18.5947215 197.246137,17.0125899 196.895148,16.2269443 L195.838763,12.8002286 L194.163019,12.5497577 Z" id="Fill-79" fill="#F39B9B"></path>
                    <path d="M194.204442,16.5006935 C194.816393,16.1886034 195.970212,15.440614 195.810672,14.2932405 C195.677342,13.3352892 194.818103,13.6987287 194.179371,14.1169409 L194.204442,16.5006935 Z" id="Fill-80" fill="#311E69"></path>
                    <path d="M195.281967,10.2310476 L195.991921,11.8902033 C196.554301,13.2053182 196.025539,14.7868793 194.724145,15.3773972 C193.522464,15.9222712 192.121927,15.5063412 191.531058,13.9618658 C191.005144,12.5879844 191.698005,11.1108337 191.898571,10.3776786 C192.35497,8.70711193 194.326434,8.38304025 195.281967,10.2310476" id="Fill-81" fill="#F39B9B"></path>
                    <path d="M195.655633,11.9040106 C195.675575,11.7465391 195.671017,11.5879266 195.657342,11.4298846 C195.631132,11.129776 195.661331,10.6773308 196.125707,10.8576242 C196.800905,11.1195061 196.853326,12.7273124 196.122289,12.9144524 C195.579851,13.0530958 195.606061,12.300542 195.655633,11.9040106" id="Fill-82" fill="#F39B9B"></path>
                    <path d="M191.894696,12.2973469 C191.834299,12.1507159 191.796123,11.9972383 191.767633,11.8409079 C191.713504,11.5447931 191.56365,11.116311 191.163659,11.4135669 C190.582476,11.8460428 190.959105,13.4099169 191.712934,13.3956532 C192.273035,13.3848128 192.047969,12.6664919 191.894696,12.2973469" id="Fill-83" fill="#F39B9B"></path>
                    <path d="M192.612514,13.7616032 C192.612514,13.7616032 193.466625,13.9955282 194.333271,13.6389352 C194.333271,13.6389352 194.256919,13.4894514 193.812486,13.3713478 C193.283153,13.2315634 192.855813,13.3017409 192.612514,13.7616032" id="Fill-84" fill="#FFFFFF"></path>
                    <path d="M194.427856,14.8536905 C193.914477,15.0020332 192.94299,15.0317017 192.484312,14.8120404 C192.078053,14.6180539 191.607409,14.0189777 191.505987,13.8848988 C191.514534,13.9105734 191.520802,13.9362481 191.531058,13.9619228 C192.121927,15.5063983 193.522464,15.9223283 194.724145,15.3774542 C195.525835,15.0134442 196.033516,14.2723013 196.173683,13.4501406 C195.638653,14.2934116 194.889953,14.7213232 194.427856,14.8536905" id="Fill-85" fill="#C87171"></path>
                    <path d="M52.3644807,114.120783 C52.1661948,113.804699 52.0442604,111.93387 51.9798744,111.609228 C49.9576999,111.895073 49.1423345,111.389567 47.8301147,111.917324 C47.6728534,112.688136 45.3350168,117.708964 46.2854217,118.24528 C48.1024729,119.271127 58.9062069,119.312777 58.9067767,118.24528 C58.9079162,116.812062 52.655642,114.58464 52.3644807,114.120783" id="Fill-86" fill="#0E244C"></path>
                    <path d="M7.72074676,95.0569814 C7.789691,94.6901186 8.97028995,93.2357899 9.14350524,92.9527977 C7.46662169,91.7865961 7.21078727,90.861166 5.89059047,90.3545188 C5.25185908,90.8132399 0.128333133,92.9054422 0.461658609,93.9455525 C1.09868063,95.9344854 8.99536058,103.317957 9.72012982,102.535164 C10.693896,101.485354 7.61932464,95.5955794 7.72074676,95.0569814" id="Fill-87" fill="#0E244C"></path>
                    <path d="M63.2176722,19.1417066 C63.2176722,19.1417066 67.1007715,31.5465772 68.2072982,35.2231932 C70.4334565,42.6214987 78.0988029,51.8917745 77.0276031,54.5493905 C75.956973,57.206436 68.8927521,57.7895368 65.6552216,54.5493905 C62.4171213,51.3086737 56.4508801,35.3761003 57.139183,27.2571918 C57.8274859,19.1377127 63.2176722,19.1417066 63.2176722,19.1417066" id="Fill-88" fill="#930C3A"></path>
                    <path d="M60.6809229,44.8771061 C61.0131088,43.1483434 61.4239253,40.6932722 61.2313372,39.9720986 C60.9259313,38.8230134 62.1498341,38.057337 62.9144884,35.4910088 C63.6797126,32.9252511 61.2313372,22.6228526 61.2313372,22.6228526 L57.4046468,32.5983267 C57.9721548,36.5014506 59.2319542,40.9608595 60.6809229,44.8771061" id="Fill-89" fill="#1E1240"></path>
                    <path d="M56.306781,2.25477628 C56.306781,2.25477628 55.1757535,0.524872514 53.0060041,0.603608239 C50.8356849,0.682343965 49.181023,2.98621976 49.5872812,5.90229434 C49.810068,7.5032541 50.6408177,8.49429725 50.6408177,8.49429725 C50.6408177,8.49429725 55.5273122,9.31588743 56.4663214,6.90474847 C57.4059004,4.49360952 56.306781,2.25477628 56.306781,2.25477628" id="Fill-90" fill="#163774"></path>
                    <path d="M3.59258196,85.3432181 C7.62895405,79.4197811 17.5426805,71.7002567 22.6667762,71.2455294 C28.8540947,70.6966615 29.4951053,53.5328439 32.3628439,45.6969275 C33.4767778,42.65305 35.47844,41.5387684 35.7787178,40.7799385 C39.030493,41.4771491 47.4627729,43.0279006 55.9605783,42.4750388 C56.6836382,45.0744589 58.0123818,45.789927 58.1263392,48.453819 C58.5468421,58.2472881 58.1821783,94.4874026 52.8552384,111.181659 C51.9430092,114.041819 46.8776015,113.254462 45.2058461,111.896556 C40.8407068,108.352307 40.7347264,99.0677679 41.5381262,90.5243711 C42.0327015,85.2633412 42.8127401,82.6525102 43.8668463,80.1523657 C45.6656643,75.8852317 44.5517304,57.4690596 44.5517304,57.4690596 C42.895929,61.6409119 38.066983,75.9850777 32.4614171,80.8136316 C21.4924449,90.2619187 10.696688,96.8426278 4.86263749,92.185809 C2.96239738,90.6692905 2.19546389,87.3931997 3.59258196,85.3432181" id="Fill-91" fill="#BA104A"></path>
                    <path d="M42.8105179,51.1715709 L33.0289821,44.2468209 C32.7891017,44.675303 32.5611869,45.1545639 32.3629009,45.6965852 C31.9116295,46.9301116 31.5156275,48.3947102 31.1441262,49.9888233 C33.112171,51.4842316 36.8254738,53.0726393 42.8105179,51.1715709" id="Fill-92" fill="#1E1240"></path>
                    <path d="M55.9606923,42.4751529 C55.0695452,42.5333489 54.1789679,42.5664407 53.2946582,42.5818455 C51.9442627,44.9484817 50.8867378,47.1713396 50.6969987,48.598282 C50.1015711,53.0702429 53.0279978,69.1043741 52.4827116,74.8235546 C51.9374253,80.5433057 47.8577494,89.4284611 47.8577494,97.8029754 C47.8577494,99.8472516 48.3745463,107.026466 49.4503044,113.118215 C50.9887297,113.097675 52.412058,112.570488 52.8553523,111.181773 C58.1817225,94.4875167 58.5469561,58.2474022 58.1264532,48.4539331 C58.0124957,45.7900411 56.6837521,45.074573 55.9606923,42.4751529" id="Fill-93" fill="#930C3A"></path>
                    <path d="M58.5408594,48.6325149 C58.9750372,27.5632912 67.0853873,24.248403 62.1390651,17.2026967 C58.4542517,11.9536483 51.8002775,9.333118 46.7627894,10.299057 C32.2634161,13.079341 29.9500803,43.3851782 31.3346631,46.4319084 C34.3613723,53.0919238 56.1506023,51.9919058 58.5408594,48.6325149" id="Fill-94" fill="#BA104A"></path>
                    <path d="M37.5563967,22.6229667 C37.5563967,22.6229667 35.9883425,28.0232105 35.8732455,32.5037297 C35.7587183,36.9848195 35.6510285,45.5253635 45.2092078,49.546591 C54.7679568,53.5678185 37.5563967,22.6229667 37.5563967,22.6229667" id="Fill-95" fill="#1E1240"></path>
                    <path d="M62.139293,17.2027538 C60.3062878,14.5924933 57.7393968,12.6326584 55.0021393,11.4402115 C55.4511316,13.4525369 56.186157,16.9248965 56.507517,19.4444397 C56.9861382,23.1975093 54.4352011,27.9461864 54.333779,31.8527336 C54.2323569,35.7592808 50.8666243,41.8105207 49.8723457,47.1719672 C49.6695015,48.2651386 49.4091088,49.6675473 49.1236454,51.2080289 C53.707583,50.9136258 57.6060666,49.9459751 58.5410873,48.6325719 C58.9752651,27.5633482 67.0856152,24.2484601 62.139293,17.2027538" id="Fill-96" fill="#930C3A"></path>
                    <path d="M203.053977,40.5651269 C202.739455,42.1238661 202.523505,43.3551102 202.500144,43.8982726 C202.40271,46.1764737 205.156492,49.8530898 206.763291,55.3680139 C208.369521,60.8829379 204.315486,63.8703311 205.386116,69.921571 C206.457316,75.9728109 206.610019,73.1388953 204.468189,79.8787875 C202.326359,86.6198208 194.218288,96.3476768 193.759039,102.781755 C193.426854,107.436291 191.254825,109.685395 190.830903,111.849486 C192.638268,112.194097 194.284953,112.172417 194.825681,112.033203 C205.769013,109.215833 217.472441,62.4074442 209.678892,38.4398329 C208.298868,38.9544679 205.517167,39.4126185 203.053977,40.5651269" id="Fill-97" fill="#930C3A"></path>
                    <path d="M49.1900256,17.5548964 C48.5757951,25.3137887 47.3610089,30.2439003 49.1900256,36.4138143 C51.8190235,45.2778595 65.3565961,50.6980725 68.2072412,52.8661577 C69.6841294,53.9889976 67.717794,60.9325757 62.0119456,59.2129418 C56.6901337,57.6079882 37.7857361,51.3005719 36.9447302,31.6229166 C36.6581273,24.9229628 37.6620923,19.0269122 39.3720235,15.9995806 C42.7331978,10.0504689 49.510246,13.5062826 49.1900256,17.5548964" id="Fill-98" fill="#BA104A"></path>
                    <path d="M56.6323004,3.19863505 C56.8590756,4.07499791 57.0305816,5.45686695 56.4664923,6.90491964 C55.5274831,9.31605859 50.6409886,8.49446841 50.6409886,8.49446841 C50.6409886,8.49446841 49.8102389,7.50342526 49.5868824,5.90246551 C49.451273,4.92739772 49.5498462,4.02421907 49.8170764,3.24656115 C52.3514896,5.12195484 55.1297717,4.058452 56.6323004,3.19863505" id="Fill-99" fill="#0E244C"></path>
                    <path d="M51.9830082,6.06809581 L49.191621,11.1145994 C49.122107,12.3606778 51.3231947,14.2731572 53.0416727,13.1834091 C53.4234301,12.9409259 53.9208543,7.65479184 53.9208543,7.65479184 L51.9830082,6.06809581 Z" id="Fill-100" fill="#F39B9B"></path>
                    <path d="M53.7638779,9.15624789 C53.707469,9.66175407 53.6385248,10.2380083 53.5627431,10.7954344 C52.7792858,10.5289881 51.713214,10.0177765 51.6135013,9.19048082 C51.5080907,8.31126521 52.8510789,8.75800487 53.7638779,9.15624789" id="Fill-101" fill="#311E69"></path>
                    <path d="M52.9465183,4.29682726 L51.426896,7.08966332 C50.9995556,8.04875574 51.4098024,9.17673059 52.3562188,9.62974629 C53.1123263,9.99204473 53.6279837,10.0884675 54.668415,10.15351 C55.5362008,10.2071416 56.1213722,9.47227484 56.3264956,8.35913425 C56.5925862,6.91450486 56.4273479,5.50867277 56.2968667,4.76125393 C56.0000076,3.05702486 54.0701385,2.54923648 52.9465183,4.29682726" id="Fill-102" fill="#F39B9B"></path>
                    <path d="M54.5715512,8.00567931 C54.5715512,8.00567931 55.7447429,7.68959531 56.1857582,8.07300406 C56.1857582,8.07300406 55.7134046,8.4598361 54.5715512,8.00567931" id="Fill-103" fill="#FFFFFF"></path>
                    <path d="M52.3714321,8.59214636 C52.1036322,8.27948565 51.4780059,7.40711663 51.4603425,7.02827227 L51.4272948,7.08932099 C50.9999545,8.04841341 51.4102012,9.17638826 52.3560479,9.62997451 C53.1121554,9.99227295 53.6278128,10.0886957 54.6688139,10.1531677 C55.1975763,10.1862595 55.6209282,9.92437765 55.9183571,9.46337428 C55.7440022,9.45938043 53.8078655,10.2684185 52.3714321,8.59214636" id="Fill-104" fill="#C87171"></path>
                    <path d="M52.7845848,5.93162055 C52.738432,5.56019332 52.4512593,4.76370729 51.9338926,5.10318379 C51.1817736,5.59727899 51.3715127,7.12977289 52.3071032,7.16685856 C53.0022435,7.19367435 52.8085158,6.12731877 52.7845848,5.93162055" id="Fill-105" fill="#F39B9B"></path>
                    <path d="M56.4787427,4.77352073 C55.5824675,5.32410026 54.2206763,6.11887464 52.355763,5.60823353 C50.4902799,5.09816296 50.7837203,4.16873907 50.7837203,4.16873907 C50.7837203,4.16873907 52.3004936,4.32449887 52.6907978,3.45897644 C53.0805322,2.59345401 55.8724892,1.57331287 56.7459729,2.53811078 C57.6200264,3.50290869 56.7596478,4.60121501 56.4787427,4.77352073" id="Fill-106" fill="#163774"></path>
                    <path d="M108.884402,114.767672 C108.884402,117.121756 106.978464,119.030812 104.627522,119.030812 C102.276581,119.030812 100.371212,117.121756 100.371212,114.767672 C100.371212,112.413587 102.276581,110.505102 104.627522,110.505102 C106.978464,110.505102 108.884402,112.413587 108.884402,114.767672" id="Fill-107" fill="#0E244C"></path>
                    <path d="M138.822728,85.8803326 L167.274479,61.3912398 C168.010074,60.7579307 168.093832,59.6476429 167.461369,58.9110645 C166.829475,58.174486 165.720669,58.0906154 164.985074,58.7239245 L136.128774,83.5621931 L107.272474,58.7239245 C106.536879,58.0911859 105.428073,58.1750566 104.796179,58.9110645 C104.163716,59.6476429 104.247474,60.7579307 104.983069,61.3912398 L133.43482,85.8803326 L104.983069,110.369996 C104.247474,111.002735 104.163716,112.113593 104.796179,112.850171 C105.14318,113.25469 105.634336,113.4618 106.128911,113.4618 C106.53403,113.4618 106.940858,113.322015 107.272474,113.036741 L136.128774,88.1990427 L164.985074,113.036741 C165.31669,113.322015 165.723518,113.4618 166.128637,113.4618 C166.623212,113.4618 167.114368,113.25469 167.461369,112.850171 C168.093832,112.113593 168.010074,111.002735 167.274479,110.369996 L138.822728,85.8803326 Z" id="Fill-108" fill="#163774"></path>
                    <path d="M101.298256,111.776741 L101.298256,111.866888 C101.298256,112.423173 101.446401,112.969188 101.727876,113.449019 L102.266894,114.367603 C103.587661,116.617847 105.808121,116.572203 107.092421,114.267186 L107.662778,113.244192 C107.855936,112.89844 107.957358,112.508184 107.957358,112.112224 L107.957358,109.944709 L103.127843,109.944709 C102.11704,109.944709 101.298256,110.765158 101.298256,111.776741" id="Fill-109" fill="#163774"></path>
                    <path d="M162.714244,114.767672 C162.714244,117.121756 164.620182,119.030812 166.971124,119.030812 C169.322066,119.030812 171.228004,117.121756 171.228004,114.767672 C171.228004,112.413587 169.322066,110.505102 166.971124,110.505102 C164.620182,110.505102 162.714244,112.413587 162.714244,114.767672" id="Fill-110" fill="#0E244C"></path>
                    <path d="M170.300675,111.776741 L170.300675,111.866888 C170.300675,112.423173 170.15253,112.969188 169.871056,113.449019 L169.332037,114.367603 C168.01127,116.617847 165.79081,116.572203 164.50651,114.267186 L163.936153,113.244192 C163.742995,112.89844 163.641573,112.508184 163.641573,112.112224 L163.641573,109.944709 L168.471089,109.944709 C169.481891,109.944709 170.300675,110.765158 170.300675,111.776741" id="Fill-111" fill="#163774"></path>
                    <path d="M157.038651,113.461685 C156.633533,113.461685 156.226135,113.321901 155.894519,113.036627 L95.8925145,61.3911257 C95.1569193,60.7578166 95.0731606,59.6480993 95.7056243,58.9115209 C96.3375183,58.175513 97.4468938,58.0910718 98.1819192,58.7243809 L158.183924,110.369882 C158.919519,111.00262 159.003278,112.113479 158.370814,112.850057 C158.023813,113.254576 157.532657,113.461685 157.038651,113.461685" id="Fill-112" fill="#163774"></path>
                    <path d="M99.7942459,114.767672 C99.7942459,117.121756 97.8883079,119.030812 95.5373662,119.030812 C93.1864244,119.030812 91.2804865,117.121756 91.2804865,114.767672 C91.2804865,112.413587 93.1864244,110.505102 95.5373662,110.505102 C97.8883079,110.505102 99.7942459,112.413587 99.7942459,114.767672" id="Fill-113" fill="#0E244C"></path>
                    <path d="M97.0382425,113.461685 C96.544237,113.461685 96.0530805,113.254576 95.7055104,112.850057 C95.0730466,112.113479 95.1568053,111.00262 95.8924005,110.369882 L155.894405,58.7243809 C156.63057,58.0905013 157.739376,58.1749425 158.37127,58.9115209 C159.003164,59.6480993 158.919405,60.7578166 158.18381,61.3911257 L98.1818053,113.036627 C97.8507589,113.321901 97.4433611,113.461685 97.0382425,113.461685" id="Fill-114" fill="#163774"></path>
                    <path d="M92.207815,111.776741 L92.207815,111.866888 C92.207815,112.423173 92.3565295,112.969188 92.6374345,113.449019 L93.1764532,114.367603 C94.4972198,116.617847 96.7176802,116.572203 98.0019804,114.267186 L98.5723374,113.244192 C98.7654952,112.89844 98.8669173,112.508184 98.8669173,112.112224 L98.8669173,109.944709 L94.0374015,109.944709 C93.0265992,109.944709 92.207815,110.765158 92.207815,111.776741" id="Fill-115" fill="#163774"></path>
                    <path d="M153.624088,114.767672 C153.624088,117.121756 155.530026,119.030812 157.880968,119.030812 C160.23191,119.030812 162.137278,117.121756 162.137278,114.767672 C162.137278,112.413587 160.23191,110.505102 157.880968,110.505102 C155.530026,110.505102 153.624088,112.413587 153.624088,114.767672" id="Fill-116" fill="#0E244C"></path>
                    <path d="M161.210234,111.776741 L161.210234,111.866888 C161.210234,112.423173 161.062089,112.969188 160.780615,113.449019 L160.241596,114.367603 C158.920829,116.617847 156.700369,116.572203 155.416069,114.267186 L154.845712,113.244192 C154.652554,112.89844 154.551132,112.508184 154.551132,112.112224 L154.551132,109.944709 L159.381217,109.944709 C160.39145,109.944709 161.210234,110.765158 161.210234,111.776741" id="Fill-117" fill="#163774"></path>
                    <path d="M70.2807536,58.5430035 L68.5001687,57.6637879 C68.5001687,57.6637879 65.865473,54.5520151 76.4025466,53.6727995 C86.9396201,52.7935839 183.162423,55.4654636 186.345254,56.6379412 C189.528085,57.8104189 189.526376,60.1548037 189.526376,60.1548037 L70.2807536,58.5430035 Z" id="Fill-118" fill="#BA104A"></path>
                    <path d="M68.2072412,52.8659294 C68.0801786,52.7689362 67.9246268,52.6639552 67.7565396,52.5538393 C64.8825332,52.7061758 64.2392435,55.4322577 63.0341437,55.6747409 C61.5093934,55.9811255 56.2041053,49.1345407 52.0178792,48.5987955 C47.8316531,48.0619091 45.0528012,44.6443222 45.5120497,42.3467224 C45.9707283,40.0485521 42.3759413,35.7597373 41.1520385,33.0393609 C39.9281357,30.3189845 42.3759413,23.3508728 42.6049957,21.2826337 C42.7565591,19.9190222 41.9104252,16.159106 41.3161372,13.7542431 C40.6050428,14.2654548 39.9395314,14.9957571 39.3720235,15.9999229 C37.6620923,19.026684 36.6581273,24.9227346 36.9447302,31.6232589 C37.7857361,51.3009143 56.6901337,57.6083305 62.0119456,59.2127136 C67.717794,60.932918 69.6841294,53.9893399 68.2072412,52.8659294" id="Fill-119" fill="#930C3A"></path>
                    <path d="M94.5011513,50.7397225 C94.5011513,50.7397225 89.2237828,47.5035701 84.5190504,47.8681507 C79.814318,48.2327314 75.0714099,48.9721625 74.7654342,53.9450653 C74.4594585,58.9179681 96.0692055,57.5212648 96.9871326,55.9180229 C97.9050597,54.3153515 94.5011513,50.7397225 94.5011513,50.7397225" id="Fill-120" fill="#2E88BF"></path>
                    <path d="M132.646292,29.523012 C122.815755,29.1726951 115.785151,31.5718525 104.89253,30.8837707 C85.8764543,34.0235004 86.6319921,44.9683368 87.8456387,48.8914299 C87.9390837,49.1932502 88.0359476,49.4944999 88.139079,49.7957496 C90.5492786,56.8231984 98.8869738,56.976676 106.022988,54.9420992 C107.077664,54.6414201 108.10499,54.4280348 109.106106,54.2853976 C118.783941,55.185153 130.266291,56.2749011 133.635442,56.1248468 C138.605696,45.4008127 137.348175,31.841722 132.646292,29.523012" id="Fill-121" fill="#163774"></path>
                    <path d="M85.9532616,48.4731606 C85.9532616,48.4731606 83.8894926,51.6066143 81.0092186,52.2861378 C80.2314592,52.469284 79.2827636,47.4718476 79.2827636,47.4718476 C79.2827636,47.4718476 81.4975262,47.552295 82.8992025,47.9248633 C84.3003091,48.2974316 85.9532616,48.4731606 85.9532616,48.4731606" id="Fill-122" fill="#0E244C"></path>
                    <path d="M83.1627291,48.5628509 L90.2326479,48.3352019 C91.5893111,47.6242982 92.2183561,44.0977365 89.988779,42.9686205 C89.493634,42.7181496 83.6145703,45.5184028 83.6145703,45.5184028 L83.1627291,48.5628509 Z" id="Fill-123" fill="#F39B9B"></path>
                    <path d="M85.2941319,44.7394897 C85.8622096,44.4816017 86.5123368,44.1911924 87.1459401,43.9207523 C87.3590404,44.9157893 87.4918008,46.3627009 86.6827031,46.9885928 C85.8234641,47.6532821 85.4485442,45.9536174 85.2941319,44.7394897" id="Fill-124" fill="#0E244C"></path>
                    <path d="M80.2270148,48.1728238 L84.0764967,48.7912986 C85.3607969,48.8945679 86.4969525,47.9571563 86.6342712,46.6751333 C86.7436703,45.6498573 86.6439576,45.0131249 86.2929687,43.7801691 C86.0000981,42.7526108 84.9112349,42.3749075 83.5397573,42.5928571 C81.7608818,42.8752788 80.2030838,43.6420963 79.3922767,44.0985353 C77.544457,45.1409278 77.7467314,47.5857291 80.2270148,48.1728238" id="Fill-125" fill="#F39B9B"></path>
                    <path d="M83.1813611,42.7548359 C83.1813611,42.7548359 82.2799579,43.0001719 83.428079,44.3090107 C83.428079,44.3090107 83.3511577,43.6671434 83.1813611,42.7548359" id="Fill-126" fill="#FFFFFF"></path>
                    <path d="M85.3957249,47.8396233 C85.143879,48.2783753 84.4230983,48.602447 83.992909,48.778176 L84.0766677,48.7912986 C85.3609679,48.8945679 86.4971234,47.9571563 86.6338723,46.6751333 C86.7432715,45.6498573 86.6441285,45.0131249 86.2925699,43.7801691 C86.1142265,43.153136 85.6384542,42.7697272 84.9837688,42.6139674 C85.0504339,42.8176533 86.7455506,45.4889625 85.3957249,47.8396233" id="Fill-127" fill="#C87171"></path>
                    <path d="M78.4483673,44.6848882 C78.4483673,44.6848882 76.1994175,42.9544139 74.2695484,44.9034084 C73.2764094,45.906433 72.8245682,49.0267641 74.8119858,50.0925491 C76.2791877,50.8787653 77.6580725,50.34302 77.6580725,50.34302 C77.6580725,50.34302 77.2330113,51.1994136 77.9503733,51.8201707 C78.6677353,52.4403571 81.0289332,52.7467418 81.6938748,51.8498392 C82.7804589,50.3846701 78.4483673,44.6848882 78.4483673,44.6848882" id="Fill-128" fill="#0E244C"></path>
                    <path d="M82.1828662,47.6914518 C81.7720496,47.8968493 80.9692196,48.5564037 81.5731939,49.016266 C82.4523755,49.6860902 84.1463526,48.8399664 83.8061897,47.7393779 C83.5532042,46.9223521 82.3988155,47.5836181 82.1828662,47.6914518" id="Fill-129" fill="#F39B9B"></path>
                    <path d="M107.272417,58.7240956 C106.536822,58.0913571 105.428016,58.1752278 104.796122,58.9112356 C104.163659,59.647814 104.247417,60.7575313 104.983012,61.391411 L112.713315,68.0451503 L118.101222,68.0451503 L107.272417,58.7240956 Z" id="Fill-130" fill="#0E244C"></path>
                    <path d="M167.274479,61.3912969 C168.010074,60.7579878 168.093832,59.6476999 167.461369,58.9111215 C166.829475,58.1745431 165.720669,58.0906724 164.985074,58.7239815 L154.1557,68.0450362 L159.544176,68.0450362 L167.274479,61.3912969 Z" id="Fill-131" fill="#0E244C"></path>
                    <path d="M67.7465113,53.9892258 C67.7465113,53.9892258 70.3983006,54.5004375 70.959541,55.010508 C71.5202115,55.5217197 70.5316308,56.0996856 69.7350684,55.8281044 C68.9390758,55.5553821 70.0923249,57.2533351 70.9082601,57.6635597 C71.7241953,58.0743547 73.7133222,58.9547114 72.1321629,59.4853218 C70.5510036,60.0153615 65.6046814,57.9722265 65.6559623,56.3895243 C65.7066733,54.8068221 66.8143395,53.7861104 67.7465113,53.9892258" id="Fill-132" fill="#F39B9B"></path>
                    <path d="M46.043946,24.6348928 C46.043946,26.423563 44.5961168,27.8727568 42.8104039,27.8727568 C41.0246911,27.8727568 39.5768619,26.423563 39.5768619,24.6348928 C39.5768619,22.846793 41.0246911,21.3970287 42.8104039,21.3970287 C44.5961168,21.3970287 46.043946,22.846793 46.043946,24.6348928" id="Fill-133" fill="#DDBCBC"></path>
                    <polygon id="Fill-134" fill="#BA104A" points="45.2093218 23.7685145 43.6760246 23.7685145 43.6760246 22.2331678 41.9450112 22.2331678 41.9450112 23.7685145 40.411714 23.7685145 40.411714 25.5018416 41.9450112 25.5018416 41.9450112 27.0371882 43.6760246 27.0371882 43.6760246 25.5018416 45.2093218 25.5018416"></polygon>
                    <path d="M35.4146808,69.3087446 C34.1907781,75.8192762 32.2785724,75.8677729 28.9891913,77.7967982 C25.6998101,79.7258234 20.0389749,79.1136246 16.1376424,81.3342003 C13.0231859,83.1080363 5.81765771,87.4658876 3.03709648,89.1524296 C3.31743175,90.3471587 3.95958185,91.4654342 4.86212468,92.1860373 C10.696745,96.842856 21.4925019,90.2621469 32.4614741,80.8132893 C38.06704,75.9847354 42.895986,61.6411402 44.5517874,57.4687173 C44.5517874,57.4687173 36.6385836,62.798213 35.4146808,69.3087446" id="Fill-135" fill="#930C3A"></path>
                    <polygon id="Fill-136" fill="#DDBCBC" points="54.3336651 21.206066 60.2332411 21.8696142 59.7910863 24.6350639 54.087517 23.8984855"></polygon>
                    <path d="M203.065943,24.700677 C203.065943,25.3859061 202.51097,25.9416205 201.827225,25.9416205 C201.142911,25.9416205 200.587938,25.3859061 200.587938,24.700677 C200.587938,24.0160185 201.142911,23.4603041 201.827225,23.4603041 C202.51097,23.4603041 203.065943,24.0160185 203.065943,24.700677" id="Fill-137" fill="#163774"></path>
                    <path d="M192.626701,29.1324143 L192.667156,29.2550823 L193.993621,29.9551456 C194.040913,29.9802497 194.092194,29.9922313 194.142335,29.9922313 C194.257432,29.9922313 194.367971,29.9300415 194.425519,29.8216372 C194.508139,29.6653068 194.448311,29.4713203 194.292189,29.3885907 L193.195919,28.8100543 C193.037518,28.297131 192.44437,26.2631247 192.414741,24.5377854 L191.779428,24.6336375 C191.831279,26.6893246 192.583967,29.0023292 192.626701,29.1324143" id="Fill-138" fill="#DDBCBC"></path>
                    <path d="M196.214309,23.6052234 C195.976138,22.4475801 194.952801,21.4747945 193.88388,21.3903533 C193.045723,21.3253107 192.370525,21.80286 192.032072,22.7031859 C191.826378,23.2497716 191.761993,23.9264424 191.779656,24.6339228 L192.414969,24.5380706 C192.404712,23.9389945 192.461691,23.3764334 192.629778,22.9285526 C192.86738,22.2963846 193.286173,21.9842945 193.833739,22.0282267 C194.620615,22.0909871 195.406921,22.856093 195.588113,23.734738 C195.608626,23.8351546 195.629708,23.9407061 195.65079,24.0491104 L196.283823,23.9532582 C196.260462,23.8328724 196.237101,23.7164805 196.214309,23.6052234" id="Fill-139" fill="#163774"></path>
                    <path d="M196.283823,23.9534864 L195.65079,24.0493386 C195.956765,25.6143538 196.299777,27.8720151 196.388664,28.4670974 L195.502645,29.4587111 C195.385269,29.5905079 195.396665,29.7924822 195.527716,29.9105857 C195.659906,30.0286893 195.862181,30.0178489 195.979557,29.8854816 L197.065001,28.6707833 L197.04335,28.5224407 C197.038791,28.4933427 196.63937,25.7775307 196.283823,23.9534864" id="Fill-140" fill="#DDBCBC"></path>
                    <path d="M185.73638,29.2566798 C184.63783,30.6670763 183.16664,31.3562992 182.450417,30.7965909 C181.734195,30.2374531 182.044159,28.6404872 183.142139,27.2300907 C184.240688,25.8208354 185.711879,25.1316125 186.428101,25.6907502 C187.144324,26.249888 186.834929,27.8468539 185.73638,29.2566798" id="Fill-141" fill="#DDBCBC"></path>
                    <polygon id="Fill-142" fill="#BA104A" points="185.933925 28.311737 185.318555 27.831335 186.262122 26.6206306 185.567552 26.0786093 184.624554 27.2893137 184.009184 26.8089117 182.944821 28.1753759 183.559622 28.6557779 182.616624 29.8664823 183.310625 30.4090742 184.254192 29.1983698 184.868993 29.6787718"></polygon>
                    <path d="M92.6849548,52.6586491 C92.6963505,52.464092 92.6883735,52.270676 92.6832454,52.0761188 C92.6564654,51.1877745 92.868996,48.7041758 95.7692126,46.7894143 C99.3645694,44.4147904 113.133476,44.3434718 120.247838,45.7572916 C127.36163,47.1722525 138.164225,50.8488685 136.128945,53.9127152 C134.111329,56.9497461 92.1675881,61.7001349 92.6849548,52.6586491" id="Fill-143" fill="#F39B9B"></path>
                    <path d="M101.506114,53.4983257 C98.2395247,53.4486879 94.8629661,52.3703508 92.7011937,51.5247976 C92.6823907,51.7433178 92.678972,51.9321694 92.6829605,52.0765182 C92.6886584,52.2710753 92.6960656,52.4644914 92.6852397,52.6584779 C92.167873,61.6999637 134.111044,56.949575 136.12866,53.9131146 C136.194186,53.8144097 136.245466,53.7157047 136.285352,53.6158587 C134.434683,53.4116023 132.556095,53.3037685 130.778359,53.0704141 C124.556853,52.2528178 106.911685,53.5810552 101.506114,53.4983257" id="Fill-144" fill="#C87171"></path>
                    <path d="M200.004419,55.786112 C199.122389,59.0382398 197.346932,64.8156163 195.421621,66.7047031 C192.688352,69.3851411 191.804043,75.2070204 190.830846,77.4281666 C189.85765,79.6493128 183.202536,83.1496293 179.454476,85.8802756 C175.705847,88.6109218 168.36243,89.1478082 165.838273,90.9096627 C165.054246,91.4568189 165.023478,92.7656577 165.353384,94.3107037 C166.507203,95.7695968 168.127108,96.978019 170.173214,96.4536847 C189.987561,91.3769421 198.832367,76.0240462 200.004419,55.786112" id="Fill-145" fill="#930C3A"></path>
                    <path d="M68.4998839,57.6637879 L189.526091,60.1548037 C189.526091,62.3200361 187.738099,64.0556454 185.576896,63.9883206 L72.2547811,60.9695472 C70.673052,60.9204801 69.2844807,59.9020506 68.7608464,58.4072129 L68.4998839,57.6637879 Z" id="Fill-146" fill="#163774"></path>
                    <path d="M102.049463,31.4430226 C102.049463,31.4430226 109.844151,55.1025375 109.996854,58.2987516 C109.996854,58.2987516 131.492074,58.0129066 135.240134,58.2987516 C138.988764,58.585167 154.048238,58.4693456 158.795704,59.0450293 C159.941546,59.1836726 163.895869,61.5531615 166.781841,61.6490137 C170.842714,61.7842338 174.382231,59.6292712 178.913748,59.7308289 C184.50507,59.8557791 189.131171,59.978447 189.526034,60.1547466 C189.526034,60.1547466 190.941385,61.8783743 192.005747,60.1547466 C193.07068,58.43226 188.021796,35.0157988 172.493387,30.4091883 C156.964978,25.8014367 109.665808,27.9461294 102.049463,31.4430226" id="Fill-147" fill="#2DBAF6"></path>
                    <path d="M186.519837,42.615565 C184.474301,43.4023517 182.134755,44.3095242 180.539351,44.950821 C177.111512,46.3298372 171.57546,53.989454 167.886088,55.4979849 C164.196716,57.0070863 161.784238,48.1675747 158.721062,47.1383048 C155.657886,46.1078938 150.157161,38.3638358 146.179477,37.9536113 C142.201223,37.5439573 139.294739,40.9678202 136.129002,41.9600045 C132.962695,42.9516182 128.738293,37.5975889 123.689409,36.1461129 C118.641095,34.6952074 118.794368,40.6614356 114.530081,41.7340672 C111.735845,42.4369832 107.538223,41.351229 104.974751,40.5187984 C107.204328,47.5610814 109.907398,56.429691 109.996854,58.2988086 C109.996854,58.2988086 131.492074,58.0129637 135.240134,58.2988086 C138.988764,58.5852241 154.048238,58.4694027 158.795704,59.0450864 C159.941546,59.1837297 163.895869,61.5532186 166.781841,61.6490708 C170.842714,61.7842908 174.382231,59.6293283 178.913748,59.7308859 C184.50507,59.8558361 189.131171,59.9785041 189.526034,60.1548037 C189.526034,60.1548037 190.941385,61.8784314 192.005747,60.1548037 C192.638211,59.1318098 191.114031,50.4571868 186.519837,42.615565" id="Fill-148" fill="#1D8EBF"></path>
                    <path d="M140.596361,49.8443604 L122.331265,49.2487075 L120.685719,49.1945054 L102.420623,48.5988525 C101.511242,48.5697545 100.750577,49.283511 100.721517,50.1929657 L100.699866,50.85252 L100.403576,58.3170091 C100.385913,58.7745892 100.743739,59.1597096 101.200708,59.1751144 C101.65255,59.1893781 102.032028,58.8373496 102.051401,58.3849044 L102.261082,53.4873141 C102.307805,52.0620833 103.4998,50.9438078 104.923128,50.9900223 L118.032221,51.4179338 C119.456119,51.4641483 120.572901,52.6577362 120.526749,54.0835375 L120.317637,58.9645819 C120.297694,59.4233031 120.655521,59.8095646 121.11306,59.8238283 C121.564331,59.8392331 121.94267,59.4872046 121.962042,59.03533 L122.172294,54.1365985 C122.218447,52.7107972 123.410441,51.5925217 124.83377,51.6393067 L137.943432,52.0672183 C139.36733,52.1140033 140.483543,53.3064501 140.43739,54.7322514 L140.228279,59.615578 C140.208336,60.0731581 140.565593,60.4588491 141.022562,60.4736833 C141.473833,60.4879471 141.852742,60.1353479 141.870405,59.6834733 L142.166694,52.2047205 L142.188346,51.5457367 C142.217975,50.6357115 141.505172,49.8740289 140.596361,49.8443604" id="Fill-149" fill="#0E244C"></path>
                    <path d="M185.577238,64.7577626 C185.569831,64.7577626 185.562993,64.7577626 185.555586,64.7571921 L71.3161138,61.5963521 C70.8921921,61.5843706 70.5577271,61.2300598 70.5688401,60.8055715 C70.5810884,60.3810833 70.940624,60.0444595 71.3588478,60.0581527 L185.59832,63.2195632 C186.022242,63.2309742 186.356707,63.5847144 186.345053,64.0092027 C186.333346,64.4274149 185.991473,64.7577626 185.577238,64.7577626" id="Fill-150" fill="#0E244C"></path>
                </g>
            </g>
        </g>
    </g>
</svg>