<?xml version="1.0" encoding="UTF-8"?>
<svg width="203px" height="194px" viewBox="0 0 203 194" version="1.1" xmlns="http://www.w3.org/2000/svg" xmlns:xlink="http://www.w3.org/1999/xlink">
    <!-- Generator: Sketch 57.1 (83088) - https://sketch.com -->
    <title>Illustration</title>
    <desc>Created with Sketch.</desc>
    <defs>
        <polygon id="path-1" points="0.379025287 0.453546278 11.9710413 0.453546278 11.9710413 13.438431 0.379025287 13.438431"></polygon>
    </defs>
    <g id="Solutions" stroke="none" stroke-width="1" fill="none" fill-rule="evenodd">
        <g transform="translate(-142.000000, -978.000000)" id="Illustration">
            <g transform="translate(142.560000, 977.760000)">
                <path d="M46.247438,20.5102053 L67.4333209,43.9248417 C67.4333209,43.9248417 91.8612888,34.438785 98.4832348,40.8844707 C105.105801,47.3301564 77.9328601,78.6973426 53.5657123,68.3655336 C29.1991852,58.0343442 46.247438,20.5102053 46.247438,20.5102053" id="Fill-16" fill="#D6E8F0"></path>
                <g id="Group-104" transform="translate(108.862065, 6.195987)">
                    <path d="M49.6832781,104.943216 L49.6832781,110.833329 C49.6832781,111.755841 51.2019414,112.559038 53.2132229,112.620151 C55.4168878,112.684174 57.2503604,111.889707 57.2503604,110.894441 L57.2503604,104.943216 C57.2503604,104.652203 56.734423,104.419392 56.1048044,104.419392 L50.8288341,104.419392 C50.1963006,104.419392 49.6832781,104.652203 49.6832781,104.943216" id="Fill-43" fill="#0E244C"></path>
                    <path d="M53.4819767,27.0575376 C52.5113148,31.152097 51.1675456,47.9552142 30.0141111,54.9948298 C8.86359144,62.0344454 -4.06107834,23.7341639 5.93411622,21.1499644 C9.1026133,20.3263963 14.2474131,32.2637684 25.1841206,38.0549363 C32.1915419,41.7653579 43.0495471,26.0419007 48.453773,21.6854292 C52.4675913,18.4493595 54.2923191,23.6352194 53.4819767,27.0575376" id="Fill-64" fill="#FFFFFF"></path>
                    <path d="M5.04594597,21.5044188 C5.74552215,23.2912414 6.68703508,25.4913032 7.50029238,26.6466266 C9.01021095,28.7913958 11.592813,38.0194327 12.8374756,42.2187569 C14.0850531,46.4239014 17.4984018,48.7782003 23.5934592,47.1368844 C29.6914315,45.4926583 31.9621392,43.6243519 36.6638741,44.0143099 C41.3656089,44.4071781 44.2571904,39.2620601 47.7026031,32.4232438 C49.6818207,28.5003824 51.8475919,25.2119303 53.3400211,23.1166334 C53.7218731,24.3388899 53.7772562,25.811418 53.4828512,27.0569556 C52.5121893,31.151515 51.1655051,47.9546322 30.0149855,54.9942478 C9.54072288,61.8068729 -3.22362736,26.1431734 5.04594597,21.5044188" id="Fill-65" fill="#D8E7EB"></path>
                    <path d="M52.3419591,181.6014 C51.9455326,181.054294 51.3858716,180.207445 51.1818286,179.089954 C50.6658912,176.284584 50.9194875,172.323891 50.7999766,171.084173 L42.7781698,172.841895 L42.8131486,177.27985 C42.8277231,178.755288 42.008636,180.114321 40.6911009,180.792382 C37.4322419,182.46571 31.5907809,185.559183 31.4916742,186.298357 C31.2613971,188.006606 50.2169964,188.073539 53.3680041,186.435133 C55.014923,185.576644 53.8635372,183.711247 52.3419591,181.6014" id="Fill-66" fill="#F39B9B"></path>
                    <path d="M31.4922572,186.29923 C31.4922572,181.235596 40.4788961,180.90093 40.4788961,180.90093 C41.39126,182.533516 43.2247326,183.71212 45.1748012,183.456029 L47.4076151,183.165015 C48.5648307,183.010778 49.614195,182.457852 50.3458351,181.611003 L51.5321996,180.23742 C51.756647,180.697221 52.0189881,181.154112 52.342542,181.602273 C53.8641202,183.70921 55.015506,185.577517 53.3685871,186.436006 C50.2175794,188.071502 31.4922572,188.02494 31.4922572,186.29923" id="Fill-67" fill="#0E244C"></path>
                    <path d="M47.1397358,28.9360295 C47.1397358,28.9360295 36.3021349,41.0072679 34.5153007,48.7947881 C34.0780656,50.7009262 33.8186395,52.2840394 33.6728944,53.5936 C34.8738335,53.0726859 36.0019001,52.5197603 37.0570942,51.9377334 C38.088969,51.3702572 39.0508863,50.7707694 39.9515906,50.1509108 C40.8522949,49.5310521 41.6888714,48.8908225 42.4671499,48.2331321 C43.2483433,47.5754417 43.9683238,46.9032006 44.6329211,46.2193189 C45.1197096,45.7216859 45.5686043,45.2153225 46.0000096,44.7060489 C46.752054,43.821368 47.4312258,42.9279567 48.0287805,42.0287251 C48.2648874,41.6765988 48.4893348,41.3244725 48.7050374,40.9752564 C48.7575057,40.8850422 48.7983143,40.8006483 48.8507825,40.7133443 C48.1074828,34.8174116 47.1397358,28.9360295 47.1397358,28.9360295" id="Fill-68" fill="#0E244C"></path>
                    <path d="M80.2014142,181.6014 C78.8139214,179.680711 78.4262396,177.565043 78.2571754,175.830603 L69.9438785,172.286059 L70.6726037,177.27985 C70.6871782,178.755288 69.8680911,180.114321 68.550556,180.792382 C65.291697,182.46571 59.450236,185.559183 59.3511293,186.298357 C59.1208522,188.006606 78.0764515,188.073539 81.2274592,186.435133 C82.8743781,185.576644 81.7229923,183.711247 80.2014142,181.6014" id="Fill-69" fill="#F39B9B"></path>
                    <path d="M59.3517123,186.29923 C59.3517123,181.235596 68.3383512,180.90093 68.3383512,180.90093 C69.2507152,182.533516 71.0841877,183.71212 73.0342563,183.456029 L75.2670702,183.165015 C76.4242858,183.010778 77.4736501,182.457852 78.2052902,181.611003 L79.3916548,180.23742 C79.6161021,180.697221 79.8784432,181.154112 80.2019972,181.602273 C81.7235753,183.70921 82.8749611,185.577517 81.2280422,186.436006 C78.0770345,188.071502 59.3517123,188.02494 59.3517123,186.29923" id="Fill-70" fill="#0E244C"></path>
                    <path d="M37.8927962,50.2361777 C39.5542896,46.0659548 41.3527834,41.3660875 42.2359983,38.4093907 C44.1277688,32.0856682 47.0863931,21.291979 51.2342968,20.1744873 C55.3822005,19.0540855 67.4032511,20.4160285 69.0064465,23.6666488 C72.3294333,30.3861496 71.2917286,40.3533606 69.9392147,47.2358289 C68.9568932,52.2121591 69.5631925,57.3718278 71.6386018,61.9960316 C72.8103919,64.6035123 73.9326287,67.5281975 74.745886,70.479074 C78.7130659,84.9162518 70.8836425,105.595668 76.3665708,121.479183 C81.7154136,136.97856 80.5436235,153.886442 80.0714096,165.794713 C79.5117487,179.897225 77.681191,180.045642 74.0958631,180.23189 C71.9592409,180.339565 71.4724525,176.431255 69.2950216,170.421827 C62.1535149,150.691114 53.49043,105.811018 49.2521643,85.029747 C46.7045411,98.5007601 46.8153073,118.915354 46.8153073,118.915354 C46.8153073,118.915354 57.0145449,181.131122 46.0720076,180.237711 C43.6788741,180.042732 43.4252778,176.477817 41.3819324,172.316324 C35.0565978,159.427338 28.6292417,133.247767 27.3146215,122.160154 C24.2568906,96.4171037 28.3377517,67.755188 37.8927962,50.2361777" id="Fill-71" fill="#F39B9B"></path>
                    <path d="M42.3007091,137.460769 C44.5102038,155.104915 46.824635,158.256591 47.9818506,167.397324 C48.1421701,168.660322 48.293745,169.873848 48.4482347,171.023351 C48.6318734,172.417306 50.6664741,172.388205 50.8063894,170.99134 C52.1705629,157.529057 48.9262784,133.078106 47.4746578,123.21275 C44.6472042,123.538685 40.8665779,126.000659 42.3007091,137.460769" id="Fill-72" fill="#C87171"></path>
                    <path d="M80.0705351,165.794713 C80.3882593,157.783112 81.0237077,147.510337 79.7761302,136.926177 C79.1698308,131.778149 71.529876,142.592209 72.9640072,148.264062 C75.3425662,157.684167 75.7215033,169.752496 75.7535672,175.971453 C75.7623119,177.83685 78.4236162,178.191886 78.9133195,176.393423 C79.487555,174.286485 79.8664921,170.986393 80.0705351,165.794713" id="Fill-73" fill="#C87171"></path>
                    <path d="M74.74472,70.479365 C74.7388902,70.4589941 74.7330604,70.4415333 74.7272306,70.4211623 C56.1680578,72.9849909 38.2414183,69.0679497 31.2077629,67.2025535 C26.6167943,83.5254984 25.1097906,103.599607 27.3134555,122.160445 C27.8993506,127.090213 26.8791353,138.273861 29.0274172,146.678329 C33.3822788,147.56592 44.2315393,151.322904 53.6699878,146.567744 C52.402006,132.462322 46.8141413,118.915645 46.8141413,118.915645 C46.8141413,118.915645 46.70629,98.5010511 49.2539132,85.030038 C52.1950481,99.4584854 54.7718203,125.981452 59.9924075,147.161412 C72.9637157,148.924953 80.5045638,148.924953 82.0319718,144.559751 C81.7055029,136.973031 79.0150496,129.156409 76.3654048,121.479474 C70.8824766,105.595959 78.7118999,84.9165428 74.74472,70.479365" id="Fill-74" fill="#0E244C"></path>
                    <path d="M1.20323236,15.8459531 C2.38085225,16.4745422 3.90534532,19.7862753 4.11521817,19.5330936 C4.34549533,19.2479004 4.12979268,18.7037053 3.68089797,17.7841027 C3.23200326,16.8615901 4.14436718,15.909976 4.46209136,17.0507488 C4.77981554,18.1944317 5.70092417,18.7997397 6.46462815,19.9463327 C6.89020366,20.5865623 7.63933314,23.1794923 6.20228709,24.145657 C5.59598774,24.5530758 4.65738971,24.5501657 4.23764401,24.448311 C2.47704397,24.0263414 0.964210498,20.0074456 0.521145589,18.1944317 C0.252974723,17.1089515 0.570698901,15.5083775 1.20323236,15.8459531" id="Fill-75" fill="#F39B9B"></path>
                    <path d="M74.74472,70.479365 C73.9343776,67.5284885 72.809226,64.6038033 71.6403508,61.9963227 C69.5620266,57.3721188 68.9586421,52.2124501 69.9380487,47.23612 C71.2905627,40.3536516 72.3282673,30.3864406 69.0081954,23.6669398 C67.4020851,20.4163195 55.3839495,19.0543765 51.2360457,20.1747783 C47.0852271,21.29227 44.1266029,32.0859592 42.2377472,38.4067716 C41.3516174,41.3663785 39.5560386,46.0662459 37.8916302,50.2364687 C30.1409092,64.4495661 24.1128946,88.4523563 24.8591091,114.611556 C32.7992987,117.07353 42.3834923,118.051335 49.5337437,118.062976 C50.4665119,118.062976 49.7144676,105.351508 50.6180868,105.322407 C52.0172391,105.275844 53.3784978,117.885458 54.7018627,117.769052 C65.7755705,116.797067 74.0072501,113.560998 75.919425,110.540278 C76.0943191,98.1140032 77.5197055,80.5775321 74.74472,70.479365" id="Fill-81" fill="#EFF6FA"></path>
                    <path d="M62.5755925,4.1713661 C62.5755925,4.1713661 63.3626157,0.717036324 66.2862611,0.405651922 C69.2128214,0.0942675193 72.5095742,1.84907868 71.9878069,4.1713661 C71.4631248,6.49365351 68.402479,9.40087798 70.0464831,10.5358305 C71.693402,11.6649627 75.9987103,12.8552077 75.7276246,16.4463138 C75.4536239,20.0374199 70.9384427,20.1741963 70.9384427,20.1741963 C70.9384427,20.1741963 72.0839987,17.5405245 70.3583774,16.9352165 C68.6327562,16.3299085 64.6393422,15.4219465 63.1294236,11.4670735 C61.6165902,7.50638035 62.5755925,4.1713661 62.5755925,4.1713661" id="Fill-82" fill="#0E244C"></path>
                    <path d="M62.5755925,4.1713661 C62.5755925,4.1713661 62.9049763,2.74249001 63.9193617,1.63663886 C63.2693389,7.14261352 67.8194989,7.86723704 70.1630791,7.87596744 C69.5626095,9.00218954 69.2448854,9.97999476 70.0464831,10.5358305 C71.693402,11.6649627 75.9987103,12.8552077 75.7276246,16.4463138 C75.4536239,20.0374199 70.9384427,20.1741963 70.9384427,20.1741963 C70.9384427,20.1741963 72.0839987,17.5405245 70.3583774,16.9352165 C68.6327562,16.3299085 64.6393422,15.4219465 63.1294236,11.4670735 C61.6165902,7.50638035 62.5755925,4.1713661 62.5755925,4.1713661" id="Fill-83" fill="#0E244C"></path>
                    <path d="M74.74472,70.479365 C73.9343776,67.5284885 72.809226,64.6038033 71.6374359,61.9963227 C69.5620266,57.3721188 68.9586421,52.2124501 69.9380487,47.23612 C71.2905627,40.3536516 72.3282673,30.3864406 69.0081954,23.6669398 C68.5068325,22.654213 66.9998288,21.8277348 65.0351857,21.1991457 C66.2273801,25.250053 67.3612765,30.415542 67.3875106,35.496637 C67.4458086,46.2874161 60.7765158,54.8985044 59.3773634,74.0180887 C58.2347224,89.5931291 61.2137509,107.260556 63.8429913,116.337266 C70.1595812,114.861828 74.5844005,112.650126 75.919425,110.540278 C76.0943191,98.1140032 77.5197055,80.5775321 74.74472,70.479365" id="Fill-84" fill="#D8E7EB"></path>
                    <path d="M57.1626219,4.66026871 C57.1626219,4.66026871 57.6668997,2.82397378 60.535162,2.92291835 C63.4034243,3.02186293 68.7143734,10.7278994 62.9778488,14.5925581 C57.2413242,18.4572169 54.7607437,11.6853336 54.7781413,9.65696982 C54.7986374,7.62569587 54.5654453,4.77667409 57.1626219,4.66026871" id="Fill-85" fill="#0E244C"></path>
                    <path d="M62.0302146,13.7401797 L61.695001,20.8001662 C61.636703,21.9613099 58.6168658,24.7754101 56.8854148,23.195207 C56.3782221,22.7324956 57.1710751,21.1784837 57.7482254,20.0027893 L59.4796765,14.0253729 L62.0302146,13.7401797 Z" id="Fill-86" fill="#F39B9B"></path>
                    <path d="M58.452174,17.5766101 C59.9824968,17.2012028 61.6265008,15.0215119 61.6265008,15.0215119 L59.2333673,14.8789154 L58.452174,17.5766101 Z" id="Fill-87" fill="#0E244C"></path>
                    <path d="M62.296345,9.21870355 L62.5557712,11.9513199 C62.7627291,14.1222804 61.2732149,16.168105 59.124933,16.4212867 C57.1398857,16.6540975 55.3151578,15.3998294 55.1723277,12.8883833 C55.0469869,10.6504898 56.7259697,8.83165565 57.3526734,7.86258083 C58.7780599,5.65087853 61.768748,6.09903926 62.296345,9.21870355" id="Fill-88" fill="#F39B9B"></path>
                    <path d="M62.0657764,11.8162897 C62.1677979,11.5980296 62.2319257,11.368129 62.2873088,11.1324081 C62.3864155,10.6813372 62.6370969,10.0440177 63.222992,10.5183697 C64.0770579,11.2109817 63.4124605,13.5681907 62.2727343,13.4983475 C61.4274131,13.4488752 61.81218,12.3692153 62.0657764,11.8162897" id="Fill-89" fill="#F39B9B"></path>
                    <path d="M56.4639202,10.6423414 C56.4435159,10.4037104 56.4610053,10.1621692 56.4901543,9.92353815 C56.5484523,9.46955715 56.528048,8.77694512 55.8168122,9.02139642 C54.7791076,9.37934298 54.6012986,11.8209459 55.6973013,12.1527013 C56.5076437,12.3971526 56.5134735,11.2505595 56.4639202,10.6423414" id="Fill-90" fill="#F39B9B"></path>
                    <path d="M59.2747589,12.7824544 C59.2747589,12.7824544 57.980543,13.0356361 56.6863271,12.1625957 C56.6863271,12.1625957 57.071094,14.3393764 59.2747589,12.7824544" id="Fill-91" fill="#FFFFFF"></path>
                    <path d="M58.9389624,15.5249652 C58.1315349,15.498774 56.717808,15.0942653 56.1552322,14.5617107 C55.6596991,14.093179 55.2574428,13.0047887 55.1729106,12.7632475 C55.1729106,12.8039894 55.1729106,12.8447313 55.1729106,12.8883833 C55.3157408,15.3998294 57.1404686,16.6540975 59.1226011,16.4212867 C60.4488809,16.2641394 61.5215644,15.4260207 62.1016297,14.2997986 C60.9414992,15.2717835 59.6676876,15.5453362 58.9389624,15.5249652" id="Fill-92" fill="#C87171"></path>
                    <path d="M57.9796685,6.00737002 C57.9796685,6.00737002 57.2363689,6.74654421 58.0904348,8.05610478 C58.6471808,8.91168435 61.4250812,10.3987631 62.6843183,10.0844686 C63.9435554,9.77308419 61.754465,3.70254341 57.9796685,6.00737002" id="Fill-93" fill="#0E244C"></path>
                    <path d="M67.435898,22.4621441 C67.435898,22.4621441 98.2522284,39.108114 91.9997663,55.1604165 C87.6594792,66.2975016 77.3553051,50.3907059 73.68836,44.6053583 C66.4273423,33.162709 67.435898,22.4621441 67.435898,22.4621441" id="Fill-94" fill="#EFF6FA"></path>
                    <path d="M63.8179232,71.5959837 L58.3000161,70.6618305 C53.8373031,69.9051955 50.8320405,65.67968 51.5928296,61.2271741 L54.1841763,45.9664282 C54.9420505,41.5110122 59.1744864,38.5135735 63.6371994,39.2702085 L69.1551064,40.2043617 C73.6178194,40.9609967 76.6230821,45.1865122 75.8652079,49.6419282 L73.2709462,64.8968538 C72.513072,69.3522699 68.2806362,72.3555288 63.8179232,71.5959837" id="Fill-95" fill="#0E244C"></path>
                    <path d="M6.65846905,21.7174407 C6.65846905,21.7174407 4.34986768,17.1834509 4.12833523,16.5548619 C3.90388787,15.9233627 2.86326832,16.51412 3.49580177,17.7625677 C4.12833523,19.0051952 4.25950576,19.9015167 4.71423027,21.3303927 C5.16895478,22.7563587 6.0521697,22.6894256 6.65846905,21.7174407" id="Fill-96" fill="#F39B9B"></path>
                    <path d="M76.1409575,28.0493115 C77.0678959,30.307576 78.4699631,33.2817335 80.5162235,36.6225681 C85.0168302,43.9764782 84.9118937,47.6519782 83.7546781,51.5370079 C83.436954,52.5962969 82.9443357,54.2288824 82.4633771,56.1059192 C86.0807689,59.5049564 89.8030971,60.7970562 91.9980174,55.1601255 C96.0176655,44.8436983 84.7224252,34.2828198 76.1409575,28.0493115" id="Fill-97" fill="#D8E7EB"></path>
                    <path d="M84.8541787,48.9175957 C84.8541787,48.9175957 54.2360616,53.5970922 54.1748486,60.2874916 C54.1107208,66.9749809 61.4795898,69.2070542 70.4137605,67.647222 C79.3450163,66.0815696 89.7949354,60.7298321 91.2261517,56.7662288 C92.6573679,52.8055356 91.3748116,47.9601615 84.8541787,48.9175957" id="Fill-98" fill="#EFF6FA"></path>
                    <path d="M88.8210671,49.1931855 C88.9959611,51.064402 88.4537896,54.9028696 82.0322633,57.7373407 C73.232178,61.6223704 63.455601,60.7813415 57.9785026,60.4670469 C56.6055843,60.3884733 55.3376025,60.1818537 54.2153658,60.0130659 C54.2037062,60.1061902 54.1745571,60.1934943 54.1745571,60.2895287 C54.1104293,66.9741079 61.4822133,69.2061811 70.4134691,67.646349 C79.3447249,66.0836067 89.7946439,60.728959 91.2258602,56.7682658 C92.2956287,53.8028387 91.846734,50.3455988 88.8210671,49.1931855" id="Fill-99" fill="#D8E7EB"></path>
                    <path d="M57.9199131,61.6267356 C58.4737442,61.5103302 58.8526813,60.9894161 58.773979,60.4306702 C58.6078297,59.2520657 58.2026585,57.3575681 57.2611455,56.8337439 C55.8649081,56.0509177 52.7372196,56.6067534 52.0143242,55.7191623 C51.2885139,54.825751 50.2828732,56.1644129 50.728853,57.9454153 C51.1544285,59.6449339 51.6820255,62.9159252 57.9199131,61.6267356" id="Fill-100" fill="#F39B9B"></path>
                    <path d="M33.1473378,68.1204099 L41.9853168,70.4456075 C41.9853168,70.4456075 44.299748,81.5797825 37.5663273,81.5797825 C30.8329067,81.5797825 31.2526524,72.5205334 33.1473378,68.1204099" id="Fill-101" fill="#D8E7EB"></path>
                </g>
                <polygon id="Fill-18" fill="#0E244C" points="71.6252548 67.5362626 109.551439 67.5362626 112.033893 19.2075609 75.3489358 19.2075609"></polygon>
                <path d="M83.5085206,38.6586674 L87.2988482,38.6586674 C87.321869,38.6586674 87.3431845,38.6488783 87.358958,38.6331306 C87.3743052,38.6178085 87.3841103,38.5965278 87.3841103,38.5735447 L87.3841103,33.5662013 C87.3841103,33.1950663 87.5354506,32.8579804 87.7797265,32.6141038 C88.0240025,32.3706529 88.3616405,32.2191345 88.7333834,32.2191345 L95.4771907,32.2191345 C95.8493599,32.2191345 96.1865716,32.3706529 96.4308475,32.6141038 C96.6751235,32.8579804 96.8264638,33.1950663 96.8264638,33.5662013 L96.8264638,38.5735447 C96.8264638,38.5965278 96.8362689,38.6178085 96.8516161,38.6331306 C96.8673896,38.6488783 96.8887051,38.6586674 96.9117259,38.6586674 L101.92727,38.6586674 C102.299013,38.6586674 102.636651,38.8097602 102.880927,39.0536368 C103.124777,39.2975133 103.276543,39.6341736 103.276543,40.0057343 L103.276543,43.3719118 C103.276543,43.7204893 102.993473,44.0030967 102.644325,44.0030967 L95.6570938,44.0030967 C95.3799919,44.0030967 95.1442421,43.8247646 95.05898,43.5762063 L94.1181125,41.3187521 L92.7223716,47.8587298 C92.6503251,48.1992206 92.315245,48.4162835 91.9746228,48.3443548 C91.7414309,48.2949837 91.565791,48.1230358 91.5014181,47.910229 L91.5005655,47.9106546 L89.7364922,42.0954968 L89.1409363,43.6013175 C89.0437375,43.8498758 88.8054298,44.0018198 88.5534803,44.0018198 L88.5534803,44.0030967 L82.1984682,44.0030967 L82.1984682,46.7385149 C82.1984682,46.7614981 82.2082733,46.7827787 82.2236205,46.7981008 C82.239394,46.8138485 82.2607095,46.8236376 82.2837303,46.8236376 L87.2988482,46.8236376 C87.6710173,46.8236376 88.0086553,46.9747304 88.252505,47.218607 C88.496781,47.4624836 88.6485475,47.7991439 88.6485475,48.1707045 L88.6485475,53.1776222 C88.6485475,53.201031 88.6579264,53.221886 88.6736999,53.2376337 C88.6890471,53.2529558 88.7103626,53.2627449 88.7333834,53.2627449 L95.4771907,53.2627449 C95.5002115,53.2627449 95.521527,53.2529558 95.5373005,53.2376337 C95.5526477,53.221886 95.5624528,53.201031 95.5624528,53.1776222 L95.5624528,48.1707045 C95.5624528,47.7991439 95.7137931,47.4624836 95.9580691,47.218607 C96.2023451,46.9747304 96.539983,46.8236376 96.9117259,46.8236376 L100.702053,46.8236376 C100.93013,46.3886606 101.385856,46.092008 101.911497,46.092008 C102.665214,46.092008 103.276543,46.7019122 103.276543,47.4543969 C103.276543,48.2068817 102.665214,48.8167859 101.911497,48.8167859 C101.385856,48.8167859 100.93013,48.5201332 100.702053,48.0855818 L96.9117259,48.0855818 C96.8887051,48.0855818 96.8673896,48.0949453 96.8516161,48.110693 C96.8362689,48.1264407 96.8264638,48.1477214 96.8264638,48.1707045 L96.8264638,53.1776222 C96.8264638,53.5491829 96.6751235,53.8858432 96.4308475,54.1297197 C96.1865716,54.3735963 95.8493599,54.5246891 95.4771907,54.5246891 L88.7333834,54.5246891 C88.3616405,54.5246891 88.0240025,54.3735963 87.7797265,54.1297197 C87.5354506,53.8858432 87.3841103,53.5491829 87.3841103,53.1776222 L87.3841103,48.1707045 C87.3841103,48.1477214 87.3743052,48.1264407 87.358958,48.110693 C87.3431845,48.0949453 87.321869,48.0855818 87.2988482,48.0855818 L82.2837303,48.0855818 C81.9115611,48.0855818 81.5739231,47.934489 81.3300735,47.6906124 C81.0857975,47.4467359 80.9344573,47.1096499 80.9344573,46.7385149 L80.9344573,43.3719118 C80.9344573,43.0237599 81.2171012,42.7411525 81.5662496,42.7411525 L88.1246118,42.7411525 L89.2151143,39.9823255 C89.277782,39.7937787 89.4278433,39.6375786 89.6328987,39.5758646 C89.9666999,39.4749942 90.3192588,39.6639666 90.4202944,39.997222 L91.9993489,45.20205 L93.3055645,39.0804504 C93.347343,38.8846682 93.4816308,38.7118691 93.6807179,38.6293001 C94.0025824,38.496083 94.3717673,38.6484527 94.5052026,38.9693653 L96.077436,42.7411525 L102.012106,42.7411525 L102.012106,40.0057343 C102.012106,39.9827511 102.002727,39.9614705 101.986954,39.9457228 C101.97118,39.9304007 101.950291,39.9206116 101.92727,39.9206116 L96.9117259,39.9206116 C96.539983,39.9206116 96.2023451,39.7695187 95.9580691,39.5256422 C95.7137931,39.2817656 95.5624528,38.9451053 95.5624528,38.5735447 L95.5624528,33.5662013 C95.5624528,33.5432182 95.5526477,33.5219375 95.5373005,33.5066154 C95.521527,33.4908677 95.5002115,33.4815042 95.4771907,33.4815042 L88.7333834,33.4815042 C88.7103626,33.4815042 88.6890471,33.4908677 88.6736999,33.5066154 C88.6579264,33.5219375 88.6485475,33.5432182 88.6485475,33.5662013 L88.6485475,38.5735447 C88.6485475,38.9451053 88.496781,39.2817656 88.252505,39.5256422 C88.0086553,39.7695187 87.6710173,39.9206116 87.2988482,39.9206116 L83.5085206,39.9206116 C83.2808708,40.355163 82.8247184,40.6522412 82.2990775,40.6522412 C81.5453603,40.6522412 80.9344573,40.0419114 80.9344573,39.2894267 C80.9344573,38.5373675 81.5453603,37.9270377 82.2990775,37.9270377 C82.8247184,37.9270377 83.2808708,38.224116 83.5085206,38.6586674" id="Fill-17" fill="#FFFFFF"></path>
                <path d="M36.1539663,188.780893 C37.2903096,187.091867 37.6018575,185.23369 37.7340482,183.707619 L43.9916941,179.324577 C43.9916941,179.324577 43.0111248,185.620939 43.969352,187.130902 C44.3876455,187.788915 45.6028067,188.27592 47.2778426,188.97111 C49.9309653,190.316878 53.2065633,192.052374 53.3232386,192.95513 C53.5181113,194.460135 37.9233353,194.478103 35.3260679,193.030721 C33.9675449,192.274191 34.908395,190.632254 36.1539663,188.780893" id="Fill-56" fill="#0E244C"></path>
                <path d="M7.50514395,188.780893 C8.64148726,187.091867 8.95303524,185.23369 9.08522591,183.707619 L14.7390149,183.683454 C14.7390149,183.683454 14.3623025,185.620939 15.3205297,187.130902 C15.7388232,187.788915 16.9539844,188.27592 18.6290203,188.97111 C21.282143,190.316878 24.557741,192.052374 24.6744163,192.95513 C24.869289,194.460135 9.27451303,194.478103 6.67724554,193.030721 C5.3187226,192.274191 6.25957266,190.632254 7.50514395,188.780893" id="Fill-58" fill="#0E244C"></path>
                <g id="Group-62" transform="translate(20.734948, 0.166052)">
                    <mask id="mask-2" fill="white">
                        <use xlink:href="#path-1"></use>
                    </mask>
                    <g id="Clip-61"></g>
                    <path d="M11.7398973,9.9023651 C11.7398973,9.9023651 12.2599714,6.63274255 11.7398973,5.28821328 C11.2198232,3.94368402 10.4769488,-0.265869819 4.61153065,0.559435702 C-2.10598984,1.50432378 0.69111519,12.7512801 2.73665728,13.3739768 C4.78219936,13.9966736 11.7398973,9.9023651 11.7398973,9.9023651" id="Fill-60" fill="#0E244C" mask="url(#mask-2)"></path>
                </g>
                <path d="M3.51360618,79.1739379 C3.58249428,77.5580244 7.5240106,76.3169681 7.89265502,74.922871 C13.7617969,75.4625415 28.9252464,76.409908 43.7616327,73.652074 C45.5800302,78.060519 50.5914842,104.855686 51.407591,109.495861 C56.6648079,139.380967 47.4580067,168.478563 45.3516445,183.683516 C45.0357522,185.964879 40.886951,185.417773 38.6347446,185.913452 C34.2283888,186.883124 33.559988,185.975412 31.6472572,183.683516 C28.066938,179.393415 34.6590945,129.974839 34.6590945,129.974839 L29.2132111,96.8795915 C28.1966462,109.129678 26.0201546,120.011071 24.6765264,129.974839 C22.6651181,144.8892 22.4938288,170.286552 18.4058477,184.57326 C17.8125412,186.644579 11.0764023,185.806881 7.5606268,185.383695 C6.64646312,185.272787 6.14314557,184.474124 6.01033428,183.564553 C3.58063244,166.933284 4.17393894,124.220006 4.17393894,124.220006 C4.17393894,124.220006 2.92526459,92.9339867 3.51360618,79.1739379" id="Fill-63" fill="#163774"></path>
                <path d="M37.2318478,105.829076 C39.4244753,112.160136 37.0009796,127.014396 41.6171027,130.418471 C46.2332259,133.821308 38.5190002,139.121355 43.9921906,146.149464 C45.9396758,148.650784 48.5673533,150.595085 51.1447612,152.064773 C49.2369953,164.987744 46.4057565,176.075463 45.3513342,183.683516 C45.0354419,185.964879 40.8866407,185.417773 38.6344343,185.913452 C34.2280785,186.883124 33.5596777,185.975412 31.6469469,183.683516 C28.0666277,179.393415 34.6587842,129.974839 34.6587842,129.974839 L29.2135214,96.8795915 C29.2135214,96.8795915 35.0392203,99.4973962 37.2318478,105.829076" id="Fill-65" fill="#0E244C"></path>
                <path d="M3.51360618,79.1739379 C3.58249428,77.5580244 7.5240106,76.3169681 7.89265502,74.922871 C9.77559637,75.095739 12.6192474,75.3107398 16.0984067,75.4315615 C16.0984067,75.4315615 16.0990273,75.4315615 16.0990273,75.4315615 C18.4207424,83.5861006 15.8811919,102.827739 14.3811691,109.971093 C12.8811463,117.114447 11.2650688,152.601965 12.7657122,158.132503 C13.7375929,161.715023 18.4461875,163.942481 21.6442089,165.067672 C20.9100231,172.368404 19.930695,179.243472 18.4058477,184.57326 C17.8131618,186.644579 11.0764023,185.806881 7.5606268,185.383695 C6.64646312,185.272787 6.14314557,184.474124 6.01033428,183.564553 C3.58063244,166.933284 4.17393894,124.220006 4.17393894,124.220006 C4.17393894,124.220006 2.92526459,92.9339867 3.51360618,79.1739379" id="Fill-67" fill="#0E244C"></path>
                <path d="M26.9317738,115.1554 C26.5774035,117.454111 26.2199301,119.706972 25.8742484,121.909646 C21.0452548,121.822902 10.0790143,121.163649 7.31914608,117.024729 C4.24214437,112.408719 21.9947934,114.494908 26.9317738,115.1554" id="Fill-69" fill="#0E244C"></path>
                <path d="M36.0903534,118.824911 C31.6486226,117.441347 44.8416243,111.748474 51.3425507,109.128811 C51.3655134,109.258307 51.3890967,109.389042 51.4077151,109.496233 C51.8477301,111.996314 52.1778964,114.490199 52.4280037,116.972311 C48.8526493,118.046695 40.5730447,120.220248 36.0903534,118.824911" id="Fill-71" fill="#0E244C"></path>
                <path d="M1.91087183,34.7107888 C1.84570741,26.0215361 5.58304189,20.5734044 19.4295496,17.3539693 C33.1550377,14.1624162 45.6126124,17.2455396 48.1217528,23.0009923 C52.3667491,32.7404649 48.4897766,40.4879275 47.8337881,50.2088121 C46.7297167,66.570556 53.0754897,114.52564 53.0754897,114.52564 C53.0754897,114.52564 30.4262002,124.908256 1.91025121,115.442026 C0.901754281,115.107443 0.256316244,114.119183 0.359958698,113.062767 L3.87883723,62.937229 C3.87883723,62.937229 1.96362397,41.7388974 1.91087183,34.7107888" id="Fill-73" fill="#EFF6FA"></path>
                <path d="M23.4983538,7.11200218 C25.6096809,8.45900984 30.2022208,8.43546508 32.6660563,8.31154534 C32.6008919,9.27564097 32.4749074,10.0681078 32.4749074,10.0681078 C32.4749074,10.0681078 25.5172095,14.1630358 23.4716674,13.5403391 C22.1658966,13.1419371 20.557887,8.41625752 21.3106912,4.80337727 C21.7327084,5.58221289 22.4091771,6.41681239 23.4983538,7.11200218" id="Fill-75" fill="#0E244C"></path>
                <path d="M24.6559841,9.8929472 L21.6850953,18.7724167 C21.6745569,20.0611821 28.6210838,23.6275925 30.656696,21.996189 C31.2531056,21.5184784 31.0855399,20.2842377 30.5232641,18.9471436 L27.1769161,11.66438 L24.6559841,9.8929472 Z" id="Fill-77" fill="#F39B9B"></path>
                <path d="M0.360206944,113.062767 L3.87908547,62.937229 C3.87908547,62.937229 1.96325161,41.7388974 1.91112007,34.7107888 C1.84595566,26.0215361 5.58266952,20.5734044 19.4297979,17.3539693 C20.3377554,17.1420666 21.240748,16.9605241 22.1350521,16.8031461 C20.4879439,21.2283203 18.0110754,29.4398624 18.9146887,36.9190388 C20.2334923,47.8289334 30.5735338,64.0642791 31.5565856,78.9835972 C32.4223414,92.1209493 22.9865338,105.5997 20.9205115,119.217861 C15.0569552,118.799012 8.65098265,117.680017 1.90987885,115.442026 C0.901381913,115.107443 0.25656449,114.119183 0.360206944,113.062767" id="Fill-79" fill="#D6E8F0"></path>
                <path d="M30.0872211,17.9985379 L28.2961305,14.1006422 L25.1067978,14.9377201 C25.1067978,14.9377201 27.6668284,17.3089245 30.0872211,17.9985379" id="Fill-81" fill="#0E244C"></path>
                <path d="M26.717538,6.35987127 L24.1792288,11.0886488 C23.4673852,12.7119975 24.1742639,14.6098285 25.7810323,15.3638802 C27.064461,15.9667497 27.9376642,16.1228886 29.7002065,16.2201656 C31.1679574,16.3007134 32.1503886,15.0540808 32.4842786,13.1735986 C32.9174669,10.7336188 32.6220548,8.36303399 32.3930485,7.10400935 C31.8698713,4.23278879 28.5979969,3.39880889 26.717538,6.35987127" id="Fill-83" fill="#F39B9B"></path>
                <path d="M29.2729762,11.0307783 C29.2729762,11.0307783 30.4713808,11.364742 32.1830329,11.2055052 C32.1830329,11.2055052 32.1160066,12.1962436 31.3576169,12.3672528 C30.5197887,12.55685 29.6360351,12.3678724 29.2729762,11.0307783" id="Fill-85" fill="#FFFFFF"></path>
                <path d="M30.7705786,14.8124992 C29.2190449,14.2059121 26.6720471,15.733223 24.8232395,13.2312832 C24.4099109,12.6717856 24.268411,11.6240441 24.2348979,10.9852378 L24.1790426,11.0887108 C23.467199,12.7120595 24.1740777,14.6098904 25.7808461,15.3639421 C27.0642748,15.9668117 27.9380986,16.1229506 29.7000203,16.2202276 C30.4478596,16.2611211 31.0684731,15.9562785 31.5426218,15.3998788 C31.6363344,15.2902099 31.2441067,14.9977593 30.7705786,14.8124992" id="Fill-87" fill="#C87171"></path>
                <path d="M32.7060859,3.35357818 C33.4588901,4.12311981 32.9971536,5.96642607 32.020308,6.41935274 C30.9230633,6.92866291 28.7236091,7.25766984 27.9677019,7.50922693 C26.8661129,7.87602938 27.1236675,9.25153858 26.3584511,9.28251852 C25.5932346,9.31287886 25.4889716,8.2118519 25.4269102,7.60092754 C25.3660901,6.99000318 24.876426,4.11754343 27.2943362,3.048116 C28.848973,2.3603614 31.0316707,1.64224646 32.7060859,3.35357818" id="Fill-89" fill="#0E244C"></path>
                <path d="M26.1293206,9.00314145 C26.1169083,8.67103652 26.1553863,8.34141 26.2131034,8.01364226 C26.322952,7.39156513 26.3415704,6.44110066 25.3367971,6.73231207 C23.8752523,7.15611761 23.471233,10.50319 24.9669115,11.0273705 C26.0778096,11.4164785 26.1603512,9.84021935 26.1293206,9.00314145" id="Fill-91" fill="#F39B9B"></path>
                <path d="M46.8371449,67.4060849 C42.0013246,69.0083673 31.6668686,71.6422815 25.9950819,67.2350757 C19.8081859,62.4276091 39.7931817,59.317843 47.3255678,58.3401162 C47.1412455,61.5149401 46.9780242,64.5794755 46.8371449,67.4060849" id="Fill-93" fill="#311E69"></path>
                <path d="M6.3642081,40.9944495 C6.3642081,40.9944495 6.9159335,60.8587851 11.7449271,68.0213465 C16.5745413,75.1845275 24.8535254,77.4919132 34.5115126,74.8914573 C44.1701205,72.291621 6.3642081,40.9944495 6.3642081,40.9944495" id="Fill-95" fill="#0E244C"></path>
                <path d="M17.6928869,26.7524768 C21.0013774,31.2551008 25.3723583,52.9528291 33.5712832,53.3375999 C34.9149114,53.400799 70.715001,46.3776472 70.715001,46.3776472 C70.715001,46.3776472 75.4074596,54.7521438 70.8924964,62.5628055 C65.1778874,72.4485034 39.467732,81.8379027 24.1565764,74.4553837 C8.84542086,67.0728647 5.36998527,43.919699 5.04788687,37.4238258 C4.25970773,21.5342162 13.9996159,21.7256722 17.6928869,26.7524768" id="Fill-97" fill="#D6E8F0"></path>
                <path d="M9.35606164,24.4229714 C8.56974434,28.2954635 7.44953698,35.5317572 8.74413673,40.6626543 C10.5904619,47.983833 15.1358351,62.4136681 22.9487385,63.5915253 C30.7610212,64.7693825 32.3237259,69.362468 38.9493956,68.5117589 C45.5750653,67.6610498 61.8692727,57.7338388 66.371203,51.9480258 C67.9959691,49.859978 69.9217328,48.984485 71.7196501,48.71434 C72.7889672,51.7478954 73.9451701,57.2821513 70.8923723,62.5629914 C65.1777632,72.4486893 39.4676079,81.8380886 24.1564523,74.4555696 C8.84529673,67.072431 5.36986115,43.9198849 5.04776275,37.4233921 C4.66918851,29.7992296 6.71721305,25.8846048 9.35606164,24.4229714" id="Fill-99" fill="#ECF9FF"></path>
                <path d="M71.9898652,51.7954186 C74.0726441,51.49987 77.8807285,48.6862721 77.6765467,46.5480369 C76.704666,36.370508 74.1378085,45.4686959 73.4960942,45.3348626 C72.7780444,45.1861589 73.6419384,43.9457222 73.2310922,42.4171721 C73.0473906,41.7318959 72.0264814,41.5918666 72.0382731,41.9146775 C72.1512247,45.01453 66.8530473,44.6780879 68.210329,49.8504982 C68.5187739,51.0252574 70.785875,51.9664279 71.9898652,51.7954186" id="Fill-101" fill="#F39B9B"></path>
                <path d="M22.5777357,77.4473641 L8.07399828,76.2775617 C8.07399828,76.2775617 7.44593742,89.9533451 14.2999929,91.2693728 C21.154669,92.5860201 23.457145,82.4202636 22.5777357,77.4473641" id="Fill-103" fill="#EFF6FA"></path>
            </g>
        </g>
    </g>
</svg>