<?xml version="1.0" encoding="UTF-8"?>
<svg width="30px" height="30px" viewBox="0 0 30 30" version="1.1" xmlns="http://www.w3.org/2000/svg" xmlns:xlink="http://www.w3.org/1999/xlink">
    <!-- Generator: Sketch 57.1 (83088) - https://sketch.com -->
    <title>medical-history-5</title>
    <desc>Created with Sketch.</desc>
    <g id="Solutions" stroke="none" stroke-width="1" fill="none" fill-rule="evenodd">
        <g transform="translate(-324.000000, -1923.000000)" fill="#0A1B43" fill-rule="nonzero" id="Feature-(Selected)">
            <g transform="translate(302.400000, 1896.480000)">
                <g id="medical-history-5" transform="translate(22.320000, 27.360000)">
                    <path d="M25.8000188,10.8 L13.7999813,10.8 C12.143925,10.8019687 10.8019687,12.1439812 10.8,13.7999812 L10.8,18 L11.9999812,18 L11.9999812,13.7999812 C11.9999812,12.805875 12.805875,11.9999812 13.7999813,11.9999812 L25.7999625,11.9999812 C26.7940688,11.9999812 27.5999625,12.805875 27.5999625,13.7999812 L27.5999625,25.7999625 C27.5999625,26.7940688 26.7940688,27.5999625 25.7999625,27.5999625 L13.7999813,27.5999625 C12.805875,27.5999625 11.9999812,26.7940688 11.9999812,25.7999625 L11.9999812,23.4 L10.8,23.4 L10.8,25.8000187 C10.8019687,27.456075 12.1439812,28.7980313 13.7999813,28.8 L25.7999625,28.8 C27.4560188,28.7980312 28.797975,27.4560187 28.7999438,25.8000187 L28.7999438,13.7999812 C28.7980313,12.1439812 27.4560188,10.8019687 25.8000188,10.8 Z" id="Path"></path>
                    <path d="M24.5999812,13.2000187 L15.0000187,13.2000187 C14.0059125,13.2000187 13.2000187,14.0059125 13.2000187,15.0000188 L13.2000187,17.4000375 L14.4,17.4000375 L14.4,15.0000188 C14.4,14.66865 14.66865,14.4 15.0000187,14.4 L24.6000375,14.4 C24.9314062,14.4 25.2000562,14.66865 25.2000562,15.0000188 L25.2000562,22.2000187 C25.2000562,22.5313875 24.9314062,22.8000375 24.6000375,22.8000375 L15.0000187,22.8000375 C14.66865,22.8000375 14.4,22.5313875 14.4,22.2000187 L13.2000187,22.2000187 C13.2000187,23.194125 14.0059125,24.0000187 15.0000187,24.0000187 L24.6000375,24.0000187 C25.5941437,24.0000187 26.4000375,23.194125 26.4000375,22.2000187 L26.4000375,15.0000188 C26.4000375,14.0059125 25.5940875,13.2000187 24.5999812,13.2000187 Z" id="Path"></path>
                    <rect id="Rectangle" x="13.2000187" y="25.2" width="2.40001875" height="1.19998125"></rect>
                    <rect id="Rectangle" x="16.8000187" y="25.2" width="2.40001875" height="1.19998125"></rect>
                    <rect id="Rectangle" x="20.4000188" y="25.2" width="2.40001875" height="1.19998125"></rect>
                    <rect id="Rectangle" x="24.0000187" y="25.2" width="2.40001875" height="1.19998125"></rect>
                    <path d="M6.4243125,0.17595 C6.19003125,-0.0583875 5.81011875,-0.05844375 5.57578125,0.1758375 L0.17578125,5.5758375 L1.0242,6.42425625 L5.4,2.0484 L5.4,4.79998125 C5.4,5.13135 5.13135,5.4 4.79998125,5.4 L2.99998125,5.4 L2.99998125,6.59998125 L4.79998125,6.59998125 L4.79998125,6.59998125 C5.7940875,6.59998125 6.59998125,5.7940875 6.59998125,4.79998125 L6.59998125,0.60001875 C6.59998125,0.44094375 6.53675625,0.28839375 6.4243125,0.17595 Z" id="Path"></path>
                    <path d="M18.6000188,0 L6.00001875,0 C5.8408875,0 5.6883375,0.06328125 5.5758375,0.17578125 L0.1758375,5.57578125 C0.0633375,5.68828125 5.625e-05,5.8408875 5.625e-05,5.9999625 L5.625e-05,23.4 C0.002025,25.0560563 1.3440375,26.3980125 3.0000375,26.3999812 L9.60001875,26.3999812 L9.60001875,25.2 L2.99998125,25.2 C2.005875,25.2 1.19998125,24.3941063 1.19998125,23.4 L1.19998125,6.24841875 L6.2483625,1.2000375 L18.5999625,1.2000375 C19.5940688,1.2000375 20.3999625,2.00593125 20.3999625,3.0000375 L20.3999625,9.60001875 L21.6,9.60001875 L21.6,2.99998125 C21.5980313,1.34398125 20.2560188,0.00196875 18.6000188,0 Z" id="Path"></path>
                    <path d="M20.6484187,18.6000187 L17.8242188,15.7758187 C17.5899375,15.5415937 17.2101375,15.5415937 16.9758,15.7758187 L11.9999812,20.7516375 L10.0242,18.7758562 C9.9117,18.6633 9.75909375,18.600075 9.60001875,18.600075 L2.99998125,18.600075 L2.99998125,19.8 L9.3515625,19.8 L11.5757437,22.0241812 C11.6882437,22.1366812 11.84085,22.1999625 11.999925,22.1999625 C12.1590563,22.1999625 12.3116062,22.1366812 12.4241062,22.0241812 L17.399925,17.0483625 L19.975725,19.6241625 C20.088225,19.7367187 20.2408312,19.7999437 20.3999063,19.7999437 L23.9999063,19.7999437 L23.9999063,18.5999625 L20.6484187,18.5999625 L20.6484187,18.6000187 Z" id="Path"></path>
                    <path d="M16.587,3.11641875 C15.6427875,2.29190625 14.27445,2.1706875 13.2000187,2.8164375 C12.1249125,2.17153125 10.756575,2.29393125 9.8130375,3.11945625 C9.73873125,3.1851 9.66853125,3.2553 9.6028875,3.32960625 C8.7233625,4.32523125 8.8174125,5.84533125 9.8130375,6.72485625 L12.7956375,9.443475 C12.906225,9.544275 13.05045,9.60007504 13.2000187,9.60007504 C13.3500375,9.5992875 13.4943187,9.5423625 13.6044,9.44049375 L16.587,6.721875 C16.6613062,6.65623125 16.7315062,6.58603125 16.79715,6.511725 C17.676675,5.51604375 17.582625,3.99594375 16.587,3.11641875 Z M15.7799813,5.8374 L13.1999625,8.18758125 L10.6217438,5.84038125 C10.5741,5.79965625 10.5297188,5.75521875 10.4889375,5.707575 C10.0567688,5.20205625 10.116225,4.44195 10.6217438,4.00978125 C10.9206,3.7427625 11.3082188,3.596625 11.7089438,3.6 L11.7089438,3.6 C12.109725,3.59555625 12.4977375,3.74056875 12.797325,4.0068 C13.0264312,4.215825 13.3770375,4.215825 13.6061437,4.0068 C14.227875,3.460725 15.15825,3.460725 15.779925,4.0068 C15.8275687,4.047525 15.87195,4.0919625 15.9127312,4.13960625 C16.3449562,4.64506875 16.2855,5.40523125 15.7799813,5.8374 Z" id="Shape"></path>
                    <rect id="Rectangle" x="2.99998125" y="15.5999812" width="6.00001875" height="1.19998125"></rect>
                    <rect id="Rectangle" x="2.99998125" y="12.6" width="6.00001875" height="1.19998125"></rect>
                    <rect id="Rectangle" x="5.4" y="9.60001875" width="3.6" height="1.19998125"></rect>
                    <rect id="Rectangle" x="2.99998125" y="9.60001875" width="1.19998125" height="1.19998125"></rect>
                </g>
            </g>
        </g>
    </g>
</svg>