<?xml version="1.0" encoding="UTF-8"?>
<svg width="30px" height="30px" viewBox="0 0 30 30" version="1.1" xmlns="http://www.w3.org/2000/svg" xmlns:xlink="http://www.w3.org/1999/xlink">
    <!-- Generator: Sketch 57.1 (83088) - https://sketch.com -->
    <title>hospital-4</title>
    <desc>Created with Sketch.</desc>
    <g id="Solutions" stroke="none" stroke-width="1" fill="none" fill-rule="evenodd">
        <g transform="translate(-324.000000, -2102.000000)" fill="#0A1B43" fill-rule="nonzero" id="Feature">
            <g transform="translate(302.400000, 2075.040000)">
                <g id="hospital-4" transform="translate(22.320000, 27.360000)">
                    <rect id="Rectangle" x="4.79045614" y="9.58130526" width="1.79649123" height="1.19764211"></rect>
                    <rect id="Rectangle" x="4.79045614" y="12.5752702" width="1.79649123" height="1.19764211"></rect>
                    <rect id="Rectangle" x="4.79045614" y="15.5697965" width="1.79649123" height="1.19764211"></rect>
                    <rect id="Rectangle" x="7.78498246" y="9.58130526" width="1.79649123" height="1.19764211"></rect>
                    <rect id="Rectangle" x="7.78498246" y="12.5752702" width="1.79649123" height="1.19764211"></rect>
                    <rect id="Rectangle" x="7.78498246" y="15.5697965" width="1.79649123" height="1.19764211"></rect>
                    <path d="M26.1024,10.6113684 C26.1296281,10.5847579 26.1565754,10.5578105 26.183186,10.5305825 C28.031607,8.63752982 27.9954526,5.60449123 26.1024,3.75607018 C24.2093474,1.90764912 21.1763088,1.94380351 19.3278877,3.83685614 C17.4794667,5.72990877 17.5156211,8.76294737 19.4086737,10.6113684 C18.2710456,11.3774596 17.4472982,12.498807 17.0448842,13.773193 L14.3719298,13.773193 L14.3719298,4.19188772 C14.3719298,3.86116491 14.1038035,3.5930386 13.7730807,3.5930386 L11.3777404,3.5930386 L11.3777404,2.99424561 C11.3777404,2.66352281 11.109614,2.39539649 10.7788912,2.39539649 L8.9824,2.39539649 L8.9824,0.598905263 C8.9824,0.268182456 8.71427368,5.61403509e-05 8.38355088,5.61403509e-05 L5.98821053,5.61403509e-05 C5.6576,5.61403509e-05 5.38947368,0.268182456 5.38947368,0.598905263 L5.38947368,2.39539649 L3.59298246,2.39539649 C3.26225965,2.39539649 2.99413333,2.66352281 2.99413333,2.99424561 L2.99413333,3.59309474 L0.598849123,3.59309474 C0.268126316,3.59309474 0,3.86116491 0,4.19188772 L0,28.1451228 C0,28.4758456 0.268126316,28.7439719 0.598849123,28.7439719 L13.1742877,28.7439719 L13.7731368,28.7439719 L28.1450667,28.7439719 C28.4757895,28.7439719 28.7440536,28.4758456 28.7440536,28.1451228 L28.7440536,15.6208281 C28.7570526,13.682807 27.8304,11.7749895 26.1024,10.6113684 Z M4.19183158,3.59309474 L5.98832281,3.59309474 C6.31904561,3.59309474 6.58717193,3.32496842 6.58717193,2.99424561 L6.58717193,1.19775439 L7.78481404,1.19775439 L7.78481404,2.99424561 C7.78481404,3.32496842 8.05294035,3.59309474 8.38366316,3.59309474 L10.1801544,3.59309474 L10.1801544,4.79073684 L8.38366316,4.79073684 C8.05294035,4.79073684 7.78481404,5.05886316 7.78481404,5.38958596 L7.78481404,7.18607719 L6.58717193,7.18607719 L6.58717193,5.38958596 C6.58717193,5.05886316 6.31904561,4.79073684 5.98832281,4.79073684 L4.19183158,4.79073684 L4.19183158,3.59309474 Z M4.79062456,27.5462737 L4.79062456,20.3603088 L9.58124912,20.3603088 L9.58124912,27.5462737 L4.79062456,27.5462737 Z M13.1743439,27.5463298 L10.7789474,27.5463298 L10.7789474,27.5463298 L10.7789474,19.7615158 C10.7789474,19.430793 10.5108211,19.1626667 10.1800982,19.1626667 L4.19183158,19.1626667 C3.86110877,19.1626667 3.59298246,19.430793 3.59298246,19.7615158 L3.59298246,27.5463298 L1.19764211,27.5463298 L1.19764211,4.79073684 L2.99413333,4.79073684 L2.99413333,5.38958596 C2.99413333,5.72030877 3.26225965,5.98843509 3.59298246,5.98843509 L5.38947368,5.98843509 L5.38947368,7.78492632 C5.38947368,8.11564912 5.6576,8.38377544 5.98832281,8.38377544 L8.38366316,8.38377544 C8.71438596,8.38377544 8.98251228,8.11564912 8.98251228,7.78492632 L8.98251228,5.98843509 L10.7790035,5.98843509 C11.1097263,5.98843509 11.3778526,5.72030877 11.3778526,5.38958596 L11.3778526,4.79073684 L13.1743439,4.79073684 L13.1743439,27.5463298 Z M16.1684211,27.5462737 L14.3719298,27.5462737 L14.3719298,20.3603088 L15.5695719,20.3603088 C15.9002947,20.3603088 16.1684211,20.6284351 16.1684211,20.9591579 L16.1684211,27.5462737 L16.1684211,27.5462737 Z M22.1567439,27.5462737 L17.3661193,27.5462737 L17.3661193,26.3486316 L20.3602526,26.3486316 L20.3602526,25.1509895 L17.3661193,25.1509895 L17.3661193,23.9533474 L20.3602526,23.9533474 L20.3602526,22.7557053 L17.3661193,22.7557053 L17.3661193,20.959214 C17.3661193,19.9670456 16.5617965,19.1627228 15.5696281,19.1627228 L14.3719298,19.1627228 L14.3719298,14.9708912 L16.7983719,14.9708912 C16.777993,15.1718737 16.7671579,15.3747649 16.7673263,15.5791719 C16.7697965,18.6816561 19.1330807,21.2306526 22.1567439,21.5287018 L22.1567439,27.5462737 L22.1567439,27.5462737 Z M27.5462175,27.5462737 L23.354386,27.5462737 L23.354386,21.5279719 C25.0160281,21.3623018 26.5389474,20.5076772 27.5462175,19.1646877 L27.5462175,27.5462737 L27.5462175,27.5462737 Z M27.5462175,15.5696281 L27.5462175,15.6469895 C27.5180912,17.4201263 26.5029614,19.1087158 24.7892211,19.9122526 C24.3229193,20.1308632 23.8392702,20.2668351 23.3544421,20.3280281 L23.3544421,11.3778526 L22.1568,11.3778526 L22.1568,20.3270737 C20.5826246,20.1271579 19.1415018,19.1513825 18.4180211,17.6083649 C17.2948211,15.2128 18.3263439,12.3603088 20.7219088,11.2371649 C20.8223439,11.1899509 20.9076772,11.1157895 20.9684211,11.0229333 C21.1494175,10.7461614 21.0717754,10.3750175 20.7949474,10.1940211 C19.7807158,9.53139649 19.1686737,8.40218947 19.1671579,7.1906807 C19.1646316,5.20634386 20.7712,3.59562105 22.7555368,3.59309474 C23.9670456,3.59466667 25.0961965,4.20665263 25.7588772,5.22088421 C26.8442386,6.88213333 26.3773754,9.10865965 24.7161263,10.1939649 C24.6232702,10.2547088 24.5490526,10.3400421 24.5018947,10.4404772 C24.3612632,10.7398175 24.4898807,11.0964772 24.7892211,11.2371088 C25.8027789,11.7123368 26.617993,12.5274947 27.0931649,13.5410526 C27.4011509,14.1979509 27.5461053,14.8890947 27.546386,15.5696281 L27.5462175,15.5696281 Z" id="Shape"></path>
                    <rect id="Rectangle" x="5.98849123" y="23.3542175" width="1.19764211" height="1.19764211"></rect>
                    <rect id="Rectangle" x="2.39534035" y="9.58130526" width="1.19764211" height="1.19764211"></rect>
                    <rect id="Rectangle" x="2.39534035" y="12.5752702" width="1.19764211" height="1.19764211"></rect>
                    <rect id="Rectangle" x="2.39534035" y="15.5697965" width="1.19764211" height="1.19764211"></rect>
                    <rect id="Rectangle" x="10.7789474" y="15.5697965" width="1.19764211" height="1.19764211"></rect>
                    <rect id="Rectangle" x="10.7789474" y="9.58130526" width="1.19764211" height="1.19764211"></rect>
                    <rect id="Rectangle" x="10.7789474" y="12.5752702" width="1.19764211" height="1.19764211"></rect>
                </g>
            </g>
        </g>
    </g>
</svg>