<?xml version="1.0" encoding="UTF-8"?>
<svg width="30px" height="29px" viewBox="0 0 30 29" version="1.1" xmlns="http://www.w3.org/2000/svg" xmlns:xlink="http://www.w3.org/1999/xlink">
    <!-- Generator: Sketch 57.1 (83088) - https://sketch.com -->
    <title>networking-3</title>
    <desc>Created with Sketch.</desc>
    <g id="Solutions" stroke="none" stroke-width="1" fill="none" fill-rule="evenodd">
        <g transform="translate(-324.000000, -2013.000000)" fill="#0A1B43" fill-rule="nonzero" id="Feature">
            <g transform="translate(302.400000, 1985.760000)">
                <g id="networking-3" transform="translate(22.320000, 27.360000)">
                    <path d="M18.7895812,22.8305812 C17.9094937,22.5385312 17.0451562,22.2010875 16.2,21.8196 L16.2,21.7914187 C17.6635125,21.0954375 18.5970937,19.6206187 18.6000188,18 L18.6000188,16.2 C18.6000188,13.8804188 16.7196375,11.9999812 14.4,11.9999812 C12.0803625,11.9999812 10.1999813,13.8804188 10.1999813,16.2 L10.1999813,18 C10.20285,19.6206187 11.1364312,21.0954375 12.6,21.7914187 L12.6,21.8196 C11.7548437,22.2011437 10.8905063,22.5385875 10.0104187,22.8305812 C7.82521875,23.5589625 7.80001875,25.1334 7.80001875,25.2 L7.80001875,28.8 L9,28.8 L9,25.2162 C9,25.1838 9.06001875,24.4122187 10.3896,23.9724 C11.4413063,23.6284312 12.4696688,23.2167937 13.4682188,22.7400187 C13.6726313,22.6378687 13.801275,22.4285062 13.8000375,22.2000187 L13.8000375,21.3906375 C13.80015,21.1364437 13.6400625,20.9097562 13.4004375,20.8248187 C12.20355,20.4006937 11.4027187,19.2697875 11.4000187,18 L11.4000187,16.2 C11.4000187,14.5431562 12.7431562,13.2000187 14.4,13.2000187 C16.0568437,13.2000187 17.3999812,14.5431562 17.3999812,16.2 L17.3999812,18 C17.3973375,19.2697875 16.59645,20.4006937 15.3995625,20.8248187 C15.1599375,20.9097 14.99985,21.1363875 14.9999625,21.3906375 L14.9999625,22.2000187 C14.998725,22.4285062 15.1273687,22.6378687 15.3317813,22.7400187 C16.3303875,23.2157812 17.35875,23.6264625 18.4104,23.9694187 C19.7399812,24.4122187 19.8,25.1838 19.8,25.2 L19.8,28.8 L20.9999812,28.8 L20.9999812,25.2 C20.9999812,25.1334 20.9747812,23.5590187 18.7895812,22.8305812 Z" id="Path"></path>
                    <path d="M8.3986875,11.9986873 C6.07910625,11.9994187 4.1992875,13.8804187 4.20001875,16.2 L4.20001875,18 C4.2028875,19.6206187 5.13646875,21.0954375 6.6000375,21.7914187 L6.6000375,21.8196 C5.75488125,22.2011437 4.89054375,22.5385875 4.01045625,22.8305813 C1.8252,23.5590187 1.8,25.1334 1.8,25.2 L1.8,28.8 L2.99998125,28.8 L2.99998125,25.2162 C2.99998125,25.1838 3.06,24.4122188 4.38958125,23.9724 C5.4412875,23.6284312 6.46965,23.2167938 7.4682,22.7400187 C7.6726125,22.6378688 7.80125625,22.4285062 7.80001875,22.2000187 L7.80001875,21.3906375 C7.80013125,21.1364437 7.64004375,20.9097562 7.40041875,20.8248187 C6.20353125,20.4006937 5.40264375,19.2697875 5.4,18 L5.4,16.2 C5.3994375,15.6990937 5.52436875,15.20595 5.7632625,14.7656812 C6.553575,13.3094812 8.37478125,12.76965 9.83098125,13.5599625 L10.404,12.5075812 C9.78845625,12.1734 9.0991125,11.9984625 8.3986875,11.9986873 Z" id="Path"></path>
                    <rect id="Rectangle" x="13.7999812" y="25.8000187" width="1.19998125" height="1.19998125"></rect>
                    <rect id="Rectangle" x="16.2" y="25.8000187" width="1.19998125" height="1.19998125"></rect>
                    <rect id="Rectangle" x="11.4000187" y="25.8000187" width="1.19998125" height="1.19998125"></rect>
                    <path d="M27,28.8 L27,25.2 C27,25.1334 26.9748,23.5590187 24.7896,22.8305813 C23.9095125,22.5385313 23.045175,22.2010875 22.2000188,21.8196 L22.2000188,21.7914188 C23.6635313,21.0954375 24.5971125,19.6206188 24.6000375,18 L24.6000375,16.2983813 C24.617475,15.564375 24.4422,14.8385813 24.09165,14.1933938 C22.9842,12.1552313 20.4342188,11.4006938 18.3960563,12.5081438 L18.969075,13.562325 C19.6205625,13.209975 20.3787,13.10895 21.0996563,13.2785438 C22.4736188,13.6303875 23.4257625,14.8802625 23.4000563,16.298325 L23.4000563,18 C23.3974125,19.2697875 22.596525,20.4006938 21.3996375,20.8248187 C21.1600125,20.9097 20.999925,21.1363875 21.0000375,21.3906375 L21.0000375,22.2000188 C20.9988,22.4285063 21.1274438,22.6378688 21.3318563,22.7400188 C22.3304625,23.2157813 23.358825,23.6264625 24.410475,23.9694188 C25.7400563,24.4122188 25.800075,25.1838 25.800075,25.2 L25.800075,28.8 L27,28.8 Z" id="Path"></path>
                    <path d="M25.8000187,0 L2.99998125,0 C1.34398125,0.00196875 0.00196875,1.34398125 0,2.99998125 L0,12.6 L1.19998125,12.6 L1.19998125,2.99998125 C1.19998125,2.005875 2.005875,1.19998125 2.99998125,1.19998125 L25.7999625,1.19998125 C26.7940688,1.19998125 27.5999625,2.005875 27.5999625,2.99998125 L27.5999625,12.6 L28.8,12.6 L28.8,2.99998125 C28.7980312,1.34398125 27.4560187,0.00196875 25.8000187,0 Z" id="Path"></path>
                    <path d="M15.0000187,2.99998125 L4.20001875,2.99998125 C3.86865,2.99998125 3.6,3.26863125 3.6,3.6 L3.6,6.00001875 C3.6,6.3313875 3.86865,6.6000375 4.20001875,6.6000375 L15.0000188,6.6000375 C15.3313875,6.6000375 15.6000375,6.3313875 15.6000375,6.00001875 L15.6000375,3.6 C15.6000375,3.26863125 15.3313875,2.99998125 15.0000187,2.99998125 Z M14.4,5.4 L4.79998125,5.4 L4.79998125,4.20001875 L14.4,4.20001875 L14.4,5.4 Z" id="Shape"></path>
                    <rect id="Rectangle" x="16.8000187" y="2.99998125" width="1.19998125" height="1.19998125"></rect>
                    <rect id="Rectangle" x="19.1999813" y="2.99998125" width="1.19998125" height="1.19998125"></rect>
                    <rect id="Rectangle" x="16.8000187" y="5.4" width="8.39998125" height="1.19998125"></rect>
                    <path d="M9.60721875,8.39998125 C9.5707125,8.4038625 9.53386875,8.4040875 9.49730625,8.40065625 C9.19411875,8.3721375 8.97148125,8.10320625 9,7.80001875 L7.80001875,7.80001875 C7.79900625,7.83410625 7.79900625,7.86825 7.80001875,7.9023375 C7.82825625,8.86820625 8.63415,9.6283125 9.60001875,9.60001875 L14.4,9.60001875 L14.4,8.4000375 L9.60721875,8.4000375 L9.60721875,8.39998125 Z" id="Path"></path>
                    <path d="M20.9999812,7.80001875 L19.8,7.80001875 C19.8034875,7.83568125 19.8034875,7.871625 19.8,7.9072875 C19.7704125,8.20906875 19.5017625,8.429625 19.1999813,8.4000375 L14.4,8.4000375 C14.0686312,8.4000375 13.7999812,8.6686875 13.7999812,9.00005625 L13.7999812,10.8000562 L14.9999625,10.8000562 L14.9999625,9.600075 L19.1999812,9.600075 C19.2340687,9.6010875 19.2682125,9.6010875 19.3023,9.600075 C20.2681687,9.571725 21.028275,8.7658875 20.9999812,7.80001875 Z" id="Path"></path>
                </g>
            </g>
        </g>
    </g>
</svg>