<?xml version="1.0" encoding="UTF-8"?>
<svg width="30px" height="30px" viewBox="0 0 30 30" version="1.1" xmlns="http://www.w3.org/2000/svg" xmlns:xlink="http://www.w3.org/1999/xlink">
    <!-- Generator: Sketch 57.1 (83088) - https://sketch.com -->
    <title>network-2</title>
    <desc>Created with Sketch.</desc>
    <g id="Solutions" stroke="none" stroke-width="1" fill="none" fill-rule="evenodd">
        <g transform="translate(-324.000000, -1834.000000)" fill="#0A1B43" fill-rule="nonzero" id="Feature">
            <g transform="translate(302.400000, 1807.200000)">
                <g id="network-2" transform="translate(22.320000, 27.360000)">
                    <path d="M28.6242188,1.97578125 L26.8242188,0.17578125 C26.7117188,0.06328125 26.5591125,0 26.4000375,0 L21.6,0 C20.9372625,0 20.4000188,0.53724375 20.4000188,1.19998125 L20.4000188,8.39998125 C20.4000188,9.06271875 20.9372625,9.5999625 21.6,9.5999625 L27.6000188,9.5999625 C28.2627563,9.5999625 28.8,9.06271875 28.8,8.39998125 L28.8,2.40001875 C28.8,2.2408875 28.7367188,2.08828125 28.6242188,1.97578125 Z M27.6000188,8.39998125 L21.6,8.39998125 L21.6,1.19998125 L26.1515813,1.19998125 L27.6000188,2.6483625 L27.6000188,8.39998125 L27.6000188,8.39998125 Z" id="Shape"></path>
                    <path d="M27,1.8 L27,0.60001875 L25.8000187,0.60001875 L25.8000187,2.40001875 C25.8000187,2.7313875 26.0686687,3.0000375 26.4000375,3.0000375 L28.2000375,3.0000375 L28.2000375,1.8 L27,1.8 Z" id="Path"></path>
                    <path d="M8.2242,1.97578125 L6.4242,0.17578125 C6.3117,0.06328125 6.15909375,0 6.00001875,0 L1.19998125,0 C0.53724375,0 0,0.53724375 0,1.19998125 L0,8.39998125 C0,9.06271875 0.53724375,9.5999625 1.19998125,9.5999625 L7.2,9.5999625 C7.8627375,9.5999625 8.39998125,9.06271875 8.39998125,8.39998125 L8.39998125,2.40001875 C8.39998125,2.2408875 8.33675625,2.08828125 8.2242,1.97578125 Z M7.2,8.39998125 L1.19998125,8.39998125 L1.19998125,1.19998125 L5.7515625,1.19998125 L7.2,2.64841875 L7.2,8.39998125 Z" id="Shape"></path>
                    <path d="M6.59998125,1.8 L6.59998125,0.60001875 L5.4,0.60001875 L5.4,2.40001875 C5.4,2.7313875 5.66865,3.0000375 6.00001875,3.0000375 L7.80001875,3.0000375 L7.80001875,1.8 L6.59998125,1.8 Z" id="Path"></path>
                    <path d="M8.2242,21.1758188 L6.4242,19.3758188 C6.3117,19.2632625 6.15909375,19.2000375 6.00001875,19.2000375 L1.19998125,19.2000375 C0.53724375,19.2000375 0,19.7372813 0,20.4000188 L0,27.6000187 C0,28.2627562 0.53724375,28.8 1.19998125,28.8 L7.2,28.8 C7.8627375,28.8 8.39998125,28.2627562 8.39998125,27.6000188 L8.39998125,21.6 C8.39998125,21.4408687 8.33675625,21.2883188 8.2242,21.1758188 Z M7.2,27.6000187 L1.19998125,27.6000187 L1.19998125,20.4000188 L5.7515625,20.4000188 L7.2,21.8484 L7.2,27.6000187 Z" id="Shape"></path>
                    <path d="M6.59998125,20.9999813 L6.59998125,19.8 L5.4,19.8 L5.4,21.6 C5.4,21.9313688 5.66865,22.2000187 6.00001875,22.2000187 L7.80001875,22.2000187 L7.80001875,21.0000375 L6.59998125,21.0000375 L6.59998125,20.9999813 Z" id="Path"></path>
                    <path d="M28.6242188,21.1758188 L26.8242188,19.3758188 C26.7117188,19.2632625 26.5591125,19.2000375 26.4000375,19.2000375 L21.6,19.2000375 C20.9372625,19.2000375 20.4000188,19.7372813 20.4000188,20.4000188 L20.4000188,27.6000188 C20.4000188,28.2627562 20.9372625,28.8 21.6,28.8 L27.6000188,28.8 C28.2627563,28.8 28.8,28.2627562 28.8,27.6000188 L28.8,21.6 C28.8,21.4408687 28.7367188,21.2883188 28.6242188,21.1758188 Z M27.6000188,27.6000187 L21.6,27.6000187 L21.6,20.4000188 L26.1515813,20.4000188 L27.6000188,21.8484 L27.6000188,27.6000187 L27.6000188,27.6000187 Z" id="Shape"></path>
                    <path d="M27,20.9999813 L27,19.8 L25.8000187,19.8 L25.8000187,21.6 C25.8000187,21.9313688 26.0686687,22.2000187 26.4000375,22.2000187 L28.2000375,22.2000187 L28.2000375,21.0000375 L27,21.0000375 L27,20.9999813 Z" id="Path"></path>
                    <rect id="Rectangle" x="9.60001875" y="4.20001875" width="9.60001875" height="1.19998125"></rect>
                    <rect id="Rectangle" x="9.60001875" y="23.4" width="9.60001875" height="1.19998125"></rect>
                    <rect id="Rectangle" x="3.6" y="10.8" width="1.19998125" height="7.2"></rect>
                    <rect id="Rectangle" x="24.0000187" y="10.8" width="1.19998125" height="7.2"></rect>
                    <path d="M14.4,7.80001875 C10.7549438,7.80001875 7.80001875,10.7549438 7.80001875,14.4 C7.80001875,18.0450562 10.7549438,20.9999812 14.4,20.9999812 C18.0433125,20.9957062 20.9957062,18.0433125 20.9999812,14.4 C20.9999812,10.7549438 18.0450562,7.80001875 14.4,7.80001875 Z M14.4,19.8 C11.4176812,19.8 9,17.3823187 9,14.4 C9,11.4176812 11.4176812,9 14.4,9 C17.3809687,9.00331875 19.7966812,11.4190312 19.8,14.4 C19.8,17.3823187 17.3823187,19.8 14.4,19.8 Z" id="Shape"></path>
                    <rect id="Rectangle" x="13.7999812" y="13.7999812" width="1.19998125" height="1.19998125"></rect>
                    <rect id="Rectangle" x="16.2" y="13.7999812" width="1.19998125" height="1.19998125"></rect>
                    <rect id="Rectangle" x="11.4000188" y="13.7999812" width="1.19998125" height="1.19998125"></rect>
                    <rect id="Rectangle" x="2.40001875" y="3.6" width="1.8" height="1.19998125"></rect>
                    <rect id="Rectangle" x="2.40001875" y="6.00001875" width="3.6" height="1.19998125"></rect>
                    <rect id="Rectangle" x="22.7999812" y="3.6" width="1.8" height="1.19998125"></rect>
                    <rect id="Rectangle" x="22.7999812" y="6.00001875" width="3.6" height="1.19998125"></rect>
                    <rect id="Rectangle" x="22.7999812" y="22.7999812" width="1.8" height="1.19998125"></rect>
                    <rect id="Rectangle" x="22.7999812" y="25.2" width="3.6" height="1.19998125"></rect>
                    <rect id="Rectangle" x="2.40001875" y="22.7999812" width="1.8" height="1.19998125"></rect>
                    <rect id="Rectangle" x="2.40001875" y="25.2" width="3.6" height="1.19998125"></rect>
                </g>
            </g>
        </g>
    </g>
</svg>