<?xml version="1.0" encoding="UTF-8"?>
<svg width="141px" height="248px" viewBox="0 0 141 248" version="1.1" xmlns="http://www.w3.org/2000/svg" xmlns:xlink="http://www.w3.org/1999/xlink">
    <!-- Generator: Sketch 57.1 (83088) - https://sketch.com -->
    <title>Illustration</title>
    <desc>Created with Sketch.</desc>
    <g id="Solutions" stroke="none" stroke-width="1" fill="none" fill-rule="evenodd">
        <g transform="translate(-1145.000000, -335.000000)" id="Hero">
            <g>
                <g id="Illustration" transform="translate(1145.520000, 335.520000)">
                    <path d="M84.9975021,25.4485544 C84.9975021,25.4485544 48.4363443,32.9300412 41.9853046,45.3121953 C35.5342649,57.6943493 44.2989019,77.5203331 44.2989019,77.5203331 L62.5680708,57.3458029 L78.0953284,50.5675391 L84.9975021,25.4485544 Z" id="Fill-371" fill="#F39B9B"></path>
                    <path d="M78.0959428,50.5676267 L84.9972387,25.448642 C84.9972387,25.448642 64.6575933,29.6136837 51.6431693,36.8674769 C51.5369685,42.0168556 52.4102725,52.9119952 60.9151126,59.1718181 L62.5686852,57.3458905 L78.0959428,50.5676267 Z" id="Fill-372" fill="#BA104A"></path>
                    <path d="M86.590865,2.88236547 C86.590865,2.88236547 89.493394,-1.71616985 94.0161433,0.703512699 C98.5397703,3.12319525 96.4254092,11.9209263 99.1085151,15.9029374 C101.789866,19.8858242 108.96939,13.952654 111.981631,20.6818761 C114.992994,27.411974 108.311121,37.324528 97.4891725,36.007408 C86.6672242,34.6911638 83.1090589,10.200088 86.590865,2.88236547" id="Fill-373" fill="#0E244C"></path>
                    <path d="M78.0033462,13.8714724 C78.0033462,13.8714724 76.0864659,7.23420351 82.2364571,4.0079601 C88.3873259,0.781716699 92.7731552,5.75507074 92.7652667,11.8914137 C92.7591122,16.5442452 92.4387544,20.6707541 85.7252847,20.6821531 C79.0118149,20.6935235 78.0033462,13.8714724 78.0033462,13.8714724" id="Fill-374" fill="#0E244C"></path>
                    <path d="M78.0959428,50.5676267 L78.532156,48.9772743 L70.7996852,38.5550369 C70.7996852,38.5550369 65.1815757,49.1480445 63.5762762,56.9053909 L78.0959428,50.5676267 Z" id="Fill-375" fill="#0E244C"></path>
                    <path d="M41.4693969,238.034788 C40.5425537,240.323108 27.6510066,242.02468 25.3602292,241.607826 C24.0226259,241.365245 25.0030084,239.883485 26.0509732,238.692472 C22.3409671,241.260155 17.7752108,244.54157 17.7865995,245.921744 C17.803297,248.22145 41.2482184,245.042496 44.8537791,242.334694 C46.7399402,240.918615 44.9871884,238.645182 42.7315187,236.119534 C42.2189463,236.633596 41.7801001,237.266759 41.4693969,238.034788" id="Fill-376" fill="#0E244C"></path>
                    <path d="M31.329679,229.291878 C31.329679,229.291878 31.7737914,232.782596 30.6442012,235.247818 C30.150938,236.322356 28.4253946,237.30319 26.0503588,238.692121 C25.0032717,239.88401 24.0228892,241.364894 25.3596148,241.607476 C27.6512699,242.02433 40.542817,240.323634 41.4696602,238.034437 C41.7803634,237.266409 42.2192096,236.634121 42.731782,236.120059 L42.6703435,236.050876 C40.5077093,233.600542 39.2885944,230.521424 39.0463513,227.324956 C35.7339399,228.431897 33.1210494,228.821603 31.1462413,228.875024 C31.2076798,229.016018 31.2673629,229.151759 31.329679,229.291878" id="Fill-377" fill="#C87171"></path>
                    <path d="M73.5446685,229.291878 C73.5446685,229.291878 73.9703493,232.782596 72.8407591,235.248693 C72.3483736,236.322356 70.6228302,237.30319 68.2477944,238.692121 C67.1998296,239.88401 66.2194471,241.364894 67.5579281,241.607476 C69.8478278,242.02433 82.7402525,240.323634 83.6662181,238.034437 C83.9777989,237.266409 84.4166452,236.634121 84.9292176,236.120059 C82.8727841,233.816851 81.0305076,230.410204 80.5170575,228.143777 L73.5446685,229.291878 Z" id="Fill-378" fill="#C87171"></path>
                    <path d="M83.6663936,238.034788 C82.7395504,240.323108 69.8480033,242.02468 67.5572259,241.607826 C66.2196226,241.365245 67.2000051,239.883485 68.2479699,238.692472 C64.5379638,241.260155 59.9722075,244.54157 59.9835962,245.921744 C60.0002937,248.22145 83.4460928,245.042496 87.0507758,242.334694 C88.936937,240.918615 87.1841851,238.645182 84.9285154,236.119534 C84.415943,236.633596 83.9770968,237.266759 83.6663936,238.034788" id="Fill-379" fill="#0E244C"></path>
                    <path d="M114.465325,123.004322 L25.7025293,123.004322 C24.2964659,124.37136 23.4231619,125.222584 23.4231619,125.222584 L34.3609655,137.880597 L82.9579203,154.264029 C82.9579203,154.264029 79.9869312,138.469974 82.1530763,136.505678 C84.2121428,134.636839 108.533001,132.982557 114.465325,123.004322" id="Fill-380" fill="#0E244C"></path>
                    <path d="M96.7528762,68.9463548 C95.1186128,56.5300467 110.944286,42.1546978 101.765378,32.6747616 C91.610476,22.1850918 81.8136726,22.4644544 70.185125,35.3921974 C61.4389194,45.1164663 76.45536,51.8421855 67.6801906,69.4280144 C64.8110139,75.178154 44.1571546,85.0618084 31.441146,93.4453123 C9.04594476,108.210368 -10.8021929,123.461461 6.68407431,178.981047 C11.3630529,193.838055 15.6698899,211.694489 20.8605632,236.119884 C22.8353713,236.066464 38.0747457,234.907854 40.16892,228.144477 C40.068863,226.832612 48.9590101,162.341898 36.1762969,139.122403 C30.4168789,128.661633 34.4656743,129.429661 46.2179765,127.158855 C42.9933344,145.793826 47.3475667,184.676014 59.9828276,234.109174 C59.9828276,234.109174 64.8496324,235.745065 72.3179177,234.109174 C78.1712488,232.827084 80.5173208,228.144477 80.5173208,228.144477 C80.5173208,228.144477 97.1961109,168.805769 78.0957673,143.248912 C68.0742746,129.840385 79.209559,128.802628 95.9761184,125.41262 C129.359152,118.66238 97.8052295,76.9427795 96.7528762,68.9463548" id="Fill-381" fill="#BA104A"></path>
                    <path d="M96.7640229,69.0057303 C96.2619828,70.8938358 95.8678989,73.0210197 95.7064035,75.3951635 C95.0042495,85.7236963 104.774722,109.434484 92.765256,114.523436 C80.7575452,119.612388 69.7196847,123.973597 68.3162544,132.939471 C66.9689964,141.555047 54.9121349,156.504009 45.2540069,145.542312 C45.8069531,166.640753 50.6184633,197.471345 59.983442,234.108999 C59.983442,234.108999 64.8502468,235.74489 72.3176544,234.108999 C78.1709855,232.826909 80.5170575,228.144302 80.5170575,228.144302 C80.5170575,228.144302 97.1958476,168.805594 78.095504,143.248737 C68.0740113,129.84021 79.2092957,128.802453 95.9767328,125.412445 C129.281651,118.677969 97.9541739,77.1396469 96.7640229,69.0057303" id="Fill-382" fill="#930C3A"></path>
                    <path d="M88.4971253,17.232493 L90.935355,27.1765738 C91.3303166,28.8159678 88.2566375,33.970601 85.17857,32.4914683 C84.2763021,32.0588504 84.7511338,29.5717355 85.0732469,27.7020206 L85.0434054,18.6827261 L88.4971253,17.232493 Z" id="Fill-383" fill="#F39B9B"></path>
                    <path d="M85.0608714,24.0395688 C87.0541111,22.8879645 88.4628075,19.1800616 88.4628075,19.1800616 L85.0477061,19.9699833 L85.0608714,24.0395688 Z" id="Fill-384" fill="#311E69"></path>
                    <path d="M87.0117185,10.8435852 L88.500285,14.5330976 C89.681659,17.4589605 88.4353357,20.9172763 85.5292959,22.1555793 C82.8453123,23.2984261 79.7698779,22.314089 78.5375977,18.8820456 C77.4413598,15.8309512 79.0449039,12.6082107 79.5232463,11.0038465 C80.6133404,7.34498521 84.9877597,6.72670947 87.0117185,10.8435852" id="Fill-385" fill="#F39B9B"></path>
                    <path d="M87.3074131,13.6777577 C87.4531101,13.3598624 87.5487785,13.0235764 87.6242601,12.6829118 C87.767324,12.033985 88.1315663,11.1030684 88.991705,11.7887764 C90.2432944,12.7862496 89.2892427,16.2016539 87.6225047,16.1105764 C86.385836,16.0440198 86.9405377,14.4790641 87.3074131,13.6777577" id="Fill-386" fill="#F39B9B"></path>
                    <path d="M79.4218728,14.8614142 C79.2937297,14.5356372 79.2164928,14.1958483 79.1594428,13.8508049 C79.0506089,13.1948721 78.7381504,12.2455649 77.8420264,12.8839827 C76.538653,13.8131478 77.3075117,17.2749666 78.9751274,17.274091 C80.2135514,17.2732151 79.7448637,15.6811113 79.4218728,14.8614142" id="Fill-387" fill="#F39B9B"></path>
                    <path d="M84.8998149,20.9877737 C83.7570593,21.2890299 81.6075904,21.3065448 80.6043879,20.8021158 C79.7152854,20.3546103 78.703306,19.0120937 78.4847606,18.7117133 C78.5040698,18.7686367 78.5172352,18.8255601 78.5374221,18.8816078 C79.7697024,22.3145269 82.8451368,23.2979882 85.5291204,22.1551414 C87.3204907,21.3923678 88.4772894,19.7845005 88.8283664,17.9795907 C87.6039854,19.8107729 85.9267151,20.7171686 84.8998149,20.9877737" id="Fill-388" fill="#C87171"></path>
                    <path d="M106.110131,89.3129358 C105.293,87.4414695 104.439005,85.6164176 103.590276,83.8684312 L85.3026757,83.8684312 C85.3026757,83.8684312 93.0439234,88.9976678 106.110131,89.3129358" id="Fill-389" fill="#0E244C"></path>
                    <path d="M56.6541789,100.71084 C61.5710122,98.0450736 62.1827638,96.3487562 62.1827638,96.3487562 C62.1827638,96.3487562 30.6920355,111.373032 23.4238641,120.581487 C16.1556927,129.789943 23.7881064,141.420708 17.7864453,150.871744 C13.9588284,156.896868 6.3641554,157.392539 0.975123593,154.897543 C1.99324687,161.977063 3.83552337,169.936706 6.68363546,178.980521 C11.3626141,193.83753 15.6703287,211.69484 20.861002,236.120234 C22.8358101,236.065938 38.0743069,234.908204 40.1693588,228.143952 C40.0693019,226.832086 48.9585713,162.342248 36.1767357,139.122754 C30.41644,128.661108 34.4661131,129.429136 46.2175377,127.159206 C46.2175377,127.159206 51.736468,103.375732 56.6541789,100.71084" id="Fill-390" fill="#930C3A"></path>
                    <path d="M88.3419492,74.5116247 L74.8834128,74.5116247 L76.7327108,60.0697192 C76.917904,58.6247404 75.7891914,57.3452775 74.3295888,57.3452775 L36.7862932,57.3452775 C35.251209,57.3452775 34.1031873,58.7508477 34.412135,60.2501226 L38.8927551,81.998366 C39.1165667,83.0869166 40.07764,83.8680809 41.190554,83.8680809 L71.6192745,83.8680809 C71.7974461,83.8680809 71.9685961,83.8426843 72.1353577,83.8050273 L72.1388684,83.8102817 L72.3012415,83.757737 C72.3679462,83.7375949 72.4355285,83.72008 72.4987223,83.6938077 L88.2989423,78.5978494 C89.3144325,78.2703209 90.0042988,77.3253924 90.0042988,76.2596111 L90.0042988,76.1694094 C90.0042988,75.2533804 89.2600156,74.5116247 88.3419492,74.5116247" id="Fill-391" fill="#0E244C"></path>
                    <polygon id="Fill-392" fill="#FFFFFF" points="73.7520672 79.6455027 86.5128381 75.3955138 74.7833559 75.3955138"></polygon>
                    <path d="M80.6527488,17.4082549 C80.6527488,17.4082549 82.8443469,17.6228124 84.6190411,17.113129 C84.6190411,17.113129 85.138635,18.2717392 83.0909785,18.8978966 C81.0441996,19.5240541 80.6527488,17.4082549 80.6527488,17.4082549" id="Fill-393" fill="#FFFFFF"></path>
                    <path d="M90.7161952,25.5965553 C90.7161952,25.5965553 115.74974,27.4005893 133.5432,53.6624208 C154.906234,85.1944838 121.826883,92.1689144 85.302588,83.8686063 L87.7645154,79.6457655 C87.7645154,79.6457655 118.135308,70.9995382 117.987856,66.1864455 C117.885166,62.8428523 102.26575,49.2766914 102.26575,49.2766914 L102.092845,45.4829655 C101.929594,41.9195604 100.671861,38.4918957 98.4890397,35.6658676 L90.7161952,25.5965553 Z" id="Fill-394" fill="#F39B9B"></path>
                    <path d="M56.6541789,68.5930794 C56.6541789,69.9224598 55.5746172,70.9996258 54.24228,70.9996258 C52.9099428,70.9996258 51.8303811,69.9224598 51.8303811,68.5930794 C51.8303811,67.263699 52.9099428,66.186533 54.24228,66.186533 C55.5746172,66.186533 56.6541789,67.263699 56.6541789,68.5930794" id="Fill-395" fill="#FFFFFF"></path>
                    <path d="M129.151226,63.5502788 C129.151226,63.5502788 122.370174,63.813878 117.209343,64.3892422 C117.686807,65.127495 117.97469,65.7466465 117.987856,66.1862703 C118.000143,66.5724737 117.796519,66.9849495 117.448075,67.4140644 C125.579018,68.0130737 129.151226,63.5502788 129.151226,63.5502788" id="Fill-396" fill="#0E244C"></path>
                    <path d="M87.764252,79.6455027 C87.764252,79.6455027 84.4176106,75.9866415 81.2666946,75.4953487 C78.4335033,75.0539734 78.9030688,77.1146006 80.6259791,77.5209461 C81.5896855,77.747764 82.9106127,79.5561768 82.0329202,80.6193308 L78.094714,81.8891606 C78.094714,81.8891606 81.1675154,83.8193019 85.3023247,83.8683436 C85.3023247,83.8683436 88.2566375,81.5625078 87.764252,79.6455027" id="Fill-397" fill="#F39B9B"></path>
                    <path d="M46.2178888,127.158943 C46.2178888,127.158943 51.6358844,104.345794 68.4682707,95.9009879 C74.2303218,93.0101547 74.472565,92.3647309 74.472565,92.3647309 L70.4193811,92.6116909 C61.5660971,93.1511496 53.5861171,98.3749667 49.8673341,106.4108 C49.8216941,106.508883 49.7769317,106.608718 49.7312917,106.707677 C47.5309167,111.583824 46.2178888,127.158943 46.2178888,127.158943" id="Fill-398" fill="#0E244C"></path>
                    <path d="M133.543112,53.6622456 C125.490283,41.7766388 115.955032,34.9011673 107.927657,30.9349197 C114.516494,35.1052158 121.58894,41.2809673 127.783694,50.4254933 C142.953731,72.8156576 130.668669,84.8983069 109.195045,87.0517631 C134.102202,87.6945597 150.023543,77.9869299 133.543112,53.6622456" id="Fill-399" fill="#C87171"></path>
                    <path d="M135.571108,56.8736014 C134.954968,55.8305895 134.289677,54.7648082 133.542761,53.6622456 C115.750179,27.4004141 90.716634,25.5972558 90.716634,25.5972558 L98.4894786,35.6656924 C100.671422,38.4917205 101.930033,41.9193852 102.092406,45.4836661 L102.266189,49.2765163 C102.266189,49.2765163 117.885605,62.8426771 117.988295,66.1862703 C117.989172,66.2326848 117.968985,66.2817265 117.964597,66.3290167 C122.131881,66.3649222 130.939525,65.3560644 135.571108,56.8736014" id="Fill-400" fill="#BA104A"></path>
                </g>
            </g>
        </g>
    </g>
</svg>