<?xml version="1.0" encoding="UTF-8"?>
<svg width="124px" height="428px" viewBox="0 0 124 428" version="1.1" xmlns="http://www.w3.org/2000/svg" xmlns:xlink="http://www.w3.org/1999/xlink">
    <!-- Generator: Sketch 57.1 (83088) - https://sketch.com -->
    <title>Group 62</title>
    <desc>Created with Sketch.</desc>
    <defs>
        <path d="M8.78363236,10.5635428 C10.2893117,15.039846 10.2546117,20.0170365 8.68707577,24.472218 L8.68707577,24.472218 C9.65264167,24.7588704 11.0798688,24.8720226 12.0469434,25.158675 L12.0469434,25.158675 C14.9104498,21.2843418 16.99396,16.8336864 18.1345347,12.1506918 L18.1345347,12.1506918 C18.8783222,9.09558092 19.0563484,5.43095656 16.7827424,3.25541588 L16.7827424,3.25541588 C15.1548586,1.69693216 12.7364178,1.38010585 10.4944944,1.13871437 L10.4944944,1.13871437 C7.09389202,0.775118458 3.6902722,0.411522547 0.288161075,0.0479266351 L0.288161075,0.0479266351 C4.22736823,2.65042849 7.27946172,6.08874834 8.78363236,10.5635428" id="path-1"></path>
        <path d="M39.0703675,0.916935951 L11.5502305,1.49627549 C11.3571173,2.61723716 11.159478,3.73970753 10.9723996,4.85765181 L10.9723996,4.85765181 C10.5710863,7.22027088 10.1908947,9.57383778 9.81522926,11.9183525 L9.81522926,11.9183525 C9.50443773,13.850993 9.20118969,15.7791074 8.91001122,17.7026958 L8.91001122,17.7026958 C8.80591115,18.3695397 8.70784586,19.0378924 8.60978057,19.7047363 L8.60978057,19.7047363 C5.99822653,37.2418271 4.1244252,54.2599262 2.83901558,70.5900596 L2.83901558,70.5900596 C-3.58803248,152.070244 4.53479071,216.71639 9.1981723,244.838497 L9.1981723,244.838497 L9.91480324,244.821901 L20.243341,244.606158 L31.8723754,244.36024 L33.4052113,244.322523 C25.0530662,168.66289 31.9447929,100.570881 39.3328808,56.3117537 L39.3328808,56.3117537 C46.6636382,165.790332 59.9537477,219.673436 67.8291446,243.172896 L67.8291446,243.172896 C67.8744055,243.311696 67.9287186,243.453513 67.9739795,243.586279 L67.9739795,243.586279 L90.7070218,243.108022 L91.0329003,243.103496 C81.2203367,168.076007 78.1486302,111.96305 77.8634865,72.1922955 L77.8634865,72.1922955 C77.7337386,54.3534654 78.1682433,39.8035941 78.806422,28.3133599 L78.806422,28.3133599 C79.0538482,23.8732654 79.3299397,19.8872886 79.6226269,16.3478861 L79.6226269,16.3478861 C79.7403053,14.8844503 79.8594923,13.4949406 79.9832054,12.179357 L79.9832054,12.179357 C80.4584449,6.96831853 80.9472626,2.93406348 81.3440499,0.0177527005 L81.3440499,0.0177527005 L39.0703675,0.916935951 Z" id="path-3"></path>
        <path d="M37.4394664,1.34575748 C35.9262435,1.61128811 34.4341425,1.9371666 32.9646719,2.308306 L32.9646719,2.308306 C32.8122935,2.34904081 32.6644412,2.38223214 32.5105542,2.42749304 L32.5105542,2.42749304 C23.6846783,2.00656665 15.2058027,7.21458776 9.91027715,14.317532 L9.91027715,14.317532 C4.50612547,21.560785 1.94586712,30.5194261 0.384366006,39.4207368 L0.384366006,39.4207368 C3.95243377,40.5416985 7.36057968,41.6143819 10.8154952,42.7066783 L10.8154952,42.7066783 C10.7657082,43.509305 10.7204473,44.330036 10.672169,45.1703801 L10.672169,45.1703801 C10.3960775,50.1883054 10.1335643,55.9183356 9.89217279,62.4540098 L9.89217279,62.4540098 C9.68397264,68.18404 9.49085946,74.5492315 9.333955,81.5948452 L9.333955,81.5948452 C9.23438102,85.6577655 9.15442009,89.9545338 9.07898525,94.4821327 L9.07898525,94.4821327 C9.05032002,96.2623948 9.02618087,98.077357 9.00053302,99.93758 L9.00053302,99.93758 C8.97186779,102.046738 8.94169385,104.217753 8.9175547,106.432519 L8.9175547,106.432519 C12.3830311,107.456925 15.8801901,108.345547 19.3954535,109.104421 L19.3954535,109.104421 C19.9536713,109.2221 20.507363,109.339778 21.0655808,109.454439 L21.0655808,109.454439 C30.0151698,111.289014 39.0914893,112.277211 48.1798784,112.416011 L48.1798784,112.416011 C61.4081313,112.633263 74.6590147,111.061201 87.5840195,107.704351 L87.5840195,107.704351 C87.805798,97.1389476 87.9445981,87.7156278 87.9989111,79.3197305 L87.9989111,79.3197305 C88.0275764,75.1662884 88.0426634,71.2647987 88.0351199,67.5971569 L88.0351199,67.5971569 C88.0351199,63.4874671 88.009472,59.6704643 87.9687372,56.1355879 L87.9687372,56.1355879 C94.29772,55.0493262 100.423029,53.0156031 106.278281,49.9755791 L106.278281,49.9755791 C105.824163,38.0055793 102.016212,25.9616533 94.312807,16.7993381 L94.312807,16.7993381 C87.0303278,8.13338407 76.0545591,2.33998863 64.7770511,2.308306 L64.7770511,2.308306 C63.9155853,2.08501888 63.0360151,1.88285352 62.1504101,1.70180991 L62.1504101,1.70180991 C58.2112029,0.879570193 54.1226348,0.419417691 49.9148796,0.350017641 L49.9148796,0.350017641 C49.5618446,0.343982854 49.2103182,0.340965461 48.8587919,0.340965461 L48.8587919,0.340965461 C44.9542848,0.340965461 41.1357734,0.686457012 37.4394664,1.34575748" id="path-5"></path>
        <path d="M20.0698409,0.986336 C20.3821411,2.68211112 20.7125457,4.37336016 21.0625634,6.0600831 L21.0625634,6.0600831 C17.9274916,5.48677834 15.13942,3.77742495 12.2472484,2.43468486 L12.2472484,2.43468486 C9.13480703,0.987844697 5.55768709,-0.0682430131 2.31549782,1.24734053 L2.31549782,1.24734053 C1.67128432,1.51287116 1.09043607,1.93530624 0.731366253,2.53425884 L0.731366253,2.53425884 C-0.412225867,4.4457776 1.31824928,6.47799209 2.94160696,7.78452346 L2.94160696,7.78452346 C5.75834375,10.0596381 8.77121112,12.0978874 11.9289134,13.8736235 L11.9289134,13.8736235 C14.6098675,15.3823202 18.1884961,17.7690784 21.3235679,17.9938742 L21.3235679,17.9938742 L25.6580536,15.6508682 L25.7681885,15.373268 C26.6734065,12.8869358 25.9537582,9.21929405 25.1269924,7.0301751 L25.1269924,7.0301751 C24.2338439,4.66604732 23.0374474,2.41356311 21.5679768,0.358718161 L21.5679768,0.358718161 C21.3914593,0.112800594 21.144033,0.00568312664 20.8981154,0.00568312664 L20.8981154,0.00568312664 C20.4243847,0.00568312664 19.9642322,0.408505153 20.0698409,0.986336" id="path-7"></path>
        <path d="M16.5591036,0.0177527005 C15.4200376,0.0177527005 14.2794629,0.215391972 13.233936,0.612179212 L13.233936,0.612179212 C9.37318112,2.08164983 6.61980959,5.50186531 4.36430798,8.9643243 L4.36430798,8.9643243 C1.91871058,12.7255052 -0.243251834,17.2546128 1.02405342,21.5589246 L1.02405342,21.5589246 C2.53275015,26.6915109 8.56150228,29.3709563 13.8887104,28.8821385 L13.8887104,28.8821385 C19.2159186,28.3918121 23.9864176,25.5222709 28.5472078,22.7251472 L28.5472078,22.7251472 C26.1529061,25.7078406 25.8390972,30.1735829 26.5587456,33.9302378 L26.5587456,33.9302378 C27.2814113,37.6868926 29.7164478,41.0799516 33.0446328,42.9658225 L33.0446328,42.9658225 C37.003453,35.9881001 36.3004003,26.3731759 34.0418813,18.6742965 L34.0418813,18.6742965 C30.0015915,19.3788578 25.6655971,16.5062993 24.7362399,12.5097616 L24.7362399,12.5097616 C24.1071134,9.79259881 24.8810748,6.81594016 23.8234784,4.23606875 L23.8234784,4.23606875 C22.681395,1.4479972 19.6262841,0.0177527005 16.5591036,0.0177527005 Z" id="path-9"></path>
    </defs>
    <g id="Contact" stroke="none" stroke-width="1" fill="none" fill-rule="evenodd">
        <g transform="translate(-552.000000, -794.000000)" id="Form-+-Contact-Info">
            <g transform="translate(93.600000, 383.040000)">
                <g id="Group-62" transform="translate(457.920000, 411.120000)">
                    <g id="Group-9" transform="translate(0.796460, 37.010132)">
                        <polygon id="Fill-3" fill="#0E244C" points="47.864237 28.7636049 36.8266117 19.9045377 52.7252579 0.0953496333 63.7643918 8.95441683"></polygon>
                        <path d="M34.8001303,38.0840315 C36.3148618,36.0593605 38.6382548,34.8086509 40.9737173,33.8385589 C43.3091798,32.8684669 45.7532685,32.1065751 47.8971266,30.763835 C51.9374164,28.2352593 54.6017749,23.635243 54.7858359,18.8722874 C54.8401489,17.4767429 53.6271568,16.2109464 52.666117,15.1986108 C52.3704124,14.8878193 52.04906,14.5936235 51.6567988,14.4246494 C51.2645377,14.2586928 50.7892982,14.2360623 50.4257023,14.4623668 C49.8342932,14.8304888 49.7664018,15.660272 49.8342932,16.3542725 C50.059089,18.6610698 51.0367245,20.8169975 51.999273,22.9231381 C49.4163842,22.898999 46.7761649,24.2538086 45.1844899,26.2890405 L36.82631,19.9042359 L47.8201831,6.20677834 C43.6591975,7.06673548 40.1786341,9.90761142 37.9065369,13.4983096 C35.6344396,17.0874992 34.5662823,21.3329717 34.2132473,25.5678835 C33.8602122,29.8012865 34.4712344,33.8476111 34.8001303,38.0840315" id="Fill-5" fill="#F39B9B"></path>
                        <path d="M32.8981163,86.1855076 C31.6534415,88.4892875 30.288071,90.7432804 28.7899351,92.8207558 C26.288516,96.292267 23.4265183,99.2734517 20.1224724,101.180444 C14.8375078,104.237064 8.29579876,103.989638 4.40939599,99.1195647 C2.01207689,96.108206 0.865467372,91.7088463 0.598428051,87.2687519 C0.464154042,85.0041981 0.539588879,82.7200312 0.73270206,80.4358644 L0.73722815,80.3619382 C0.82473256,79.313394 0.933358725,78.2603237 1.05858055,77.2117795 C1.13703278,76.7184356 1.23208068,76.219057 1.33919815,75.7091175 C1.47799824,75.0120996 1.64546358,74.2909426 1.83857676,73.557716 C4.45465689,71.4968362 7.49015471,69.9730526 10.5754395,69.2217216 C13.9277637,68.3964645 17.3298748,68.4764254 20.2944638,69.746748 C21.9359259,70.4528181 23.5094966,71.4576101 24.9684063,72.7128458 C28.6858351,75.9218438 31.6383546,80.7270428 32.8981163,86.1855076" id="Fill-7" fill="#F39B9B"></path>
                    </g>
                    <g id="Group-12" transform="translate(69.391699, 15.099681)">
                        <mask id="mask-2" fill="white">
                            <use xlink:href="#path-1"></use>
                        </mask>
                        <g id="Clip-11"></g>
                        <path d="M8.78363236,10.5635428 C10.2893117,15.039846 10.2546117,20.0170365 8.68707577,24.472218 L8.68707577,24.472218 C9.65264167,24.7588704 11.0798688,24.8720226 12.0469434,25.158675 L12.0469434,25.158675 C14.9104498,21.2843418 16.99396,16.8336864 18.1345347,12.1506918 L18.1345347,12.1506918 C18.8783222,9.09558092 19.0563484,5.43095656 16.7827424,3.25541588 L16.7827424,3.25541588 C15.1548586,1.69693216 12.7364178,1.38010585 10.4944944,1.13871437 L10.4944944,1.13871437 C7.09389202,0.775118458 3.6902722,0.411522547 0.288161075,0.0479266351 L0.288161075,0.0479266351 C4.22736823,2.65042849 7.27946172,6.08874834 8.78363236,10.5635428" id="Fill-10" fill="#0E244C" mask="url(#mask-2)"></path>
                    </g>
                    <g id="Group-15" transform="translate(20.324707, 168.986748)">
                        <mask id="mask-4" fill="white">
                            <use xlink:href="#path-3"></use>
                        </mask>
                        <g id="Clip-14"></g>
                        <path d="M39.0703675,0.916935951 L11.5502305,1.49627549 C11.3571173,2.61723716 11.159478,3.73970753 10.9723996,4.85765181 L10.9723996,4.85765181 C10.5710863,7.22027088 10.1908947,9.57383778 9.81522926,11.9183525 L9.81522926,11.9183525 C9.50443773,13.850993 9.20118969,15.7791074 8.91001122,17.7026958 L8.91001122,17.7026958 C8.80591115,18.3695397 8.70784586,19.0378924 8.60978057,19.7047363 L8.60978057,19.7047363 C5.99822653,37.2418271 4.1244252,54.2599262 2.83901558,70.5900596 L2.83901558,70.5900596 C-3.58803248,152.070244 4.53479071,216.71639 9.1981723,244.838497 L9.1981723,244.838497 L9.91480324,244.821901 L20.243341,244.606158 L31.8723754,244.36024 L33.4052113,244.322523 C25.0530662,168.66289 31.9447929,100.570881 39.3328808,56.3117537 L39.3328808,56.3117537 C46.6636382,165.790332 59.9537477,219.673436 67.8291446,243.172896 L67.8291446,243.172896 C67.8744055,243.311696 67.9287186,243.453513 67.9739795,243.586279 L67.9739795,243.586279 L90.7070218,243.108022 L91.0329003,243.103496 C81.2203367,168.076007 78.1486302,111.96305 77.8634865,72.1922955 L77.8634865,72.1922955 C77.7337386,54.3534654 78.1682433,39.8035941 78.806422,28.3133599 L78.806422,28.3133599 C79.0538482,23.8732654 79.3299397,19.8872886 79.6226269,16.3478861 L79.6226269,16.3478861 C79.7403053,14.8844503 79.8594923,13.4949406 79.9832054,12.179357 L79.9832054,12.179357 C80.4584449,6.96831853 80.9472626,2.93406348 81.3440499,0.0177527005 L81.3440499,0.0177527005 L39.0703675,0.916935951 Z" id="Fill-13" fill="#112955" mask="url(#mask-4)"></path>
                    </g>
                    <path d="M101.665438,169.004651 C101.270159,171.922471 100.784359,175.9522 100.307611,181.169273 C100.186915,182.481839 100.06471,183.86984 99.9455233,185.331767 C99.6543449,188.872678 99.3797621,192.858655 99.1308271,197.300258 C75.4699363,198.692785 51.5540758,195.779492 28.9341857,188.694652 C29.3219208,186.108746 29.718708,183.512279 30.1396344,180.902234 C30.5137912,178.559228 30.8970002,176.205661 31.2983135,173.846059 C31.4853919,172.728115 31.6815225,171.607153 31.8761443,170.483174 L59.3947727,169.902326 L101.665438,169.004651 Z" id="Fill-16" fill="#0E244C"></path>
                    <g id="Group-20" transform="translate(17.307313, 76.236247)">
                        <mask id="mask-6" fill="white">
                            <use xlink:href="#path-5"></use>
                        </mask>
                        <g id="Clip-19"></g>
                        <path d="M37.4394664,1.34575748 C35.9262435,1.61128811 34.4341425,1.9371666 32.9646719,2.308306 L32.9646719,2.308306 C32.8122935,2.34904081 32.6644412,2.38223214 32.5105542,2.42749304 L32.5105542,2.42749304 C23.6846783,2.00656665 15.2058027,7.21458776 9.91027715,14.317532 L9.91027715,14.317532 C4.50612547,21.560785 1.94586712,30.5194261 0.384366006,39.4207368 L0.384366006,39.4207368 C3.95243377,40.5416985 7.36057968,41.6143819 10.8154952,42.7066783 L10.8154952,42.7066783 C10.7657082,43.509305 10.7204473,44.330036 10.672169,45.1703801 L10.672169,45.1703801 C10.3960775,50.1883054 10.1335643,55.9183356 9.89217279,62.4540098 L9.89217279,62.4540098 C9.68397264,68.18404 9.49085946,74.5492315 9.333955,81.5948452 L9.333955,81.5948452 C9.23438102,85.6577655 9.15442009,89.9545338 9.07898525,94.4821327 L9.07898525,94.4821327 C9.05032002,96.2623948 9.02618087,98.077357 9.00053302,99.93758 L9.00053302,99.93758 C8.97186779,102.046738 8.94169385,104.217753 8.9175547,106.432519 L8.9175547,106.432519 C12.3830311,107.456925 15.8801901,108.345547 19.3954535,109.104421 L19.3954535,109.104421 C19.9536713,109.2221 20.507363,109.339778 21.0655808,109.454439 L21.0655808,109.454439 C30.0151698,111.289014 39.0914893,112.277211 48.1798784,112.416011 L48.1798784,112.416011 C61.4081313,112.633263 74.6590147,111.061201 87.5840195,107.704351 L87.5840195,107.704351 C87.805798,97.1389476 87.9445981,87.7156278 87.9989111,79.3197305 L87.9989111,79.3197305 C88.0275764,75.1662884 88.0426634,71.2647987 88.0351199,67.5971569 L88.0351199,67.5971569 C88.0351199,63.4874671 88.009472,59.6704643 87.9687372,56.1355879 L87.9687372,56.1355879 C94.29772,55.0493262 100.423029,53.0156031 106.278281,49.9755791 L106.278281,49.9755791 C105.824163,38.0055793 102.016212,25.9616533 94.312807,16.7993381 L94.312807,16.7993381 C87.0303278,8.13338407 76.0545591,2.33998863 64.7770511,2.308306 L64.7770511,2.308306 C63.9155853,2.08501888 63.0360151,1.88285352 62.1504101,1.70180991 L62.1504101,1.70180991 C58.2112029,0.879570193 54.1226348,0.419417691 49.9148796,0.350017641 L49.9148796,0.350017641 C49.5618446,0.343982854 49.2103182,0.340965461 48.8587919,0.340965461 L48.8587919,0.340965461 C44.9542848,0.340965461 41.1357734,0.686457012 37.4394664,1.34575748" id="Fill-18" fill="#BA104A" mask="url(#mask-6)"></path>
                    </g>
                    <g id="Group-37" transform="translate(1.500346, 24.190092)">
                        <path d="M50.2896898,66.9774252 C50.2896898,66.9774252 33.4254778,106.259362 36.8713411,161.500293 C36.3131233,161.38714 35.7594316,161.267953 35.2012138,161.148766 C31.6859504,160.392909 28.1903001,159.502778 24.7248237,158.479882 C24.7474542,156.265115 24.7791368,154.0941 24.8078021,151.983434 C24.8334499,150.123211 24.857589,148.309757 24.8862543,146.529495 C24.9616891,142.000387 25.04165,137.703619 25.1397153,133.640699 C25.2981285,126.595085 25.4912417,120.231402 25.6979331,114.501372 C25.9393246,107.964189 26.2018378,102.234159 26.479438,97.2162338 C26.5277163,96.3758897 26.5729772,95.5551587 26.6212555,94.7540407 C23.16634,93.6617443 19.7597028,92.5890609 16.1901263,91.4650818 C17.7531361,82.5667885 20.3133945,73.6081473 25.7175462,66.3648943 C31.0130717,59.2589327 39.4919473,54.053929 48.3163145,54.4733467 C48.4702016,54.4295945 48.6195625,54.3948945 48.7719409,54.3541597 C50.2414115,53.984529 51.7335126,53.6571418 53.2467354,53.3916112 L50.2896898,66.9774252 Z" id="Fill-21" fill="#930C3A"></path>
                        <path d="M77.7306203,55.3880696 C77.4092679,57.3207101 76.8887675,59.2156332 76.1434713,61.0094736 C73.3599258,60.5010428 70.4813325,60.1299034 67.5303217,59.8870032 C62.5516225,59.4811638 57.7253016,59.4917247 53.1584766,59.877951 C52.4991762,59.9322641 51.8474192,59.9956294 51.2047144,60.0650294 C51.9303975,57.8653496 52.6047849,55.6400219 53.2324028,53.3950812 C53.6819944,51.779267 54.1074469,50.1513832 54.5072515,48.5159559 L54.5117776,48.5159559 C55.2238825,45.5890843 55.8575351,42.6425996 56.4112268,39.670467 C57.0690186,36.1552036 57.6076233,32.6052402 58.0330758,29.0401899 C63.9456582,25.5098395 69.7511233,22.5543026 75.9850581,20.2837141 C76.1434713,24.378317 76.2973584,28.4819721 76.4753846,32.5961881 C76.5236629,33.8318107 76.577976,35.0674333 76.632289,36.3030559 C76.8887675,42.1085209 77.1920155,47.9079512 77.602381,53.6726814 C77.6461332,54.2459861 77.6868681,54.8192909 77.7306203,55.3880696" id="Fill-23" fill="#F39B9B"></path>
                        <path d="M52.524824,1.04783077 C50.331179,5.38382516 50.6630922,10.8875508 53.3621507,14.9278407 C55.887709,11.9330777 57.7117234,8.19301847 58.6561675,4.38808532 C58.9081199,3.37424112 59.0680417,2.20047507 58.4358978,1.36767447 C57.8218582,0.559013026 56.6812835,0.379478115 55.6674393,0.415686836 C54.6520864,0.453404255 53.4873725,1.36767447 52.524824,1.04783077" id="Fill-25" fill="#0E244C"></path>
                        <path d="M77.9575282,53.7469092 C77.8986891,54.2960749 77.8247629,54.8452405 77.7312237,55.3883713 C77.4098713,57.3210118 76.889371,59.2159349 76.1440748,61.0097753 C75.6929745,62.0734065 75.1694567,63.0963029 74.5614519,64.0799731 C71.9317935,68.3073414 67.5641165,71.5902655 62.6261521,72.2525833 C57.9537183,72.8817099 52.886006,70.8781606 50.2895389,66.9781796 C50.1462127,66.7594185 50.0089213,66.533114 49.8806821,66.299266 C48.5349246,63.8974208 48.1336113,61.0595623 48.2678853,58.3046821 C48.3372854,56.9755202 48.5243638,55.6599367 48.77179,54.354914 C50.2367346,53.9837746 51.7243095,53.6624222 53.2314976,53.3953829 C54.4776811,53.1736045 55.7344254,52.9850174 57.0032394,52.8416912 C59.8516588,52.5007258 62.7604261,52.3483474 65.7219978,52.3966257 C69.800005,52.4660257 73.7754209,52.9005304 77.6029845,53.6729831 C77.7206629,53.6971223 77.8398499,53.7212614 77.9575282,53.7469092" id="Fill-27" fill="#F39B9B"></path>
                        <path d="M53.7698006,401.610323 C39.072077,404.14946 23.7527704,403.791899 9.03543384,401.33574 C14.113707,395.563467 21.0567294,391.192772 28.7405218,388.861836 L50.6950766,388.395649 C52.9294565,392.452534 53.8693745,397.035955 53.7698006,401.610323" id="Fill-29" fill="#0A1C41"></path>
                        <path d="M112.828488,401.452664 C96.7880247,404.22414 80.0792085,403.828862 64.0161144,401.153942 C69.7355837,394.654477 77.6185241,389.78893 86.3161607,387.307124 C86.4278043,387.273933 86.5409566,387.240741 86.6571262,387.212076 C86.7038958,387.352385 86.7521741,387.489676 86.797435,387.626968 L109.528969,387.145693 L109.533495,387.145693 L109.533495,387.150219 C111.926288,391.546562 112.937115,396.499613 112.828488,401.452664" id="Fill-31" fill="#0A1C41"></path>
                        <path d="M41.5543357,45.7319579 C40.9267179,47.3236329 40.2342261,49.0450559 39.5070343,50.8735963 C38.6712163,52.8816717 37.8353983,55.0526863 36.901515,57.28254 C36.0008231,59.541059 35.0081006,61.864452 34.0199043,64.2874189 C33.0060601,66.6907728 31.9771289,69.192192 30.8637107,71.6981373 C30.3160538,72.9594077 29.7714143,74.1965391 29.2131965,75.4065138 C28.6640309,76.619506 28.1209001,77.8204286 27.5672084,78.977599 C27.0029558,80.1332607 26.4583163,81.2768528 25.9061333,82.3797101 C25.3705459,83.4614457 24.7987499,84.5039551 24.2646712,85.5328863 C24.2541104,85.5524993 24.2435495,85.5781472 24.2299712,85.5977602 C23.116553,87.678253 21.9744696,89.6169283 20.8414384,91.4017166 C19.6857767,93.1819787 18.5482193,94.8128799 17.3865228,96.2521765 C16.2097394,97.6899645 15.067656,98.9617959 13.9014334,100.01034 C13.5589592,100.316606 13.2195025,100.607784 12.8770283,100.879349 C12.0623321,101.541667 11.2506532,102.095359 10.4555701,102.535898 C8.20610325,103.777556 6.02000169,104.103434 4.19447865,103.341542 C2.35990342,102.575125 1.07600251,100.800897 0.443858578,98.2451649 C0.127032265,96.9642814 -0.031380892,95.4857586 0.00784522299,93.8639096 C0.0123713132,93.6617443 0.0184061001,93.4580702 0.0289669772,93.2559048 L0.0334930674,93.1819787 C0.0772452725,92.1832215 0.181345347,91.1301511 0.353336774,90.0318199 C0.433297701,89.5384761 0.528345594,89.0390975 0.635463062,88.529158 C0.774263161,87.8321401 0.941728498,87.1109831 1.13484168,86.3777565 C1.46222887,85.1134686 1.8620335,83.793359 2.34632515,82.4476015 C3.08256916,80.3173217 4.0330481,78.107081 5.12987062,75.833475 C5.66394926,74.6853568 6.28704101,73.5477995 6.91465885,72.386103 C7.54831147,71.2244065 8.21515543,70.0476231 8.94234725,68.8859266 C9.66350429,67.7136692 10.401257,66.5217988 11.1918141,65.3404893 C11.992932,64.1591797 12.8181891,62.9778702 13.6690941,61.7859998 C15.3995693,59.4279068 17.1390966,57.163353 18.9299196,55.0466515 C20.6845339,52.9163717 22.4829004,50.9384703 24.2043234,49.064669 C25.559133,47.6495114 26.8596296,46.2962105 28.1405131,45.0409748 C28.5207047,44.6547484 28.9008963,44.283609 29.2825966,43.9230305 C30.1033276,43.1369995 30.8953934,42.3796337 31.6648287,41.6690376 C31.9635506,41.4004896 34.3412567,39.2008097 34.6324352,38.9428226 C36.5907235,39.6066492 36.4126973,42.3253207 38.2065377,43.348217 C39.3878472,44.0271306 40.5254046,44.8222137 41.5543357,45.7319579" id="Fill-33" fill="#F39B9B"></path>
                        <path d="M122.272628,130.522374 C121.851702,135.149546 121.107914,139.917028 120.018635,144.725245 L118.055821,153.394216 L110.675276,153.733673 C109.427584,153.792512 108.181401,153.849842 106.921639,153.908682 C105.598512,153.985625 104.279911,153.932821 102.968853,153.914716 C102.31257,153.904156 101.662322,153.886051 101.012074,153.873982 C100.363334,153.867947 99.7236468,153.792512 99.0794333,153.750268 C97.7955324,153.652203 96.5206837,153.569225 95.2669567,153.428916 C94.0147384,153.252399 92.7776071,153.083424 91.5480193,152.912942 L90.6277142,152.784703 L89.7270223,152.609694 C89.1220349,152.485981 88.5260997,152.368302 87.9271471,152.252133 C87.3372467,152.134454 86.7443289,152.018285 86.1589545,151.894571 C85.5675454,151.776893 84.9942407,151.612445 84.4194272,151.472136 C83.2773438,151.173414 82.1473299,150.880727 81.027877,150.58804 C79.928037,150.236514 78.838758,149.891022 77.7660746,149.545531 C77.231996,149.376557 76.7009347,149.212109 76.1789257,149.02503 C75.6584253,148.825882 75.1484858,148.63126 74.6325115,148.438147 C73.6141412,148.039851 72.6063318,147.65966 71.6286963,147.261364 C70.6616217,146.828368 69.7126515,146.399898 68.769716,145.985006 C68.3065461,145.767754 67.8448849,145.556537 67.3937846,145.346828 C66.9366495,145.129575 66.4976188,144.889693 66.058588,144.666405 C65.1790178,144.204744 64.3250955,143.753644 63.4802253,143.308578 C62.6383725,142.869548 61.8463068,142.359608 61.0572584,141.896438 C60.2772622,141.428742 59.5153703,140.959538 58.7715828,140.508437 C58.0519345,140.010567 57.342847,139.530802 56.6518639,139.061597 C55.9729504,138.581832 55.2985629,138.124696 54.666419,137.650966 C54.044836,137.163657 53.4368312,136.683891 52.8499482,136.220721 C52.2721173,135.753025 51.7033386,135.29589 51.1571904,134.850825 C50.6200944,134.393689 50.1222245,133.919959 49.6409502,133.479419 C49.1611847,133.029828 48.6980148,132.590797 48.2529492,132.174397 C47.8093924,131.751961 47.3914834,131.341596 47.0173266,130.914635 C46.2494,130.077308 45.5704864,129.292786 44.9836034,128.567103 C44.393703,127.858015 43.9244983,127.148928 43.5382719,126.522819 C43.1520456,125.895201 42.8518149,125.327931 42.6541757,124.824026 C42.2498449,123.828286 42.2151449,123.096568 42.5787408,122.645468 C42.9287585,122.194368 43.6665112,122.041989 44.7165641,122.147598 C45.2415906,122.194368 45.8526127,122.310537 46.5315263,122.49309 C47.2164746,122.663572 47.9602621,122.914016 48.8156931,123.153899 C49.6590546,123.411886 50.56729,123.728712 51.5449255,124.080239 C52.0307258,124.267317 52.5467001,124.442326 53.0853048,124.618843 C53.61184,124.805922 54.1625143,124.999035 54.7297843,125.198183 C55.2880021,125.403366 55.8673416,125.614583 56.4647855,125.825801 C56.7695423,125.925375 57.0727903,126.029475 57.3835818,126.135084 L57.3896166,126.141118 C57.6943734,126.240692 58.0111997,126.346301 58.3265173,126.45191 C58.9586612,126.669162 59.6043834,126.890941 60.2712274,127.126297 C60.9456148,127.336006 61.6365979,127.553258 62.3381419,127.776546 C63.0351598,127.998324 63.750282,128.227646 64.4819999,128.461494 C65.2152265,128.671203 65.9710836,128.88242 66.7375015,129.099673 C67.5039195,129.304855 68.2658113,129.567369 69.068438,129.755956 C69.8710647,129.955104 70.6797261,130.158778 71.5064919,130.36396 C71.9093139,130.469569 72.3257142,130.575178 72.7406058,130.680787 C73.1630409,130.774326 73.585476,130.857304 74.0124372,130.950843 C74.8663595,131.137922 75.7232993,131.325 76.6013608,131.518113 C77.4794223,131.676527 78.3695533,131.840975 79.2777888,131.999388 C79.7228543,132.080857 80.1799894,132.168362 80.629581,132.25134 C81.0867161,132.326775 81.549886,132.379579 82.0115472,132.448979 C82.9318522,132.584762 83.8687529,132.719036 84.8177231,132.859345 C85.7546238,132.952884 86.7216984,133.052458 87.6872643,133.152032 C88.1625038,133.198802 88.6483041,133.26971 89.1341045,133.298376 C89.6259396,133.32855 90.1132487,133.357215 90.6050838,133.391915 C91.0969189,133.422089 91.5887541,133.456789 92.086624,133.491489 L92.822868,133.544293 L93.574199,133.562398 C94.5699388,133.591063 95.5717134,133.615202 96.5855576,133.643867 C97.4922844,133.655937 98.4125894,133.627271 99.3253509,133.621237 C99.2966857,132.338844 99.2604769,131.073048 99.215216,129.831391 C99.0854681,125.931409 98.7927809,122.194368 98.5513895,118.639878 C98.4774633,117.748238 98.4171155,116.876212 98.3582763,116.008711 C98.2934023,115.148754 98.2194762,114.293323 98.1485674,113.449961 C98.1183935,113.033561 98.0897283,112.611126 98.0595543,112.202269 C98.026363,111.785869 97.9841195,111.381538 97.9494195,110.966647 C97.9026499,110.397868 97.8604064,109.836633 97.8196716,109.279924 C99.9982296,108.969132 102.142088,108.542171 104.202967,108.054862 C112.262425,106.140326 118.939917,103.281345 120.463701,102.608467 C120.662849,103.439759 120.860488,104.29519 121.04304,105.167216 C121.225593,106.093556 121.394567,107.042526 121.557506,108.008092 C121.634449,108.489367 121.717428,108.969132 121.792863,109.460967 C121.857737,109.952802 121.92261,110.450672 121.985976,110.954577 C122.103654,111.950317 122.225859,112.968687 122.325433,114.000636 C122.402376,115.03711 122.471776,116.085655 122.53665,117.14476 C122.735798,121.403811 122.717694,125.890675 122.272628,130.522374" id="Fill-35" fill="#F39B9B"></path>
                    </g>
                    <g id="Group-40" transform="translate(32.394281, 140.321510)">
                        <mask id="mask-8" fill="white">
                            <use xlink:href="#path-7"></use>
                        </mask>
                        <g id="Clip-39"></g>
                        <path d="M20.0698409,0.986336 C20.3821411,2.68211112 20.7125457,4.37336016 21.0625634,6.0600831 L21.0625634,6.0600831 C17.9274916,5.48677834 15.13942,3.77742495 12.2472484,2.43468486 L12.2472484,2.43468486 C9.13480703,0.987844697 5.55768709,-0.0682430131 2.31549782,1.24734053 L2.31549782,1.24734053 C1.67128432,1.51287116 1.09043607,1.93530624 0.731366253,2.53425884 L0.731366253,2.53425884 C-0.412225867,4.4457776 1.31824928,6.47799209 2.94160696,7.78452346 L2.94160696,7.78452346 C5.75834375,10.0596381 8.77121112,12.0978874 11.9289134,13.8736235 L11.9289134,13.8736235 C14.6098675,15.3823202 18.1884961,17.7690784 21.3235679,17.9938742 L21.3235679,17.9938742 L25.6580536,15.6508682 L25.7681885,15.373268 C26.6734065,12.8869358 25.9537582,9.21929405 25.1269924,7.0301751 L25.1269924,7.0301751 C24.2338439,4.66604732 23.0374474,2.41356311 21.5679768,0.358718161 L21.5679768,0.358718161 C21.3914593,0.112800594 21.144033,0.00568312664 20.8981154,0.00568312664 L20.8981154,0.00568312664 C20.4243847,0.00568312664 19.9642322,0.408505153 20.0698409,0.986336" id="Fill-38" fill="#F39B9B" mask="url(#mask-8)"></path>
                    </g>
                    <g id="Group-51" transform="translate(0.711649, 19.625771)">
                        <path d="M26.8671232,110.842994 L26.7690579,112.894821 C24.7956826,115.209162 22.6201419,117.171976 20.2077358,118.566012 C14.9227712,121.621123 8.38106215,121.373697 4.49465937,116.503624 C2.09734027,113.492265 0.949222061,109.092905 0.683691437,104.652811 C0.549417428,102.388257 0.623343567,100.10409 0.816456749,97.8199234 L0.820982839,97.7459972 C0.866243741,96.74724 0.970343815,95.6941697 1.14233524,94.5958385 C1.22229617,94.1024946 1.31583537,93.603116 1.42446153,93.0931765 C1.56326163,92.3961586 1.73072697,91.6750016 1.92384015,90.9432837 C2.25122734,89.6774871 2.65103197,88.3573775 3.13532362,87.01162 C3.87156762,84.8813402 4.82204656,82.6710995 5.91886909,80.3974935 C6.45294773,79.2493753 7.07603948,78.1133267 7.70365732,76.9501215 C8.33730994,75.788425 9.0041539,74.6116416 9.73134572,73.4499451 C10.4525028,72.2776878 11.1887468,71.0858173 11.9808125,69.9045078 C12.7819305,68.7231983 13.6071876,67.5418887 14.4565839,66.3500183 C16.1885677,63.9919253 17.928095,61.7273715 19.7189181,59.61067 C21.4735324,57.4803902 23.2718989,55.5024888 24.9933218,53.6286875 C26.3481315,52.2150387 27.6486281,50.860229 28.9295116,49.6049933 C21.5565107,58.6813128 15.8973893,69.1441246 12.3413911,80.2828326 C11.6790732,82.3542732 11.0906815,84.4709747 10.6607029,86.6072893 C10.0919242,89.4496739 9.81432404,92.3373195 10.0421372,95.2294911 C10.3287896,98.8684676 11.52066,102.527057 13.6660268,105.443368 C14.5018448,106.576399 15.480989,107.594769 16.6079854,108.459253 C19.480544,110.654406 23.3865598,111.585272 26.8671232,110.842994" id="Fill-41" fill="#C87171"></path>
                        <path d="M77.2640813,37.1599049 C69.4460149,42.4297825 62.7911536,49.4059962 57.7928413,57.406615 C56.3731577,59.6756948 55.0892568,62.023227 53.9471734,64.4416678 C52.8533682,66.7514825 51.8998719,69.1246625 51.0791409,71.5415946 C50.9358147,71.3243423 50.7970146,71.0965291 50.6687754,70.8641898 C49.3230179,68.4623446 48.9232133,65.6229774 49.0574873,62.8696058 C49.1268873,61.5389353 49.3139657,60.2248605 49.561392,58.9183291 C51.0248278,58.5486984 52.5139115,58.227346 54.0210995,57.9603067 C54.4706911,56.3429838 54.8961436,54.7166087 55.2959482,53.0796727 L55.3004743,53.0796727 C56.0125792,50.1528011 56.6462318,47.2063164 57.1999235,44.2341838 C57.8577153,40.7189204 58.39632,37.168957 58.8217725,33.6054154 C64.734355,30.075065 70.53982,27.1180194 76.7737549,24.8489396 C76.932168,28.9420338 77.0860551,33.0456889 77.2640813,37.1599049" id="Fill-43" fill="#C87171"></path>
                        <path d="M79.0585252,19.4247222 C78.9891252,24.952587 77.8078156,30.589078 74.7768439,35.2071987 C72.7401033,38.3015357 69.7875838,40.8783897 66.3960336,42.3025994 C64.7304324,43.0041434 62.9592224,43.4295959 61.1397342,43.4989959 C55.6224302,43.7207743 49.9180479,40.225124 48.3791772,34.9160202 C46.9021631,29.8120992 49.2753431,24.4486823 51.8069362,19.7762485 C54.3370206,15.1038148 57.18544,10.1537808 56.7056745,4.86429007 C61.886539,1.22983965 68.4131611,-0.490074619 74.114526,1.50291376 C75.1615616,1.86801837 76.1859666,2.35683611 77.1696369,2.99048874 C78.144255,8.42330566 79.1218905,13.9028922 79.0585252,19.4247222" id="Fill-45" fill="#F39B9B"></path>
                        <path d="M77.4997397,20.9038485 C78.2390011,20.2641611 79.0250321,19.6516302 79.9302502,19.2819995 C80.8369769,18.9138775 81.8855211,18.80676 82.7907392,19.1824255 C83.9675226,19.6742606 84.7022579,20.9008311 84.9647712,22.150032 C85.4611324,24.5262293 84.3914664,27.154379 82.3758476,28.50768 C80.3602287,29.860981 77.5223702,29.8549462 75.5127861,28.4941017 C76.5386999,26.0062608 77.0365698,23.5546286 77.4997397,20.9038485" id="Fill-47" fill="#F68895"></path>
                        <path d="M66.3967879,42.3018451 C64.7311867,43.003389 62.9599768,43.4288415 61.1404885,43.4982416 C55.6216759,43.72002 49.9172935,40.2258784 48.3799316,34.9152659 C46.9014088,29.8128535 49.2745887,24.447928 51.8061818,19.7754942 C54.3377749,15.1045691 57.1861944,10.1545352 56.7049201,4.86504442 C61.8872934,1.230594 68.4139154,-0.490828967 74.1137717,1.50215941 C74.1786456,2.70308201 74.23145,3.88590024 74.3008501,5.0128967 C65.0268913,8.38935998 57.1997726,15.5737738 53.0372784,24.5278889 C51.5044425,27.8258999 50.4513722,31.6278157 51.5844034,35.0827312 C52.8788652,39.0340079 56.8738942,41.6697011 60.9775493,42.316932 C62.7774245,42.5990583 64.5969127,42.5583235 66.3967879,42.3018451" id="Fill-49" fill="#C87171"></path>
                    </g>
                    <g id="Group-54" transform="translate(45.972551, 0.012714)">
                        <mask id="mask-10" fill="white">
                            <use xlink:href="#path-9"></use>
                        </mask>
                        <g id="Clip-53"></g>
                        <path d="M16.5591036,0.0177527005 C15.4200376,0.0177527005 14.2794629,0.215391972 13.233936,0.612179212 L13.233936,0.612179212 C9.37318112,2.08164983 6.61980959,5.50186531 4.36430798,8.9643243 L4.36430798,8.9643243 C1.91871058,12.7255052 -0.243251834,17.2546128 1.02405342,21.5589246 L1.02405342,21.5589246 C2.53275015,26.6915109 8.56150228,29.3709563 13.8887104,28.8821385 L13.8887104,28.8821385 C19.2159186,28.3918121 23.9864176,25.5222709 28.5472078,22.7251472 L28.5472078,22.7251472 C26.1529061,25.7078406 25.8390972,30.1735829 26.5587456,33.9302378 L26.5587456,33.9302378 C27.2814113,37.6868926 29.7164478,41.0799516 33.0446328,42.9658225 L33.0446328,42.9658225 C37.003453,35.9881001 36.3004003,26.3731759 34.0418813,18.6742965 L34.0418813,18.6742965 C30.0015915,19.3788578 25.6655971,16.5062993 24.7362399,12.5097616 L24.7362399,12.5097616 C24.1071134,9.79259881 24.8810748,6.81594016 23.8234784,4.23606875 L23.8234784,4.23606875 C22.681395,1.4479972 19.6262841,0.0177527005 16.5591036,0.0177527005 Z" id="Fill-52" fill="#0E244C" mask="url(#mask-10)"></path>
                    </g>
                    <g id="Group-61" transform="translate(42.235158, 46.782313)">
                        <path d="M11.4938552,366.528014 C-8.57030264,283.451628 4.19628908,175.698999 4.19628908,175.698999 L17.4230333,178.515736 C10.0349454,222.776372 3.14321877,290.868382 11.4938552,366.528014" id="Fill-55" fill="#0E244C"></path>
                        <path d="M12.8934731,0.937906835 C14.0883609,2.05886851 15.7237882,2.7060994 17.3637415,2.72420376 C18.038129,2.73174725 18.3851292,3.5373913 17.9536419,4.05638297 C17.5146112,4.58140944 16.9503586,4.99780973 16.3121799,5.245236 C15.147466,5.69482762 13.7775694,5.57111449 12.7139382,4.9208662 C11.9716594,4.46674848 11.3681807,3.74106536 11.1916632,2.88865171 C11.078511,2.34401219 11.282185,1.65001169 11.630694,1.0917939 C11.9082942,0.648237064 12.5102641,0.580345711 12.8934731,0.937906835" id="Fill-57" fill="#FCDEE4"></path>
                        <path d="M64.8860289,114.88796 C51.304741,117.066518 36.9208264,115.210821 24.3639435,109.593944 C21.3525848,108.246677 18.1662173,106.326106 16.6545032,103.548596 C16.9592599,103.64817 17.2760862,103.753778 17.5914039,103.859387 C18.2235478,104.07664 18.86927,104.298418 19.5361139,104.533775 C20.2105014,104.743484 20.9014845,104.960736 21.6045372,105.184023 C22.3000464,105.405801 23.0151686,105.635123 23.7468865,105.868971 C24.4801131,106.080189 25.2359702,106.289898 26.0038968,106.50715 C26.7688061,106.712333 27.5306979,106.974846 28.3333246,107.163433 C29.1359512,107.362581 29.9446127,107.566255 30.7713785,107.771438 C31.1742005,107.878555 31.5906008,107.982655 32.0054924,108.088264 C32.4279275,108.181803 32.8503626,108.264782 33.2773238,108.358321 C34.1312461,108.545399 34.9881858,108.732478 35.8662473,108.925591 C36.7443088,109.084004 37.6359486,109.248452 38.5426753,109.406865 C38.9877409,109.488335 39.444876,109.575839 39.8959763,109.658817 C40.3516027,109.734252 40.8147726,109.787057 41.2779425,109.857965 C42.1967388,109.992239 43.1336395,110.126513 44.0826097,110.266822 C45.0195104,110.36187 45.986585,110.459935 46.9521509,110.559509 C47.4273904,110.607788 47.9131907,110.677188 48.3989911,110.707362 C48.8908262,110.736027 49.3781352,110.764692 49.8699704,110.800901 C50.3618055,110.829566 50.8536406,110.864266 51.3515106,110.898966 L52.0892633,110.953279 L52.8390855,110.969875 C53.8348254,110.99854 54.8366,111.022679 55.8504442,111.052853 C56.7571709,111.063414 57.6774759,111.034749 58.5902375,111.028714 C58.5615722,109.746322 58.5253635,108.480525 58.4801026,107.238868 C58.3503547,103.338887 58.0576675,99.6018451 57.816276,96.0473556 C57.7423499,95.1557158 57.6835107,94.2836891 57.6246716,93.4176972 C57.5597976,92.5562314 57.4843628,91.7008003 57.413454,90.8574388 C57.3832801,90.4410385 57.3546148,90.0201122 57.3244409,89.6097466 C57.2912496,89.1933463 57.2490061,88.7905243 57.2143061,88.374124 C57.1675365,87.8053454 57.1252929,87.2441102 57.0845581,86.6874011 C59.2631162,86.3766096 61.4069743,85.9496484 63.4693627,85.463848 C64.8633985,95.1979593 65.3446727,105.066345 64.8860289,114.88796" id="Fill-59" fill="#C87171"></path>
                    </g>
                </g>
            </g>
        </g>
    </g>
</svg>