<?xml version="1.0" encoding="UTF-8"?>
<svg width="44px" height="44px" viewBox="0 0 44 44" version="1.1" xmlns="http://www.w3.org/2000/svg" xmlns:xlink="http://www.w3.org/1999/xlink">
    <!-- Generator: Sketch 57.1 (83088) - https://sketch.com -->
    <title>facebook</title>
    <desc>Created with Sketch.</desc>
    <g id="Home" stroke="none" stroke-width="1" fill="none" fill-rule="evenodd">
        <g transform="translate(-1318.000000, -8839.000000)" id="Footer">
            <g transform="translate(0.000000, 7072.000000)">
                <g transform="translate(0.000000, 1684.000000)" id="Footer-Header">
                    <g>
                        <g id="Socials" transform="translate(1318.000000, 83.000000)">
                            <g id="facebook">
                                <rect id="Rectangle" x="0" y="0" width="44" height="44"></rect>
                                <path d="M22,44 C34.1502645,44 44,34.1502645 44,22 C44,9.8497355 34.1502645,0 22,0 C9.8497355,0 0,9.8497355 0,22 C0,34.1502645 9.8497355,44 22,44 Z M22,42 C10.954305,42 2,33.045695 2,22 C2,10.954305 10.954305,2 22,2 C33.045695,2 42,10.954305 42,22 C42,33.045695 33.045695,42 22,42 Z" id="Oval" fill="#FFFFFF" fill-rule="nonzero"></path>
                                <path d="M23.3147057,35 L18.4372418,35 L18.4372418,23.4985483 L16,23.4985483 L16,19.535534 L18.4372418,19.535534 L18.4372418,17.1562737 C18.4372418,13.9234411 19.8127074,12 23.7230238,12 L26.9776468,12 L26.9776468,15.964466 L24.9435074,15.964466 C23.4212558,15.964466 23.3206665,16.5182719 23.3206665,17.5518493 L23.3139606,19.535534 L27,19.535534 L26.5685836,23.4985483 L23.3139606,23.4985483 L23.3139606,35 L23.3147057,35 Z" id="Shape" fill="#FFFFFF"></path>
                            </g>
                        </g>
                    </g>
                </g>
            </g>
        </g>
    </g>
</svg>