<?xml version="1.0" encoding="UTF-8"?>
<svg width="24px" height="16px" viewBox="0 0 24 16" version="1.1" xmlns="http://www.w3.org/2000/svg" xmlns:xlink="http://www.w3.org/1999/xlink">
    <!-- Generator: Sketch 57.1 (83088) - https://sketch.com -->
    <title>Shape</title>
    <desc>Created with Sketch.</desc>
    <g id="Contact" stroke="none" stroke-width="1" fill="none" fill-rule="evenodd">
        <g transform="translate(-317.000000, -1141.000000)" fill="#FFFFFF" fill-rule="nonzero" id="Form-+-Contact-Info">
            <g transform="translate(130.000000, 532.000000)">
                <g id="Contact-Info" transform="translate(187.000000, 145.000000)">
                    <g id="Online" transform="translate(0.000000, 444.000000)">
                        <g id="ic_computer_24px" transform="translate(0.000000, 20.000000)">
                            <path d="M20,14 C21.1,14 21.99,13.1 21.99,12 L22,2 C22,0.9 21.1,0 20,0 L4,0 C2.9,0 2,0.9 2,2 L2,12 C2,13.1 2.9,14 4,14 L0,14 L0,16 L24,16 L24,14 L20,14 Z M4,2 L20,2 L20,12 L4,12 L4,2 Z" id="Shape"></path>
                        </g>
                    </g>
                </g>
            </g>
        </g>
    </g>
</svg>