<?xml version="1.0" encoding="UTF-8"?>
<svg width="14px" height="20px" viewBox="0 0 14 20" version="1.1" xmlns="http://www.w3.org/2000/svg" xmlns:xlink="http://www.w3.org/1999/xlink">
    <!-- Generator: Sketch 57.1 (83088) - https://sketch.com -->
    <title>Shape</title>
    <desc>Created with Sketch.</desc>
    <g id="Contact" stroke="none" stroke-width="1" fill="none" fill-rule="evenodd">
        <g transform="translate(-322.000000, -970.000000)" fill="#FFFFFF" fill-rule="nonzero" id="Form-+-Contact-Info">
            <g transform="translate(130.000000, 532.000000)">
                <g id="Contact-Info" transform="translate(187.000000, 145.000000)">
                    <g id="Address" transform="translate(3.000000, 275.000000)">
                        <path d="M9,18 C5.13,18 2,21.13 2,25 C2,30.25 9,38 9,38 C9,38 16,30.25 16,25 C16,21.13 12.87,18 9,18 Z M9,27.5 C7.62,27.5 6.5,26.38 6.5,25 C6.5,23.62 7.62,22.5 9,22.5 C10.38,22.5 11.5,23.62 11.5,25 C11.5,26.38 10.38,27.5 9,27.5 Z" id="Shape"></path>
                    </g>
                </g>
            </g>
        </g>
    </g>
</svg>