<?xml version="1.0" encoding="UTF-8"?>
<svg width="637px" height="500px" viewBox="0 0 637 500" version="1.1" xmlns="http://www.w3.org/2000/svg" xmlns:xlink="http://www.w3.org/1999/xlink">
    <!-- Generator: Sketch 57.1 (83088) - https://sketch.com -->
    <title>Group 33</title>
    <desc>Created with Sketch.</desc>
    <defs>
        <polygon id="path-1" points="0.82112979 0.72351307 30.736703 0.72351307 30.736703 33.3357251 0.82112979 33.3357251"></polygon>
        <polygon id="path-3" points="0.0758627024 0.404342791 35.0066235 0.404342791 35.0066235 35.3372906 0.0758627024 35.3372906"></polygon>
        <polygon id="path-5" points="0.236033121 0.404342791 35.1670526 0.404342791 35.1670526 35.3372906 0.236033121 35.3372906"></polygon>
    </defs>
    <g id="For-Hospitals" stroke="none" stroke-width="1" fill="none" fill-rule="evenodd">
        <g transform="translate(-695.000000, -292.000000)" id="Hero">
            <g transform="translate(-0.000000, 0.000000)">
                <g id="Illustration" transform="translate(694.680000, 291.320000)">
                    <g id="Group-3">
                        <g id="Group-33" transform="translate(0.320000, 0.680000)">
                            <path d="M574.349935,327.972833 C579.708003,325.903702 584.857156,322.876908 589.707273,318.465908 C600.851482,308.329426 608.808705,294.470971 615.659905,280.313118 C626.292065,258.336044 634.845312,234.478503 636.00254,209.497192 C637.133142,185.032651 631.877483,155.324537 616.327615,135.510925 C599.395218,113.933733 556.336093,101.922935 530.635389,101.057551 C506.737093,100.253686 483.146026,105.460348 460.271826,112.822267 C447.700028,116.868247 392.853563,146.947534 389.60718,117.596236 C384.335135,69.9385725 331.885054,-19.4154462 222.528026,4.46055131 C175.362277,14.7569855 123.590147,51.6834724 85.4159582,98.9802178 C28.5643133,169.416769 56.5036903,305.757881 130.3246,318.492567 C190.174797,328.81771 268.034739,340.25637 313.482055,339.062878 C358.792142,337.871436 404.087892,336.075046 449.387738,334.520635 C473.769407,333.68396 498.151076,332.882146 522.534793,332.209525 C540.108274,331.725566 558.183561,334.213034 574.349935,327.972833" id="Fill-1" fill="#0B1F46"></path>
                            <g id="Group-12" transform="translate(0.440000, 80.400000)">
                                <g id="Group-191" transform="translate(0.262091, 0.000000)">
                                    <path d="M397.038943,406.487327 C389.437285,402.472968 388.131703,394.253904 388.131703,394.253904 C388.131703,394.253904 387.653397,391.645181 386.809039,387.010976 C381.203579,388.453217 375.395571,389.668506 369.455784,390.676366 C370.295261,391.877014 371.139618,393.07278 371.993737,394.253904 C373.44818,398.929595 374.055824,402.058111 371.422698,405.943131 C372.296339,406.614225 373.084569,407.480545 373.704415,408.576258 C375.556633,411.843872 395.298981,411.831671 398.661769,410.74816 C400.626242,410.113672 398.854556,408.075988 397.038943,406.487327" id="Fill-1" fill="#F39B9B"></path>
                                    <path d="M373.705636,408.577234 C375.557853,411.844849 395.300201,411.832647 398.662989,410.746696 C400.625022,410.114648 398.855776,408.074524 397.040163,406.488303 C403.136132,409.619259 410.66458,413.655581 410.923256,415.739631 C411.357636,419.209794 375.440717,419.102419 369.474087,415.739631 C366.350452,413.980146 368.534556,410.2025 371.421478,405.941667 C372.29756,406.615201 373.083349,407.481521 373.705636,408.577234" id="Fill-3" fill="#0E244C"></path>
                                    <path d="M260.816012,406.487327 C268.415229,402.472968 269.723251,394.253904 269.723251,394.253904 C269.723251,394.253904 270.201558,391.645181 271.045916,387.010976 C276.651376,388.453217 282.459384,389.668506 288.39673,390.676366 C287.557254,391.877014 286.715336,393.07278 285.861217,394.253904 C284.406775,398.929595 283.79913,402.058111 286.432257,405.943131 C285.558615,406.614225 284.770386,407.480545 284.150539,408.576258 C282.295881,411.843872 262.555974,411.831671 259.193186,410.74816 C257.228712,410.113672 259.000399,408.075988 260.816012,406.487327" id="Fill-5" fill="#F39B9B"></path>
                                    <path d="M284.149563,408.577234 C282.294905,411.844849 262.554998,411.832647 259.19221,410.746696 C257.230177,410.114648 258.999423,408.074524 260.815036,406.488303 C254.716627,409.619259 247.190619,413.655581 246.929503,415.739631 C246.495123,419.209794 282.414482,419.102419 288.381112,415.739631 C291.502307,413.980146 289.320643,410.2025 286.433721,405.941667 C285.557639,406.615201 284.77185,407.481521 284.149563,408.577234" id="Fill-7" fill="#0E244C"></path>
                                    <path d="M286.313412,49.3541134 C286.313412,49.3541134 232.057341,86.7327958 213.51076,116.912476 C206.377647,128.518732 198.92485,161.292493 209.008333,167.429947 C219.091817,173.564961 234.182877,137.914039 242.343373,127.886684 C249.998718,118.481615 280.205242,97.5703441 280.205242,97.5703441 L286.313412,49.3541134 Z" id="Fill-9" fill="#C87171"></path>
                                    <path d="M280.205486,97.5698561 L286.313656,49.3536254 C286.313656,49.3536254 252.195268,72.8614172 228.821695,97.6406259 C229.614805,105.417988 232.733559,119.886762 244.874249,125.138373 C255.116354,114.942634 280.205486,97.5698561 280.205486,97.5698561" id="Fill-11" fill="#930C3A"></path>
                                    <path d="M351.609092,171.066053 C350.571948,146.425944 341.908742,132.403752 333.501772,122.176289 C323.674524,122.476451 312.119516,122.361755 300.552306,121.195272 C286.901046,119.821361 273.227823,116.985686 262.329266,111.636462 C258.83714,122.466689 254.859387,135.69577 250.069,152.336446 C232.471711,213.43767 265.80431,373.565437 269.701532,391.804535 C274.042897,392.226714 275.768217,400.379889 305.945457,400.379889 C306.406681,359.240643 293.170279,207.561333 299.483437,169.499355 C299.488318,169.474952 299.515162,169.457869 299.532244,169.438347 C299.532244,169.438347 302.824262,314.824021 360.953153,397.981035 C379.670558,397.981035 384.182746,388.307529 389.224488,387.009268 C382.769789,351.60238 352.111802,183.0408 351.609092,171.066053" id="Fill-13" fill="#D8E7EB"></path>
                                    <path d="M256.147642,317.91764 C261.95321,354.876584 268.151673,384.553554 269.701288,391.803803 C274.042653,392.228422 275.767973,400.379157 305.945213,400.379157 C306.403997,359.276516 293.194438,207.824157 299.468551,169.601117 C298.299629,172.483158 280.92197,215.740619 275.38728,252.279824 C270.413868,285.104833 279.806735,310.723519 256.147642,317.91764" id="Fill-15" fill="#C1D6DB"></path>
                                    <path d="M389.224732,387.009756 C382.767593,351.600428 352.112046,183.041288 351.609336,171.066541 C350.572192,146.426432 341.908986,132.40424 333.502016,122.176777 C323.794345,122.472058 312.40772,122.359802 300.98449,121.234806 C309.38658,154.338013 323.3258,208.311005 334.385419,246.548687 C346.560274,288.629904 352.563509,346.278047 350.384286,381.170023 C353.688506,386.995114 357.205035,392.620097 360.953397,397.981523 C379.670802,397.981523 384.18299,388.308017 389.224732,387.009756" id="Fill-17" fill="#C1D6DB"></path>
                                    <path d="M271.044451,73.6049887 C271.044451,73.6049887 252.824876,101.007563 249.603627,120.793836 C256.317002,114.976067 265.409707,108.182161 271.940056,103.447902 L271.044451,73.6049887 Z" id="Fill-19" fill="#0E244C"></path>
                                    <path d="M318.797994,15.7945626 C318.797994,15.7945626 328.168898,23.671979 336.553905,27.6838974 C346.395795,32.3913126 354.075544,42.3845034 339.592128,56.7141778 C333.818284,62.4221322 312.741071,49.0734744 314.939817,35.5710751 C317.138563,22.0711162 318.797994,15.7945626 318.797994,15.7945626" id="Fill-21" fill="#091A40"></path>
                                    <g id="Group-25" transform="translate(299.773641, 0.449022)">
                                        <mask id="mask-2" fill="white">
                                            <use xlink:href="#path-1"></use>
                                        </mask>
                                        <g id="Clip-24"></g>
                                        <path d="M1.13641854,13.655849 C-1.60896356,24.3518576 14.3777014,32.4781887 17.9942848,33.2688587 C21.6133085,34.0570884 28.5170294,27.8220206 30.4107329,17.4481368 C32.3068768,7.07181262 25.6325479,0.668361394 18.1211825,2.88418979 C18.1211825,2.88418979 6.29285621,-6.44278833 1.13641854,13.655849" id="Fill-23" fill="#091A40" mask="url(#mask-2)"></path>
                                    </g>
                                    <path d="M296.396408,154.242108 C296.396408,154.242108 326.881131,161.611933 350.73301,161.345936 C348.919838,148.248634 344.76638,138.626374 339.95403,131.024716 L296.396408,154.242108 Z" id="Fill-26" fill="#311E69"></path>
                                    <path d="M352.860598,175.78689 L306.67717,205.629804 C306.67717,205.629804 337.322956,212.274849 356.857875,200.998039 C354.986134,189.835926 353.580498,181.03362 352.860598,175.78689" id="Fill-28" fill="#0E244C"></path>
                                    <path d="M354.282972,179.228257 C353.138453,169.357083 334.130648,102.718729 335.675383,69.0762063 C336.180533,58.0507518 336.495337,50.651642 322.502429,44.2530715 C311.291509,39.1307986 289.606651,41.3319849 279.728156,56.5011362 C265.24474,78.7423917 249.338606,136.322206 243.166987,194.761019 C241.946818,206.311147 358.763436,217.910081 354.282972,179.228257" id="Fill-30" fill="#BA104A"></path>
                                    <path d="M317.692276,27.4398634 L317.894878,44.026852 C317.916787,46.7600324 311.191211,53.7735685 306.881571,50.3156073 C305.622356,49.3028663 307.279346,45.5496239 308.470232,42.7163896 L311.723205,28.4696868 L317.692276,27.4398634 Z" id="Fill-32" fill="#F39B9B"></path>
                                    <path d="M309.789724,36.9308324 C313.350179,35.8400006 316.925277,30.5029778 316.925277,30.5029778 L311.258808,30.5029778 L309.789724,36.9308324 Z" id="Fill-34" fill="#311E69"></path>
                                    <path d="M317.689835,16.8134044 L318.685494,23.1802506 C319.473724,28.2293133 316.245154,33.2344499 311.215614,34.1276142 C306.571648,34.952449 302.086304,32.2753964 301.400568,26.4088199 C300.790483,21.1913738 304.497359,16.6913875 305.837106,14.331579 C308.892411,8.95551079 316.010882,9.57535706 317.689835,16.8134044" id="Fill-36" fill="#F39B9B"></path>
                                    <path d="M304.129844,20.9719872 C304.049313,20.4131495 304.054194,19.8469907 304.090799,19.2808319 C304.166449,18.2070824 304.024909,16.5940179 302.37768,17.2675517 C299.983707,18.2510085 299.908057,23.9955681 302.533862,24.612974 C304.483693,25.0693175 304.334833,22.3849439 304.129844,20.9719872" id="Fill-38" fill="#F39B9B"></path>
                                    <path d="M311.527002,25.7704271 C311.527002,25.7704271 308.903637,25.9827366 305.41151,24.9626747 C305.41151,24.9626747 305.877615,27.6543693 307.153913,28.6915136 C308.430211,29.7262176 310.233622,28.4059939 311.527002,25.7704271" id="Fill-40" fill="#FFFFFF"></path>
                                    <path d="M310.652384,32.0547897 C308.744038,32.1133579 305.351966,31.3568526 303.956092,30.1952509 C302.71884,29.1629873 301.618247,26.6738408 301.381534,26.1223241 C301.391295,26.2174973 301.388855,26.3126705 301.401056,26.4102841 C302.086792,32.2768606 306.572136,34.9514729 311.213662,34.1290784 C314.317774,33.5775617 316.726389,31.4617872 317.939238,28.7408085 C315.342717,31.1835885 312.370383,32.0035426 310.652384,32.0547897" id="Fill-42" fill="#C87171"></path>
                                    <path d="M305.411999,11.2225863 C305.411999,11.2225863 307.622946,16.0007713 310.068167,18.0482163 C312.513387,20.0956613 315.812726,23.9635996 315.812726,23.9635996 C315.812726,23.9635996 318.14325,22.3700578 319.024213,20.3226129 C319.907616,18.2751679 322.069757,9.40209295 315.812726,6.32970534 C309.555695,3.25731772 303.950235,8.4942866 305.411999,11.2225863" id="Fill-44" fill="#091A40"></path>
                                    <path d="M317.508762,22.932068 C317.716191,22.4049547 317.840648,21.8534379 317.933381,21.2946001 C318.106645,20.2306121 318.609355,18.6931981 320.061357,19.7254617 C322.167371,21.228711 320.930118,26.8390518 318.235983,26.8414922 C316.232465,26.8414922 316.986529,24.2596128 317.508762,22.932068" id="Fill-46" fill="#F39B9B"></path>
                                    <path d="M354.282972,179.228257 C353.138453,169.357083 334.130648,102.718729 335.675383,69.0762063 C336.180533,58.0507518 336.497777,50.651642 322.502429,44.2530715 C320.71366,43.437998 318.656454,42.8083904 316.425983,42.3862117 C316.806676,46.2712324 316.90673,51.8693715 315.552342,58.0678342 C313.02659,69.6545668 315.552342,87.2469753 305.956926,103.524041 C298.240572,116.614023 312.316452,175.460373 315.186291,204.907951 C337.600811,202.474933 356.118108,195.070942 354.282972,179.228257" id="Fill-48" fill="#930C3A"></path>
                                    <path d="M353.641895,175.614114 C353.036691,172.673505 352.070316,168.522487 350.891632,163.500268 L313.356768,176.038733 C313.356768,176.038733 337.93831,179.259982 353.641895,175.614114" id="Fill-50" fill="#0E244C"></path>
                                    <path d="M335.668306,77.3977645 L321.126322,61.0108838 C321.126322,61.0108838 319.645035,81.3828392 329.040343,99.6951479 C334.035718,109.429663 338.259946,115.454861 341.120024,118.96407 C338.345358,104.395242 336.112447,89.572619 335.668306,77.3977645" id="Fill-52" fill="#0E244C"></path>
                                    <path d="M159.213203,82.6859805 C159.213203,82.6859805 160.55539,77.1024834 165.670341,77.6686422 C170.782853,78.234801 175.470745,82.9300145 173.9919,86.6466518 C172.513054,90.3608487 167.234599,94.5679943 163.605814,90.4096555 C159.974589,86.2513168 159.213203,82.6859805 159.213203,82.6859805" id="Fill-54" fill="#B5B5B5"></path>
                                    <path d="M143.660674,97.0466473 C143.660674,97.0466473 133.006151,90.3430342 138.753151,82.653524 C146.779428,71.9160296 154.571433,76.2915586 162.16577,80.850113 C174.587098,88.3053506 174.496806,106.976389 163.834962,107.835389 C153.170678,108.694388 143.660674,97.0466473 143.660674,97.0466473" id="Fill-56" fill="#D3D3D3"></path>
                                    <path d="M148.365161,101.664014 C152.145247,104.809612 157.804395,108.32126 163.834474,107.835633 C174.498758,106.976633 174.58661,88.3055947 162.165282,80.8503571 C159.878683,79.4764458 157.570122,78.1244977 155.246919,77.1922879 L155.244478,77.1922879 C155.244478,77.1922879 163.273196,82.0436831 162.904704,88.1908987 C162.667992,92.1149649 154.492854,97.957138 148.365161,101.664014" id="Fill-58" fill="#B5B5B5"></path>
                                    <path d="M165.581025,206.872669 C163.902071,171.019199 163.780054,132.366659 136.196895,130.321654 C121.374272,129.225942 118.670376,191.696197 118.670376,191.696197 C118.670376,191.696197 110.58309,194.829593 102.827691,197.811688 C58.7649184,214.752525 56.3758259,231.622593 74.461183,227.266587 C92.5489804,222.913021 167.257538,242.723698 165.581025,206.872669" id="Fill-60" fill="#C87171"></path>
                                    <path d="M13.2003608,395.338879 C12.6390826,395.338879 12.0656028,395.216862 11.5238474,394.955746 C9.60085978,394.028417 8.79310736,391.719856 9.72043643,389.796868 L53.0925929,299.811784 C54.019922,297.891237 56.3284833,297.083484 58.2514709,298.010813 C60.1720182,298.938142 60.9797707,301.246704 60.0524416,303.167251 L16.6827254,393.152335 C16.0165127,394.533567 14.6377208,395.338879 13.2003608,395.338879" id="Fill-62" fill="#2550A0"></path>
                                    <path d="M164.389407,247.176342 C164.389407,247.176342 163.874495,282.802861 129.343689,281.304492 C94.8104432,279.806124 73.0157698,273.614982 65.4409556,276.074844 C57.8685816,278.534707 55.6747163,350.129391 54.2397966,369.554495 C52.8073172,388.977158 45.9987696,376.548508 37.1403367,376.528985 C28.2843441,376.511903 -6.01462957,277.558571 5.77709159,244.133239 C17.5688128,210.710347 61.599861,203.76514 101.025988,210.480955 C145.266906,218.016724 165.655943,240.709442 164.389407,247.176342" id="Fill-64" fill="#C87171"></path>
                                    <g id="Group-68" transform="translate(0.000000, 204.740289)" fill="#153572">
                                        <path d="M163.605006,39.2984499 C163.605006,39.2984499 163.090095,74.9249684 128.559289,73.4265998 C94.0260425,71.9282313 72.2313691,65.7370896 64.6565548,68.196952 C57.0841809,70.6568143 67.2921217,121.435402 65.857202,140.858065 C64.4222822,160.280728 22.5631363,147.603164 13.7047034,147.583641 C4.8462705,147.566559 -6.79903028,69.6806785 4.99269088,36.2553464 C16.784412,2.83245459 60.8154602,-4.11275204 100.241588,2.60306266 C144.482505,10.1388315 164.871543,32.8315498 163.605006,39.2984499" id="Fill-66"></path>
                                    </g>
                                    <path d="M12.1017199,392.940269 C12.1017199,392.940269 29.5330659,402.462475 64.3005848,395.339123 L67.4852281,384.879828 C67.4852281,384.879828 35.0287108,391.65177 18.2831002,381.604892 L12.1017199,392.940269 Z" id="Fill-69" fill="#0E244C"></path>
                                    <path d="M30.718827,368.655962 C30.718827,368.655962 36.2144718,374.417604 33.1079195,378.466127 C31.753531,380.230493 28.1589107,381.314003 23.1977002,382.880701 C20.7695622,384.630425 18.346305,386.938986 20.7134344,387.934645 C24.7741596,389.640442 49.2946923,391.836748 51.9546626,388.027378 C52.8453865,386.75108 53.919136,385.772504 55.0782973,385.042842 C52.2328613,379.976697 54.2534625,373.914894 54.2412608,369.554007 L30.718827,368.655962 Z" id="Fill-71" fill="#C87171"></path>
                                    <path d="M51.9549066,388.027378 C49.4633198,391.597595 35.9047927,373.297488 25.2771136,380.982117 C23.4151344,382.331625 21.4726241,383.566437 19.3446479,384.447399 C12.4165237,387.317239 5.40298753,390.579973 4.93688265,392.71283 C4.01687461,396.929737 48.6482464,400.768391 56.4280492,397.295788 C60.4985357,395.480175 58.1997357,390.594615 55.0785413,385.042842 C53.91938,385.772504 52.8456306,386.75108 51.9549066,388.027378" id="Fill-73" fill="#0E244C"></path>
                                    <path d="M76.4251683,385.050895 L76.5984325,384.301711 L72.0716024,383.398786 C71.7372759,383.320695 71.3980687,383.254805 71.0588615,383.196237 L70.9222024,383.169394 L70.9197621,383.171834 C69.6605468,382.969286 68.3598458,382.896076 67.032301,382.976607 C57.4051611,383.57449 50.0841422,391.864324 50.6795851,401.491464 C51.160332,409.232221 56.6144911,415.47705 63.7378425,417.319507 L63.7378425,417.321947 L63.776888,417.331708 C64.3991746,417.48789 65.0312225,417.617228 65.6754722,417.707521 L68.6648883,418.302963 L68.7673825,417.856381 C68.9113626,417.851501 69.0529023,417.851501 69.1920016,417.841739 C78.8191415,417.243856 86.1401605,408.956463 85.5447176,399.329323 C85.1591439,393.091815 81.5425606,387.825562 76.4251683,385.050895" id="Fill-75" fill="#2550A0"></path>
                                    <g id="Group-79" transform="translate(55.739677, 383.582347)">
                                        <mask id="mask-4" fill="white">
                                            <use xlink:href="#path-3"></use>
                                        </mask>
                                        <g id="Clip-78"></g>
                                        <path d="M34.9724598,16.7909533 C35.570343,26.4180932 28.2493241,34.7054867 18.6221842,35.3033699 C8.99260396,35.9012531 0.705210523,28.5802341 0.10976765,18.9506539 C-0.485675224,9.32351401 6.83290337,1.03612058 16.4600433,0.438237366 C26.0871832,-0.157205507 34.3770169,7.16381343 34.9724598,16.7909533" id="Fill-77" fill="#0E244C" mask="url(#mask-4)"></path>
                                    </g>
                                    <path d="M80.295303,401.019258 C80.5368966,404.892077 77.5914067,408.228021 73.7161473,408.467175 C69.8433283,408.708768 66.507384,405.760838 66.2657904,401.888019 C66.0266371,398.0152 68.972127,394.679256 72.844946,394.440102 C76.7202054,394.200949 80.0537094,397.146439 80.295303,401.019258" id="Fill-80" fill="#EAE8FF"></path>
                                    <path d="M73.2842072,403.521582 C72.3617588,403.521582 71.4588331,403.084761 70.8951147,402.269688 L59.0082203,385.033569 C57.2951018,382.549303 56.3775341,379.603813 56.3775341,376.585113 L56.3775341,303.870313 C56.3775341,302.284092 57.6001443,300.897979 59.1888054,300.851613 C60.8287136,300.802806 62.1733408,302.118149 62.1733408,303.748296 L62.1733408,374.781702 C62.1733408,377.797962 63.0909085,380.745892 64.8040269,383.230158 L75.6147315,398.902019 C76.4810521,400.158794 76.2980266,401.903637 75.1169023,402.865131 C74.5702662,403.311713 73.9235762,403.521582 73.2842072,403.521582" id="Fill-82" fill="#163774"></path>
                                    <path d="M51.354339,359.43099 L25.1377702,275.627286 C25.1377702,275.627286 17.4799844,335.706008 19.1979835,355.973028 C27.0558772,357.193198 40.6998161,360.128927 51.354339,359.43099" id="Fill-84" fill="#0E244C"></path>
                                    <path d="M153.8774,307.902486 L56.2491723,307.902486 C53.1572619,307.902486 50.6461524,305.393817 50.6461524,302.299466 C50.6461524,299.205116 53.1572619,296.696446 56.2491723,296.696446 L153.8774,296.696446 C154.733959,296.696446 155.488024,296.120526 155.717416,295.295691 L190.023711,171.694929 C191.490355,166.404272 196.351512,162.707158 201.844716,162.707158 L250.0097,162.707158 C253.10161,162.707158 255.610279,165.215827 255.610279,168.310178 C255.610279,171.404528 253.10161,173.913197 250.0097,173.913197 L201.844716,173.913197 C201.36885,173.913197 200.946671,174.232882 200.819773,174.691666 L166.515919,298.292428 C164.94434,303.951576 159.748857,307.902486 153.8774,307.902486" id="Fill-86" fill="#163774"></path>
                                    <path d="M195.427355,177.583956 C195.427355,177.583956 209.03957,188.016408 244.976011,177.583956 L212.319386,300.718614 L163.05625,282.865089 L195.427355,177.583956 Z" id="Fill-88" fill="#0E244C"></path>
                                    <path d="M155.107087,282.865333 C123.324104,282.865333 97.4638245,311.302611 97.4638245,346.255596 C97.4638245,381.208581 123.324104,409.645859 155.107087,409.645859 C186.892511,409.645859 212.75035,381.208581 212.75035,346.255596 C212.75035,311.302611 186.892511,282.865333 155.107087,282.865333 M155.107087,418.919149 C118.209152,418.919149 88.1880935,386.323533 88.1880935,346.255596 C88.1880935,306.1901 118.209152,273.592043 155.107087,273.592043 C192.005023,273.592043 222.026081,306.1901 222.026081,346.255596 C222.026081,386.323533 192.005023,418.919149 155.107087,418.919149" id="Fill-90" fill="#0E244C"></path>
                                    <path d="M155.107087,359.814611 C148.222889,359.814611 142.619869,353.730844 142.619869,346.256084 C142.619869,338.778883 148.222889,332.697557 155.107087,332.697557 C161.991285,332.697557 167.594305,338.778883 167.594305,346.256084 C167.594305,353.730844 161.991285,359.814611 155.107087,359.814611" id="Fill-92" fill="#0E244C"></path>
                                    <path d="M216.587296,346.202153 L162.44348,344.886809 L163.353727,344.508557 L163.136537,344.515878 L212.133676,323.633891 C212.919466,323.299565 213.283076,322.391759 212.94875,321.605969 C212.614423,320.82018 211.706617,320.454129 210.923268,320.788455 L160.976836,342.073098 L199.778237,299.203651 C200.354157,298.571603 200.30291,297.595467 199.670862,297.021988 C199.038814,296.448508 198.060237,296.497315 197.489198,297.129363 L158.824457,339.847508 L177.253902,283.343884 C177.519899,282.533691 177.075757,281.66005 176.265564,281.396493 C175.452931,281.130496 174.579289,281.574638 174.315733,282.387271 L156.652554,336.533527 L156.652554,279.353929 C156.652554,278.49981 155.959498,277.809194 155.107819,277.809194 C154.2537,277.809194 153.560644,278.49981 153.560644,279.353929 L153.560644,336.533527 L135.899906,282.387271 C135.633909,281.574638 134.760267,281.130496 133.950075,281.396493 C133.139882,281.66005 132.69574,282.533691 132.959297,283.343884 L151.178873,339.203258 L149.856208,337.63168 L150.251543,338.588293 L112.724,297.129363 C112.152961,296.497315 111.176825,296.448508 110.542337,297.021988 C109.910289,297.595467 109.861482,298.571603 110.434962,299.203651 L149.236362,342.073098 L99.2948113,320.788455 C98.509022,320.454129 97.5987753,320.82018 97.2644487,321.605969 C96.9301222,322.391759 97.2961732,323.299565 98.0795222,323.633891 L147.079102,344.515878 L146.861912,344.508557 L147.774599,344.886809 L93.6259023,346.202153 C92.7742238,346.224116 92.0958094,346.931814 92.1172538,347.785933 C92.1397355,348.62541 92.8254709,349.294063 93.6625074,349.294063 L93.7015529,349.294063 L146.861912,348.000683 L96.8691137,368.731368 C96.080884,369.058374 95.7099524,369.961299 96.0369579,370.751969 C96.2809919,371.344972 96.856912,371.706142 97.4645566,371.706142 C97.6622241,371.706142 97.8623319,371.667097 98.0551188,371.586566 L149.343737,350.319006 L149.236362,350.436142 L149.736632,350.223832 L112.113915,394.830801 C111.564839,395.482371 111.647811,396.458507 112.299381,397.007584 C112.589782,397.251618 112.943631,397.371194 113.29504,397.371194 C113.736741,397.371194 114.171122,397.185728 114.476164,396.824558 L150.078279,354.614003 L129.528179,405.712275 C129.208495,406.502945 129.594068,407.40343 130.387179,407.720675 C131.177849,408.040359 132.078334,407.657226 132.395578,406.864115 L153.560644,354.240631 L153.560644,355.978153 L154.190252,354.052725 L155.1127,414.429168 C155.18591,415.2296 155.859444,415.827483 156.647674,415.827483 C156.69648,415.827483 156.747728,415.825043 156.794094,415.820162 C157.645773,415.739631 158.2705,414.985566 158.187528,414.136328 L156.498813,355.504727 L156.652554,355.978153 L156.652554,354.01368 L179.381878,408.789543 C179.625912,409.384986 180.201832,409.743716 180.809476,409.743716 C181.007144,409.743716 181.207252,409.704671 181.400039,409.62658 C182.188268,409.297134 182.564081,408.394208 182.237075,407.605979 L160.35943,354.88 L195.737034,396.824558 C196.288551,397.476129 197.262246,397.55666 197.916257,397.007584 C198.565388,396.458507 198.648359,395.482371 198.099283,394.830801 L160.476567,350.223832 L160.976836,350.436142 L160.869461,350.319006 L212.16052,371.586566 C212.353307,371.667097 212.553415,371.706142 212.751082,371.706142 C213.356286,371.706142 213.932206,371.344972 214.178681,370.751969 C214.505686,369.961299 214.132314,369.058374 213.344085,368.731368 L163.353727,348.000683 L216.514086,349.294063 C217.358443,349.306265 218.073463,348.640052 218.095946,347.785933 C218.117389,346.931814 217.441415,346.224116 216.587296,346.202153" id="Fill-94" fill="#0E244C"></path>
                                    <path d="M210.772455,300.640035 C210.772455,300.640035 190.105218,273.591311 136.007769,273.591311 C67.4854721,273.591311 49.8418165,291.752318 54.4760215,300.640035 C59.1151071,309.527752 102.597079,305.476788 123.166702,305.183948 C143.736325,304.891107 210.772455,300.640035 210.772455,300.640035" id="Fill-96" fill="#0E244C"></path>
                                    <path d="M207.190524,307.902486 L109.562296,307.902486 C106.470386,307.902486 103.959277,305.393817 103.959277,302.299466 C103.959277,299.205116 106.470386,296.696446 109.562296,296.696446 L207.190524,296.696446 C208.047083,296.696446 208.803589,296.120526 209.032981,295.295691 L243.336835,171.694929 C244.805919,166.404272 249.667076,162.707158 255.15784,162.707158 L303.322824,162.707158 C306.414734,162.707158 308.923403,165.215827 308.923403,168.310178 C308.923403,171.404528 306.414734,173.913197 303.322824,173.913197 L255.15784,173.913197 C254.681974,173.913197 254.259795,174.232882 254.132898,174.691666 L219.829043,298.292428 C218.259905,303.951576 213.061981,307.902486 207.190524,307.902486" id="Fill-98" fill="#163774"></path>
                                    <path d="M125.122146,385.050895 L125.29785,384.301711 L120.77102,383.398786 C120.436694,383.320695 120.097487,383.254805 119.758279,383.196237 L119.61918,383.169394 L119.61918,383.171834 C118.359965,382.969286 117.056823,382.896076 115.729279,382.976607 C106.102139,383.57449 98.7835602,391.864324 99.379003,401.491464 C99.8573096,409.232221 105.313909,415.47705 112.43726,417.319507 L112.43482,417.321947 L112.476306,417.331708 C113.096152,417.48789 113.73064,417.617228 114.37489,417.707521 L117.361866,418.302963 L117.4668,417.856381 C117.60834,417.851501 117.74988,417.851501 117.89142,417.841739 C127.518559,417.243856 134.839578,408.956463 134.241695,399.329323 C133.856122,393.091815 130.239538,387.825562 125.122146,385.050895" id="Fill-100" fill="#0E244C"></path>
                                    <g id="Group-104" transform="translate(104.278666, 383.582347)">
                                        <mask id="mask-6" fill="white">
                                            <use xlink:href="#path-5"></use>
                                        </mask>
                                        <g id="Clip-103"></g>
                                        <path d="M35.1328889,16.7909533 C35.7307722,26.4180932 28.4097532,34.7054867 18.7826133,35.3033699 C9.15303309,35.9012531 0.865639658,28.5802341 0.270196785,18.9506539 C-0.327686428,9.32351401 6.99333251,1.03612058 16.6204724,0.438237366 C26.2476123,-0.157205507 34.5374461,7.16381343 35.1328889,16.7909533" id="Fill-102" fill="#2550A0" mask="url(#mask-6)"></path>
                                    </g>
                                    <path d="M128.994965,401.019258 C129.234118,404.892077 126.288628,408.228021 122.415809,408.467175 C118.54055,408.708768 115.207046,405.760838 114.965452,401.888019 C114.723859,398.0152 117.669349,394.679256 121.544608,394.440102 C125.417427,394.200949 128.753371,397.146439 128.994965,401.019258" id="Fill-105" fill="#EAE8FF"></path>
                                    <path d="M121.981185,403.521582 C121.061177,403.521582 120.155811,403.084761 119.592092,402.269688 L107.707638,385.033569 C105.99452,382.549303 105.076952,379.603813 105.076952,376.585113 L105.076952,303.870313 C105.076952,302.284092 106.299562,300.897979 107.888223,300.851613 C109.525691,300.802806 110.872759,302.118149 110.872759,303.748296 L110.872759,374.781702 C110.872759,377.797962 111.790326,380.745892 113.503445,383.230158 L124.311709,398.902019 C125.18047,400.158794 124.997445,401.903637 123.81632,402.865131 C123.269684,403.311713 122.622994,403.521582 121.981185,403.521582" id="Fill-107" fill="#163774"></path>
                                    <path d="M184.603228,249.953937 C184.603228,249.953937 184.088317,285.580455 149.557511,284.082087 C115.024265,282.583718 93.2295912,276.392576 85.6547769,278.852439 C78.082403,281.312301 75.8885377,352.906986 74.4536179,372.329649 C73.0211386,391.754752 66.212591,379.326103 57.3541581,379.30658 C48.4981655,379.289498 14.1991918,280.336165 25.9909129,246.910833 C37.7826341,213.487941 81.8136823,206.542735 121.23981,213.25855 C165.480727,220.794318 185.869765,243.487037 184.603228,249.953937" id="Fill-109" fill="#F39B9B"></path>
                                    <path d="M178.335547,248.195772 C178.335547,248.195772 177.820635,283.82229 143.289829,282.323922 C108.756583,280.825553 86.9619098,274.634411 79.3870956,277.094274 C71.8147216,279.554136 82.0226624,330.330283 80.5877427,349.755387 C79.1528229,369.17805 37.293677,356.498045 28.4352441,356.480963 C19.5768112,356.46388 7.93151042,278.578 19.7232316,245.152668 C31.5149527,211.729776 75.546001,204.78457 114.972128,211.500384 C159.213046,219.036153 179.602083,241.728872 178.335547,248.195772" id="Fill-111" fill="#163774"></path>
                                    <path d="M185.871033,251.221741 C186.634859,247.319638 179.501746,237.511913 164.015351,228.690085 C160.215742,239.495909 153.37303,252.049016 141.691124,254.423466 C120.47237,258.733106 93.7457706,248.537367 77.4247791,257.5349 C61.0989069,266.529991 51.4424829,261.383315 55.3714297,289.444781 C59.3003766,317.508687 58.1119311,331.90181 61.7041111,355.890349 C62.0774831,358.389256 61.8310088,360.807633 61.1696767,363.125956 C74.2401359,364.436418 87.332558,363.494447 88.1232281,352.781356 C89.5581478,333.356252 79.3502071,282.580105 86.922581,280.120243 C94.4973952,277.660381 116.292069,283.851522 150.825315,285.349891 C185.356121,286.848259 185.871033,251.221741 185.871033,251.221741" id="Fill-113" fill="#0E244C"></path>
                                    <path d="M183.004074,259.825111 L139.680724,238.147574 C139.680724,238.147574 150.891645,271.482613 165.104183,281.685673 C176.122316,277.188127 180.920024,267.36576 183.004074,259.825111" id="Fill-115" fill="#0E244C"></path>
                                    <path d="M50.9326483,371.433556 C50.9326483,371.433556 56.4282932,377.195198 53.3217408,381.243722 C51.9673523,383.008087 48.372732,384.091598 43.4115215,385.658296 C40.9833836,387.40802 38.5601263,389.716581 40.9272558,390.712239 C44.9879809,392.418037 69.5085137,394.614342 72.1684839,390.804972 C73.0592079,389.526234 74.1329573,388.550098 75.2921186,387.817997 C72.4466826,382.754292 74.4672838,376.692488 74.4550821,372.331601 L50.9326483,371.433556 Z" id="Fill-117" fill="#F39B9B"></path>
                                    <path d="M72.1687279,390.804972 C69.6771412,394.375189 56.1186141,376.072642 45.4909349,383.759712 C43.6289558,385.10922 41.6864454,386.344031 39.5584693,387.224994 C32.630345,390.094833 25.6168089,393.357568 25.150704,395.490424 C24.230696,399.707331 68.8620677,403.545986 76.6418705,400.073382 C80.712357,398.255329 78.4135571,393.37221 75.2923627,387.817997 C74.1332013,388.550098 73.0594519,389.526234 72.1687279,390.804972" id="Fill-119" fill="#163774"></path>
                                    <path d="M121.781077,195.855511 C130.746885,171.493601 105.335628,134.400438 148.920094,118.777384 C221.415264,92.7926472 214.235785,217.298776 191.147731,276.479453 C187.528708,285.755184 166.529585,275.952339 153.769049,257.071431 C137.53591,233.046288 122.674241,219.968507 119.79464,214.370368 C117.307934,209.545817 119.391984,202.346815 121.781077,195.855511" id="Fill-121" fill="#D8E7EB"></path>
                                    <path d="M160.333319,96.8216479 L166.485415,115.453641 C167.485954,118.526029 162.405167,128.836464 156.314079,126.474215 C154.530191,125.783599 155.059745,120.961488 155.38919,117.340024 L153.971353,100.113666 L160.333319,96.8216479 Z" id="Fill-123" fill="#F39B9B"></path>
                                    <path d="M161.100561,107.005917 C160.102462,102.313144 156.393146,104.94383 154.509204,106.654508 L155.370644,117.140648 C157.269228,115.915597 162.201155,112.176997 161.100561,107.005917" id="Fill-125" fill="#0E244C"></path>
                                    <path d="M156.555917,90.1426824 L160.38481,96.7340397 C163.420592,101.958807 162.007636,108.860087 156.846317,112.003245 C152.080334,114.902368 145.991687,113.877426 142.716751,107.703366 C139.810306,102.215043 141.962686,95.665171 142.428791,92.4902891 C143.490338,85.2546821 151.602027,82.8851123 156.555917,90.1426824" id="Fill-127" fill="#F39B9B"></path>
                                    <path d="M160.147365,97.4805396 C160.335271,96.83629 160.425563,96.1749579 160.476811,95.5063049 C160.569543,94.2348879 161.003924,92.3704684 162.819537,93.4368968 C165.459984,94.9865125 164.588783,101.726731 161.411461,102.00981 C159.051652,102.219679 159.673939,99.1009252 160.147365,97.4805396" id="Fill-129" fill="#F39B9B"></path>
                                    <path d="M171.936646,115.600794 C172.227046,124.822837 172.539409,140.743613 171.668208,150.514733 C170.379709,164.907856 160.967319,158.911942 159.212715,181.299618 C157.946178,197.476629 155.857248,233.635142 154.090442,257.528507 C166.877821,276.106813 187.55726,285.677825 191.146999,276.480185 C211.428662,224.493629 219.425655,122.118941 171.936646,115.600794" id="Fill-131" fill="#C1D6DB"></path>
                                    <path d="M150.147585,103.522821 C150.147585,103.522821 147.463211,104.262244 143.497659,103.783937 C143.497659,103.783937 143.775858,105.714246 145.035073,106.436586 C146.560286,107.312668 149.186091,106.775793 150.147585,103.522821" id="Fill-133" fill="#FFFFFF"></path>
                                    <path d="M155.335747,109.959704 C153.256578,110.843107 149.193412,111.465394 147.155729,110.779659 C145.349877,110.174454 143.0706,107.904938 142.575211,107.394908 C142.624018,107.497402 142.665504,107.602336 142.716751,107.70239 C145.991687,113.87645 152.080334,114.903833 156.846317,112.002269 C160.02852,110.064639 161.780684,106.701851 161.949067,103.180441 C160.133455,106.987371 157.207488,109.166594 155.335747,109.959704" id="Fill-135" fill="#C87171"></path>
                                    <path d="M178.843051,146.538688 C178.843051,146.538688 174.267414,161.109956 179.377485,182.69964 C181.7861,192.883178 196.769786,200.292049 196.769786,200.292049 L201.364945,187.097132 L178.843051,146.538688 Z" id="Fill-137" fill="#0E244C"></path>
                                    <path d="M64.2996087,395.338879 C63.7383306,395.338879 63.1648508,395.216862 62.6230954,394.955746 C60.7001077,394.028417 59.8947957,391.719856 60.8221247,389.796868 L104.191841,299.811784 C105.11917,297.891237 107.427731,297.083484 109.350719,298.010813 C111.273707,298.938142 112.079019,301.246704 111.15169,303.167251 L67.7844137,393.152335 C67.1157607,394.533567 65.7369688,395.338879 64.2996087,395.338879" id="Fill-139" fill="#163774"></path>
                                    <path d="M146.913647,342.216346 C146.137619,342.216346 145.373793,341.852735 144.893046,341.16944 C116.938955,301.518802 147.135718,234.021447 148.433978,231.16869 L148.565757,230.917335 L150.996335,226.876133 C151.699153,225.70965 153.214604,225.331398 154.385967,226.034216 C155.552449,226.737033 155.930702,228.252484 155.227884,229.421407 L152.872956,233.335712 C151.430716,236.593565 123.142298,301.748193 148.929367,338.326444 C149.715157,339.439239 149.446719,340.979094 148.333925,341.764883 C147.901984,342.069925 147.406595,342.216346 146.913647,342.216346" id="Fill-141" fill="#2550A0"></path>
                                    <path d="M235.225878,235.304822 L143.498392,235.304822 L143.498392,233.689317 C143.498392,227.627513 148.413236,222.710229 154.475039,222.710229 L235.225878,222.710229 L235.225878,235.304822 Z" id="Fill-143" fill="#163774"></path>
                                    <path d="M210.772455,282.865333 C178.989471,282.865333 153.129192,311.302611 153.129192,346.255596 C153.129192,381.208581 178.989471,409.645859 210.772455,409.645859 C242.557879,409.645859 268.415717,381.208581 268.415717,346.255596 C268.415717,311.302611 242.557879,282.865333 210.772455,282.865333 M210.772455,418.919149 C173.874519,418.919149 143.855901,386.323533 143.855901,346.255596 C143.855901,306.1901 173.874519,273.592043 210.772455,273.592043 C247.67039,273.592043 277.691448,306.1901 277.691448,346.255596 C277.691448,386.323533 247.67039,418.919149 210.772455,418.919149" id="Fill-145" fill="#0E244C"></path>
                                    <path d="M210.772455,359.814611 C203.888257,359.814611 198.285237,353.730844 198.285237,346.256084 C198.285237,338.778883 203.888257,332.697557 210.772455,332.697557 C217.656653,332.697557 223.259673,338.778883 223.259673,346.256084 C223.259673,353.730844 217.656653,359.814611 210.772455,359.814611" id="Fill-147" fill="#0E244C"></path>
                                    <path d="M272.252907,346.202153 L218.109092,344.886809 L219.019338,344.508557 L218.802148,344.515878 L267.799288,323.633891 C268.585077,323.299565 268.948688,322.391759 268.616801,321.605969 C268.280035,320.82018 267.372228,320.454129 266.588879,320.788455 L216.642448,342.073098 L255.443848,299.203651 C256.019768,298.571603 255.968521,297.595467 255.336473,297.021988 C254.704425,296.448508 253.725849,296.497315 253.154809,297.129363 L214.490068,339.847508 L232.919513,283.343884 C233.18551,282.533691 232.743809,281.66005 231.931176,281.396493 C231.118542,281.130496 230.244901,281.574638 229.981344,282.387271 L212.318166,336.533527 L212.318166,279.353929 C212.318166,278.49981 211.625109,277.809194 210.773431,277.809194 C209.919312,277.809194 209.228696,278.49981 209.228696,279.353929 L209.228696,336.533527 L191.565517,282.387271 C191.29952,281.574638 190.428319,281.130496 189.615686,281.396493 C188.805493,281.66005 188.361352,282.533691 188.624908,283.343884 L206.846924,339.203258 L205.52182,337.63168 L205.917155,338.588293 L168.392052,297.129363 C167.818572,296.497315 166.842437,296.448508 166.207948,297.021988 C165.5759,297.595467 165.527093,298.571603 166.100573,299.203651 L204.901974,342.073098 L154.960423,320.788455 C154.174633,320.454129 153.264387,320.82018 152.93006,321.605969 C152.595734,322.391759 152.961785,323.299565 153.745134,323.633891 L202.744713,344.515878 L202.527523,344.508557 L203.44021,344.886809 L149.291514,346.202153 C148.439835,346.224116 147.761421,346.931814 147.782865,347.785933 C147.805347,348.62541 148.491082,349.294063 149.328119,349.294063 L149.367164,349.294063 L202.527523,348.000683 L152.534725,368.731368 C151.746496,369.058374 151.375564,369.961299 151.702569,370.751969 C151.946603,371.344972 152.522524,371.706142 153.130168,371.706142 C153.327836,371.706142 153.527943,371.667097 153.72073,371.586566 L205.009349,350.319006 L204.901974,350.436142 L205.402243,350.223832 L167.779527,394.830801 C167.230451,395.482371 167.313422,396.458507 167.964993,397.007584 C168.255393,397.251618 168.609242,397.371194 168.960651,397.371194 C169.402353,397.371194 169.836733,397.185728 170.141776,396.824558 L205.746331,354.614003 L185.193791,405.712275 C184.874106,406.502945 185.25968,407.40343 186.05279,407.720675 C186.84346,408.040359 187.743946,407.657226 188.06119,406.864115 L209.228696,354.240631 L209.228696,355.978153 L209.855863,354.052725 L210.775871,414.429168 C210.853962,415.2296 211.525055,415.827483 212.313285,415.827483 C212.362092,415.827483 212.413339,415.825043 212.462146,415.820162 C213.311384,415.739631 213.936111,414.985566 213.853139,414.136328 L212.164424,355.504727 L212.318166,355.978153 L212.318166,354.01368 L235.047489,408.789543 C235.291523,409.384986 235.869884,409.743716 236.475088,409.743716 C236.672755,409.743716 236.872863,409.704671 237.06565,409.62658 C237.85388,409.297134 238.229692,408.394208 237.902687,407.605979 L216.025042,354.88 L251.402646,396.824558 C251.954162,397.476129 252.927858,397.55666 253.581869,397.007584 C254.230999,396.458507 254.313971,395.482371 253.764894,394.830801 L216.142178,350.223832 L216.642448,350.436142 L216.535073,350.319006 L267.826131,371.586566 C268.018918,371.667097 268.219026,371.706142 268.416694,371.706142 C269.024338,371.706142 269.597818,371.344972 269.844292,370.751969 C270.171298,369.961299 269.797926,369.058374 269.009696,368.731368 L219.019338,348.000683 L272.179697,349.294063 C273.024055,349.306265 273.741515,348.640052 273.76156,347.785933 C273.783,346.931814 273.109467,346.224116 272.252907,346.202153" id="Fill-149" fill="#0E244C"></path>
                                    <path d="M219.04667,288.177221 C190.30435,288.177221 166.921015,314.230287 166.921015,346.254864 C166.921015,378.279441 190.30435,404.334947 219.04667,404.334947 C247.78655,404.334947 271.169885,378.279441 271.169885,346.254864 C271.169885,314.230287 247.78655,288.177221 219.04667,288.177221 M219.04667,408.198005 C188.173933,408.198005 163.057958,380.409858 163.057958,346.254864 C163.057958,312.09987 188.173933,284.314163 219.04667,284.314163 C249.916967,284.314163 275.035383,312.09987 275.035383,346.254864 C275.035383,380.409858 249.916967,408.198005 219.04667,408.198005" id="Fill-151" fill="#2550A0"></path>
                                    <path d="M233.5745,206.872669 C231.895547,171.019199 210.015461,141.193368 188.721058,123.542391 C187.1568,122.24169 178.89137,124.025578 177.378359,139.019025 C175.865348,154.012472 194.172776,195.993635 194.172776,195.993635 C194.172776,195.993635 180.858283,198.028878 174.266926,199.292974 C127.900473,208.168489 124.369301,231.622593 142.454658,227.266587 C160.542456,222.913021 235.251014,242.723698 233.5745,206.872669" id="Fill-153" fill="#F39B9B"></path>
                                    <path d="M233.5745,206.872669 C232.073691,174.823688 214.427595,147.596819 195.493,129.57247 C193.604177,136.3981 192.149735,147.757881 198.284749,158.910233 C207.965576,176.502642 217.33404,178.50128 219.047158,194.495266 C220.757836,210.486812 226.912373,221.282874 206.442804,218.083589 C185.973235,214.884304 188.552674,213.017444 174.266926,215.150301 C167.419333,216.175243 160.57662,221.39757 155.244478,226.719951 C182.876444,227.896195 234.977696,236.881525 233.5745,206.872669" id="Fill-155" fill="#C87171"></path>
                                    <path d="M218.77262,158.853617 C216.161457,154.380475 213.306259,150.131844 210.282679,146.134567 C206.419621,146.622635 202.995824,147.625615 202.366217,148.116123 C200.567686,149.514438 184.659112,167.306954 184.659112,167.306954 C184.659112,167.306954 208.772108,169.115246 218.77262,158.853617" id="Fill-157" fill="#0E244C"></path>
                                    <path d="M139.444987,215.185198 C133.527164,214.333519 126.018239,229.527074 124.319762,234.724997 C122.618846,239.922921 129.317578,249.220615 132.814585,249.418282 C136.314032,249.61839 136.911915,249.120561 136.414086,247.31959 C135.913816,245.52106 134.615555,242.822044 134.615555,242.822044 C134.615555,242.822044 139.811038,234.134435 140.711524,230.532494 C141.612009,226.928112 143.510593,215.770879 139.444987,215.185198" id="Fill-159" fill="#F39B9B"></path>
                                    <path d="M213.51076,150.588919 C206.072605,139.846544 197.34839,130.69527 188.72179,123.542635 C187.155092,122.241934 178.889661,124.025822 177.376651,139.019269 C176.686035,145.866862 176.664072,158.344319 180.612541,169.882244 C187.172174,167.988541 209.235285,161.716868 213.51076,150.588919" id="Fill-161" fill="#D8E7EB"></path>
                                    <path d="M213.51076,150.588919 C206.072605,139.846544 197.34839,130.69527 188.72179,123.542635 C187.840827,122.810533 184.84409,123.054567 182.120671,126.073267 C184.185198,127.810789 187.823745,131.488381 189.361159,136.920577 C191.572106,144.717462 190.971783,148.114415 190.774115,151.3137 C190.608172,153.932185 193.390159,161.638777 194.676218,165.116261 C202.612203,161.834004 211.036255,157.026535 213.51076,150.588919" id="Fill-163" fill="#C1D6DB"></path>
                                    <path d="M139.909628,93.0120337 C138.796833,93.0120337 137.893908,94.0711411 137.893908,95.3718422 L137.893908,98.2709657 C137.893908,99.574107 138.796833,100.633214 139.909628,100.633214 L142.708698,100.633214 C143.701916,100.633214 144.536512,99.8010586 144.700015,98.6565393 L145.109992,95.7549755 C145.205165,95.06924 145.041662,94.3737432 144.656089,93.8441895 C144.272955,93.3146358 143.711677,93.0120337 143.118675,93.0120337 L139.909628,93.0120337 Z M142.708698,102.136464 L139.909628,102.136464 C138.089135,102.136464 136.605408,100.403822 136.605408,98.2709657 L136.605408,95.3718422 C136.605408,93.2389853 138.089135,91.5063442 139.909628,91.5063442 L143.118675,91.5063442 C144.09237,91.5063442 145.009938,92.0041734 145.637105,92.870494 C146.264272,93.7392549 146.53515,94.8788935 146.376528,96.0014498 L145.966551,98.9005733 C145.705435,100.777194 144.333964,102.136464 142.708698,102.136464 L142.708698,102.136464 Z" id="Fill-165" fill="#0E244C"></path>
                                    <path d="M150.524129,93.0120337 C149.933567,93.0120337 149.369849,93.3146358 148.986715,93.8441895 C148.603582,94.3737432 148.440079,95.06924 148.535253,95.7549755 L148.94523,98.6565393 C149.106292,99.8010586 149.943329,100.633214 150.934106,100.633214 L153.733176,100.633214 C154.845971,100.633214 155.753777,99.574107 155.753777,98.2709657 L155.753777,95.3718422 C155.753777,94.0711411 154.845971,93.0120337 153.733176,93.0120337 L150.524129,93.0120337 Z M153.733176,102.136464 L150.934106,102.136464 C149.311281,102.136464 147.93981,100.777194 147.673813,98.9005733 L147.266276,96.0014498 C147.110094,94.8788935 147.378532,93.7392549 148.008139,92.870494 C148.635306,92.0041734 149.552874,91.5063442 150.524129,91.5063442 L153.733176,91.5063442 C155.55611,91.5063442 157.037396,93.2389853 157.037396,95.3718422 L157.037396,98.2709657 C157.037396,100.403822 155.55611,102.136464 153.733176,102.136464 L153.733176,102.136464 Z" id="Fill-167" fill="#0E244C"></path>
                                    <path d="M147.512018,96.9192615 C147.319231,96.6874293 147.050794,96.3994692 146.750632,96.4360743 C146.440709,96.4604777 146.191794,96.8338496 146.191794,96.83629 L145.144889,95.960208 C145.203457,95.8625945 145.737891,95.0182369 146.645698,94.9352654 C147.265544,94.8815779 147.870748,95.1939414 148.434467,95.8699155 L147.512018,96.9192615 Z" id="Fill-169" fill="#0E244C"></path>
                                    <path d="M328.88831,51.8526116 C342.837291,51.757604 376.682362,92.7113839 384.530494,130.170597 C393.789143,174.372469 292.1734,188.741189 291.883,169.601605 C291.592599,150.462022 345.753497,149.783607 350.37306,131.6226 C354.426464,115.687182 331.721544,90.2246778 324.446892,72.1051559 C318.555912,57.4387146 322.867992,51.894263 328.88831,51.8526116" id="Fill-171" fill="#F39B9B"></path>
                                    <path d="M384.530006,130.17133 C380.378988,110.353331 368.948438,89.5616375 357.03958,74.3851652 C356.956608,87.5849624 357.451997,106.807518 360.824547,112.410538 C366.112763,121.198201 380.928065,130.766772 373.521634,140.335344 C366.112763,149.903916 359.282252,151.756134 345.106319,155.768052 C330.927946,159.77997 318.953199,170.000113 309.931264,170.898158 C302.973855,171.588774 296.838841,168.716494 295.03299,174.483017 C312.115368,185.4255 392.827161,169.775602 384.530006,130.17133" id="Fill-173" fill="#C87171"></path>
                                    <path d="M346.709378,112.348797 C348.334644,115.887289 349.586539,119.313526 350.269834,122.546976 C356.978328,119.26472 373.958211,110.416048 371.927848,105.859934 C369.960934,101.4478 353.757079,108.866432 346.709378,112.348797" id="Fill-175" fill="#0E244C"></path>
                                    <path d="M374.973392,103.137979 C361.532001,75.3791156 339.559183,47.9130929 328.968109,47.9837263 C322.952672,48.0253485 316.859144,55.9125262 322.747683,70.5789675 C326.574136,80.1060535 334.536964,93.8671287 339.742209,105.378211 C341.757929,109.831831 343.610147,114.175635 345.106075,118.214397 C351.206924,116.569608 367.369294,111.073964 374.973392,103.137979" id="Fill-177" fill="#BA104A"></path>
                                    <path d="M298.624682,163.3292 C298.624682,163.3292 294.041724,157.311323 288.641252,158.853617 C283.23834,160.398352 278.611456,160.171401 279.072681,162.706914 C279.441172,164.725075 286.46935,163.792865 286.313168,166.569971 C286.159427,169.347078 281.388563,173.912953 277.066721,173.912953 C272.74732,173.912953 273.979692,175.013547 275.214504,176.038489 C276.449316,177.063432 286.479111,178.876604 294.66157,177.583224 C302.841589,176.292285 302.741535,164.100348 298.624682,163.3292" id="Fill-179" fill="#F39B9B"></path>
                                    <path d="M328.969329,47.9847024 C327.846773,47.9921599 326.719336,48.2752393 325.66755,48.8218754 C327.348944,51.4672035 330.167536,54.9788523 334.630917,58.0683223 C343.118419,63.9446601 349.292478,62.5536665 348.675072,72.27842 C348.057666,81.9982928 350.253972,91.9109525 354.40743,98.5120712 C356.579332,101.965152 359.00503,107.712152 360.825523,112.409805 C366.143023,109.92798 371.467844,106.797024 374.974612,103.138955 C361.533221,75.3776514 339.560403,47.914069 328.969329,47.9847024" id="Fill-181" fill="#930C3A"></path>
                                    <path d="M343.458846,114.004079 C347.80021,113.07187 360.363079,109.474809 372.147479,97.6001163 C371.739942,96.8387303 371.329965,96.082225 370.910227,95.3281601 C359.050176,107.505455 346.040725,110.934132 342.494912,111.673555 C342.826798,112.459344 343.146482,113.235372 343.458846,114.004079" id="Fill-183" fill="#FFFFFF"></path>
                                    <path d="M233.045435,93.2921847 C234.438869,99.6004627 238.057892,113.23464 244.183145,118.339831 C245.888942,119.757668 247.255532,120.914389 248.373208,121.873443 C248.978412,121.336568 249.605579,120.789932 250.25471,120.233534 C249.076026,119.220793 247.606941,117.978661 245.764485,116.443687 C239.734406,111.419028 236.169069,96.2205923 235.134365,91.2227767 C234.431548,91.9109525 233.736051,92.5991282 233.045435,93.2921847" id="Fill-185" fill="#D3D3D3"></path>
                                    <polygon id="Fill-187" fill="#FFFFFF" points="303.274261 80.0203976 321.049695 81.626141 320.351758 90.4382075 302.076054 88.9813247"></polygon>
                                    <path d="M310.068655,47.0187084 C310.068655,47.0187084 308.570286,42.2795688 308.902172,40.8202457 C309.234059,39.3633629 302.188798,45.8863908 301.381046,48.9734205 C300.575733,52.0604501 300.756319,53.5002505 301.334679,52.677856 C301.91304,51.8530212 306.7986,51.0184251 308.470232,51.1160387 C310.141865,51.2136522 309.011988,51.2526977 309.011988,51.2526977 C309.011988,51.2526977 314.170866,52.3679329 314.780951,54.9424912 C314.780951,54.9424912 319.058866,46.2988082 319.024701,43.5217017 C318.992977,40.7421548 317.838696,39.3462806 317.838696,39.3462806 C317.838696,39.3462806 312.770111,46.1963139 310.068655,47.0187084" id="Fill-189" fill="#0E244C"></path>
                                </g>
                            </g>
                        </g>
                    </g>
                </g>
            </g>
        </g>
    </g>
</svg>