<?xml version="1.0" encoding="UTF-8"?>
<svg width="864px" height="758px" viewBox="0 0 864 758" version="1.1" xmlns="http://www.w3.org/2000/svg" xmlns:xlink="http://www.w3.org/1999/xlink">
    <!-- Generator: Sketch 57.1 (83088) - https://sketch.com -->
    <title>Illustration</title>
    <desc>Created with Sketch.</desc>
    <defs>
        <polygon id="path-1" points="0.000210551823 0.0164987234 157.255109 0.0164987234 157.255109 93.5997301 0.000210551823 93.5997301"></polygon>
        <polygon id="path-3" points="0.00600956893 0.288440939 32.4934779 0.288440939 32.4934779 27.5775305 0.00600956893 27.5775305"></polygon>
        <polygon id="path-5" points="0.109941252 0.370704286 28.8806218 0.370704286 28.8806218 23.3533861 0.109941252 23.3533861"></polygon>
        <polygon id="path-7" points="0.409587115 0.740742626 38.2323818 0.740742626 38.2323818 21.9046154 0.409587115 21.9046154"></polygon>
        <polygon id="path-9" points="0.0407058827 0.472926946 12.5530986 0.472926946 12.5530986 20.5220009 0.0407058827 20.5220009"></polygon>
    </defs>
    <g id="For-Communites-&amp;-Fire-Department" stroke="none" stroke-width="1" fill="none" fill-rule="evenodd">
        <g transform="translate(-499.000000, -149.000000)" id="Hero">
            <g transform="translate(-1.440000, 0.000000)">
                <g id="Illustration" transform="translate(499.440000, 149.000000)">
                    <g id="Group-10" transform="translate(0.000000, 0.600000)">
                        <g id="Group-3" transform="translate(488.940000, 193.000000) scale(-1, 1) translate(-488.940000, -193.000000) translate(113.440000, 0.000000)">
                            <path d="M658.161241,215.577196 C667.589964,195.896645 672.874034,173.850517 672.874034,150.568365 C672.874034,67.4121557 605.508187,0 522.409101,0 C468.636942,0 421.461408,28.2330204 394.854379,70.6875693 C372.974286,38.2809131 335.923892,16.9742699 293.898948,16.9742699 C226.657875,16.9742699 172.148675,71.5209414 172.148675,138.808236 C172.148675,145.312604 172.664217,151.69695 173.645006,157.925463 C151.185532,163.809399 133.033209,180.312296 124.840627,201.748639 C115.319048,198.522589 105.118462,196.772605 94.5087305,196.772605 C42.3131843,196.772605 0,239.114876 0,291.346302 C0,343.578697 42.3131843,385.92 94.5087305,385.92 C144.09271,385.92 184.753837,347.707809 188.699237,299.107019 C189.749667,299.152511 190.802999,299.187356 191.865036,299.187356 C221.61465,299.187356 247.133526,281.069014 258.008283,255.258677 C260.099471,255.903307 262.216774,256.487925 264.353423,257.022213 C275.322003,313.033335 324.635153,355.296237 383.820993,355.296237 C427.756251,355.296237 466.250744,332.006343 487.661722,297.092795 C498.816014,299.732291 510.448125,301.135763 522.409101,301.135763 C526.533442,301.135763 530.617158,300.962506 534.656382,300.637288 C544.536809,332.752603 574.418936,356.0967 609.752466,356.0967 C653.144131,356.0967 688.32,320.897619 688.32,277.477094 C688.32,252.336552 676.512817,229.969077 658.161241,215.577196" id="Fill-1" fill="#0A1D44"></path>
                            <g id="Group-6" transform="translate(592.560000, 7.920000)">
                                <g id="Group-3">
                                    <mask id="mask-2" fill="white">
                                        <use xlink:href="#path-1"></use>
                                    </mask>
                                    <g id="Clip-2"></g>
                                    <path d="M125.03695,89.7314752 C125.03695,89.7314752 98.4558258,94.4695501 59.93856,93.4581186 C21.4232992,92.4466871 -7.87067544,74.527894 1.89398278,66.9281101 C11.658641,59.3263195 26.3056284,61.4976863 26.3056284,61.4976863 C26.3056284,61.4976863 27.9337397,41.9513714 37.6963929,40.3218429 C47.4630562,38.6943212 56.6843423,52.268374 56.6843423,52.268374 C56.6843423,52.268374 70.2465904,-12.886678 107.135745,2.31489651 C144.024899,17.5184778 136.429719,66.9281101 136.429719,66.9281101 C136.429719,66.9281101 153.789557,59.3263195 157.043775,71.8146889 C160.297993,84.3010514 125.03695,89.7314752 125.03695,89.7314752" id="Fill-1" fill="#0A1D44" mask="url(#mask-2)"></path>
                                </g>
                                <path d="M129.501263,73.2490264 C130.044465,67.0295194 118.655272,44.0407342 98.8614899,41.8776012 C79.0657029,39.7144683 63.8821179,68.1090867 63.8821179,68.1090867 C63.8821179,68.1090867 55.475523,55.6700727 43.2725308,55.4001809 C31.071543,55.1302891 36.7661391,73.5189182 36.7661391,73.5189182 C36.7661391,73.5189182 33.7835418,70.8160017 16.1585565,69.1926524 C7.38114141,68.3829769 3.31414549,71.2658214 1.44,74.3605809 C7.53949167,82.5972793 31.1096273,92.7072269 59.8131175,93.4589256 C98.3182884,94.4665217 124.891066,89.7464137 124.891066,89.7464137 C124.891066,89.7464137 154.859354,85.14026 156.96,74.6624599 C149.325112,67.7152446 129.501263,73.2490264 129.501263,73.2490264" id="Fill-4" fill="#11295B"></path>
                            </g>
                        </g>
                        <g id="Group-198" transform="translate(375.900000, 358.060000) scale(-1, 1) translate(-375.900000, -358.060000) translate(126.400000, 250.560000)">
                            <path d="M131.981668,182.903005 C131.981668,166.585617 124.327261,153.161764 114.511761,151.517687 L99.4066214,151.346327 L99.4066214,214.458705 L114.511761,214.288324 C124.327261,212.643268 131.981668,199.220394 131.981668,182.903005" id="Fill-128" fill="#0E244C"></path>
                            <polygon id="Fill-90" fill="#930C3A" points="121.741978 113.916211 241.357133 113.916211 241.357133 58.2007104 121.741978 58.2007104"></polygon>
                            <polygon id="Fill-92" fill="#0E244C" points="30.1182336 182.90281 149.214413 182.90281 149.214413 136.569024 30.1182336 136.569024"></polygon>
                            <polygon id="Fill-93" fill="#0E244C" points="212.783098 182.90281 306.605146 182.90281 306.605146 131.842426 212.783098 131.842426"></polygon>
                            <polygon id="Fill-95" fill="#FFFFFF" points="374.712422 10.8449338 381.916397 3.64095936 420.292224 42.0167866 413.08825 49.2197818"></polygon>
                            <path d="M90.6884122,182.903005 C90.6884122,166.585617 83.0340058,153.161764 73.218505,151.517687 L58.1133658,151.346327 L58.1133658,214.458705 L73.218505,214.288324 C83.0340058,212.643268 90.6884122,199.220394 90.6884122,182.903005" id="Fill-124" fill="#0E244C"></path>
                            <path d="M77.6156026,182.903005 C77.6156026,200.330807 68.8840762,214.458705 58.1128762,214.458705 C47.3426554,214.458705 38.611129,200.330807 38.611129,182.903005 C38.611129,165.475204 47.3426554,151.346327 58.1128762,151.346327 C68.8840762,151.346327 77.6156026,165.475204 77.6156026,182.903005" id="Fill-125" fill="#2550A0"></path>
                            <path d="M163.701481,96.8032224 L106.035414,96.8032224 L67.7780698,96.8032224 L52.8442906,96.8032224 L11.5710106,96.8032224 C5.18075136,96.8032224 -0.00019584,101.98417 -0.00019584,108.37345 L-0.00019584,178.889558 C-0.00019584,185.279818 5.18075136,190.459786 11.5710106,190.459786 L34.231657,190.459786 C39.6309658,190.459786 44.3135002,186.726096 45.5130202,181.460938 L52.4712154,155.847024 C53.6707354,150.581866 58.3522906,146.847197 63.7525786,146.847197 L106.071644,146.847197 C111.341699,146.847197 115.945897,150.408547 117.270755,155.5092 L125.265923,181.388477 C126.589801,186.490109 131.193999,190.051459 136.465033,190.051459 L216.625283,190.051459 C223.015542,190.051459 228.19551,184.870512 228.19551,178.480253 L228.19551,154.998058 C228.19551,148.607798 233.376457,143.426851 239.766716,143.426851 L246.111932,143.426851 C252.502191,143.426851 257.683139,138.246883 257.683139,131.856624 L257.683139,108.37345 C257.683139,101.98417 252.502191,96.8032224 246.111932,96.8032224 L163.701481,96.8032224 Z" id="Fill-94" fill="#930C3A"></path>
                            <polygon id="Fill-96" fill="#FFFFFF" points="373.339192 43.3899187 380.543167 50.5929139 421.66565 9.47140992 414.461676 2.26743552"></polygon>
                            <polygon id="Fill-97" fill="#FFFFFF" points="334.797587 10.8449338 342.000582 3.64095936 380.376409 42.0167866 373.172435 49.2197818"></polygon>
                            <polygon id="Fill-98" fill="#FFFFFF" points="333.424356 43.3899187 340.627352 50.5929139 381.750814 9.47140992 374.54586 2.26743552"></polygon>
                            <polygon id="Fill-99" fill="#FFFFFF" points="294.881772 10.8449338 302.085746 3.64095936 340.461573 42.0167866 333.25662 49.2197818"></polygon>
                            <polygon id="Fill-100" fill="#FFFFFF" points="293.508639 43.3899187 300.712614 50.5929139 341.835097 9.47140992 334.630143 2.26743552"></polygon>
                            <polygon id="Fill-101" fill="#FFFFFF" points="254.966446 10.8449338 262.17042 3.64095936 300.545268 42.0167866 293.341294 49.2197818"></polygon>
                            <polygon id="Fill-102" fill="#FFFFFF" points="253.592824 43.3899187 260.796799 50.5929139 301.919282 9.47140992 294.715308 2.26743552"></polygon>
                            <polygon id="Fill-103" fill="#FFFFFF" points="215.050631 10.8449338 222.254605 3.64095936 260.630433 42.0167866 253.426458 49.2197818"></polygon>
                            <polygon id="Fill-104" fill="#FFFFFF" points="213.677499 43.3899187 220.881473 50.5929139 262.003956 9.47140992 254.799982 2.26743552"></polygon>
                            <polygon id="Fill-105" fill="#FFFFFF" points="175.135404 10.8449338 182.339378 3.64095936 220.714226 42.0167866 213.510252 49.2197818"></polygon>
                            <polygon id="Fill-106" fill="#FFFFFF" points="173.762173 43.3899187 180.965169 50.5929139 222.088631 9.47140992 214.884657 2.26743552"></polygon>
                            <polygon id="Fill-107" fill="#FFFFFF" points="135.220078 10.8449338 142.424052 3.64095936 180.7989 42.0167866 173.594926 49.2197818"></polygon>
                            <polygon id="Fill-108" fill="#FFFFFF" points="133.846358 43.3899187 141.050333 50.5929139 182.172816 9.47140992 174.968842 2.26743552"></polygon>
                            <polygon id="Fill-109" fill="#2550A0" points="112.293677 52.8601536 430.579699 52.8601536 430.579699 39.5342208 112.293677 39.5342208"></polygon>
                            <polygon id="Fill-110" fill="#FFFFFF" points="112.293677 13.3259328 430.579699 13.3259328 430.579699 0 112.293677 0"></polygon>
                            <polygon id="Fill-111" fill="#2550A0" points="449.934566 52.8601536 498.953318 52.8601536 498.953318 0 449.934566 0"></polygon>
                            <polygon id="Fill-112" fill="#FFFFFF" points="421.789421 52.8601536 470.808173 52.8601536 470.808173 0 421.789421 0"></polygon>
                            <polygon id="Fill-113" fill="#FFFFFF" points="101.612563 52.8601536 121.969152 52.8601536 121.969152 0 101.612563 0"></polygon>
                            <polygon id="Fill-114" fill="#0E244C" points="320.031936 52.0953984 333.021024 52.0953984 333.021024 43.6889664 320.031936 43.6889664"></polygon>
                            <polygon id="Fill-115" fill="#930C3A" points="332.783078 52.0953984 345.772166 52.0953984 345.772166 43.6889664 332.783078 43.6889664"></polygon>
                            <polygon id="Fill-116" fill="#0E244C" points="376.109741 52.0953984 389.098829 52.0953984 389.098829 43.6889664 376.109741 43.6889664"></polygon>
                            <polygon id="Fill-117" fill="#930C3A" points="388.861862 52.0953984 401.85095 52.0953984 401.85095 43.6889664 388.861862 43.6889664"></polygon>
                            <polygon id="Fill-118" fill="#BA104A" points="146.18281 172.435162 209.834726 172.435162 209.834726 113.916211 146.18281 113.916211"></polygon>
                            <path d="M221.495334,58.2003187 L203.092249,190.050578 L216.624793,190.050578 C223.016031,190.050578 228.195999,184.87061 228.195999,178.480351 L228.195999,154.998156 C228.195999,148.606917 233.375967,143.426949 239.766227,143.426949 L241.236985,143.426949 C242.037971,139.359352 242.706764,136.25333 243.131737,134.810968 C245.057823,128.279704 236.583827,72.1676275 234.428607,58.2003187 L221.495334,58.2003187 Z" id="Fill-119" fill="#0A1D3F"></path>
                            <path d="M301.244221,182.903005 C301.244221,166.585617 292.442193,153.161764 281.153975,151.517687 L263.783946,151.346327 L263.783946,214.458705 L281.153975,214.288324 C292.442193,212.643268 301.244221,199.220394 301.244221,182.903005" id="Fill-120" fill="#0E244C"></path>
                            <path d="M286.210466,182.903005 C286.210466,200.330807 276.169749,214.458705 263.783848,214.458705 C251.397948,214.458705 241.357231,200.330807 241.357231,182.903005 C241.357231,165.475204 251.397948,151.346327 263.783848,151.346327 C276.169749,151.346327 286.210466,165.475204 286.210466,182.903005" id="Fill-121" fill="#2550A0"></path>
                            <path d="M275.05444,182.903005 C275.05444,192.795863 270.008623,200.814532 263.783848,200.814532 C257.559074,200.814532 252.513256,192.795863 252.513256,182.903005 C252.513256,173.010148 257.559074,164.991479 263.783848,164.991479 C270.008623,164.991479 275.05444,173.010148 275.05444,182.903005" id="Fill-122" fill="#FFFFFF"></path>
                            <path d="M263.784044,164.991479 C262.886118,164.991479 262.015609,165.162839 261.179372,165.477162 C266.146854,167.346455 269.844313,174.436842 269.844313,182.903005 C269.844313,191.369169 266.146854,198.459556 261.179372,200.327869 C262.015609,200.642193 262.886118,200.814532 263.784044,200.814532 C270.007839,200.814532 275.054636,192.795863 275.054636,182.903005 C275.054636,173.010148 270.007839,164.991479 263.784044,164.991479" id="Fill-123" fill="#FFE6E6"></path>
                            <path d="M67.9143744,182.903005 C67.9143744,192.795863 63.5265792,200.814532 58.1135616,200.814532 C52.700544,200.814532 48.3127488,192.795863 48.3127488,182.903005 C48.3127488,173.010148 52.700544,164.991479 58.1135616,164.991479 C63.5265792,164.991479 67.9143744,173.010148 67.9143744,182.903005" id="Fill-126" fill="#FFFFFF"></path>
                            <path d="M58.1132678,164.991479 C57.3338246,164.991479 56.5759238,165.162839 55.8483782,165.477162 C60.1686086,167.346455 63.3833222,174.436842 63.3833222,182.903005 C63.3833222,191.369169 60.1686086,198.459556 55.8483782,200.327869 C56.5759238,200.642193 57.3338246,200.814532 58.1132678,200.814532 C63.5262854,200.814532 67.9140806,192.795863 67.9140806,182.903005 C67.9140806,173.010148 63.5262854,164.991479 58.1132678,164.991479" id="Fill-127" fill="#FFE6E6"></path>
                            <path d="M118.908369,182.903005 C118.908369,200.330807 110.176842,214.458705 99.4066214,214.458705 C88.6354214,214.458705 79.903895,200.330807 79.903895,182.903005 C79.903895,165.475204 88.6354214,151.346327 99.4066214,151.346327 C110.176842,151.346327 118.908369,165.475204 118.908369,182.903005" id="Fill-129" fill="#2550A0"></path>
                            <path d="M109.20714,182.903005 C109.20714,192.795863 104.819345,200.814532 99.4063277,200.814532 C93.9933101,200.814532 89.6055149,192.795863 89.6055149,182.903005 C89.6055149,173.010148 93.9933101,164.991479 99.4063277,164.991479 C104.819345,164.991479 109.20714,173.010148 109.20714,182.903005" id="Fill-130" fill="#FFFFFF"></path>
                            <path d="M99.4066214,164.991479 C98.626199,164.991479 97.8692774,165.162839 97.1417318,165.477162 C101.461962,167.346455 104.676676,174.436842 104.676676,182.903005 C104.676676,191.369169 101.461962,198.459556 97.1417318,200.327869 C97.8692774,200.642193 98.626199,200.814532 99.4066214,200.814532 C104.819639,200.814532 109.207434,192.795863 109.207434,182.903005 C109.207434,173.010148 104.819639,164.991479 99.4066214,164.991479" id="Fill-131" fill="#FFE6E6"></path>
                            <polygon id="Fill-132" fill="#0E244C" points="301.244026 172.435162 425.574029 172.435162 425.574029 159.67129 301.244026 159.67129"></polygon>
                            <path d="M306.605439,51.4377677 L232.115737,51.4377677 C227.995263,51.4377677 224.655212,54.7778189 224.655212,58.8982925 L224.655212,162.294958 C224.655212,163.8842 225.943839,165.172827 227.533081,165.172827 L237.063635,165.172827 C238.59902,165.172827 239.854355,163.96939 239.938566,162.435963 C240.267577,156.382548 243.432351,142.328091 265.629836,141.554523 C270.514086,141.384142 278.782451,143.751848 281.413561,147.476724 C284.587148,151.971252 289.588902,154.819745 295.091027,154.819745 L306.605439,154.819745 L306.605439,51.4377677 Z" id="Fill-133" fill="#930C3A"></path>
                            <path d="M237.064026,170.151373 L228.228705,170.151373 C225.479111,170.151373 223.250452,167.922714 223.250452,165.173121 C223.250452,162.423527 225.479111,160.194868 228.228705,160.194868 L235.150669,160.194868 C236.089722,152.977185 240.974951,137.432385 265.456909,136.579501 C271.337005,136.374849 281.556916,139.050023 285.479591,144.605025 C287.829671,147.933325 291.332269,149.841786 295.090439,149.841786 C297.840033,149.841786 300.068692,152.070445 300.068692,154.820039 C300.068692,157.568653 297.840033,159.798292 295.090439,159.798292 C288.158682,159.798292 281.525581,156.265338 277.347335,150.348033 C276.182087,148.700039 270.347034,146.523277 266.194247,146.523277 C266.061076,146.523277 265.930842,146.525236 265.803546,146.530132 C249.229607,147.10786 245.293223,155.646484 244.908397,162.706516 C244.681223,166.880845 241.236397,170.151373 237.064026,170.151373" id="Fill-134" fill="#2550A0"></path>
                            <path d="M420.381919,165.173121 L301.308261,165.173121 C295.156927,165.173121 290.280511,159.983361 290.662399,153.843777 L292.479794,124.647949 C293.15838,113.763162 293.15838,102.84802 292.479794,91.9622534 L290.662399,62.7674054 C290.280511,56.6268422 295.156927,51.4380614 301.308261,51.4380614 L420.381919,51.4380614 C426.015256,51.4380614 430.678207,55.8190022 431.027781,61.4415686 L432.928408,91.9622534 C433.605036,102.84802 433.605036,113.763162 432.928408,124.647949 L431.027781,155.168634 C430.678207,160.791201 426.015256,165.173121 420.381919,165.173121" id="Fill-135" fill="#BA104A"></path>
                            <path d="M292.480186,91.9626451 C293.068685,101.416821 293.145062,110.894498 292.711277,120.354549 L433.158912,120.354549 C433.592698,110.894498 433.51632,101.416821 432.927821,91.9626451 L431.64409,71.3377555 L291.196454,71.3377555 L292.480186,91.9626451 Z" id="Fill-136" fill="#0E244C"></path>
                            <path d="M430.954243,118.056758 L374.450486,118.056758 L374.450486,95.503824 C374.450486,93.6501984 374.310461,91.7818848 374.035306,89.9498016 L371.578493,73.6353504 L429.484464,73.6353504 L430.635024,92.1050208 C431.169667,100.701418 431.2764,109.421194 430.954243,118.056758 L430.954243,118.056758 Z M295.10591,118.056758 C295.426109,109.324253 295.31448,100.510474 294.773962,91.8200736 L293.642006,73.6353504 L369.642614,73.6353504 L372.141533,90.2347488 C372.402979,91.9728288 372.53615,93.7451808 372.53615,95.503824 L372.53615,118.056758 L295.10591,118.056758 Z M432.92831,91.9630368 L431.6436,71.337168 L371.232835,71.337168 L369.296957,71.337168 L291.195965,71.337168 L292.479696,91.9630368 C293.069174,101.417213 293.144573,110.89489 292.710787,120.354941 L372.53615,120.354941 L374.450486,120.354941 L433.158422,120.354941 C433.592208,110.89489 433.51583,101.417213 432.92831,91.9630368 L432.92831,91.9630368 Z" id="Fill-137" fill="#FFF0F0"></path>
                            <polygon id="Fill-138" fill="#2550A0" points="301.052494 96.8032224 297.414766 76.6992672 330.92299 76.6992672"></polygon>
                            <polygon id="Fill-139" fill="#2550A0" points="376.110426 76.6989734 380.131021 94.5067046 399.661165 76.6989734"></polygon>
                            <path d="M430.741953,184.017041 C430.12114,183.3081 429.835213,182.367089 429.956634,181.433912 L430.869249,174.393464 C431.232532,171.595889 429.052833,169.116555 426.232737,169.116555 L357.006234,169.116555 L302.736033,169.116555 C299.914957,169.116555 297.736237,171.595889 298.098541,174.393464 L299.011156,181.433912 C299.132577,182.367089 298.84665,183.3081 298.226817,184.017041 C297.702945,184.615332 297.414081,185.384004 297.414081,186.178136 L297.414081,204.744747 C297.414081,206.557246 298.88386,208.027025 300.696359,208.027025 L357.006234,208.027025 L428.27241,208.027025 C430.08393,208.027025 431.553709,206.557246 431.553709,204.744747 L431.553709,186.178136 C431.553709,185.384004 431.264845,184.615332 430.741953,184.017041" id="Fill-140" fill="#BA104A"></path>
                            <path d="M319.881041,143.067485 L319.881041,143.067485 C319.881041,147.07535 323.129048,150.323357 327.136913,150.323357 L334.123505,150.323357 C337.402846,150.323357 340.27386,152.52264 341.127723,155.689373 L342.907908,162.282326 C343.761771,165.44808 346.632785,167.648342 349.912126,167.648342 L371.578884,167.648342 L393.245643,167.648342 C396.524004,167.648342 399.395998,165.44808 400.24986,162.282326 L402.030046,155.689373 C402.883908,152.52264 405.754923,150.323357 409.034264,150.323357 L416.020856,150.323357 C420.027742,150.323357 423.276728,147.07535 423.276728,143.067485 C423.276728,139.060598 420.027742,135.811613 416.020856,135.811613 L327.136913,135.811613 C323.129048,135.811613 319.881041,139.060598 319.881041,143.067485" id="Fill-141" fill="#0E244C"></path>
                            <path d="M371.578787,144.554498 C367.834326,144.554498 364.786076,147.601768 364.786076,151.347208 C364.786076,155.092648 367.834326,158.13894 371.578787,158.13894 C375.324227,158.13894 378.371497,155.092648 378.371497,151.347208 C378.371497,147.601768 375.324227,144.554498 371.578787,144.554498 M371.578787,160.436143 C366.567241,160.436143 362.489852,156.358754 362.489852,151.347208 C362.489852,146.334684 366.567241,142.257295 371.578787,142.257295 C376.590332,142.257295 380.6687,146.334684 380.6687,151.347208 C380.6687,156.358754 376.590332,160.436143 371.578787,160.436143" id="Fill-142" fill="#930C3A"></path>
                            <path d="M353.202532,155.431843 L351.914884,155.431843 C350.43825,155.431843 349.239709,154.233302 349.239709,152.756669 L349.239709,149.937552 C349.239709,148.459939 350.43825,147.261398 351.914884,147.261398 L353.202532,147.261398 C354.680145,147.261398 355.877706,148.459939 355.877706,149.937552 L355.877706,152.756669 C355.877706,154.233302 354.680145,155.431843 353.202532,155.431843" id="Fill-143" fill="#930C3A"></path>
                            <path d="M389.955041,155.431843 L391.242689,155.431843 C392.719323,155.431843 393.917864,154.233302 393.917864,152.756669 L393.917864,149.937552 C393.917864,148.459939 392.719323,147.261398 391.242689,147.261398 L389.955041,147.261398 C388.477428,147.261398 387.279867,148.459939 387.279867,149.937552 L387.279867,152.756669 C387.279867,154.233302 388.477428,155.431843 389.955041,155.431843" id="Fill-144" fill="#2550A0"></path>
                            <path d="M410.12803,186.630428 L357.208145,186.630428 L326.763838,186.630428 C326.211569,186.630428 325.896267,187.262012 326.227236,187.703631 C329.337176,191.849564 334.218488,194.289731 339.401393,194.289731 L357.208145,194.289731 L397.491454,194.289731 C402.67436,194.289731 407.554692,191.849564 410.664632,187.703631 C410.99658,187.262012 410.680299,186.630428 410.12803,186.630428" id="Fill-145" fill="#0E244C"></path>
                            <path d="M384.785551,176.673923 L352.106709,176.673923 C351.054069,176.673923 350.192373,177.535619 350.192373,178.589238 L350.192373,185.992969 C350.192373,187.045609 351.054069,187.907305 352.106709,187.907305 L384.785551,187.907305 C385.838191,187.907305 386.699887,187.045609 386.699887,185.992969 L386.699887,178.589238 C386.699887,177.535619 385.838191,176.673923 384.785551,176.673923" id="Fill-146" fill="#0E244C"></path>
                            <polygon id="Fill-147" fill="#BA104A" points="48.3127488 120.354451 128.841178 120.354451 128.841178 113.916211 48.3127488 113.916211"></polygon>
                            <polygon id="Fill-148" fill="#2550A0" points="16.9440768 143.631994 35.32464 143.631994 35.32464 96.803712 16.9440768 96.803712"></polygon>
                            <polygon id="Fill-149" fill="#BA104A" points="196.729407 86.751049 79.903993 86.751049 79.903993 46.4256346 177.775033 46.4256346 196.729407 66.5883418"></polygon>
                            <polygon id="Fill-150" fill="#930C3A" points="174.096864 54.9308678 88.4090304 54.9308678 88.4090304 78.246599 188.224762 78.246599 188.224762 69.9586502"></polygon>
                            <path d="M251.843875,76.6989734 L232.313731,76.6989734 C231.260112,76.6989734 230.399395,77.5606694 230.399395,78.6133094 L230.399395,112.002071 C230.399395,113.054711 231.260112,113.916407 232.313731,113.916407 L251.843875,113.916407 C252.897494,113.916407 253.75919,113.054711 253.75919,112.002071 L253.75919,78.6133094 C253.75919,77.5606694 252.897494,76.6989734 251.843875,76.6989734" id="Fill-151" fill="#0E244C"></path>
                            <path d="M232.313829,77.8474771 C231.898648,77.8474771 231.548095,78.1980307 231.548095,78.6132115 L231.548095,112.001973 C231.548095,112.417154 231.898648,112.767708 232.313829,112.767708 L251.843973,112.767708 C252.259154,112.767708 252.609708,112.417154 252.609708,112.001973 L252.609708,78.6132115 C252.609708,78.1980307 252.259154,77.8474771 251.843973,77.8474771 L232.313829,77.8474771 Z M251.843973,115.06589 L232.313829,115.06589 C230.624709,115.06589 229.249912,113.691093 229.249912,112.001973 L229.249912,78.6132115 C229.249912,76.9250707 230.624709,75.5492947 232.313829,75.5492947 L251.843973,75.5492947 C253.533093,75.5492947 254.90789,76.9250707 254.90789,78.6132115 L254.90789,112.001973 C254.90789,113.691093 253.533093,115.06589 251.843973,115.06589 L251.843973,115.06589 Z" id="Fill-152" fill="#FFF0F0"></path>
                            <path d="M281.202152,76.6989734 L261.672008,76.6989734 C260.618388,76.6989734 259.757672,77.5606694 259.757672,78.6133094 L259.757672,112.002071 C259.757672,113.054711 260.618388,113.916407 261.672008,113.916407 L281.202152,113.916407 C282.255771,113.916407 283.117467,113.054711 283.117467,112.002071 L283.117467,78.6133094 C283.117467,77.5606694 282.255771,76.6989734 281.202152,76.6989734" id="Fill-153" fill="#0E244C"></path>
                            <path d="M261.671714,77.8474771 C261.256533,77.8474771 260.90598,78.1980307 260.90598,78.6132115 L260.90598,112.001973 C260.90598,112.417154 261.256533,112.767708 261.671714,112.767708 L281.201858,112.767708 C281.617039,112.767708 281.968572,112.417154 281.968572,112.001973 L281.968572,78.6132115 C281.968572,78.1980307 281.617039,77.8474771 281.201858,77.8474771 L261.671714,77.8474771 Z M281.201858,115.06589 L261.671714,115.06589 C259.982594,115.06589 258.608776,113.691093 258.608776,112.001973 L258.608776,78.6132115 C258.608776,76.9250707 259.982594,75.5492947 261.671714,75.5492947 L281.201858,75.5492947 C282.890978,75.5492947 284.265775,76.9250707 284.265775,78.6132115 L284.265775,112.001973 C284.265775,113.691093 282.890978,115.06589 281.201858,115.06589 L281.201858,115.06589 Z" id="Fill-154" fill="#FFF0F0"></path>
                            <path d="M296.086677,148.631887 L297.414472,124.126428 L341.292424,124.126428 C341.292424,124.126428 300.255132,137.718703 296.086677,148.631887" id="Fill-155" fill="#D9205F"></path>
                            <path d="M229.25001,120.354647 L229.25001,151.346327 C229.25001,151.346327 237.239303,135.257092 257.033831,130.442365 L257.033831,120.354647 L229.25001,120.354647 Z" id="Fill-156" fill="#BA104A"></path>
                            <path d="M402.209338,179.514973 L402.209338,178.210679 C402.209338,177.1081 403.007386,176.168068 404.096256,175.988874 L419.292461,173.489956 C420.66432,173.263761 421.909862,174.322276 421.909862,175.711761 L421.909862,179.514973 C421.909862,180.759537 420.902266,181.767133 419.657702,181.767133 L404.461498,181.767133 C403.216934,181.767133 402.209338,180.759537 402.209338,179.514973" id="Fill-157" fill="#FFFFFF"></path>
                            <path d="M333.869011,179.514973 L333.869011,178.210679 C333.869011,177.1081 333.070963,176.168068 331.982093,175.988874 L316.784909,173.489956 C315.414029,173.263761 314.168486,174.322276 314.168486,175.711761 L314.168486,179.514973 C314.168486,180.759537 315.176083,181.767133 316.419667,181.767133 L331.616851,181.767133 C332.861414,181.767133 333.869011,180.759537 333.869011,179.514973" id="Fill-158" fill="#FFFFFF"></path>
                        </g>
                        <g id="Group-105" transform="translate(91.664158, 554.360000) scale(-1, 1) translate(-91.664158, -554.360000) translate(0.664158, 351.360000)">
                            <path d="M74.4373949,122.935398 C74.4373949,122.935398 97.6996523,95.8609834 102.606596,83.1572773 C106.055566,74.2291482 107.014484,20.6551476 111.276052,18.5988299 C115.535008,16.545125 125.534408,16.2080666 127.096896,21.0496889 C128.02446,23.9186048 133.38604,66.0535216 125.051029,98.0949754 C120.219859,116.672382 100.069513,147.843755 92.9938986,150.425256 C85.9182844,153.004145 74.4373949,122.935398 74.4373949,122.935398" id="Fill-1" fill="#930C3A"></path>
                            <path d="M118.412024,88.9784593 C118.412024,88.9784593 131.933554,110.484877 138.609401,112.002947 C145.290474,113.521016 132.547575,120.98072 127.078867,117.832229 C121.615385,114.681124 107.691475,94.3949099 107.691475,94.3949099 L118.412024,88.9784593 Z" id="Fill-3" fill="#EAE9FF"></path>
                            <path d="M115.09239,65.3148672 C128.146219,55.9373268 137.999299,41.5561671 144.322411,31.9460825 L173.228437,88.6894774 C173.228437,88.6894774 151.439831,85.8493029 126.884209,90.7928266 C123.487496,88.9533759 119.834724,85.8388515 117.71831,80.8874893 C114.938231,74.3919291 114.747493,68.8579 115.09239,65.3148672" id="Fill-5" fill="#EAE9FF"></path>
                            <path d="M163.516974,69.6271248 L173.22896,88.6905226 C173.22896,88.6905226 151.440353,85.850348 126.882119,90.7938717 C124.261424,89.372478 121.486571,87.1855175 119.380609,83.982156 C130.56102,81.1236914 141.498436,78.7250896 147.042916,77.011056 C152.143211,75.4381167 158.346132,72.4098165 163.516974,69.6271248" id="Fill-7" fill="#C6C0FF"></path>
                            <path d="M98.9227302,75.0900842 C102.410893,73.1957636 107.163678,70.4888447 112.300553,67.2070975 C113.246407,66.6035278 114.176584,65.9712166 115.091084,65.3153897 C114.748799,68.8584225 114.939538,74.3898388 117.717004,80.8880118 C119.83603,85.839374 123.48619,88.9538985 126.882903,90.7933491 C126.085982,90.9527333 125.283835,91.122569 124.476462,91.3002432 C119.261202,92.4525127 113.993684,93.9575178 108.864648,95.9119341 C105.653447,97.1373636 102.039868,95.7185828 100.490444,92.6537026 L96.1348128,84.0338905 C94.4939392,80.7887233 95.7245944,76.8224078 98.9227302,75.0900842" id="Fill-9" fill="#FAACAC"></path>
                            <path d="M152.993957,63.1383581 C161.018038,79.0140715 170.528834,90.366931 174.236477,88.4935132 C177.94412,86.6174826 174.445506,72.2284843 166.421425,56.3527709 C158.394731,40.4770575 148.886548,29.1268108 145.178905,31.0002286 C141.471262,32.8736464 144.972489,47.2652575 152.993957,63.1383581" id="Fill-11" fill="#FAACAC"></path>
                            <path d="M144.645098,41.638472 C143.275962,35.921543 143.343896,31.9264861 145.178121,31.001535 C148.885764,29.1281172 158.39656,40.4783639 166.420641,56.3540773 C166.548671,56.6049115 166.674088,56.8557457 166.799505,57.1065799 C160.580907,51.4001022 152.436635,44.9071549 144.645098,41.638472" id="Fill-13" fill="#FF8F8F"></path>
                            <g id="Group-17" transform="translate(148.932795, 44.334537)">
                                <mask id="mask-4" fill="white">
                                    <use xlink:href="#path-3"></use>
                                </mask>
                                <g id="Clip-16"></g>
                                <path d="M29.2177403,14.5655074 L8.58924171,27.5775305 C7.21487942,25.0874787 5.85358142,22.414527 4.54192768,19.6030939 C2.77302413,15.8170654 1.24972905,12.1198741 0.00600956893,8.65783985 L22.5157645,0.691241736 C25.9229288,-0.513284905 29.6906672,1.06488015 31.2218009,4.34140165 L31.8332092,5.65566824 C33.3303757,8.85902976 32.2120733,12.6764125 29.2177403,14.5655074" id="Fill-15" fill="#EAE9FF" mask="url(#mask-4)"></path>
                            </g>
                            <path d="M107.69252,94.3956938 L114.38927,91.0120452 L118.857254,89.6768757 C119.3746,90.4764097 120.304776,91.9004162 121.509303,93.6614812 L111.28781,99.4724731 C109.142655,96.5094943 107.69252,94.3956938 107.69252,94.3956938" id="Fill-18" fill="#081A3F"></path>
                            <path d="M119.381654,83.9824172 C121.487616,87.1857788 124.259857,89.3727393 126.883164,90.7915201 C126.08363,90.9535172 125.284096,91.12074 124.476724,91.3010271 C119.261463,92.4506837 113.991332,93.9556888 108.864909,95.9101051 C105.653709,97.1355346 102.040129,95.7167538 100.490705,92.6518736 L99.1111172,89.9214391 C105.081493,87.7971871 112.279912,85.7957394 119.381654,83.9824172" id="Fill-20" fill="#FF8F8F"></path>
                            <g id="Group-24" transform="translate(152.545651, 48.560249)">
                                <mask id="mask-6" fill="white">
                                    <use xlink:href="#path-5"></use>
                                </mask>
                                <g id="Clip-23"></g>
                                <path d="M27.7252169,0.370704286 L28.2190467,1.42891099 C29.7188261,4.63488537 28.5979108,8.45226806 25.6035778,10.3387501 L4.97769208,23.3533861 C3.6033298,20.8633343 2.23941894,18.1877697 0.925152341,15.3763366 C0.648189599,14.7806054 0.37645257,14.1848742 0.109941252,13.5917559 C6.24754012,10.6993243 14.9039322,8.27720671 21.7417765,4.89617097 C25.4389678,3.06978459 27.0380358,1.48639382 27.7252169,0.370704286" id="Fill-22" fill="#C6C0FF" mask="url(#mask-6)"></path>
                            </g>
                            <path d="M143.749673,42.0466001 C142.111412,35.3080444 142.445857,31.302536 144.745171,30.1372022 C148.792485,28.0887231 156.29922,36.7660181 162.964616,48.0300405 L161.112101,48.6858674 C158.551502,44.3955577 155.930807,40.6121422 153.440756,37.638712 C149.341185,32.7448326 146.744006,31.448856 145.706702,31.8224944 C145.672735,31.8329458 145.643993,31.848623 145.615252,31.8643001 C144.648495,32.3502913 144.068441,35.1930787 145.625703,41.5893503 C146.443527,44.9520961 147.721214,48.7851559 149.362087,52.8455342 C150.652838,56.0306057 152.165682,59.3541586 153.8562,62.7038401 C155.374269,65.7086246 156.962886,68.5775405 158.575018,71.2531051 C161.04678,75.357902 163.573411,78.987159 165.974626,81.8508493 C170.20484,86.9015 172.833373,88.1217038 173.80013,87.6304869 C174.7695,87.1418828 175.346941,84.3017083 173.789679,77.9028238 C172.833373,73.9704754 171.242144,69.3901388 169.180601,64.5589679 L170.837151,63.5138255 C176.112508,75.7707332 178.795911,87.2699127 174.672824,89.352359 C174.570923,89.4046161 174.466408,89.4516475 174.359281,89.4882275 C169.285115,91.3093882 159.416357,77.9864352 152.134328,63.5739212 C148.220269,55.8320287 145.241613,48.1894247 143.749673,42.0466001" id="Fill-25" fill="#FFFFFF"></path>
                            <g id="Group-29" transform="translate(89.642650, 383.616913)">
                                <mask id="mask-8" fill="white">
                                    <use xlink:href="#path-7"></use>
                                </mask>
                                <g id="Clip-28"></g>
                                <path d="M3.46752024,11.0275569 C5.78512356,7.60994119 6.43311186,3.83958991 6.71268746,0.740742626 L18.1700613,0.740742626 C18.1700613,0.740742626 17.3914302,4.67047813 19.3197179,7.74319685 C20.1636704,9.08359201 22.6197551,10.0843159 26.0086294,11.5083224 C31.3754358,14.2622727 37.9990259,17.8157569 38.2289572,19.6499819 C38.6104342,22.7044106 7.00532734,22.6103478 1.75348667,19.6499819 C-0.995237904,18.1005583 0.925211296,14.7770054 3.46752024,11.0275569" id="Fill-27" fill="#081A3F" mask="url(#mask-8)"></path>
                            </g>
                            <path d="M5.06658918,384.450673 C8.34049781,381.934493 10.1433685,378.561296 11.3844751,375.708057 L22.259182,379.319024 C22.259182,379.319024 20.28125,382.801961 21.1461053,386.329317 C21.5223566,387.865676 23.5420943,389.584936 26.3091089,392.007053 C30.5340971,396.310427 35.7023264,401.768683 35.3417523,403.579393 C34.7407954,406.602467 4.77656215,396.556036 0.724022413,392.090665 C-1.3976167,389.754771 1.4739121,387.207237 5.06658918,384.450673" id="Fill-30" fill="#081A3F"></path>
                            <path d="M135.260242,294.735909 C131.887045,251.887683 111.535509,220.84434 104.718568,207.132071 C101.82091,199.421533 41.3489696,220.225093 40.2698601,223.242942 C29.6355359,252.974631 43.6822501,292.180536 40.2254415,309.514223 C38.7753064,316.785801 5.16352614,366.194909 7.66402938,379.943758 C8.46878904,384.362098 20.8798553,391.356713 24.6580452,388.592312 C35.3184979,380.792936 43.1100346,366.832446 51.1915984,356.093608 C60.5613002,343.643349 67.9870371,332.042268 69.7846821,326.981166 C77.5030589,305.278783 77.0144548,244.532493 85.7100397,260.703459 C87.2254962,263.517505 101.347983,302.33932 101.350596,306.20896 C101.358435,316.137813 84.2416146,370.317996 88.7566299,389.924868 C89.9298023,395.009486 101.19905,391.748642 104.948499,391.748642 C122.493827,391.748642 136.517026,310.703073 135.260242,294.735909" id="Fill-32" fill="#BA104A"></path>
                            <path d="M87.9991629,237.076969 L40.2518314,223.294154 C38.3392207,228.655734 37.2365955,234.330858 36.6800572,240.126173 C46.5305245,244.458288 66.5841947,250.03151 87.9991629,237.076969" id="Fill-34" fill="#520C24"></path>
                            <path d="M135.260242,294.735909 C131.887045,251.887683 111.535509,220.84434 104.718568,207.132071 C104.418089,206.332537 103.472235,205.851772 102.066519,205.616615 C96.2241725,213.713856 90.5908548,225.492611 95.6859242,236.785375 C104.689826,256.729305 116.998991,307.810641 116.946734,332.549162 C116.912767,350.063136 98.7142243,368.901828 88.082513,378.415237 C87.8734846,382.901511 88.0485459,386.841698 88.7566299,389.924868 C89.9298023,395.009486 101.19905,391.748642 104.948499,391.748642 C122.493827,391.748642 136.517026,310.703073 135.260242,294.735909" id="Fill-36" fill="#930C3A"></path>
                            <path d="M32.0829982,151.674202 C34.3300544,142.202598 38.9365196,134.688024 48.3114472,131.727659 C48.3166729,131.740723 48.3218986,131.753787 48.3245114,131.764238 C61.6631416,126.893875 77.2383766,117.803749 84.1702837,119.891421 C103.510644,125.715477 105.114938,194.318625 110.168201,209.055133 C110.56013,209.844216 113.97252,218.683508 116.420766,224.889041 C118.082542,229.103578 115.660425,233.819783 111.260375,234.885828 C101.443875,237.260915 85.9235101,236.921243 84.345345,237.26614 C84.2042508,237.297495 54.3471447,243.570962 41.3534115,235.64617 C36.5300792,232.704094 38.4662056,220.24077 38.7327169,215.649982 C40.4127833,186.623764 28.0853284,168.52451 32.0829982,151.674202" id="Fill-38" fill="#840B34"></path>
                            <path d="M116.421811,224.890348 C113.973565,218.684814 110.561175,209.84291 110.166634,209.053827 C105.115983,194.319932 103.511689,125.716783 84.168716,119.890114 C81.082933,118.96255 76.2752778,120.255914 70.717733,122.398456 C75.183104,134.4594 88.5870555,171.645567 89.1880124,185.235031 C89.7602279,198.168669 87.0141162,218.504527 95.6861854,236.786681 C100.783868,236.514944 106.647117,236.002824 111.258808,234.884522 C115.66147,233.82109 118.083588,229.102272 116.421811,224.890348" id="Fill-40" fill="#930C3A"></path>
                            <path d="M100.07108,148.931225 C73.033246,167.66279 32.2125959,164.746843 31.7527332,164.70765 L31.6717347,164.699812 C32.0636631,167.822175 32.7247157,171.067342 33.4824439,174.458829 C34.8463548,174.516312 36.7171597,174.571182 38.998183,174.571182 C52.4465532,174.571182 80.1219245,172.70299 102.158752,159.092623 C101.526441,155.625363 100.834034,152.215585 100.07108,148.931225" id="Fill-42" fill="#FFFFFF"></path>
                            <path d="M82.796444,157.696051 C83.7710393,160.868058 84.6959903,164.006098 85.5216528,167.00827 C91.2072276,164.954565 96.845771,162.37045 102.157707,159.091316 C101.525396,155.626669 100.832989,152.216892 100.070035,148.932532 L100.070035,148.932532 C94.7136804,152.640175 88.8138514,155.4908 82.796444,157.696051" id="Fill-44" fill="#EDE8E8"></path>
                            <path d="M107.738507,197.103407 C107.35703,194.555873 106.970327,191.778407 106.573173,188.815428 C83.8491637,203.139105 52.3903768,200.97566 38.2313098,199.026469 C38.518724,201.563553 38.7146882,204.199924 38.8061381,206.932972 C44.0109474,207.612314 50.9376288,208.247238 58.776197,208.247238 C73.8131835,208.247238 92.1240788,205.893055 107.738507,197.103407" id="Fill-46" fill="#FFFFFF"></path>
                            <path d="M107.738507,197.098182 C107.35703,194.555873 106.97294,191.786245 106.575786,188.831105 C106.575786,188.825879 106.573173,188.820654 106.573173,188.815428 C101.167174,192.222592 95.2673446,194.670838 89.2238086,196.439742 C89.19768,199.013405 89.1898414,201.72555 89.2473243,204.518693 C95.5835002,202.815111 101.851742,200.419122 107.738507,197.103407 L107.738507,197.098182 Z" id="Fill-48" fill="#EDE8E8"></path>
                            <path d="M117.812373,114.387439 C117.812373,114.387439 116.756779,111.983612 116.114017,110.465542 C115.680283,109.443916 111.938673,103.721761 114.601173,104.168559 C117.715697,104.688518 118.162496,107.894492 120.098622,106.554097 C121.209086,105.783304 123.652106,97.9212204 125.052597,98.0962818 C126.450475,98.2661174 129.366423,100.868522 130.361921,104.565713 C130.712043,105.869529 130.367146,107.499951 129.298488,112.819726 C128.232443,118.139501 119.832111,122.30178 117.812373,114.387439" id="Fill-50" fill="#F39B9B"></path>
                            <g id="Group-54" transform="translate(109.739954, 0.528840)">
                                <mask id="mask-10" fill="white">
                                    <use xlink:href="#path-9"></use>
                                </mask>
                                <g id="Clip-53"></g>
                                <path d="M4.97226507,18.629925 C4.26156823,17.8695838 3.37319717,15.0058936 3.2347158,13.2631186 C2.97343019,9.93434001 1.16794666,9.76450436 0.27173703,8.85000474 C-0.624472597,7.93550512 1.21759092,6.81981559 3.54303281,8.45023777 C5.02974791,9.49276733 5.63331765,11.7398235 5.9756018,9.99704855 C6.31788594,8.25427356 2.05893057,-1.79738368 6.00173036,0.940889465 C6.55565584,1.32759216 8.58061928,3.23497708 8.58061928,3.23497708 C8.58061928,3.23497708 10.3704257,4.81314214 11.1516696,6.10128017 C12.452872,8.25166071 13.0486031,12.6517103 12.0583307,16.88715 C11.5723395,18.9643705 8.93596771,22.8627518 4.97226507,18.629925" id="Fill-52" fill="#C87171" mask="url(#mask-10)"></path>
                            </g>
                            <path d="M36.2831643,147.897841 C42.3502161,137.226937 75.4211352,152.054895 92.2270253,160.497033 C97.2280318,163.0106 103.245439,160.1652 104.496997,154.709557 C107.953806,139.693473 114.067889,114.536895 116.280978,114.518043 C119.434695,114.489863 130.474012,115.558521 132.679263,118.981363 C134.879288,122.401591 142.18222,171.541575 116.380267,187.404224 C93.5778719,201.427423 25.7481287,166.428216 36.2831643,147.897841" id="Fill-55" fill="#BA104A"></path>
                            <path d="M63.4148003,166.434487 C72.0685796,170.029777 83.3535049,180.799969 93.5488692,182.699516 C103.746846,184.599062 103.893166,179.258384 111.838862,174.489922 C119.781944,169.724073 122.491476,165.109769 123.38246,158.133443 C124.276056,151.157117 123.570585,128.686555 124.129736,118.770767 C124.208122,117.385953 124.438053,116.301618 124.769886,115.444601 C128.224082,116.134395 131.568538,117.260536 132.679001,118.979795 C134.879026,122.402637 142.181959,171.540008 116.380005,187.405269 C94.7664601,200.696868 32.708516,169.946165 35.266502,150.924573 C37.6311368,152.296323 39.9356758,153.772586 41.620968,155.149561 C46.9093886,159.471225 54.7584082,162.839197 63.4148003,166.434487 Z" id="Fill-57" fill="#930C3A"></path>
                            <path d="M74.0062736,108.092808 C74.0062736,108.092808 72.0910501,118.928322 68.5845973,122.615062 C65.0781445,126.296576 57.4459919,126.079709 53.8533149,125.016276 C50.2606378,123.952844 46.8430221,121.535952 46.7332821,119.636406 C46.626155,117.736859 49.9523208,114.277438 52.6409497,113.054621 C55.3348042,111.831805 67.0717536,105.297052 69.5121612,105.166409 C71.9577945,105.038379 75.1559303,105.756914 74.0062736,108.092808" id="Fill-59" fill="#2550A0"></path>
                            <path d="M55.3564909,109.950287 C55.3564909,109.950287 53.6842631,116.589554 58.5781425,120.563708 C61.1909985,122.685348 67.0333447,112.7983 65.248764,109.451232 C63.4641833,106.098937 55.3564909,109.950287 55.3564909,109.950287" id="Fill-61" fill="#081A3F"></path>
                            <path d="M59.0027316,114.680863 L54.7176476,129.038507 C54.7699048,131.102663 66.0469915,136.448567 69.2163859,133.733809 C70.1439498,132.936888 69.8121171,130.972021 68.8453603,128.863446 L63.1205927,117.382556 L59.0027316,114.680863 Z" id="Fill-63" fill="#F39B9B"></path>
                            <path d="M61.9753779,109.307263 L59.0542048,117.383601 C58.3017023,120.119262 59.8563516,122.962049 62.5737219,123.785099 C64.7423925,124.443538 66.1611733,124.493183 68.9673807,124.239736 C71.3084997,124.028094 72.5731221,121.828069 72.6671849,118.771028 C72.7899891,114.804712 71.776201,111.117973 71.122987,109.17662 C69.633659,104.750442 64.2668527,104.183453 61.9753779,109.307263" id="Fill-65" fill="#F39B9B"></path>
                            <path d="M59.0103089,117.574601 C62.1326718,121.896265 65.3099048,122.165389 68.2023365,122.549479 C69.6341816,122.74283 71.714015,121.760397 72.3201976,121.08628 C71.787175,122.88915 70.661034,124.085838 68.9679033,124.239997 C66.159083,124.490831 64.7403022,124.4438 62.5716317,123.78536 C59.9221956,122.9806 58.3806105,120.247553 59.0103089,117.574601" id="Fill-67" fill="#C87171"></path>
                            <path d="M66.9865745,117.130416 C66.9865745,117.130416 69.2780493,115.298803 71.5695241,116.278625 C71.5695241,116.278625 69.7640405,118.726871 66.9865745,117.130416" id="Fill-69" fill="#FFFFFF"></path>
                            <path d="M64.0013865,106.47754 C64.0013865,106.47754 61.9032631,109.445745 62.0443573,111.084005 C62.1854515,112.724879 62.3814157,113.417286 61.8301031,113.837956 C61.2787905,114.261238 59.7424311,112.967875 59.8312682,111.27997 C59.9201053,109.586839 60.7457678,105.382753 64.0013865,106.47754" id="Fill-71" fill="#081A3F"></path>
                            <path d="M60.8322534,113.351703 C60.5370006,112.91013 60.3149079,112.426752 60.1215565,111.930309 C59.750531,110.989681 58.8386442,110.352144 57.7125033,111.585412 C56.0716297,113.383057 58.4571672,117.615884 60.9341548,117.088087 C62.7736054,116.690933 61.5716916,114.472618 60.8322534,113.351703" id="Fill-73" fill="#F39B9B"></path>
                            <path d="M70.296018,105.107358 C70.296018,105.107358 67.4140378,97.87236 61.3260832,97.9611971 C60.947219,97.9690357 60.2887793,97.4020459 59.9334309,97.4543031 C58.8778371,97.6163001 59.1234455,98.1885156 58.6191643,98.3243841 C54.3811118,99.4714279 52.8133982,103.105911 52.452824,106.871036 C52.0217028,111.362536 52.8630424,113.264695 53.4300322,113.301367 C53.9944091,113.332629 67.2206864,105.334677 70.296018,105.107358" id="Fill-75" fill="#2550A0"></path>
                            <path d="M60.3065467,109.210326 C60.3065467,109.210326 62.3210588,126.656366 64.2676365,129.104612 L61.8664218,129.710795 C61.8664218,129.710795 57.6754007,114.540553 58.0960705,110.874716 L60.3065467,109.210326 Z" id="Fill-77" fill="#081A3F"></path>
                            <path d="M60.640731,114.152805 C60.9124681,114.097935 61.168528,114.272996 61.2260108,114.54212 C61.4559421,115.691777 62.0072548,118.508436 61.8896762,118.879461 C61.7381306,119.341937 59.062566,119.733865 59.007696,119.383743 C58.952826,119.031007 58.0435521,114.758987 58.1924849,114.63357 C58.5008019,114.367059 59.8411971,114.306963 60.640731,114.152805" id="Fill-79" fill="#930C3A"></path>
                            <path d="M69.2142956,128.38059 C69.2142956,128.38059 68.2841189,125.273904 67.628292,125.48032 C66.9698523,125.686735 67.4088121,127.144709 64.9919202,127.74044 C62.5175455,128.34401 57.7699861,120.983594 56.4792352,121.550584 C55.1910972,122.117574 53.8820563,127.199579 53.414355,129.624309 C52.9466538,132.046427 58.4571672,135.213208 63.0557939,136.412509 C67.6518077,137.609197 70.912652,138.50802 72.1145658,137.475942 C73.3190925,136.443864 69.2142956,128.38059 69.2142956,128.38059" id="Fill-81" fill="#081A3F"></path>
                            <path d="M61.3271283,97.960152 C60.9456513,97.9679906 60.2898245,97.4010008 59.934476,97.4558708 C59.1453935,97.5760622 59.082685,97.923572 58.8893336,98.1508905 C59.3047777,98.7361702 59.7385118,99.5435428 60.0416031,100.630491 C60.6922043,102.966384 56.3705404,108.341029 52.438192,110.969562 C52.6341562,112.552953 53.0835675,113.279327 53.4310773,113.300338 C53.9928414,113.334197 67.2217316,105.333632 70.2970632,105.106313 C70.2970632,105.106313 67.4150829,97.8739278 61.3271283,97.960152" id="Fill-83" fill="#215ECF"></path>
                            <path d="M54.3714442,125.627423 C54.901854,125.572554 55.3094595,125.081337 55.2049453,124.503895 C55.1265596,124.067548 54.7320184,123.761844 54.2904457,123.738329 C52.3281908,123.631201 49.3129549,122.262065 48.3409724,120.639481 C47.9594955,120.001944 47.9203026,119.408826 48.2207811,118.776515 C49.3443092,116.417106 50.8623785,115.557476 53.3785589,114.130857 C54.1179972,113.710187 54.956724,113.23726 55.8607722,112.675496 C60.0465676,110.078317 66.8922504,106.935051 70.1034505,106.148582 C70.9369516,105.944779 71.8331612,106.06497 72.5386324,106.548349 C72.8208208,106.739087 73.0063336,106.955954 73.053365,107.264271 C73.3381663,109.077593 72.0761568,114.065535 72.4863752,114.392142 C72.8939808,114.716137 73.1108478,114.781458 73.4374548,114.37124 C73.5341305,114.251048 75.0469742,108.340768 74.7308186,106.916761 C74.487823,105.837652 73.669999,104.946668 72.2877982,104.267325 C69.3979794,102.843319 56.5871462,109.999931 54.8626612,111.06859 C53.9899672,111.609451 53.2061104,112.056249 52.4483822,112.484758 C49.9008475,113.924441 47.8941741,115.063646 46.5119732,117.963917 C45.9397577,119.171056 46.0129177,120.430453 46.7183888,121.611464 C48.1920396,124.067548 52.0277123,125.525522 54.23035,125.630036 C54.2799943,125.632649 54.3244128,125.632649 54.3714442,125.627423" id="Fill-85" fill="#1E4080"></path>
                            <path d="M64.0013865,106.931655 C64.0013865,106.931655 63.4892667,105.711451 63.9439037,104.415474 C64.7199219,102.199772 64.0013865,100.530157 65.7729029,99.8168475 C67.9964434,98.9258636 70.6876851,103.45133 71.0952907,104.491247 C71.5002834,105.536389 65.3052017,107.566579 64.0013865,106.931655" id="Fill-87" fill="#2550A0"></path>
                            <path d="M37.8649874,356.482401 C31.228333,363.270601 19.8728606,363.26015 12.3060294,362.301231 C8.99815368,369.779225 6.98364166,376.193787 7.66298424,379.943235 C8.4677439,384.361575 20.8788102,391.356191 24.657,388.591789 C35.3174527,380.792414 43.1116023,366.831924 51.1931661,356.095698 C60.5628679,343.642826 67.985992,332.041745 69.7862498,326.980643 C76.1224257,309.166191 76.9271854,265.053342 81.8236776,258.761584 C79.1428873,261.46589 65.8643529,275.48125 66.298087,287.482098 C66.7788525,300.820728 48.4679572,345.639048 37.8649874,356.482401" id="Fill-89" fill="#930C3A"></path>
                            <path d="M135.311454,139.301544 C135.282713,137.117197 135.199101,135.021686 135.063233,133.072496 C126.184748,130.378641 115.153269,131.418558 110.005943,132.147544 C109.483372,134.130702 108.958188,136.184407 108.438229,138.256402 C113.535912,137.284419 126.952927,135.873477 135.311454,139.301544" id="Fill-91" fill="#FFFFFF"></path>
                            <path d="M123.88256,137.186176 C127.932487,137.356012 132.013768,137.94913 135.311193,139.302589 C135.295516,138.233931 135.269387,137.188789 135.230194,136.167162 C135.227581,136.135808 135.227581,136.099228 135.224968,136.062648 C135.183163,135.035796 135.130906,134.037685 135.062971,133.073541 C131.509487,131.994431 127.616332,131.518891 123.887786,131.377797 C123.88256,133.279956 123.88256,135.229147 123.88256,137.186176" id="Fill-93" fill="#EDE8E8"></path>
                            <path d="M129.325139,42.9347099 C121.682535,43.8256938 112.660344,42.7021657 107.196862,41.6570233 C107.029639,43.5461182 106.865029,45.4848574 106.708257,47.4418866 C110.381933,48.1133906 116.624046,49.0409545 123.203218,49.0409545 C125.314405,49.0409545 127.449109,48.9312146 129.549845,48.7012832 C129.492362,46.7076741 129.416589,44.784612 129.325139,42.9347099" id="Fill-95" fill="#FFFFFF"></path>
                            <path d="M46.7829264,362.23382 C48.2539643,360.117406 49.7197766,358.050637 51.1908145,356.093608 C51.4259716,355.780065 51.6559029,355.471748 51.8884471,355.160818 C40.6949718,353.718522 29.9509077,349.754819 20.8268143,345.292061 C19.5726434,347.601826 18.3472139,349.914203 17.1740416,352.19784 C25.8617879,356.464633 36.0048952,360.33166 46.7829264,362.23382" id="Fill-97" fill="#FFFFFF"></path>
                            <path d="M40.7942603,352.90514 C39.7726336,354.321308 38.7875868,355.538899 37.8652487,356.48214 C36.8279448,357.540346 35.6652239,358.418266 34.4293429,359.168156 C38.4191741,360.430165 42.5500996,361.485759 46.7829264,362.233036 C47.4230761,361.31331 48.0632258,360.404037 48.7033756,359.507827 C48.8601469,359.285734 49.0195312,359.063641 49.1763025,358.844162 C49.8478065,357.911372 50.5193105,356.986421 51.1908145,356.095437 C51.4259716,355.781894 51.6559029,355.470964 51.8884471,355.160034 C48.1233215,354.676656 44.4156788,353.884961 40.7942603,352.90514" id="Fill-99" fill="#EDE8E8"></path>
                            <path d="M92.015384,350.891934 C91.4980385,353.462984 91.0120472,356.031422 90.5600231,358.568505 C96.7942977,360.627436 105.928842,362.926749 115.63299,362.926749 C118.232782,362.926749 120.871766,362.754301 123.505525,362.375436 C124.339026,359.68942 125.141173,356.911954 125.901514,354.074393 C113.500899,357.003404 99.7938564,353.54137 92.015384,350.891934" id="Fill-101" fill="#FFFFFF"></path>
                            <path d="M109.0094,354.793189 C107.426009,357.238823 105.696298,359.611296 103.885589,361.881868 C107.590619,362.506341 111.554322,362.92701 115.63299,362.92701 C118.232782,362.92701 120.871766,362.754562 123.505525,362.373085 C123.920969,361.037915 124.325962,359.676617 124.725729,358.297029 C124.728342,358.286578 124.733567,358.276127 124.73618,358.263062 C125.133334,356.8887 125.520037,355.490822 125.901514,354.082493 L125.901514,354.074654 C120.312615,355.391534 114.465043,355.409824 109.0094,354.793189" id="Fill-103" fill="#EDE8E8"></path>
                        </g>
                        <path d="M463.308202,627.015734 C453.16021,628.681388 449.316827,632.344045 447.865288,635.021561 C450.764714,623.554381 458.086314,584.599457 424.151339,583.263371 C384.340827,581.695697 384.992651,609.733907 384.992651,609.733907 C384.992651,609.733907 372.593403,594.812499 360.845979,601.587345 C349.098555,608.360411 347.14126,625.072174 347.14126,625.072174 C347.14126,625.072174 328.868301,595.001332 294.931501,601.587345 C269.316858,606.555804 260.494422,619.540778 256.976037,634.640331 C255.529976,640.841552 261.529671,646.56 269.400846,646.56 L465.028139,646.56 C476.627671,646.56 482.364445,634.816695 473.425156,628.896943 C470.854379,627.193879 467.549618,626.319188 463.308202,627.015734" id="Fill-155" fill="#FFCACA"></path>
                        <path d="M477.721707,636.306053 C472.853851,637.951597 465.975677,639.547885 460.286166,639.188492 C450.884595,638.595585 445.461665,639.188492 442.569436,631.77442 C439.677207,624.356699 444.01555,600.031099 427.743109,595.284196 C411.472494,590.537292 403.517037,617.236344 395.924936,619.609796 C388.331008,621.983247 385.07725,615.753165 372.060393,611.303627 C359.043535,606.852264 355.06672,631.477054 351.811136,632.662868 C348.557378,633.848682 330.47912,622.577979 311.675978,615.557961 C292.874662,608.537944 283.83462,635.926592 270.456233,635.333685 C263.864726,635.041793 261.138654,630.643336 260.065024,626.25765 C258.721159,629.298806 257.726043,632.496854 256.975597,635.79524 C255.531308,642.143905 261.529397,648 269.402688,648 L465.037164,648 C473.24642,648 478.512322,641.976066 477.721707,636.306053" id="Fill-156" fill="#FF8F8F"></path>
                    </g>
                </g>
            </g>
        </g>
    </g>
</svg>