<?xml version="1.0" encoding="UTF-8"?>
<svg width="363px" height="240px" viewBox="0 0 363 240" version="1.1" xmlns="http://www.w3.org/2000/svg" xmlns:xlink="http://www.w3.org/1999/xlink">
    <!-- Generator: Sketch 57.1 (83088) - https://sketch.com -->
    <title>Illustration</title>
    <desc>Created with Sketch.</desc>
    <defs>
        <polygon id="path-1" points="0.00234079287 0.169454213 12.6565653 0.169454213 12.6565653 10.7759747 0.00234079287 10.7759747"></polygon>
        <polygon id="path-3" points="0.432334267 0.532755153 11.6388293 0.532755153 11.6388293 9.46549309 0.432334267 9.46549309"></polygon>
        <polygon id="path-5" points="0.159538664 0.287906337 14.8919312 0.287906337 14.8919312 8.51372308 0.159538664 8.51372308"></polygon>
        <polygon id="path-7" points="0.0158553869 0.18381373 4.88956931 0.18381373 4.88956931 7.97633877 0.0158553869 7.97633877"></polygon>
    </defs>
    <g id="Our-Story" stroke="none" stroke-width="1" fill="none" fill-rule="evenodd">
        <g transform="translate(-572.000000, -201.000000)" id="Hero">
            <g transform="translate(-0.230400, 0.000000)">
                <g id="Illustration" transform="translate(570.230400, 201.000000)">
                    <g id="Group-10" transform="translate(0.512000, 0.144000)">
                        <g id="Group-198" transform="translate(184.398400, 77.500000) scale(-1, 1) translate(-184.398400, -77.500000) translate(4.398400, 0.000000)">
                            <path d="M95.0268008,131.690164 C95.0268008,119.941644 89.5156282,110.27647 82.4484677,109.092735 L71.5727674,108.969355 L71.5727674,154.410267 L82.4484677,154.287593 C89.5156282,153.103153 95.0268008,143.438684 95.0268008,131.690164" id="Fill-128" fill="#0E244C"></path>
                            <polygon id="Fill-90" fill="#930C3A" points="87.6542239 82.0196721 173.777136 82.0196721 173.777136 41.9045115 87.6542239 41.9045115"></polygon>
                            <polygon id="Fill-92" fill="#0E244C" points="21.6851282 131.690023 107.434377 131.690023 107.434377 98.3296973 21.6851282 98.3296973"></polygon>
                            <polygon id="Fill-93" fill="#0E244C" points="153.20383 131.690023 220.755705 131.690023 220.755705 94.9265464 153.20383 94.9265464"></polygon>
                            <polygon id="Fill-95" fill="#FFFFFF" points="269.792944 7.80835231 274.979806 2.62149074 302.610401 30.2520863 297.42354 35.4382429"></polygon>
                            <path d="M65.2956568,131.690164 C65.2956568,119.941644 59.7844841,110.27647 52.7173236,109.092735 L41.8416233,108.969355 L41.8416233,154.410267 L52.7173236,154.287593 C59.7844841,153.103153 65.2956568,143.438684 65.2956568,131.690164" id="Fill-124" fill="#0E244C"></path>
                            <path d="M55.8832338,131.690164 C55.8832338,144.238181 49.5965348,154.410267 41.8412708,154.410267 C34.0867119,154.410267 27.8000129,144.238181 27.8000129,131.690164 C27.8000129,119.142147 34.0867119,108.969355 41.8412708,108.969355 C49.5965348,108.969355 55.8832338,119.142147 55.8832338,131.690164" id="Fill-125" fill="#2550A0"></path>
                            <path d="M117.865066,69.6983201 L76.3454979,69.6983201 L48.8002102,69.6983201 L38.0478892,69.6983201 L8.3311276,69.6983201 C3.73014098,69.6983201 -0.0001410048,73.4286021 -0.0001410048,78.0288837 L-0.0001410048,128.800482 C-0.0001410048,133.401469 3.73014098,137.131046 8.3311276,137.131046 L24.646793,137.131046 C28.5342953,137.131046 31.9057201,134.442789 32.7693745,130.651875 L37.7792751,112.209857 C38.6429295,108.418943 42.0136492,105.729982 45.9018566,105.729982 L76.3715838,105.729982 C80.166023,105.729982 83.4810458,108.294154 84.4349433,111.966624 L90.1914642,130.599703 C91.1446567,134.272878 94.4596795,136.837051 98.2548237,136.837051 L155.970203,136.837051 C160.57119,136.837051 164.300767,133.106769 164.300767,128.505782 L164.300767,111.598601 C164.300767,106.997615 168.031049,103.267333 172.632036,103.267333 L177.200591,103.267333 C181.801578,103.267333 185.53186,99.5377559 185.53186,94.9367693 L185.53186,78.0288837 C185.53186,73.4286021 181.801578,69.6983201 177.200591,69.6983201 L117.865066,69.6983201 Z" id="Fill-94" fill="#930C3A"></path>
                            <polygon id="Fill-96" fill="#FFFFFF" points="268.804218 31.2407415 273.99108 36.426898 303.599268 6.81941514 298.412406 1.63255357"></polygon>
                            <polygon id="Fill-97" fill="#FFFFFF" points="241.054262 7.80835231 246.240419 2.62149074 273.871014 30.2520863 268.684153 35.4382429"></polygon>
                            <polygon id="Fill-98" fill="#FFFFFF" points="240.065537 31.2407415 245.251693 36.426898 274.860586 6.81941514 269.67302 1.63255357"></polygon>
                            <polygon id="Fill-99" fill="#FFFFFF" points="212.314875 7.80835231 217.501737 2.62149074 245.132333 30.2520863 239.944766 35.4382429"></polygon>
                            <polygon id="Fill-100" fill="#FFFFFF" points="211.32622 31.2407415 216.513082 36.426898 246.12127 6.81941514 240.933703 1.63255357"></polygon>
                            <polygon id="Fill-101" fill="#FFFFFF" points="183.575841 7.80835231 188.762703 2.62149074 216.392593 30.2520863 211.205732 35.4382429"></polygon>
                            <polygon id="Fill-102" fill="#FFFFFF" points="182.586834 31.2407415 187.773695 36.426898 217.381883 6.81941514 212.195021 1.63255357"></polygon>
                            <polygon id="Fill-103" fill="#FFFFFF" points="154.836454 7.80835231 160.023316 2.62149074 187.653912 30.2520863 182.46705 35.4382429"></polygon>
                            <polygon id="Fill-104" fill="#FFFFFF" points="153.847799 31.2407415 159.034661 36.426898 188.642849 6.81941514 183.455987 1.63255357"></polygon>
                            <polygon id="Fill-105" fill="#FFFFFF" points="126.097491 7.80835231 131.284352 2.62149074 158.914243 30.2520863 153.727381 35.4382429"></polygon>
                            <polygon id="Fill-106" fill="#FFFFFF" points="125.108765 31.2407415 130.294921 36.426898 159.903814 6.81941514 154.716953 1.63255357"></polygon>
                            <polygon id="Fill-107" fill="#FFFFFF" points="97.3584562 7.80835231 102.545318 2.62149074 130.175208 30.2520863 124.988347 35.4382429"></polygon>
                            <polygon id="Fill-108" fill="#FFFFFF" points="96.369378 31.2407415 101.55624 36.426898 131.164428 6.81941514 125.977566 1.63255357"></polygon>
                            <polygon id="Fill-109" fill="#2550A0" points="80.8514473 38.0593106 310.017383 38.0593106 310.017383 28.464639 80.8514473 28.464639"></polygon>
                            <polygon id="Fill-110" fill="#FFFFFF" points="80.8514473 9.59467162 310.017383 9.59467162 310.017383 0 80.8514473 0"></polygon>
                            <polygon id="Fill-111" fill="#2550A0" points="323.952888 38.0593106 359.246389 38.0593106 359.246389 0 323.952888 0"></polygon>
                            <polygon id="Fill-112" fill="#FFFFFF" points="303.688383 38.0593106 338.981884 38.0593106 338.981884 0 303.688383 0"></polygon>
                            <polygon id="Fill-113" fill="#FFFFFF" points="73.1610455 38.0593106 87.8177894 38.0593106 87.8177894 0 73.1610455 0"></polygon>
                            <polygon id="Fill-114" fill="#0E244C" points="230.422994 37.5086868 239.775137 37.5086868 239.775137 31.4560558 230.422994 31.4560558"></polygon>
                            <polygon id="Fill-115" fill="#930C3A" points="239.603816 37.5086868 248.95596 37.5086868 248.95596 31.4560558 239.603816 31.4560558"></polygon>
                            <polygon id="Fill-116" fill="#0E244C" points="270.799013 37.5086868 280.151157 37.5086868 280.151157 31.4560558 270.799013 31.4560558"></polygon>
                            <polygon id="Fill-117" fill="#930C3A" points="279.980541 37.5086868 289.332684 37.5086868 289.332684 31.4560558 279.980541 31.4560558"></polygon>
                            <polygon id="Fill-118" fill="#BA104A" points="105.251623 124.153316 151.081003 124.153316 151.081003 82.0196721 105.251623 82.0196721"></polygon>
                            <path d="M159.47664,41.9042295 L146.226419,136.836416 L155.969851,136.836416 C160.571543,136.836416 164.30112,133.106839 164.30112,128.505853 L164.30112,111.598672 C164.30112,106.99698 168.030696,103.267403 172.631683,103.267403 L173.690629,103.267403 C174.267339,100.338734 174.74887,98.1023975 175.054851,97.0638972 C176.441633,92.3613871 170.340355,51.9606918 168.788597,41.9042295 L159.47664,41.9042295 Z" id="Fill-119" fill="#0E244C"></path>
                            <path d="M216.895839,131.690164 C216.895839,119.941644 210.558379,110.27647 202.430862,109.092735 L189.924441,108.969355 L189.924441,154.410267 L202.430862,154.287593 C210.558379,153.103153 216.895839,143.438684 216.895839,131.690164" id="Fill-120" fill="#0E244C"></path>
                            <path d="M206.071535,131.690164 C206.071535,144.238181 198.842219,154.410267 189.924371,154.410267 C181.006522,154.410267 173.777206,144.238181 173.777206,131.690164 C173.777206,119.142147 181.006522,108.969355 189.924371,108.969355 C198.842219,108.969355 206.071535,119.142147 206.071535,131.690164" id="Fill-121" fill="#2550A0"></path>
                            <path d="M198.039197,131.690164 C198.039197,138.813021 194.406208,144.586463 189.924371,144.586463 C185.442533,144.586463 181.809545,138.813021 181.809545,131.690164 C181.809545,124.567306 185.442533,118.793865 189.924371,118.793865 C194.406208,118.793865 198.039197,124.567306 198.039197,131.690164" id="Fill-122" fill="#FFFFFF"></path>
                            <path d="M189.924512,118.793865 C189.278005,118.793865 188.651238,118.917244 188.049148,119.143557 C191.625735,120.489448 194.287905,125.594526 194.287905,131.690164 C194.287905,137.785801 191.625735,142.89088 188.049148,144.236066 C188.651238,144.462379 189.278005,144.586463 189.924512,144.586463 C194.405644,144.586463 198.039338,138.813021 198.039338,131.690164 C198.039338,124.567306 194.405644,118.793865 189.924512,118.793865" id="Fill-123" fill="#FFE6E6"></path>
                            <path d="M48.8983496,131.690164 C48.8983496,138.813021 45.739137,144.586463 41.8417644,144.586463 C37.9443917,144.586463 34.7851791,138.813021 34.7851791,131.690164 C34.7851791,124.567306 37.9443917,118.793865 41.8417644,118.793865 C45.739137,118.793865 48.8983496,124.567306 48.8983496,131.690164" id="Fill-126" fill="#FFFFFF"></path>
                            <path d="M41.8415528,118.793865 C41.2803537,118.793865 40.7346652,118.917244 40.2108323,119.143557 C43.3213982,120.489448 45.635992,125.594526 45.635992,131.690164 C45.635992,137.785801 43.3213982,142.89088 40.2108323,144.236066 C40.7346652,144.462379 41.2803537,144.586463 41.8415528,144.586463 C45.7389255,144.586463 48.8981381,138.813021 48.8981381,131.690164 C48.8981381,124.567306 45.7389255,118.793865 41.8415528,118.793865" id="Fill-127" fill="#FFE6E6"></path>
                            <path d="M85.6140254,131.690164 C85.6140254,144.238181 79.3273264,154.410267 71.5727674,154.410267 C63.8175034,154.410267 57.5308044,144.238181 57.5308044,131.690164 C57.5308044,119.142147 63.8175034,108.969355 71.5727674,108.969355 C79.3273264,108.969355 85.6140254,119.142147 85.6140254,131.690164" id="Fill-129" fill="#2550A0"></path>
                            <path d="M78.6291411,131.690164 C78.6291411,138.813021 75.4699286,144.586463 71.5725559,144.586463 C67.6751833,144.586463 64.5159707,138.813021 64.5159707,131.690164 C64.5159707,124.567306 67.6751833,118.793865 71.5725559,118.793865 C75.4699286,118.793865 78.6291411,124.567306 78.6291411,131.690164" id="Fill-130" fill="#FFFFFF"></path>
                            <path d="M71.5727674,118.793865 C71.0108633,118.793865 70.4658798,118.917244 69.9420469,119.143557 C73.0526128,120.489448 75.3672066,125.594526 75.3672066,131.690164 C75.3672066,137.785801 73.0526128,142.89088 69.9420469,144.236066 C70.4658798,144.462379 71.0108633,144.586463 71.5727674,144.586463 C75.4701401,144.586463 78.6293527,138.813021 78.6293527,131.690164 C78.6293527,124.567306 75.4701401,118.793865 71.5727674,118.793865" id="Fill-131" fill="#FFE6E6"></path>
                            <polygon id="Fill-132" fill="#0E244C" points="216.895698 124.153316 306.413301 124.153316 306.413301 114.963329 216.895698 114.963329"></polygon>
                            <path d="M220.755916,37.0351927 L167.123331,37.0351927 C164.15659,37.0351927 161.751753,39.4400296 161.751753,42.4067706 L161.751753,116.85237 C161.751753,117.996624 162.679564,118.924435 163.823818,118.924435 L170.685817,118.924435 C171.791295,118.924435 172.695135,118.057961 172.755767,116.953893 C172.992655,112.595435 175.271293,102.476225 191.253482,101.919256 C194.770142,101.796582 200.723364,103.50133 202.617764,106.183242 C204.902747,109.419302 208.504009,111.470217 212.465539,111.470217 L220.755916,111.470217 L220.755916,37.0351927 Z" id="Fill-133" fill="#930C3A"></path>
                            <path d="M170.686099,122.508989 L164.324667,122.508989 C162.34496,122.508989 160.740325,120.904354 160.740325,118.924647 C160.740325,116.944939 162.34496,115.340305 164.324667,115.340305 L169.308482,115.340305 C169.9846,110.143573 173.501965,98.9513169 191.128975,98.337241 C195.362644,98.189891 202.720979,100.116017 205.545306,104.115618 C207.237363,106.511994 209.759234,107.886086 212.465116,107.886086 C214.444824,107.886086 216.049458,109.490721 216.049458,111.470428 C216.049458,113.44943 214.444824,115.05477 212.465116,115.05477 C207.474251,115.05477 202.698419,112.511044 199.690081,108.250584 C198.851103,107.064028 194.649865,105.49676 191.659858,105.49676 C191.563975,105.49676 191.470206,105.49817 191.378553,105.501695 C179.445317,105.917659 176.611121,112.065468 176.334046,117.148691 C176.170481,120.154209 173.690206,122.508989 170.686099,122.508989" id="Fill-134" fill="#2550A0"></path>
                            <path d="M302.674981,118.924647 L216.941948,118.924647 C212.512987,118.924647 209.001968,115.18802 209.276927,110.767519 L210.585452,89.7465236 C211.074033,81.9094768 211.074033,74.0505743 210.585452,66.2128225 L209.276927,45.1925319 C209.001968,40.7713264 212.512987,37.0354042 216.941948,37.0354042 L302.674981,37.0354042 C306.730985,37.0354042 310.088309,40.1896816 310.340002,44.2379294 L311.708454,66.2128225 C312.195626,74.0505743 312.195626,81.9094768 311.708454,89.7465236 L310.340002,111.721417 C310.088309,115.769664 306.730985,118.924647 302.674981,118.924647" id="Fill-135" fill="#BA104A"></path>
                            <path d="M210.585734,66.2131045 C211.009453,73.0201112 211.064445,79.8440385 210.752119,86.6552754 L311.874417,86.6552754 C312.186742,79.8440385 312.13175,73.0201112 311.708031,66.2131045 L310.783745,51.363184 L209.661447,51.363184 L210.585734,66.2131045 Z" id="Fill-136" fill="#0E244C"></path>
                            <path d="M310.287055,85.000866 L269.60435,85.000866 L269.60435,68.7627533 C269.60435,67.4281428 269.503532,66.0829571 269.30542,64.7638572 L267.536515,53.0174523 L309.228814,53.0174523 L310.057217,66.315615 C310.44216,72.5050207 310.519008,78.7832594 310.287055,85.000866 L310.287055,85.000866 Z M212.476255,85.000866 C212.706798,78.713462 212.626426,72.367541 212.237252,66.110453 L211.422245,53.0174523 L266.142682,53.0174523 L267.941904,64.9690191 C268.130145,66.2204367 268.226028,67.4965302 268.226028,68.7627533 L268.226028,85.000866 L212.476255,85.000866 Z M311.708383,66.2133865 L310.783392,51.362761 L267.287641,51.362761 L265.893809,51.362761 L209.661095,51.362761 L210.585381,66.2133865 C211.009806,73.0203932 211.064092,79.8443205 210.751767,86.6555574 L268.226028,86.6555574 L269.60435,86.6555574 L311.874064,86.6555574 C312.18639,79.8443205 312.131398,73.0203932 311.708383,66.2133865 L311.708383,66.2133865 Z" id="Fill-137" fill="#FFF0F0"></path>
                            <polygon id="Fill-138" fill="#2550A0" points="216.757796 69.6983201 214.138632 55.2234724 238.264553 55.2234724"></polygon>
                            <polygon id="Fill-139" fill="#2550A0" points="270.799507 55.2232609 273.694335 68.0448273 287.756039 55.2232609"></polygon>
                            <path d="M310.134206,132.49227 C309.687221,131.981832 309.481354,131.304304 309.568777,130.632416 L310.225859,125.563294 C310.487423,123.54904 308.91804,121.76392 306.88757,121.76392 L257.044489,121.76392 L217.969944,121.76392 C215.938769,121.76392 214.370091,123.54904 214.63095,125.563294 L215.288032,130.632416 C215.375455,131.304304 215.169588,131.981832 214.723308,132.49227 C214.34612,132.923039 214.138138,133.476483 214.138138,134.048258 L214.138138,147.416218 C214.138138,148.721217 215.196379,149.779458 216.501379,149.779458 L257.044489,149.779458 L308.356135,149.779458 C309.66043,149.779458 310.718671,148.721217 310.718671,147.416218 L310.718671,134.048258 C310.718671,133.476483 310.510689,132.923039 310.134206,132.49227" id="Fill-140" fill="#BA104A"></path>
                            <path d="M230.31435,103.008589 L230.31435,103.008589 C230.31435,105.894252 232.652914,108.232817 235.538578,108.232817 L240.568924,108.232817 C242.930049,108.232817 244.99718,109.816301 245.61196,112.096348 L246.893694,116.843275 C247.508475,119.122618 249.575605,120.706807 251.936731,120.706807 L267.536797,120.706807 L283.136863,120.706807 C285.497283,120.706807 287.565119,119.122618 288.1799,116.843275 L289.461633,112.096348 C290.076414,109.816301 292.143544,108.232817 294.50467,108.232817 L299.535016,108.232817 C302.419974,108.232817 304.759244,105.894252 304.759244,103.008589 C304.759244,100.123631 302.419974,97.7843612 299.535016,97.7843612 L235.538578,97.7843612 C232.652914,97.7843612 230.31435,100.123631 230.31435,103.008589" id="Fill-141" fill="#0E244C"></path>
                            <path d="M267.536726,104.079239 C264.840715,104.079239 262.645975,106.273273 262.645975,108.96999 C262.645975,111.666707 264.840715,113.860036 267.536726,113.860036 C270.233443,113.860036 272.427478,111.666707 272.427478,108.96999 C272.427478,106.273273 270.233443,104.079239 267.536726,104.079239 M267.536726,115.514023 C263.928413,115.514023 260.992694,112.578303 260.992694,108.96999 C260.992694,105.360972 263.928413,102.425252 267.536726,102.425252 C271.145039,102.425252 274.081464,105.360972 274.081464,108.96999 C274.081464,112.578303 271.145039,115.514023 267.536726,115.514023" id="Fill-142" fill="#930C3A"></path>
                            <path d="M254.305823,111.910927 L253.378716,111.910927 C252.31554,111.910927 251.452591,111.047978 251.452591,109.984802 L251.452591,107.955037 C251.452591,106.891156 252.31554,106.028207 253.378716,106.028207 L254.305823,106.028207 C255.369704,106.028207 256.231948,106.891156 256.231948,107.955037 L256.231948,109.984802 C256.231948,111.047978 255.369704,111.910927 254.305823,111.910927" id="Fill-143" fill="#930C3A"></path>
                            <path d="M280.76763,111.910927 L281.694736,111.910927 C282.757912,111.910927 283.620862,111.047978 283.620862,109.984802 L283.620862,107.955037 C283.620862,106.891156 282.757912,106.028207 281.694736,106.028207 L280.76763,106.028207 C279.703749,106.028207 278.841504,106.891156 278.841504,107.955037 L278.841504,109.984802 C278.841504,111.047978 279.703749,111.910927 280.76763,111.910927" id="Fill-144" fill="#2550A0"></path>
                            <path d="M295.292182,134.373908 L257.189865,134.373908 L235.269963,134.373908 C234.87233,134.373908 234.645312,134.828649 234.88361,135.146615 C237.122766,138.131686 240.637311,139.888606 244.369003,139.888606 L257.189865,139.888606 L286.193847,139.888606 C289.925539,139.888606 293.439379,138.131686 295.678535,135.146615 C295.917538,134.828649 295.689815,134.373908 295.292182,134.373908" id="Fill-145" fill="#0E244C"></path>
                            <path d="M277.045597,127.205224 L253.516831,127.205224 C252.75893,127.205224 252.138509,127.825645 252.138509,128.584251 L252.138509,133.914938 C252.138509,134.672838 252.75893,135.29326 253.516831,135.29326 L277.045597,135.29326 C277.803497,135.29326 278.423918,134.672838 278.423918,133.914938 L278.423918,128.584251 C278.423918,127.825645 277.803497,127.205224 277.045597,127.205224" id="Fill-146" fill="#0E244C"></path>
                            <polygon id="Fill-147" fill="#BA104A" points="34.7851791 86.6552049 92.7656479 86.6552049 92.7656479 82.0196721 34.7851791 82.0196721"></polygon>
                            <polygon id="Fill-148" fill="#2550A0" points="12.1997353 103.415035 25.4337408 103.415035 25.4337408 69.6986726 12.1997353 69.6986726"></polygon>
                            <polygon id="Fill-149" fill="#BA104A" points="141.645173 62.4607553 57.5308749 62.4607553 57.5308749 33.4264569 127.998024 33.4264569 141.645173 47.9436061"></polygon>
                            <polygon id="Fill-150" fill="#930C3A" points="125.349742 39.5502248 63.6545019 39.5502248 63.6545019 56.3375513 135.521828 56.3375513 135.521828 50.3702282"></polygon>
                            <path d="M181.32759,55.2232609 L167.265886,55.2232609 C166.507281,55.2232609 165.887565,55.843682 165.887565,56.6015828 L165.887565,80.6414911 C165.887565,81.3993919 166.507281,82.0198131 167.265886,82.0198131 L181.32759,82.0198131 C182.086196,82.0198131 182.706617,81.3993919 182.706617,80.6414911 L182.706617,56.6015828 C182.706617,55.843682 182.086196,55.2232609 181.32759,55.2232609" id="Fill-151" fill="#0E244C"></path>
                            <path d="M167.265957,56.0501835 C166.967027,56.0501835 166.714628,56.3025821 166.714628,56.6015123 L166.714628,80.6414206 C166.714628,80.9403508 166.967027,81.1927494 167.265957,81.1927494 L181.327661,81.1927494 C181.626591,81.1927494 181.878989,80.9403508 181.878989,80.6414206 L181.878989,56.6015123 C181.878989,56.3025821 181.626591,56.0501835 181.327661,56.0501835 L167.265957,56.0501835 Z M181.327661,82.8474407 L167.265957,82.8474407 C166.049791,82.8474407 165.059937,81.857587 165.059937,80.6414206 L165.059937,56.6015123 C165.059937,55.3860509 166.049791,54.3954922 167.265957,54.3954922 L181.327661,54.3954922 C182.543827,54.3954922 183.533681,55.3860509 183.533681,56.6015123 L183.533681,80.6414206 C183.533681,81.857587 182.543827,82.8474407 181.327661,82.8474407 L181.327661,82.8474407 Z" id="Fill-152" fill="#FFF0F0"></path>
                            <path d="M202.465549,55.2232609 L188.403846,55.2232609 C187.64524,55.2232609 187.025524,55.843682 187.025524,56.6015828 L187.025524,80.6414911 C187.025524,81.3993919 187.64524,82.0198131 188.403846,82.0198131 L202.465549,82.0198131 C203.224155,82.0198131 203.844576,81.3993919 203.844576,80.6414911 L203.844576,56.6015828 C203.844576,55.843682 203.224155,55.2232609 202.465549,55.2232609" id="Fill-153" fill="#0E244C"></path>
                            <path d="M188.403634,56.0501835 C188.104704,56.0501835 187.852305,56.3025821 187.852305,56.6015123 L187.852305,80.6414206 C187.852305,80.9403508 188.104704,81.1927494 188.403634,81.1927494 L202.465338,81.1927494 C202.764268,81.1927494 203.017371,80.9403508 203.017371,80.6414206 L203.017371,56.6015123 C203.017371,56.3025821 202.764268,56.0501835 202.465338,56.0501835 L188.403634,56.0501835 Z M202.465338,82.8474407 L188.403634,82.8474407 C187.187468,82.8474407 186.198319,81.857587 186.198319,80.6414206 L186.198319,56.6015123 C186.198319,55.3860509 187.187468,54.3954922 188.403634,54.3954922 L202.465338,54.3954922 C203.681504,54.3954922 204.671358,55.3860509 204.671358,56.6015123 L204.671358,80.6414206 C204.671358,81.857587 203.681504,82.8474407 202.465338,82.8474407 L202.465338,82.8474407 Z" id="Fill-154" fill="#FFF0F0"></path>
                            <path d="M213.182408,107.014958 L214.13842,89.3710278 L245.730546,89.3710278 C245.730546,89.3710278 216.183695,99.157466 213.182408,107.014958" id="Fill-155" fill="#D9205F"></path>
                            <path d="M165.060007,86.6553459 L165.060007,108.969355 C165.060007,108.969355 170.812298,97.3851061 185.064358,93.9185031 L185.064358,86.6553459 L165.060007,86.6553459 Z" id="Fill-156" fill="#BA104A"></path>
                            <path d="M289.590723,129.250781 L289.590723,128.311689 C289.590723,127.517832 290.165318,126.841009 290.949304,126.711989 L301.890572,124.912768 C302.87831,124.749908 303.775101,125.512039 303.775101,126.512468 L303.775101,129.250781 C303.775101,130.146866 303.049631,130.872336 302.153546,130.872336 L291.212278,130.872336 C290.316193,130.872336 289.590723,130.146866 289.590723,129.250781" id="Fill-157" fill="#FFFFFF"></path>
                            <path d="M240.385688,129.250781 L240.385688,128.311689 C240.385688,127.517832 239.811094,126.841009 239.027107,126.711989 L228.085134,124.912768 C227.098101,124.749908 226.20131,125.512039 226.20131,126.512468 L226.20131,129.250781 C226.20131,130.146866 226.92678,130.872336 227.82216,130.872336 L238.764133,130.872336 C239.660218,130.872336 240.385688,130.146866 240.385688,129.250781" id="Fill-158" fill="#FFFFFF"></path>
                        </g>
                        <g id="Group-105" transform="translate(36.539200, 160.888800) scale(-1, 1) translate(-36.539200, -160.888800) translate(0.539200, 81.388800)">
                            <path d="M28.9941801,47.7816166 C28.9941801,47.7816166 38.0550839,37.2585345 39.9663922,32.3209524 C41.3098038,28.8508335 41.6833129,8.02808923 43.3432404,7.22885495 C45.0021501,6.43063621 48.8970259,6.29963085 49.505632,8.1814366 C49.8669283,9.29650552 51.9553227,25.6731917 48.7087447,38.1268258 C46.8269508,45.3473541 38.9781705,57.4628115 36.2221414,58.4661705 C33.4661122,59.4685138 28.9941801,47.7816166 28.9941801,47.7816166" id="Fill-1" fill="#930C3A"></path>
                            <path d="M46.1227793,34.5834861 C46.1227793,34.5834861 51.3895632,42.9424409 53.9898788,43.5324728 C56.5922298,44.1225047 51.6287312,47.021887 49.4986097,45.7981547 C47.3705236,44.5734069 41.9470083,36.6887119 41.9470083,36.6887119 L46.1227793,34.5834861 Z" id="Fill-3" fill="#EAE9FF"></path>
                            <path d="M44.8297456,25.386097 C49.9143548,21.7413044 53.7522374,16.1517421 56.2151586,12.4165659 L67.4743723,34.4711668 C67.4743723,34.4711668 58.9874716,33.3672689 49.4227883,35.2886809 C48.0997315,34.5737369 46.6769365,33.3632067 45.8525703,31.438748 C44.7696992,28.914102 44.6954045,26.7631767 44.8297456,25.386097" id="Fill-5" fill="#EAE9FF"></path>
                            <path d="M63.6916511,27.0621533 L67.4745759,34.471573 C67.4745759,34.471573 58.9876751,33.3676751 49.4219741,35.2890871 C48.4011849,34.7366304 47.3203492,33.8866188 46.500054,32.6415601 C50.8549465,31.5305533 55.1151895,30.5982826 57.2748254,29.9320848 C59.2614461,29.3207264 61.6775515,28.1437092 63.6916511,27.0621533" id="Fill-7" fill="#C6C0FF"></path>
                            <path d="M38.5314862,29.1854557 C39.8901638,28.4491853 41.7414256,27.3970802 43.7422947,26.1215551 C44.1107151,25.8869641 44.4730291,25.6412021 44.8292368,25.3863002 C44.6959133,26.7633798 44.7702081,28.9132896 45.8520615,31.4389511 C46.6774454,33.3634098 48.0992226,34.57394 49.4222795,35.288884 C49.11187,35.3508323 48.799425,35.4168427 48.4849446,35.4858998 C46.4535435,35.9337554 44.4017876,36.5187096 42.4039718,37.2783376 C41.1531742,37.7546284 39.7456453,37.2031872 39.1421278,36.0119524 L37.4455618,32.6616679 C36.8064236,31.4003604 37.2857773,29.8587624 38.5314862,29.1854557" id="Fill-9" fill="#FAACAC"></path>
                            <path d="M59.592821,24.5401477 C62.7182883,30.7106019 66.4228475,35.123147 67.8670149,34.3950009 C69.3111823,33.6658392 67.9484338,28.0732304 64.8229664,21.9027761 C61.6964813,15.7323218 57.9929399,11.3207923 56.5487725,12.0489384 C55.1046051,12.7770845 56.4683713,18.3707089 59.592821,24.5401477" id="Fill-11" fill="#FAACAC"></path>
                            <path d="M56.340849,16.1837318 C55.8075553,13.9617183 55.8340165,12.4089493 56.5484672,12.0494462 C57.9926346,11.3213001 61.6971938,15.7328296 64.8226611,21.9032839 C64.8725302,22.0007762 64.9213815,22.0982686 64.9702328,22.195761 C62.5480211,19.9778097 59.3757379,17.4541792 56.340849,16.1837318" id="Fill-13" fill="#FF8F8F"></path>
                            <g id="Group-17" transform="translate(58.010954, 17.174273)">
                                <mask id="mask-2" fill="white">
                                    <use xlink:href="#path-1"></use>
                                </mask>
                                <g id="Clip-16"></g>
                                <path d="M11.3806296,5.71855827 L3.34560366,10.7759747 C2.81027451,9.80815987 2.28003403,8.76925686 1.76913055,7.67652993 C1.08012325,6.20500455 0.486783144,4.76800771 0.00234079287,3.42240997 L8.77013671,0.326011832 C10.0972645,-0.142154628 11.5648399,0.471234834 12.1612332,1.74472885 L12.3993834,2.25554822 C12.9825461,3.50060697 12.5469551,4.9843189 11.3806296,5.71855827" id="Fill-15" fill="#EAE9FF" mask="url(#mask-2)"></path>
                            </g>
                            <path d="M41.9474154,36.6890166 L44.5558729,35.3738852 L46.2962015,34.8549414 C46.4977132,35.1656983 46.8600272,35.7191706 47.3292035,36.4036483 L43.3478202,38.6622214 C42.5122589,37.5105928 41.9474154,36.6890166 41.9474154,36.6890166" id="Fill-18" fill="#081A3F"></path>
                            <path d="M46.5004611,32.6416616 C47.3207563,33.8867204 48.4005743,34.7367319 49.4223812,35.2881731 C49.110954,35.351137 48.7995268,35.4161319 48.4850464,35.4862045 C46.4536452,35.9330445 44.4008717,36.5179987 42.4040736,37.2776267 C41.153276,37.7539175 39.745747,37.2024763 39.1422296,36.0112415 L38.604865,34.9499965 C40.9303918,34.124358 43.7342546,33.3464502 46.5004611,32.6416616" id="Fill-20" fill="#FF8F8F"></path>
                            <g id="Group-24" transform="translate(59.028690, 18.485364)">
                                <mask id="mask-4" fill="white">
                                    <use xlink:href="#path-3"></use>
                                </mask>
                                <g id="Clip-23"></g>
                                <path d="M11.1887864,0.532755153 L11.3811385,0.944051067 C11.965319,2.19012536 11.5287102,3.67383729 10.3623847,4.40706111 L2.32837649,9.46549309 C1.79304734,8.49767826 1.26178913,7.4577597 0.749867909,6.36503278 C0.641987889,6.13348841 0.536143342,5.90194404 0.432334267,5.67141522 C2.82299621,4.54720639 6.19475568,3.60579574 8.85817088,2.2916799 C10.2982674,1.58181362 10.9211218,0.966393068 11.1887864,0.532755153" id="Fill-22" fill="#C6C0FF" mask="url(#mask-4)"></path>
                            </g>
                            <path d="M55.9920709,16.34236 C55.3539504,13.7232682 55.4842206,12.166437 56.3798283,11.7135037 C57.9563014,10.9173161 60.880257,14.2899426 63.4765017,18.6679591 L62.7549268,18.922861 C61.7575455,17.2553354 60.7367563,15.7848255 59.7668538,14.6291348 C58.170026,12.7270181 57.1583964,12.2233076 56.7543552,12.3685306 C56.7411246,12.3725927 56.7299295,12.378686 56.7187344,12.3847793 C56.3421721,12.5736708 56.1162347,13.6785842 56.7228053,16.1646395 C57.0413567,17.4716465 57.5390296,18.9614517 58.1781679,20.5396094 C58.6809295,21.7775593 59.2701986,23.0693332 59.9286739,24.3712625 C60.5199785,25.5391397 61.138762,26.6542087 61.7667051,27.6941272 C62.7294834,29.2895492 63.7136342,30.7001418 64.6489336,31.8131796 C66.2966482,33.776229 67.3204907,34.2504888 67.697053,34.0595662 C68.0746331,33.8696592 68.2995527,32.7657613 67.692982,30.2786904 C67.3204907,28.7502945 66.7006894,26.9700433 65.8976957,25.0922997 L66.5429403,24.6860816 C68.5977494,29.4500053 69.6429643,33.919421 68.0369768,34.7288107 C67.9972851,34.7491216 67.9565757,34.7674014 67.9148485,34.7816191 C65.9384051,35.4894542 62.0944161,30.3111879 59.2579858,24.7094391 C57.7334172,21.7003779 56.5731982,18.7299074 55.9920709,16.34236" id="Fill-25" fill="#FFFFFF"></path>
                            <g id="Group-29" transform="translate(34.916794, 149.101370)">
                                <mask id="mask-6" fill="white">
                                    <use xlink:href="#path-5"></use>
                                </mask>
                                <g id="Clip-28"></g>
                                <path d="M1.35063709,4.28610885 C2.25336895,2.95777537 2.50576748,1.49234326 2.61466524,0.287906337 L7.07743774,0.287906337 C7.07743774,0.287906337 6.7741524,1.81528672 7.52524159,3.00956819 C7.85397033,3.53054302 8.8106422,3.91949693 10.1306458,4.47296921 C12.2210756,5.54335414 14.8010365,6.92449597 14.8905973,7.63740889 C15.0391867,8.82458154 2.72865167,8.78802191 0.683002249,7.63740889 C-0.387656057,7.03519043 0.360379927,5.74341659 1.35063709,4.28610885" id="Fill-27" fill="#081A3F" mask="url(#mask-6)"></path>
                            </g>
                            <path d="M1.97349194,149.42543 C3.24871519,148.44746 3.95095305,147.13639 4.43437767,146.027415 L8.67019503,147.430899 C8.67019503,147.430899 7.89976886,148.784621 8.23663948,150.155607 C8.38319347,150.752748 9.16990343,151.420977 10.2476859,152.362387 C11.893365,154.034991 13.9064469,156.156465 13.7659993,156.860238 C13.5319201,158.035224 1.86052324,154.130452 0.282014655,152.394885 C-0.544387004,151.486987 0.574104896,150.49683 1.97349194,149.42543" id="Fill-30" fill="#081A3F"></path>
                            <path d="M52.6853447,114.555762 C51.3714475,97.9018321 43.4443016,85.8361364 40.7890283,80.5065538 C39.660359,77.5096791 16.1058763,85.5954521 15.6855513,86.7684071 C11.5433656,98.324299 17.0147145,113.562559 15.6682498,120.299687 C15.1034063,123.12595 2.01124995,142.329915 2.98522333,147.673716 C3.29868603,149.391003 8.13293218,152.109618 9.60457848,151.035171 C13.7569415,148.003768 16.7918303,142.577708 19.9396879,138.403816 C23.5892893,133.564742 26.4816951,129.05572 27.1818975,127.088609 C30.1882897,118.653488 29.9979731,95.0430716 33.3849986,101.328283 C33.9752855,102.422025 39.4761488,117.511 39.4771665,119.015022 C39.4802197,122.874095 32.813031,143.932446 34.5716788,151.553099 C35.0286423,153.529351 39.4181378,152.26195 40.878589,152.26195 C47.7126865,152.26195 53.1748758,120.761761 52.6853447,114.555762" id="Fill-32" fill="#BA104A"></path>
                            <path d="M34.2766372,92.1453142 L15.6785289,86.7883118 C14.9335461,88.8722111 14.5040615,91.0779759 14.2872837,93.3304557 C18.1241486,95.0142301 25.9352726,97.1803886 34.2766372,92.1453142" id="Fill-34" fill="#520C24"></path>
                            <path d="M52.6853447,114.555762 C51.3714475,97.9018321 43.4443016,85.8361364 40.7890283,80.5065538 C40.6719886,80.1957969 40.3035682,80.0089365 39.7560262,79.9175374 C37.4803684,83.0647128 35.2861295,87.6427918 37.2707148,92.0319793 C40.7778332,99.7836378 45.5723876,119.637552 45.5520329,129.252736 C45.5388023,136.059938 38.4502709,143.38202 34.3091029,147.079621 C34.2276841,148.823313 34.2958724,150.354756 34.5716788,151.553099 C35.0286423,153.529351 39.4181378,152.26195 40.878589,152.26195 C47.7126865,152.26195 53.1748758,120.761761 52.6853447,114.555762" id="Fill-36" fill="#930C3A"></path>
                            <path d="M12.496679,58.9516012 C13.371932,55.2702489 15.1662006,52.3495401 18.8178375,51.1989271 C18.8198729,51.2040048 18.8219084,51.2090826 18.8229261,51.2131447 C24.0184686,49.320168 30.0851931,45.7870853 32.7852468,46.5985061 C40.3185289,48.862157 40.9434188,75.5263188 42.9117203,81.2539952 C43.0643807,81.56069 44.393544,84.9962803 45.3471626,87.4082008 C45.9944427,89.0462756 45.0510014,90.8793352 43.337134,91.2936777 C39.5134997,92.2168086 33.4681477,92.0847877 32.8534351,92.2188397 C32.7984773,92.2310262 21.1688077,94.6693509 16.1076064,91.5892015 C14.2288657,90.4456973 14.9830081,85.6015454 15.0868172,83.817232 C15.7412214,72.5355374 10.9395428,65.5008539 12.496679,58.9516012" id="Fill-38" fill="#840B34"></path>
                            <path d="M45.3475697,87.4087085 C44.3939511,84.9967881 43.0647878,81.5601822 42.9111097,81.2534875 C40.9438259,75.5268266 40.318936,48.8626647 32.7846361,46.5979984 C31.5826899,46.2374797 29.7100556,46.7401747 27.545331,47.572922 C29.2846419,52.2606799 34.5056278,66.713923 34.7397071,71.995775 C34.9625912,77.022725 33.8929507,84.9267154 37.2708166,92.0324871 C39.2564196,91.9268703 41.5402192,91.7278234 43.3365233,91.29317 C45.0514085,90.879843 45.9948498,89.0457678 45.3475697,87.4087085" id="Fill-40" fill="#930C3A"></path>
                            <path d="M38.9787812,57.8854816 C28.4472487,65.165927 12.5471587,64.0325783 12.3680371,64.0173451 L12.3364873,64.0142985 C12.4891477,65.2278753 12.7466349,66.4891828 13.0417784,67.8073608 C13.5730366,67.8297028 14.3017356,67.8510292 15.1902192,67.8510292 C20.4285065,67.8510292 31.2083666,67.1249142 39.7919523,61.8349379 C39.5456601,60.4873091 39.2759601,59.1620222 38.9787812,57.8854816" id="Fill-42" fill="#FFFFFF"></path>
                            <path d="M32.2501212,61.2921288 C32.6297367,62.525001 32.9900153,63.7446711 33.3116198,64.9115329 C35.5262135,64.1133142 37.7224878,63.1089397 39.7915452,61.8344301 C39.545253,60.4878168 39.275553,59.16253 38.9783741,57.8859893 L38.9783741,57.8859893 C36.8920152,59.3270484 34.5939673,60.4350085 32.2501212,61.2921288" id="Fill-44" fill="#EDE8E8"></path>
                            <path d="M41.9653276,76.6086872 C41.8167381,75.6185303 41.6661132,74.5390055 41.5114173,73.3873769 C32.660167,78.9545972 20.4066252,78.1137255 14.8915136,77.3561286 C15.0034646,78.3422233 15.0797948,79.3669086 15.1154156,80.4291692 C17.1427457,80.693211 19.840764,80.9399886 22.893972,80.9399886 C28.7510429,80.9399886 35.883337,80.0249821 41.9653276,76.6086872" id="Fill-46" fill="#FFFFFF"></path>
                            <path d="M41.9653276,76.6066561 C41.8167381,75.6185303 41.6671309,74.5420521 41.512435,73.3934702 C41.512435,73.3914391 41.5114173,73.389408 41.5114173,73.3873769 C39.4057214,74.7116482 37.1076735,75.6632143 34.75365,76.3507386 C34.7434727,77.3510509 34.7404195,78.4051871 34.7628097,79.4908052 C37.2308195,78.8286695 39.6723683,77.8974144 41.9653276,76.6086872 L41.9653276,76.6066561 Z" id="Fill-48" fill="#EDE8E8"></path>
                            <path d="M45.8892088,44.4592596 C45.8892088,44.4592596 45.4780435,43.5249578 45.2276804,42.9349258 C45.0587362,42.5378476 43.6013382,40.313803 44.6384112,40.4874613 C45.8515526,40.6895548 46.0255855,41.9356291 46.7797279,41.4146543 C47.2122657,41.1150684 48.1638489,38.0592921 48.7093554,38.1273336 C49.2538442,38.1933441 50.3896376,39.2048273 50.777395,40.6418242 C50.9137716,41.1485814 50.7794305,41.7822817 50.3631764,43.8499323 C49.9479401,45.9175829 46.6759188,47.5353468 45.8892088,44.4592596" id="Fill-50" fill="#F39B9B"></path>
                            <g id="Group-54" transform="translate(42.744913, 0.205546)">
                                <mask id="mask-8" fill="white">
                                    <use xlink:href="#path-7"></use>
                                </mask>
                                <g id="Clip-53"></g>
                                <path d="M1.93675167,7.24094074 C1.65992747,6.94541701 1.31389722,5.83237918 1.25995721,5.15501035 C1.1581836,3.86120543 0.454928006,3.79519497 0.105844547,3.43975406 C-0.243238912,3.08431314 0.474264991,2.65067523 1.38005006,3.2843756 C1.95914186,3.68957824 2.19423889,4.56294734 2.32756231,3.88557852 C2.46088573,3.20820969 0.801975994,-0.698593728 2.33773967,0.365697923 C2.55349971,0.515998652 3.34224513,1.25734684 3.34224513,1.25734684 C3.34224513,1.25734684 4.03939431,1.87073631 4.34369739,2.37140022 C4.85052993,3.20719414 5.08257375,4.91737271 4.69685179,6.56357192 C4.50755289,7.37093056 3.48065723,8.8861244 1.93675167,7.24094074" id="Fill-52" fill="#C87171" mask="url(#mask-8)"></path>
                            </g>
                            <path d="M14.1326896,57.4838333 C16.4958727,53.3363456 29.3773577,59.0995662 35.9234358,62.3807936 C37.8713826,63.3577483 40.2152287,62.2518193 40.7027242,60.1313604 C42.049189,54.2950206 44.4306913,44.5173488 45.2927137,44.5100216 C46.5211211,44.499069 50.8210559,44.9144271 51.6800251,46.2447916 C52.5369588,47.5741407 55.381531,66.6735043 45.3313877,72.8388808 C36.4496054,78.2893133 10.029178,64.6860818 14.1326896,57.4838333" id="Fill-55" fill="#BA104A"></path>
                            <path d="M24.7007588,64.6885191 C28.0715006,66.0859097 32.4671025,70.2719881 36.4383085,71.0102896 C40.4105322,71.7485912 40.4675254,69.6728163 43.5624607,67.8194458 C46.6563783,65.9670909 47.7117705,64.1736376 48.0588185,61.4621312 C48.4068842,58.7506248 48.1320955,50.0169337 48.349891,46.1629387 C48.3804231,45.6246996 48.4699839,45.2032482 48.5992363,44.8701493 C49.9446834,45.1382533 51.2473855,45.5759534 51.6799233,46.2441823 C52.536857,47.5745469 55.3814293,66.672895 45.3312859,72.839287 C36.9125735,78.0053668 12.740325,66.0534122 13.7366885,58.6602412 C14.6577397,59.1934026 15.5553828,59.7671858 16.2118226,60.3023782 C18.2717203,61.9820904 21.3289994,63.2911285 24.7007588,64.6885191 Z" id="Fill-57" fill="#930C3A"></path>
                            <path d="M28.8262536,42.012709 C28.8262536,42.012709 28.0802531,46.2241761 26.7144513,47.6571107 C25.3486496,49.0880143 22.3758426,49.003724 20.9764556,48.590397 C19.5770685,48.17707 18.2458698,47.2376904 18.2031249,46.4993889 C18.1613977,45.7610873 19.4569757,44.4165051 20.5042261,43.9412299 C21.5535119,43.4659546 26.1251822,40.9260754 27.0757476,40.8752981 C28.0283486,40.8255364 29.2740575,41.1048114 28.8262536,42.012709" id="Fill-59" fill="#2550A0"></path>
                            <path d="M21.5619591,42.7346603 C21.5619591,42.7346603 20.9106081,45.3151613 22.8168277,46.859806 C23.8345637,47.6844289 26.1102215,43.8416048 25.4151077,42.5406911 C24.719994,41.2377463 21.5619591,42.7346603 21.5619591,42.7346603" id="Fill-61" fill="#081A3F"></path>
                            <path d="M22.9822098,44.5733054 L21.3131227,50.1537277 C21.3334774,50.9560086 25.7260261,53.0338146 26.9605399,51.9786629 C27.3218362,51.6689215 27.1925837,50.9052313 26.8160214,50.0856862 L24.5861617,45.6233794 L22.9822098,44.5733054 Z" id="Fill-63" fill="#F39B9B"></path>
                            <path d="M24.140088,42.4847345 L23.0022592,45.6237856 C22.7091512,46.6870617 23.3147041,47.7919752 24.3731496,48.111872 C25.2178705,48.3677894 25.7705012,48.3870848 26.8635497,48.2885769 C27.7754412,48.2063177 28.2680254,47.3512284 28.3046639,46.1630402 C28.3524975,44.6214422 27.9576159,43.1885075 27.7031819,42.4339573 C27.1230724,40.7136232 25.0326425,40.4932499 24.140088,42.4847345" id="Fill-65" fill="#F39B9B"></path>
                            <path d="M22.9851612,45.698022 C24.2013558,47.3777342 25.4389228,47.4823353 26.5655566,47.6316205 C27.1232759,47.7067709 27.9333938,47.3249258 28.1695085,47.0629151 C27.9618904,47.7636414 27.5232462,48.2287613 26.8637532,48.2886784 C25.769687,48.3861708 25.2170563,48.367891 24.3723354,48.1119735 C23.3403511,47.7991855 22.7398868,46.736925 22.9851612,45.698022" id="Fill-67" fill="#C87171"></path>
                            <path d="M26.092004,45.5253792 C26.092004,45.5253792 26.9845585,44.8134819 27.877113,45.1943114 C27.877113,45.1943114 27.1738574,46.1458775 26.092004,45.5253792" id="Fill-69" fill="#FFFFFF"></path>
                            <path d="M24.9292406,41.3848988 C24.9292406,41.3848988 24.1119985,42.5385584 24.1669563,43.1753055 C24.221914,43.813068 24.2982442,44.0821876 24.0835019,44.2456904 C23.8687596,44.4102087 23.2703308,43.9075137 23.3049339,43.2514714 C23.3395369,42.5933979 23.6611415,40.9593852 24.9292406,41.3848988" id="Fill-71" fill="#081A3F"></path>
                            <path d="M23.6948285,44.0566974 C23.5798244,43.8850702 23.4933168,43.6971943 23.4180043,43.5042406 C23.2734858,43.1386443 22.9182959,42.8908512 22.4796517,43.3701886 C21.8405135,44.0688839 22.7697065,45.7140676 23.7345202,45.5089274 C24.4510064,45.3545645 23.9828478,44.4923664 23.6948285,44.0566974" id="Fill-73" fill="#F39B9B"></path>
                            <path d="M27.3810684,40.8523468 C27.3810684,40.8523468 26.2585056,38.0403014 23.8871806,38.0748299 C23.7396089,38.0778765 23.4831394,37.8575032 23.3447273,37.8778141 C22.933562,37.9407779 23.0292292,38.1631824 22.8328061,38.2159907 C21.1820383,38.6618152 20.5713966,40.0744389 20.4309491,41.5378399 C20.2630226,43.2835626 20.5907336,44.0228797 20.8115824,44.0371331 C21.0314133,44.0492839 26.1831931,40.9406992 27.3810684,40.8523468" id="Fill-75" fill="#2550A0"></path>
                            <path d="M23.49006,42.4470578 C23.49006,42.4470578 24.2747345,49.2278549 25.0329479,50.179421 L24.0976485,50.4150275 C24.0976485,50.4150275 22.4651999,44.5187706 22.6290554,43.0939603 L23.49006,42.4470578 Z" id="Fill-77" fill="#081A3F"></path>
                            <path d="M23.6202285,44.3680636 C23.726073,44.3467372 23.8258112,44.4147787 23.8482014,44.5193799 C23.9377621,44.9662199 24.1525044,46.0609779 24.1067063,46.2051854 C24.0476776,46.3849369 23.0055159,46.5372687 22.9841435,46.4011856 C22.962771,46.264087 22.6085989,44.6036702 22.6666098,44.554924 C22.7867027,44.4513383 23.3088013,44.4279808 23.6202285,44.3680636" id="Fill-79" fill="#930C3A"></path>
                            <path d="M26.9597257,49.8980134 C26.9597257,49.8980134 26.5974117,48.6905298 26.34196,48.7707579 C26.0854905,48.850986 26.2564701,49.4176603 25.3150643,49.6492047 C24.3512683,49.8837957 22.5020419,47.0230041 21.9992803,47.2433775 C21.4975364,47.4637509 20.9876507,49.4389868 20.8054759,50.381413 C20.6233012,51.3228236 22.7697065,52.5536648 24.5609219,53.0198001 C26.3511196,53.4849199 27.6212541,53.8342676 28.0894127,53.4331271 C28.558589,53.0319867 26.9597257,49.8980134 26.9597257,49.8980134" id="Fill-81" fill="#081A3F"></path>
                            <path d="M23.8875877,38.0744237 C23.7389983,38.0774703 23.4835465,37.8570969 23.3451344,37.8784234 C23.0377781,37.9251385 23.0133525,38.060206 22.93804,38.1485585 C23.09986,38.3760407 23.2688042,38.6898442 23.3868616,39.1123111 C23.6402779,40.0202088 21.9569425,42.1091858 20.4252498,43.1308246 C20.50158,43.7462451 20.6766306,44.0285668 20.8119894,44.036733 C21.0308027,44.0498932 26.1836002,40.940293 27.3814755,40.8519405 C27.3814755,40.8519405 26.2589127,38.0409107 23.8875877,38.0744237" id="Fill-83" fill="#215ECF"></path>
                            <path d="M21.1782726,48.8279331 C21.3848731,48.8066066 21.5436399,48.6156841 21.5029304,48.3912485 C21.4723984,48.2216524 21.3187202,48.1028336 21.1467228,48.0936937 C20.3824031,48.0520564 19.2079357,47.5199105 18.8293379,46.8892568 C18.6807484,46.6414637 18.6654824,46.4109349 18.782522,46.1651729 C19.2201485,45.2481353 19.8114532,44.9140209 20.791533,44.359533 C21.0795523,44.1960302 21.4062455,44.0122165 21.7583822,43.7938742 C23.3887953,42.784422 26.0552637,41.5627208 27.3060613,41.2570416 C27.6307191,41.1778291 27.9798025,41.2245442 28.2545913,41.4124201 C28.3645068,41.4865549 28.436766,41.5708452 28.4550853,41.6906795 C28.5660185,42.3954681 28.074452,44.3341444 28.2342366,44.4610876 C28.3930034,44.5870152 28.4774755,44.6124039 28.6046925,44.4529632 C28.6423487,44.4062481 29.2316179,42.1090843 29.1084718,41.555612 C29.0138224,41.1361917 28.695271,40.7898907 28.1568886,40.5258489 C27.0312726,39.9723766 22.0413128,42.7539556 21.369607,43.1693137 C21.0296832,43.3795317 20.7243624,43.5531899 20.4292189,43.7197394 C19.4369263,44.2793049 18.655305,44.7220828 18.1169227,45.8493382 C17.8940385,46.3185202 17.9225351,46.8080132 18.1973238,47.2670397 C18.7713269,48.2216524 20.2653634,48.7883268 21.1233149,48.8289486 C21.1426519,48.8299642 21.1599534,48.8299642 21.1782726,48.8279331" id="Fill-85" fill="#1E4080"></path>
                            <path d="M24.9292406,41.5614006 C24.9292406,41.5614006 24.7297643,41.0871409 24.9068504,40.5834303 C25.209118,39.7222478 24.9292406,39.0733142 25.6192656,38.7960703 C26.485359,38.4497693 27.5336271,40.208694 27.6923939,40.6128811 C27.850143,41.0190993 25.4370908,41.8081781 24.9292406,41.5614006" id="Fill-87" fill="#2550A0"></path>
                            <path d="M14.748827,138.55493 C12.1637775,141.193317 7.74069672,141.189255 4.79333317,140.816549 C3.50487935,143.723041 2.72020487,146.216205 2.98481624,147.673512 C3.29827893,149.3908 8.13252509,152.109415 9.60417139,151.034968 C13.7565344,148.003565 16.792441,142.577505 19.9402985,138.404629 C23.5898999,133.564539 26.481288,129.055517 27.1825081,127.088406 C29.650518,120.164417 29.9639807,103.018963 31.871218,100.573529 C30.8270209,101.624619 25.6548864,107.072005 25.8238305,111.736405 C26.011094,116.920765 18.8787999,134.340416 14.748827,138.55493" id="Fill-89" fill="#930C3A"></path>
                            <path d="M52.7052924,54.1426887 C52.6940973,53.2936927 52.6615297,52.4792253 52.6086074,51.7216283 C49.1503404,50.674601 44.8534589,51.0787881 42.8485189,51.3621253 C42.6449717,52.1329243 42.4404067,52.931143 42.2378773,53.7364706 C44.2234803,53.3586876 49.4495548,52.8102931 52.7052924,54.1426887" id="Fill-91" fill="#FFFFFF"></path>
                            <path d="M48.2536132,53.3205031 C49.831104,53.3865136 51.4208077,53.6170424 52.7051906,54.143095 C52.6990842,53.7277369 52.6889068,53.3215187 52.6736408,52.9244404 C52.672623,52.9122539 52.672623,52.8980362 52.6716053,52.8838186 C52.6553215,52.4847092 52.6349668,52.0967708 52.6085057,51.7220346 C51.2243847,51.3026143 49.707958,51.117785 48.2556487,51.0629456 C48.2536132,51.8022627 48.2536132,52.5598596 48.2536132,53.3205031" id="Fill-93" fill="#EDE8E8"></path>
                            <path d="M50.3735573,16.6875439 C47.3966794,17.0338449 43.8824369,16.5971603 41.7543509,16.1909422 C41.6892158,16.9251815 41.6250984,17.6787163 41.5640342,18.4393598 C42.9949711,18.700355 45.4263425,19.0608736 47.9890018,19.0608736 C48.8113325,19.0608736 49.6428229,19.0182207 50.4610826,18.9288527 C50.4386924,18.1539915 50.4091781,17.4065501 50.3735573,16.6875439" id="Fill-95" fill="#FFFFFF"></path>
                            <path d="M18.2224619,140.790348 C18.7954473,139.967756 19.3663972,139.16446 19.9393826,138.403816 C20.0309788,138.281951 20.1205396,138.162117 20.2111181,138.041267 C15.8511369,137.480686 11.6662064,135.940103 8.11227214,134.205551 C7.62375885,135.103294 7.14644065,136.002051 6.68947717,136.889638 C10.0734495,138.548024 14.0243008,140.051031 18.2224619,140.790348" id="Fill-97" fill="#FFFFFF"></path>
                            <path d="M15.8898109,137.164546 C15.4918761,137.714972 15.1081896,138.188216 14.7489288,138.554828 C14.3448876,138.966124 13.8919951,139.307347 13.4106059,139.598809 C14.9646888,140.089317 16.5737295,140.499598 18.2224619,140.790044 C18.4718072,140.432572 18.7211525,140.079162 18.9704979,139.73083 C19.031562,139.644508 19.0936439,139.558187 19.1547081,139.472881 C19.4162663,139.110331 19.6778244,138.750828 19.9393826,138.404527 C20.0309788,138.282662 20.1205396,138.161812 20.2111181,138.040962 C18.7445605,137.853086 17.300393,137.545376 15.8898109,137.164546" id="Fill-99" fill="#EDE8E8"></path>
                            <path d="M35.8409992,136.382069 C35.6394875,137.381365 35.4501886,138.379646 35.2741202,139.365741 C37.7024384,140.165991 41.2604436,141.059671 45.0403152,141.059671 C46.0529626,141.059671 47.080876,140.992645 48.1067539,140.845391 C48.4314117,139.80141 48.7438566,138.721885 49.0400178,137.619003 C44.2098426,138.757429 38.8707994,137.411832 35.8409992,136.382069" id="Fill-101" fill="#FFFFFF"></path>
                            <path d="M42.4603544,137.898379 C41.8436063,138.84893 41.1698651,139.771045 40.464574,140.653554 C41.9077237,140.89627 43.4516293,141.059773 45.0403152,141.059773 C46.0529626,141.059773 47.080876,140.992747 48.1067539,140.844477 C48.2685739,140.325533 48.426323,139.796434 48.5820366,139.260226 C48.5830543,139.256164 48.5850898,139.252102 48.5861075,139.247024 C48.7408034,138.712847 48.8914284,138.16953 49.0400178,137.622151 L49.0400178,137.619104 C46.8630804,138.130939 44.5853872,138.138048 42.4603544,137.898379" id="Fill-103" fill="#EDE8E8"></path>
                        </g>
                    </g>
                </g>
            </g>
        </g>
    </g>
</svg>