<?xml version="1.0" encoding="UTF-8"?>
<svg width="107px" height="226px" viewBox="0 0 107 226" version="1.1" xmlns="http://www.w3.org/2000/svg" xmlns:xlink="http://www.w3.org/1999/xlink">
    <!-- Generator: Sketch 57.1 (83088) - https://sketch.com -->
    <title>Illustration</title>
    <desc>Created with Sketch.</desc>
    <defs>
        <polygon id="path-1" points="0.988922903 0.746155952 94.2848363 0.746155952 94.2848363 54.8240964 0.988922903 54.8240964"></polygon>
        <polygon id="path-3" points="0.945769342 0.746155952 54.5523853 0.746155952 54.5523853 54.8240964 0.945769342 54.8240964"></polygon>
        <polygon id="path-5" points="0.455971797 0.0653551807 47.7940677 0.0653551807 47.7940677 171.397691 0.455971797 171.397691"></polygon>
    </defs>
    <g id="Home" stroke="none" stroke-width="1" fill="none" fill-rule="evenodd">
        <g transform="translate(-1076.000000, -5647.000000)" id="Communites-Love-FieldMed">
            <g transform="translate(205.200000, 5204.160000)">
                <g id="Illustration" transform="translate(871.200000, 442.800000)">
                    <g id="Group-3" transform="translate(0.000000, 171.190548)">
                        <mask id="mask-2" fill="white">
                            <use xlink:href="#path-1"></use>
                        </mask>
                        <g id="Clip-2"></g>
                        <path d="M94.2430446,0.746155952 L47.6368796,0.746155952 L1.03071458,0.746155952 C1.03071458,0.746155952 -2.17802336,54.8246446 47.6368796,54.8246446 C97.4517826,54.8246446 94.2430446,0.746155952 94.2430446,0.746155952" id="Fill-1" fill="#D8E7EB" mask="url(#mask-2)"></path>
                    </g>
                    <g id="Group-6" transform="translate(39.732451, 171.190548)">
                        <mask id="mask-4" fill="white">
                            <use xlink:href="#path-3"></use>
                        </mask>
                        <g id="Clip-5"></g>
                        <path d="M54.5105936,0.746155952 L25.1524226,0.746155952 C25.0400757,4.40292318 24.656452,7.66221571 23.7289048,8.95058198 C21.1339647,12.5580075 26.0895604,16.5094543 28.2145615,26.6464297 C30.3381925,36.7834051 21.6052738,41.0788731 11.9283668,42.6249126 C2.2500898,44.1723227 7.20705559,46.2337087 4.61074543,51.5598697 C3.90926215,52.9990022 2.5515084,53.8940056 0.945769342,54.440876 C3.14338491,54.688955 5.45745766,54.8246446 7.9044286,54.8246446 C57.7193316,54.8246446 54.5105936,0.746155952 54.5105936,0.746155952" id="Fill-4" fill="#C1D6DB" mask="url(#mask-4)"></path>
                    </g>
                    <path d="M94.2430446,171.936704 C94.2430446,177.609628 73.3766574,182.207999 47.6368796,182.207999 C21.8957317,182.207999 1.03071458,177.609628 1.03071458,171.936704 C1.03071458,166.263781 21.8957317,161.66541 47.6368796,161.66541 C73.3766574,161.66541 94.2430446,166.263781 94.2430446,171.936704" id="Fill-7" fill="#0D2654"></path>
                    <g id="Group-11" transform="translate(26.826830, 0.585247)">
                        <mask id="mask-6" fill="white">
                            <use xlink:href="#path-5"></use>
                        </mask>
                        <g id="Clip-10"></g>
                        <path d="M16.4260535,171.366808 C13.1460711,170.281291 10.7100609,167.509933 10.0579006,164.114951 C6.68749271,146.593169 -3.10450133,92.4036619 1.80999183,78.1233554 C7.697245,61.0168667 14.2709105,57.3888821 11.34441,40.7264686 C9.88801014,32.4315828 10.8429591,18.3883906 12.1705709,6.37506043 C12.9474089,-0.66298294 22.4174331,-2.33237667 25.5330052,4.0244773 C35.3400702,24.0366431 48.5065824,54.4420869 47.7639966,72.1187462 C46.5898342,100.114671 21.7132096,173.115697 16.4260535,171.366808" id="Fill-9" fill="#FAACAC" mask="url(#mask-6)"></path>
                    </g>
                    <path d="M47.4674001,13.6267807 C47.4674001,13.6267807 46.6631605,24.3270737 48.4579713,33.0742583 C50.2500418,41.8228135 45.2533436,57.936986 41.8212819,62.0104164 C38.3905902,66.0852173 33.6500978,100.643587 32.8732599,110.910769 C32.3786594,117.429354 33.0719221,134.926465 33.6446175,146.835629 C34.8996149,154.193023 36.0765175,160.501906 36.8834973,164.701431 C37.5370276,168.095043 39.9730378,170.866401 43.2530202,171.951918 C44.8340977,172.474118 48.1675133,166.310519 52.0941756,156.669701 C51.5146298,153.783213 50.8021859,151.743756 50.8021859,151.743756 C50.8021859,151.743756 58.8733538,100.920448 63.8481306,86.3016029 C68.8215374,71.6827576 64.1933919,62.4325619 61.5655698,51.6472916 C58.9377477,40.8606506 47.4674001,13.6267807 47.4674001,13.6267807" id="Fill-12" fill="#FF8F8F"></path>
                    <path d="M36.814445,173.413117 C38.9175247,172.281 40.1999238,170.362156 40.1615615,168.395342 C39.9697496,158.239178 38.9367059,126.930507 33.5002105,119.908911 C26.9881988,111.494783 21.9408075,110.583332 21.5640342,100.969927 C21.3763327,96.1851539 18.7032978,88.6440995 16.0631449,82.2749101 C14.5190596,78.5455009 7.7535823,79.1814604 6.52050623,83.1753959 C2.63631663,95.7520436 -2.07129377,114.574526 0.978514362,124.142702 C5.80532212,139.296082 33.4221157,175.23876 36.814445,173.413117" id="Fill-14" fill="#FAACAC"></path>
                    <path d="M11.1842739,87.3173563 C11.1842739,87.3173563 13.2750229,93.0505862 13.2955742,98.139633 C13.3147554,103.22868 19.0718505,111.242592 22.0202724,112.914727 C24.9686943,114.585491 33.1946817,132.752826 35.2045957,138.254424 C36.4801444,141.745349 38.5133498,151.450584 39.8286309,158.071965 C40.0218128,162.309867 40.1163487,165.961152 40.1615615,168.395342 C40.1999238,170.362156 38.9175247,172.281 36.814445,173.413117 C35.8005825,173.958617 32.6206163,171.125582 28.5295439,166.483352 C28.514473,164.807105 28.7131352,163.572192 28.7131352,163.572192 C28.7131352,163.572192 15.8562621,137.034588 10.3320814,129.836184 C4.8065305,122.639151 6.66710528,116.809979 6.9301615,110.466831 C7.19184765,104.125054 11.1842739,87.3173563 11.1842739,87.3173563" id="Fill-16" fill="#FF8F8F"></path>
                    <g id="Group-20" transform="translate(47.952958, 61.542356)" fill="#FAACAC">
                        <path d="M0.321284819,102.657983 C0.595301723,93.0157955 17.9761939,54.3140952 22.3508738,37.026687 C25.2499726,25.5725627 39.6262694,10.6467025 48.9976475,1.87758824 C52.247488,-1.16377851 57.564786,1.06345041 57.6798731,5.51516704 C58.2224266,26.2866466 57.95389,70.9463555 46.76852,89.5605068 C31.9496859,114.217644 -0.213048142,121.363965 0.321284819,102.657983" id="Fill-18"></path>
                    </g>
                    <path d="M97.5905721,72.9348029 C97.5905721,72.9348029 79.3780386,98.264906 74.0730714,110.139805 C68.7667341,122.013334 62.6205349,138.182331 58.9007554,142.398304 C56.120854,145.546577 50.8638397,159.554134 48.3826166,166.43867 C49.4827945,174.882951 58.5582343,176.671587 68.944845,172.914766 C71.6123996,167.866838 74.5553411,161.560696 80.145286,157.189845 C91.3361363,148.435807 88.6795424,143.102793 91.0470485,120.704409 C93.4118143,98.3060241 97.5905721,72.9348029 97.5905721,72.9348029" id="Fill-21" fill="#FF8F8F"></path>
                    <path d="M28.8521988,173.681481 C25.9681709,168.221001 29.7687854,143.489851 28.2644326,133.029414 C27.2683811,126.098277 35.9848588,115.233512 41.9803487,108.691627 C44.061507,106.421909 49.8117518,106.752224 51.372278,109.231644 C58.6583875,120.799528 72.9716604,145.915818 68.4723029,158.29921 C62.5110652,174.703951 34.4503642,184.274867 28.8521988,173.681481" id="Fill-23" fill="#FAACAC"></path>
                    <path d="M45.6893045,113.921709 C45.6893045,113.921709 36.7399124,131.289982 35.6000021,138.873525 C34.4587217,146.455698 33.9230186,156.596785 31.7843167,159.605257 C30.1854281,161.853045 29.7867335,170.626271 29.6853472,174.918998 C33.4791112,179.469398 42.6381262,178.90471 51.2285562,174.999864 C52.1040402,171.704936 52.8274448,167.657547 56.6814925,164.236523 C64.4019188,157.387623 60.1546568,154.853379 55.083974,141.871033 C50.0146613,128.887316 45.6893045,113.921709 45.6893045,113.921709" id="Fill-25" fill="#FF8F8F"></path>
                </g>
            </g>
        </g>
    </g>
</svg>