<?xml version="1.0" encoding="UTF-8"?>
<svg width="198px" height="498px" viewBox="0 0 198 498" version="1.1" xmlns="http://www.w3.org/2000/svg" xmlns:xlink="http://www.w3.org/1999/xlink">
    <!-- Generator: Sketch 57.1 (83088) - https://sketch.com -->
    <title>Group 51</title>
    <desc>Created with Sketch.</desc>
    <defs>
        <polygon id="path-1" points="0 0.964166667 169.717933 0.964166667 169.717933 136.111111 0 136.111111"></polygon>
        <path d="M169.642656,2.13162821e-13 L84.8593222,2.13162821e-13 L0.0759888963,2.13162821e-13 C0.0759888963,2.13162821e-13 -5.76012221,135.147222 84.8593222,135.147222 C175.478767,135.147222 169.642656,2.13162821e-13 169.642656,2.13162821e-13" id="path-3"></path>
        <polygon id="path-5" points="0.616501531 0.579567777 99.4972222 0.579567777 99.4972222 58.9519482 0.616501531 58.9519482"></polygon>
        <polygon id="path-7" points="0.690334772 0.755555556 80.99342 0.755555556 80.99342 68.8559059 0.690334772 68.8559059"></polygon>
    </defs>
    <g id="Home" stroke="none" stroke-width="1" fill="none" fill-rule="evenodd">
        <g transform="translate(-1708.000000, -2479.000000)" id="Main-Benefits">
            <g transform="translate(150.000000, 1840.000000)">
                <g id="Group-51" transform="translate(1558.000000, 639.000000)">
                    <path d="M90.4630556,224.651667 C90.4630556,224.651667 78.2408333,208.829444 90.9047222,197.646111 C103.565833,186.465556 173.376944,213.843333 165.274167,229.387778 C157.174167,244.935 110.938056,250.948889 90.4630556,224.651667" id="Fill-1" fill="#FF8F8F"></path>
                    <path d="M88.4977778,264.392222 C88.4977778,264.392222 96.3588889,254.214444 88.2144444,247.022778 C80.07,239.831111 35.17,257.439444 40.3783333,267.439444 C45.5894444,277.436667 75.3283333,281.306111 88.4977778,264.392222" id="Fill-3" fill="#FF8F8F"></path>
                    <path d="M79.0847222,92.2405556 C79.0847222,92.2405556 88.3986111,80.1822222 78.7486111,71.6655556 C69.1013889,63.1433333 15.9097222,84.0044444 22.0819444,95.8488889 C28.2541667,107.693333 63.4819444,112.276667 79.0847222,92.2405556" id="Fill-5" fill="#FF8F8F"></path>
                    <path d="M98.2972222,124.499722 C98.2972222,124.499722 88.9833333,112.441389 98.6333333,103.924722 C108.280556,95.4025 161.472222,116.263611 155.3,128.108056 C149.127778,139.9525 113.897222,144.535833 98.2972222,124.499722" id="Fill-7" fill="#FF8F8F"></path>
                    <g id="Group-11" transform="translate(0.000000, 361.133333)">
                        <mask id="mask-2" fill="white">
                            <use xlink:href="#path-1"></use>
                        </mask>
                        <g id="Clip-10"></g>
                        <g id="Group-34" mask="url(#mask-2)">
                            <g transform="translate(-0.000711, 0.964167)">
                                <mask id="mask-4" fill="white">
                                    <use xlink:href="#path-3"></use>
                                </mask>
                                <use id="Fill-9" stroke="none" fill="#D8E7EB" fill-rule="evenodd" xlink:href="#path-3"></use>
                                <path d="M169.442378,-0.0975 L116.034044,-0.0975 C115.831267,9.04138889 115.131267,17.1886111 113.447933,20.4052778 C108.722933,29.4219444 117.7396,39.2997222 121.603489,64.6330556 C125.467378,89.9663889 109.581267,100.699722 91.9784889,104.563611 C74.3729333,108.4275 83.3896,113.580278 78.6673778,126.891389 C77.3923778,130.485833 74.9229333,132.724722 72.0007111,134.094167 C75.9979333,134.710833 80.2090445,135.049722 84.6590445,135.049722 C175.278489,135.049722 169.442378,-0.0975 169.442378,-0.0975" id="Fill-14" stroke="none" fill="#C1D6DB" fill-rule="evenodd" mask="url(#mask-4)"></path>
                            </g>
                        </g>
                    </g>
                    <path d="M169.641944,362.0975 C169.641944,366.900278 131.680833,370.791944 84.8586111,370.791944 C38.0336111,370.791944 0.0752777778,366.900278 0.0752777778,362.0975 C0.0752777778,357.294722 38.0336111,353.403056 84.8586111,353.403056 C131.680833,353.403056 169.641944,357.294722 169.641944,362.0975" id="Fill-12" fill="#0E244C"></path>
                    <g id="Group-16" transform="translate(71.444444, 361.133333)"></g>
                    <path d="M96.4147222,108.541111 C96.4147222,108.541111 79.7397222,86.1827778 92.2452778,62.6855556 C104.750833,39.1911111 162.731389,20.2438889 188.500833,38.4355556 C214.270278,56.6244444 128.245278,152.877222 96.4147222,108.541111" id="Fill-17" fill="#FAACAC"></path>
                    <path d="M188.500556,38.4347222 C186.953333,37.3402778 185.289444,36.3902778 183.528333,35.5569444 C188.983889,43.6875 180.733889,50.2041667 178.458889,57.1930556 C175.806111,65.3402778 163.167222,65.0597222 152.500556,69.3180556 C141.831111,73.5763889 135.825556,85.4236111 128.925556,86.8458333 C122.025556,88.2625 113.278333,99.8263889 110.433889,101.895833 C107.595,103.968056 91.8588889,100.365278 91.8588889,100.365278 C94.1116667,105.448611 96.4144444,108.540278 96.4144444,108.540278 C128.247778,152.876389 214.27,56.6236111 188.500556,38.4347222" id="Fill-19" fill="#FF8F8F"></path>
                    <path d="M191.983611,42.5472222 C177.3475,47.3944444 149.458611,57.1944444 131.0475,67.175 L168.300278,31.5444444 C167.636389,31.475 166.969722,31.4111111 166.294722,31.3638889 L125.530833,70.3555556 C123.958611,71.3222222 122.494722,72.2916667 121.169722,73.2527778 C113.728056,78.6416667 107.630833,83.925 102.8225,88.5583333 C105.519722,79.9166667 113.908611,53.7138889 120.503056,40.2916667 C119.775278,40.6166667 119.053056,40.9472222 118.339167,41.2861111 C110.703056,57.5777778 101.391944,88.0083333 100.541944,90.8027778 C96.6586111,94.7 93.7780556,98.0138889 91.8613889,100.363889 C92.0975,100.9 92.3336111,101.405556 92.5669444,101.894444 C95.7669444,97.9083333 102.275278,90.4777778 112.366944,82.0305556 L160.008611,100.558333 C160.441944,100.186111 160.8725,99.8111111 161.300278,99.4333333 L113.703056,80.9222222 C116.269722,78.8194444 119.050278,76.6583333 122.058611,74.4805556 C127.941944,70.2194444 136.514167,65.8027778 145.883611,61.625 L186.189167,69.6361111 C186.455833,69.1694444 186.716944,68.7083333 186.969722,68.2444444 L148.300278,60.5583333 C164.216944,53.6277778 181.9225,47.4722222 192.550278,43.9583333 C192.389167,43.4694444 192.200278,43 191.983611,42.5472222" id="Fill-21" fill="#FFD5D5"></path>
                    <path d="M81.9913889,365.322778 C81.1108333,365.322778 80.2330556,364.939444 79.6358333,364.211667 C78.6775,363.045 70.3886111,351.436667 73.9525,303.517222 C75.6997222,280.036667 80.0886111,270.256111 84.3358333,260.800556 C88.8858333,250.658889 93.5941667,240.17 95.4302778,211.350556 C98.9969444,155.447778 88.5386111,109.367222 81.9913889,86.8755556 C75.3969444,64.2255556 81.6302778,16.0477778 81.8969444,14.0061111 C82.1108333,12.3727778 83.6163889,11.2283333 85.2469444,11.4394444 C86.8830556,11.6533333 88.0358333,13.1533333 87.8191667,14.7894444 C87.7552778,15.2755556 81.4830556,63.7588889 87.7247222,85.2061111 C94.3830556,108.075556 105.016389,154.92 101.391389,211.731111 C99.4858333,241.631111 94.5525,252.62 89.7830556,263.247778 C85.5636111,272.647778 81.5802778,281.525556 79.9080556,303.958889 C76.5330556,349.356111 84.2247222,360.378333 84.3025,360.483889 C85.3469444,361.758889 85.1386111,363.611667 83.8636111,364.656111 C83.3163889,365.106111 82.6525,365.322778 81.9913889,365.322778" id="Fill-23" fill="#FF8F8F"></path>
                    <path d="M85.0825,168.808611 C85.0825,168.808611 110.924167,180.161389 104.526944,202.555833 C98.1269444,224.953056 51.9797222,251.783611 26.5991667,240.939167 C1.21861111,230.091944 28.2186111,146.325278 85.0825,168.808611" id="Fill-25" fill="#FAACAC"></path>
                    <path d="M104.525556,202.556944 C107.297778,192.856944 104.017222,185.229167 99.4088889,179.698611 C99.9005556,183.495833 100.017222,188.315278 98.1477778,191.1625 C94.7144444,196.3875 83.0477778,189.065278 80.3783333,198.948611 C77.7088889,208.834722 79.3838889,222.4375 68.3255556,222.370833 C57.2644444,222.304167 58.4561111,212.148611 48.4338889,220.195833 C38.4116667,228.243056 23.445,229.068056 23.6088889,225.154167 C23.745,221.920833 23.045,213.281944 17.5727778,214.134722 C15.7477778,226.606944 18.5088889,237.479167 26.6005556,240.9375 C51.9811111,251.784722 98.1255556,224.954167 104.525556,202.556944" id="Fill-27" fill="#FF8F8F"></path>
                    <path d="M89.6344444,222.801667 C83.5872222,214.576667 74.0344444,200.671111 73.4844444,194.201667 C72.7733333,185.846111 76.8983333,177.618333 77.8788889,175.798889 C83.8455556,174.135 89.8622222,174.196111 94.2566667,174.635 C93.19,173.765556 92.14,172.987778 91.1511111,172.312778 C83.5872222,171.987778 73.3038889,173.173889 65.3011111,180.151667 C62.8455556,182.296111 60.0261111,185.276667 57.0261111,188.812778 L19.7316667,204.765556 C19.465,205.615556 19.2122222,206.465556 18.9872222,207.312778 L54.19,192.254444 C43.2094444,205.937778 30.6066667,225.651667 24.1844444,239.571111 C24.74,239.968333 25.3316667,240.315556 25.9538889,240.623889 C30.2927778,231.129444 37.6066667,218.832222 45.3205556,207.643333 L53.7372222,241.579444 C54.3955556,241.412778 55.0566667,241.240556 55.7177778,241.051667 L46.8761111,205.404444 C53.9483333,195.354444 61.1955556,186.454444 66.6483333,181.698889 C69.2538889,179.426667 72.1511111,177.823889 75.1261111,176.698889 C73.49,180.185 70.8261111,187.132222 71.4427778,194.379444 C72.04,201.415556 81.8872222,215.76 88.0511111,224.121111 C88.5872222,223.682222 89.115,223.243333 89.6344444,222.801667" id="Fill-29" fill="#FFD5D5"></path>
                    <g id="Group-33" transform="translate(98.222222, 127.800000)">
                        <mask id="mask-6" fill="white">
                            <use xlink:href="#path-5"></use>
                        </mask>
                        <g id="Clip-32"></g>
                        <path d="M7.11027778,36.8391667 C7.11027778,36.8391667 -7.85361111,17.4669444 7.64916667,3.77805556 C23.1519444,-9.91083333 108.615833,23.6058333 98.6991667,42.6391667 C88.7825,61.6697222 32.1769444,69.0308333 7.11027778,36.8391667" id="Fill-31" fill="#FAACAC" mask="url(#mask-6)"></path>
                    </g>
                    <path d="M105.871111,131.577222 C108.479444,129.274444 113.079444,128.310556 118.862778,128.391111 C118.671111,130.716111 118.523889,132.955 118.573889,133.896667 C118.696111,136.216111 103.904444,141.877222 104.579444,146.73 C105.254444,151.585556 113.982222,158.999444 128.348889,164.627222 C142.712778,170.260556 148.179444,179.035556 161.86,178.216111 C175.537778,177.396667 168.851667,174.638333 178.726667,173.682778 C184.654444,173.110556 190.721111,173.407778 194.637778,173.732778 C180.31,190.207778 128.893333,194.899444 105.332222,164.638333 C105.332222,164.638333 90.3683333,145.268889 105.871111,131.577222" id="Fill-34" fill="#FF8F8F"></path>
                    <path d="M98.8575,147.177778 C106.560278,146.322222 114.976944,146.480556 123.588056,147.333333 L155.810278,136.736111 C157.079722,137.211111 158.343611,137.7 159.599167,138.205556 L129.676944,148.044444 C158.129722,151.816667 187.1575,161.952778 197.590833,165.841667 C197.7575,166.783333 197.763056,167.705556 197.579722,168.6 C190.651944,166.022222 172.610278,159.630556 152.021389,154.883333 L180.774167,182.527778 C179.885278,182.861111 178.976944,183.177778 178.040833,183.472222 L147.188056,153.811111 C130.938056,150.352778 113.568611,148.152778 99.0686111,149.747222 C98.9519444,148.905556 98.8797222,148.047222 98.8575,147.177778" id="Fill-36" fill="#FFD5D5"></path>
                    <path d="M86.6069444,138.000833 C86.6069444,138.000833 98.7125,122.328611 86.1708333,111.256389 C73.6291667,100.184167 4.49305556,127.295278 12.5180556,142.689722 C20.5402778,158.086944 66.3291667,164.0425 86.6069444,138.000833" id="Fill-38" fill="#FAACAC"></path>
                    <path d="M86.1716667,111.256389 C84.0605556,109.3925 80.3411111,108.614722 75.6605556,108.675833 C75.8161111,110.559167 75.9355556,112.370278 75.8966667,113.131389 C75.7994444,115.009167 87.7605556,119.586944 87.2161111,123.514722 C86.6688889,127.439722 79.6105556,133.436944 67.9911111,137.9925 C56.3688889,142.548056 51.9466667,149.645278 40.88,148.984167 C29.8133333,148.323056 35.2244444,146.089722 27.2355556,145.3175 C22.4383333,144.856389 17.5327778,145.0925 14.3633333,145.356389 C25.955,158.684167 67.5466667,162.475833 86.6077778,138.000833 C86.6077778,138.000833 98.7133333,122.328611 86.1716667,111.256389" id="Fill-40" fill="#FF8F8F"></path>
                    <path d="M91.8452778,123.875833 C85.6147222,123.184167 78.8063889,123.311944 71.8397222,124.000833 L45.7730556,115.431389 C44.7452778,115.814722 43.7230556,116.209167 42.7091667,116.6175 L66.9147222,124.575833 C43.8980556,127.628611 20.4147222,135.828611 11.9758333,138.975833 C11.8397222,139.734167 11.8369444,140.481389 11.9841667,141.203611 C17.5897222,139.120278 32.1813889,133.948056 48.8397222,130.109167 L25.5813889,152.470278 C26.2980556,152.7425 27.0341667,152.995278 27.7869444,153.236944 L52.7480556,129.2425 C65.8925,126.4425 79.9452778,124.661944 91.6730556,125.953611 C91.7675,125.273056 91.8258333,124.578611 91.8452778,123.875833" id="Fill-42" fill="#FFD5D5"></path>
                    <g id="Group-46" transform="translate(20.444444, 0.022222)">
                        <mask id="mask-8" fill="white">
                            <use xlink:href="#path-7"></use>
                        </mask>
                        <g id="Clip-45"></g>
                        <path d="M77.8147222,17.5602778 C77.8147222,17.5602778 67.2341667,-0.7925 47.0869444,0.860277778 C26.9397222,2.51583333 -3.71583333,37.2575 1.22027778,60.6991667 C6.15638889,84.1463889 99.1647222,53.0963889 77.8147222,17.5602778" id="Fill-44" fill="#FAACAC" mask="url(#mask-8)"></path>
                    </g>
                    <path d="M21.6641667,60.7219444 C21.3669444,59.3163889 21.2030556,57.8691667 21.1530556,56.3886111 C25.1808333,62.6386111 32.2113889,58.8441667 37.7669444,59.3608333 C44.2475,59.9608333 47.8558333,51.0608333 54.0336111,44.9025 C60.2113889,38.7441667 70.2808333,38.1163889 73.3475,33.7302778 C76.4113889,29.3469444 87.1086111,26.7219444 89.4058333,25.3636111 C91.7058333,24.0025 93.9252778,11.9441667 93.9252778,11.9441667 C96.7947222,15.0469444 98.2586111,17.5830556 98.2586111,17.5830556 C119.608611,53.1191667 26.6002778,84.1663889 21.6641667,60.7219444" id="Fill-47" fill="#FF8F8F"></path>
                    <path d="M23.4858333,64.3897222 C31.2691667,55.6425 46.4913889,39.1369444 58.9913889,29.2952778 L22.9358333,44.5591667 C23.0858333,44.0786111 23.2441667,43.5952778 23.4108333,43.1091667 L62.8663889,26.4036111 C64.0163889,25.5980556 65.1330556,24.8702778 66.1997222,24.2341667 C72.1969444,20.6647222 77.7163889,18.0036111 82.3941667,16.0425 C75.5580556,15.3230556 54.7580556,13.2925 43.4108333,13.8563889 C43.8580556,13.4452778 44.3052778,13.0425 44.7552778,12.6452778 C58.4163889,12.2202778 82.4413889,14.8786111 84.6469444,15.1258333 C88.5330556,13.5897222 91.7108333,12.5786111 93.9247222,11.9452778 C94.2275,12.2730556 94.5108333,12.5925 94.7802778,12.9008333 C91.0386111,13.9341667 83.8969444,16.2369444 74.9719444,20.7341667 L73.5636111,59.5369444 C73.1747222,59.7258333 72.7830556,59.9147222 72.3913889,60.0980556 L73.7969444,21.3341667 C71.5552778,22.4925 69.2136111,23.7813889 66.7886111,25.2230556 C62.0469444,28.0452778 56.3886111,32.6952778 50.6580556,37.9730556 L44.1219444,68.4952778 C43.7163889,68.5397222 43.3163889,68.5841667 42.9163889,68.6202778 L49.1886111,39.3369444 C39.5663889,48.3591667 29.9469444,58.8563889 24.2969444,65.2091667 C24.0052778,64.9508333 23.7358333,64.6786111 23.4858333,64.3897222" id="Fill-49" fill="#FFD5D5"></path>
                </g>
            </g>
        </g>
    </g>
</svg>