<?xml version="1.0" encoding="UTF-8"?>
<svg width="51px" height="51px" viewBox="0 0 51 51" version="1.1" xmlns="http://www.w3.org/2000/svg" xmlns:xlink="http://www.w3.org/1999/xlink">
    <!-- Generator: Sketch 57.1 (83088) - https://sketch.com -->
    <title>mobile</title>
    <desc>Created with Sketch.</desc>
    <g id="For-Hospitals" stroke="none" stroke-width="1" fill="none" fill-rule="evenodd">
        <g transform="translate(-866.000000, -125.000000)" fill="#0A1B43" fill-rule="nonzero" id="Header">
            <g>
                <g id="mobile" transform="translate(866.160000, 125.280000)">
                    <path d="M13.6500328,17.8499672 L7.35003281,17.8499672 C3.29263594,17.8545937 0.0046265625,21.1426031 0,25.2 L0,31.5 C0,33.2396859 1.41031406,34.65 3.15,34.65 L4.20003281,34.65 L4.20003281,32.5500328 L3.15,32.5500328 C2.57010469,32.5500328 2.09996719,32.0798953 2.09996719,31.5 L2.09996719,25.2 C2.1034125,22.3019016 4.45193437,19.9534781 7.34993437,19.9500328 L12.6,19.9500328 L12.6,33.6000656 L14.6999672,33.6000656 L14.6999672,18.9 C14.6999672,18.3201047 14.2299281,17.8499672 13.6500328,17.8499672 Z" id="Path"></path>
                    <path d="M36.7499672,24.1499672 C36.1700719,24.1499672 35.6999344,24.6201047 35.6999344,25.2 L35.6999344,31.5 C35.6999344,32.0798953 35.2297969,32.5500328 34.6499016,32.5500328 L34.6499016,34.65 C36.3895875,34.65 37.7999016,33.2396859 37.7999016,31.5 L37.7999016,26.2500328 L40.9499016,26.2500328 L40.9499016,24.1499672 L36.7499672,24.1499672 L36.7499672,24.1499672 Z" id="Path"></path>
                    <path d="M37.8,19.9500328 L37.8,15.75 C37.8,14.0103141 36.3896859,12.6 34.65,12.6 L15.75,12.6 C14.0103141,12.6 12.6,14.0103141 12.6,15.75 L12.6,33.5999672 L14.6999672,33.5999672 L14.6999672,15.75 C14.6999672,15.1701047 15.1701047,14.6999672 15.75,14.6999672 L34.65,14.6999672 C35.2298953,14.6999672 35.7000328,15.1701047 35.7000328,15.75 L35.7000328,20.9999672 C35.7000328,21.5798625 36.1701703,22.05 36.7500656,22.05 L42.0000328,22.05 L42.0000328,19.9500328 L37.8,19.9500328 Z" id="Path"></path>
                    <path d="M7.35003281,29.4000328 C5.03045156,29.4000328 3.15,31.2803859 3.15,33.5999672 C3.15,35.9196469 5.03045156,37.8 7.35003281,37.8 C9.66961406,37.8 11.5500656,35.9196469 11.5500656,33.5999672 C11.5499672,31.2803859 9.66961406,29.4000328 7.35003281,29.4000328 Z M7.35003281,35.7000328 C6.19024219,35.7000328 5.25006563,34.7598562 5.25006563,33.6000656 C5.25006563,32.440275 6.19024219,31.5000984 7.35003281,31.5000984 C8.50982344,31.5 9.45,32.4401766 9.45,33.5999672 C9.45,34.7597578 8.50982344,35.7000328 7.35003281,35.7000328 Z" id="Shape"></path>
                    <path d="M31.5,29.4000328 C29.1804188,29.4000328 27.2999672,31.2803859 27.2999672,33.6000656 C27.2999672,35.9196469 29.1804188,37.8 31.5,37.8 C33.8195813,37.8 35.7000328,35.9196469 35.7000328,33.5999672 C35.7000328,31.2803859 33.8195813,29.4000328 31.5,29.4000328 Z M31.5,35.7000328 C30.3402094,35.7000328 29.4000328,34.7598562 29.4000328,33.6000656 C29.4000328,32.440275 30.3402094,31.5000984 31.5,31.5000984 C32.6597906,31.5000984 33.5999672,32.440275 33.5999672,33.6000656 C33.5999672,34.7597578 32.6597906,35.7000328 31.5,35.7000328 Z" id="Shape"></path>
                    <rect id="Rectangle" x="10.5000328" y="32.5500328" width="17.8499672" height="2.09996719"></rect>
                    <path d="M30.4499672,19.9500328 L28.35,19.9500328 L28.35,17.8500656 C28.35,17.2701703 27.8798625,16.8000328 27.2999672,16.8000328 L23.0999344,16.8000328 C22.5200391,16.8000328 22.0499016,17.2701703 22.0499016,17.8500656 L22.0499016,19.9500328 L19.9499344,19.9500328 C19.3700391,19.9500328 18.8999016,20.4201703 18.8999016,21.0000656 L18.8999016,25.2 C18.8999016,25.7798953 19.3700391,26.2500328 19.9499344,26.2500328 L22.05,26.2500328 L22.05,28.35 C22.05,28.9298953 22.5201375,29.4000328 23.1000328,29.4000328 L27.3000656,29.4000328 C27.8799609,29.4000328 28.3500984,28.9298953 28.3500984,28.35 L28.3500984,26.2500328 L30.4500656,26.2500328 C31.0299609,26.2500328 31.5000984,25.7798953 31.5000984,25.2 L31.5000984,20.9999672 C31.5000984,20.4200719 31.0298625,19.9500328 30.4499672,19.9500328 Z M29.4000328,24.1499672 L27.3000656,24.1499672 C26.7201703,24.1499672 26.2500328,24.6201047 26.2500328,25.2 L26.2500328,27.2999672 L24.1500656,27.2999672 L24.1500656,25.2 C24.1500656,24.6201047 23.6799281,24.1499672 23.1000328,24.1499672 L21.0000656,24.1499672 L21.0000656,22.05 L23.1000328,22.05 C23.6799281,22.05 24.1500656,21.5798625 24.1500656,20.9999672 L24.1500656,18.9 L26.2500328,18.9 L26.2500328,20.9999672 C26.2500328,21.5798625 26.7201703,22.05 27.3000656,22.05 L29.4000328,22.05 L29.4000328,24.1499672 L29.4000328,24.1499672 Z" id="Shape"></path>
                    <path d="M45.1500328,0 L22.05,0 C19.1519016,0.0034453125 16.8034781,2.35196719 16.8000328,5.24996719 L16.8000328,13.6499344 L18.9,13.6499344 L18.9,5.24996719 C18.9,3.51028125 20.3103141,2.09996719 22.05,2.09996719 L45.1500328,2.09996719 C46.8897188,2.09996719 48.3000328,3.51028125 48.3000328,5.24996719 L48.3000328,45.1499344 C48.3000328,46.8896203 46.8897188,48.2999344 45.1500328,48.2999344 L22.05,48.2999344 C20.3103141,48.2999344 18.9,46.8896203 18.9,45.1499344 L18.9,33.5999672 L16.8000328,33.5999672 L16.8000328,45.1499344 C16.8034781,48.0480328 19.1519016,50.3965547 22.05,50.4 L45.1500328,50.4 C48.0481312,50.3965547 50.3965547,48.0480328 50.4,45.1500328 L50.4,5.24996719 C50.3965547,2.35196719 48.0480328,0.0034453125 45.1500328,0 Z" id="Path"></path>
                    <rect id="Rectangle" x="17.8499672" y="8.39996719" width="31.5" height="2.09996719"></rect>
                    <rect id="Rectangle" x="17.8499672" y="39.8999672" width="31.5" height="2.09996719"></rect>
                    <rect id="Rectangle" x="30.4499672" y="44.1" width="6.3" height="2.09996719"></rect>
                    <rect id="Rectangle" x="30.4499672" y="4.20003281" width="6.3" height="2.09996719"></rect>
                    <rect id="Rectangle" x="44.1" y="19.9500328" width="2.09996719" height="2.09996719"></rect>
                    <path d="M44.1,32.5500328 L44.1,34.65 C44.1,35.2298953 43.6298625,35.7000328 43.0499672,35.7000328 L40.95,35.7000328 L40.95,37.8 L43.0499672,37.8 C44.7896531,37.8 46.1999672,36.3896859 46.1999672,34.65 L46.1999672,32.5500328 L44.1,32.5500328 L44.1,32.5500328 Z" id="Path"></path>
                    <rect id="Rectangle" x="44.1" y="28.35" width="2.09996719" height="2.09996719"></rect>
                </g>
            </g>
        </g>
    </g>
</svg>