<?xml version="1.0" encoding="UTF-8"?>
<svg width="51px" height="51px" viewBox="0 0 51 51" version="1.1" xmlns="http://www.w3.org/2000/svg" xmlns:xlink="http://www.w3.org/1999/xlink">
    <!-- Generator: Sketch 57.1 (83088) - https://sketch.com -->
    <title>skyline</title>
    <desc>Created with Sketch.</desc>
    <g id="For-Hospitals" stroke="none" stroke-width="1" fill="none" fill-rule="evenodd">
        <g transform="translate(-695.000000, -125.000000)" fill="#0A1B43" fill-rule="nonzero" id="Header">
            <g>
                <g id="skyline" transform="translate(695.520000, 125.280000)">
                    <path d="M0,48.2058807 L0,49.2538667 C0,49.8325333 0.469221053,50.3017544 1.04798596,50.3017544 L49.2538667,50.3017544 C49.8326316,50.3017544 50.3018526,49.8325333 50.3018526,49.2537684 L50.3018526,48.2057825 L0,48.2057825 L0,48.2058807 Z" id="Path"></path>
                    <path d="M19.9111439,18.8631579 L3.14385965,18.8631579 C2.56509474,18.8631579 2.09587368,19.3323789 2.09587368,19.9111439 L2.09587368,49.2538667 C2.09587368,49.8325333 2.56509474,50.3017544 3.14385965,50.3017544 L19.9111439,50.3017544 C20.4899088,50.3017544 20.9591298,49.8325333 20.9591298,49.2537684 L20.9591298,19.9111439 C20.9591298,19.3323789 20.4899088,18.8631579 19.9111439,18.8631579 Z M18.8631579,48.2058807 L4.19184561,48.2058807 L4.19184561,20.9590316 L18.8631579,20.9590316 L18.8631579,48.2058807 Z" id="Shape"></path>
                    <path d="M47.3352702,6.48 L30.567986,6.48 C29.9892211,6.48 29.52,6.94922105 29.52,7.52798596 L29.52,49.4461474 C29.52,50.0249123 29.9892211,50.4941333 30.567986,50.4941333 L47.3352702,50.4941333 C47.9140351,50.4941333 48.3832561,50.0249123 48.3832561,49.4461474 L48.3832561,7.52798596 C48.3832561,6.94922105 47.9140351,6.48 47.3352702,6.48 Z M46.2872842,48.3981614 L31.6159719,48.3981614 L31.6159719,8.57587368 L46.2872842,8.57587368 L46.2872842,48.3981614 L46.2872842,48.3981614 Z" id="Shape"></path>
                    <path d="M39.8221895,0 L11.5274526,0 C10.9486877,0 10.4794667,0.469221053 10.4794667,1.04798596 L10.4794667,16.7672842 L12.5754386,16.7672842 L12.5754386,2.09587368 L38.7743018,2.09587368 L38.7743018,4.19174737 L40.8701754,4.19174737 L40.8701754,1.04788772 C40.8701754,0.469221053 40.4009544,0 39.8221895,0 Z" id="Path"></path>
                    <rect id="Rectangle" x="6.2877193" y="23.0550035" width="2.09587368" height="18.8631579"></rect>
                    <rect id="Rectangle" x="10.4795649" y="23.0550035" width="2.09587368" height="18.8631579"></rect>
                    <rect id="Rectangle" x="14.6713123" y="23.0550035" width="2.09587368" height="18.8631579"></rect>
                    <rect id="Rectangle" x="30.3906105" y="11.5274526" width="11.5274526" height="2.09587368"></rect>
                    <rect id="Rectangle" x="30.3906105" y="16.7672842" width="11.5274526" height="2.09587368"></rect>
                    <rect id="Rectangle" x="30.3906105" y="22.0070175" width="11.5274526" height="2.09587368"></rect>
                    <rect id="Rectangle" x="30.3906105" y="27.2467509" width="11.5274526" height="2.09587368"></rect>
                    <rect id="Rectangle" x="30.3906105" y="32.4865825" width="11.5274526" height="2.09587368"></rect>
                    <rect id="Rectangle" x="30.3906105" y="37.7263158" width="11.5274526" height="2.09587368"></rect>
                    <rect id="Rectangle" x="15.7192982" y="5.23973333" width="2.09587368" height="3.14385965"></rect>
                    <rect id="Rectangle" x="15.7192982" y="11.5274526" width="2.09587368" height="3.14385965"></rect>
                    <rect id="Rectangle" x="19.9111439" y="11.5274526" width="2.09587368" height="3.14385965"></rect>
                    <rect id="Rectangle" x="19.9111439" y="5.23973333" width="2.09587368" height="3.14385965"></rect>
                    <rect id="Rectangle" x="24.1028912" y="5.23973333" width="2.09587368" height="3.14385965"></rect>
                    <rect id="Rectangle" x="24.1028912" y="11.5274526" width="2.09587368" height="3.14385965"></rect>
                    <rect id="Rectangle" x="24.1028912" y="17.8151719" width="2.09587368" height="3.14385965"></rect>
                    <rect id="Rectangle" x="24.1028912" y="24.1028912" width="2.09587368" height="3.14385965"></rect>
                    <rect id="Rectangle" x="24.1028912" y="30.3906105" width="2.09587368" height="3.14385965"></rect>
                    <rect id="Rectangle" x="24.1028912" y="36.6783298" width="2.09587368" height="3.14385965"></rect>
                    <path d="M39.8221895,42.9660491 L34.5824561,42.9660491 C34.0036912,42.9660491 33.5344702,43.4352702 33.5344702,44.0140351 L33.5344702,49.2537684 L35.6303439,49.2537684 L35.6303439,45.0619228 L38.7742035,45.0619228 L38.7742035,49.2537684 L40.8701754,49.2537684 L40.8701754,44.0140351 C40.8701754,43.4352702 40.4009544,42.9660491 39.8221895,42.9660491 Z" id="Path"></path>
                    <path d="M15.7192982,44.0140351 L7.33570526,44.0140351 C6.75694035,44.0140351 6.2877193,44.4832561 6.2877193,45.0620211 L6.2877193,49.2538667 L8.38359298,49.2538667 L8.38359298,46.110007 L14.6713123,46.110007 L14.6713123,49.2538667 L16.767186,49.2538667 L16.767186,45.0620211 C16.767186,44.4832561 16.2980632,44.0140351 15.7192982,44.0140351 Z" id="Path"></path>
                </g>
            </g>
        </g>
    </g>
</svg>