<?xml version="1.0" encoding="UTF-8"?>
<svg width="48px" height="47px" viewBox="0 0 48 47" version="1.1" xmlns="http://www.w3.org/2000/svg" xmlns:xlink="http://www.w3.org/1999/xlink">
    <!-- Generator: Sketch 57.1 (83088) - https://sketch.com -->
    <title>Fill 4</title>
    <desc>Created with Sketch.</desc>
    <g id="Pricing" stroke="none" stroke-width="1" fill="none" fill-rule="evenodd">
        <g transform="translate(-316.000000, -485.000000)" fill="#BA104A" id="Pricing-Tables">
            <g transform="translate(108.000000, 408.240000)">
                <g id="Basic-Pricing" transform="translate(13.680000, 14.400000)">
                    <g id="Group-4" transform="translate(195.120000, 62.640000)">
                        <g id="Group-13">
                            <path d="M41.1382414,33.0726795 L33.2496903,33.0726795 C33.2022561,33.0726795 33.1582926,33.0929259 33.12532,33.12532 C33.0929259,33.1577141 33.0726795,33.2022561 33.0726795,33.2502688 L33.0726795,43.6875444 C33.0726795,44.4615329 32.7579936,45.1637915 32.2495213,45.6722638 C31.7416275,46.1801576 31.0393689,46.495422 30.2648019,46.495422 L16.2306201,46.495422 C15.4566316,46.495422 14.7537945,46.1801576 14.2459007,45.6722638 C13.7380069,45.1637915 13.422164,44.4615329 13.422164,43.6875444 L13.422164,33.2502688 C13.422164,33.2022561 13.4024961,33.1577141 13.370102,33.12532 C13.3377079,33.0929259 13.2931659,33.0726795 13.2451532,33.0726795 L2.80787761,33.0726795 C2.03388909,33.0726795 1.33163046,32.7579936 0.823158186,32.2495213 C0.315264379,31.7410491 1.70530257e-13,31.0387904 1.70530257e-13,30.2648019 L1.70530257e-13,23.2480002 C1.70530257e-13,22.521446 0.588879152,21.9325668 1.31543339,21.9325668 L15.8563521,21.9325668 C16.4330834,21.9325668 16.9236233,22.304521 17.1006341,22.8216702 L19.0593225,25.6040953 L21.9632256,13.8953498 C22.1136269,13.1855711 22.8106794,12.7326316 23.5198796,12.883033 C24.0052132,12.9860001 24.3702257,13.3446495 24.5050085,13.787755 L24.5067439,13.7871765 L28.1776939,27.8323492 L29.4167697,22.7696082 C29.619233,22.251302 30.114979,21.9348807 30.6396484,21.9348807 L30.6396484,21.9325668 L43.8651337,21.9325668 L43.8651337,16.2306201 C43.8651337,16.1826073 43.8448873,16.1386439 43.8119147,16.1056713 C43.7800991,16.0732771 43.7355571,16.0530308 43.6875444,16.0530308 L33.2496903,16.0530308 C32.4762803,16.0530308 31.7740217,15.7377664 31.2655494,15.2298726 C30.7576556,14.7214003 30.4423912,14.0191417 30.4423912,13.2457317 L30.4423912,2.80787761 C30.4423912,2.75986487 30.4221449,2.71532293 30.3897507,2.68292879 C30.3567781,2.65053465 30.3128147,2.63028831 30.2648019,2.63028831 L16.2306201,2.63028831 C16.1826073,2.63028831 16.1380654,2.65053465 16.1056713,2.68292879 C16.0738556,2.71532293 16.0530308,2.75986487 16.0530308,2.80787761 L16.0530308,13.2457317 C16.0530308,14.0191417 15.7383449,14.7214003 15.2298726,15.2298726 C14.7214003,15.7377664 14.0191417,16.0530308 13.2451532,16.0530308 L5.35775904,16.0530308 C4.88283784,16.9589097 3.93415237,17.5778691 2.84027174,17.5778691 C1.27146992,17.5778691 1.70530257e-13,16.3063992 1.70530257e-13,14.7381759 C1.70530257e-13,13.169374 1.27146992,11.8979041 2.84027174,11.8979041 C3.93415237,11.8979041 4.88283784,12.5162851 5.35775904,13.4227425 L13.2451532,13.4227425 C13.2931659,13.4227425 13.3377079,13.4024961 13.370102,13.3695235 C13.4024961,13.3371294 13.422164,13.2931659 13.422164,13.2457317 L13.422164,2.80787761 C13.422164,2.03331063 13.7380069,1.33163046 14.2459007,0.823158186 C14.7537945,0.315264379 15.4566316,0 16.2306201,0 L30.2648019,0 C31.0393689,0 31.7416275,0.315264379 32.2495213,0.823158186 C32.7579936,1.33163046 33.0726795,2.03331063 33.0726795,2.80787761 L33.0726795,13.2457317 C33.0726795,13.2931659 33.0929259,13.3371294 33.12532,13.3695235 C33.1582926,13.4024961 33.2022561,13.4227425 33.2496903,13.4227425 L43.6875444,13.4227425 C44.4615329,13.4227425 45.16437,13.7380069 45.6722638,14.2459007 C46.1801576,14.7537945 46.4960005,15.4566316 46.4960005,16.2306201 L46.4960005,23.2480002 C46.4960005,23.973976 45.9065428,24.5628552 45.1799886,24.5628552 L31.5322226,24.5628552 L29.262319,32.2373735 C29.1327425,32.629574 28.819792,32.9552508 28.393462,33.0836704 C27.6981449,33.2942323 26.9646491,32.9008749 26.7546657,32.2055579 L23.4683961,19.433012 L20.7501808,30.2700081 L20.7496023,30.2700081 C20.6628323,30.6784056 20.3834329,31.038212 19.9686722,31.2105951 C19.2993862,31.4882591 18.5311824,31.1712593 18.2535183,30.5013948 L14.9811319,24.5628552 L2.63028831,24.5628552 L2.63028831,30.2648019 C2.63028831,30.3128147 2.65053465,30.3573566 2.68350726,30.3897507 C2.71590139,30.4221449 2.75986487,30.4423912 2.80787761,30.4423912 L13.2451532,30.4423912 C14.0191417,30.4423912 14.7214003,30.7576556 15.2298726,31.2655494 C15.7383449,31.7734432 16.0530308,32.4762803 16.0530308,33.2502688 L16.0530308,43.6875444 C16.0530308,43.7355571 16.0738556,43.7795206 16.1056713,43.8119147 C16.1380654,43.8448873 16.1826073,43.8651337 16.2306201,43.8651337 L30.2648019,43.8651337 C30.3128147,43.8651337 30.3567781,43.8448873 30.3897507,43.8119147 C30.4221449,43.7795206 30.4423912,43.7355571 30.4423912,43.6875444 L30.4423912,33.2502688 C30.4423912,32.4762803 30.7576556,31.7734432 31.2655494,31.2655494 C31.7740217,30.7576556 32.4762803,30.4423912 33.2496903,30.4423912 L41.1382414,30.4423912 C41.6125842,29.5359338 42.5618481,28.9169744 43.6557287,28.9169744 C45.2239521,28.9169744 46.4960005,30.1890228 46.4960005,31.7578246 C46.4960005,33.326048 45.2239521,34.5975179 43.6557287,34.5975179 C42.5618481,34.5975179 41.6125842,33.9791369 41.1382414,33.0726795" id="Fill-4"></path>
                        </g>
                    </g>
                </g>
            </g>
        </g>
    </g>
</svg>