<?xml version="1.0" encoding="UTF-8"?>
<svg width="186px" height="50px" viewBox="0 0 186 50" version="1.1" xmlns="http://www.w3.org/2000/svg" xmlns:xlink="http://www.w3.org/1999/xlink">
    <!-- Generator: Sketch 57.1 (83088) - https://sketch.com -->
    <title>Logo</title>
    <desc>Created with Sketch.</desc>
    <g id="Pricing" stroke="none" stroke-width="1" fill="none" fill-rule="evenodd">
        <g transform="translate(-416.000000, -40.000000)" id="Header">
            <g>
                <g id="Logo" transform="translate(416.000000, 40.000000)">
                    <path d="M43.8987654,35.2919753 L35.4808642,35.2919753 C35.4302469,35.2919753 35.3833333,35.3135802 35.3481481,35.3481481 C35.3135802,35.382716 35.2919753,35.4302469 35.2919753,35.4814815 L35.2919753,46.6191358 C35.2919753,47.4450617 34.9561728,48.1944444 34.4135802,48.737037 C33.8716049,49.2790123 33.1222222,49.6154321 32.295679,49.6154321 L17.3197531,49.6154321 C16.4938272,49.6154321 15.7438272,49.2790123 15.2018519,48.737037 C14.6598765,48.1944444 14.3228395,47.4450617 14.3228395,46.6191358 L14.3228395,35.4814815 C14.3228395,35.4302469 14.3018519,35.382716 14.267284,35.3481481 C14.232716,35.3135802 14.1851852,35.2919753 14.1339506,35.2919753 L2.9962963,35.2919753 C2.17037037,35.2919753 1.42098765,34.9561728 0.878395062,34.4135802 C0.336419753,33.8709877 2.12452278e-12,33.1216049 2.12452278e-12,32.295679 L2.12452278e-12,24.8080247 C2.12452278e-12,24.032716 0.628395062,23.404321 1.4037037,23.404321 L16.9203704,23.404321 C17.5358025,23.404321 18.0592593,23.8012346 18.2481481,24.3530864 L20.3382716,27.3222222 L23.437037,14.8277778 C23.5975309,14.0703704 24.341358,13.587037 25.0981481,13.7475309 C25.6160494,13.8574074 26.0055556,14.2401235 26.1493827,14.712963 L26.1512346,14.7123457 L30.0685185,29.7 L31.3907407,24.2975309 C31.6067901,23.7444444 32.1358025,23.4067901 32.695679,23.4067901 L32.695679,23.404321 L46.808642,23.404321 L46.808642,17.3197531 C46.808642,17.2685185 46.787037,17.2216049 46.7518519,17.1864198 C46.7179012,17.1518519 46.6703704,17.1302469 46.6191358,17.1302469 L35.4808642,17.1302469 C34.6555556,17.1302469 33.9061728,16.7938272 33.3635802,16.2518519 C32.8216049,15.7092593 32.4851852,14.9598765 32.4851852,14.1345679 L32.4851852,2.9962963 C32.4851852,2.94506173 32.4635802,2.89753086 32.4290123,2.86296296 C32.3938272,2.82839506 32.3469136,2.80679012 32.295679,2.80679012 L17.3197531,2.80679012 C17.2685185,2.80679012 17.2209877,2.82839506 17.1864198,2.86296296 C17.1524691,2.89753086 17.1302469,2.94506173 17.1302469,2.9962963 L17.1302469,14.1345679 C17.1302469,14.9598765 16.7944444,15.7092593 16.2518519,16.2518519 C15.7092593,16.7938272 14.9598765,17.1302469 14.1339506,17.1302469 L5.71728395,17.1302469 C5.21049383,18.0969136 4.19814815,18.7574074 3.0308642,18.7574074 C1.35679012,18.7574074 2.12452278e-12,17.4006173 2.12452278e-12,15.7271605 C2.12452278e-12,14.0530864 1.35679012,12.6962963 3.0308642,12.6962963 C4.19814815,12.6962963 5.21049383,13.3561728 5.71728395,14.3234568 L14.1339506,14.3234568 C14.1851852,14.3234568 14.232716,14.3018519 14.267284,14.2666667 C14.3018519,14.2320988 14.3228395,14.1851852 14.3228395,14.1345679 L14.3228395,2.9962963 C14.3228395,2.16975309 14.6598765,1.42098765 15.2018519,0.878395062 C15.7438272,0.336419753 16.4938272,-2.84217094e-14 17.3197531,-2.84217094e-14 L32.295679,-2.84217094e-14 C33.1222222,-2.84217094e-14 33.8716049,0.336419753 34.4135802,0.878395062 C34.9561728,1.42098765 35.2919753,2.16975309 35.2919753,2.9962963 L35.2919753,14.1345679 C35.2919753,14.1851852 35.3135802,14.2320988 35.3481481,14.2666667 C35.3833333,14.3018519 35.4302469,14.3234568 35.4808642,14.3234568 L46.6191358,14.3234568 C47.4450617,14.3234568 48.1950617,14.6598765 48.737037,15.2018519 C49.2790123,15.7438272 49.6160494,16.4938272 49.6160494,17.3197531 L49.6160494,24.8080247 C49.6160494,25.582716 48.987037,26.2111111 48.2117284,26.2111111 L33.6481481,26.2111111 L31.2259259,34.4006173 C31.0876543,34.8191358 30.7537037,35.1666667 30.2987654,35.3037037 C29.5567901,35.5283951 28.7740741,35.108642 28.55,34.3666667 L25.0432099,20.737037 L22.1425926,32.3012346 L22.1419753,32.3012346 C22.0493827,32.737037 21.7512346,33.1209877 21.308642,33.3049383 C20.5944444,33.6012346 19.7746914,33.262963 19.4783951,32.5481481 L15.9864198,26.2111111 L2.80679012,26.2111111 L2.80679012,32.295679 C2.80679012,32.3469136 2.82839506,32.3944444 2.86358025,32.4290123 C2.89814815,32.4635802 2.94506173,32.4851852 2.9962963,32.4851852 L14.1339506,32.4851852 C14.9598765,32.4851852 15.7092593,32.8216049 16.2518519,33.3635802 C16.7944444,33.9055556 17.1302469,34.6555556 17.1302469,35.4814815 L17.1302469,46.6191358 C17.1302469,46.6703704 17.1524691,46.717284 17.1864198,46.7518519 C17.2209877,46.787037 17.2685185,46.808642 17.3197531,46.808642 L32.295679,46.808642 C32.3469136,46.808642 32.3938272,46.787037 32.4290123,46.7518519 C32.4635802,46.717284 32.4851852,46.6703704 32.4851852,46.6191358 L32.4851852,35.4814815 C32.4851852,34.6555556 32.8216049,33.9055556 33.3635802,33.3635802 C33.9061728,32.8216049 34.6555556,32.4851852 35.4808642,32.4851852 L43.8987654,32.4851852 C44.4049383,31.5179012 45.4179012,30.8574074 46.5851852,30.8574074 C48.258642,30.8574074 49.6160494,32.2148148 49.6160494,33.8888889 C49.6160494,35.5623457 48.258642,36.9191358 46.5851852,36.9191358 C45.4179012,36.9191358 44.4049383,36.2592593 43.8987654,35.2919753" id="Fill-4" fill="#BA104A"></path>
                    <path d="M174.933951,31.0024691 L172.462346,31.0024691 L172.462346,18.641358 L174.933951,18.641358 C179.017284,18.641358 181.517901,21.1135802 181.517901,24.8080247 C181.517901,28.5302469 179.017284,31.0024691 174.933951,31.0024691 Z M175.017284,15.0858025 L168.767284,15.0858025 L168.767284,34.5302469 L175.017284,34.5302469 C181.462346,34.5302469 185.211728,30.5024691 185.211728,24.8080247 C185.211728,19.1135802 181.462346,15.0858025 175.017284,15.0858025 Z M156.906173,31.0024691 L156.906173,26.5858025 L165.100617,26.5858025 L165.100617,23.0580247 L156.906173,23.0580247 L156.906173,18.641358 L165.961728,18.641358 L165.961728,15.0858025 L153.212346,15.0858025 L153.212346,34.5302469 L166.128395,34.5302469 L166.128395,31.0024691 L156.906173,31.0024691 Z M146.739506,15.0858025 L140.600617,24.9191358 L134.517284,15.0858025 L131.07284,15.0858025 L131.07284,34.5302469 L134.767284,34.5302469 L134.767284,22.2802469 L139.517284,29.9469136 L141.711728,29.9469136 L146.461728,22.2802469 L146.461728,34.5302469 L150.156173,34.5302469 L150.156173,15.0858025 L146.739506,15.0858025 Z M117.850617,33.0858025 C115.517284,33.0858025 114.239506,33.0858025 113.545062,33.0858025 L113.545062,16.5302469 C114.211728,16.5302469 115.517284,16.5302469 117.850617,16.5302469 C122.990123,16.5302469 126.267284,19.8635802 126.267284,24.8080247 C126.267284,29.7246914 123.100617,33.0858025 117.850617,33.0858025 Z M117.489506,15.0858025 L112.100617,15.0858025 L112.100617,34.5302469 L117.489506,34.5302469 C124.100617,34.5302469 127.878395,30.641358 127.878395,24.8080247 C127.878395,18.9746914 123.989506,15.0858025 117.489506,15.0858025 Z M98.7950617,33.0858025 L98.7950617,15.0858025 L97.3506173,15.0858025 L97.3506173,34.5302469 L109.045062,34.5302469 L109.045062,33.0858025 L98.7950617,33.0858025 Z M81.9895062,33.0858025 L81.9895062,25.5302469 L92.4345679,25.5302469 L92.4345679,24.0858025 L81.9895062,24.0858025 L81.9895062,16.5302469 L93.2950617,16.5302469 L93.2950617,15.0858025 L80.5450617,15.0858025 L80.5450617,34.5302469 L93.4617284,34.5302469 L93.4617284,33.0858025 L81.9895062,33.0858025 Z M74.9339506,34.5302469 L76.3783951,34.5302469 L76.3783951,15.0858025 L74.9339506,15.0858025 L74.9339506,34.5302469 Z M71.8783951,16.5302469 L71.8783951,15.0858025 L59.1283951,15.0858025 L59.1283951,34.5302469 L60.5728395,34.5302469 L60.5728395,25.5302469 L70.0179012,25.5302469 L70.0179012,24.0858025 L60.5728395,24.0858025 L60.5728395,16.5302469 L71.8783951,16.5302469 L71.8783951,16.5302469 Z" id="Fill-5" fill="#FFFFFE"></path>
                </g>
            </g>
        </g>
    </g>
</svg>