<?xml version="1.0" encoding="UTF-8"?>
<svg width="301px" height="112px" viewBox="0 0 301 112" version="1.1" xmlns="http://www.w3.org/2000/svg" xmlns:xlink="http://www.w3.org/1999/xlink">
    <!-- Generator: Sketch 57.1 (83088) - https://sketch.com -->
    <title>Group 55</title>
    <desc>Created with Sketch.</desc>
    <g id="Contact" stroke="none" stroke-width="1" fill="none" fill-rule="evenodd">
        <g transform="translate(-317.000000, -677.000000)" id="Form-+-Contact-Info">
            <g transform="translate(130.000000, 532.000000)">
                <g id="Contact-Info" transform="translate(187.000000, 145.000000)">
                    <g id="Contact">
                        <g id="Group-55">
                            <path d="M71.131,57.181 L57.497,57.181 C57.414,57.181 57.331,57.214 57.281,57.264 C57.231,57.314 57.198,57.398 57.198,57.481 L57.198,75.521 C57.198,76.851 56.649,78.082 55.768,78.946 C54.887,79.827 53.673,80.376 52.342,80.376 L28.067,80.376 C26.737,80.376 25.506,79.827 24.642,78.946 C23.76,78.065 23.211,76.851 23.211,75.521 L23.211,57.497 C23.211,57.414 23.178,57.331 23.128,57.281 C23.079,57.231 22.996,57.198 22.912,57.198 L4.855,57.198 C3.525,57.198 2.311,56.649 1.43,55.768 C0.549,54.887 -1.70530257e-12,53.673 -1.70530257e-12,52.326 L-1.70530257e-12,40.188 C-1.70530257e-12,38.924 1.014,37.91 2.278,37.91 L27.418,37.91 C28.416,37.91 29.264,38.559 29.563,39.44 L32.955,44.245 L37.977,23.993 C38.243,22.763 39.44,21.981 40.67,22.247 C41.501,22.43 42.133,23.045 42.366,23.81 L48.718,48.086 L50.863,39.34 C51.212,38.442 52.077,37.894 52.974,37.894 L75.837,37.894 L75.837,28.034 C75.837,27.95 75.804,27.867 75.754,27.817 C75.704,27.768 75.621,27.734 75.537,27.734 L57.48,27.734 C56.15,27.734 54.937,27.186 54.055,26.304 C53.174,25.423 52.625,24.21 52.625,22.879 L52.625,4.855 C52.625,4.772 52.592,4.689 52.542,4.639 C52.492,4.589 52.409,4.556 52.326,4.556 L28.067,4.556 C27.983,4.556 27.9,4.589 27.851,4.639 C27.801,4.689 27.768,4.772 27.768,4.855 L27.768,22.895 C27.768,24.226 27.219,25.457 26.337,26.321 C25.456,27.202 24.243,27.751 22.912,27.751 L9.278,27.751 C8.463,29.314 6.817,30.395 4.922,30.395 C2.211,30.395 0.017,28.2 0.017,25.49 C0.017,22.779 2.211,20.585 4.922,20.585 C6.817,20.585 8.447,21.648 9.278,23.228 L22.912,23.228 C22.996,23.228 23.079,23.195 23.128,23.145 C23.178,23.095 23.211,23.012 23.211,22.929 L23.211,4.855 C23.211,3.525 23.76,2.311 24.642,1.43 C25.506,0.549 26.72,1.13686838e-13 28.067,1.13686838e-13 L52.326,1.13686838e-13 C53.673,1.13686838e-13 54.887,0.549 55.751,1.43 C56.632,2.311 57.181,3.525 57.181,4.855 L57.181,22.895 C57.181,22.979 57.214,23.062 57.264,23.112 C57.314,23.162 57.397,23.195 57.48,23.195 L75.521,23.195 C76.852,23.195 78.081,23.744 78.946,24.625 C79.827,25.506 80.376,26.72 80.376,28.05 L80.376,40.188 C80.376,41.452 79.361,42.466 78.098,42.466 L54.521,42.466 L50.597,55.734 C50.38,56.416 49.832,56.981 49.1,57.198 C47.903,57.564 46.623,56.882 46.273,55.685 L40.57,33.603 L35.865,52.343 C35.715,53.041 35.233,53.673 34.518,53.972 C33.354,54.454 32.024,53.905 31.559,52.742 L25.905,42.482 L4.556,42.482 L4.556,52.343 C4.556,52.426 4.589,52.509 4.639,52.559 C4.689,52.608 4.772,52.642 4.855,52.642 L22.896,52.642 C24.226,52.642 25.456,53.19 26.321,54.072 C27.202,54.953 27.751,56.167 27.751,57.497 L27.751,75.538 C27.751,75.621 27.784,75.704 27.834,75.754 C27.884,75.804 27.967,75.837 28.05,75.837 L52.309,75.837 C52.393,75.837 52.476,75.804 52.525,75.754 C52.575,75.704 52.608,75.621 52.608,75.538 L52.608,57.497 C52.608,56.167 53.157,54.937 54.039,54.072 C54.92,53.19 56.133,52.642 57.464,52.642 L71.098,52.642 C71.913,51.079 73.559,49.998 75.454,49.998 C78.165,49.998 80.359,52.193 80.359,54.903 C80.359,57.613 78.165,59.808 75.454,59.808 C73.592,59.825 71.946,58.744 71.131,57.181" id="Fill-8" fill="#BA104A"></path>
                            <path d="M283.444,50.231 L279.437,50.231 L279.437,30.212 L283.444,30.212 C290.062,30.212 294.119,34.219 294.119,40.205 C294.103,46.224 290.046,50.231 283.444,50.231 Z M283.577,24.442 L273.451,24.442 L273.451,55.951 L283.577,55.951 C294.02,55.951 300.089,49.433 300.089,40.205 C300.088,30.977 294.02,24.442 283.577,24.442 Z M254.23,50.231 L254.23,43.081 L267.499,43.081 L267.499,37.361 L254.23,37.361 L254.23,30.212 L268.896,30.212 L268.896,24.442 L248.245,24.442 L248.245,55.951 L269.179,55.951 L269.179,50.231 L254.23,50.231 Z M237.753,24.442 L227.81,40.371 L217.95,24.442 L212.363,24.442 L212.363,55.951 L218.349,55.951 L218.349,36.098 L226.047,48.518 L229.605,48.518 L237.304,36.098 L237.304,55.951 L243.29,55.951 L243.29,24.442 L237.753,24.442 Z M190.947,53.606 C187.173,53.606 185.095,53.606 183.964,53.606 L183.964,26.787 C185.045,26.787 187.156,26.787 190.947,26.787 C199.277,26.787 204.581,32.19 204.581,40.205 C204.581,48.169 199.46,53.606 190.947,53.606 Z M190.365,24.442 L181.636,24.442 L181.636,55.951 L190.365,55.951 C201.073,55.951 207.192,49.649 207.192,40.205 C207.192,30.744 200.891,24.442 190.365,24.442 Z M160.07,53.606 L160.07,24.442 L157.726,24.442 L157.726,55.951 L176.681,55.951 L176.681,53.606 L160.07,53.606 Z M132.852,53.606 L132.852,41.369 L149.778,41.369 L149.778,39.024 L132.852,39.024 L132.852,26.787 L151.175,26.787 L151.175,24.442 L130.507,24.442 L130.507,55.951 L151.44,55.951 L151.44,53.606 L132.852,53.606 Z M121.412,55.951 L123.757,55.951 L123.757,24.442 L121.412,24.442 L121.412,55.951 Z M116.457,26.787 L116.457,24.442 L95.806,24.442 L95.806,55.951 L98.15,55.951 L98.15,41.369 L113.447,41.369 L113.447,39.024 L98.15,39.024 L98.15,26.787 L116.457,26.787 L116.457,26.787 Z" id="Fill-9" fill="#10162B"></path>
                            <path d="M196.717,81.058 C196.717,80.675 196.634,80.143 196.284,79.744 C195.969,79.412 195.503,79.229 194.888,79.229 L193.541,79.229 L193.541,82.87 L194.888,82.87 C195.503,82.87 195.969,82.704 196.284,82.371 C196.634,81.989 196.717,81.457 196.717,81.058 Z M193.325,77.898 L194.904,77.898 C196.168,77.898 196.899,78.414 197.299,78.846 C197.814,79.412 198.08,80.177 198.08,81.074 C198.08,81.972 197.814,82.737 197.299,83.302 C196.916,83.735 196.168,84.267 194.904,84.267 L193.558,84.267 L193.558,87.509 L192.062,87.509 L192.062,77.915 L193.325,77.915 L193.325,77.898 L193.325,77.898 Z" id="Fill-10" fill="#838D97"></path>
                            <path d="M204.033,80.359 C203.418,80.975 203.068,81.806 203.068,82.688 C203.068,83.568 203.418,84.4 204.033,85.015 C204.648,85.63 205.479,85.98 206.36,85.98 C207.242,85.98 208.073,85.63 208.688,85.015 C209.304,84.4 209.652,83.568 209.652,82.688 C209.652,81.806 209.304,80.991 208.688,80.359 C208.073,79.744 207.242,79.395 206.36,79.395 C205.479,79.395 204.665,79.744 204.033,80.359 Z M204.498,87.11 C203.916,86.861 203.418,86.512 202.969,86.079 C202.52,85.647 202.187,85.131 201.937,84.549 C201.688,83.968 201.556,83.336 201.556,82.688 C201.556,82.039 201.688,81.407 201.937,80.809 C202.187,80.243 202.536,79.744 202.969,79.279 C203.401,78.846 203.916,78.497 204.498,78.265 C205.08,78.015 205.712,77.882 206.36,77.882 C207.009,77.882 207.641,78.015 208.239,78.265 C208.805,78.514 209.304,78.846 209.77,79.279 C210.201,79.728 210.551,80.243 210.783,80.809 C211.033,81.407 211.166,82.039 211.166,82.688 C211.166,83.336 211.033,83.968 210.783,84.549 C210.534,85.131 210.201,85.63 209.77,86.079 C209.32,86.512 208.821,86.861 208.239,87.11 C207.641,87.359 207.009,87.493 206.36,87.493 C205.712,87.476 205.08,87.359 204.498,87.11 L204.498,87.11 Z" id="Fill-11" fill="#838D97"></path>
                            <polyline id="Fill-12" fill="#838D97" points="223.138 87.908 220.61 82.139 218.232 87.908 213.843 77.898 215.489 77.898 218.183 84.217 219.779 80.243 220.561 78.265 223.104 84.217 225.632 77.898 227.277 77.898 223.138 87.908"></polyline>
                            <polyline id="Fill-13" fill="#838D97" points="232.864 81.806 236.373 81.806 236.373 83.169 232.864 83.169 232.864 86.146 237.121 86.146 237.121 87.509 231.385 87.509 231.385 77.915 237.121 77.915 237.121 79.262 232.864 79.262 232.864 81.806"></polyline>
                            <path d="M244.304,82.903 C244.919,82.903 245.385,82.721 245.684,82.388 C246.05,82.005 246.116,81.457 246.116,81.091 C246.116,80.709 246.05,80.16 245.684,79.777 C245.385,79.445 244.919,79.279 244.304,79.279 L242.957,79.279 L242.957,82.92 L244.304,82.92 L244.304,82.903 Z M248.178,87.476 L246.482,87.476 L244.071,84.233 L242.974,84.233 L242.974,87.476 L241.478,87.476 L241.478,77.882 L244.32,77.882 C245.584,77.882 246.315,78.398 246.715,78.846 C247.214,79.395 247.496,80.177 247.496,81.074 C247.496,81.956 247.23,82.721 246.715,83.286 C246.482,83.552 246.116,83.835 245.601,84.018 L248.178,87.476 L248.178,87.476 Z" id="Fill-14" fill="#838D97"></path>
                            <polyline id="Fill-15" fill="#838D97" points="253.433 81.806 256.94 81.806 256.94 83.169 253.433 83.169 253.433 86.146 257.688 86.146 257.688 87.509 251.952 87.509 251.952 77.915 257.688 77.915 257.688 79.262 253.433 79.262 253.433 81.806"></polyline>
                            <path d="M267.599,82.687 C267.599,81.706 267.333,80.892 266.817,80.343 C266.252,79.711 265.404,79.395 264.29,79.395 L263.509,79.395 L263.509,85.98 L264.29,85.98 C265.404,85.98 266.235,85.664 266.817,85.032 C267.316,84.483 267.599,83.652 267.599,82.687 Z M269.095,82.687 C269.095,84.051 268.696,85.214 267.932,86.046 C267.516,86.512 267,86.877 266.401,87.11 C265.786,87.359 265.088,87.493 264.307,87.493 L262.045,87.493 L262.045,77.898 L264.323,77.898 C265.104,77.898 265.803,78.015 266.418,78.281 C267.033,78.514 267.532,78.879 267.948,79.345 C268.696,80.177 269.095,81.34 269.095,82.687 L269.095,82.687 Z" id="Fill-16" fill="#838D97"></path>
                            <path d="M284.376,84.633 C284.376,84.134 284.209,83.735 283.877,83.402 C283.678,83.203 283.444,83.053 283.146,82.92 C283.012,82.97 282.896,83.037 282.746,83.086 C282.214,83.302 281.682,83.436 281.283,83.519 L281.283,86.096 L281.898,86.096 C282.713,86.096 283.378,85.946 283.794,85.68 C284.192,85.447 284.376,85.115 284.376,84.633 Z M281.283,79.246 L281.283,82.155 C281.582,82.089 281.932,81.989 282.264,81.839 C282.746,81.64 283.112,81.424 283.378,81.174 C283.644,80.925 283.777,80.642 283.777,80.343 C283.777,79.877 283.61,79.694 283.461,79.595 C283.096,79.329 282.397,79.262 281.898,79.262 L281.283,79.262 L281.283,79.246 Z M285.723,84.633 C285.723,85.115 285.623,85.531 285.406,85.93 C285.207,86.295 284.907,86.595 284.525,86.844 C283.86,87.26 282.979,87.476 281.898,87.476 L279.786,87.476 L279.786,77.882 L281.898,77.882 C282.962,77.882 283.728,78.082 284.275,78.481 C284.575,78.697 284.791,78.98 284.941,79.312 C285.074,79.611 285.141,79.944 285.141,80.326 C285.141,80.842 284.975,81.474 284.393,82.089 C284.542,82.189 284.691,82.305 284.824,82.438 C285.107,82.721 285.323,83.037 285.489,83.386 C285.64,83.768 285.723,84.184 285.723,84.633 L285.723,84.633 Z" id="Fill-17" fill="#838D97"></path>
                            <polyline id="Fill-18" fill="#838D97" points="293.038 82.471 293.038 87.493 291.542 87.493 291.542 82.471 288.167 77.898 289.912 77.898 292.29 81.174 294.668 77.898 296.397 77.898 293.038 82.471"></polyline>
                            <path d="M172.923,110.721 C173.422,110.721 173.805,110.322 173.805,109.839 L173.805,101.01 C173.805,100.512 173.405,100.129 172.923,100.129 L170.396,100.129 C169.897,100.129 169.515,100.528 169.515,101.01 L169.515,109.839 C169.515,110.338 169.914,110.721 170.396,110.721 L172.923,110.721" id="Fill-19" fill="#838D97"></path>
                            <path d="M180.256,110.721 C180.755,110.721 181.137,110.322 181.137,109.839 L181.137,96.222 C181.137,95.723 180.738,95.341 180.256,95.341 L177.729,95.341 C177.229,95.341 176.848,95.74 176.848,96.222 L176.848,109.839 C176.848,110.338 177.246,110.721 177.729,110.721 L180.256,110.721" id="Fill-20" fill="#838D97"></path>
                            <path d="M165.591,110.721 C166.09,110.721 166.472,110.322 166.472,109.839 L166.472,106.314 C166.472,105.816 166.073,105.433 165.591,105.433 L163.063,105.433 C162.564,105.433 162.182,105.833 162.182,106.314 L162.182,109.839 C162.182,110.338 162.581,110.721 163.063,110.721 L165.591,110.721" id="Fill-21" fill="#838D97"></path>
                            <path d="M13.551,102.64 L19.205,102.64 L19.205,108.992 C18.439,109.657 17.558,110.155 16.527,110.521 C15.513,110.887 14.349,111.053 13.052,111.053 C11.855,111.053 10.774,110.871 9.827,110.488 C8.879,110.105 8.081,109.59 7.416,108.925 C6.75,108.26 6.252,107.445 5.903,106.514 C5.554,105.583 5.387,104.552 5.387,103.421 C5.387,102.324 5.57,101.31 5.936,100.362 C6.302,99.431 6.817,98.616 7.499,97.918 C8.164,97.219 8.979,96.671 9.893,96.289 C10.808,95.889 11.838,95.69 12.969,95.69 C14.299,95.69 15.463,95.939 16.478,96.421 C17.475,96.92 18.307,97.602 18.972,98.483 L16.727,100.611 C16.261,100.062 15.746,99.597 15.181,99.248 C14.615,98.899 13.917,98.716 13.102,98.716 C12.437,98.716 11.822,98.849 11.307,99.082 C10.774,99.331 10.326,99.664 9.959,100.096 C9.594,100.528 9.311,101.01 9.128,101.592 C8.945,102.158 8.846,102.773 8.846,103.421 C8.846,104.12 8.962,104.768 9.178,105.333 C9.395,105.899 9.71,106.398 10.093,106.797 C10.492,107.196 10.958,107.512 11.489,107.728 C12.021,107.944 12.604,108.061 13.235,108.061 C13.817,108.061 14.349,107.994 14.832,107.844 C15.313,107.711 15.746,107.479 16.128,107.179 L16.128,105.333 L13.535,105.333 L13.535,102.64 L13.551,102.64" id="Fill-22" fill="#838D97"></path>
                            <path d="M31.974,102.673 C32.589,102.673 33.072,102.49 33.421,102.125 C33.77,101.759 33.953,101.293 33.953,100.745 C33.953,100.146 33.77,99.664 33.421,99.314 C33.072,98.965 32.589,98.782 31.974,98.782 L29.929,98.782 L29.929,102.673 L31.974,102.673 Z M26.703,96.056 L32.157,96.056 C33.005,96.056 33.753,96.172 34.402,96.421 C35.05,96.671 35.582,96.987 36.015,97.402 C36.447,97.818 36.763,98.3 36.979,98.866 C37.195,99.414 37.295,100.013 37.295,100.645 C37.295,101.592 37.079,102.424 36.663,103.139 C36.248,103.854 35.649,104.419 34.9,104.835 L38.16,110.704 L34.518,110.704 L31.791,105.317 L29.929,105.317 L29.929,110.704 L26.703,110.704 L26.703,96.056 L26.703,96.056 Z" id="Fill-23" fill="#838D97"></path>
                            <path d="M52.575,104.768 L50.796,99.231 L48.967,104.768 L52.575,104.768 Z M49.083,96.056 L52.758,96.056 L58.112,110.704 L54.487,110.704 L53.374,107.345 L48.219,107.345 L47.105,110.704 L43.63,110.704 L49.083,96.056 L49.083,96.056 Z" id="Fill-24" fill="#838D97"></path>
                            <path d="M69.734,102.856 C70.35,102.856 70.832,102.673 71.198,102.291 C71.563,101.925 71.729,101.426 71.729,100.828 C71.729,100.212 71.547,99.713 71.182,99.314 C70.815,98.932 70.316,98.732 69.701,98.732 L67.789,98.732 L67.789,102.839 L69.734,102.839 L69.734,102.856 Z M64.563,96.056 L69.901,96.056 C70.815,96.056 71.58,96.189 72.229,96.455 C72.877,96.721 73.409,97.07 73.825,97.502 C74.24,97.935 74.557,98.433 74.739,99.015 C74.922,99.597 75.039,100.179 75.039,100.794 C75.039,101.592 74.905,102.274 74.64,102.873 C74.374,103.471 74.008,103.954 73.542,104.353 C73.077,104.751 72.545,105.051 71.946,105.25 C71.348,105.45 70.716,105.55 70.051,105.55 L67.789,105.55 L67.789,110.704 L64.563,110.704 L64.563,96.056 L64.563,96.056 Z" id="Fill-25" fill="#838D97"></path>
                            <polyline id="Fill-26" fill="#838D97" points="80.726 96.056 84.034 96.056 84.034 101.676 90.386 101.676 90.386 96.056 93.694 96.056 93.694 110.704 90.386 110.704 90.386 104.685 84.034 104.685 84.034 110.704 80.726 110.704 80.726 96.056"></polyline>
                            <polygon id="Fill-27" fill="#838D97" points="101.825 110.704 105.134 110.704 105.134 96.056 101.825 96.056"></polygon>
                            <path d="M113.198,96.056 L116.54,96.056 L116.54,104.735 C116.54,105.217 116.59,105.649 116.689,106.048 C116.79,106.431 116.939,106.764 117.155,107.046 C117.372,107.329 117.671,107.545 118.021,107.695 C118.386,107.844 118.818,107.927 119.351,107.927 C119.866,107.927 120.298,107.844 120.664,107.695 C121.029,107.545 121.312,107.329 121.528,107.046 C121.744,106.764 121.911,106.431 121.994,106.048 C122.094,105.666 122.144,105.217 122.144,104.735 L122.144,96.056 L125.502,96.056 L125.502,105.151 C125.502,106.032 125.353,106.83 125.07,107.562 C124.787,108.293 124.372,108.925 123.84,109.44 C123.308,109.956 122.659,110.372 121.895,110.654 C121.129,110.954 120.281,111.086 119.351,111.086 C118.419,111.086 117.571,110.937 116.807,110.654 C116.041,110.372 115.393,109.956 114.861,109.44 C114.329,108.925 113.913,108.276 113.631,107.545 C113.348,106.813 113.198,106.015 113.198,105.134 L113.198,96.056" id="Fill-28" fill="#838D97"></path>
                            <polyline id="Fill-29" fill="#838D97" points="133.55 96.056 136.692 96.056 140.517 102.939 144.258 96.056 147.417 96.056 148.099 110.704 144.79 110.704 144.374 101.127 141.349 106.847 139.636 106.847 136.427 101.193 136.061 110.704 132.901 110.704 133.55 96.056"></polyline>
                            <polyline id="Fill-30" fill="#838D97" points="194.422 96.139 197.731 96.139 197.731 101.759 204.083 101.759 204.083 96.139 207.392 96.139 207.392 110.787 204.083 110.787 204.083 104.768 197.731 104.768 197.731 110.787 194.422 110.787 194.422 96.139"></polyline>
                            <polyline id="Fill-31" fill="#838D97" points="215.106 96.139 225.116 96.139 225.116 99.032 218.415 99.032 218.415 101.892 223.62 101.892 223.62 104.702 218.415 104.702 218.415 107.861 225.599 107.861 225.599 110.787 215.09 110.787 215.09 96.139 215.106 96.139"></polyline>
                            <path d="M240.38,104.868 L238.601,99.331 L236.771,104.868 L240.38,104.868 Z M236.889,96.139 L240.562,96.139 L245.917,110.787 L242.292,110.787 L241.178,107.429 L236.023,107.429 L234.909,110.787 L231.435,110.787 L236.889,96.139 L236.889,96.139 Z" id="Fill-32" fill="#838D97"></path>
                            <polyline id="Fill-33" fill="#838D97" points="252.368 96.139 255.693 96.139 255.693 107.844 262.693 107.844 262.693 110.787 252.368 110.787 252.368 96.139"></polyline>
                            <polyline id="Fill-34" fill="#838D97" points="270.675 99.065 265.936 99.065 265.936 96.139 278.739 96.139 278.739 99.065 274.017 99.065 274.017 110.804 270.675 110.804 270.675 99.065"></polyline>
                            <polyline id="Fill-35" fill="#838D97" points="283.644 96.139 286.953 96.139 286.953 101.759 293.305 101.759 293.305 96.139 296.613 96.139 296.613 110.787 293.305 110.787 293.305 104.768 286.953 104.768 286.953 110.787 283.644 110.787 283.644 96.139"></polyline>
                        </g>
                    </g>
                </g>
            </g>
        </g>
    </g>
</svg>