<?xml version="1.0" encoding="UTF-8"?>
<svg width="557px" height="443px" viewBox="0 0 557 443" version="1.1" xmlns="http://www.w3.org/2000/svg" xmlns:xlink="http://www.w3.org/1999/xlink">
    <!-- Generator: Sketch 57.1 (83088) - https://sketch.com -->
    <title>app</title>
    <desc>Created with Sketch.</desc>
    <g id="Our-Team" stroke="none" stroke-width="1" fill="none" fill-rule="evenodd">
        <g transform="translate(-61.000000, -1702.000000)" id="Hero-+-BG">
            <g transform="translate(-4.320000, 0.000000)">
                <g id="Try-the-only-community-health-platform-developed-by-community-health-experts." transform="translate(63.457896, 1701.640000)">
                    <g id="app" transform="translate(1.053902, 0.360000)">
                        <path d="M165.371232,160.185007 C265.602354,-117.241347 503.966736,222.053386 545.450634,287.018697 C586.936271,351.985749 505.078814,370.2499 505.078814,370.2499 C505.078814,370.2499 527.932891,400.766497 548.136726,442.479319 L5.41530631,442.479319 C-0.971591511,409.902391 -0.979943771,378.547611 7.04145002,352.513551 C42.0610801,238.854606 165.371232,160.185007 165.371232,160.185007 Z" id="Path" fill="#FFFFFF" opacity="0.03515625"></path>
                        <polygon id="Fill-1" fill="#F39B9B" points="365.8595 293.114514 365.8595 371.519203 259.605043 371.519203 259.605043 262.326944"></polygon>
                        <path d="M404.337286,60.1506834 L432.282013,33.3612935 C439.613659,26.3313413 451.215503,26.435203 458.421526,33.594735 C465.549405,40.6771125 465.810543,52.1266265 459.013043,59.5275133 L407.902215,108.440431 L404.337286,60.1506834 Z" id="Fill-2" fill="#F39B9B"></path>
                        <polygon id="Fill-4" fill="#E58484" points="446.125292 113.771502 432.063409 134.092782 407.902215 139.607343 407.902215 106.532838"></polygon>
                        <polygon id="Fill-6" fill="#E58484" points="448.4147 151.494263 436.835606 172.50202 406.887832 185.868523 401.472187 153.116484"></polygon>
                        <path d="M450.632592,196.512071 L421.438557,224.277761 C421.438557,224.277761 408.072053,265.394128 383.536956,284.852861 C359.001859,304.310605 334.129459,303.126582 324.146868,300.588401 C314.164277,298.050219 286.414413,285.3603 286.414413,285.3603 L323.808576,197.882056 L450.632592,196.512071 Z" id="Fill-8" fill="#E58484"></path>
                        <path d="M413.161473,250.985347 L292.036001,250.985347 C289.668944,250.985347 287.749976,249.066379 287.749976,246.699322 L287.749976,4.99538213 C287.749976,2.62832493 289.668944,0.70935671 292.036001,0.70935671 L413.161473,0.70935671 C415.528531,0.70935671 417.447499,2.62832493 417.447499,4.99538213 L417.447499,246.699322 C417.447499,249.066379 415.528531,250.985347 413.161473,250.985347" id="Fill-10" fill="#0E244C"></path>
                        <path d="M411.048828,250.985347 L354.224618,250.985347 L352.598441,0.70935671 L411.048828,0.70935671 C414.582103,0.70935671 417.447697,3.57396082 417.447697,7.1082255 L417.447697,244.586478 C417.447697,248.120743 414.582103,250.985347 411.048828,250.985347" id="Fill-12" fill="#0E244C"></path>
                        <path d="M408.916187,244.716966 L296.285612,244.716966 C294.836494,244.716966 293.662362,243.542835 293.662362,242.094706 L293.662362,7.58788655 C293.662362,6.13975795 294.836494,4.9646372 296.285612,4.9646372 L408.916187,4.9646372 C410.365305,4.9646372 411.538447,6.13975795 411.538447,7.58788655 L411.538447,242.094706 C411.538447,243.542835 410.365305,244.716966 408.916187,244.716966" id="Fill-14" fill="#BA104A"></path>
                        <path d="M321.91774,108.566426 L335.299157,108.566426 C335.38043,108.566426 335.455682,108.531822 335.511369,108.476155 C335.565551,108.421993 335.600167,108.346767 335.600167,108.265523 L335.600167,90.5648633 C335.600167,89.2529232 336.134461,88.0613446 336.996855,87.1992555 C337.85925,86.338671 339.051251,85.8030624 340.363657,85.8030624 L364.172074,85.8030624 C365.485984,85.8030624 366.67648,86.338671 367.538875,87.1992555 C368.40127,88.0613446 368.935563,89.2529232 368.935563,90.5648633 L368.935563,108.265523 C368.935563,108.346767 368.970179,108.421993 369.024361,108.476155 C369.080048,108.531822 369.155301,108.566426 369.236573,108.566426 L386.94351,108.566426 C388.255915,108.566426 389.447916,109.10053 390.310311,109.96262 C391.171201,110.824709 391.706999,112.014783 391.706999,113.328227 L391.706999,125.227464 C391.706999,126.459664 390.707645,127.458664 389.475007,127.458664 L364.807206,127.458664 C363.828922,127.458664 362.996628,126.828271 362.695618,125.949632 L359.373968,117.969667 L354.446428,141.088097 C354.192074,142.291712 353.009103,143.059016 351.806567,142.804753 C350.983303,142.630228 350.363222,142.022403 350.135959,141.270144 L350.132949,141.271648 L343.905044,120.715413 L341.802486,126.038399 C341.459335,126.917038 340.61801,127.454151 339.728525,127.454151 L339.728525,127.458664 L317.292715,127.458664 L317.292715,137.128204 C317.292715,137.209448 317.327331,137.284674 317.381513,137.338837 C317.4372,137.394504 317.512453,137.429108 317.593726,137.429108 L335.299157,137.429108 C336.613067,137.429108 337.805068,137.963212 338.665958,138.825301 C339.528353,139.68739 340.064151,140.877464 340.064151,142.190909 L340.064151,159.890064 C340.064151,159.972812 340.097263,160.046534 340.152949,160.102201 C340.207131,160.156364 340.282384,160.190968 340.363657,160.190968 L364.172074,160.190968 C364.253346,160.190968 364.328599,160.156364 364.384286,160.102201 C364.438468,160.046534 364.473084,159.972812 364.473084,159.890064 L364.473084,142.190909 C364.473084,140.877464 365.007377,139.68739 365.869772,138.825301 C366.732167,137.963212 367.924168,137.429108 369.236573,137.429108 L382.61799,137.429108 C383.423193,135.89149 385.032094,134.842841 386.887823,134.842841 C389.548755,134.842841 391.706999,136.998816 391.706999,139.658804 C391.706999,142.318793 389.548755,144.474768 386.887823,144.474768 C385.032094,144.474768 383.423193,143.426119 382.61799,141.890005 L369.236573,141.890005 C369.155301,141.890005 369.080048,141.923105 369.024361,141.978772 C368.970179,142.034439 368.935563,142.109665 368.935563,142.190909 L368.935563,159.890064 C368.935563,161.203509 368.40127,162.393583 367.538875,163.255672 C366.67648,164.117761 365.485984,164.651865 364.172074,164.651865 L340.363657,164.651865 C339.051251,164.651865 337.85925,164.117761 336.996855,163.255672 C336.134461,162.393583 335.600167,161.203509 335.600167,159.890064 L335.600167,142.190909 C335.600167,142.109665 335.565551,142.034439 335.511369,141.978772 C335.455682,141.923105 335.38043,141.890005 335.299157,141.890005 L317.593726,141.890005 C316.279815,141.890005 315.087814,141.355901 314.226924,140.493812 C313.36453,139.631723 312.830236,138.440145 312.830236,137.128204 L312.830236,125.227464 C312.830236,123.996768 313.828086,122.997767 315.060723,122.997767 L338.214443,122.997767 L342.064365,113.245479 C342.285608,112.578977 342.815386,112.026819 343.539316,111.808664 C344.717772,111.452093 345.96245,112.120099 346.319147,113.298137 L351.89386,131.696893 L356.505339,110.057404 C356.652834,109.365326 357.126925,108.754491 357.829785,108.462615 C358.966099,107.9917 360.269474,108.530318 360.740555,109.664725 L366.291187,122.997767 L387.243015,122.997767 L387.243015,113.328227 C387.243015,113.246983 387.209904,113.171757 387.154217,113.11609 C387.09853,113.061927 387.024783,113.027324 386.94351,113.027324 L369.236573,113.027324 C367.924168,113.027324 366.732167,112.49322 365.869772,111.63113 C365.007377,110.769041 364.473084,109.578967 364.473084,108.265523 L364.473084,90.5648633 C364.473084,90.4836193 364.438468,90.4083933 364.384286,90.3542307 C364.328599,90.2985635 364.253346,90.2654641 364.172074,90.2654641 L340.363657,90.2654641 C340.282384,90.2654641 340.207131,90.2985635 340.152949,90.3542307 C340.097263,90.4083933 340.064151,90.4836193 340.064151,90.5648633 L340.064151,108.265523 C340.064151,109.578967 339.528353,110.769041 338.665958,111.63113 C337.805068,112.49322 336.613067,113.027324 335.299157,113.027324 L321.91774,113.027324 C321.114042,114.563437 319.503637,115.613591 317.647908,115.613591 C314.986976,115.613591 312.830236,113.456111 312.830236,110.796123 C312.830236,108.137639 314.986976,105.980159 317.647908,105.980159 C319.503637,105.980159 321.114042,107.030313 321.91774,108.566426" id="Fill-17" fill="#FFFFFF"></path>
                        <path d="M319.794074,3.31757084 L323.146334,10.3940135 C323.883257,11.9509495 325.452063,12.9430759 327.175178,12.9430759 L378.747944,12.9430759 C380.615476,12.9430759 382.286165,11.7788359 382.931096,10.0270355 L385.403004,3.31757084 L319.794074,3.31757084 Z" id="Fill-18" fill="#0E244C"></path>
                        <path d="M352.67787,12.9434716 L378.747152,12.9434716 C380.615673,12.9434716 382.286363,11.7792316 382.931294,10.026442 L385.403202,3.3179665 L352.598737,3.3179665 L352.67787,12.9434716 Z" id="Fill-20" fill="#0E244C"></path>
                        <path d="M300.885115,196.512071 L259.604548,200.538937 L259.604548,115.27542 C259.604548,111.163486 262.938013,107.830021 267.048958,107.830021 L268.578197,107.830021 C281.473862,107.830021 291.928282,118.284441 291.928282,131.180105 C291.928282,131.180105 291.680992,166.212156 293.665245,176.879245 C294.730569,182.602519 300.885115,196.512071 300.885115,196.512071" id="Fill-22" fill="#F39B9B"></path>
                        <path d="M285.534359,179.22642 C285.534359,179.22642 315.735358,196.237975 325.466703,219.068751 C335.708454,243.09542 336.716407,273.719779 320.155909,292.331792 C310.753954,302.900955 270.615865,299.995795 261.735196,286.853831 C252.855517,273.710877 259.604548,182.77849 259.604548,182.77849 L285.534359,179.22642 Z" id="Fill-24" fill="#F39B9B"></path>
                        <path d="M414.555297,93.994062 L422.908744,89.1471835 C429.767572,85.1687865 438.522617,87.0106003 443.195403,93.4163932 L445.51597,96.5975281 C451.13736,104.304065 448.524991,115.210531 440.022182,119.533155 L430.948627,124.144614 C423.062063,128.154664 413.418754,125.51262 408.677715,118.042493 C403.451989,109.810712 406.123707,98.8864418 414.555297,93.994062" id="Fill-27" fill="#F39B9B"></path>
                        <path d="M408.439723,136.626909 L424.411672,128.489098 C431.137952,125.062652 439.368743,127.386186 443.307574,133.825611 L446.831947,139.585483 C451.27426,146.846898 448.512528,156.355682 440.871276,160.107562 L424.264287,168.261199 C415.91183,172.362251 405.810539,169.289924 401.155557,161.233225 C396.085129,152.459386 399.410681,141.227487 408.439723,136.626909" id="Fill-29" fill="#F39B9B"></path>
                        <path d="M413.998005,176.327591 L429.970943,168.188792 C436.696234,164.762346 444.927025,167.086869 448.865855,173.525304 L452.390229,179.286166 C456.83353,186.547581 454.071799,196.056365 446.429557,199.808245 L429.822569,207.961882 C421.470111,212.062934 411.368821,208.990607 406.713839,200.933908 C401.6444,192.160068 404.968963,180.928169 413.998005,176.327591" id="Fill-31" fill="#F39B9B"></path>
                        <path d="M259.604647,139.443736 L270.971072,139.443736 C272.540867,139.443736 273.812925,138.171678 273.812925,136.601883 L273.812925,128.964587 C273.812925,122.491531 268.564448,117.243054 262.091392,117.243054 L259.604647,117.243054 L259.604647,139.443736 Z" id="Fill-33" fill="#E98C8C"></path>
                        <path d="M411.396616,105.435564 C413.048511,109.116224 416.027858,115.342979 418.826188,119.065184 C420.195184,120.885236 422.64632,121.496537 424.70377,120.519248 L427.692019,119.098815 C433.714019,116.237179 436.015791,108.847173 432.683315,103.071474 C429.638684,97.7962898 422.992526,95.8367661 417.572924,98.6172917 L412.963444,100.98336 C411.338256,101.817221 410.648812,103.767842 411.396616,105.435564" id="Fill-35" fill="#E98C8C"></path>
                        <path d="M403.687112,149.383596 C405.339007,153.064256 408.318354,159.291011 411.116684,163.013216 C412.48568,164.833269 414.936816,165.444569 416.994266,164.46728 L419.982515,163.046848 C426.004514,160.184222 428.306287,152.795205 424.973811,147.019506 C421.92918,141.744322 415.283021,139.784798 409.86342,142.565324 L405.253939,144.931392 C403.628751,145.765253 402.939308,147.715874 403.687112,149.383596" id="Fill-37" fill="#E98C8C"></path>
                        <path d="M409.245393,189.083784 C410.897289,192.764445 413.876635,198.9912 416.674966,202.713405 C418.043962,204.533457 420.496086,205.144757 422.552548,204.167468 L425.541786,202.747036 C431.562796,199.885399 433.864569,192.495393 430.533082,186.720684 C427.487461,181.44451 420.841303,179.484987 415.422691,182.265512 L410.81321,184.63158 C409.187033,185.465441 408.497589,187.417052 409.245393,189.083784" id="Fill-39" fill="#E98C8C"></path>
                        <polygon id="Fill-41" fill="#FFFFFF" points="259.60524 404.682634 378.064929 404.682634 378.064929 336.785779 259.60524 336.785779"></polygon>
                        <polygon id="Fill-43" fill="#0E224A" points="256.565582 442.151831 389.045582 442.151831 389.045582 381.671831 256.565582 381.671831"></polygon>
                        <path d="M365.8595,355.952118 C365.8595,360.437953 362.222363,364.074101 357.737517,364.074101 C353.251681,364.074101 349.615533,360.437953 349.615533,355.952118 C349.615533,351.467271 353.251681,347.831123 357.737517,347.831123 C362.222363,347.831123 365.8595,351.467271 365.8595,355.952118" id="Fill-44" fill="#BA104A"></path>
                    </g>
                </g>
            </g>
        </g>
    </g>
</svg>