<?xml version="1.0" encoding="UTF-8"?>
<svg width="437px" height="431px" viewBox="0 0 437 431" version="1.1" xmlns="http://www.w3.org/2000/svg" xmlns:xlink="http://www.w3.org/1999/xlink">
    <!-- Generator: Sketch 57.1 (83088) - https://sketch.com -->
    <title>Group 4</title>
    <desc>Created with Sketch.</desc>
    <g id="Our-Story" stroke="none" stroke-width="1" fill="none" fill-rule="evenodd">
        <g transform="translate(-77.000000, -1119.000000)" id="Group-4">
            <g transform="translate(41.000000, 1022.000000)">
                <g id="Group-3" fill="#EFF6FA">
                    <path d="M185.485484,495.004565 C109.790712,454.967962 60.3837334,285.381379 140.946354,229.831367 C192.613089,194.206673 233.852762,208.274832 233.852762,208.274832 C233.852762,208.274832 249.306809,69.589315 329.298302,78.8187217 C409.288027,88.0498994 430.014839,232.41546 430.014839,232.41546 C430.014839,232.41546 480.988441,200.039034 492.943225,254.235895 C504.898009,308.430985 556.283355,602.526992 364.011558,512.313909 C364.011558,512.313909 261.180257,535.041167 185.485484,495.004565 Z" id="Fill-1" transform="translate(303.881685, 303.881685) scale(-1, 1) rotate(-45.000000) translate(-303.881685, -303.881685) "></path>
                </g>
                <g id="Group-88" transform="translate(280.454400, 97.459200)">
                    <polygon id="Fill-1" fill="#F39B9B" points="78.9836401 210.72565 78.9836401 267.177026 2.48043063 267.177026 2.48043063 188.5586"></polygon>
                    <g id="Group-87" transform="translate(0.000000, 0.175912)">
                        <path d="M106.687646,42.81578 L126.80785,23.5274193 C132.086634,18.4658537 140.439963,18.5406341 145.628299,23.6954972 C150.760371,28.794809 150.948391,37.0384591 146.054191,42.3670975 L109.254394,77.5843981 L106.687646,42.81578 Z" id="Fill-2" fill="#F39B9B"></path>
                        <polygon id="Fill-4" fill="#E58484" points="136.77501 81.4227697 126.650455 96.0540913 109.254394 100.024575 109.254394 76.2109312"></polygon>
                        <polygon id="Fill-6" fill="#E58484" points="138.423384 108.583158 130.086437 123.708742 108.524039 133.332625 104.624775 109.751156"></polygon>
                        <path d="M140.020266,140.995979 L119.000561,160.987276 C119.000561,160.987276 109.376678,190.59106 91.7114085,204.601348 C74.0461388,218.610924 56.1380108,217.758427 48.950545,215.930936 C41.7630792,214.103446 21.7831777,204.966704 21.7831777,204.966704 L48.7069745,141.982368 L140.020266,140.995979 Z" id="Fill-8" fill="#E58484"></path>
                        <path d="M113.041061,180.216738 L25.8307209,180.216738 C24.1264397,180.216738 22.7447826,178.835081 22.7447826,177.1308 L22.7447826,3.10396312 C22.7447826,1.39968194 24.1264397,0.0180248164 25.8307209,0.0180248164 L113.041061,0.0180248164 C114.745342,0.0180248164 116.126999,1.39968194 116.126999,3.10396312 L116.126999,177.1308 C116.126999,178.835081 114.745342,180.216738 113.041061,180.216738" id="Fill-10" fill="#0E244C"></path>
                        <path d="M111.519956,180.216738 L70.6065248,180.216738 L69.4356772,0.0180248164 L111.519956,0.0180248164 C114.063914,0.0180248164 116.127142,2.08053978 116.127142,4.62521034 L116.127142,175.609552 C116.127142,178.154223 114.063914,180.216738 111.519956,180.216738" id="Fill-12" fill="#0E244C"></path>
                        <path d="M109.939554,175.732077 L28.8455395,175.732077 C27.8021747,175.732077 26.9568,174.886702 26.9568,173.84405 L26.9568,4.99913953 C26.9568,3.95648694 27.8021747,3.1104 28.8455395,3.1104 L109.939554,3.1104 C110.982919,3.1104 111.827581,3.95648694 111.827581,4.99913953 L111.827581,173.84405 C111.827581,174.886702 110.982919,175.732077 109.939554,175.732077" id="Fill-14" fill="#BA104A"></path>
                        <path d="M91.7458874,101.802397 L81.8072904,101.802397 C81.7475291,101.802397 81.6921406,101.827905 81.6505992,101.868718 C81.6097866,101.909531 81.5842787,101.96565 81.5842787,102.02614 L81.5842787,115.175978 C81.5842787,116.15112 81.1878134,117.03589 80.5472014,117.67651 C79.9073181,118.316401 79.0225592,118.7136 78.0467008,118.7136 L60.3653704,118.7136 C59.3902408,118.7136 58.5047531,118.316401 57.8648698,117.67651 C57.2249866,117.03589 56.8270637,116.15112 56.8270637,115.175978 L56.8270637,102.02614 C56.8270637,101.96565 56.8022846,101.909531 56.761472,101.868718 C56.7206594,101.827905 56.6645421,101.802397 56.604052,101.802397 L43.4543779,101.802397 C42.4792483,101.802397 41.5944894,101.405927 40.9538773,100.765307 C40.3139941,100.124687 39.9168,99.2399169 39.9168,98.2647752 L39.9168,89.4243644 C39.9168,88.5089847 40.6587148,87.7670607 41.5740831,87.7670607 L59.8938391,87.7670607 C60.6204492,87.7670607 61.2384686,88.2356826 61.4614803,88.8872347 L63.929185,92.3927892 L67.5877431,77.641037 C67.7772302,76.7467927 68.6554299,76.1761379 69.5489343,76.3656274 C70.1603945,76.4953548 70.6202651,76.9472142 70.7900747,77.5054792 L70.792261,77.5047504 L75.4172032,95.200148 L76.9782852,88.8216423 C77.233364,88.1686325 77.8579425,87.7699759 78.5189609,87.7699759 L78.5189609,87.7670607 L95.1814338,87.7670607 L95.1814338,80.5832248 C95.1814338,80.522734 95.1559259,80.4673448 95.1143845,80.4258028 C95.0743007,80.3849897 95.0181834,80.3594815 94.9576933,80.3594815 L81.8072904,80.3594815 C80.8328896,80.3594815 79.9481307,79.9622825 79.3075186,79.3223913 C78.6676353,78.6817713 78.2704413,77.7970014 78.2704413,76.8225884 L78.2704413,63.6720219 C78.2704413,63.6115311 78.2449334,63.555413 78.2041208,63.5145999 C78.1625794,63.4737868 78.1071909,63.4482786 78.0467008,63.4482786 L60.3653704,63.4482786 C60.3048803,63.4482786 60.248763,63.4737868 60.2079504,63.5145999 C60.1678666,63.555413 60.1416299,63.6115311 60.1416299,63.6720219 L60.1416299,76.8225884 C60.1416299,77.7970014 59.7451647,78.6817713 59.1045526,79.3223913 C58.4639405,79.9622825 57.5791816,80.3594815 56.604052,80.3594815 L46.6669126,80.3594815 C46.0685707,81.500791 44.8733446,82.2806129 43.4951905,82.2806129 C41.5186946,82.2806129 39.9168,80.6786984 39.9168,78.7029066 C39.9168,76.7263861 41.5186946,75.1244716 43.4951905,75.1244716 C44.8733446,75.1244716 46.0685707,75.9035647 46.6669126,77.0456029 L56.604052,77.0456029 C56.6645421,77.0456029 56.7206594,77.0200947 56.761472,76.9785528 C56.8022846,76.9377397 56.8270637,76.8823505 56.8270637,76.8225884 L56.8270637,63.6720219 C56.8270637,62.6961513 57.2249866,61.8121103 57.8648698,61.1714902 C58.5047531,60.531599 59.3902408,60.1344 60.3653704,60.1344 L78.0467008,60.1344 C79.0225592,60.1344 79.9073181,60.531599 80.5472014,61.1714902 C81.1878134,61.8121103 81.5842787,62.6961513 81.5842787,63.6720219 L81.5842787,76.8225884 C81.5842787,76.8823505 81.6097866,76.9377397 81.6505992,76.9785528 C81.6921406,77.0200947 81.7475291,77.0456029 81.8072904,77.0456029 L94.9576933,77.0456029 C95.9328229,77.0456029 96.8183106,77.4428019 97.4581939,78.0826931 C98.0980771,78.7225844 98.496,79.6080831 98.496,80.5832248 L98.496,89.4243644 C98.496,90.3390153 97.7533564,91.0809393 96.8379881,91.0809393 L79.6434938,91.0809393 L76.7836966,100.750002 C76.6204462,101.244132 76.2261673,101.65445 75.6890443,101.816244 C74.813031,102.08153 73.8889171,101.585942 73.624364,100.709918 L69.4840714,84.6178921 L66.059457,98.2713344 L66.0587282,98.2713344 C65.9494087,98.7858711 65.5974,99.2391881 65.074853,99.4563722 C64.2316355,99.8061988 63.2637939,99.4068134 62.9139716,98.5628566 L58.7911701,91.0809393 L43.2306374,91.0809393 L43.2306374,98.2647752 C43.2306374,98.325266 43.2561453,98.381384 43.2976867,98.4221972 C43.3384993,98.4630103 43.3938878,98.4885185 43.4543779,98.4885185 L56.604052,98.4885185 C57.5791816,98.4885185 58.4639405,98.8857175 59.1045526,99.5256087 C59.7451647,100.1655 60.1416299,101.050999 60.1416299,102.02614 L60.1416299,115.175978 C60.1416299,115.236469 60.1678666,115.291858 60.2079504,115.332671 C60.248763,115.374213 60.3048803,115.399721 60.3653704,115.399721 L78.0467008,115.399721 C78.1071909,115.399721 78.1625794,115.374213 78.2041208,115.332671 C78.2449334,115.291858 78.2704413,115.236469 78.2704413,115.175978 L78.2704413,102.02614 C78.2704413,101.050999 78.6676353,100.1655 79.3075186,99.5256087 C79.9481307,98.8857175 80.8328896,98.4885185 81.8072904,98.4885185 L91.7458874,98.4885185 C92.3435005,97.3464802 93.5394554,96.5666583 94.9176095,96.5666583 C96.8933766,96.5666583 98.496,98.1693016 98.496,100.145822 C98.496,102.121614 96.8933766,103.723528 94.9176095,103.723528 C93.5394554,103.723528 92.3435005,102.944435 91.7458874,101.802397" id="Fill-4" fill="#FFFFFF"></path>
                        <path d="M45.8165336,1.89593899 L48.2301604,6.99097767 C48.7607452,8.11197165 49.8902855,8.82630262 51.1309281,8.82630262 L88.2633194,8.82630262 C89.6079424,8.82630262 90.8108387,7.98804982 91.2751894,6.72675356 L93.0549632,1.89593899 L45.8165336,1.89593899 Z" id="Fill-18" fill="#0E244C"></path>
                        <path d="M69.4928664,8.8265875 L88.2627496,8.8265875 C89.6080848,8.8265875 90.8109811,7.9883347 91.2753319,6.72632624 L93.0551057,1.89622387 L69.4358908,1.89622387 L69.4928664,8.8265875 Z" id="Fill-20" fill="#0E244C"></path>
                        <path d="M32.2020831,140.995979 L2.48007453,143.895322 L2.48007453,82.5055901 C2.48007453,79.544998 4.88016964,77.1449029 7.84004953,77.1449029 L8.94110206,77.1449029 C18.2259804,77.1449029 25.7531629,84.6720854 25.7531629,93.9569637 C25.7531629,93.9569637 25.5751143,119.18004 27.0037762,126.860345 C27.7708096,130.981101 32.2020831,140.995979 32.2020831,140.995979" id="Fill-22" fill="#F39B9B"></path>
                        <path d="M21.1495383,128.550311 C21.1495383,128.550311 42.8942575,140.79863 49.900826,157.236789 C57.2748867,174.53599 58.0006128,196.585529 46.0770543,209.986179 C39.3076466,217.595976 10.4082225,215.504261 4.01414125,206.042046 C-2.37922781,196.579119 2.48007453,131.107801 2.48007453,131.107801 L21.1495383,128.550311 Z" id="Fill-24" fill="#F39B9B"></path>
                        <path d="M114.044614,67.1830126 L120.059096,63.6932601 C124.997451,60.8288142 131.301084,62.1549202 134.66549,66.7670911 L136.336298,69.0575083 C140.383699,74.6062148 138.502794,82.4588701 132.380771,85.5711596 L125.847812,88.8914099 C120.169486,91.778646 113.226303,89.8763747 109.812755,84.4978827 C106.050232,78.5710009 107.973869,70.7055261 114.044614,67.1830126" id="Fill-27" fill="#F39B9B"></path>
                        <path d="M109.641401,97.8786621 L121.141204,92.0194389 C125.984126,89.5523975 131.910295,91.2253421 134.746253,95.8617276 L137.283802,100.008836 C140.482267,105.237055 138.49382,112.083379 132.992118,114.784733 L121.035087,120.655351 C115.021317,123.608109 107.748388,121.396033 104.396801,115.59521 C100.746093,109.278046 103.14049,101.191078 109.641401,97.8786621" id="Fill-29" fill="#F39B9B"></path>
                        <path d="M113.643364,126.463154 L125.143879,120.603218 C129.986088,118.136177 135.912258,119.809834 138.748216,124.445507 L141.285765,128.593327 C144.484942,133.821546 142.496495,140.667871 136.994081,143.369224 L125.037049,149.239843 C119.02328,152.192601 111.750351,149.980525 108.398764,144.179702 C104.748768,137.862537 107.142453,129.77557 113.643364,126.463154" id="Fill-31" fill="#F39B9B"></path>
                        <path d="M2.48014575,99.9067781 L10.6639715,99.9067781 C11.794224,99.9067781 12.710106,98.9908961 12.710106,97.8606436 L12.710106,92.3617907 C12.710106,87.7011906 8.93120256,83.9222872 4.27060246,83.9222872 L2.48014575,83.9222872 L2.48014575,99.9067781 Z" id="Fill-33" fill="#E98C8C"></path>
                        <path d="M111.770364,75.4208939 C112.959728,78.0709693 115.104858,82.554233 117.119656,85.2342205 C118.105333,86.5446581 119.87015,86.9847943 121.351515,86.2811462 L123.503054,85.2584351 C127.838893,83.1980567 129.49617,77.8772524 127.096787,73.7187493 C124.904653,69.9206166 120.119418,68.5097595 116.217305,70.511738 L112.898479,72.215307 C111.728344,72.8156868 111.231945,74.2201342 111.770364,75.4208939" id="Fill-35" fill="#E98C8C"></path>
                        <path d="M106.21952,107.063477 C107.408885,109.713552 109.554015,114.196816 111.568813,116.876804 C112.55449,118.187241 114.319307,118.627377 115.800672,117.923729 L117.952211,116.901018 C122.28805,114.839928 123.945327,109.519836 121.545944,105.361333 C119.353809,101.5632 114.568575,100.152343 110.666462,102.154321 L107.347636,103.85789 C106.177501,104.45827 105.681102,105.862717 106.21952,107.063477" id="Fill-37" fill="#E98C8C"></path>
                        <path d="M110.221483,135.647613 C111.410848,138.297688 113.555977,142.780952 115.570775,145.460939 C116.556452,146.771377 118.321982,147.211513 119.802634,146.507865 L121.954886,145.485154 C126.290013,143.424776 127.947289,138.103971 125.548619,133.94618 C123.355772,130.147335 118.570538,128.736478 114.669137,130.738457 L111.350311,132.442026 C110.179464,133.042406 109.683064,134.447565 110.221483,135.647613" id="Fill-39" fill="#E98C8C"></path>
                        <polygon id="Fill-41" fill="#FFFFFF" points="2.48057307 290.878784 87.7715491 290.878784 87.7715491 241.993049 2.48057307 241.993049"></polygon>
                        <polygon id="Fill-43" fill="#0E244C" points="2.47986087 317.856606 95.6776191 317.856606 95.6776191 274.311006 2.47986087 274.311006"></polygon>
                        <path d="M78.9836401,255.792813 C78.9836401,259.022614 76.3649013,261.640641 73.1358119,261.640641 C69.9060104,261.640641 67.2879838,259.022614 67.2879838,255.792813 C67.2879838,252.563723 69.9060104,249.945697 73.1358119,249.945697 C76.3649013,249.945697 78.9836401,252.563723 78.9836401,255.792813" id="Fill-44" fill="#BA104A"></path>
                        <path d="" id="Fill-62" fill="#3B2B5B"></path>
                    </g>
                </g>
            </g>
        </g>
    </g>
</svg>