<?xml version="1.0" encoding="UTF-8"?>
<svg width="33px" height="28px" viewBox="0 0 33 28" version="1.1" xmlns="http://www.w3.org/2000/svg" xmlns:xlink="http://www.w3.org/1999/xlink">
    <!-- Generator: Sketch 57.1 (83088) - https://sketch.com -->
    <title>“</title>
    <desc>Created with Sketch.</desc>
    <g id="Home" stroke="none" stroke-width="1" fill="none" fill-rule="evenodd">
        <g transform="translate(-345.000000, -5447.000000)" fill="#FFFFFF" fill-rule="nonzero" id="Communites-Love-FieldMed">
            <g transform="translate(205.200000, 5204.160000)">
                <g id="Testimonial" transform="translate(97.200000, 170.640000)">
                    <path d="M74.88,93.2123077 C74.88,96.5935385 72.0093204,99.36 68.2159223,99.36 C64.2174757,99.36 60.7316505,96.4910769 60.7316505,90.6507692 C60.7316505,78.5603077 68.6260194,73.3347692 74.3673786,72.72 L74.3673786,77.5356923 C69.8563107,78.5603077 66.7805825,83.2735385 66.6780583,87.4744615 C66.9856311,87.2695385 67.703301,86.9621538 68.7285437,86.9621538 C72.1118447,86.9621538 74.88,89.3187692 74.88,93.2123077 Z M57.3483495,93.2123077 C57.3483495,96.5935385 54.4776699,99.36 50.6842718,99.36 C46.6858252,99.36 43.2,96.4910769 43.2,90.6507692 C43.2,78.5603077 51.0943689,73.3347692 56.8357282,72.72 L56.8357282,77.5356923 C52.3246602,78.5603077 49.248932,83.2735385 49.1464078,87.4744615 C49.4539806,87.2695385 50.1716505,86.9621538 51.1968932,86.9621538 C54.5801942,86.9621538 57.3483495,89.3187692 57.3483495,93.2123077 Z" id="“"></path>
                </g>
            </g>
        </g>
    </g>
</svg>