<?xml version="1.0" encoding="UTF-8"?>
<svg width="543px" height="340px" viewBox="0 0 543 340" version="1.1" xmlns="http://www.w3.org/2000/svg" xmlns:xlink="http://www.w3.org/1999/xlink">
    <!-- Generator: Sketch 57.1 (83088) - https://sketch.com -->
    <title>Illustration</title>
    <desc>Created with Sketch.</desc>
    <defs>
        <polygon id="path-1" points="0.000170492987 0.0585631515 126.215609 0.0585631515 126.215609 268.981783 0.000170492987 268.981783"></polygon>
        <polygon id="path-3" points="0.365251028 0.133768818 37.2562463 0.133768818 37.2562463 18.2136061 0.365251028 18.2136061"></polygon>
        <polygon id="path-5" points="0.0893097769 0.104046969 90.5910324 0.104046969 90.5910324 126.761169 0.0893097769 126.761169"></polygon>
    </defs>
    <g id="Community-Health" stroke="none" stroke-width="1" fill="none" fill-rule="evenodd">
        <g transform="translate(-857.000000, -277.000000)" id="Hero">
            <g>
                <g id="Illustration" transform="translate(857.520000, 277.200000)">
                    <g id="Group-3">
                        <mask id="mask-2" fill="white">
                            <use xlink:href="#path-1"></use>
                        </mask>
                        <g id="Clip-2"></g>
                        <path d="M19.5549422,257.000553 C8.50234107,222.240294 -15.2070765,138.167841 14.1231255,138.446521 C14.1231255,138.446521 -3.06288524,86.3899378 13.8899313,84.0070234 C30.8407375,81.6220895 36.9761574,91.8827575 36.9761574,91.8827575 C36.9761574,91.8827575 24.4942367,45.1877316 40.2991748,29.5634866 C56.104113,13.9372223 73.1313104,49.9313469 73.1313104,49.9313469 C73.1313104,49.9313469 75.0451111,3.1817966 98.3162844,0.160745754 C121.587458,-2.85828568 114.440859,60.824093 88.3974896,97.1594994 C88.3974896,97.1594994 119.08062,81.4645748 125.797015,107.591818 C132.50939,133.717042 56.2729778,209.639119 56.2729778,209.639119 C56.2729778,209.639119 102.58213,183.202905 95.2887803,213.776909 C87.9954306,244.348893 53.2655767,259.700517 45.7772283,265.526541 C45.5098591,265.732521 45.2344487,265.934463 44.9530074,266.130347 C35.725754,272.477381 22.9563611,267.703474 19.5549422,257.000553" id="Fill-1" fill="#FFCACA" mask="url(#mask-2)"></path>
                    </g>
                    <path d="M56.4931513,209.538279 C56.4931513,209.538279 132.963266,133.631348 126.228476,107.511336 C119.491669,81.389305 88.715291,97.0810986 88.715291,97.0810986 C114.839824,60.7549599 122.006125,-2.91673345 98.6642295,0.103714716 C89.0358993,1.34742867 83.0552443,10.0332362 79.3490933,19.8072934 C82.9705553,25.2949793 86.6746899,33.5002609 85.9588664,43.512562 C84.6159412,62.3217165 63.2561711,85.5565544 69.4848438,98.2218427 C75.7155329,110.891169 84.3860711,109.774653 82.2769123,125.036396 C80.165737,140.300158 39.8437014,144.346267 39.3113707,180.866231 C38.7810564,217.386195 57.9913396,212.294236 47.0503302,232.886182 C40.8801332,244.499563 36.4884048,258.622581 33.830784,268.727757 C37.641788,269.224435 41.6443504,268.414809 45.138779,266.018237 C45.423092,265.822393 45.697323,265.620491 45.9655047,265.414551 C53.4766105,259.58969 88.3120102,244.241129 95.6275248,213.675243 C102.943039,183.107339 56.4931513,209.538279 56.4931513,209.538279" id="Fill-4" fill="#FF8F8F"></path>
                    <path d="M223.766642,60.2730473 C223.766642,60.2730473 227.635687,56.8514296 232.227522,57.2798861 C236.817331,57.7083427 241.550889,62.6949331 241.190507,67.1866863 C240.834174,71.6744165 242.269628,77.4837239 242.269628,77.4837239 C242.269628,77.4837239 248.060037,80.8671224 250.355954,86.7126374 C252.651871,92.5541293 253.048696,105.870478 238.684029,108.624267 C221.395813,111.939273 208.484822,101.962069 202.747054,95.5472904 C197.009286,89.1345231 208.563783,57.1350558 223.766642,60.2730473" id="Fill-6" fill="#0E244C"></path>
                    <path d="M250.355576,86.5279072 C248.059666,80.6369134 242.269278,77.2239899 242.269278,77.2239899 C242.269278,77.2239899 241.94534,84.9096583 232.478257,86.0959686 C223.00915,87.280251 213.00352,79.4141012 212.143061,71.3329961 C211.853541,68.6257752 211.580219,66.5836991 211.33929,65.0485934 C203.153786,73.8860981 198.746207,90.9263808 202.746839,95.4363878 C208.484588,101.901272 221.395535,111.959561 238.683691,108.619641 C253.050333,105.841444 252.651485,92.4168732 250.355576,86.5279072" id="Fill-8" fill="#0E244C"></path>
                    <path d="M97.7036531,255.857801 L91.2067419,275.970285 C90.6789309,277.602759 91.9037749,279.275294 93.6322554,279.275294 C97.9010786,279.275294 101.920098,277.270255 104.470513,273.865094 L117.974016,255.857801 L97.7036531,255.857801 Z" id="Fill-10" fill="#C87171"></path>
                    <path d="M343.831451,255.857801 L350.328362,275.970285 C350.856173,277.602759 349.631329,279.275294 347.902849,279.275294 C343.634025,279.275294 339.615006,277.270255 337.064591,273.865094 L323.561088,255.857801 L343.831451,255.857801 Z" id="Fill-12" fill="#C87171"></path>
                    <path d="M401.951003,230.705678 L408.447914,250.819882 C408.975725,252.452496 407.750881,254.123171 406.022401,254.123171 C401.753577,254.123171 397.734558,252.117961 395.184143,248.714512 L381.68064,230.705678 L401.951003,230.705678 Z" id="Fill-14" fill="#C87171"></path>
                    <path d="M159.611904,185.492794 L189.630311,119.006825 C193.972242,109.391894 203.547478,103.210435 214.100809,103.210435 L407.723065,103.210435 C426.331049,103.210435 439.296339,121.672151 432.976038,139.166124 L410.67348,200.349668 L159.611904,185.492794 Z" id="Fill-16" fill="#4CB4D4"></path>
                    <path d="M236.022647,200.349668 L410.662415,200.349668 L432.975142,139.166124 C439.298897,121.672151 426.326522,103.210435 407.710387,103.210435 L354.131996,103.210435 C374.499573,106.63181 397.405531,110.974557 402.508523,112.924156 C415.932883,118.055211 404.044062,161.916152 387.352899,172.635924 C375.345028,180.349643 232.215076,188.531105 236.022647,200.349668" id="Fill-18" fill="#2E88BF"></path>
                    <path d="M94.3515876,185.60532 C82.0669562,185.60532 73.0575548,197.161228 76.0445644,209.0862 L86.031496,248.932909 C87.6902739,255.553859 93.6380913,260.194373 100.456616,260.194373 L350.946194,260.194373 C354.622514,260.194373 358.101312,258.528548 360.407074,255.660746 L411.174144,192.526764 L160.257274,185.60532 L94.3515876,185.60532 Z" id="Fill-20" fill="#4CB4D4"></path>
                    <path d="M97.155072,190.228859 C97.155072,190.228859 105.749031,200.4586 106.751525,209.479093 C107.751998,218.501623 160.44558,212.990795 161.884644,206.755234 C163.321686,200.521709 159.594673,189.074578 159.594673,189.074578 L97.155072,190.228859 Z" id="Fill-22" fill="#2E88BF"></path>
                    <path d="M97.155072,238.045383 L97.155072,223.795375 C97.155072,217.509733 100.929223,211.84681 106.727546,209.410343 C116.336309,205.371732 135.207066,200.815196 171.72077,200.349668 L364.33152,200.349668 L364.33152,247.184655 L106.298115,247.184655 C101.247768,247.184655 97.155072,243.093647 97.155072,238.045383" id="Fill-24" fill="#4CB4D4"></path>
                    <path d="M263.146404,215.534972 C226.291699,213.659375 227.150567,213.961825 204.007506,212.234408 C180.864445,210.506991 165.007648,217.412598 138.011778,215.534972 C123.707395,214.542367 117.344515,210.245139 114.519928,206.42087 C111.413085,207.318071 108.844546,208.23963 106.727618,209.136831 C100.929252,211.59094 97.155072,217.292836 97.155072,223.623991 L97.155072,237.979209 C97.155072,243.064025 101.247799,247.184655 106.298184,247.184655 L364.33152,247.184655 L364.33152,211.414342 C364.172246,211.400133 364.012973,211.392013 363.855715,211.371715 C346.714649,209.213966 300.001109,217.412598 263.146404,215.534972" id="Fill-26" fill="#2E88BF"></path>
                    <path d="M410.306688,189.967721 C410.306688,189.967721 407.32031,184.84579 394.53901,185.701795 C381.757711,186.5578 366.420954,188.642424 346.255885,200.543915 C333.099785,208.30637 337.166471,260.194373 337.166471,260.194373 L348.518718,260.194373 L410.306688,189.967721 Z" id="Fill-28" fill="#4CB4D4"></path>
                    <path d="M363.368165,256.601634 L407.626878,233.49098 L414.502195,197.413639 C415.574753,191.792512 410.386331,186.988008 404.861342,188.483463 L359.161063,200.836163 C352.111379,202.74297 347.677195,209.703522 348.930201,216.895079 L348.717312,260.194373 C353.820577,260.194373 358.846797,258.962346 363.368165,256.601634" id="Fill-30" fill="#2E88BF"></path>
                    <path d="M200.805226,91.9353453 C200.805226,91.9353453 188.72535,95.0854438 176.362715,108.149324 C164.00008,121.213204 157.427949,127.940771 166.310627,138.839711 C175.189265,149.73865 207.14913,122.501333 210.992636,113.159385 C214.836141,103.81543 200.805226,91.9353453 200.805226,91.9353453" id="Fill-32" fill="#C87171"></path>
                    <path d="M189.009251,122.627586 C189.009251,122.627586 181.959436,117.663276 172.523624,119.074657 C163.085771,120.48196 159.07305,127.306357 160.916126,134.57334 C162.761242,141.840324 175.125973,139.774241 180.657241,137.608219 C186.188509,135.438118 188.792899,127.961059 189.009251,126.551717 C189.225604,125.142375 189.009251,122.627586 189.009251,122.627586" id="Fill-34" fill="#F39B9B"></path>
                    <path d="M185.635584,159.475051 C192.757263,154.181201 198.806035,150.097374 201.387087,144.097677 C208.12009,128.454099 187.113363,95.6685291 202.320314,91.1188431 C218.879535,86.1658162 243.281105,91.6068857 251.103211,106.334881 C258.955683,121.125393 242.864088,159.981244 247.279205,173.462916 C234.465041,173.118059 202.974181,171.059004 185.635584,159.475051" id="Fill-36" fill="#E5E5E5"></path>
                    <path d="M226.501591,92.2663958 C226.501591,92.2663958 217.708148,88.1575404 209.75822,91.5297324 C204.34498,93.8240274 204.797449,101.333176 207.735421,105.385829 C210.673393,109.440488 214.81317,109.225712 218.836247,105.919759 C222.859324,102.611799 231.81451,94.5325891 226.501591,92.2663958" id="Fill-38" fill="#F39B9B"></path>
                    <path d="M221.825891,78.058312 L222.068615,91.9268617 C222.098705,94.2104785 216.518065,100.106472 212.909304,97.2338585 C211.852152,96.393584 213.218225,93.2495904 214.19915,90.8735032 L216.851057,78.9448217 L221.825891,78.058312 Z" id="Fill-40" fill="#F39B9B"></path>
                    <path d="M222.068736,91.0680307 L221.914331,82.7816776 L216.864,81.5275703 C216.864,81.5275703 218.798352,88.2784459 222.068736,91.0680307" id="Fill-42" fill="#311E69"></path>
                    <path d="M209.046724,134.203792 L208.883537,134.255569 C204.479479,135.649576 199.755017,135.649576 195.350959,134.255569 L195.187772,134.203792 C194.664379,134.038502 194.310144,133.552592 194.310144,133.002955 L194.310144,115.352839 L209.924352,115.352839 L209.924352,133.002955 C209.924352,133.552592 209.570117,134.038502 209.046724,134.203792" id="Fill-44" fill="#FFFFFF"></path>
                    <path d="M209.924352,114.484535 C209.924352,115.44239 206.428218,116.220153 202.118243,116.220153 C197.806278,116.220153 194.310144,115.44239 194.310144,114.484535 C194.310144,113.528658 197.806278,112.750895 202.118243,112.750895 C206.428218,112.750895 209.924352,113.528658 209.924352,114.484535" id="Fill-46" fill="#E1DAEA"></path>
                    <path d="M193.218566,130.964501 C192.909552,130.964501 192.594438,130.920322 192.277292,130.827947 C189.862102,130.1271 188.024281,126.813644 187.524166,124.050422 C187.054545,121.459901 187.672574,119.321216 189.223744,118.182591 C190.941619,116.92147 192.385041,116.97569 193.291753,117.242775 C195.652053,117.937596 196.719372,120.640574 196.833219,120.947822 C197.079211,121.610513 196.733603,122.347506 196.062717,122.590493 C195.39183,122.835488 194.647757,122.496109 194.399732,121.833418 C194.220829,121.365518 193.499118,119.971858 192.545647,119.696741 C192.05773,119.554162 191.455965,119.732887 190.770848,120.236935 C190.049137,120.767088 189.788915,122.024193 190.075566,123.598587 C190.504526,125.96821 191.978443,128.072757 193.007135,128.369964 C193.15351,128.412136 193.423898,128.490454 193.850825,128.036611 C194.336709,127.518506 195.16007,127.490392 195.682548,127.970341 C196.207059,128.450291 196.237554,129.259577 195.751669,129.77969 C195.019794,130.558854 194.141543,130.964501 193.218566,130.964501" id="Fill-48" fill="#FFFFFF"></path>
                    <path d="M221.230266,69.6482242 L218.248774,74.2252247 C215.882479,77.8548352 216.582115,82.8850243 220.092353,85.3703847 C223.331182,87.6670875 227.673745,87.1954432 230.247116,82.8932268 C232.535004,79.0688066 231.296569,74.2600853 231.101556,71.9551801 C230.661268,66.699422 225.040061,64.640592 221.230266,69.6482242" id="Fill-50" fill="#F39B9B"></path>
                    <path d="M218.370004,75.018272 C218.254106,74.5755846 218.216931,74.1212985 218.21037,73.6650792 C218.19725,72.800969 217.952333,71.5154359 216.506887,72.1630353 C214.407601,73.1083371 214.764042,77.7169249 217.189155,78.039758 C218.988856,78.2794665 218.660842,76.1375557 218.370004,75.018272" id="Fill-52" fill="#F39B9B"></path>
                    <path d="M224.671104,79.8000012 C224.671104,79.8000012 226.409731,80.2943705 229.008384,80.0671341 C229.008384,80.0671341 227.477798,83.5086384 224.671104,79.8000012" id="Fill-54" fill="#FFFFFF"></path>
                    <path d="M220.502766,84.285593 C221.973148,84.9997144 224.8953,85.6149884 226.404975,85.2175819 C227.740934,84.8665731 229.498775,83.3556214 229.879296,83.0167164 C229.840003,83.0873216 229.804846,83.1579268 229.763485,83.2305493 C227.114316,87.4608105 222.647332,87.926805 219.315707,85.667438 C217.092555,84.1605209 215.969605,81.701442 216.000626,79.2 C217.152528,81.9737764 219.179215,83.6440942 220.502766,84.285593" id="Fill-56" fill="#C87171"></path>
                    <path d="M251.103433,106.647404 C247.291958,99.5011455 239.539463,94.5609931 230.679758,91.9353453 C231.2951,93.5332166 231.776848,95.5546443 231.357848,97.453622 C230.479367,101.434249 226.451309,115.943563 231.515732,138.556654 C233.096593,145.622617 237.04571,161.458807 229.469316,172.262505 C236.667194,173.043374 243.012905,173.350503 247.279813,173.462916 C242.865142,160.045614 258.955111,121.3695 251.103433,106.647404" id="Fill-58" fill="#D9D0D0"></path>
                    <path d="M215.129088,129.599372 C215.129088,129.599372 214.603764,126.119093 212.740162,124.917255 C210.86857,123.709358 211.14821,123.588164 210.339251,122.600436 C209.112829,121.107734 209.388474,125.454547 209.42243,126.432176 C209.442405,127.066423 203.651855,124.507217 201.143082,124.767783 C199.794817,124.911196 200.543853,127.278512 201.071175,128.217763 C202.577237,130.912303 209.238667,133.566445 209.238667,133.566445 L215.129088,129.599372 Z" id="Fill-60" fill="#F39B9B"></path>
                    <path d="M233.343359,171.858522 C233.343359,171.858522 176.840289,126.372733 157.755749,129.371929 C138.671209,132.371125 155.094526,161.693908 172.236111,179.102547 C193.330187,200.526239 205.683991,207.427614 225.718824,202.102429 C240.513932,198.168 233.343359,171.858522 233.343359,171.858522" id="Fill-62" fill="#0E244C"></path>
                    <path d="M137.058048,203.582062 L124.016342,199.482353 C124.016342,199.482353 123.477676,205.555097 117.398729,206.060485 C116.700458,206.117089 107.882294,206.501184 107.23789,206.774093 C99.3673792,210.105612 126.883243,217.166895 130.659891,215.784153 C134.141271,214.508553 130.899299,209.741732 137.058048,203.582062" id="Fill-64" fill="#C87171"></path>
                    <path d="M153.156977,131.831816 C153.156977,131.831816 148.003527,132.157602 140.365308,153.449011 C132.725089,174.738398 120.009383,203.514784 125.296766,206.993204 C137.726614,215.168199 163.39391,178.180394 168.365449,159.774515 C173.338987,141.364588 153.156977,131.831816 153.156977,131.831816" id="Fill-66" fill="#C87171"></path>
                    <path d="M246.761676,171.727911 C246.761676,171.727911 190.064483,126.381487 170.915059,129.371494 C151.765636,132.361501 168.14559,159.723677 182.521322,179.448076 C200.113932,203.589163 203.814655,205.516191 234.948917,204.471296 C261.127287,203.589163 246.761676,171.727911 246.761676,171.727911" id="Fill-68" fill="#163774"></path>
                    <path d="M266.308992,156.983939 C266.308992,156.983939 194.908748,171.257061 180.825019,187.690942 C172.939909,196.887292 176.046287,246.384817 181.887409,249.185725 C195.912565,255.910329 202.923123,203.973368 202.923123,203.973368 L257.591743,193.957142 L266.308992,156.983939 Z" id="Fill-70" fill="#F39B9B"></path>
                    <path d="M165.201462,132.69913 C165.201462,132.69913 160.148933,134.99482 152.505159,156.126014 C144.865384,177.259216 133.298752,208.193789 136.851717,209.957232 C150.141847,216.559098 175.540452,180.675636 180.513004,162.404515 C185.487555,144.131385 165.201462,132.69913 165.201462,132.69913" id="Fill-72" fill="#F39B9B"></path>
                    <path d="M237.757032,99.9004515 C242.39593,97.5453927 247.866937,98.7735903 256.696522,108.55661 C265.522087,118.33963 282.148157,165.128691 267.337046,169.741526 C252.019434,174.512445 217.647768,110.119218 237.757032,99.9004515" id="Fill-74" fill="#F39B9B"></path>
                    <path d="M257.789054,194.490043 L259.369344,187.778288 L223.560208,183.870691 C223.560208,183.870691 205.334327,193.056582 201.708955,193.917063 C198.081562,194.777545 193.987358,197.628269 193.779212,202.120994 C193.573087,206.611694 183.719512,234.54798 183.048596,239.202678 C182.76568,241.148378 186.425406,243.841179 190.772214,246.31734 C198.984874,235.015677 203.093225,204.532366 203.093225,204.532366 L257.789054,194.490043 Z" id="Fill-76" fill="#C87171"></path>
                    <path d="M255.967898,108.556221 C248.583757,100.307386 243.567325,98.1387731 239.417856,99.077154 C239.643067,100.684359 240.466185,103.007004 242.68043,106.215335 C247.808472,113.647393 253.209557,112.327985 256.280802,119.612091 C259.352046,126.894171 262.319654,147.28521 259.352046,152.060211 C257.903121,154.395016 254.351558,157.291229 249.853311,158.86398 C255.800484,166.45007 261.996785,171.162242 266.518948,169.741497 C281.205516,165.128635 264.721243,118.339298 255.967898,108.556221" id="Fill-78" fill="#C87171"></path>
                    <path d="M266.947246,169.614218 C255.525262,172.113874 234.098192,162.583936 206.454528,131.454408 C206.454528,131.454408 208.63841,129.805997 214.534083,130.142489 C227.14489,130.863544 250.107943,140.191186 257.224733,145.186491 C267.661751,152.519216 273.652288,168.146071 266.947246,169.614218" id="Fill-80" fill="#F39B9B"></path>
                    <path d="M183.900672,126.736902 C183.900672,126.736902 183.955183,122.263488 185.531956,121.045346 C187.106711,119.827204 190.682211,119.347392 191.875391,119.947156 C193.070589,120.544853 192.600182,124.794907 191.475645,126.499065 C190.83363,127.469028 188.073772,130.596075 186.089177,130.945593 C184.104583,131.293043 183.900672,126.736902 183.900672,126.736902" id="Fill-82" fill="#F39B9B"></path>
                    <path d="M267.305938,156.928668 C266.062094,161.616537 260.436527,164.745128 252.943175,162.188474 C243.94348,159.118079 236.296666,150.755771 230.394465,148.453979 C224.492264,146.154193 224.599283,141.478364 221.267559,138.917696 C219.139293,137.284166 214.133629,136.513557 210.791808,136.168389 C236.335032,163.541052 256.129515,171.98564 266.946515,169.61361 C270.881989,168.752695 270.443817,163.011259 267.305938,156.928668" id="Fill-84" fill="#C87171"></path>
                    <path d="M147.46752,208.176273 L136.05695,205.553555 C136.05695,205.553555 134.707976,210.534653 128.643561,211.048871 C127.947188,211.10876 119.154981,211.501135 118.510338,211.779928 C110.663208,215.183265 138.104287,222.396771 141.87067,220.984221 C145.342587,219.681123 141.32551,214.46873 147.46752,208.176273" id="Fill-86" fill="#F39B9B"></path>
                    <path d="M192.575232,243.577432 C192.575232,243.577432 184.799747,258.989334 180.578013,260.845669 C176.358316,262.70406 178.252292,251.96075 178.252292,251.96075 C178.252292,251.96075 179.134111,243.861125 181.69607,243.096388 C184.258029,242.331652 192.575232,243.577432 192.575232,243.577432" id="Fill-88" fill="#F39B9B"></path>
                    <path d="M190.770825,244.582711 C190.770825,244.582711 191.021305,246.631282 190.571195,250.370705 C190.320715,252.452552 189.158714,253.340613 189.94782,255.389184 C190.738809,257.441915 190.44878,257.317129 189.610708,257.564622 C188.770753,257.812114 187.670902,256.362516 187.60122,255.008587 C187.531537,253.650499 186.181206,252.284091 186.574817,249.988028 C186.968429,247.687804 190.770825,244.582711 190.770825,244.582711" id="Fill-90" fill="#F39B9B"></path>
                    <path d="M266.308992,156.983939 C266.308992,156.983939 245.751549,161.098119 224.549483,167.449801 C223.155485,170.636728 221.918614,176.665887 224.200984,187.097481 C225.306916,192.167135 226.285937,196.243015 227.11589,199.482353 L257.614634,193.890615 L266.308992,156.983939 Z" id="Fill-92" fill="#BA104A"></path>
                    <path d="M223.803648,184.096465 C223.985683,185.294176 224.215727,186.558764 224.507784,187.898336 C225.605995,192.995195 226.578183,197.090921 227.402341,200.349668 L257.686175,194.725897 L262.839168,172.595601 L223.803648,184.096465 Z" id="Fill-94" fill="#930C3A"></path>
                    <path d="M252.707498,174.755601 C252.707498,174.755601 243.614365,190.241106 240.432768,199.040409 L256.046976,196.201796 L252.707498,174.755601 Z" id="Fill-96" fill="#0E244C"></path>
                    <g id="Group-100" transform="translate(116.239104, 320.906394)">
                        <mask id="mask-4" fill="white">
                            <use xlink:href="#path-3"></use>
                        </mask>
                        <g id="Clip-99"></g>
                        <path d="M37.2562463,5.30440923 L24.6149835,0.133768818 C24.6149835,0.133768818 21.5863476,3.62470999 14.3279963,3.40817046 C13.5279416,3.38590938 3.10927459,1.91667849 2.32518111,1.9713193 C-7.23158164,2.62498539 21.027706,18.3190427 25.5546986,18.2138085 C29.730545,18.1146455 28.7988105,9.23045322 37.2562463,5.30440923" id="Fill-98" fill="#F39B9B" mask="url(#mask-4)"></path>
                    </g>
                    <path d="M243.755136,244.295253 C261.364574,216.413844 241.591085,190.356753 245.975764,174.159866 C254.56529,142.43205 323.307769,155.087255 327.829848,192.344535 C328.613837,198.80432 322.739983,236.275513 306.603555,260.548645 C300.133627,263.597922 266.949484,262.954164 243.755136,244.295253" id="Fill-101" fill="#BA104A"></path>
                    <path d="M297.219542,147.443478 L299.27232,163.506726 C298.864576,165.698553 286.035718,169.440894 283.15741,165.992826 C282.315811,164.98418 283.004757,162.944563 284.388675,160.860299 L292.406962,149.610951 L297.219542,147.443478 Z" id="Fill-103" fill="#F39B9B"></path>
                    <path d="M299.657154,152.858698 C300.108859,152.378402 302.066245,148.4347 303.579648,144.72 C301.655078,145.421193 298.755676,146.197368 296.64,146.730356 C297.024142,150.473427 297.690116,154.952143 299.657154,152.858698" id="Fill-105" fill="#0E244C"></path>
                    <path d="M327.829663,192.365288 C326.157695,178.628269 315.716508,168.242283 302.778516,162.187826 C304.491016,165.998845 306.124478,171.26245 304.673413,175.47293 C302.089462,182.977955 280.141083,228.704134 275.380534,232.162094 C272.267634,234.423689 271.6029,248.703411 271.513728,258.312667 C287.688245,262.922608 302.448175,262.474728 306.539937,260.550052 C322.722561,236.285823 328.615994,198.823241 327.829663,192.365288" id="Fill-107" fill="#930C3A"></path>
                    <path d="M290.719773,151.780051 C293.231889,151.831252 296.669952,151.856853 296.669952,151.856853 C296.669952,151.856853 295.696992,155.84842 291.737701,158.186613 C289.642568,159.426111 287.404352,159.765319 285.393024,159.502913 L290.719773,151.780051 Z" id="Fill-109" fill="#0E244C"></path>
                    <path d="M296.034153,139.721294 L297.520878,149.536196 C297.758437,152.80985 295.408581,155.687433 292.209451,156.01884 C289.653711,156.283562 288.069983,156.020861 285.001511,155.107471 C282.44577,154.34766 281.51929,151.569095 282.081513,148.081238 C282.810028,143.552682 284.744155,139.596006 285.894337,137.536836 C288.515406,132.844598 294.604839,133.396269 296.034153,139.721294" id="Fill-111" fill="#F39B9B"></path>
                    <path d="M314.019072,247.417854 L284.525568,242.848082 C284.525568,242.848082 298.428109,252.861724 309.101492,256.725115 C310.88172,253.749633 312.518252,250.624193 314.019072,247.417854" id="Fill-113" fill="#0E244C"></path>
                    <path d="M302.163146,134.280421 C302.163146,134.280421 300.57346,125.082263 294.611139,123.666374 C278.377608,119.812123 284.991343,139.16739 284.991343,139.16739 C286.04715,136.794598 287.626876,135.001684 289.863991,135.059058 C294.413922,135.175853 294.792419,140.308708 293.702746,142.902797 C292.690765,145.312473 294.629067,146.679185 295.149002,146.080864 C295.664953,145.480494 295.603199,143.021642 295.603199,143.021642 C295.878107,143.013446 296.011577,145.08298 296.258596,147.443478 C298.443917,146.90458 301.436034,146.119796 303.422146,145.412876 C304.489906,142.845424 305.344512,140.384522 305.344512,139.222715 C305.344512,136.366347 302.163146,134.280421 302.163146,134.280421" id="Fill-115" fill="#0E244C"></path>
                    <path d="M300.728041,135.707579 C292.857045,137.097826 285.809068,132.527043 283.683425,130.964501 C283.444611,135.065927 284.974206,139.444609 284.974206,139.444609 C286.020251,137.151297 287.585371,135.418439 289.801803,135.473891 C294.309666,135.584794 294.68269,140.547697 293.605066,143.054894 C292.602441,145.383854 294.520849,146.704786 295.035976,146.126507 C295.549131,145.546247 295.487947,143.169757 295.487947,143.169757 C295.75834,143.161836 295.892549,145.162048 296.137284,147.443478 C298.302401,146.922631 301.26488,146.164135 303.234603,145.480894 C303.362891,145.175911 303.487232,144.876869 303.6096,144.577828 C299.180684,141.700294 300.728041,135.707579 300.728041,135.707579" id="Fill-117" fill="#0E244C"></path>
                    <path d="M311.416704,203.818926 C311.416704,203.818926 313.411642,220.027799 320.972973,227.236419 C322.860827,220.881531 324.286633,214.799195 325.296,209.512473 L311.416704,203.818926 Z" id="Fill-119" fill="#0E244C"></path>
                    <path d="M288.862848,145.596989 C288.862848,145.596989 286.659507,145.789054 283.732073,144.841535 C283.732073,144.841535 283.33023,146.971319 284.39987,147.927375 C285.47145,148.885565 287.773796,148.025542 288.862848,145.596989" id="Fill-121" fill="#FFFFFF"></path>
                    <path d="M245.333797,258.083936 C186.656679,253.203668 66.8234118,286.174842 68.5474282,290.307882 C69.7021557,293.076068 75.5424125,298.719764 75.5424125,298.719764 C75.5424125,298.719764 252.353007,312.32984 266.2057,304.713786 C283.07845,295.437226 255.203488,258.904064 245.333797,258.083936" id="Fill-123" fill="#0E244C"></path>
                    <path d="M284.590925,151.412951 C287.641471,151.301518 289.15071,156.289161 295.099476,152.814113 C296.209859,152.164089 297.039639,150.296561 297.488603,149.178107 L297.520672,149.396846 C297.761188,152.739825 295.382082,155.678345 292.145136,156.01677 C289.557583,156.287097 287.952138,156.018833 284.845471,155.086101 C283.268086,154.613544 282.306022,153.369213 281.9232,151.66677 C282.436301,151.842173 283.658925,151.445968 284.590925,151.412951" id="Fill-125" fill="#C87171"></path>
                    <path d="M295.541685,144.21729 C295.754674,143.66422 295.885154,143.08778 295.981095,142.501603 C296.161464,141.38962 296.685301,139.781042 298.178143,140.863813 C300.350246,142.441233 299.064637,148.314686 296.284268,148.310793 C294.2177,148.308843 295.000578,145.607756 295.541685,144.21729" id="Fill-127" fill="#F39B9B"></path>
                    <path d="M306.39137,260.88681 C306.39137,260.88681 291.215754,262.428404 274.012005,255.742143 C251.680294,247.064658 226.426694,229.095457 213.786751,230.821721 C191.922137,233.808559 210.624238,261.141735 227.037359,280.845228 C247.124576,304.962737 260.660295,308.601941 283.491457,307.797021 C319.809809,306.516374 306.39137,260.88681 306.39137,260.88681" id="Fill-129" fill="#163774"></path>
                    <path d="M207.222061,233.44268 C185.938571,250.456713 139.21217,316.629999 140.556263,320.876467 C141.841829,324.935857 148.376623,332.59197 153.343309,331.131556 C176.711555,324.268008 225.01212,284.271552 229.744699,269.180599 C235.484339,250.879148 214.94555,227.27112 207.222061,233.44268" id="Fill-131" fill="#163774"></path>
                    <path d="M83.2663903,290.791863 C83.4930808,286.212699 79.5381421,286.212699 79.5381421,286.212699 C79.5381421,286.212699 72.039141,286.995738 66.8859814,281.748569 C66.3172312,281.17138 59.722968,272.806182 59.1117134,272.293574 C51.675457,266.057515 61.4393385,297.159101 64.8214791,300.258967 C67.1470802,302.392143 70.7903196,299.015791 76.1904099,298.458784 C78.9309355,298.176244 83.1287569,293.536536 83.2663903,290.791863" id="Fill-133" fill="#C87171"></path>
                    <path d="M317.294785,171.728286 C317.294785,171.728286 372.409198,205.932585 368.466967,235.302461 C363.964737,268.822472 294.165007,249.65232 275.488939,238.110262 C269.155088,234.194278 273.038691,230.363074 282.295858,228.661438 C300.333082,225.349 335.902116,226.62876 335.902116,226.62876 C335.902116,226.62876 309.392127,212.906669 309.382019,192.061122 C309.373932,177.903025 317.294785,171.728286 317.294785,171.728286" id="Fill-135" fill="#F39B9B"></path>
                    <path d="M324.144311,176.064859 C329.163518,186.375541 337.942575,204.005834 341.718622,209.067958 C347.152891,216.357172 354.613874,228.406565 352.317875,230.137171 C350.021876,231.863724 344.571411,225.976827 343.421387,228.992215 C342.275412,232.007603 348.30089,241.915018 343.567164,244.930406 C338.833439,247.945794 314.34886,242.227094 303.925755,241.844091 C296.136772,241.556332 287.280778,240.287762 280.188288,240.666712 C303.854891,252.148694 364.283794,266.439363 368.466804,235.227665 C371.536234,212.296125 338.833439,186.430256 324.144311,176.064859" id="Fill-137" fill="#C87171"></path>
                    <path d="M244.559067,234.604887 L244.739278,234.697174 C249.578949,237.196953 255.071385,238.139888 260.467708,237.397578 L260.667942,237.36949 C261.308693,237.281216 261.819292,236.78768 261.929421,236.149694 L265.441536,215.605761 L247.288265,212.492072 L243.776149,233.031992 C243.668022,233.669977 243.984393,234.307963 244.559067,234.604887" id="Fill-139" fill="#FFFFFF"></path>
                    <path d="M247.231776,212.644558 C247.039004,213.784072 250.95871,215.416899 255.98485,216.29141 C261.01099,217.16592 265.243952,216.949841 265.434716,215.810327 C265.627489,214.668775 261.70979,213.035948 256.681642,212.163476 C251.655502,211.286927 247.424549,211.503006 247.231776,212.644558" id="Fill-141" fill="#E1DAEA"></path>
                    <path d="M263.107505,234.990838 C263.457476,235.049805 263.821367,235.057667 264.197189,235.01639 C267.06457,234.688142 269.788781,231.28969 270.896362,228.262728 C271.934346,225.424461 271.653971,222.886923 270.126822,221.302683 C268.43463,219.547438 266.792149,219.333192 265.714396,219.460954 C262.910646,219.795099 261.174707,222.649091 260.98779,222.973408 C260.578164,223.675113 260.822747,224.573373 261.534621,224.978279 C262.242518,225.383184 263.149263,225.14142 263.562865,224.439715 C263.855171,223.944394 264.944856,222.50757 266.07431,222.377844 C266.654944,222.311015 267.29921,222.629435 267.973303,223.329174 C268.685178,224.066259 268.732901,225.536497 268.100566,227.262259 C267.152063,229.860728 265.074107,231.956014 263.855171,232.097534 C263.680186,232.11719 263.360041,232.154536 262.968311,231.560937 C262.518916,230.878888 261.594275,230.690194 260.912228,231.132445 C260.224216,231.576661 260.029345,232.486715 260.47874,233.164833 C261.152834,234.18889 262.063555,234.813937 263.107505,234.990838" id="Fill-143" fill="#FFFFFF"></path>
                    <path d="M279.320832,231.455981 C279.320832,231.455981 279.043236,228.814939 277.298913,226.902599 C275.485682,224.917792 274.928522,223.760323 273.323981,223.724089 C271.105185,223.675777 271.754877,225.716948 270.776402,225.755195 C270.051897,225.78539 270.536213,222.612919 267.638194,222.920906 C266.080903,223.085971 265.005958,229.763057 265.614306,230.862149 C267.354692,234.010465 276.529126,238.511509 276.529126,238.511509 L279.320832,231.455981 Z" id="Fill-145" fill="#F39B9B"></path>
                    <path d="M175.156778,141.372276 C175.179168,146.277453 174.82092,153.719162 172.826129,159.362644 C169.583575,168.545944 163.302018,170.481719 160.708789,179.294855 C158.638684,186.336059 150.920063,198.523148 148.334976,208.155499 C161.476173,199.738822 176.734291,176.256679 180.499969,162.574776 C182.926287,153.751526 179.441508,146.518161 175.156778,141.372276" id="Fill-147" fill="#C87171"></path>
                    <path d="M348.717312,196.9105 C334.132929,182.39858 316.762445,171.728286 316.762445,171.728286 C316.762445,171.728286 308.806219,177.864859 308.814336,191.937449 C308.822465,205.793384 320.728374,216.473708 328.619618,222.032532 C332.949039,218.365434 344.107656,208.166567 348.717312,196.9105" id="Fill-149" fill="#BA104A"></path>
                    <path d="M302.172545,280.797669 C295.960744,290.408723 284.783543,294.076603 275.979956,288.508278 C267.17839,282.937937 253.223554,281.867803 244.486631,279.012097 C235.751727,276.15639 225.740122,258.520338 217.795077,254.169265 C209.854073,249.816177 219.0839,262.162019 219.049558,267.23256 C219.013196,272.301086 205.129064,284.223711 199.117252,293.006469 C193.107461,301.787211 169.918758,311.853728 159.404148,318.280578 C152.640861,322.411981 146.586627,324.771919 143.13024,325.932743 C145.81293,329.189497 149.691518,332.077449 152.913574,331.132265 C172.767096,325.293887 210.601509,295.541739 224.483621,277.432087 C225.364384,278.52439 226.243127,279.60057 227.117829,280.654581 C247.185481,304.866618 260.708016,308.522406 283.516941,307.712248 C308.899471,306.813416 309.962043,284.122945 308.313643,270.571943 C306.556158,273.695687 304.449196,277.272877 302.172545,280.797669" id="Fill-151" fill="#0E244C"></path>
                    <path d="M317.069299,171.728286 C317.069299,171.728286 316.534324,172.147664 315.753984,173.000466 C316.751532,176.245126 318.221708,180.047619 320.283173,183.159844 C324.85862,190.080581 337.257578,197.757803 339.536251,204.439756 C340.105416,206.105228 340.751007,207.644284 341.406653,209.022813 C344.294715,205.340716 346.979648,201.207136 348.717312,196.917041 C334.27499,182.399345 317.069299,171.728286 317.069299,171.728286" id="Fill-153" fill="#930C3A"></path>
                    <path d="M462.257905,145.351009 C462.257905,145.351009 474.42653,126.433203 472.52436,116.22049 C470.624215,106.005762 456.555444,112.814237 456.555444,112.814237 C456.555444,112.814237 466.582862,95.4121125 464.60979,84.439543 C462.638744,73.4689891 450.091305,79.5236546 450.091305,79.5236546 C450.091305,79.5236546 460.738599,49.6352944 450.091305,48.879469 C439.444011,48.121628 438.897061,54.9321189 438.897061,54.9321189 C438.897061,54.9321189 442.105834,27.692171 432.220219,29.5827423 C422.334603,31.4753291 425.754054,50.0142149 425.754054,50.0142149 C425.754054,50.0142149 416.249278,32.9889955 406.363662,40.1763913 C396.476021,47.3658026 424.234748,64.3890065 424.234748,64.3890065 C424.234748,64.3890065 411.308496,64.3890065 409.787164,74.603735 C408.265833,84.8184635 432.979872,91.2500339 432.979872,91.2500339 C432.979872,91.2500339 413.968293,92.3867953 414.349133,110.165825 C414.729972,127.946869 433.74155,133.239663 433.74155,133.239663 C433.74155,133.239663 419.67278,134.249446 422.713417,149.257115 C425.754054,164.2668 434.120364,187.721574 447.048642,185.452082 C459.976921,183.182591 485.971228,156.8194 475.567023,145.727914 C470.243375,140.054185 462.257905,145.351009 462.257905,145.351009" id="Fill-155" fill="#FFCACA"></path>
                    <path d="M475.560997,145.982131 C470.224373,140.295993 462.219437,145.604402 462.219437,145.604402 C462.219437,145.604402 474.417725,126.645223 472.510918,116.408155 C470.606141,106.171088 456.501046,112.996473 456.501046,112.996473 C456.501046,112.996473 466.552906,95.5542709 464.577055,84.5597249 C462.601205,73.5631588 450.02318,79.6310656 450.02318,79.6310656 C450.02318,79.6310656 460.696428,49.6773409 450.02318,48.9198625 C439.349932,48.1623841 438.799618,54.9857493 438.799618,54.9857493 C438.799618,54.9857493 442.016213,27.6882487 432.108531,29.5829546 C422.198818,31.4776605 425.626604,50.05709 425.626604,50.05709 C425.626604,50.05709 432.963447,63.8876351 428.534536,64.1764869 C428.534536,64.1764869 433.251803,70.7150402 437.254271,69.0122288 C441.254709,67.3053775 441.969508,61.6152 447.685869,62.1868437 C453.406291,62.7544475 444.828704,80.2431081 442.111655,81.2369197 C439.396638,82.2327513 437.049173,92.0436112 441.011027,92.8980468 C444.972882,93.7504624 453.117935,85.9312657 453.117935,96.7359372 C453.117935,107.542629 444.40023,111.948123 445.543502,121.191379 C446.686775,130.432615 433.822424,146.925444 439.825111,146.640632 C445.829828,146.35784 445.257177,155.990945 445.257177,164.555501 C445.257177,169.540718 448.530631,177.969938 447.803648,185.60532 C461.005091,182.413811 485.773281,156.8676 475.560997,145.982131" id="Fill-157" fill="#FF8F8F"></path>
                    <g id="Group-161" transform="translate(451.077120, 56.228133)">
                        <mask id="mask-6" fill="white">
                            <use xlink:href="#path-5"></use>
                        </mask>
                        <g id="Clip-160"></g>
                        <path d="M0.636163315,126.761169 C0.636163315,126.761169 -2.78248078,83.9335821 7.47547557,66.1200519 C17.7314079,48.3065218 25.7102681,66.1200519 25.7102681,66.1200519 C25.7102681,66.1200519 20.0105039,38.8303375 29.5114603,35.4198804 C39.0083686,32.0074041 37.8688206,40.7263821 37.8688206,40.7263821 C37.8688206,40.7263821 40.9069407,11.5406231 52.304445,12.6794614 C63.7019494,13.8142612 62.1818774,20.6371946 62.1818774,20.6371946 C62.1818774,20.6371946 74.3404298,-6.65050058 87.2580063,1.6888646 C100.175583,10.0241914 70.5412617,30.4909724 70.5412617,30.4909724 C70.5412617,30.4909724 88.4603003,23.2904454 90.5187734,37.3139058 C92.5772465,51.3373661 50.025349,57.0234805 50.025349,57.0234805 C50.025349,57.0234805 62.5644255,57.0234805 64.4629975,66.1200519 C66.3635936,75.2166234 33.6891284,81.4055228 33.6891284,81.4055228 C33.6891284,81.4055228 50.405873,80.523125 50.025349,92.2709281 C49.646849,104.02075 15.4523118,126.003963 0.636163315,126.761169" id="Fill-159" fill="#FFCACA" mask="url(#mask-6)"></path>
                    </g>
                    <path d="M489.249521,97.1002036 C489.244317,97.1505078 489.240847,97.1782619 489.240847,97.1782619 C489.240847,97.1782619 489.244317,97.1487732 489.249521,97.1002036" id="Fill-162" fill="#4CB4D4"></path>
                    <g id="Group-166" transform="translate(455.414400, 56.228133)" fill="#FF8F8F">
                        <path d="M86.1837709,37.3141077 C84.1301193,23.2906473 66.2726297,30.4911743 66.2726297,30.4911743 C66.2726297,30.4911743 95.8084979,10.0243933 82.9338369,1.68704731 C79.2925391,-0.671397859 75.7157961,-0.176689755 72.4517407,1.73954694 C73.4140117,4.56241196 74.1321846,8.6412298 72.4719141,12.6796633 C69.4923036,19.9286514 60.1197441,25.4714014 56.8536714,29.1665681 C53.5875987,32.8617347 56.2847817,36.6982466 59.2664095,37.9764108 C62.2500547,39.2565942 57.4205439,45.6534729 48.1912155,47.5010562 C38.9618871,49.3486395 35.8370282,46.2208728 36.4059179,53.6112061 C36.9727903,61.0015394 41.6590701,61.9990325 36.2647041,64.5553609 C30.8683209,67.1137085 23.5816905,65.9768895 22.4681191,70.66753 C21.3525303,75.3581705 17.9472612,90.1388371 14.6811885,87.1544348 C11.4151158,84.1700324 14.1102814,67.1137085 8.85914657,75.4995157 C3.60397708,83.8853228 6.0187325,95.6815871 8.43147059,102.78923 C10.3318044,108.38448 0.0030260093,115.21549 0.0971919794,126.262625 C16.1316556,122.862264 45.4718418,103.168843 45.8248762,92.27113 C46.204136,80.5213077 29.5429288,81.4057247 29.5429288,81.4057247 C29.5429288,81.4057247 62.1068236,75.2168253 60.2145591,66.1202539 C58.3202773,57.0236824 45.8248762,57.0236824 45.8248762,57.0236824 C45.8248762,57.0236824 88.2354052,51.337568 86.1837709,37.3141077" id="Fill-164"></path>
                    </g>
                    <path d="M412.974753,191.357972 L413.185232,193.601804 C414.055479,202.847278 416.113716,211.943566 419.309345,220.66689 L432.788062,257.451216 C435.489877,264.827838 442.530786,269.734834 450.415633,269.734834 L456.280697,269.734834 L462.149808,269.734834 C470.030607,269.734834 477.07354,264.827838 479.777379,257.451216 L493.254072,220.66689 C496.449702,211.943566 498.509962,202.847278 499.376162,193.601804 L499.588664,191.357972 C500.404268,182.687064 493.555623,175.197545 484.812671,175.197545 L427.750746,175.197545 C419.007794,175.197545 412.161173,182.687064 412.974753,191.357972" id="Fill-167" fill="#163774"></path>
                    <path d="M484.897861,175.197545 L460.461523,175.197545 C463.176001,178.259881 465.19224,182.874554 464.08351,189.70685 C461.441471,206.018479 451.895524,195.248893 457.990523,213.122938 C464.08351,230.994968 456.153371,246.437691 445.955465,250.445542 C440.252848,252.689373 434.668951,249.32665 430.258176,249.455675 L433.171863,257.451216 C435.85817,264.827838 442.858666,269.734834 450.698256,269.734834 L456.529655,269.734834 L462.365078,269.734834 C470.200643,269.734834 477.203151,264.827838 479.891471,257.451216 L493.29081,220.66689 C496.468098,211.943566 498.516532,202.847278 499.37776,193.601804 L499.589043,191.357972 C500.399966,182.687064 493.59063,175.197545 484.897861,175.197545" id="Fill-169" fill="#0E244C"></path>
                    <path d="M306.451799,66.5553207 L340.670377,66.5553207 L340.670377,46.1955745 L306.451799,46.1955745 L306.451799,66.5553207 Z M301.874688,71.1197954 L345.247488,71.1197954 L345.247488,41.6310997 L301.874688,41.6310997 L301.874688,71.1197954 Z" id="Fill-171" fill="#0E244C"></path>
                    <path d="M368.01079,46.6267098 L378.868826,46.6267098 L378.868826,11.487405 L368.01079,11.487405 L368.01079,46.6267098 Z M363.464064,51.1715601 L383.415552,51.1715601 L383.415552,6.93851662 L363.464064,6.93851662 L363.464064,51.1715601 Z" id="Fill-173" fill="#0E244C"></path>
                </g>
            </g>
        </g>
    </g>
</svg>