<?xml version="1.0" encoding="UTF-8"?>
<svg width="278px" height="236px" viewBox="0 0 278 236" version="1.1" xmlns="http://www.w3.org/2000/svg" xmlns:xlink="http://www.w3.org/1999/xlink">
    <!-- Generator: Sketch 57.1 (83088) - https://sketch.com -->
    <title>Group 57</title>
    <desc>Created with Sketch.</desc>
    <defs>
        <polygon id="path-1" points="0 0.208994886 276.808022 0.208994886 276.808022 113.976541 0 113.976541"></polygon>
        <polygon id="path-3" points="0.286373088 0.366265193 13.9666602 0.366265193 13.9666602 16.273048 0.286373088 16.273048"></polygon>
    </defs>
    <g id="Login" stroke="none" stroke-width="1" fill="none" fill-rule="evenodd">
        <g transform="translate(-56.000000, -745.000000)" id="Login-+-Register">
            <g transform="translate(56.060552, 167.040000)">
                <g id="Group-57" transform="translate(138.700000, 695.940000) scale(-1, 1) translate(-138.700000, -695.940000) translate(0.200000, 577.440000)">
                    <path d="M126.905663,13.3988141 C126.905663,13.3988141 115.441286,11.7727081 115.304351,23.4438046 C115.168733,35.1149012 118.330093,44.4659987 130.157875,44.4659987 C134.593788,44.4659987 140.882275,45.7444999 145.064067,34.3643907 C149.977936,20.9868703 138.85063,6.09647867 126.905663,13.3988141" id="Fill-1" fill="#0E244C"></path>
                    <path d="M115.781386,64.0686745 C115.781386,64.0686745 101.334717,74.5099872 91.6504986,98.376221 C81.9649631,122.243772 78.5060314,133.311826 95.9744924,143.342333 C113.441637,153.374157 140.906371,101.082009 141.182875,86.5866228 C141.458062,72.0886034 115.781386,64.0686745 115.781386,64.0686745" id="Fill-3" fill="#AD263D"></path>
                    <path d="M114.785445,162.936451 C123.166146,153.461585 130.406597,145.989397 132.255223,136.845019 C137.076924,112.998536 98.2307639,73.2346461 118.099542,62.4496785 C139.735311,50.7048476 162.668015,46.3334531 184.305101,66.0613457 C209.576238,89.1033347 194.70033,147.012461 204.790088,164.592841 C186.82787,167.833203 142.331814,174.10589 114.785445,162.936451" id="Fill-5" fill="#BA104A"></path>
                    <path d="M184.305496,66.0617407 C174.152538,56.8041279 163.712541,52.8540727 153.256745,52.4827675 C157.532022,58.3051489 165.870588,70.3159502 168.478941,78.7229845 C172.040575,90.1965783 180.547677,127.98149 182.722841,137.674926 C183.502318,141.144391 182.861093,153.471197 181.71821,167.870465 C191.094324,166.893484 199.219588,165.59655 204.790483,164.593236 C194.700725,147.012856 209.576633,89.1037297 184.305496,66.0617407" id="Fill-7" fill="#930C3A"></path>
                    <g id="Group-11" transform="translate(0.000000, 120.048762)">
                        <mask id="mask-2" fill="white">
                            <use xlink:href="#path-1"></use>
                        </mask>
                        <g id="Clip-10"></g>
                        <path d="M100.458858,16.8028401 C127.876192,29.6747535 158.566805,33.8604953 188.351538,28.355435 C215.616136,23.3164812 246.761005,19.8061988 259.29058,26.7530293 C283.620287,40.2424679 281.655793,80.7121006 259.29058,98.3530474 C236.925367,115.992677 123.482414,117.548999 84.7376385,108.729843 C45.9928633,99.9093691 -24.569607,55.2895451 8.63587412,13.7823645 C27.9055603,-10.3050724 69.1968045,2.12706815 100.458858,16.8028401" id="Fill-9" fill="#0E244C" mask="url(#mask-2)"></path>
                    </g>
                    <path d="M91.5255451,191.088363 C76.8655734,190.89086 55.1244693,175.975451 41.6732145,166.866624 C28.220643,157.75648 23.8689989,161.810553 8.04244415,152.987447 C4.70464747,151.125654 2.64403531,149.072942 1.45506869,146.993896 C-10.0553923,184.333768 50.071032,220.886263 84.7380335,228.778473 C90.1535593,230.012207 97.0319222,231.041855 104.913599,231.852933 C109.391645,224.545331 112.729442,214.784744 119.148282,204.047177 C132.924758,181.001238 178.17264,166.866624 178.17264,166.866624 C157.599436,165.197067 120.805988,191.483368 91.5255451,191.088363" id="Fill-12" fill="#112955"></path>
                    <path d="M96.8340244,216.289189 C95.974229,212.002062 89.9214277,207.466082 76.4306724,209.235707 C76.4306724,209.235707 63.8062958,209.97305 56.5421442,216.090369 C49.2779926,222.206371 50.1430547,226.184077 54.9858224,228.950432 C59.8285901,231.718104 81.1009543,229.296721 87.8450153,228.086687 C94.590393,226.875337 97.6951364,220.576315 96.8340244,216.289189" id="Fill-14" fill="#234177"></path>
                    <path d="M167.094842,59.2584289 C171.645306,50.235186 228.233797,78.4570141 246.619988,113.935094 C265.007495,149.415807 246.458035,162.161318 169.289756,159.040775 L164.403538,147.367045 L216.016276,126.144714 C216.016276,126.144714 197.494467,109.370146 190.422552,103.150126 C170.360221,85.5091794 163.743879,65.9037385 167.094842,59.2584289" id="Fill-16" fill="#F39B9B"></path>
                    <path d="M119.14894,204.046914 C119.14894,204.046914 146.948112,178.451873 172.070463,172.483339 C197.192815,166.517439 202.682075,164.70173 202.682075,164.70173 C202.682075,164.70173 193.861602,160.292152 176.739429,163.404796 C149.390563,168.376598 125.417678,188.48238 119.14894,204.046914" id="Fill-18" fill="#0E244C"></path>
                    <path d="M139.922675,38.0141101 L146.111095,56.6122869 C147.118359,59.6775298 142.068872,69.991124 135.97657,67.6474246 C134.193779,66.9614316 134.711236,62.1423642 135.032507,58.5241136 L133.572303,41.3189897 L139.922675,38.0141101 Z" id="Fill-20" fill="#F39B9B"></path>
                    <path d="M134.43934,51.5371242 C140.60406,47.6937205 139.962834,41.3867989 139.962834,41.3867989 L133.780998,43.773949 L134.43934,51.5371242 Z" id="Fill-22" fill="#0E244C"></path>
                    <path d="M136.044643,26.8923345 L139.452224,33.7022298 C142.155378,39.1006386 140.319919,45.8947337 134.978128,48.707173 C130.047142,51.303676 124.037792,49.9040397 121.156885,43.5444508 C118.597249,37.8919217 121.148984,31.4954656 121.80996,28.3591217 C123.317565,21.208205 131.552113,19.3490457 136.044643,26.8923345" id="Fill-24" fill="#F39B9B"></path>
                    <path d="M122.276725,36.4447531 C121.983104,35.8417114 121.785602,35.2044358 121.624966,34.5539934 C121.322129,33.3189428 120.583468,31.5532681 118.973162,32.9055036 C116.629463,34.8726312 118.608441,41.3652053 121.784285,41.1163518 C124.143785,40.9306992 123.014069,37.9615744 122.276725,36.4447531" id="Fill-26" fill="#F39B9B"></path>
                    <path d="M132.326061,39.1880665 C132.326061,39.1880665 129.449104,40.369133 125.15276,40.4771012 C125.15276,40.4771012 126.644565,43.3395746 128.45369,44.0466345 C130.262815,44.7536944 131.816504,42.6180312 132.326061,39.1880665" id="Fill-28" fill="#FFFFFF"></path>
                    <path d="M133.59969,46.5770399 C131.470611,47.328867 127.380987,47.6962222 125.392792,46.8877775 C123.629751,46.1728175 121.496721,43.7672339 121.033248,43.2287097 C121.076698,43.3340445 121.110932,43.440696 121.157016,43.5447141 C124.037923,49.9029864 130.047274,51.3039393 134.97826,48.7074363 C138.269972,46.9733621 140.22525,43.7264167 140.612355,40.2279844 C138.56491,43.9120693 135.51415,45.9015804 133.59969,46.5770399" id="Fill-30" fill="#C87171"></path>
                    <path d="M180.079727,59.4024743 C181.92967,63.7027677 185.472869,69.4724818 192.119495,74.0334789 C204.285666,82.382579 206.95722,78.2284376 216.453152,90.6908619 C225.947769,103.154603 239.597843,134.905147 234.849876,141.730842 C230.10191,148.555221 207.549728,142.948776 194.197225,149.4453 C188.258975,152.334107 183.646627,156.09456 180.347014,159.384956 C248.203697,160.838576 264.094769,147.653292 246.621041,113.93562 C233.126336,87.8968561 199.054476,65.7673299 180.079727,59.4024743" id="Fill-32" fill="#C87171"></path>
                    <path d="M119.332222,27.1289429 C119.332222,27.1289429 127.386385,31.8387254 131.412808,32.4193835 L130.364727,29.1908717 C130.364727,29.1908717 138.041001,32.8657398 139.983111,32.4193835 C141.923905,31.9717106 142.455846,22.1466065 136.696665,19.9622259 C130.934851,17.7778454 116.609318,18.3216363 119.332222,27.1289429" id="Fill-34" fill="#0E244C"></path>
                    <path d="M138.039684,33.8448268 C138.083135,33.1772674 138.025201,32.5110248 137.927766,31.8487322 C137.740797,30.5899813 137.756597,28.6768378 139.759275,29.3193802 C142.673099,30.2529099 143.295891,37.0127711 140.260932,37.983168 C138.006767,38.7033947 137.930399,35.5275503 138.039684,33.8448268" id="Fill-36" fill="#F39B9B"></path>
                    <g id="Group-40" transform="translate(129.755138, 0.230420)">
                        <mask id="mask-4" fill="white">
                            <use xlink:href="#path-3"></use>
                        </mask>
                        <g id="Clip-39"></g>
                        <path d="M0.557974541,12.0195865 C0.557974541,12.0195865 -1.51053772,3.28338099 5.7694141,0.621043757 C13.0480492,-2.0399768 18.1265036,17.0019229 9.24019598,16.2514124 C0.352571669,15.5009019 0.557974541,12.0195865 0.557974541,12.0195865" id="Fill-38" fill="#0E244C" mask="url(#mask-4)"></path>
                    </g>
                    <path d="M135.797106,95.2493573 L47.5094212,95.2493573 C46.138752,95.2493573 45.0274698,96.3606395 45.0274698,97.7326254 L59.2700523,157.830083 C59.2700523,162.820319 63.3149089,166.866492 68.3051454,166.866492 L152.522957,166.866492 L138.279057,97.7326254 C138.279057,96.3606395 137.167775,95.2493573 135.797106,95.2493573" id="Fill-41" fill="#C2C8D4"></path>
                    <path d="M59.2699207,155.941561 L59.2699207,157.831004 C59.2699207,162.821241 63.3147772,166.866097 68.3050137,166.866097 L188.266875,166.866097 C192.526351,166.866097 195.980016,163.413749 195.980016,159.152956 L195.980016,155.941561 L59.2699207,155.941561 Z" id="Fill-43" fill="#C2C8D4"></path>
                    <path d="M45.0383983,97.6171521 C45.0370816,97.655336 45.0265481,97.6922031 45.0265481,97.7317037 L59.2704473,157.830478 C59.2704473,162.820714 63.3153039,166.865571 68.3055404,166.865571 L152.523352,166.865571 L147.943921,144.63861 C134.874505,141.668168 111.299258,135.704901 94.6326586,128.020727 C77.8027899,120.261502 51.6995081,105.741099 45.0383983,97.6171521" id="Fill-45" fill="#DCE0E7"></path>
                    <path d="M94.1827473,131.975128 C94.7923725,135.027204 97.3414748,137.091766 99.878727,136.584842 C102.414662,136.079235 103.976251,133.194378 103.367942,130.140985 C102.758317,127.088909 100.207898,125.024347 97.6706461,125.529954 C95.1347106,126.036878 93.5731221,128.921735 94.1827473,131.975128" id="Fill-47" fill="#FFFFFF"></path>
                    <path d="M169.155981,149.441745 C169.155981,149.441745 163.473168,145.711576 160.567244,146.709624 C157.66132,147.706354 152.436714,152.67289 153.657281,152.880927 C154.876531,153.09028 160.091921,149.599747 160.091921,149.599747 C160.091921,149.599747 155.412422,154.904672 155.126701,156.956067 C154.839664,159.006146 158.278845,159.772456 159.998436,159.299766 C161.71671,158.828393 170.385765,158.1108 172.554345,155.843468 C174.721609,153.57877 169.155981,149.441745 169.155981,149.441745" id="Fill-49" fill="#F39B9B"></path>
                    <path d="M269.584029,156.001997 C268.595198,175.654839 243.068625,174.369754 235.146131,180.405438 C226.837848,186.73606 220.903548,195.835671 193.208394,197.022004 C165.511923,198.209654 146.91638,201.374965 130.530234,205.331604 C119.080341,208.095326 115.601659,223.601926 114.543044,232.697586 C164.104387,236.385621 241.2674,232.617269 259.290185,218.402336 C277.779077,203.817416 282.308474,173.648211 269.584029,156.001997" id="Fill-51" fill="#112955"></path>
                    <path d="M127.450244,217.36413 C121.743731,216.067195 114.457196,216.584653 114.457196,216.584653 C114.457196,216.584653 112.571703,216.294982 109.656562,216.089579 C102.260742,215.569489 88.2314624,215.593189 81.5321687,222.292483 C72.1942381,231.63173 87.4993855,238.895881 102.308143,235.781921 C103.507643,235.530434 104.628142,235.288164 105.71309,235.052478 C116.103052,232.789096 121.384276,231.356543 125.4818,232.409891 C130.008563,233.57384 133.156757,218.659748 127.450244,217.36413" id="Fill-53" fill="#0E244C"></path>
                    <path d="M102.603607,223.136214 C91.9213407,219.772084 90.3386852,223.136214 89.0931011,227.79333 C88.0226362,231.793419 89.8936457,235.100932 90.5335546,236.168763 C94.1518052,236.705971 98.2466958,236.636187 102.307353,235.781658 C103.508169,235.530171 104.628668,235.287901 105.7123,235.052214 C116.103579,232.788833 121.384803,231.356279 125.482327,232.409627 C127.091316,232.823067 128.522553,231.202227 129.448182,228.887495 C120.506574,227.31669 108.727509,225.063841 102.603607,223.136214" id="Fill-55" fill="#234177"></path>
                </g>
            </g>
        </g>
    </g>
</svg>