<?xml version="1.0" encoding="UTF-8"?>
<svg width="121px" height="106px" viewBox="0 0 121 106" version="1.1" xmlns="http://www.w3.org/2000/svg" xmlns:xlink="http://www.w3.org/1999/xlink">
    <!-- Generator: Sketch 57.1 (83088) - https://sketch.com -->
    <title>Icon</title>
    <desc>Created with Sketch.</desc>
    <defs>
        <linearGradient x1="50%" y1="0%" x2="50%" y2="100%" id="linearGradient-1">
            <stop stop-color="#BA104A" stop-opacity="0" offset="0%"></stop>
            <stop stop-color="#27B8F5" offset="100%"></stop>
        </linearGradient>
    </defs>
    <g id="Home" stroke="none" stroke-width="1" fill="none" fill-rule="evenodd">
        <g transform="translate(-1239.000000, -1991.000000)" id="Main-Benefits">
            <g transform="translate(150.000000, 1840.000000)">
                <g id="Lower-Costs" transform="translate(870.000000, 106.000000)">
                    <g id="Icon" transform="translate(219.000000, 45.000000)">
                        <path d="M60.5,106 C93.9132274,106 121,82.2710917 121,53 C121,35.7864251 91.2296514,50.1940192 76.7168623,40.5124811 C66.551153,33.7308969 74.2637692,0 60.5,0 C27.0867726,0 0,23.7289083 0,53 C0,82.2710917 27.0867726,106 60.5,106 Z" id="Oval" fill="url(#linearGradient-1)" opacity="0.25"></path>
                        <g id="budget" transform="translate(23.000000, 16.000000)" fill-rule="nonzero">
                            <path d="M33.1750488,53.8171875 L29.4640137,47.6327637 C29.3601563,47.4597656 29.2237793,47.3085937 29.0625,47.1874512 L19.6546875,40.1264648 C17.8204102,38.7834961 15.4237793,38.7635742 13.6015137,39.8885742 L9.375,36.7187988 L9.375,28.378125 C9.37851563,24.7535156 7.05849609,21.5348145 3.61875,20.3922363 C3.45952148,20.3393555 3.29282227,20.3125482 3.12495117,20.3125482 L1.56254883,20.3125482 C0.699609375,20.3125482 -9.03258711e-06,21.0120117 -9.03258711e-06,21.8749512 L-9.03258711e-06,45.2264648 C-0.00366210937,47.7254883 1.10639648,50.0961914 3.028125,51.6936035 L18.75,64.7953125 L18.75,68.7499512 L4.6875,68.7499512 L4.6875,71.8749023 L20.3125488,71.8749023 C21.1754883,71.8749023 21.8750977,71.175293 21.8750977,70.3123535 L21.8750977,64.0623047 C21.876709,63.5972168 21.6710449,63.1557129 21.314209,62.8576172 L5.0296875,49.2890625 C3.82163086,48.2859375 3.12348633,46.7967773 3.12495117,45.2266113 L3.12495117,23.55 C5.02792969,24.4019531 6.25195313,26.2932129 6.24990234,28.378125 L6.24990234,37.5 C6.24990234,37.991748 6.48149414,38.4549316 6.87495117,38.7499512 L11.5239258,42.2367187 C10.466748,44.5306641 11.1314941,47.3266113 13.2483398,48.8765625 L20.9702637,54.3921387 L22.7859375,51.8515137 L15.0640137,46.3343262 C14.5583496,45.9770508 14.2198242,45.4291992 14.1265137,44.8171875 C14.0317383,44.2050293 14.1881836,43.5805664 14.5604004,43.0854492 C15.3227051,42.0714844 16.7625,41.8674316 17.7766113,42.6297363 L26.9422852,49.5046875 L30.4970215,55.4266113 C30.9899414,56.2489746 31.2502441,57.1896973 31.2500977,58.1484375 L31.2500977,75 L34.3750488,75 L34.3750488,58.1484375 C34.3750488,56.6226562 33.9600586,55.1255859 33.1750488,53.8171875 Z" id="Path" fill="#000000"></path>
                            <path d="M73.4374512,20.3125482 L71.8749023,20.3125482 C71.7071777,20.3125482 71.540332,20.3393555 71.3811035,20.3922363 C67.9413574,21.5348145 65.6213379,24.7535156 65.6248535,28.378125 L65.6248535,36.7187988 L61.3981934,39.8887207 C59.5765137,38.7667969 57.1825195,38.7878906 55.3498535,40.1296875 L45.9375,47.1875977 C45.7762207,47.3087402 45.6398438,47.4599121 45.5359863,47.6329102 L41.8250977,53.817334 C41.0400879,55.1257324 40.6250977,56.6228027 40.6250977,58.148584 L40.6250977,75 L43.7500488,75 L43.7500488,58.1484375 C43.7501953,57.1889648 44.011084,56.2476562 44.5047363,55.425 L48.0594727,49.5030762 L57.2251465,42.628125 C58.2421875,41.8712402 59.6793457,42.0763184 60.4438477,43.0875 C60.4533691,43.1003906 60.4628906,43.1132812 60.4722656,43.1263184 C61.2123047,44.1599121 60.9742676,45.5975098 59.9408203,46.3375488 L52.2188965,51.8547363 L54.0345703,54.3953613 L61.7564941,48.8797852 C63.8748047,47.3288086 64.5389648,44.5299316 63.4785645,42.2351074 L68.1253418,38.7500977 C68.5187988,38.4550781 68.7503906,37.9918945 68.7503906,37.5001465 L68.7503906,28.3782715 C68.7483398,26.2933594 69.9725098,24.4020996 71.8753418,23.5501465 L71.8753418,45.229834 C71.8769531,46.8004395 71.1780762,48.2898926 69.9691406,49.2922852 L53.686377,62.8609863 C53.3302734,63.1583496 53.1247559,63.5986816 53.1254883,64.0625977 L53.1254883,70.3125 C53.1254883,71.1754395 53.8250977,71.8750488 54.6880371,71.8750488 L70.3125,71.8750488 L70.3125,68.7500977 L56.25,68.7500977 L56.25,64.795459 L71.9702637,51.6938965 C73.8931641,50.0970703 75.0039551,47.7260742 75.0000105,45.2267578 L75.0000105,21.8749512 C75.0000105,21.0120117 74.3003906,20.3125482 73.4374512,20.3125482 Z" id="Path" fill="#0A1B43"></path>
                            <rect id="Rectangle" fill="#0A1B43" x="3.12495117" y="62.5004883" width="3.12495117" height="3.12495117"></rect>
                            <rect id="Rectangle" fill="#0A1B43" x="68.7495117" y="62.5004883" width="3.12495117" height="3.12495117"></rect>
                            <path d="M50.5546875,14.7670898 C49.532373,12.5433105 47.6729004,10.813623 45.3812988,9.95463867 L47.9797852,7.3546875 C48.2729004,7.06171875 48.4375488,6.66430664 48.4375488,6.25004883 L48.4375488,1.56254883 C48.4375488,0.699609375 47.7379395,-2.30442012e-05 46.875,-2.30442012e-05 L39.0625488,-2.30442012e-05 C38.4703125,-2.30442012e-05 37.9287598,0.334277344 37.6640625,0.864111328 L37.5,1.19384766 L37.3437012,0.864111328 C37.0776855,0.331787109 36.5324707,-0.00322265625 35.9374512,-2.30442012e-05 L28.125,-2.30442012e-05 C27.2620605,-2.30442012e-05 26.5624512,0.699609375 26.5624512,1.56254883 L26.5624512,6.25004883 C26.5625977,6.66445313 26.7272461,7.06171875 27.0202148,7.3546875 L29.6217773,9.95625 C27.3666504,10.7964844 25.4830078,12.501416 24.445166,14.7670898 C22.5591797,18.8733398 20.3124023,24.7952637 20.3124023,29.6874023 C20.3124023,36.8327637 25.1749512,39.9358887 27.7467773,40.5780762 C27.8704102,40.6092773 27.9974121,40.6249522 28.1248535,40.6249522 L37.4998535,40.6249522 L46.8748535,40.6249522 C47.0024414,40.6249522 47.1295898,40.6094238 47.2530762,40.5780762 C49.8249023,39.9358887 54.6874512,36.8327637 54.6874512,29.6874023 C54.6874512,24.7952637 52.4405273,18.8733398 50.5546875,14.7670898 Z M32.8125,34.3750488 L35.9374512,34.3750488 L35.9374512,37.5 L28.3514648,37.5 C27.4999512,37.21875 23.4375,35.5562988 23.4375,29.6875488 C23.4375,25.359375 25.5297363,19.89375 27.2859375,16.0703613 C28.275293,13.9051758 30.4321289,12.5118164 32.8125,12.4999512 L35.9374512,12.4999512 L35.9374512,15.6249023 L32.8125,15.6249023 C30.2236816,15.6249023 28.125,17.723584 28.125,20.3124023 L28.125,21.8749512 C28.125,24.4601074 30.2179688,26.5573242 32.803125,26.5624512 L42.1984863,26.5624512 C43.0571777,26.568457 43.7500488,27.2663086 43.7500488,28.125 L43.7500488,29.6875488 C43.7500488,30.5504883 43.0504395,31.2500977 42.1875,31.2500977 L32.8125,31.2500977 C31.9495605,31.2500977 31.2499512,30.5504883 31.2499512,29.6875488 L28.125,29.6875488 C28.125,32.2763672 30.2236816,34.3750488 32.8125,34.3750488 Z M46.6483887,37.5 L39.0625488,37.5 L39.0625488,34.3750488 L42.1875,34.3750488 C44.7763184,34.3750488 46.875,32.2763672 46.875,29.6875488 L46.875,28.125 C46.875,25.5404297 44.7830566,23.4435059 42.1984863,23.4375 L32.803125,23.4375 C31.9438477,23.432373 31.2499512,22.7342285 31.2499512,21.8749512 L31.2499512,20.3124023 C31.2499512,19.4494629 31.9495605,18.7498535 32.8125,18.7498535 L35.9374512,18.7498535 L39.0624023,18.7498535 L42.1875,18.7498535 C43.0504395,18.7498535 43.7500488,19.4494629 43.7500488,20.3124023 L46.875,20.3124023 C46.875,17.723584 44.7763184,15.6249023 42.1875,15.6249023 L39.0625488,15.6249023 L39.0625488,12.4999512 L39.0625488,9.375 L33.459375,9.375 L29.6875488,5.60317383 L29.6875488,3.12495117 L34.9719727,3.12495117 L36.1094238,5.3859375 C36.2478516,5.61811523 36.4419434,5.81220703 36.6741211,5.95063477 C37.4463867,6.41118164 38.4458496,6.15834961 38.90625,5.3859375 L40.0281738,3.12495117 L45.3125977,3.12495117 L45.3125977,5.60302734 L41.0828613,9.83276367 C40.7900391,10.1257324 40.6255371,10.5228516 40.6253906,10.9371094 C40.6252441,11.8000488 41.3245605,12.4998047 42.1875,12.4999512 C44.5678711,12.5116699 46.724707,13.9051758 47.7140625,16.0702148 C49.4702637,19.89375 51.5625,25.359375 51.5625,29.6875488 C51.5625,35.559375 47.5078125,37.2156738 46.6483887,37.5 Z" id="Shape" fill="#0A1B43"></path>
                            <polygon id="Path" fill="#0A1B43" points="67.1875488 9.375 56.1641602 9.375 54.5608887 5.634375 51.688623 6.86542969 56.376416 17.8032715 59.2486816 16.5722168 57.5034668 12.4999512 67.1875488 12.4999512"></polygon>
                            <polygon id="Path" fill="#0A1B43" points="20.4405762 5.63041992 18.8348145 9.375 7.81245117 9.375 7.81245117 12.4999512 17.4947754 12.4999512 15.7507324 16.5673828 18.6228516 17.798877 23.3126953 6.86206055"></polygon>
                        </g>
                    </g>
                </g>
            </g>
        </g>
    </g>
</svg>