<?xml version="1.0" encoding="UTF-8"?>
<svg width="121px" height="106px" viewBox="0 0 121 106" version="1.1" xmlns="http://www.w3.org/2000/svg" xmlns:xlink="http://www.w3.org/1999/xlink">
    <!-- Generator: Sketch 57.1 (83088) - https://sketch.com -->
    <title>Icon</title>
    <desc>Created with Sketch.</desc>
    <defs>
        <linearGradient x1="50%" y1="0%" x2="50%" y2="100%" id="linearGradient-1">
            <stop stop-color="#BA104A" stop-opacity="0" offset="0%"></stop>
            <stop stop-color="#27B8F5" offset="100%"></stop>
        </linearGradient>
    </defs>
    <g id="Home" stroke="none" stroke-width="1" fill="none" fill-rule="evenodd">
        <g transform="translate(-639.000000, -2040.000000)" id="Main-Benefits">
            <g transform="translate(150.000000, 1840.000000)">
                <g id="Better-Care" transform="translate(330.000000, 200.000000)">
                    <g id="Icon" transform="translate(159.000000, 0.000000)">
                        <path d="M60.5,106 C93.9132274,106 121,82.2710917 121,53 C121,35.7864251 91.2296514,50.1940192 76.7168623,40.5124811 C66.551153,33.7308969 74.2637692,0 60.5,0 C27.0867726,0 0,23.7289083 0,53 C0,82.2710917 27.0867726,106 60.5,106 Z" id="Oval" fill="url(#linearGradient-1)" opacity="0.25"></path>
                        <g id="medical-history-2" transform="translate(23.000000, 16.000000)" fill="#0A1B43" fill-rule="nonzero">
                            <path d="M73.2942982,9.35687135 L31.0783626,9.35687135 C30.2961988,3.98947368 25.697076,0.00687134503 20.2729532,0.00014619883 L1.55950292,0.00014619883 C0.698245614,0.00014619883 0,0.698391813 0,1.55964912 L0,73.2945906 C0,74.1557018 0.698245614,74.8538012 1.55950292,74.8538012 L40.5459064,74.8538012 L40.5459064,71.7349415 L3.11900585,71.7349415 L3.11900585,3.11900585 L20.2729532,3.11900585 C24.0429825,3.12353801 27.1865497,5.8001462 27.9122807,9.35687135 L12.4755848,9.35687135 L12.4755848,12.475731 L29.6295322,12.475731 L71.7347953,12.475731 L71.7347953,24.9513158 L74.8538012,24.9513158 L74.8538012,10.9162281 C74.8538012,10.055117 74.1555556,9.35687135 73.2942982,9.35687135 Z" id="Path"></path>
                            <path d="M66.9827485,45.6611111 C69.8758772,43.3763158 71.7349415,39.8402047 71.7349415,35.8675439 L71.7349415,32.7486842 C71.7349415,25.8586257 66.1494152,20.2730994 59.2593567,20.2730994 C52.3692982,20.2730994 46.7836257,25.8586257 46.7836257,32.7486842 L46.7836257,35.4090643 C46.7374269,39.5345029 48.6524854,43.2400585 51.6758772,45.6211988 C47.0609649,46.8969298 43.6704678,51.1209064 43.6647661,56.1404971 L43.6647661,73.2944444 C43.6647661,74.1557018 44.3630117,74.8539474 45.224269,74.8539474 L73.2944444,74.8539474 C74.1557018,74.8539474 74.8539474,74.1557018 74.8539474,73.2944444 L74.8539474,56.1404971 C74.8480994,51.1719298 71.5260234,46.9828947 66.9827485,45.6611111 Z M59.2592105,23.3919591 C63.3149123,23.3960526 66.7657895,25.9780702 68.0643275,29.5874269 C59.3555556,29.2362573 55.4796784,26.7944444 55.446345,26.772807 C54.8960526,26.405848 54.174269,26.4258772 53.6451754,26.8226608 L50.6621345,29.0599415 C52.0951754,25.7292398 55.4039474,23.3957602 59.2592105,23.3919591 Z M49.9024854,35.4090643 L49.9024854,33.5283626 L54.7165205,29.9181287 C56.5646199,30.8172515 61.0197368,32.5182749 68.6153509,32.7273392 C68.6153509,32.7345029 68.6159357,32.7413743 68.6159357,32.748538 L68.6159357,35.8673977 C68.6159357,35.9650585 68.6144737,36.0627193 68.6115497,36.1603801 C68.4577485,41.1440058 64.4339181,45.095614 59.5118421,45.2241228 L58.9707602,45.2241228 C53.8096491,44.9038012 49.8141813,40.579386 49.9024854,35.4090643 Z M63.1932749,48.3432749 L59.2592105,58.1802632 L55.3251462,48.3432749 L58.8709064,48.3432749 C59.0019006,48.3432749 59.1298246,48.3432749 59.2592105,48.3432749 L63.1932749,48.3432749 Z M46.7836257,71.7350877 L46.7836257,56.1404971 C46.7877193,52.694883 49.0248538,49.774269 52.1248538,48.7428363 L57.6997076,62.680117 L57.6997076,68.6162281 L60.8187135,68.6162281 L60.8187135,62.680117 L66.3935673,48.7428363 C69.4937135,49.774269 71.7307018,52.6947368 71.7347953,56.1404971 L71.7347953,71.7350877 L46.7836257,71.7350877 Z" id="Shape"></path>
                            <path d="M60.8187135,37.4270468 C60.8187135,38.2883041 60.1204678,38.9865497 59.2592105,38.9865497 C58.3979532,38.9865497 57.6997076,38.2883041 57.6997076,37.4270468 L54.580848,37.4270468 C54.580848,40.0108187 56.6754386,42.1054094 59.2592105,42.1054094 C61.8429825,42.1054094 63.9375731,40.0108187 63.9375731,37.4270468 L60.8187135,37.4270468 Z" id="Path"></path>
                            <rect id="Rectangle" x="12.4751462" y="17.153655" width="18.7134503" height="3.11885965"></rect>
                            <rect id="Rectangle" x="12.4751462" y="24.9519006" width="18.7134503" height="3.11885965"></rect>
                            <rect id="Rectangle" x="12.4751462" y="32.7486842" width="18.7134503" height="3.11885965"></rect>
                            <path d="M9.35672515,65.4972222 L9.35672515,60.8188596 L6.2378655,60.8188596 L6.2378655,67.0567251 C6.2378655,67.9179825 6.93611111,68.6162281 7.79736842,68.6162281 L14.0350877,68.6162281 L14.0350877,65.4972222 L9.35672515,65.4972222 Z" id="Path"></path>
                            <rect id="Rectangle" x="17.1535088" y="65.4972222" width="3.11885965" height="3.11885965"></rect>
                            <rect id="Rectangle" x="34.3084795" y="17.153655" width="3.11885965" height="3.11885965"></rect>
                            <rect id="Rectangle" x="34.3084795" y="24.9519006" width="3.11885965" height="3.11885965"></rect>
                            <rect id="Rectangle" x="34.3084795" y="32.7486842" width="3.11885965" height="3.11885965"></rect>
                            <rect id="Rectangle" x="6.2378655" y="9.35687135" width="3.11885965" height="3.11885965"></rect>
                            <path d="M29.6295322,40.5459064 L14.0350877,40.5459064 C13.1738304,40.5459064 12.4755848,41.244152 12.4755848,42.1054094 L12.4755848,54.5809942 C12.4755848,55.4422515 13.1738304,56.1404971 14.0350877,56.1404971 L29.6296784,56.1404971 C30.4909357,56.1404971 31.1890351,55.4422515 31.1890351,54.5809942 L31.1890351,42.1054094 C31.1890351,41.244152 30.4907895,40.5459064 29.6295322,40.5459064 Z M28.0701754,53.0216374 L15.5945906,53.0216374 L15.5945906,43.6649123 L28.0701754,43.6649123 L28.0701754,53.0216374 Z" id="Shape"></path>
                        </g>
                    </g>
                </g>
            </g>
        </g>
    </g>
</svg>