<?xml version="1.0" encoding="UTF-8"?>
<svg width="1190px" height="365px" viewBox="0 0 1190 365" version="1.1" xmlns="http://www.w3.org/2000/svg" xmlns:xlink="http://www.w3.org/1999/xlink">
    <!-- Generator: Sketch 57.1 (83088) - https://sketch.com -->
    <title>Group 3</title>
    <desc>Created with Sketch.</desc>
    <g id="Home" stroke="none" stroke-width="1" fill="none" fill-rule="evenodd">
        <g transform="translate(0.000000, -4544.000000)" fill="#EAF6FD" id="Ready-to-try-FieldMed?--Sign-up-today.">
            <g transform="translate(0.000000, 4539.600000)">
                <g id="Illustration" transform="translate(-336.960000, 5.040000)">
                    <g id="Group-31">
                        <g>
                            <g id="Group-3">
                                <g id="Fill-1">
                                    <g>
                                        <path d="M1526.49146,161.739739 C1526.49146,161.739739 1398.97955,151.626804 1356.05114,141.113367 C1323.2108,133.07108 1192.18827,146.862198 1114.34151,147.266384 L1114.34151,-3.12638804e-13 L1075.10601,-3.12638804e-13 L1075.10601,145.604526 C1072.26843,145.244534 1069.69232,144.820093 1067.41175,144.323837 L1067.41175,80.0076368 L1028.1781,80.0076368 L1028.1781,138.274859 C1022.6622,138.385342 1017.07265,138.780321 1011.50888,139.341026 L1011.50888,33.4645689 L1002.20708,33.4645689 L1002.20708,25.7841157 C1002.20708,13.130058 991.852921,2.77590105 979.197943,2.77590105 C966.543885,2.77590105 956.190649,13.130058 956.190649,25.7841157 L956.190649,33.4645689 L946.887928,33.4645689 L946.887928,67.4640627 L921.757507,67.4640627 L921.757507,33.9773971 L909.448711,33.9773971 L909.448711,15.0018347 L887.394338,15.0018347 L887.394338,33.9773971 L874.060806,33.9773971 L874.060806,140.625398 C869.379983,140.953166 864.668777,141.347224 859.996241,141.802048 L859.996241,31.4132563 L832.936039,31.4132563 L805.875837,79.8078456 L805.875837,150.997969 C804.675249,151.361644 803.541871,151.729002 802.480307,152.101884 L802.480307,109.323546 L763.245731,109.323546 L763.245731,160.135885 C732.698851,160.492195 693.591331,151.300878 673.178561,126.039718 C643.176733,88.9126169 564.711263,96.2395225 540.480363,137.211454 C516.247621,178.183385 436.629439,181.628632 370.856697,172.916999 C305.084875,164.205365 153.923943,193.166806 98.5375819,208.187975 C43.1502999,223.210065 0,322.254281 0,322.254281 L0,364.32 L1526.49146,317.009992 L1526.49146,161.739739 Z" transform="translate(763.245731, 182.160000) scale(-1, 1) translate(-763.245731, -182.160000) "></path>
                                    </g>
                                </g>
                            </g>
                        </g>
                    </g>
                </g>
            </g>
        </g>
    </g>
</svg>