<?xml version="1.0" encoding="UTF-8"?>
<svg width="324px" height="289px" viewBox="0 0 324 289" version="1.1" xmlns="http://www.w3.org/2000/svg" xmlns:xlink="http://www.w3.org/1999/xlink">
    <!-- Generator: Sketch 57.1 (83088) - https://sketch.com -->
    <title>Group 467</title>
    <desc>Created with Sketch.</desc>
    <defs>
        <polygon id="path-1" points="0 0.523385865 15.2343491 0.523385865 15.2343491 15.6464706 0 15.6464706"></polygon>
        <polygon id="path-3" points="0.433984222 0.440641624 33.7665935 0.440641624 33.7665935 24.4827068 0.433984222 24.4827068"></polygon>
    </defs>
    <g id="Home" stroke="none" stroke-width="1" fill="none" fill-rule="evenodd">
        <g transform="translate(-1082.000000, -4657.000000)" id="Ready-to-try-FieldMed?--Sign-up-today.">
            <g transform="translate(0.000000, 4539.600000)">
                <g id="Illustration" transform="translate(-336.960000, 5.040000)">
                    <g id="Group-467">
                        <g transform="translate(1419.840000, 112.320000)">
                            <path d="M15.4821689,235.51352 C13.2995799,236.536897 12.3302664,249.158004 12.8584878,251.362536 C13.1667077,252.649238 14.5585983,251.6177 15.6640513,250.53502 C13.3594813,254.278698 10.4036197,258.891784 9.05747203,258.954895 C6.81389253,259.060987 8.66048915,236.102737 11.1088225,232.453725 C12.3890787,230.545162 14.6990943,232.127289 17.2813889,234.183837 C16.8076234,234.709399 16.214055,235.170218 15.4821689,235.51352" id="Fill-1" fill="#0E244C"></path>
                            <path d="M15.6643236,250.535184 C17.7015155,247.312171 20.8730221,246.113607 22.637935,245.679991 C21.5689674,241.461348 21.9893663,237.970658 22.6972918,235.522932 C20.6818822,235.81346 19.073802,235.61107 17.2811166,234.183456 C16.8078956,234.709562 16.2143273,235.170381 15.4824411,235.513683 C13.2998522,236.536516 12.3305387,249.158167 12.8582155,251.362699 C13.1664354,252.649401 14.5588706,251.616775 15.6643236,250.535184" id="Fill-3" fill="#F39B9B"></path>
                            <path d="M87.0024734,61.2349492 C87.0024734,61.2349492 91.5157712,58.0636226 90.2115545,53.2122383 C88.9073378,48.361398 87.5666356,47.2830707 83.7977488,48.2025324 C80.0283174,49.121994 75.3336818,50.8776762 73.4794613,53.0392271 C70.1554785,56.9129354 71.0425637,61.1816313 71.0425637,61.1816313 C71.0425637,61.1816313 65.5218334,58.1495841 62.9553309,60.9449652 C58.6032223,65.6848172 62.7260719,77.1492527 71.0425637,76.419668 C79.3585109,75.6900834 86.3261322,71.1939703 87.0024734,61.2349492" id="Fill-5" fill="#EFEFEF"></path>
                            <path d="M81.5188819,87.9316 C89.814136,99.7028854 122.231137,110.629245 136.197419,103.444387 C155.849433,93.3346613 129.197669,31.0631687 120.325183,37.1044126 C114.961286,40.7566884 127.030328,82.92135 123.51575,85.2711458 C119.84325,87.7259452 101.920752,77.0536613 87.4529319,76.3420306 C77.4886072,75.8518325 78.9044584,84.2216538 81.5188819,87.9316" id="Fill-7" fill="#F39B9B"></path>
                            <path d="M90.2113367,53.2124559 C89.811631,51.7233632 89.4064797,50.5928063 88.9305359,49.7636586 C88.8401393,50.6472123 88.3669183,51.6956162 86.9091361,52.5650243 C83.7261939,54.462162 78.3655636,55.0551876 75.8235663,58.1383765 C73.2815689,61.2215654 71.5362601,64.5495813 71.5362601,64.5495813 C70.7417498,64.8303163 64.7940859,65.0479404 61.5283708,63.5593918 C59.9807366,68.9423229 64.0137341,77.0368499 71.0423459,76.4198857 C79.3582931,75.690301 86.3264589,71.1941879 87.0028001,61.2351669 C87.0028001,61.2351669 91.5155534,58.0638402 90.2113367,53.2124559" id="Fill-9" fill="#B5B5B5"></path>
                            <path d="M136.197256,103.444224 C152.720239,94.943828 136.512011,49.5773724 125.657878,38.9339237 C118.022628,39.2957237 127.12764,45.3717874 127.444029,53.2764374 C127.760417,61.1816313 130.925389,70.0362103 132.824807,75.2548352 C134.723682,80.4740043 137.255877,90.5908028 132.192031,92.9884758 C127.12764,95.386693 117.63218,94.8594987 111.832092,94.4590704 C108.577812,94.2343736 97.8189771,94.4655992 88.9998582,94.7115143 C101.981035,103.327795 125.006586,109.201468 136.197256,103.444224" id="Fill-11" fill="#C87171"></path>
                            <path d="M112.437967,85.9301659 L104.734648,98.1007915 C104.734648,98.1007915 104.581627,100.116534 104.895837,102.212254 C107.558726,103.091999 110.281517,103.83573 112.987426,104.409713 C118.063252,98.6372348 112.437967,85.9301659 112.437967,85.9301659" id="Fill-13" fill="#0E244C"></path>
                            <path d="M50.4187314,153.864617 C49.641647,170.861601 57.970119,217.944022 54.8051472,221.97986 C45.674541,233.623291 15.3715146,228.423164 17.4566277,242.534997 C19.1736195,254.152857 67.2994889,255.834547 77.487627,236.117807 C92.3812919,207.292956 80.5513111,160.919445 83.7941547,161.147951 C89.7799377,161.570141 105.446875,196.049953 101.648582,206.247817 C91.9135165,232.387187 95.4765603,278.701939 110.194333,277.318938 C118.702509,276.518626 123.646008,223.067436 125.070027,204.381146 C126.95202,179.688977 118.324041,154.075713 110.99919,136.787657 C106.185841,125.427681 51.0525971,139.996524 50.4187314,153.864617" id="Fill-15" fill="#F39B9B"></path>
                            <path d="M72.2353094,75.5404124 C72.2353094,75.5404124 41.2875262,57.6332166 36.6119501,52.9711652 C31.936374,48.3091138 10.2046926,7.952364 4.78089366,11.1595986 C-0.64290533,14.3668332 9.16023015,54.9945249 25.4000427,68.4866726 C41.6393108,81.9788202 54.0399885,90.8306789 60.3737442,90.1576765 C66.7080443,89.4846741 72.2353094,75.5404124 72.2353094,75.5404124" id="Fill-17" fill="#F39B9B"></path>
                            <path d="M125.236934,201.504428 C119.515262,204.605571 111.819022,210.823635 110.715203,222.149879 C108.928508,240.479265 111.062631,260.705246 112.341253,267.358013 C112.764375,269.557648 113.477746,271.226281 114.369188,272.442255 C120.338634,258.713985 123.897866,219.766351 125.0703,204.380874 C125.14327,203.423329 125.195003,202.464695 125.236934,201.504428" id="Fill-19" fill="#C87171"></path>
                            <path d="M96.3857546,234.005657 C96.2479814,236.482763 96.1853572,238.954428 96.1967929,241.392362 C101.039548,241.424461 114.059933,240.933175 117.28644,234.894651 C120.493888,228.89258 103.249365,232.404488 96.3857546,234.005657" id="Fill-21" fill="#0E244C"></path>
                            <path d="M77.4870824,236.11759 C82.7970688,225.840837 84.7090124,213.335071 85.1196092,201.505027 C83.7783625,200.806454 65.248683,236.368945 57.8116526,239.846578 C50.3735331,243.324754 31.8580121,240.795419 21.997698,241.112606 C19.5439191,241.19095 18.1683652,241.79921 17.4849448,242.66753 C19.5515429,254.164065 67.3386971,255.758705 77.4870824,236.11759" id="Fill-23" fill="#C87171"></path>
                            <path d="M77.4870824,236.11759 C78.0033236,235.118151 78.4847129,234.096406 78.9383299,233.057795 L55.8251045,231.225945 C55.8251045,231.225945 65.1778904,239.319928 74.0520098,240.746453 C75.4417221,239.35638 76.6081656,237.818322 77.4870824,236.11759" id="Fill-25" fill="#0E244C"></path>
                            <path d="M43.9504699,72.8118964 C42.58853,70.8897318 21.7297754,48.3748906 21.0969988,43.1573538 C20.4636777,37.939817 16.981773,36.9909761 12.3927817,29.2435595 C7.80324574,21.496143 9.22780981,16.4369276 6.22075981,12.8004296 C5.40337806,11.8118723 4.64535314,11.7269989 3.9733684,12.1214425 C0.549731433,19.1147917 10.1279644,55.7985914 25.4000972,68.4866182 C41.6393652,81.9793099 54.040043,90.8306245 60.3737986,90.1576221 C61.3147951,90.057515 62.2372765,89.659807 63.1270845,89.0629731 C57.4909079,82.9890855 44.9579025,74.2335255 43.9504699,72.8118964" id="Fill-27" fill="#C87171"></path>
                            <path d="M36.7619759,77.6109421 C39.423776,79.6517118 41.9309216,81.4868266 44.2692543,83.0841872 L46.7034291,67.4930555 C46.7034291,67.4930555 39.910611,71.0359752 36.7619759,77.6109421" id="Fill-29" fill="#0E244C"></path>
                            <path d="M104.734375,117.07391 C103.534714,111.552243 101.373362,106.576813 99.9890957,103.119311 C102.782134,103.136721 104.619474,102.120961 104.619474,102.120961 C105.334478,102.363067 108.171626,103.217242 108.171626,103.217242 C113.270324,99.084017 112.378882,83.0266257 112.378882,83.0266257 C111.477094,81.826429 108.709105,81.6958546 108.709105,81.6958546 C108.709105,81.6958546 106.870677,77.7046293 99.8682038,75.214466 C94.2548986,73.2183093 88.4989192,75.1551634 86.4312319,76.0033532 C85.8496438,75.6763731 85.3127095,75.4266494 84.8531025,75.2987953 C81.4114951,74.3396173 77.7585991,74.2003379 74.300655,74.5441839 C73.3471337,73.369014 71.8169254,72.0915607 69.9578039,70.2335953 C65.9226281,66.2010215 55.0554261,65.3169237 55.0554261,65.3169237 L52.3179324,63.6395863 C52.3179324,63.6395863 50.3738598,64.3044278 47.6439899,66.4425842 C44.91412,68.5812846 40.9884004,80.7698642 40.9884004,80.7698642 L45.1515473,83.871007 C45.1515473,83.871007 50.558465,89.749577 55.9953334,91.6755499 C54.9024052,102.685151 55.1981003,117.172385 55.1981003,117.172385 C55.1981003,117.172385 42.5403911,126.797897 37.7564479,149.091306 C34.1868694,165.728121 43.410595,185.298509 34.8648442,200.345036 C33.7060245,202.384718 28.2179677,208.69908 17.7074512,212.590198 C23.4040738,226.662314 62.9161227,232.882554 77.8990951,235.29002 C82.9885354,236.107742 88.6116427,236.653978 94.694357,236.741028 C103.06476,236.859633 112.300466,236.087612 122.204345,233.921708 C123.608216,222.265764 124.561737,211.05486 125.070354,204.380874 C128.188494,163.463199 105.581708,120.973733 104.734375,117.07391" id="Fill-31" fill="#BA104A"></path>
                            <path d="M55.9953879,91.6757675 C55.9953879,91.6757675 56.5459361,89.7998481 58.9267443,85.9299483 C61.3070079,82.0605925 61.0559666,80.5502815 56.9020772,78.1787233 C52.7476432,75.8071651 48.2370682,77.4670926 47.3091411,77.1112773 C46.9061681,76.9567642 45.458188,74.9878105 43.9503066,72.812114 C42.3090084,76.6727648 40.9884549,80.7700818 40.9884549,80.7700818 L45.1516018,83.8706806 C45.1516018,83.8706806 50.5585195,89.7492505 55.9953879,91.6757675" id="Fill-33" fill="#930C3A"></path>
                            <path d="M91.1701402,236.623946 C92.3316826,236.675632 93.4964925,236.724053 94.6939758,236.740919 C103.064379,236.860068 112.300629,236.088047 122.204508,233.9216 C123.608379,222.265655 124.561356,211.054751 125.069973,204.380766 C128.188657,163.46309 105.581871,120.973624 104.734539,117.073801 C103.534877,111.552135 101.373526,106.576705 99.9892591,103.119202 C102.781753,103.136612 104.619637,102.120852 104.619637,102.120852 C105.334097,102.363503 108.17179,103.217133 108.17179,103.217133 C110.18611,101.583865 111.263246,98.0888221 111.831765,94.4588528 C108.998973,93.5247015 105.327562,92.4333169 102.597693,92.0530188 C97.4940937,91.3413882 92.2717813,81.9737605 89.028393,80.9890116 C85.7850048,80.0048068 93.9735254,102.163289 93.9735254,102.163289 C96.7992376,109.221381 106.816929,182.452965 101.038078,201.584296 C98.1660785,211.091748 91.3062797,228.958139 91.1701402,236.623946" id="Fill-35" fill="#930C3A"></path>
                            <path d="M110.221996,85.9301659 C109.051196,85.9301659 108.102576,86.8779187 108.102576,88.047648 C108.102576,89.2179214 109.051196,90.164586 110.221996,90.164586 C111.392252,90.164586 112.341417,89.2179214 112.341417,88.047648 C112.341417,86.8779187 111.392252,85.9301659 110.221996,85.9301659" id="Fill-37" fill="#7B0A31"></path>
                            <path d="M110.34828,100.059027 C110.305259,100.056307 110.264962,100.046514 110.221942,100.046514 C109.051142,100.046514 108.102522,100.994267 108.102522,102.163452 C108.102522,102.49424 108.18475,102.802722 108.3198,103.081281 C109.149163,102.353329 109.815157,101.304381 110.34828,100.059027" id="Fill-39" fill="#7B0A31"></path>
                            <path d="M117.234762,149.458492 C117.234762,149.457948 117.234762,149.457948 117.234762,149.457948 C116.087922,149.486239 115.167074,150.418214 115.167074,151.569989 C115.167074,150.418758 116.088467,149.486783 117.234762,149.458492" id="Fill-41" fill="#FFB5B3"></path>
                            <path d="M110.221996,142.394741 C109.051196,142.394741 108.102576,143.34195 108.102576,144.511679 C108.102576,145.682497 109.051196,146.628617 110.221996,146.628617 C111.392252,146.628617 112.341417,145.682497 112.341417,144.511679 C112.341417,143.34195 111.392252,142.394741 110.221996,142.394741" id="Fill-43" fill="#7B0A31"></path>
                            <path d="M108.102522,130.395658 C108.102522,131.565931 109.051142,132.51314 110.221942,132.51314 C110.523627,132.51314 110.80952,132.447309 111.069819,132.334144 C110.516003,130.951687 109.980158,129.645399 109.470452,128.421808 C108.671585,128.725937 108.102522,129.49143 108.102522,130.395658" id="Fill-45" fill="#7B0A31"></path>
                            <path d="M117.286604,177.684822 C116.115259,177.684822 115.167183,178.632575 115.167183,179.802304 C115.167183,178.632575 116.115259,177.685366 117.286604,177.685366 C118.456314,177.685366 119.405479,178.632575 119.406024,179.802304 C119.406024,178.632575 118.456859,177.684822 117.286604,177.684822" id="Fill-47" fill="#FFB5B3"></path>
                            <path d="M117.286604,163.568474 C116.115259,163.568474 115.167183,164.516227 115.167183,165.685956 C115.167183,166.85623 116.115259,167.802894 117.286604,167.802894 C118.456859,167.802894 119.406024,166.85623 119.406024,165.685956 C119.406024,164.516227 118.456859,163.568474 117.286604,163.568474" id="Fill-49" fill="#7B0A31"></path>
                            <path d="M123.430472,174.643036 C123.239876,173.514655 123.037845,172.392803 122.825468,171.279112 C122.45898,171.659954 122.231899,172.174091 122.231899,172.743722 C122.231899,173.583207 122.723091,174.300278 123.430472,174.643036" id="Fill-51" fill="#7B0A31"></path>
                            <path d="M110.221996,170.626893 C109.051196,170.626893 108.102576,171.574102 108.102576,172.743831 C108.102576,173.914649 109.051196,174.860769 110.221996,174.860769 C111.392252,174.860769 112.341417,173.914649 112.341417,172.743831 C112.341417,171.574102 111.392252,170.626893 110.221996,170.626893" id="Fill-53" fill="#7B0A31"></path>
                            <path d="M110.221996,156.510545 C109.051196,156.510545 108.102576,157.458298 108.102576,158.628027 C108.102576,159.798301 109.051196,160.744965 110.221996,160.744965 C111.392252,160.744965 112.341417,159.798301 112.341417,158.628027 C112.341417,157.458298 111.392252,156.510545 110.221996,156.510545" id="Fill-55" fill="#7B0A31"></path>
                            <path d="M117.234762,149.458492 C116.088467,149.486783 115.167074,150.418758 115.167074,151.569989 L115.167074,151.570533 C115.167074,152.740807 116.11515,153.687471 117.286495,153.687471 C117.708527,153.687471 118.098975,153.560705 118.429522,153.348522 C118.037985,152.028088 117.638824,150.731049 117.234762,149.458492" id="Fill-57" fill="#7B0A31"></path>
                            <path d="M117.286604,205.916974 C116.115259,205.916974 115.167183,206.864727 115.167183,208.034456 C115.167183,206.865271 116.115259,205.917518 117.286604,205.917518 C118.456314,205.917518 119.406024,206.865271 119.406024,208.034456 C119.406024,206.864727 118.456859,205.916974 117.286604,205.916974" id="Fill-59" fill="#7B0A31"></path>
                            <path d="M117.286604,191.800626 C116.115259,191.800626 115.167183,192.748379 115.167183,193.918108 C115.167183,195.088381 116.115259,196.035046 117.286604,196.035046 C118.456859,196.035046 119.406024,195.088381 119.406024,193.918108 C119.406024,192.748379 118.456859,191.800626 117.286604,191.800626" id="Fill-61" fill="#7B0A31"></path>
                            <path d="M124.350993,198.859045 C123.179648,198.859045 122.231573,199.806253 122.231573,200.975983 C122.231573,202.1468 123.179648,203.092921 124.350993,203.092921 C124.640153,203.092921 124.9157,203.034706 125.166741,202.929703 C125.245157,201.657146 125.299069,200.382957 125.330108,199.108768 C125.036047,198.954799 124.706045,198.859045 124.350993,198.859045" id="Fill-63" fill="#7B0A31"></path>
                            <path d="M110.221996,198.859045 C109.051196,198.859045 108.102576,199.806253 108.102576,200.975983 C108.102576,202.1468 109.051196,203.092921 110.221996,203.092921 C111.392252,203.092921 112.341417,202.1468 112.341417,200.975983 C112.341417,199.806253 111.392252,198.859045 110.221996,198.859045" id="Fill-65" fill="#7B0A31"></path>
                            <path d="M124.350993,184.742697 C123.179648,184.742697 122.231573,185.69045 122.231573,186.860179 C122.231573,188.030452 123.179648,188.977117 124.350993,188.977117 C124.620005,188.977117 124.874858,188.922167 125.111741,188.830765 C125.023522,187.478231 124.913521,186.130594 124.783917,184.78731 C124.643965,184.758475 124.499113,184.742697 124.350993,184.742697" id="Fill-67" fill="#7B0A31"></path>
                            <path d="M110.221996,184.742697 C109.051196,184.742697 108.102576,185.69045 108.102576,186.860179 C108.102576,188.030452 109.051196,188.977117 110.221996,188.977117 C111.392252,188.977117 112.341417,188.030452 112.341417,186.860179 C112.341417,185.69045 111.392252,184.742697 110.221996,184.742697" id="Fill-69" fill="#7B0A31"></path>
                            <path d="M117.286604,177.685312 C116.115259,177.685312 115.167183,178.632521 115.167183,179.80225 L115.167183,179.802794 C115.167183,180.973067 116.115259,181.919732 117.286604,181.919732 C118.456859,181.919732 119.406024,180.973067 119.406024,179.802794 L119.406024,179.80225 C119.405479,178.632521 118.456314,177.685312 117.286604,177.685312" id="Fill-71" fill="#7B0A31"></path>
                            <path d="M115.467071,235.195788 L115.467616,235.195788 C115.836282,234.572296 116.508811,234.149561 117.28644,234.149561 C117.802137,234.149561 118.268279,234.34107 118.635311,234.646288 L118.635855,234.646288 C118.268823,234.340526 117.802137,234.149017 117.28644,234.149017 C116.508267,234.149017 115.835737,234.572296 115.467071,235.195788" id="Fill-73" fill="#7B0A31"></path>
                            <path d="M117.286604,220.032778 C116.115259,220.032778 115.167183,220.98053 115.167183,222.15026 C115.167183,223.320533 116.115259,224.267198 117.286604,224.267198 C118.456859,224.267198 119.406024,223.320533 119.406024,222.15026 C119.406024,220.98053 118.456859,220.032778 117.286604,220.032778" id="Fill-75" fill="#7B0A31"></path>
                            <path d="M122.23179,229.208461 C122.23179,229.658943 122.374465,230.074605 122.61407,230.417363 C122.719715,229.490284 122.823181,228.56647 122.922835,227.652993 C122.500802,228.03982 122.23179,228.590409 122.23179,229.208461" id="Fill-77" fill="#7B0A31"></path>
                            <path d="M110.221996,227.091196 C109.051196,227.091196 108.102576,228.038405 108.102576,229.208679 C108.102576,230.378952 109.051196,231.325073 110.221996,231.325073 C111.392252,231.325073 112.341417,230.378952 112.341417,229.208679 C112.341417,228.038405 111.392252,227.091196 110.221996,227.091196" id="Fill-79" fill="#7B0A31"></path>
                            <path d="M124.350993,212.974849 C123.179648,212.974849 122.231573,213.922601 122.231573,215.092331 C122.231573,216.136926 122.988508,216.998173 123.983416,217.172273 C124.119556,215.715824 124.245893,214.317589 124.363518,212.976481 C124.359161,212.976481 124.355349,212.974849 124.350993,212.974849" id="Fill-81" fill="#7B0A31"></path>
                            <path d="M110.221996,212.974849 C109.051196,212.974849 108.102576,213.922601 108.102576,215.092331 C108.102576,216.262604 109.051196,217.209269 110.221996,217.209269 C111.392252,217.209269 112.341417,216.262604 112.341417,215.092331 C112.341417,213.922601 111.392252,212.974849 110.221996,212.974849" id="Fill-83" fill="#7B0A31"></path>
                            <path d="M117.286604,205.917463 C116.115259,205.917463 115.167183,206.865216 115.167183,208.034402 L115.167183,208.034946 C115.167183,209.205219 116.115259,210.151884 117.286604,210.151884 C118.456859,210.151884 119.406024,209.205219 119.406024,208.034946 L119.406024,208.034402 C119.406024,206.865216 118.456314,205.917463 117.286604,205.917463" id="Fill-85" fill="#7B0A31"></path>
                            <path d="M115.467616,235.195788 C116.51589,235.026042 117.570155,234.847046 118.635311,234.646288 C118.268279,234.34107 117.802137,234.149561 117.28644,234.149561 C116.508811,234.149561 115.836282,234.572296 115.467616,235.195788" id="Fill-87" fill="#7B0A31"></path>
                            <path d="M89.0286108,92.988095 C87.8572663,92.988095 86.908646,93.9358478 86.908646,95.1055771 L86.908646,95.1055771 C86.9091906,93.9363918 87.8572663,92.9886391 89.0286108,92.9886391 C90.1983217,92.9886391 91.1474865,93.9363918 91.1480311,95.1055771 L91.1480311,95.1055771 C91.1480311,93.9358478 90.1988663,92.988095 89.0286108,92.988095" id="Fill-89" fill="#7B0A31"></path>
                            <path d="M103.157335,92.9886391 C104.32759,92.9886391 105.276755,93.9363918 105.276755,95.1055771 L105.276755,95.1055771 C105.276755,93.9358478 104.32759,92.988095 103.157335,92.988095 C101.986535,92.988095 101.037915,93.9358478 101.037915,95.1055771 L101.037915,95.1055771 C101.038459,93.9363918 101.986535,92.9886391 103.157335,92.9886391" id="Fill-91" fill="#7B0A31"></path>
                            <path d="M89.0286108,78.8720192 C87.8572663,78.8720192 86.908646,79.8197719 86.908646,80.9895013 C86.908646,82.1597746 87.8572663,83.1064393 89.0286108,83.1064393 C90.1988663,83.1064393 91.1480311,82.1597746 91.1480311,80.9895013 C91.1480311,79.8197719 90.1988663,78.8720192 89.0286108,78.8720192" id="Fill-93" fill="#7B0A31"></path>
                            <path d="M103.157335,78.8720192 C101.986535,78.8720192 101.037915,79.8197719 101.037915,80.9895013 C101.037915,82.1597746 101.986535,83.1064393 103.157335,83.1064393 C104.32759,83.1064393 105.276755,82.1597746 105.276755,80.9895013 C105.276755,79.8197719 104.32759,78.8720192 103.157335,78.8720192" id="Fill-95" fill="#7B0A31"></path>
                            <path d="M96.0930001,85.9301659 C94.9216556,85.9301659 93.9735799,86.8779187 93.9735799,88.047648 C93.9735799,89.2179214 94.9216556,90.164586 96.0930001,90.164586 C97.2632555,90.164586 98.2124204,89.2179214 98.2124204,88.047648 C98.2124204,86.8779187 97.2632555,85.9301659 96.0930001,85.9301659" id="Fill-97" fill="#7B0A31"></path>
                            <path d="M81.9637315,85.9301659 C80.7929315,85.9301659 79.8443112,86.8779187 79.8443112,88.047648 C79.8443112,89.2179214 80.7929315,90.164586 81.9637315,90.164586 C83.1339869,90.164586 84.0831517,89.2179214 84.0831517,88.047648 C84.0831517,86.8779187 83.1339869,85.9301659 81.9637315,85.9301659" id="Fill-99" fill="#7B0A31"></path>
                            <path d="M96.0930001,76.048347 C96.9877091,76.048347 97.749546,75.4928616 98.0599441,74.7094149 C96.6756773,74.4101819 95.3104701,74.3160595 94.0166,74.3563199 C94.2131854,75.3225707 95.0675972,76.048347 96.0930001,76.048347" id="Fill-101" fill="#7B0A31"></path>
                            <path d="M81.9637315,76.048347 C82.7304693,76.048347 83.3953748,75.6386697 83.7678526,75.0298664 C82.5006658,74.7415145 81.2122413,74.5581662 79.9194603,74.4613235 C80.156343,75.3731683 80.9769921,76.048347 81.9637315,76.048347" id="Fill-103" fill="#7B0A31"></path>
                            <path d="M89.0286108,121.220519 C87.8572663,121.220519 86.908646,122.168272 86.908646,123.337457 L86.908646,123.338001 C86.9091906,122.168816 87.8572663,121.221063 89.0286108,121.221063 C90.1983217,121.221063 91.1474865,122.168816 91.1480311,123.338001 L91.1480311,123.337457 C91.1480311,122.168272 90.1988663,121.220519 89.0286108,121.220519" id="Fill-105" fill="#7B0A31"></path>
                            <path d="M103.157335,121.220519 C101.986535,121.220519 101.037915,122.168272 101.037915,123.337457 L101.037915,123.338001 C101.038459,122.168816 101.986535,121.221063 103.157335,121.221063 C104.32759,121.221063 105.276755,122.168816 105.276755,123.338001 L105.276755,123.337457 C105.276755,122.168272 104.32759,121.220519 103.157335,121.220519" id="Fill-107" fill="#7B0A31"></path>
                            <path d="M89.0286108,107.104171 C87.8572663,107.104171 86.908646,108.051924 86.908646,109.221653 C86.908646,110.391926 87.8572663,111.338591 89.0286108,111.338591 C90.1988663,111.338591 91.1480311,110.391926 91.1480311,109.221653 C91.1480311,108.051924 90.1988663,107.104171 89.0286108,107.104171" id="Fill-109" fill="#7B0A31"></path>
                            <path d="M101.038133,109.221435 C101.038133,110.383548 101.973139,111.322596 103.132503,111.336197 C102.696312,110.029909 102.239428,108.782379 101.789078,107.616458 C101.333283,108.004917 101.038133,108.575636 101.038133,109.221435" id="Fill-111" fill="#7B0A31"></path>
                            <path d="M96.0930001,114.162318 C94.9216556,114.162318 93.9735799,115.11007 93.9735799,116.2798 C93.9735799,117.450073 94.9216556,118.396738 96.0930001,118.396738 C97.2632555,118.396738 98.2124204,117.450073 98.2124204,116.2798 C98.2124204,115.11007 97.2632555,114.162318 96.0930001,114.162318" id="Fill-113" fill="#7B0A31"></path>
                            <path d="M81.9637315,114.162318 C80.7929315,114.162318 79.8443112,115.11007 79.8443112,116.2798 C79.8443112,117.450073 80.7929315,118.396738 81.9637315,118.396738 C83.1339869,118.396738 84.0831517,117.450073 84.0831517,116.2798 C84.0831517,115.11007 83.1339869,114.162318 81.9637315,114.162318" id="Fill-115" fill="#7B0A31"></path>
                            <path d="M96.0930001,100.046242 C94.9216556,100.046242 93.9735799,100.993995 93.9735799,102.163724 C93.9735799,103.333997 94.9216556,104.280662 96.0930001,104.280662 C97.2632555,104.280662 98.2124204,103.333997 98.2124204,102.163724 C98.2124204,100.993995 97.2632555,100.046242 96.0930001,100.046242" id="Fill-117" fill="#7B0A31"></path>
                            <path d="M81.9637315,100.046242 C80.7929315,100.046242 79.8443112,100.993995 79.8443112,102.163724 C79.8443112,103.333997 80.7929315,104.280662 81.9637315,104.280662 C83.1339869,104.280662 84.0831517,103.333997 84.0831517,102.163724 C84.0831517,100.993995 83.1339869,100.046242 81.9637315,100.046242" id="Fill-119" fill="#7B0A31"></path>
                            <path d="M89.0286108,92.9886391 C87.8572663,92.9886391 86.9091906,93.9363918 86.908646,95.1055771 L86.908646,95.1061212 C86.908646,96.2763946 87.8572663,97.2230592 89.0286108,97.2230592 C90.1988663,97.2230592 91.1480311,96.2763946 91.1480311,95.1061212 L91.1480311,95.1055771 C91.1474865,93.9363918 90.1983217,92.9886391 89.0286108,92.9886391" id="Fill-121" fill="#7B0A31"></path>
                            <path d="M103.157335,97.223168 C104.32759,97.223168 105.276755,96.2765034 105.276755,95.1056859 L105.276755,95.1056859 C105.276755,93.9365007 104.32759,92.9887479 103.157335,92.9887479 C101.986535,92.9887479 101.038459,93.9365007 101.037915,95.1056859 L101.037915,95.1056859 C101.037915,96.2765034 101.986535,97.223168 103.157335,97.223168" id="Fill-123" fill="#7B0A31"></path>
                            <path d="M89.0286108,149.45267 C87.8572663,149.45267 86.908646,150.400423 86.908646,151.570153 C86.9091906,150.400967 87.8572663,149.453214 89.0286108,149.453214 C90.1983217,149.453214 91.1474865,150.400967 91.1480311,151.570153 C91.1480311,150.400423 90.1988663,149.45267 89.0286108,149.45267" id="Fill-125" fill="#7B0A31"></path>
                            <path d="M103.157335,149.45267 C101.986535,149.45267 101.037915,150.400423 101.037915,151.570153 C101.038459,150.400967 101.986535,149.453214 103.157335,149.453214 C104.32759,149.453214 105.276755,150.400967 105.276755,151.570153 C105.276755,150.400423 104.32759,149.45267 103.157335,149.45267" id="Fill-127" fill="#7B0A31"></path>
                            <path d="M89.0286108,135.336323 C87.8572663,135.336323 86.908646,136.284075 86.908646,137.453805 C86.908646,138.624078 87.8572663,139.570743 89.0286108,139.570743 C90.1988663,139.570743 91.1480311,138.624078 91.1480311,137.453805 C91.1480311,136.284075 90.1988663,135.336323 89.0286108,135.336323" id="Fill-129" fill="#7B0A31"></path>
                            <path d="M103.157335,135.336323 C101.986535,135.336323 101.037915,136.284075 101.037915,137.453805 C101.037915,138.624078 101.986535,139.570743 103.157335,139.570743 C104.32759,139.570743 105.276755,138.624078 105.276755,137.453805 C105.276755,136.284075 104.32759,135.336323 103.157335,135.336323" id="Fill-131" fill="#7B0A31"></path>
                            <path d="M96.0930001,142.394741 C94.9216556,142.394741 93.9735799,143.34195 93.9735799,144.511679 C93.9735799,145.682497 94.9216556,146.628617 96.0930001,146.628617 C97.2632555,146.628617 98.2124204,145.682497 98.2124204,144.511679 C98.2124204,143.34195 97.2632555,142.394741 96.0930001,142.394741" id="Fill-133" fill="#7B0A31"></path>
                            <path d="M81.9637315,142.394741 C80.7929315,142.394741 79.8443112,143.34195 79.8443112,144.511679 C79.8443112,145.682497 80.7929315,146.628617 81.9637315,146.628617 C83.1339869,146.628617 84.0831517,145.682497 84.0831517,144.511679 C84.0831517,143.34195 83.1339869,142.394741 81.9637315,142.394741" id="Fill-135" fill="#7B0A31"></path>
                            <path d="M96.0930001,128.278393 C94.9216556,128.278393 93.9735799,129.226146 93.9735799,130.395876 C93.9735799,131.566149 94.9216556,132.512814 96.0930001,132.512814 C97.2632555,132.512814 98.2124204,131.566149 98.2124204,130.395876 C98.2124204,129.226146 97.2632555,128.278393 96.0930001,128.278393" id="Fill-137" fill="#7B0A31"></path>
                            <path d="M81.9637315,128.278393 C80.7929315,128.278393 79.8443112,129.226146 79.8443112,130.395876 C79.8443112,131.566149 80.7929315,132.512814 81.9637315,132.512814 C83.1339869,132.512814 84.0831517,131.566149 84.0831517,130.395876 C84.0831517,129.226146 83.1339869,128.278393 81.9637315,128.278393" id="Fill-139" fill="#7B0A31"></path>
                            <path d="M89.0286108,121.221008 C87.8572663,121.221008 86.9091906,122.168761 86.908646,123.337946 L86.908646,123.337946 C86.908646,124.508764 87.8572663,125.455429 89.0286108,125.455429 C90.1988663,125.455429 91.1480311,124.508764 91.1480311,123.337946 L91.1480311,123.337946 C91.1474865,122.168761 90.1983217,121.221008 89.0286108,121.221008" id="Fill-141" fill="#7B0A31"></path>
                            <path d="M103.157335,121.221008 C101.986535,121.221008 101.038459,122.168761 101.037915,123.337946 L101.037915,123.337946 C101.037915,124.508764 101.986535,125.455429 103.157335,125.455429 C104.32759,125.455429 105.276755,124.508764 105.276755,123.337946 L105.276755,123.337946 C105.276755,122.168761 104.32759,121.221008 103.157335,121.221008" id="Fill-143" fill="#7B0A31"></path>
                            <path d="M89.0286108,177.684822 C87.8572663,177.684822 86.908646,178.632575 86.908646,179.802304 C86.9091906,178.632575 87.8572663,177.685366 89.0286108,177.685366 C90.1983217,177.685366 91.1474865,178.632575 91.1480311,179.802304 C91.1480311,178.632575 90.1988663,177.684822 89.0286108,177.684822" id="Fill-145" fill="#7B0A31"></path>
                            <path d="M103.157335,177.684822 C101.986535,177.684822 101.037915,178.632575 101.037915,179.802304 C101.038459,178.632575 101.986535,177.685366 103.157335,177.685366 C104.32759,177.685366 105.276755,178.632575 105.276755,179.802304 C105.276755,178.632575 104.32759,177.684822 103.157335,177.684822" id="Fill-147" fill="#7B0A31"></path>
                            <path d="M89.0286108,163.568474 C87.8572663,163.568474 86.908646,164.516227 86.908646,165.685956 C86.908646,166.85623 87.8572663,167.802894 89.0286108,167.802894 C90.1988663,167.802894 91.1480311,166.85623 91.1480311,165.685956 C91.1480311,164.516227 90.1988663,163.568474 89.0286108,163.568474" id="Fill-149" fill="#7B0A31"></path>
                            <path d="M103.157335,163.568474 C101.986535,163.568474 101.037915,164.516227 101.037915,165.685956 C101.037915,166.85623 101.986535,167.802894 103.157335,167.802894 C104.32759,167.802894 105.276755,166.85623 105.276755,165.685956 C105.276755,164.516227 104.32759,163.568474 103.157335,163.568474" id="Fill-151" fill="#7B0A31"></path>
                            <path d="M96.0930001,170.626893 C94.9216556,170.626893 93.9735799,171.574102 93.9735799,172.743831 C93.9735799,173.914649 94.9216556,174.860769 96.0930001,174.860769 C97.2632555,174.860769 98.2124204,173.914649 98.2124204,172.743831 C98.2124204,171.574102 97.2632555,170.626893 96.0930001,170.626893" id="Fill-153" fill="#7B0A31"></path>
                            <path d="M81.9637315,170.626893 C80.7929315,170.626893 79.8443112,171.574102 79.8443112,172.743831 C79.8443112,173.914649 80.7929315,174.860769 81.9637315,174.860769 C83.1339869,174.860769 84.0831517,173.914649 84.0831517,172.743831 C84.0831517,171.574102 83.1339869,170.626893 81.9637315,170.626893" id="Fill-155" fill="#7B0A31"></path>
                            <path d="M96.0930001,156.510545 C94.9216556,156.510545 93.9735799,157.458298 93.9735799,158.628027 C93.9735799,159.798301 94.9216556,160.744965 96.0930001,160.744965 C97.2632555,160.744965 98.2124204,159.798301 98.2124204,158.628027 C98.2124204,157.458298 97.2632555,156.510545 96.0930001,156.510545" id="Fill-157" fill="#7B0A31"></path>
                            <path d="M81.9637315,156.510545 C80.7929315,156.510545 79.8443112,157.458298 79.8443112,158.628027 C79.8443112,159.798301 80.7929315,160.744965 81.9637315,160.744965 C83.1339869,160.744965 84.0831517,159.798301 84.0831517,158.628027 C84.0831517,157.458298 83.1339869,156.510545 81.9637315,156.510545" id="Fill-159" fill="#7B0A31"></path>
                            <path d="M89.0286108,149.45316 C87.8572663,149.45316 86.9091906,150.400913 86.908646,151.570098 L86.908646,151.570642 C86.908646,152.740916 87.8572663,153.68758 89.0286108,153.68758 C90.1988663,153.68758 91.1480311,152.740916 91.1480311,151.570642 L91.1480311,151.570098 C91.1474865,150.400913 90.1983217,149.45316 89.0286108,149.45316" id="Fill-161" fill="#7B0A31"></path>
                            <path d="M103.157335,149.45316 C101.986535,149.45316 101.038459,150.400913 101.037915,151.570098 L101.037915,151.570642 C101.037915,152.740916 101.986535,153.68758 103.157335,153.68758 C104.32759,153.68758 105.276755,152.740916 105.276755,151.570642 L105.276755,151.570098 C105.276755,150.400913 104.32759,149.45316 103.157335,149.45316" id="Fill-163" fill="#7B0A31"></path>
                            <path d="M89.0286108,205.916974 C87.8572663,205.916974 86.908646,206.864727 86.908646,208.034456 C86.9091906,206.865271 87.8572663,205.917518 89.0286108,205.917518 C90.1983217,205.917518 91.1474865,206.865271 91.1480311,208.034456 C91.1480311,206.864727 90.1988663,205.916974 89.0286108,205.916974" id="Fill-165" fill="#7B0A31"></path>
                            <path d="M103.157335,205.916974 C101.986535,205.916974 101.037915,206.864727 101.037915,208.034456 C101.038459,206.865271 101.986535,205.917518 103.157335,205.917518 C104.32759,205.917518 105.276755,206.865271 105.276755,208.034456 C105.276755,206.864727 104.32759,205.916974 103.157335,205.916974" id="Fill-167" fill="#7B0A31"></path>
                            <path d="M89.0286108,191.800626 C87.8572663,191.800626 86.908646,192.748379 86.908646,193.918108 C86.908646,195.088381 87.8572663,196.035046 89.0286108,196.035046 C90.1988663,196.035046 91.1480311,195.088381 91.1480311,193.918108 C91.1480311,192.748379 90.1988663,191.800626 89.0286108,191.800626" id="Fill-169" fill="#7B0A31"></path>
                            <path d="M103.157335,191.800626 C101.986535,191.800626 101.037915,192.748379 101.037915,193.918108 C101.037915,195.088381 101.986535,196.035046 103.157335,196.035046 C104.32759,196.035046 105.276755,195.088381 105.276755,193.918108 C105.276755,192.748379 104.32759,191.800626 103.157335,191.800626" id="Fill-171" fill="#7B0A31"></path>
                            <path d="M96.0930001,198.859045 C94.9216556,198.859045 93.9735799,199.806253 93.9735799,200.975983 C93.9735799,202.1468 94.9216556,203.092921 96.0930001,203.092921 C97.2632555,203.092921 98.2124204,202.1468 98.2124204,200.975983 C98.2124204,199.806253 97.2632555,198.859045 96.0930001,198.859045" id="Fill-173" fill="#7B0A31"></path>
                            <path d="M81.9637315,198.859045 C80.7929315,198.859045 79.8443112,199.806253 79.8443112,200.975983 C79.8443112,202.1468 80.7929315,203.092921 81.9637315,203.092921 C83.1339869,203.092921 84.0831517,202.1468 84.0831517,200.975983 C84.0831517,199.806253 83.1339869,198.859045 81.9637315,198.859045" id="Fill-175" fill="#7B0A31"></path>
                            <path d="M96.0930001,184.742697 C94.9216556,184.742697 93.9735799,185.69045 93.9735799,186.860179 C93.9735799,188.030452 94.9216556,188.977117 96.0930001,188.977117 C97.2632555,188.977117 98.2124204,188.030452 98.2124204,186.860179 C98.2124204,185.69045 97.2632555,184.742697 96.0930001,184.742697" id="Fill-177" fill="#7B0A31"></path>
                            <path d="M81.9637315,184.742697 C80.7929315,184.742697 79.8443112,185.69045 79.8443112,186.860179 C79.8443112,188.030452 80.7929315,188.977117 81.9637315,188.977117 C83.1339869,188.977117 84.0831517,188.030452 84.0831517,186.860179 C84.0831517,185.69045 83.1339869,184.742697 81.9637315,184.742697" id="Fill-179" fill="#7B0A31"></path>
                            <path d="M89.0286108,177.685312 C87.8572663,177.685312 86.9091906,178.632521 86.908646,179.80225 L86.908646,179.802794 C86.908646,180.973067 87.8572663,181.919732 89.0286108,181.919732 C90.1988663,181.919732 91.1480311,180.973067 91.1480311,179.802794 L91.1480311,179.80225 C91.1474865,178.632521 90.1983217,177.685312 89.0286108,177.685312" id="Fill-181" fill="#7B0A31"></path>
                            <path d="M103.157335,177.685312 C101.986535,177.685312 101.038459,178.632521 101.037915,179.80225 L101.037915,179.802794 C101.037915,180.973067 101.986535,181.919732 103.157335,181.919732 C104.32759,181.919732 105.276755,180.973067 105.276755,179.802794 L105.276755,179.80225 C105.276755,178.632521 104.32759,177.685312 103.157335,177.685312" id="Fill-183" fill="#7B0A31"></path>
                            <path d="M89.0286108,234.149615 C90.1983217,234.149615 91.1474865,235.097368 91.1480311,236.266553 C91.1480311,235.096824 90.1988663,234.149071 89.0286108,234.149071 C87.8572663,234.149071 86.908646,235.096824 86.908646,236.266553 C86.9091906,235.097368 87.8572663,234.149615 89.0286108,234.149615" id="Fill-185" fill="#7B0A31"></path>
                            <path d="M103.157335,234.149615 C104.32759,234.149615 105.276755,235.097368 105.276755,236.266553 C105.276755,235.096824 104.32759,234.149071 103.157335,234.149071 C101.986535,234.149071 101.037915,235.096824 101.037915,236.266553 C101.038459,235.097368 101.986535,234.149615 103.157335,234.149615" id="Fill-187" fill="#7B0A31"></path>
                            <path d="M89.0286108,220.032778 C87.8572663,220.032778 86.908646,220.98053 86.908646,222.15026 C86.908646,223.320533 87.8572663,224.267198 89.0286108,224.267198 C90.1988663,224.267198 91.1480311,223.320533 91.1480311,222.15026 C91.1480311,220.98053 90.1988663,220.032778 89.0286108,220.032778" id="Fill-189" fill="#7B0A31"></path>
                            <path d="M103.157335,220.032778 C101.986535,220.032778 101.037915,220.98053 101.037915,222.15026 C101.037915,223.320533 101.986535,224.267198 103.157335,224.267198 C104.32759,224.267198 105.276755,223.320533 105.276755,222.15026 C105.276755,220.98053 104.32759,220.032778 103.157335,220.032778" id="Fill-191" fill="#7B0A31"></path>
                            <path d="M96.0930001,227.091196 C94.9216556,227.091196 93.9735799,228.038405 93.9735799,229.208679 C93.9735799,230.378952 94.9216556,231.325073 96.0930001,231.325073 C97.2632555,231.325073 98.2124204,230.378952 98.2124204,229.208679 C98.2124204,228.038405 97.2632555,227.091196 96.0930001,227.091196" id="Fill-193" fill="#7B0A31"></path>
                            <path d="M81.9637315,231.325181 C83.1339869,231.325181 84.0831517,230.379061 84.0831517,229.208243 C84.0831517,228.038514 83.1339869,227.091305 81.9637315,227.091305 C80.7929315,227.091305 79.8443112,228.038514 79.8443112,229.208243 C79.8443112,230.379061 80.7929315,231.325181 81.9637315,231.325181" id="Fill-195" fill="#7B0A31"></path>
                            <path d="M96.0930001,212.974849 C94.9216556,212.974849 93.9735799,213.922601 93.9735799,215.092331 C93.9735799,216.262604 94.9216556,217.209269 96.0930001,217.209269 C97.2632555,217.209269 98.2124204,216.262604 98.2124204,215.092331 C98.2124204,213.922601 97.2632555,212.974849 96.0930001,212.974849" id="Fill-197" fill="#7B0A31"></path>
                            <path d="M81.9637315,212.974849 C80.7929315,212.974849 79.8443112,213.922601 79.8443112,215.092331 C79.8443112,216.262604 80.7929315,217.209269 81.9637315,217.209269 C83.1339869,217.209269 84.0831517,216.262604 84.0831517,215.092331 C84.0831517,213.922601 83.1339869,212.974849 81.9637315,212.974849" id="Fill-199" fill="#7B0A31"></path>
                            <path d="M89.0286108,205.917463 C87.8572663,205.917463 86.9091906,206.865216 86.908646,208.034402 L86.908646,208.034946 C86.908646,209.205219 87.8572663,210.151884 89.0286108,210.151884 C90.1988663,210.151884 91.1480311,209.205219 91.1480311,208.034946 L91.1480311,208.034402 C91.1474865,206.865216 90.1983217,205.917463 89.0286108,205.917463" id="Fill-201" fill="#7B0A31"></path>
                            <path d="M103.157335,205.917463 C101.986535,205.917463 101.038459,206.865216 101.037915,208.034402 L101.037915,208.034946 C101.037915,209.205219 101.986535,210.151884 103.157335,210.151884 C104.32759,210.151884 105.276755,209.205219 105.276755,208.034946 L105.276755,208.034402 C105.276755,206.865216 104.32759,205.917463 103.157335,205.917463" id="Fill-203" fill="#7B0A31"></path>
                            <path d="M91.1478133,236.26639 C91.1478133,235.097749 90.1986484,234.149452 89.028393,234.149452 C87.857593,234.149452 86.9089728,235.097749 86.9089728,236.26639 L86.9089728,236.266934 C86.9089728,236.299034 86.9171411,236.328413 86.9182303,236.359968 C88.2888831,236.469869 89.6851301,236.55855 91.112417,236.622205 C91.1320211,236.505776 91.1478133,236.388804 91.1478133,236.266934 L91.1478133,236.26639 Z" id="Fill-205" fill="#7B0A31"></path>
                            <path d="M105.27681,236.26639 C105.27681,235.097749 104.327645,234.149452 103.157389,234.149452 C101.986589,234.149452 101.038514,235.097749 101.037969,236.26639 L101.037969,236.266934 C101.037969,236.400229 101.053761,236.529715 101.077177,236.657025 C102.451097,236.601531 103.850067,236.512849 105.262651,236.406213 C105.265374,236.35888 105.27681,236.314811 105.27681,236.266934 L105.27681,236.26639 Z" id="Fill-207" fill="#7B0A31"></path>
                            <path d="M58.6511434,66.8734798 C58.6511434,66.4997105 58.7562431,66.1536882 58.9266898,65.8490146 L58.9261453,65.8490146 C58.7562431,66.1536882 58.6511434,66.4997105 58.6511434,66.8734798 C58.6511434,66.8734798 58.6511434,66.8734798 58.6511434,66.8734798" id="Fill-209" fill="#7B0A31"></path>
                            <path d="M62.8898205,66.8732078 C62.8898205,66.8258746 62.8789294,66.7818057 62.875662,66.7355606 C62.8789294,66.7818057 62.8898205,66.8264186 62.8898205,66.8732078 Z" id="Fill-211" fill="#7B0A31"></path>
                            <path d="M60.7703458,92.988095 C59.5995459,92.988095 58.6509256,93.9358478 58.6509256,95.1055771 L58.6509256,95.1055771 C58.6509256,93.9363918 59.5995459,92.9886391 60.7703458,92.9886391 C61.9400567,92.9886391 62.8897661,93.9363918 62.8897661,95.1055771 L62.8897661,95.1055771 C62.8897661,93.9358478 61.9406013,92.988095 60.7703458,92.988095" id="Fill-213" fill="#7B0A31"></path>
                            <path d="M74.8993422,92.988095 C73.7285422,92.988095 72.779922,93.9358478 72.779922,95.1055771 L72.779922,95.1055771 C72.779922,93.9363918 73.7285422,92.9886391 74.8993422,92.9886391 C76.0695976,92.9886391 77.0187625,93.9363918 77.0187625,95.1055771 L77.0187625,95.1055771 C77.0187625,93.9358478 76.0695976,92.988095 74.8993422,92.988095" id="Fill-215" fill="#7B0A31"></path>
                            <path d="M60.7703458,78.8720192 C59.5995459,78.8720192 58.6509256,79.8197719 58.6509256,80.9895013 C58.6509256,82.1597746 59.5995459,83.1064393 60.7703458,83.1064393 C61.9406013,83.1064393 62.8897661,82.1597746 62.8897661,80.9895013 C62.8897661,79.8197719 61.9406013,78.8720192 60.7703458,78.8720192" id="Fill-217" fill="#7B0A31"></path>
                            <path d="M74.8993422,78.8720192 C73.7285422,78.8720192 72.779922,79.8197719 72.779922,80.9895013 C72.779922,82.1597746 73.7285422,83.1064393 74.8993422,83.1064393 C76.0695976,83.1064393 77.0187625,82.1597746 77.0187625,80.9895013 C77.0187625,79.8197719 76.0695976,78.8720192 74.8993422,78.8720192" id="Fill-219" fill="#7B0A31"></path>
                            <path d="M67.8350074,85.9301659 C66.6636629,85.9301659 65.7155871,86.8779187 65.7155871,88.047648 C65.7155871,89.2179214 66.6636629,90.164586 67.8350074,90.164586 C69.0052628,90.164586 69.9544276,89.2179214 69.9544276,88.047648 C69.9544276,86.8779187 69.0052628,85.9301659 67.8350074,85.9301659" id="Fill-221" fill="#7B0A31"></path>
                            <path d="M53.706011,90.1644228 C54.8762665,90.1644228 55.8254313,89.2177582 55.8254313,88.0474848 C55.8254313,86.8777555 54.8762665,85.9300027 53.706011,85.9300027 C52.5346665,85.9300027 51.5865908,86.8777555 51.5865908,88.0474848 C51.5865908,89.2177582 52.5346665,90.1644228 53.706011,90.1644228" id="Fill-223" fill="#7B0A31"></path>
                            <path d="M67.8350074,71.81409 C66.6636629,71.81409 65.7155871,72.7618428 65.7155871,73.9315722 C65.7155871,75.1018455 66.6636629,76.0485102 67.8350074,76.0485102 C69.0052628,76.0485102 69.9544276,75.1018455 69.9544276,73.9315722 C69.9544276,72.7618428 69.0052628,71.81409 67.8350074,71.81409" id="Fill-225" fill="#7B0A31"></path>
                            <path d="M53.706011,76.048347 C54.8762665,76.048347 55.8254313,75.1016823 55.8254313,73.9314089 C55.8254313,72.7616796 54.8762665,71.8139268 53.706011,71.8139268 C52.5346665,71.8139268 51.5865908,72.7616796 51.5865908,73.9314089 C51.5865908,75.1016823 52.5346665,76.048347 53.706011,76.048347" id="Fill-227" fill="#7B0A31"></path>
                            <path d="M58.6509256,66.8737518 C58.6509256,68.0445693 59.5995459,68.991234 60.7703458,68.991234 C61.9406013,68.991234 62.8897661,68.0445693 62.8897661,66.8737518 L62.8897661,66.8737518 C62.8897661,66.8264186 62.8788749,66.7818057 62.8756076,66.7355606 C61.4913408,66.350366 60.1239553,66.0620141 58.926472,65.8487425 C58.7565699,66.1539603 58.6509256,66.4999825 58.6509256,66.8737518 C58.6509256,66.8737518 58.6509256,66.8737518 58.6509256,66.8737518" id="Fill-229" fill="#7B0A31"></path>
                            <path d="M60.7703458,121.220519 C59.5995459,121.220519 58.6509256,122.168272 58.6509256,123.337457 C58.6509256,123.338001 58.6509256,123.338001 58.6509256,123.338001 C58.6509256,122.168816 59.5995459,121.221063 60.7703458,121.221063 C61.9400567,121.221063 62.8897661,122.168816 62.8897661,123.338001 L62.8897661,123.337457 C62.8897661,122.168272 61.9406013,121.220519 60.7703458,121.220519" id="Fill-231" fill="#7B0A31"></path>
                            <path d="M74.8993422,121.220519 C73.7285422,121.220519 72.779922,122.168272 72.779922,123.337457 L72.779922,123.338001 C72.779922,122.168816 73.7285422,121.221063 74.8993422,121.221063 C76.0695976,121.221063 77.0187625,122.168816 77.0187625,123.338001 C77.0187625,123.338001 77.0187625,123.338001 77.0187625,123.337457 C77.0187625,122.168272 76.0695976,121.220519 74.8993422,121.220519" id="Fill-233" fill="#7B0A31"></path>
                            <path d="M60.7703458,107.104171 C59.5995459,107.104171 58.6509256,108.051924 58.6509256,109.221653 C58.6509256,110.391926 59.5995459,111.338591 60.7703458,111.338591 C61.9406013,111.338591 62.8897661,110.391926 62.8897661,109.221653 C62.8897661,108.051924 61.9406013,107.104171 60.7703458,107.104171" id="Fill-235" fill="#7B0A31"></path>
                            <path d="M74.8993422,107.104171 C73.7285422,107.104171 72.779922,108.051924 72.779922,109.221653 C72.779922,110.391926 73.7285422,111.338591 74.8993422,111.338591 C76.0695976,111.338591 77.0187625,110.391926 77.0187625,109.221653 C77.0187625,108.051924 76.0695976,107.104171 74.8993422,107.104171" id="Fill-237" fill="#7B0A31"></path>
                            <path d="M67.8350074,114.162318 C66.6636629,114.162318 65.7155871,115.11007 65.7155871,116.2798 C65.7155871,117.450073 66.6636629,118.396738 67.8350074,118.396738 C69.0052628,118.396738 69.9544276,117.450073 69.9544276,116.2798 C69.9544276,115.11007 69.0052628,114.162318 67.8350074,114.162318" id="Fill-239" fill="#7B0A31"></path>
                            <path d="M55.1692387,114.753385 C55.1801299,116.272945 55.1981003,117.172276 55.1981003,117.172276 C55.1981003,117.172276 54.6742354,117.573792 53.808388,118.386618 C54.9301777,118.331668 55.8254313,117.414927 55.8254313,116.279473 C55.8254313,115.678287 55.5716672,115.138579 55.1692387,114.753385" id="Fill-241" fill="#7B0A31"></path>
                            <path d="M67.8350074,100.046242 C66.6636629,100.046242 65.7155871,100.993995 65.7155871,102.163724 C65.7155871,103.333997 66.6636629,104.280662 67.8350074,104.280662 C69.0052628,104.280662 69.9544276,103.333997 69.9544276,102.163724 C69.9544276,100.993995 69.0052628,100.046242 67.8350074,100.046242" id="Fill-243" fill="#7B0A31"></path>
                            <path d="M55.8252135,102.163506 C55.8252135,101.681469 55.6574896,101.241868 55.385755,100.886053 C55.3492696,101.786473 55.3176853,102.679275 55.2915465,103.555756 C55.619915,103.183075 55.8252135,102.699405 55.8252135,102.163506" id="Fill-245" fill="#7B0A31"></path>
                            <path d="M60.7703458,92.9886391 C59.5995459,92.9886391 58.6509256,93.9363918 58.6509256,95.1055771 C58.6509256,95.1061212 58.6509256,95.1061212 58.6509256,95.1061212 C58.6509256,96.2763946 59.5995459,97.2230592 60.7703458,97.2230592 C61.9406013,97.2230592 62.8897661,96.2763946 62.8897661,95.1061212 L62.8897661,95.1055771 C62.8897661,93.9363918 61.9400567,92.9886391 60.7703458,92.9886391" id="Fill-247" fill="#7B0A31"></path>
                            <path d="M74.8993422,92.9886391 C73.7285422,92.9886391 72.779922,93.9363918 72.779922,95.1055771 L72.779922,95.1061212 C72.779922,96.2763946 73.7285422,97.2230592 74.8993422,97.2230592 C76.0695976,97.2230592 77.0187625,96.2763946 77.0187625,95.1061212 C77.0187625,95.1061212 77.0187625,95.1061212 77.0187625,95.1055771 C77.0187625,93.9363918 76.0695976,92.9886391 74.8993422,92.9886391" id="Fill-249" fill="#7B0A31"></path>
                            <path d="M60.7703458,149.45267 C59.5995459,149.45267 58.6509256,150.400423 58.6509256,151.570153 L58.6509256,151.570153 C58.6509256,150.400967 59.5995459,149.453214 60.7703458,149.453214 C61.9400567,149.453214 62.8897661,150.400967 62.8897661,151.570153 C62.8897661,150.400423 61.9406013,149.45267 60.7703458,149.45267" id="Fill-251" fill="#7B0A31"></path>
                            <path d="M74.8993422,149.45267 C73.7285422,149.45267 72.779922,150.400423 72.779922,151.570153 C72.779922,150.400967 73.7285422,149.453214 74.8993422,149.453214 C76.0695976,149.453214 77.0187625,150.400967 77.0187625,151.570153 L77.0187625,151.570153 C77.0187625,150.400423 76.0695976,149.45267 74.8993422,149.45267" id="Fill-253" fill="#7B0A31"></path>
                            <path d="M60.7703458,135.336323 C59.5995459,135.336323 58.6509256,136.284075 58.6509256,137.453805 C58.6509256,138.624078 59.5995459,139.570743 60.7703458,139.570743 C61.9406013,139.570743 62.8897661,138.624078 62.8897661,137.453805 C62.8897661,136.284075 61.9406013,135.336323 60.7703458,135.336323" id="Fill-255" fill="#7B0A31"></path>
                            <path d="M74.8993422,135.336323 C73.7285422,135.336323 72.779922,136.284075 72.779922,137.453805 C72.779922,138.624078 73.7285422,139.570743 74.8993422,139.570743 C76.0695976,139.570743 77.0187625,138.624078 77.0187625,137.453805 C77.0187625,136.284075 76.0695976,135.336323 74.8993422,135.336323" id="Fill-257" fill="#7B0A31"></path>
                            <path d="M67.8350074,142.394741 C66.6636629,142.394741 65.7155871,143.34195 65.7155871,144.511679 C65.7155871,145.682497 66.6636629,146.628617 67.8350074,146.628617 C69.0052628,146.628617 69.9544276,145.682497 69.9544276,144.511679 C69.9544276,143.34195 69.0052628,142.394741 67.8350074,142.394741" id="Fill-259" fill="#7B0A31"></path>
                            <path d="M53.706011,142.394741 C52.5346665,142.394741 51.5865908,143.34195 51.5865908,144.511679 C51.5865908,145.682497 52.5346665,146.628617 53.706011,146.628617 C54.8762665,146.628617 55.8254313,145.682497 55.8254313,144.511679 C55.8254313,143.34195 54.8762665,142.394741 53.706011,142.394741" id="Fill-261" fill="#7B0A31"></path>
                            <path d="M67.8350074,128.278393 C66.6636629,128.278393 65.7155871,129.226146 65.7155871,130.395876 C65.7155871,131.566149 66.6636629,132.512814 67.8350074,132.512814 C69.0052628,132.512814 69.9544276,131.566149 69.9544276,130.395876 C69.9544276,129.226146 69.0052628,128.278393 67.8350074,128.278393" id="Fill-263" fill="#7B0A31"></path>
                            <path d="M53.706011,128.278393 C52.5346665,128.278393 51.5865908,129.226146 51.5865908,130.395876 C51.5865908,131.566149 52.5346665,132.512814 53.706011,132.512814 C54.8762665,132.512814 55.8254313,131.566149 55.8254313,130.395876 C55.8254313,129.226146 54.8762665,128.278393 53.706011,128.278393" id="Fill-265" fill="#7B0A31"></path>
                            <path d="M60.7703458,121.221008 C59.5995459,121.221008 58.6509256,122.168761 58.6509256,123.337946 C58.6509256,123.337946 58.6509256,123.337946 58.6509256,123.337946 C58.6509256,124.508764 59.5995459,125.455429 60.7703458,125.455429 C61.9406013,125.455429 62.8897661,124.508764 62.8897661,123.337946 L62.8897661,123.337946 C62.8897661,122.168761 61.9400567,121.221008 60.7703458,121.221008" id="Fill-267" fill="#7B0A31"></path>
                            <path d="M74.8993422,121.221008 C73.7285422,121.221008 72.779922,122.168761 72.779922,123.337946 L72.779922,123.337946 C72.779922,124.508764 73.7285422,125.455429 74.8993422,125.455429 C76.0695976,125.455429 77.0187625,124.508764 77.0187625,123.337946 C77.0187625,123.337946 77.0187625,123.337946 77.0187625,123.337946 C77.0187625,122.168761 76.0695976,121.221008 74.8993422,121.221008" id="Fill-269" fill="#7B0A31"></path>
                            <path d="M60.7703458,177.684822 C59.5995459,177.684822 58.6509256,178.632575 58.6509256,179.802304 L58.6509256,179.802304 C58.6509256,178.632575 59.5995459,177.685366 60.7703458,177.685366 C61.9400567,177.685366 62.8897661,178.632575 62.8897661,179.802304 C62.8897661,178.632575 61.9406013,177.684822 60.7703458,177.684822" id="Fill-271" fill="#7B0A31"></path>
                            <path d="M74.8993422,177.684822 C73.7285422,177.684822 72.779922,178.632575 72.779922,179.802304 C72.7804665,178.632575 73.7285422,177.685366 74.8993422,177.685366 C76.0695976,177.685366 77.0187625,178.632575 77.0187625,179.802304 L77.0187625,179.802304 C77.0187625,178.632575 76.0695976,177.684822 74.8993422,177.684822" id="Fill-273" fill="#7B0A31"></path>
                            <path d="M60.7703458,163.568474 C59.5995459,163.568474 58.6509256,164.516227 58.6509256,165.685956 C58.6509256,166.85623 59.5995459,167.802894 60.7703458,167.802894 C61.9406013,167.802894 62.8897661,166.85623 62.8897661,165.685956 C62.8897661,164.516227 61.9406013,163.568474 60.7703458,163.568474" id="Fill-275" fill="#7B0A31"></path>
                            <path d="M74.8993422,163.568474 C73.7285422,163.568474 72.779922,164.516227 72.779922,165.685956 C72.779922,166.85623 73.7285422,167.802894 74.8993422,167.802894 C76.0695976,167.802894 77.0187625,166.85623 77.0187625,165.685956 C77.0187625,164.516227 76.0695976,163.568474 74.8993422,163.568474" id="Fill-277" fill="#7B0A31"></path>
                            <path d="M67.8350074,170.626893 C66.6636629,170.626893 65.7155871,171.574102 65.7155871,172.743831 C65.7155871,173.914649 66.6636629,174.860769 67.8350074,174.860769 C69.0052628,174.860769 69.9544276,173.914649 69.9544276,172.743831 C69.9544276,171.574102 69.0052628,170.626893 67.8350074,170.626893" id="Fill-279" fill="#7B0A31"></path>
                            <path d="M53.706011,170.626893 C52.5346665,170.626893 51.5865908,171.574102 51.5865908,172.743831 C51.5865908,173.914649 52.5346665,174.860769 53.706011,174.860769 C54.8762665,174.860769 55.8254313,173.914649 55.8254313,172.743831 C55.8254313,171.574102 54.8762665,170.626893 53.706011,170.626893" id="Fill-281" fill="#7B0A31"></path>
                            <path d="M67.8350074,156.510545 C66.6636629,156.510545 65.7155871,157.458298 65.7155871,158.628027 C65.7155871,159.798301 66.6636629,160.744965 67.8350074,160.744965 C69.0052628,160.744965 69.9544276,159.798301 69.9544276,158.628027 C69.9544276,157.458298 69.0052628,156.510545 67.8350074,156.510545" id="Fill-283" fill="#7B0A31"></path>
                            <path d="M53.706011,156.510545 C52.5346665,156.510545 51.5865908,157.458298 51.5865908,158.628027 C51.5865908,159.798301 52.5346665,160.744965 53.706011,160.744965 C54.8762665,160.744965 55.8254313,159.798301 55.8254313,158.628027 C55.8254313,157.458298 54.8762665,156.510545 53.706011,156.510545" id="Fill-285" fill="#7B0A31"></path>
                            <path d="M60.7703458,149.45316 C59.5995459,149.45316 58.6509256,150.400913 58.6509256,151.570098 L58.6509256,151.570642 C58.6509256,152.740916 59.5995459,153.68758 60.7703458,153.68758 C61.9406013,153.68758 62.8897661,152.740916 62.8897661,151.570642 L62.8897661,151.570098 C62.8897661,150.400913 61.9400567,149.45316 60.7703458,149.45316" id="Fill-287" fill="#7B0A31"></path>
                            <path d="M74.8993422,149.45316 C73.7285422,149.45316 72.779922,150.400913 72.779922,151.570098 L72.779922,151.570642 C72.779922,152.740916 73.7285422,153.68758 74.8993422,153.68758 C76.0695976,153.68758 77.0187625,152.740916 77.0187625,151.570642 L77.0187625,151.570098 C77.0187625,150.400913 76.0695976,149.45316 74.8993422,149.45316" id="Fill-289" fill="#7B0A31"></path>
                            <path d="M60.7703458,205.916974 C59.5995459,205.916974 58.6509256,206.864727 58.6509256,208.034456 L58.6509256,208.034456 C58.6509256,206.865271 59.5995459,205.917518 60.7703458,205.917518 C61.9400567,205.917518 62.8897661,206.865271 62.8897661,208.034456 C62.8897661,206.864727 61.9406013,205.916974 60.7703458,205.916974" id="Fill-291" fill="#7B0A31"></path>
                            <path d="M74.8993422,205.916974 C73.7285422,205.916974 72.779922,206.864727 72.779922,208.034456 C72.779922,206.865271 73.7285422,205.917518 74.8993422,205.917518 C76.0695976,205.917518 77.0187625,206.865271 77.0187625,208.034456 L77.0187625,208.034456 C77.0187625,206.864727 76.0695976,205.916974 74.8993422,205.916974" id="Fill-293" fill="#7B0A31"></path>
                            <path d="M60.7703458,191.800626 C59.5995459,191.800626 58.6509256,192.748379 58.6509256,193.918108 C58.6509256,195.088381 59.5995459,196.035046 60.7703458,196.035046 C61.9406013,196.035046 62.8897661,195.088381 62.8897661,193.918108 C62.8897661,192.748379 61.9406013,191.800626 60.7703458,191.800626" id="Fill-295" fill="#7B0A31"></path>
                            <path d="M74.8993422,191.800626 C73.7285422,191.800626 72.779922,192.748379 72.779922,193.918108 C72.779922,195.088381 73.7285422,196.035046 74.8993422,196.035046 C76.0695976,196.035046 77.0187625,195.088381 77.0187625,193.918108 C77.0187625,192.748379 76.0695976,191.800626 74.8993422,191.800626" id="Fill-297" fill="#7B0A31"></path>
                            <path d="M67.8350074,198.859045 C66.6636629,198.859045 65.7155871,199.806253 65.7155871,200.975983 C65.7155871,202.1468 66.6636629,203.092921 67.8350074,203.092921 C69.0052628,203.092921 69.9544276,202.1468 69.9544276,200.975983 C69.9544276,199.806253 69.0052628,198.859045 67.8350074,198.859045" id="Fill-299" fill="#7B0A31"></path>
                            <path d="M53.706011,198.859045 C52.5346665,198.859045 51.5865908,199.806253 51.5865908,200.975983 C51.5865908,202.1468 52.5346665,203.092921 53.706011,203.092921 C54.8762665,203.092921 55.8254313,202.1468 55.8254313,200.975983 C55.8254313,199.806253 54.8762665,198.859045 53.706011,198.859045" id="Fill-301" fill="#7B0A31"></path>
                            <path d="M67.8350074,184.742697 C66.6636629,184.742697 65.7155871,185.69045 65.7155871,186.860179 C65.7155871,188.030452 66.6636629,188.977117 67.8350074,188.977117 C69.0052628,188.977117 69.9544276,188.030452 69.9544276,186.860179 C69.9544276,185.69045 69.0052628,184.742697 67.8350074,184.742697" id="Fill-303" fill="#7B0A31"></path>
                            <path d="M53.706011,184.742697 C52.5346665,184.742697 51.5865908,185.69045 51.5865908,186.860179 C51.5865908,188.030452 52.5346665,188.977117 53.706011,188.977117 C54.8762665,188.977117 55.8254313,188.030452 55.8254313,186.860179 C55.8254313,185.69045 54.8762665,184.742697 53.706011,184.742697" id="Fill-305" fill="#7B0A31"></path>
                            <path d="M60.7703458,177.685312 C59.5995459,177.685312 58.6509256,178.632521 58.6509256,179.80225 C58.6509256,179.802794 58.6509256,179.802794 58.6509256,179.802794 C58.6509256,180.973067 59.5995459,181.919732 60.7703458,181.919732 C61.9406013,181.919732 62.8897661,180.973067 62.8897661,179.802794 L62.8897661,179.80225 C62.8897661,178.632521 61.9400567,177.685312 60.7703458,177.685312" id="Fill-307" fill="#7B0A31"></path>
                            <path d="M74.8993422,177.685312 C73.7285422,177.685312 72.7804665,178.632521 72.779922,179.80225 L72.779922,179.802794 C72.779922,180.973067 73.7285422,181.919732 74.8993422,181.919732 C76.0695976,181.919732 77.0187625,180.973067 77.0187625,179.802794 C77.0187625,179.802794 77.0187625,179.802794 77.0187625,179.80225 C77.0187625,178.632521 76.0695976,177.685312 74.8993422,177.685312" id="Fill-309" fill="#7B0A31"></path>
                            <path d="M74.8993422,234.149126 C74.4119627,234.149126 73.9692369,234.319416 73.6114622,234.594711 C73.6120068,234.594711 73.6120068,234.595255 73.6125513,234.595255 C73.9697815,234.31996 74.4125072,234.14967 74.8993422,234.14967 C75.6339511,234.14967 76.2808862,234.523439 76.6609878,235.090894 L76.6615323,235.090894 C76.2814307,234.522895 75.6344957,234.149126 74.8993422,234.149126" id="Fill-311" fill="#7B0A31"></path>
                            <path d="M60.7703458,220.032778 C59.5995459,220.032778 58.6509256,220.98053 58.6509256,222.15026 C58.6509256,223.320533 59.5995459,224.267198 60.7703458,224.267198 C61.9406013,224.267198 62.8897661,223.320533 62.8897661,222.15026 C62.8897661,220.98053 61.9406013,220.032778 60.7703458,220.032778" id="Fill-313" fill="#7B0A31"></path>
                            <path d="M74.8993422,224.267307 C76.0695976,224.267307 77.0187625,223.320642 77.0187625,222.149825 C77.0187625,220.980639 76.0695976,220.032886 74.8993422,220.032886 C73.7285422,220.032886 72.779922,220.980639 72.779922,222.149825 C72.779922,223.320642 73.7285422,224.267307 74.8993422,224.267307" id="Fill-315" fill="#7B0A31"></path>
                            <path d="M67.8350074,227.091196 C66.6636629,227.091196 65.7155871,228.038405 65.7155871,229.208679 C65.7155871,230.378952 66.6636629,231.325073 67.8350074,231.325073 C69.0052628,231.325073 69.9544276,230.378952 69.9544276,229.208679 C69.9544276,228.038405 69.0052628,227.091196 67.8350074,227.091196" id="Fill-317" fill="#7B0A31"></path>
                            <path d="M55.8252135,229.208461 C55.8252135,228.038732 54.8760486,227.090979 53.7057932,227.090979 C52.5349932,227.090979 51.586373,228.038732 51.586373,229.208461 C51.586373,229.616506 51.7072649,229.99354 51.9071177,230.316711 C52.884055,230.552834 53.8571804,230.779163 54.8270384,230.998963 C55.4249632,230.624649 55.8252135,229.965793 55.8252135,229.208461" id="Fill-319" fill="#7B0A31"></path>
                            <path d="M67.8350074,212.974849 C66.6636629,212.974849 65.7155871,213.922601 65.7155871,215.092331 C65.7155871,216.262604 66.6636629,217.209269 67.8350074,217.209269 C69.0052628,217.209269 69.9544276,216.262604 69.9544276,215.092331 C69.9544276,213.922601 69.0052628,212.974849 67.8350074,212.974849" id="Fill-321" fill="#7B0A31"></path>
                            <path d="M53.706011,212.974849 C52.5346665,212.974849 51.5865908,213.922601 51.5865908,215.092331 C51.5865908,216.262604 52.5346665,217.209269 53.706011,217.209269 C54.8762665,217.209269 55.8254313,216.262604 55.8254313,215.092331 C55.8254313,213.922601 54.8762665,212.974849 53.706011,212.974849" id="Fill-323" fill="#7B0A31"></path>
                            <path d="M60.7703458,205.917463 C59.5995459,205.917463 58.6509256,206.865216 58.6509256,208.034402 C58.6509256,208.034946 58.6509256,208.034946 58.6509256,208.034946 C58.6509256,209.205219 59.5995459,210.151884 60.7703458,210.151884 C61.9406013,210.151884 62.8897661,209.205219 62.8897661,208.034946 L62.8897661,208.034402 C62.8897661,206.865216 61.9400567,205.917463 60.7703458,205.917463" id="Fill-325" fill="#7B0A31"></path>
                            <path d="M74.8993422,205.917463 C73.7285422,205.917463 72.779922,206.865216 72.779922,208.034402 L72.779922,208.034946 C72.779922,209.205219 73.7285422,210.151884 74.8993422,210.151884 C76.0695976,210.151884 77.0187625,209.205219 77.0187625,208.034946 C77.0187625,208.034946 77.0187625,208.034946 77.0187625,208.034402 C77.0187625,206.865216 76.0695976,205.917463 74.8993422,205.917463" id="Fill-327" fill="#7B0A31"></path>
                            <path d="M74.8993422,234.149615 C74.4125072,234.149615 73.9697815,234.319906 73.6125513,234.5952 C74.6973111,234.773652 75.7194468,234.939591 76.6609878,235.090839 C76.2808862,234.523385 75.6339511,234.149615 74.8993422,234.149615" id="Fill-329" fill="#7B0A31"></path>
                            <path d="M48.7608242,66.8732078 C48.7608242,66.4896454 48.6508234,66.1349182 48.4727529,65.8248039 L48.4722084,65.8253479 C48.6508234,66.1354622 48.7608242,66.4901894 48.7608242,66.8732078 Z" id="Fill-331" fill="#7B0A31"></path>
                            <path d="M46.6413495,78.8720192 C45.4705495,78.8720192 44.5219292,79.8197719 44.5219292,80.9895013 C44.5219292,82.1597746 45.4705495,83.1064393 46.6413495,83.1064393 C47.8116049,83.1064393 48.7607697,82.1597746 48.7607697,80.9895013 C48.7607697,79.8197719 47.8116049,78.8720192 46.6413495,78.8720192" id="Fill-333" fill="#7B0A31"></path>
                            <path d="M48.7608242,66.8737518 L48.7608242,66.8737518 C48.7608242,66.4901894 48.6508234,66.1354622 48.4722084,65.8253479 C48.2037412,66.0184893 47.9309176,66.2181594 47.6439355,66.4428562 C47.0841297,66.8813687 46.4742246,67.7464243 45.8577848,68.837809 C46.1012023,68.9346517 46.3642239,68.991234 46.6414039,68.991234 C47.8116594,68.991234 48.7608242,68.0445693 48.7608242,66.8737518" id="Fill-335" fill="#7B0A31"></path>
                            <path d="M46.6413495,149.45267 C45.4705495,149.45267 44.5219292,150.400423 44.5219292,151.570153 C44.5219292,150.400967 45.4705495,149.453214 46.6413495,149.453214 C47.8116049,149.453214 48.7607697,150.400967 48.7607697,151.570153 C48.7607697,150.400423 47.8116049,149.45267 46.6413495,149.45267" id="Fill-337" fill="#7B0A31"></path>
                            <path d="M46.6413495,135.336323 C45.4705495,135.336323 44.5219292,136.284075 44.5219292,137.453805 C44.5219292,138.624078 45.4705495,139.570743 46.6413495,139.570743 C47.8116049,139.570743 48.7607697,138.624078 48.7607697,137.453805 C48.7607697,136.284075 47.8116049,135.336323 46.6413495,135.336323" id="Fill-339" fill="#7B0A31"></path>
                            <path d="M39.5767424,146.628726 C40.7469978,146.628726 41.6967072,145.682606 41.6967072,144.511244 C41.6967072,143.342059 40.7469978,142.39485 39.5767424,142.39485 C39.5625839,142.39485 39.5484254,142.398659 39.5337223,142.399203 C39.1389177,143.644556 38.7669845,144.939419 38.4228237,146.284336 C38.7555487,146.500872 39.1503534,146.628726 39.5767424,146.628726" id="Fill-341" fill="#7B0A31"></path>
                            <path d="M46.6413495,177.684822 C45.4705495,177.684822 44.5219292,178.632575 44.5219292,179.802304 C44.5219292,178.632575 45.4705495,177.685366 46.6413495,177.685366 C47.8116049,177.685366 48.7602252,178.632575 48.7607697,179.802304 C48.7607697,178.632575 47.8116049,177.684822 46.6413495,177.684822" id="Fill-343" fill="#7B0A31"></path>
                            <path d="M46.6413495,163.568474 C45.4705495,163.568474 44.5219292,164.516227 44.5219292,165.685956 C44.5219292,166.85623 45.4705495,167.802894 46.6413495,167.802894 C47.8116049,167.802894 48.7607697,166.85623 48.7607697,165.685956 C48.7607697,164.516227 47.8116049,163.568474 46.6413495,163.568474" id="Fill-345" fill="#7B0A31"></path>
                            <path d="M39.5767424,174.860878 C40.7469978,174.860878 41.6967072,173.914757 41.6967072,172.743396 C41.6967072,171.574211 40.7469978,170.627002 39.5767424,170.627002 C38.842678,170.627002 38.1962875,170.999683 37.816186,171.56605 C37.9054935,172.458308 37.9926228,173.350023 38.0770293,174.239561 C38.4603982,174.623124 38.9907978,174.860878 39.5767424,174.860878" id="Fill-347" fill="#7B0A31"></path>
                            <path d="M39.5767424,160.745074 C40.7469978,160.745074 41.6967072,159.798409 41.6967072,158.627592 C41.6967072,157.458407 40.7469978,156.510654 39.5767424,156.510654 C38.4059424,156.510654 37.4573221,157.458407 37.4573221,158.627592 C37.4573221,159.798409 38.4059424,160.745074 39.5767424,160.745074" id="Fill-349" fill="#7B0A31"></path>
                            <path d="M46.6413495,149.45316 C45.4705495,149.45316 44.5219292,150.400913 44.5219292,151.570098 L44.5219292,151.570642 C44.5219292,152.740916 45.4705495,153.68758 46.6413495,153.68758 C47.8116049,153.68758 48.7607697,152.740916 48.7607697,151.570642 L48.7607697,151.570098 C48.7607697,150.400913 47.8116049,149.45316 46.6413495,149.45316" id="Fill-351" fill="#7B0A31"></path>
                            <path d="M32.5123531,205.916974 C31.3415531,205.916974 30.3929329,206.864727 30.3929329,208.034456 C30.3929329,206.865271 31.3415531,205.917518 32.5123531,205.917518 C33.682064,205.917518 34.6317734,206.865271 34.6317734,208.034456 C34.6317734,206.864727 33.6826085,205.916974 32.5123531,205.916974" id="Fill-353" fill="#7B0A31"></path>
                            <path d="M46.6413495,205.916974 C45.4705495,205.916974 44.5219292,206.864727 44.5219292,208.034456 C44.5219292,206.865271 45.4705495,205.917518 46.6413495,205.917518 C47.8116049,205.917518 48.7607697,206.865271 48.7607697,208.034456 C48.7607697,206.864727 47.8116049,205.916974 46.6413495,205.916974" id="Fill-355" fill="#7B0A31"></path>
                            <path d="M46.6413495,191.800626 C45.4705495,191.800626 44.5219292,192.748379 44.5219292,193.918108 C44.5219292,195.088381 45.4705495,196.035046 46.6413495,196.035046 C47.8116049,196.035046 48.7607697,195.088381 48.7607697,193.918108 C48.7607697,192.748379 47.8116049,191.800626 46.6413495,191.800626" id="Fill-357" fill="#7B0A31"></path>
                            <path d="M39.5767424,198.859045 C38.4059424,198.859045 37.4573221,199.806253 37.4573221,200.975983 C37.4573221,202.1468 38.4059424,203.092921 39.5767424,203.092921 C40.7469978,203.092921 41.6967072,202.1468 41.6967072,200.975983 C41.6967072,199.806253 40.7469978,198.859045 39.5767424,198.859045" id="Fill-359" fill="#7B0A31"></path>
                            <path d="M41.6964894,186.859961 C41.6964894,185.690776 40.7473246,184.742479 39.5765246,184.742479 C39.2241955,184.742479 38.896916,184.836602 38.6050329,184.988938 C38.577805,186.208721 38.5081015,187.417079 38.3877542,188.612923 C38.7270139,188.843061 39.135977,188.977443 39.5765246,188.977443 C40.7473246,188.977443 41.6964894,188.030235 41.6964894,186.859961" id="Fill-361" fill="#7B0A31"></path>
                            <path d="M46.6413495,177.685312 C45.4705495,177.685312 44.5219292,178.632521 44.5219292,179.80225 L44.5219292,179.802794 C44.5219292,180.973067 45.4705495,181.919732 46.6413495,181.919732 C47.8116049,181.919732 48.7607697,180.973067 48.7607697,179.802794 L48.7607697,179.80225 C48.7602252,178.632521 47.8116049,177.685312 46.6413495,177.685312" id="Fill-363" fill="#7B0A31"></path>
                            <path d="M34.6318278,222.150042 C34.6318278,220.980857 33.682663,220.03256 32.5124076,220.03256 C31.3416076,220.03256 30.3929873,220.980857 30.3929873,222.150042 C30.3929873,222.644593 30.5694242,223.093442 30.8536835,223.45361 C31.4445291,223.72564 32.0506223,223.990598 32.6665175,224.251746 C33.7632576,224.17177 34.6318278,223.268086 34.6318278,222.150042" id="Fill-365" fill="#7B0A31"></path>
                            <path d="M46.6413495,220.032778 C45.4705495,220.032778 44.5219292,220.98053 44.5219292,222.15026 C44.5219292,223.320533 45.4705495,224.267198 46.6413495,224.267198 C47.8116049,224.267198 48.7607697,223.320533 48.7607697,222.15026 C48.7607697,220.98053 47.8116049,220.032778 46.6413495,220.032778" id="Fill-367" fill="#7B0A31"></path>
                            <path d="M39.5767424,217.209378 C40.7469978,217.209378 41.6967072,216.262713 41.6967072,215.091895 C41.6967072,213.92271 40.7469978,212.974957 39.5767424,212.974957 C38.4059424,212.974957 37.4573221,213.92271 37.4573221,215.091895 C37.4573221,216.262713 38.4059424,217.209378 39.5767424,217.209378" id="Fill-369" fill="#7B0A31"></path>
                            <path d="M25.447746,217.209378 C26.6180015,217.209378 27.5671663,216.262713 27.5671663,215.091895 C27.5671663,213.92271 26.6180015,212.974957 25.447746,212.974957 C24.276946,212.974957 23.3283258,213.92271 23.3283258,215.091895 C23.3283258,216.262713 24.276946,217.209378 25.447746,217.209378" id="Fill-371" fill="#7B0A31"></path>
                            <path d="M32.5123531,205.917463 C31.3415531,205.917463 30.3929329,206.865216 30.3929329,208.034402 L30.3929329,208.034946 C30.3929329,209.205219 31.3415531,210.151884 32.5123531,210.151884 C33.6826085,210.151884 34.6317734,209.205219 34.6317734,208.034946 L34.6317734,208.034402 C34.6317734,206.865216 33.682064,205.917463 32.5123531,205.917463" id="Fill-373" fill="#7B0A31"></path>
                            <path d="M46.6413495,205.917463 C45.4705495,205.917463 44.5219292,206.865216 44.5219292,208.034402 L44.5219292,208.034946 C44.5219292,209.205219 45.4705495,210.151884 46.6413495,210.151884 C47.8116049,210.151884 48.7607697,209.205219 48.7607697,208.034946 L48.7607697,208.034402 C48.7607697,206.865216 47.8116049,205.917463 46.6413495,205.917463" id="Fill-375" fill="#7B0A31"></path>
                            <path d="M80.7105398,64.6780883 L82.9072874,72.8553124 C83.3810529,74.6474465 87.2256333,78.02606 82.2815901,79.3584633 C80.2454872,79.90742 76.9008112,78.3372624 77.2079419,76.2730982 L76.9536333,66.358146 L80.7105398,64.6780883 Z" id="Fill-377" fill="#F39B9B"></path>
                            <path d="M81.979687,69.4027611 L82.9070695,72.8553668 C82.9217726,72.9108609 82.9440995,72.9690753 82.9724165,73.0300101 C81.590328,72.7607003 79.8749699,72.1796441 79.6299187,70.9288498 C79.4306104,69.9120014 80.648787,69.5273508 81.979687,69.4027611" id="Fill-379" fill="#311E69"></path>
                            <path d="M77.1248968,63.350908 C76.0096418,66.6353991 77.5883158,70.3567705 80.8513081,71.5384692 C83.8638037,72.6293098 87.1768954,71.3611056 88.3177447,67.5167765 C89.3322565,64.0995347 87.3762037,60.6588983 86.7537737,58.9266108 C85.8220347,56.3341642 83.0475111,56.6018418 80.3023935,59.967942 C79.0847615,61.4613871 77.1248968,63.350908 77.1248968,63.350908" id="Fill-381" fill="#F39B9B"></path>
                            <path d="M77.3432102,63.7437738 C77.163506,63.4037362 77.0382576,63.0408481 76.9347916,62.6703431 C76.737117,61.9663293 76.2807773,60.9663467 75.3800781,61.7720998 C74.0693267,62.9440054 75.3250778,66.6359976 77.1460801,66.4346953 C78.498218,66.2856228 77.7946489,64.6012126 77.3432102,63.7437738" id="Fill-383" fill="#F39B9B"></path>
                            <path d="M83.7372484,66.29275 C83.7372484,66.29275 85.33117,66.4042823 87.5104917,65.6844908 C87.5104917,65.6844908 87.574205,66.8025344 86.9463295,67.3525792 C86.1872154,68.0174207 84.6466605,68.0141563 83.7372484,66.29275" id="Fill-385" fill="#FFFFFF"></path>
                            <path d="M81.4694361,70.2183072 C82.7409793,70.478912 85.098916,70.3668356 86.1684282,69.7515036 C87.1165039,69.2058113 88.1424514,67.6693854 88.3640866,67.3271716 C88.3477498,67.3902826 88.3368587,67.4533935 88.3177991,67.5165045 C87.1769498,71.3608335 83.8638582,72.6295818 80.8513626,71.5387412 C78.8403094,70.8102447 77.4723794,69.1160414 76.9768315,67.1552486 C78.4318908,69.0910146 80.3264085,69.9838173 81.4694361,70.2183072" id="Fill-387" fill="#C87171"></path>
                            <path d="M103.162399,279.914432 C104.352259,282.009607 117.021948,282.00199 119.181121,281.306682 C120.441773,280.900269 119.304191,279.592892 118.139382,278.574956 C122.052576,280.582538 126.884441,283.170632 127.051075,284.506843 C127.329889,286.733682 104.276565,286.664042 100.446143,284.506843 C98.442714,283.379007 99.8438621,280.955763 101.696993,278.225125 C102.257888,278.656021 102.763783,279.21205 103.162399,279.914432" id="Fill-389" fill="#0E244C"></path>
                            <path d="M118.139599,278.57501 C114.765517,276.794845 113.325161,273.727434 112.756098,272.002763 C108.629436,273.392837 105.113224,273.243221 102.615881,272.726907 C103.061329,274.711639 102.982913,276.32913 101.696667,278.224635 C102.258106,278.656075 102.763456,279.212104 103.162617,279.914486 C104.351932,282.009118 117.022166,282.002045 119.181339,281.306736 C120.441991,280.899779 119.304409,279.592947 118.139599,278.57501" id="Fill-391" fill="#F39B9B"></path>
                            <path d="M55.1982092,117.172439 C55.1982092,117.172439 82.7768112,121.935686 92.034844,120.631574 C101.292332,119.326917 104.734484,117.073964 104.734484,117.073964 L105.655877,119.507545 C105.655877,119.507545 104.054331,126.797407 90.4480016,128.576484 C76.8422167,130.355017 53.9936466,118.212138 53.9936466,118.212138 L55.1982092,117.172439 Z" id="Fill-393" fill="#7B0A31"></path>
                            <path d="M118.259783,40.3747038 C118.259783,40.3747038 117.11839,37.6614758 116.558039,36.7964202 C115.998233,35.9313645 114.343866,34.0897209 116.194274,34.5587008 C118.044138,35.0276806 118.296813,36.9830328 119.390286,36.0700998 C120.483759,35.1571669 119.499198,30.7524559 120.243064,29.5060141 C121.75748,26.9668854 123.339966,29.2067811 124.547252,32.1180469 C125.753992,35.0293128 125.781765,39.8763447 122.26283,41.6282183 C118.743351,43.380092 118.259783,40.3747038 118.259783,40.3747038" id="Fill-395" fill="#F39B9B"></path>
                            <g id="Group-399" transform="translate(0.000000, 0.020674)">
                                <mask id="mask-2" fill="white">
                                    <use xlink:href="#path-1"></use>
                                </mask>
                                <g id="Clip-398"></g>
                                <path d="M6.91044269,15.5905333 C6.91044269,15.5905333 9.65991669,14.7602975 10.7288843,12.8789375 C11.7983965,10.9981215 14.1868284,9.80826198 14.8283179,9.81587883 C15.4698074,9.82349567 15.4714411,8.38663281 13.9466783,8.13255672 C12.8521165,7.95029657 11.0746787,8.25224995 10.3291786,9.09608725 C9.58367855,9.9404686 8.27129346,4.5939895 5.90246558,2.41992514 C3.53472683,0.246404842 4.57646653,3.08966319 4.57646653,3.08966319 C4.57646653,3.08966319 3.33269576,0.229538977 1.92664667,0.547814165 C0.521142132,0.866633414 1.51332705,5.39593417 1.51332705,5.39593417 C1.51332705,5.39593417 0.749856547,3.01567101 0.106188836,3.64134018 C-0.536389759,4.26700935 1.73550676,16.574194 6.91044269,15.5905333" id="Fill-397" fill="#F39B9B" mask="url(#mask-2)"></path>
                            </g>
                            <path d="M104.426482,102.215301 C101.935129,97.1713191 96.7552917,88.2928015 95.1205282,87.4282899 C93.1029403,86.3608439 99.9894225,103.119529 99.9894225,103.119529 C102.278745,103.13313 103.906974,102.460672 104.426482,102.215301" id="Fill-400" fill="#0E244C"></path>
                            <g id="Group-404" transform="translate(162.822881, 264.433907)">
                                <mask id="mask-4" fill="white">
                                    <use xlink:href="#path-3"></use>
                                </mask>
                                <g id="Clip-403"></g>
                                <path d="M31.1238388,15.0522946 C29.1095183,12.026232 29.4133817,5.63461335 27.8662921,3.37621967 C26.3290045,1.13197155 19.5247506,-0.669411609 17.1885962,1.25601726 C15.107295,2.97143892 18.9088554,9.35108824 17.1847843,12.0398335 C16.4327495,13.2117391 0.653633125,20.7562212 0.437443547,22.3682714 C0.0774906221,25.0548404 27.9180251,25.2164263 32.5669178,22.6522708 C34.9983699,21.3111625 33.3325666,18.3699734 31.1238388,15.0522946" id="Fill-402" fill="#0E244C" mask="url(#mask-4)"></path>
                            </g>
                            <path d="M204.805481,187.533127 C207.600698,167.95349 240.739239,132.105367 223.622143,119.487524 C206.503958,106.869137 187.795664,118.031619 187.795664,118.031619 C187.795664,118.031619 174.107106,168.577527 173.099129,189.208832 C172.366698,204.215643 178.140648,270.664974 178.311095,271.982688 C178.884514,276.436908 200.54268,277.791074 203.264927,275.44019 C210.272301,269.387521 204.032209,192.948158 204.805481,187.533127" id="Fill-405" fill="#163774"></path>
                            <path d="M226.763263,139.033157 C219.515739,138.382461 205.01579,139.246428 200.771504,155.569321 C195.038396,177.616815 200.683285,183.598212 194.867404,196.416813 C189.050979,209.23487 187.853496,220.515413 190.077471,234.871529 C191.667036,245.131959 182.772768,251.897891 176.880105,255.237332 C177.657734,264.805174 178.257837,271.570562 178.310659,271.982416 C178.884623,276.43718 200.542789,277.791346 203.265035,275.440462 C210.272409,269.387793 204.032318,192.94843 204.80559,187.533399 C206.643474,174.657671 221.601941,154.747246 226.763263,139.033157" id="Fill-407" fill="#0E244C"></path>
                            <path d="M305.814099,163.463253 C303.507895,166.273868 297.301566,167.854907 295.593287,169.994695 C293.8959,172.120338 294.163822,179.147419 296.691117,180.816052 C298.94232,182.30188 303.934284,176.80252 307.012127,177.662135 C308.354463,178.036448 320.195879,190.901295 321.801237,190.635249 C324.47774,190.192928 316.480359,163.549759 312.66464,159.859399 C310.669379,157.929073 308.343027,160.38224 305.814099,163.463253" id="Fill-409" fill="#0E244C"></path>
                            <path d="M207.795215,120.707524 C207.795215,120.707524 217.032554,167.365579 223.532944,182.406122 C230.033879,197.446121 239.608845,221.170407 281.557792,200.084268 C310.777147,185.39682 304.191261,194.228549 305.388745,190.639928 C306.585683,187.050763 310.349125,168.320404 303.164769,165.418388 C295.979869,162.516915 262.878359,177.791404 259.799427,174.373074 C256.720495,170.955288 260.312401,135.749699 248.167121,126.177505 C236.021296,116.605311 207.795215,120.707524 207.795215,120.707524" id="Fill-411" fill="#163774"></path>
                            <path d="M303.164715,165.418496 C295.980359,162.517024 262.878304,177.791512 259.799372,174.373182 C256.720441,170.955397 260.312891,135.749808 248.166522,126.177614 C244.407981,123.215206 239.108342,121.565072 233.58271,120.694576 C235.858419,124.205396 219.671428,119.691873 221.262083,123.715198 C222.644716,127.211328 241.936232,139.20459 242.253165,142.823678 C243.963622,162.405491 246.634135,186.76524 251.97026,188.599811 C257.306385,190.434382 262.780828,183.666274 270.307166,190.639493 C273.727536,193.808099 276.579931,197.927178 278.677025,201.480979 C279.621833,201.036482 280.577533,200.576751 281.557737,200.084377 C301.72218,189.947992 304.833241,191.013262 305.218788,191.467008 C305.212253,191.334802 305.241115,191.082358 305.38869,190.639493 C306.585629,187.050872 310.349615,168.320513 303.164715,165.418496" id="Fill-413" fill="#0E244C"></path>
                            <path d="M305.219006,191.466954 C305.230442,191.666624 305.323561,191.589911 305.219006,191.466954" id="Fill-415" fill="#311E69"></path>
                            <path d="M250.434007,125.9311 C255.668845,102.470683 262.945775,49.8448324 216.172588,42.108297 C200.414165,39.5017048 164.938925,62.2211127 174.805229,84.746291 C177.385346,90.6379184 184.507077,95.9087731 188.101705,102.48102 C190.295185,106.491287 188.096804,116.298515 188.576015,121.347938 C189.461467,130.682922 197.348847,117.85888 221.262028,123.715143 C238.886652,128.031173 248.33528,135.337356 250.434007,125.9311" id="Fill-417" fill="#D8E7EB"></path>
                            <path d="M230.156677,126.276415 C242.110273,130.152844 248.720664,133.60817 250.433844,125.930937 C255.669226,102.471063 262.945612,49.8446691 216.172425,42.1081338 C213.00473,41.5842039 209.038713,42.0852833 204.805318,43.4013648 C206.376368,47.1455867 208.981534,52.5437515 211.831207,55.0660144 C216.430001,59.1372165 228.999491,63.4929621 233.76492,71.1674746 C238.530348,78.8425311 237.580094,89.7645386 236.629295,100.448248 C235.89033,108.754414 231.949907,118.091574 230.156677,126.276415" id="Fill-419" fill="#B8D2D9"></path>
                            <path d="M170.288773,118.101204 C162.205897,102.462739 167.589399,79.2645586 173.838203,71.3321616 C180.085919,63.3997646 192.040059,100.92849 191.735106,116.179584 C191.429064,131.462233 174.807517,126.843707 170.288773,118.101204" id="Fill-421" fill="#D8E7EB"></path>
                            <path d="M247.212401,62.4412938 L221.895894,59.611637 C221.895894,59.611637 225.641909,68.3002776 239.00591,72.1952042 C244.689464,73.8518673 248.944096,74.3948394 251.970206,74.4780806 C250.871287,70.2463807 249.32202,66.1855158 247.212401,62.4412938" id="Fill-423" fill="#0E244C"></path>
                            <path d="M202.883028,43.7625663 C202.433767,43.976926 202.272578,44.5280589 202.534511,44.9513377 C205.260569,49.340271 218.782492,71.4519636 223.132422,85.0404099 C226.912745,96.8497795 226.651357,125.496179 227.481808,125.971143 C228.311714,126.446108 231.852976,128.069039 233.290609,127.316604 C234.728243,126.564169 232.82719,90.8912328 228.549686,79.2385525 C217.649266,49.5448376 208.393412,43.7908574 207.421375,42.7979477 C206.715628,42.077612 204.206304,43.1309125 202.883028,43.7625663" id="Fill-425" fill="#0E244C"></path>
                            <path d="M179.359587,60.7998099 C179.359587,60.7998099 195.024891,114.426187 197.147578,123.156176 C197.289708,123.739952 197.862583,124.108825 198.45234,123.992396 L202.360633,123.223095 C202.975439,123.102314 203.372422,122.50548 203.23955,121.893412 C201.49533,113.883759 190.636297,64.9901612 183.691547,57.0615726 C183.420901,56.7525465 182.959661,56.7079335 182.630203,56.9522165 C181.682672,57.6545982 179.825184,59.1970087 179.359587,60.7998099" id="Fill-427" fill="#0E244C"></path>
                            <path d="M181.449002,38.6827311 C181.449002,38.6827311 179.360622,36.7714478 179.658495,34.5620195 C179.956913,32.3520472 181.715291,30.6796063 183.231341,30.2389176 C184.747391,29.7982288 184.268724,38.283935 181.449002,38.6827311" id="Fill-429" fill="#B5B5B5"></path>
                            <path d="M180.816716,37.0051216 C180.816716,37.0051216 178.490908,30.7984834 184.634068,27.9405355 C189.291674,25.7740879 190.914457,26.8208597 192.701697,28.0395544 C194.488937,29.2582491 196.221176,33.8457643 196.324642,35.0203902 C196.488554,36.8925012 196.861576,39.0137917 196.14276,41.1530362 C195.520874,43.0012085 181.202263,38.4354558 180.816716,37.0051216" id="Fill-431" fill="#F39B9B"></path>
                            <path d="M195.475621,36.4730308 L200.852588,48.7073114 C201.058976,50.539706 193.879522,57.0678837 190.427023,55.0766236 C189.416868,54.4939352 190.010436,52.3427213 189.782266,50.2791012 C189.261669,45.5708046 191.142572,39.4822275 191.142572,39.4822275 L195.475621,36.4730308 Z" id="Fill-433" fill="#F39B9B"></path>
                            <path d="M189.837049,51.7699348 C189.844128,51.283001 189.837593,50.7792013 189.782048,50.27921 C189.587097,48.5121026 189.730315,46.5507658 189.984624,44.7896431 L194.928123,42.6699847 C194.928123,42.6699847 193.972423,49.77269 189.837049,51.7699348" id="Fill-435" fill="#311E69"></path>
                            <path d="M189.052613,32.236108 L194.282549,38.6445925 C197.255292,43.7669188 191.26243,47.6934009 188.60662,48.5758665 C186.393535,49.3108917 184.370502,47.8109179 183.074454,45.0704869 C181.392858,41.5150538 180.854835,37.762671 180.680031,35.7387672 C180.281415,31.1251371 184.938476,28.4853573 189.052613,32.236108" id="Fill-437" fill="#F39B9B"></path>
                            <path d="M187.439141,40.8329656 C187.439141,40.8329656 185.731952,41.5560216 183.143122,42.4096519 C183.143122,42.4096519 183.830899,44.0342155 185.059422,44.1310583 C186.287946,44.2273569 187.760431,43.007574 187.439141,40.8329656" id="Fill-439" fill="#FFFFFF"></path>
                            <path d="M191.363282,26.5803307 C190.826347,26.4399632 190.374909,27.0101382 190.639019,27.4976161 C191.080656,28.3131623 191.666601,29.6635195 191.265806,30.5258549 C190.660802,31.8283349 190.499613,32.399598 190.789862,34.3652874 C191.079567,36.3309767 190.961942,37.7640311 192.268337,37.328783 C193.575277,36.8935349 195.870045,36.8168224 196.681437,35.6030242 C198.28516,33.2031749 195.696875,29.3414359 194.344193,28.3245875 C193.45493,27.6564817 192.278139,26.8191731 191.363282,26.5803307" id="Fill-441" fill="#B5B5B5"></path>
                            <path d="M184.441403,39.9868433 C184.441403,39.9868433 182.935156,40.22895 182.254458,41.214243 C181.573216,42.1989918 181.453957,43.2283537 181.960941,43.2642616 C182.467925,43.3007137 184.689722,42.7887531 185.089428,41.8954063 C185.089428,41.8954063 186.969242,42.1402334 188.795146,41.0009714 C190.622138,39.8622535 187.890635,38.5657582 184.441403,39.9868433" id="Fill-443" fill="#B5B5B5"></path>
                            <path d="M187.805575,47.2995014 C186.608091,47.6531405 184.754415,47.1575017 183.327673,45.5427311 C184.626444,47.9703275 186.528586,49.2657347 188.60662,48.5758665 C190.901932,47.8130941 195.690232,44.7761504 195.028049,40.6587032 C194.923494,40.0123597 194.542303,41.1124493 194.307054,41.6967699 C193.487494,43.7375395 191.66268,46.1607835 187.805575,47.2995014" id="Fill-445" fill="#C87171"></path>
                            <path d="M192.437477,35.1992228 C192.45817,34.1965199 192.933025,32.5648835 194.406599,33.3271118 C196.551069,34.4359064 196.057155,38.7084107 193.568524,39.0642261 C191.720839,39.3280952 192.426586,35.7269611 192.437477,35.1992228" id="Fill-447" fill="#F39B9B"></path>
                            <path d="M186.937168,95.4517626 C174.416687,101.151881 181.097326,122.587307 188.170047,122.971957 C200.286466,123.630814 218.689808,105.338968 231.231526,96.69494 C236.242006,93.2412462 239.377027,88.2277319 238.253059,86.0368017 C236.329135,82.2849629 231.98465,83.4040946 226.227582,83.4922324 C211.859415,83.7109445 191.149869,93.5339506 186.937168,95.4517626" id="Fill-449" fill="#F39B9B"></path>
                            <path d="M222.546151,43.540481 C233.952465,37.5792139 273.119809,38.4736488 292.41187,54.6735838 C303.937987,64.3524139 289.365067,109.70146 268.647898,103.344661 C260.799726,100.936651 272.68743,69.3936752 272.68743,69.3936752 C272.68743,69.3936752 235.916142,70.8909288 224.996662,62.4982569 C217.24161,56.538078 218.92375,45.4338103 222.546151,43.540481" id="Fill-451" fill="#F39B9B"></path>
                            <path d="M292.411815,54.6735294 C287.997627,50.9668476 282.536254,48.0697273 276.611461,45.8641075 C277.040028,48.9521929 278.388899,54.1071628 282.638631,56.5380235 C288.926643,60.1342611 288.451244,65.406204 287.975845,69.4969923 C287.500446,73.5883246 275.301799,92.739786 273.876146,98.9126924 C273.468272,100.678168 274.151692,102.269544 275.453731,103.628062 C292.343746,99.8321541 302.626092,63.2506377 292.411815,54.6735294" id="Fill-453" fill="#C87171"></path>
                            <path d="M287.262964,56.9685383 C288.002474,55.2634538 288.538319,53.5502084 288.922777,52.0589395 C286.143352,50.1781236 283.081846,48.5421347 279.828656,47.142268 L274.19248,64.6452271 C274.19248,64.6452271 285.236663,61.6382066 287.262964,56.9685383" id="Fill-455" fill="#0E244C"></path>
                            <path d="M284.154081,49.2066498 C263.575774,38.3597226 233.160569,35.7645557 217.241501,43.5402633 C213.568456,45.3345737 217.241501,56.5378603 224.996553,62.4985833 C235.916033,70.8907112 272.687321,69.3934576 272.687321,69.3934576 C272.687321,69.3934576 277.202797,62.6666979 281.321835,58.3931054 C283.618236,56.010666 284.141012,52.1543677 284.154081,49.2066498" id="Fill-457" fill="#D8E7EB"></path>
                            <path d="M249.981425,51.3167327 C236.305392,46.5355321 241.081711,52.2993053 229.634555,54.2731555 C223.542039,55.3237357 219.153989,52.7530515 216.380555,50.1187122 C217.588929,54.1730485 220.651524,59.1588157 224.996553,62.4982569 C235.916033,70.8909288 272.687321,69.3936752 272.687321,69.3936752 C272.687321,69.3936752 276.450762,63.7920319 280.239798,59.5641405 C275.07902,57.6572097 261.484671,55.3384253 249.981425,51.3167327" id="Fill-459" fill="#B8D2D9"></path>
                            <path d="M269.464844,96.951138 C269.464844,96.951138 266.627151,96.5235067 263.469803,99.6855843 C260.312455,102.847118 256.776639,105.838361 257.988826,107.974885 C259.200467,110.110865 263.811786,109.25669 266.467051,109.940574 C269.122317,110.623914 272.33521,108.060302 274.192697,105.155021 C276.05073,102.249196 273.91225,97.0365554 269.464844,96.951138" id="Fill-461" fill="#F39B9B"></path>
                            <path d="M231.915328,83.2685692 C231.915328,83.2685692 235.38144,79.2615662 238.48161,79.0907313 C241.58069,78.9198965 243.525307,79.7925689 245.686114,78.9966089 C248.680094,77.8948871 246.792656,83.2685692 246.627655,86.2075822 C246.468099,89.0317984 241.58069,90.4561479 236.106247,90.0290607 C230.632893,89.6019734 231.915328,83.2685692 231.915328,83.2685692" id="Fill-463" fill="#F39B9B"></path>
                            <path d="M238.253222,86.0366929 C237.971141,85.4882802 237.632426,85.0541202 237.251235,84.6955846 C235.871869,85.9463789 234.22567,88.0197921 231.784416,89.4267317 C226.448835,92.5033918 223.606787,94.5544986 209.202135,100.365061 C194.798028,106.176167 201.368122,106.005333 194.028567,111.132555 C188.549768,114.960563 182.862403,113.073218 180.331296,111.870845 C181.453086,117.714051 184.762366,122.786868 188.169666,122.971848 C200.286085,123.630705 218.689427,105.339403 231.2306,96.6948312 C236.242169,93.2411374 239.376646,88.2276231 238.253222,86.0366929" id="Fill-465" fill="#C87171"></path>
                        </g>
                    </g>
                </g>
            </g>
        </g>
    </g>
</svg>