<?xml version="1.0" encoding="UTF-8"?>
<svg width="242px" height="264px" viewBox="0 0 242 264" version="1.1" xmlns="http://www.w3.org/2000/svg" xmlns:xlink="http://www.w3.org/1999/xlink">
    <!-- Generator: Sketch 57.1 (83088) - https://sketch.com -->
    <title>Group 104</title>
    <desc>Created with Sketch.</desc>
    <defs>
        <path d="M51.1362677,23.9926754 C51.1362677,23.9926754 55.6170534,21.0676055 54.7136038,15.4119303 C54.2679561,12.6205548 50.1923047,5.9966085 47.9032958,3.0107685 C45.8006486,0.272060438 42.6770629,0.000608908054 40.1571274,0.000608908054 C27.1644695,-0.00343090552 20.0097973,1.05802103 15.3993686,6.62861805 C4.70382235,19.5564545 18.4783895,42.3695685 13.7950367,52.0198682 C13.4061077,52.47767 0.178471898,69.590544 6.39488462e-14,85.0302133 C-0.0159925792,86.4279267 0.89555966,91.7473404 1.99347369,98.8898586 C7.80309996,99.6109978 21.8572098,101.18697 37.0659525,101.644772 C37.7627835,101.665029 38.4636659,101.685286 39.1685997,101.701491 C48.389457,101.916212 60.2112767,101.00466 68.488171,99.9067458 C69.1080265,89.7621822 68.5367871,81.7243172 68.2937065,74.5088748 C68.2693985,73.8768652 68.2693985,61.6670225 65.336985,41.7171613 C60.3862435,28.4490121 51.1362677,23.9926754 51.1362677,23.9926754 Z" id="path-1"></path>
    </defs>
    <g id="Home" stroke="none" stroke-width="1" fill="none" fill-rule="evenodd">
        <g transform="translate(-78.000000, -4718.000000)" id="Ready-to-try-FieldMed?--Sign-up-today.">
            <g transform="translate(0.000000, 4539.600000)">
                <g id="Illustration" transform="translate(-336.960000, 5.040000)">
                    <g id="Group-104">
                        <g transform="translate(414.720000, 173.520000)">
                            <path d="M51.959793,5.87829385 C51.959793,5.87829385 55.1563028,4.96269027 56.7444294,7.15446699 C58.3325559,9.3462437 64.8025512,31.9892013 61.1968556,38.4227344 C57.5911601,44.8603189 36.9212067,42.9116228 36.240581,36.9642509 C35.555904,31.0168789 34.9238944,-2.20008466 51.959793,5.87829385" id="Fill-26" fill="#0E244C"></path>
                            <path d="M90.3171009,49.5489385 C90.3171009,49.5489385 92.7884203,45.6393922 93.5500728,43.5043343 C94.3360334,41.2882496 94.7776299,38.5414388 95.8026197,39.2544752 C97.7756239,40.6278806 94.8789134,44.6711212 96.6169397,44.7237887 C98.3509146,44.7764561 101.247625,39.6434042 105.047785,40.372646 C107.964752,40.9317313 98.7236382,55.1803057 94.4089576,54.6698364 C90.0983284,54.1553158 90.2198687,50.9182925 90.3171009,49.5489385" id="Fill-28" fill="#C87171"></path>
                            <path d="M2.87493313,253.20794 C4.69398627,250.688004 5.20040418,247.912834 5.41917672,245.64003 L15.4016866,241.722381 C15.4016866,241.722381 13.8054573,248.471919 15.324711,250.720415 C15.98508,251.70084 29.9986764,258.024987 30.1809869,259.370033 C30.4807863,261.610426 5.65820597,261.699555 1.52988716,259.548292 C-0.625427463,258.42607 0.881672239,255.975007 2.87493313,253.20794" id="Fill-30" fill="#F39B9B"></path>
                            <path d="M30.1801766,259.372059 C30.0505336,258.41189 22.8553479,254.899376 18.5204106,252.622521 C17.3252644,254.765681 14.8134315,255.977033 12.2610853,255.640771 L9.3360154,255.255894 C7.82081301,255.061429 6.44740764,254.332187 5.48723928,253.218068 L3.93557481,251.419272 C3.64387809,252.026973 3.29546257,252.622521 2.87412287,253.209965 C0.88086197,255.972981 -0.626237731,258.428096 1.53312824,259.550318 C5.6573957,261.69753 30.4840273,261.612451 30.1801766,259.372059" id="Fill-32" fill="#0E244C"></path>
                            <path d="M39.2855706,253.20794 C41.1046238,250.688004 41.6110417,247.912834 41.8298142,245.64003 L51.8123241,241.722381 C51.8123241,241.722381 50.2201461,248.471919 51.7353485,250.720415 C52.3957175,251.70084 66.4093139,258.024987 66.5916244,259.370033 C66.8914238,261.610426 42.0688435,261.699555 37.9405247,259.548292 C35.78521,258.42607 37.2923097,255.975007 39.2855706,253.20794" id="Fill-34" fill="#F39B9B"></path>
                            <path d="M66.5928398,259.372059 C66.4631968,258.41189 59.2639598,254.899376 54.9330738,252.622521 C53.7338762,254.765681 51.2260947,255.977033 48.6737484,255.640771 L45.7486786,255.255894 C44.2334762,255.061429 42.8600708,254.332187 41.8999024,253.218068 L40.3441866,251.419272 C40.0524899,252.026973 39.7081257,252.622521 39.286786,253.209965 C37.2935251,255.972981 35.7864254,258.428096 37.9417401,259.550318 C42.0700589,261.69753 66.8926392,261.612451 66.5928398,259.372059" id="Fill-36" fill="#0E244C"></path>
                            <path d="M181.373472,148.256677 L181.373472,156.456595 C181.373472,157.740871 183.484222,158.859042 186.279649,158.94412 C189.342464,159.03325 191.890759,157.927233 191.890759,156.541674 L191.890759,148.256677 C191.890759,147.851542 191.173671,147.527435 190.298581,147.527435 L182.96565,147.527435 C182.086508,147.527435 181.373472,147.851542 181.373472,148.256677" id="Fill-43" fill="#0E244C"></path>
                            <path d="M2.99768884,247.482987 C5.100336,234.279659 5.17731152,202.902005 16.359019,181.045008 C23.7405664,166.610072 12.6398859,118.812324 12.6966047,114.080355 C12.8748638,98.644737 23.416459,89.2051071 28.6791539,82.8039847 C29.0761856,82.3178235 79.3776638,102.611002 79.3979205,103.23896 C80.5809127,138.181796 82.3999659,205.109987 52.7643897,248.751057 C51.6138082,250.44857 44.5118035,249.528915 40.7967217,248.917162 C39.4678811,248.698389 38.5279694,247.527551 38.5968423,246.186557 C39.1194656,236.256714 42.5631073,200.037705 50.005425,182.240154 C55.6408435,168.761335 52.5577712,122.272171 50.8805151,122.470687 C49.6934715,122.608432 48.2066285,224.819772 15.3299778,248.807776 C14.6169414,249.326348 2.56014376,250.225746 2.99768884,247.482987" id="Fill-50" fill="#0E244C"></path>
                            <path d="M57.8034505,32.4178334 C63.722463,31.3280221 68.2680702,52.1316699 69.7265538,53.0756328 C72.5543914,54.9027887 93.7024033,44.8433033 98.2358565,49.6725045 C102.76931,54.4976543 76.2127544,73.5106084 63.3902529,70.4356388 C50.5637001,67.3647206 48.4286421,34.1437057 57.8034505,32.4178334" id="Fill-51" fill="#C87171"></path>
                            <path d="M55.1486053,71.0202476 C55.1486053,71.0202476 60.5206864,66.6123861 61.6104978,66.2356112 C62.7003091,65.8588363 68.6152703,65.6927312 67.9873121,66.7379778 C67.7442315,67.1471635 66.3910829,67.1998309 66.3910829,67.1998309 C66.3910829,67.1998309 69.1622017,67.3699873 69.6645682,68.1235372 C70.1709861,68.8811384 67.3998673,69.7197664 67.3998673,69.7197664 C67.3998673,69.7197664 68.0278256,69.8007933 68.0278256,70.1370548 C68.0278256,70.4733163 64.0007903,70.7690644 64.0007903,70.7690644 C64.0007903,70.7690644 60.9784882,75.7603193 57.4983844,75.5901629 C54.0142291,75.4240578 54.354542,71.6603599 55.1486053,71.0202476" id="Fill-52" fill="#FF6161"></path>
                            <g id="Group-32" transform="translate(12.693556, 29.052978)">
                                <mask id="mask-2" fill="white">
                                    <use xlink:href="#path-1"></use>
                                </mask>
                                <use id="Fill-53" fill="#BA104A" xlink:href="#path-1"></use>
                                <path d="M68.6542761,44.6099613 C63.7035346,31.3418121 51.1362677,23.9926754 51.1362677,23.9926754 C51.1362677,23.9926754 55.6170534,21.0676055 54.7136038,15.4119303 C54.2679561,12.6205548 50.1923047,5.9966085 47.9032958,3.0107685 C45.8006486,0.272060438 42.6770629,4.26325641e-13 40.1571274,4.26325641e-13 C38.8404409,-0.00343090552 37.5966785,0.0127744676 36.3934295,0.0370825273 C41.9316158,2.45168312 46.3394773,9.18096432 46.7000468,12.0290586 C47.0889758,15.0999769 44.3664731,19.7225595 42.3164934,22.7124509 C41.2509901,24.260064 41.7493053,26.3870192 43.4063047,27.2783148 C48.1666331,29.830661 56.8446104,35.0325858 60.3409197,40.6842097 C65.2714044,48.6572533 62.2004862,62.5533607 59.4212647,69.1327422 C56.6420432,75.7121237 33.2455358,73.520347 30.0287692,77.9079518 C27.6465794,81.1571291 27.5088337,94.5063052 27.5979632,101.219381 C30.6607788,101.39764 33.8329806,101.54754 37.0659525,101.644772 C37.7627835,101.665029 38.4636659,101.685286 39.1685997,101.701491 C48.389457,101.916212 60.2112767,101.00466 68.488171,99.9067458 C69.1080265,89.7621822 68.5367871,81.7243172 68.2937065,74.5088748 C68.2693985,73.8768652 77.5931694,59.3096001 68.6542761,44.6099613 L103.094856,68.842666" id="Fill-54" fill="#930C3A" mask="url(#mask-2)"></path>
                                <path d="M71.8428047,45.0315622 C71.6078268,44.2456016 71.3525921,43.4555896 71.0608954,42.669629 C70.2263187,40.4251849 69.1689181,38.3630511 67.9940286,36.4670225 L27.6264441,47.6811407 C27.6264441,47.6811407 32.5488262,55.9296756 44.3341838,55.7838272 C53.5104763,55.6703896 66.5233909,48.3009962 71.8428047,45.0315622" id="Fill-55" fill="#0E244C" mask="url(#mask-2)"></path>
                            </g>
                            <path d="M45.4063401,20.5842648 L44.6122768,30.8584714 C44.4907365,32.5519329 48.3759747,37.1745156 51.1876069,35.2015114 C52.0100296,34.6262207 51.1349395,32.2318768 50.5110326,30.429029 L49.0687544,21.4634063 L45.4063401,20.5842648 Z" id="Fill-56" fill="#F39B9B"></path>
                            <path d="M49.9243981,26.7876817 C46.2903432,25.6087408 45.816336,22.3109473 45.816336,22.3109473 L49.2721318,22.7403897 L49.9243981,26.7876817 Z" id="Fill-57" fill="#311E69"></path>
                            <path d="M47.2282291,13.0985979 L45.4375354,16.6799853 C44.0155139,19.5159256 44.9797336,23.0892104 47.7873145,24.5679507 C50.3801742,25.9373047 53.540222,25.1999602 55.0554244,21.857602 C56.4045217,18.8839161 55.0594757,15.5213011 54.7151115,13.8683531 C53.9210482,10.1127579 49.5901623,9.13233278 47.2282291,13.0985979" id="Fill-58" fill="#F39B9B"></path>
                            <path d="M46.1797415,16.7541249 C46.1554334,16.401658 46.1878442,16.0491912 46.2405116,15.7007756 C46.3377439,15.0404067 46.3296412,14.0356736 45.2762919,14.371935 C43.7408328,14.8621476 43.412674,18.419227 45.0089033,18.9296962 C46.1959469,19.3105225 46.2364603,17.6373177 46.1797415,16.7541249" id="Fill-59" fill="#FF6161"></path>
                            <path d="M50.1342577,19.5475261 C50.1342577,19.5475261 51.6494601,20.1673816 53.9060583,20.2281518 C53.9060583,20.2281518 53.6629777,21.3949386 52.710912,21.7676622 C51.7588463,22.1403858 50.4016463,21.3503739 50.1342577,19.5475261" id="Fill-60" fill="#FFFFFF"></path>
                            <path d="M48.5120998,23.4485645 C49.6302706,23.8455962 51.7815339,24.0400607 52.8267804,23.6146696 C53.754538,23.2378947 54.8767601,21.9738756 55.1198407,21.6862302 C55.0955327,21.7470004 55.0793273,21.8037192 55.0550192,21.8563866 C53.5398168,25.2027962 50.3797691,25.9360893 47.7869094,24.5667353 C46.0569858,23.6592344 45.0279446,21.9495675 44.8253774,20.1102577 C45.8989834,22.0467998 47.5073667,23.0920463 48.5120998,23.4485645" id="Fill-61" fill="#C87171"></path>
                            <path d="M53.9797927,10.5507081 C53.9797927,10.5507081 49.6570094,14.2819952 47.870367,20.5858854 C46.5617832,25.18416 45.2005318,36.572486 46.6711694,42.130929 C48.141807,47.6853206 41.2585748,46.5671499 38.5563288,44.0796251 C35.8500315,41.5921003 34.2902644,35.887809 35.359819,29.0531928 C36.433425,22.2185767 52.0067885,-2.61210627 53.9797927,10.5507081" id="Fill-62" fill="#0E244C"></path>
                            <path d="M31.1156318,35.6896983 C36.9657715,35.1063048 53.1063231,65.9451299 53.1063231,65.9451299 C53.1063231,65.9451299 90.4354001,45.6479001 94.2436628,53.1469365 C98.1815685,60.8971562 58.369018,97.9912553 39.0643673,79.9182129 C31.7233333,73.0430833 16.8873141,37.0955144 31.1156318,35.6896983" id="Fill-63" fill="#F39B9B"></path>
                            <path d="M186.653183,39.8281454 C185.304085,45.5283854 183.436416,68.9208416 154.035818,78.721041 C124.639271,88.5212404 106.675615,35.2015114 120.567671,31.6039186 C124.971481,30.4573884 132.122102,47.0759986 147.322742,55.1381717 C157.062171,60.3036344 172.153425,38.4142266 179.664615,32.3493657 C185.243315,27.844272 187.779456,35.0637657 186.653183,39.8281454" id="Fill-64" fill="#FFFFFF"></path>
                            <path d="M119.333227,32.0973722 C120.305549,34.584897 121.614133,37.6477125 122.744458,39.2560958 C124.843053,42.2419358 128.432544,55.0887453 130.162467,60.9348337 C131.896442,66.7890247 136.640565,70.0665614 145.111924,67.7816038 C153.587334,65.4925949 156.743331,62.8916325 163.278147,63.4345125 C169.812964,63.9814438 173.831896,56.8186689 178.620584,47.2980122 C181.371446,41.8368014 184.381594,37.2587835 186.455882,34.3418164 C186.986608,36.0433805 187.063584,38.0933602 186.654398,39.8273352 C185.305301,45.5275752 183.43358,68.9200313 154.037033,78.7202307 C125.580398,88.2044253 107.839566,38.5552134 119.333227,32.0973722" id="Fill-65" fill="#D8E7EB"></path>
                            <path d="M185.068702,254.976351 C184.51772,254.214699 183.739862,253.035758 183.456268,251.480042 C182.73918,247.574547 183.091647,242.060669 182.925542,240.334796 L171.776245,242.781808 L171.824861,248.960106 C171.845118,251.014137 170.70669,252.906115 168.875483,253.850078 C164.346081,256.1796 156.227189,260.486178 156.089444,261.515219 C155.769388,263.893358 182.115273,263.986539 186.494775,261.705632 C188.783784,260.510486 187.183503,257.913575 185.068702,254.976351" id="Fill-66" fill="#F39B9B"></path>
                            <path d="M156.090254,261.516435 C156.090254,254.467097 168.580545,254.001193 168.580545,254.001193 C169.848616,256.273996 172.396911,257.91479 175.107259,257.558272 L178.210588,257.153138 C179.818972,256.938417 181.277455,256.168661 182.294342,254.98972 L183.943239,253.077486 C184.255192,253.717599 184.619813,254.35366 185.069512,254.977566 C187.184314,257.910739 188.784594,260.511701 186.495585,261.706848 C182.116083,263.983703 156.090254,263.918881 156.090254,261.516435" id="Fill-67" fill="#0E244C"></path>
                            <path d="M177.83827,42.4432875 C177.83827,42.4432875 162.775376,59.2482595 160.291902,70.0896541 C159.684201,72.7432839 159.323631,74.9472147 159.121064,76.7703192 C160.790217,76.0451287 162.358087,75.2753735 163.824673,74.4651048 C165.258849,73.6750929 166.595792,72.8405162 167.847657,71.9775801 C169.099522,71.1146439 170.262258,70.2233484 171.343967,69.3077448 C172.429727,68.3921413 173.430408,67.456281 174.354115,66.5042153 C175.030689,65.8114356 175.654596,65.1065019 176.254195,64.3975168 C177.299441,63.1659084 178.243404,61.922146 179.07393,60.670281 C179.402088,60.1800684 179.714042,59.6898559 180.013841,59.2036947 C180.086765,59.078103 180.143484,58.9606141 180.216408,58.8390738 C179.183316,50.6310523 177.83827,42.4432875 177.83827,42.4432875" id="Fill-68" fill="#0E244C"></path>
                            <path d="M223.789821,254.976351 C221.861381,252.302464 221.322553,249.357138 221.087575,246.942537 L209.533144,242.008001 L210.54598,248.960106 C210.566236,251.014137 209.427809,252.906115 207.596602,253.850078 C203.0672,256.1796 194.948308,260.486178 194.810562,261.515219 C194.490506,263.893358 220.836392,263.986539 225.215894,261.705632 C227.504903,260.510486 225.904622,257.913575 223.789821,254.976351" id="Fill-69" fill="#F39B9B"></path>
                            <path d="M194.811373,261.516435 C194.811373,254.467097 207.301664,254.001193 207.301664,254.001193 C208.569734,256.273996 211.118029,257.91479 213.828378,257.558272 L216.931707,257.153138 C218.54009,256.938417 219.998574,256.168661 221.015461,254.98972 L222.664358,253.077486 C222.976311,253.717599 223.340932,254.35366 223.790631,254.977566 C225.905432,257.910739 227.505713,260.511701 225.216704,261.706848 C220.837202,263.983703 194.811373,263.918881 194.811373,261.516435" id="Fill-70" fill="#0E244C"></path>
                            <path d="M164.986194,72.0962844 C167.295459,66.2907095 169.795138,59.7477901 171.022695,55.6316253 C173.652017,46.8280564 177.76413,31.8016241 183.529192,30.2459083 C189.294253,28.6861411 206.001993,30.5821698 208.230232,35.1075202 C212.848763,44.4620719 211.406485,58.3379226 209.526662,67.9193495 C208.161359,74.8471465 209.004038,82.0301781 211.888595,88.4677626 C213.517235,92.0977662 215.077002,96.1693662 216.207327,100.277428 C221.721205,120.376142 210.839297,149.164988 218.459874,171.277219 C225.894088,192.854674 224.265448,216.392978 223.609131,232.971075 C222.831273,252.603884 220.287029,252.810503 215.303877,253.069789 C212.334243,253.219689 211.657668,247.778735 208.631315,239.412711 C198.705524,211.944603 186.664931,149.464787 180.774278,120.534145 C177.233404,139.287813 177.387355,167.707986 177.387355,167.707986 C177.387355,167.707986 191.563005,254.321654 176.354263,253.077892 C173.02811,252.806452 172.675643,247.843556 169.835651,242.050135 C161.044237,224.106736 152.111025,187.660852 150.283869,172.225234 C146.03401,136.387051 151.70589,96.485371 164.986194,72.0962844" id="Fill-71" fill="#F39B9B"></path>
                            <path d="M171.112635,193.525981 C174.183553,218.089276 177.40032,222.47688 179.008703,235.20215 C179.231527,236.960433 179.442197,238.649843 179.656918,240.250123 C179.912152,242.190717 182.73999,242.150203 182.934455,240.205559 C184.830483,221.464045 180.321338,187.424658 178.303769,173.690605 C174.373966,174.144355 169.119374,177.571791 171.112635,193.525981" id="Fill-72" fill="#C87171"></path>
                            <path d="M223.607915,232.971075 C224.049512,221.817727 224.932705,207.516485 223.19873,192.781749 C222.35605,185.614923 211.73748,200.669715 213.730741,208.565783 C217.036637,221.679981 217.563311,238.480902 217.607876,247.138622 C217.62003,249.735533 221.318907,250.229797 221.999532,247.726067 C222.797647,244.792895 223.324321,240.198671 223.607915,232.971075" id="Fill-73" fill="#C87171"></path>
                            <path d="M216.205706,100.277833 C216.197603,100.249474 216.189501,100.225166 216.181398,100.196807 C190.386495,103.76604 165.470734,98.3129319 155.694843,95.7160209 C149.313977,118.440005 147.219433,146.386171 150.282248,172.225639 C151.096568,179.088614 149.678598,194.657927 152.664438,206.358206 C158.717145,207.593866 173.796245,212.82415 186.914494,206.204255 C185.15216,186.567394 177.385735,167.708391 177.385735,167.708391 C177.385735,167.708391 177.235835,139.288218 180.776709,120.53455 C184.864515,140.62111 188.445902,177.545053 195.701858,207.030729 C213.730335,209.485843 224.21116,209.485843 226.334064,203.408828 C225.880314,192.846976 222.140924,181.965068 218.458253,171.277624 C210.837676,149.165393 221.719584,120.376547 216.205706,100.277833" id="Fill-74" fill="#0E244C"></path>
                            <path d="M113.992341,24.2199403 C115.629083,25.0950304 117.747936,29.7054591 118.039633,29.3529922 C118.359689,28.9559606 118.059889,28.1983594 117.435983,26.9181349 C116.812076,25.6338591 118.080146,24.3090699 118.521743,25.8971964 C118.963339,27.4893743 120.243563,28.3320537 121.305015,29.928283 C121.896512,30.8195785 122.937707,34.4293254 120.940395,35.7743713 C120.097715,36.3415594 118.793183,36.3375081 118.209789,36.195711 C115.762778,35.6082663 113.660131,30.0133612 113.044326,27.4893743 C112.671603,25.9782233 113.113199,23.7499845 113.992341,24.2199403" id="Fill-75" fill="#F39B9B"></path>
                            <polygon id="Fill-76" fill="#0E244C" points="118.793273 46.1291305 83.1292979 48.301832 82.08 2.92266269 117.748026 0"></polygon>
                            <path d="M216.205706,100.277833 C215.079433,96.1697713 213.515614,92.0981713 211.891026,88.4681678 C209.002418,82.0305833 208.16379,74.8475516 209.525041,67.9197546 C211.404864,58.3383278 212.847143,44.462477 208.232663,35.1079254 C206.000372,30.5825749 189.296684,28.6865463 183.531623,30.2463134 C177.76251,31.8020293 173.650396,46.8284615 171.025126,55.6279791 C169.793517,59.7481952 167.29789,66.2911146 164.984573,72.0966896 C154.212051,91.8834501 145.833873,125.29893 146.871017,161.716454 C157.906876,165.143891 171.227693,166.505142 181.165638,166.521347 C182.462068,166.521347 181.416821,148.82508 182.672738,148.784567 C184.617383,148.719745 186.50936,166.274216 188.34867,166.112162 C203.739723,164.759013 215.180716,160.253919 217.838397,156.048625 C218.081478,138.749389 220.062585,114.335995 216.205706,100.277833" id="Fill-81" fill="#FFFFFF"></path>
                            <path d="M199.292158,7.96716645 C199.292158,7.96716645 200.386021,3.15822197 204.449518,2.72472824 C208.517067,2.29123451 213.099136,4.73419451 212.373946,7.96716645 C211.644704,11.2001384 207.390793,15.2474303 209.675751,16.8274542 C211.96476,18.3993754 217.948594,20.0563748 217.571819,25.0557324 C217.190993,30.05509 210.915462,30.2455032 210.915462,30.2455032 C210.915462,30.2455032 212.50764,26.5790375 210.109245,25.7363581 C207.71085,24.8936787 202.160509,23.6296596 200.061913,18.1238841 C197.959266,12.6100059 199.292158,7.96716645 199.292158,7.96716645" id="Fill-82" fill="#0E244C"></path>
                            <path d="M199.292158,7.96716645 C199.292158,7.96716645 199.74996,5.9779569 201.159827,4.43844645 C200.256378,12.1035879 206.580525,13.1123724 209.837805,13.1245264 C209.003228,14.6923963 208.561632,16.0536476 209.675751,16.8274542 C211.96476,18.3993754 217.948594,20.0563748 217.571819,25.0557324 C217.190993,30.05509 210.915462,30.2455032 210.915462,30.2455032 C210.915462,30.2455032 212.50764,26.5790375 210.109245,25.7363581 C207.71085,24.8936787 202.160509,23.6296596 200.061913,18.1238841 C197.959266,12.6100059 199.292158,7.96716645 199.292158,7.96716645" id="Fill-83" fill="#0E244C"></path>
                            <path d="M216.205706,100.277833 C215.079433,96.1697713 213.515614,92.0981713 211.886974,88.4681678 C209.002418,82.0305833 208.16379,74.8475516 209.525041,67.9197546 C211.404864,58.3383278 212.847143,44.462477 208.232663,35.1079254 C207.535832,33.6980579 205.441287,32.5474764 202.710682,31.6723863 C204.367681,37.3118561 205.943654,44.5029904 205.980116,51.5766358 C206.061143,66.5990167 196.791669,78.5869415 194.847024,105.204267 C193.258898,126.887056 197.399371,151.482761 201.053682,164.118901 C209.832943,162.06487 215.982882,158.985849 217.838397,156.048625 C218.081478,138.749389 220.062585,114.335995 216.205706,100.277833" id="Fill-84" fill="#D8E7EB"></path>
                            <path d="M191.768814,8.64779212 C191.768814,8.64779212 192.469696,6.09139451 196.456218,6.22914018 C200.44274,6.36688585 207.824287,17.0948429 199.851244,22.4750267 C191.8782,27.8552106 188.430507,18.4277348 188.454687,15.6039485 C188.483174,12.7761109 188.159067,8.80984585 191.768814,8.64779212" id="Fill-85" fill="#0E244C"></path>
                            <path d="M198.534152,21.2883883 L198.068247,31.1169471 C197.987221,32.7334331 193.790029,36.651082 191.383531,34.4512026 C190.678597,33.807039 191.780563,31.6436217 192.582729,30.006879 L194.989227,21.6854199 L198.534152,21.2883883 Z" id="Fill-86" fill="#F39B9B"></path>
                            <path d="M193.561128,26.6292741 C195.688083,26.1066509 197.973041,23.0721947 197.973041,23.0721947 L194.646888,22.8736789 L193.561128,26.6292741 Z" id="Fill-87" fill="#0E244C"></path>
                            <path d="M198.90404,14.9938162 L199.264609,18.7980276 C199.552254,21.8203297 197.482018,24.668424 194.496178,25.0208909 C191.737213,25.3449983 189.201072,23.5988694 189.002557,20.1025601 C188.828349,16.9870771 191.161923,14.4549876 192.032961,13.1058903 C194.014068,10.0268694 198.170746,10.6507762 198.90404,14.9938162" id="Fill-88" fill="#F39B9B"></path>
                            <path d="M198.583578,18.6100453 C198.725375,18.3061945 198.814505,17.9861384 198.89148,17.6579796 C199.029226,17.0300214 199.377642,16.1427772 200.191962,16.8031461 C201.379005,17.7673659 200.455299,21.0489539 198.871224,20.9517217 C197.696334,20.8828488 198.231111,19.3798005 198.583578,18.6100453" id="Fill-89" fill="#F39B9B"></path>
                            <path d="M190.797707,16.9757334 C190.769347,16.6435232 190.793655,16.3072617 190.834169,15.9750516 C190.915196,15.343042 190.886836,14.3788223 189.898309,14.7191352 C188.45603,15.2174504 188.208898,18.6165274 189.732203,19.0783805 C190.858477,19.4186934 190.86658,17.8224641 190.797707,16.9757334" id="Fill-90" fill="#F39B9B"></path>
                            <path d="M194.704417,19.9550912 C194.704417,19.9550912 192.905621,20.3075581 191.106824,19.0921551 C191.106824,19.0921551 191.641602,22.1225599 194.704417,19.9550912" id="Fill-91" fill="#FFFFFF"></path>
                            <path d="M194.237702,23.7730771 C193.11548,23.736615 191.150579,23.1734783 190.368669,22.4320825 C189.679941,21.7798162 189.120856,20.2646139 189.003367,19.9283524 C189.003367,19.9850712 189.003367,20.04179 189.003367,20.1025601 C189.201883,23.5988694 191.738024,25.3449983 194.492937,25.0208909 C196.336298,24.8021183 197.827192,23.6353315 198.63341,22.0674616 C197.020975,23.4206103 195.250538,23.8014365 194.237702,23.7730771" id="Fill-92" fill="#C87171"></path>
                            <path d="M192.904405,10.5231589 C192.904405,10.5231589 191.871313,11.5522001 193.058356,13.3753046 C193.832163,14.5663995 197.693093,16.6366359 199.443273,16.1990909 C201.193454,15.7655971 198.150895,7.31449504 192.904405,10.5231589" id="Fill-93" fill="#0E244C"></path>
                            <path d="M206.047368,33.4306693 C206.047368,33.4306693 248.878169,56.6043528 240.188038,78.9515624 C234.155588,94.4560531 219.834089,72.3114107 214.737499,64.2573403 C204.645603,48.3274585 206.047368,33.4306693 206.047368,33.4306693" id="Fill-94" fill="#FFFFFF"></path>
                            <path d="M201.018841,101.832334 L193.349648,100.531853 C187.147041,99.4785034 182.970106,93.595953 184.027507,87.3973977 L187.629151,66.1521536 C188.6825,59.949547 194.565051,55.7766634 200.767657,56.8300127 L208.43685,58.1304939 C214.639457,59.1838431 218.816392,65.0663936 217.763043,71.2690001 L214.157347,92.5061416 C213.103998,98.7087482 207.221447,102.889734 201.018841,101.832334" id="Fill-95" fill="#0E244C"></path>
                            <path d="M121.57443,32.3939305 C121.57443,32.3939305 118.365766,26.0819377 118.057864,25.2068475 C117.74591,24.327706 116.299581,25.1501287 117.178722,26.888155 C118.057864,28.6180786 118.240174,29.8658923 118.872184,31.8551019 C119.504193,33.8402601 120.73175,33.7470792 121.57443,32.3939305" id="Fill-96" fill="#F39B9B"></path>
                            <path d="M218.1463,41.2088432 C219.434627,44.3526856 221.383323,48.4931584 224.227366,53.1441005 C230.48264,63.381845 230.336792,68.4986916 228.728408,73.9072349 C228.286812,75.3819238 227.602135,77.6547274 226.933663,80.2678438 C231.96138,84.9998128 237.134946,86.7986092 240.185607,78.9511573 C245.772409,64.5891453 230.073454,49.8868205 218.1463,41.2088432" id="Fill-97" fill="#D8E7EB"></path>
                            <path d="M230.256575,70.2606208 C230.256575,70.2606208 187.701265,76.7751808 187.616187,86.089219 C187.527057,95.3992059 197.768853,98.5065861 210.18622,96.3350661 C222.599536,94.1554435 237.123602,86.7050232 239.112811,81.1870936 C241.102021,75.6732154 239.31943,68.9277288 230.256575,70.2606208" id="Fill-98" fill="#FFFFFF"></path>
                            <path d="M235.770048,70.644283 C236.013129,73.2492967 235.259579,78.5930185 226.334469,82.5390269 C214.103464,87.9475701 200.515259,86.7767319 192.902785,86.3391869 C190.994602,86.2298006 189.232268,85.9421552 187.672501,85.7071773 C187.656295,85.8368203 187.615782,85.9583606 187.615782,86.0920549 C187.526652,95.3979904 197.772499,98.5053707 210.185815,96.3338507 C222.599131,94.1582794 237.123197,86.7038078 239.112406,81.1899296 C240.599249,77.0616107 239.975342,72.2486149 235.770048,70.644283" id="Fill-99" fill="#D8E7EB"></path>
                            <path d="M192.821353,87.9536472 C193.591108,87.7915934 194.117783,87.066403 194.008396,86.2885451 C193.77747,84.647751 193.214333,82.0103266 191.905749,81.2810848 C189.965156,80.1912734 185.618064,80.96508 184.613331,79.7294203 C183.604547,78.4856579 182.206833,80.3492758 182.826689,82.8286979 C183.418185,85.1946824 184.151478,89.7483922 192.821353,87.9536472" id="Fill-100" fill="#F39B9B"></path>
                            <path d="M158.390607,96.9938146 L170.67428,100.230838 C170.67428,100.230838 173.891046,115.731277 164.532443,115.731277 C155.17384,115.731277 155.757234,103.119446 158.390607,96.9938146" id="Fill-101" fill="#D8E7EB"></path>
                            <path d="M86.8831823,60.2509669 C83.893291,63.2003448 81.7663358,62.7952105 74.3078128,66.7452702 C66.8492898,70.6912786 64.3658164,76.1038732 54.6263871,78.4414983 C44.8869579,80.7831747 43.7485304,77.128863 41.4595214,69.7392129 C39.1705125,62.3495627 39.944319,63.674352 35.978054,58.9909992 C32.9152384,55.3853036 28.1508587,44.2157502 26.1292384,39.2893168 C21.8793793,48.8302302 33.0124707,74.248358 39.0651776,79.9161872 C57.2597602,96.9561371 93.6732337,64.9748332 94.4956564,54.7573454 C91.7569483,55.8552595 88.779211,58.3832977 86.8831823,60.2509669" id="Fill-102" fill="#C87171"></path>
                            <path d="M87.9810964,52.8524038 C87.9810964,52.8524038 90.4524158,48.9469089 91.2140683,46.8077996 C92.0040802,44.5917149 92.4456767,41.8449041 93.4666152,42.5579405 C95.4396193,43.9353973 92.5429089,47.9745865 94.2809352,48.027254 C96.0149101,48.0799214 98.9116205,42.9468695 102.711781,43.6761113 C105.632799,44.239248 96.3876337,58.483771 92.0770044,57.9733017 C87.7623238,57.4587811 87.8838641,54.2217579 87.9810964,52.8524038" id="Fill-103" fill="#F39B9B"></path>
                        </g>
                    </g>
                </g>
            </g>
        </g>
    </g>
</svg>