<?xml version="1.0" encoding="UTF-8"?>
<svg width="716px" height="404px" viewBox="0 0 716 404" version="1.1" xmlns="http://www.w3.org/2000/svg" xmlns:xlink="http://www.w3.org/1999/xlink">
    <!-- Generator: Sketch 57.1 (83088) - https://sketch.com -->
    <title>Group 30</title>
    <desc>Created with Sketch.</desc>
    <defs>
        <polygon id="path-1" points="0 0.195768977 205.873747 0.195768977 205.873747 192.962194 0 192.962194"></polygon>
        <polygon id="path-3" points="0.537481518 0.195768977 115.534092 0.195768977 115.534092 192.961679 0.537481518 192.961679"></polygon>
    </defs>
    <g id="Home" stroke="none" stroke-width="1" fill="none" fill-rule="evenodd">
        <g transform="translate(-326.000000, -3409.000000)" id="Built-to-Serve-the-Organizations-That-Serve-Community-Health">
            <g transform="translate(0.000000, 920.000000)">
                <g transform="translate(182.000000, 2121.000000)" id="For-Ems-Slide-02">
                    <g transform="translate(144.000000, 368.000000)">
                        <g id="Group-30">
                            <g id="Group-62" transform="translate(191.000000, 0.000000)">
                                <path d="M385.183558,78.0449954 L385.183558,78.0449954 C381.891548,78.0449954 379.197884,80.7386587 379.197884,84.0306686 L379.197884,101.362111 C379.197884,104.653385 381.891548,107.347048 385.183558,107.347048 C388.475568,107.347048 391.169231,104.653385 391.169231,101.362111 L391.169231,84.0306686 C391.169231,80.7386587 388.475568,78.0449954 385.183558,78.0449954" id="Fill-1" fill="#FFE6E6"></path>
                                <path d="M31.3111135,193.502252 L70.9822983,193.502252 C70.9822983,193.502252 99.6580376,179.513602 89.4419881,167.894786 C79.2266746,156.275971 89.7680244,153.511654 62.935163,155.446529 C36.1030376,157.381404 19.8851234,176.547628 31.3111135,193.502252" id="Fill-3" fill="#E59C9C"></path>
                                <path d="M100.138628,193.502252 C100.138628,178.350027 91.9656416,165.886315 81.4839056,164.358433 L65.3543083,164.200199 L65.3543083,222.803569 L81.4839056,222.64607 C91.9656416,221.118189 100.138628,208.654476 100.138628,193.502252" id="Fill-5" fill="#0E244C"></path>
                                <path d="M86.178902,193.502252 C86.178902,209.684839 76.8555884,222.803569 65.354529,222.803569 C53.8534696,222.803569 44.5294201,209.684839 44.5294201,193.502252 C44.5294201,177.319664 53.8534696,164.200935 65.354529,164.200935 C76.8555884,164.200935 86.178902,177.319664 86.178902,193.502252" id="Fill-7" fill="#163774"></path>
                                <path d="M75.8195584,193.502252 C75.8195584,202.687202 71.1343505,210.134519 65.3540139,210.134519 C59.5744132,210.134519 54.8892053,202.687202 54.8892053,193.502252 C54.8892053,184.316565 59.5744132,176.869984 65.3540139,176.869984 C71.1343505,176.869984 75.8195584,184.316565 75.8195584,193.502252" id="Fill-9" fill="#FFFFFF"></path>
                                <path d="M65.3542347,176.870279 C64.5211125,176.870279 63.7122776,177.029249 62.9350894,177.321431 C67.5481719,179.057592 70.9822248,185.64014 70.9822248,193.502546 C70.9822248,201.364216 67.5481719,207.9475 62.9350894,209.682926 C63.7122776,209.974371 64.5211125,210.134078 65.3542347,210.134078 C71.1345713,210.134078 75.8197792,202.687497 75.8197792,193.502546 C75.8197792,184.316124 71.1345713,176.870279 65.3542347,176.870279" id="Fill-11" fill="#FFE6E6"></path>
                                <path d="M446.778218,193.502252 C446.778218,178.350027 438.605232,165.886315 428.12276,164.358433 L411.993162,164.200199 L411.993162,222.803569 L428.12276,222.64607 C438.605232,221.118189 446.778218,208.654476 446.778218,193.502252" id="Fill-13" fill="#163774"></path>
                                <path d="M432.818492,193.502252 C432.818492,209.684839 423.494443,222.803569 411.993383,222.803569 C400.492324,222.803569 391.16901,209.684839 391.16901,193.502252 C391.16901,177.319664 400.492324,164.200935 411.993383,164.200935 C423.494443,164.200935 432.818492,177.319664 432.818492,193.502252" id="Fill-15" fill="#0E244C"></path>
                                <path d="M314.236145,193.502252 C314.236145,193.502252 359.940105,175.810183 385.00295,180.970829 C410.066531,186.130004 393.111907,145.587427 366.574171,143.375826 C340.037171,141.164225 334.139079,143.007103 334.139079,143.007103 L317.553914,152.221493 C317.553914,152.221493 299.861844,180.602107 314.236145,193.502252" id="Fill-17" fill="#E59C9C"></path>
                                <g id="Group-21" transform="translate(1.457516, 0.540205)">
                                    <mask id="mask-2" fill="white">
                                        <use xlink:href="#path-1"></use>
                                    </mask>
                                    <g id="Clip-20"></g>
                                    <path d="M-0.000147194719,9.79014158 L-0.000147194719,192.962194 L31.3111135,192.962194 C31.3111135,175.761019 45.2548693,161.816528 62.4560442,161.816528 C76.8627274,161.816528 88.9849485,171.599089 92.5426449,184.883412 C93.8129353,189.626026 98.0499353,192.962194 102.958879,192.962194 L205.873747,192.962194 L205.873747,0.195253795 L9.59474059,0.195253795 C4.29573069,0.195253795 -0.000147194719,4.49113168 -0.000147194719,9.79014158" id="Fill-19" fill="#FFF1F6" mask="url(#mask-2)"></path>
                                </g>
                                <g id="Group-24" transform="translate(205.336634, 0.540205)">
                                    <mask id="mask-4" fill="white">
                                        <use xlink:href="#path-3"></use>
                                    </mask>
                                    <g id="Clip-23"></g>
                                    <polygon id="Fill-22" fill="#EFDAE2" mask="url(#mask-4)" points="114.076576 182.918583 107.441774 192.961679 -0.920034822 192.961679 -0.920034822 0.195474587 114.076576 0.195474587"></polygon>
                                </g>
                                <polygon id="Fill-25" fill="#930C3A" points="205.873894 147.061508 239.797125 147.061508 239.797125 113.538647 205.873894 113.538647"></polygon>
                                <polygon id="Fill-27" fill="#BA104A" points="0 147.061508 205.873894 147.061508 205.873894 113.538647 0 113.538647"></polygon>
                                <path d="M377.258888,193.502252 C377.258888,178.350027 369.085166,165.886315 358.60343,164.358433 L342.473832,164.200199 L342.473832,222.803569 L358.60343,222.64607 C369.085166,221.118189 377.258888,208.654476 377.258888,193.502252" id="Fill-28" fill="#0E244C"></path>
                                <path d="M363.299162,193.502252 C363.299162,209.684839 353.975113,222.803569 342.474053,222.803569 C330.972994,222.803569 321.64968,209.684839 321.64968,193.502252 C321.64968,177.319664 330.972994,164.200935 342.474053,164.200935 C353.975113,164.200935 363.299162,177.319664 363.299162,193.502252" id="Fill-29" fill="#163774"></path>
                                <path d="M352.93945,193.502252 C352.93945,202.687202 348.254243,210.134519 342.473906,210.134519 C336.694305,210.134519 332.009097,202.687202 332.009097,193.502252 C332.009097,184.316565 336.694305,176.869984 342.473906,176.869984 C348.254243,176.869984 352.93945,184.316565 352.93945,193.502252" id="Fill-30" fill="#FFFFFF"></path>
                                <path d="M342.474127,176.870279 C341.641005,176.870279 340.83217,177.029249 340.055717,177.321431 C344.668064,179.057592 348.102117,185.64014 348.102117,193.502546 C348.102117,201.364216 344.668064,207.9475 340.055717,209.682926 C340.83217,209.974371 341.641005,210.134078 342.474127,210.134078 C348.254463,210.134078 352.939671,202.687497 352.939671,193.502546 C352.939671,184.316124 348.254463,176.870279 342.474127,176.870279" id="Fill-31" fill="#FFE6E6"></path>
                                <path d="M355.314143,62.8001119 C352.929588,59.9754452 349.666282,58.0376267 346.043083,57.3038611 C335.95215,55.2585904 314.003945,51.423432 293.596133,51.9680525 C283.864354,52.2278512 275.787044,52.5229766 269.405417,52.7960228 C258.119998,53.2802934 248.399994,60.873333 245.185262,71.7024485 C242.746981,79.9188578 240.476503,89.9391383 240.151938,99.5148908 C239.414493,121.261439 238.677783,193.502399 238.677783,193.502399 L314.236513,193.502399 C314.236513,193.502399 314.973222,158.487719 347.777037,158.487719 C368.21208,158.487719 375.051483,171.755851 375.051483,171.755851 L451.715645,171.755851 L451.715645,139.492977 C451.715645,134.161584 448.71876,129.284287 443.959219,126.882069 C434.713918,122.216732 417.994806,115.230871 398.148542,113.538132 L355.314143,62.8001119 Z" id="Fill-32" fill="#FFF1F6"></path>
                                <path d="M442.133121,148.904018 L451.716233,148.904018 L451.716233,139.493124 C451.716233,137.687045 451.365174,135.936899 450.725613,134.314814 L442.133121,134.714447 L442.133121,148.904018 Z" id="Fill-33" fill="#FFFFFF"></path>
                                <polygon id="Fill-34" fill="#163774" points="68.727496 91.3658231 60.7178954 84.7729716 52.1298195 91.841998 52.1298195 81.8452686 40.8024498 81.8452686 40.8024498 91.841998 32.2143739 84.7729716 24.2040373 91.3658231 38.456166 103.096506 24.2040373 114.826453 32.2143739 121.419305 40.8024498 114.350279 40.8024498 124.347008 52.1298195 124.347008 52.1298195 114.350279 60.7178954 121.419305 68.727496 114.826453 54.4761033 103.096506"></polygon>
                                <path d="M239.797199,113.538426 C239.59775,123.22899 239.407133,135.276878 239.242275,147.061287 L365.008387,147.061287 C373.608239,147.061287 380.580117,140.08941 380.580117,131.488822 L380.580117,127.895063 C380.580117,127.895063 330.944585,113.538426 298.079684,113.538426 L239.797199,113.538426 Z" id="Fill-35" fill="#BA104A"></path>
                                <path d="M376.518646,133.279667 C376.518646,133.279667 372.919735,138.198178 374.151019,143.949812 C374.773653,146.856908 377.392983,148.90365 380.366316,148.90365 L401.11562,148.90365 L397.272366,137.109673 L376.518646,133.279667 Z" id="Fill-36" fill="#FFFFFF"></path>
                                <path d="M296.615244,58.5283739 L346.908736,58.5283739 C350.046927,58.5283739 353.068099,59.7007799 355.383472,61.8196479 C364.556647,70.2156347 388.422798,93.203034 398.148689,113.53872 L319.86465,113.53872 C307.188241,113.53872 296.133917,104.930037 293.029581,92.6400142 C291.233805,85.5290373 289.170135,77.7152056 287.210973,71.1135224 C285.34528,64.8312518 290.062135,58.5283739 296.615244,58.5283739" id="Fill-37" fill="#163774"></path>
                                <path d="M386.54555,137.109747 L451.50626,137.109747 C450.759247,132.741744 447.997874,128.920569 443.959587,126.882658 C434.71355,122.217321 417.994438,115.230724 398.14891,113.53872 L298.080052,113.53872 C298.080052,113.53872 362.446831,120.850618 376.518646,133.27974 C379.293267,135.729796 382.845075,137.109747 386.54555,137.109747" id="Fill-38" fill="#EFDAE2"></path>
                                <path d="M451.715865,171.755851 L375.051704,171.755851 C375.051704,171.755851 373.836611,176.084112 373.614347,180.970977 L455.4421,180.970977 C455.686443,177.963052 454.889383,174.653379 451.715865,171.755851" id="Fill-39" fill="#163774"></path>
                                <path d="M373.614274,180.970609 C373.469287,184.151486 373.743805,187.569348 375.05163,190.185734 L451.715792,190.185734 C451.715792,190.185734 455.035033,185.999516 455.442762,180.970609 L373.614274,180.970609 Z" id="Fill-40" fill="#0E244C"></path>
                                <path d="M397.272513,137.109747 L401.698658,150.692876 C402.623041,153.527846 405.265922,155.446529 408.247351,155.446529 L436.670651,155.446529 C440.156222,155.446529 443.092021,152.84339 443.509318,149.383579 L444.989361,137.109747 L397.272513,137.109747 Z" id="Fill-41" fill="#0E244C"></path>
                                <path d="M280.245572,74.5472809 L286.092882,95.8978749 C288.014509,102.913911 282.733899,109.835007 275.459536,109.835007 L257.884486,109.835007 C251.421902,109.835007 246.3481,104.304901 246.899344,97.8651323 C247.514618,90.682766 248.689232,81.5566934 250.916288,74.263931 C252.336717,69.6169937 256.611988,66.4346439 261.470885,66.4346439 L269.612225,66.4346439 C274.579311,66.4346439 278.933331,69.7568287 280.245572,74.5472809" id="Fill-42" fill="#163774"></path>
                                <polygon id="Fill-43" fill="#BA104A" points="220.801647 29.7804356 258.673376 29.7804356 258.673376 17.617736 220.801647 17.617736"></polygon>
                                <polygon id="Fill-44" fill="#930C3A" points="232.13564 29.7804356 332.481224 29.7804356 332.481224 17.617736 232.13564 17.617736"></polygon>
                                <polygon id="Fill-45" fill="#BA104A" points="264.514799 29.7804356 267.722172 29.7804356 267.722172 17.617736 264.514799 17.617736"></polygon>
                                <polygon id="Fill-46" fill="#BA104A" points="296.894693 29.7804356 300.102066 29.7804356 300.102066 17.617736 296.894693 17.617736"></polygon>
                                <polygon id="Fill-47" fill="#BA104A" points="16.3835083 33.5419967 32.0251551 33.5419967 32.0251551 15.4789967 16.3835083 15.4789967"></polygon>
                                <path d="M49.2793201,31.330396 L60.4977657,31.330396 L60.4977657,17.6905974 L49.2793201,17.6905974 L49.2793201,31.330396 Z M47.0677195,33.5419967 L62.7093663,33.5419967 L62.7093663,15.4789967 L47.0677195,15.4789967 L47.0677195,33.5419967 Z" id="Fill-48" fill="#BA104A"></path>
                                <polygon id="Fill-49" fill="#BA104A" points="170.951211 33.5419967 186.592858 33.5419967 186.592858 15.4789967 170.951211 15.4789967"></polygon>
                                <path d="M142.478601,31.330396 L153.697782,31.330396 L153.697782,17.6905974 L142.478601,17.6905974 L142.478601,31.330396 Z M140.267736,33.5419967 L155.908647,33.5419967 L155.908647,15.4789967 L140.267736,15.4789967 L140.267736,33.5419967 Z" id="Fill-50" fill="#BA104A"></path>
                                <path d="M144.894802,184.635904 L184.397449,184.635904 L184.397449,51.8957063 L144.894802,51.8957063 L144.894802,184.635904 Z M185.558815,49.5722376 L143.7327,49.5722376 C143.091667,49.5722376 142.571333,50.092571 142.571333,50.7343399 L142.571333,185.798007 C142.571333,186.439776 143.091667,186.959373 143.7327,186.959373 L185.558815,186.959373 C186.200584,186.959373 186.720917,186.439776 186.720917,185.798007 L186.720917,50.7343399 C186.720917,50.092571 186.200584,49.5722376 185.558815,49.5722376 L185.558815,49.5722376 Z" id="Fill-51" fill="#FFF1F6"></path>
                                <path d="M17.5306703,31.8806099 L18.2673799,16.9528574 L26.8370564,16.9528574 C26.8370564,16.9528574 23.5200234,18.1510224 23.4280267,21.284062 C23.33603,24.4171017 23.6120201,24.601095 22.1842314,26.1672469 C20.7557066,27.7341347 17.5306703,31.8806099 17.5306703,31.8806099" id="Fill-52" fill="#E55D8C"></path>
                                <path d="M172.057453,31.8806099 L172.794163,16.9528574 L181.363839,16.9528574 C181.363839,16.9528574 178.046806,18.1510224 177.95481,21.284062 C177.862813,24.4171017 178.138803,24.601095 176.710278,26.1672469 C175.282489,27.7341347 172.057453,31.8806099 172.057453,31.8806099" id="Fill-53" fill="#E55D8C"></path>
                                <polygon id="Fill-54" fill="#FB3377" points="233.517725 28.0106399 233.517725 19.3026003 261.02253 19.3026003"></polygon>
                                <polygon id="Fill-55" fill="#FB3377" points="269.799604 28.0106399 269.799604 19.3026003 293.227116 19.3026003"></polygon>
                                <polygon id="Fill-56" fill="#FB3377" points="302.694901 28.0106399 302.694901 19.3026003 329.025092 19.3026003"></polygon>
                                <path d="M312.85406,62.2883894 L304.514007,63.1104719 C298.482703,63.7051386 294.375235,69.4994587 295.814063,75.3865116 C297.96973,84.210099 301.007829,95.4535677 303.040588,98.0162277 C306.495984,102.370983 312.85406,62.2883894 312.85406,62.2883894" id="Fill-57" fill="#21478C"></path>
                                <path d="M264.514872,69.2912518 C264.514872,69.2912518 258.580717,68.922529 255.263684,72.4242914 C251.946651,75.9260538 249.551057,96.7504267 251.393935,101.541615 C253.236813,106.333539 275.201945,69.0616281 264.514872,69.2912518" id="Fill-58" fill="#21478C"></path>
                                <path d="M355.383104,61.819795 C353.067731,59.7009271 350.046559,58.5285211 346.908368,58.5285211 L321.035216,58.5285211 C323.510295,61.7785805 327.045912,64.9013165 332.008582,66.4350855 C344.82777,70.3968314 347.039371,74.3894881 349.250972,80.3177554 C351.462572,86.2460228 347.039371,102.831924 355.517051,105.042788 C358.968767,105.94362 360.55479,109.563874 361.224526,113.538132 L398.148321,113.538132 C388.423166,93.2031812 364.557015,70.2157818 355.383104,61.819795" id="Fill-59" fill="#0E244C"></path>
                                <path d="M286.093103,95.8977277 L280.245793,74.5471337 C279.256644,70.9371832 276.540166,68.1625627 273.135552,67.0137079 C275.196278,68.8882327 276.735935,71.4288135 276.640994,74.8194439 C276.364268,84.6792822 269.178222,87.7203251 274.429393,94.9071073 C279.682037,102.094625 276.503367,100.436477 269.799383,105.135668 C264.526869,108.831728 257.931809,106.511203 255.624532,109.602292 C256.353146,109.753167 257.108255,109.83486 257.884707,109.83486 L275.459756,109.83486 C282.734119,109.83486 288.013994,102.913764 286.093103,95.8977277" id="Fill-60" fill="#1E1240"></path>
                                <path d="M273.708066,78.0449954 L273.708066,78.0449954 C270.41532,78.0449954 267.722392,80.7386587 267.722392,84.0306686 L267.722392,101.362111 C267.722392,104.653385 270.41532,107.347048 273.708066,107.347048 C277.000076,107.347048 279.693739,104.653385 279.693739,101.362111 L279.693739,84.0306686 C279.693739,80.7386587 277.000076,78.0449954 273.708066,78.0449954" id="Fill-61" fill="#FFE6E6"></path>
                            </g>
                            <g id="Group-161" transform="translate(0.000000, 30.000000)">
                                <path d="M547.6375,173.3332 C547.6375,183.1652 542.6215,191.1362 536.4355,191.1362 C530.2485,191.1362 525.2335,183.1652 525.2335,173.3332 C525.2335,163.5012 530.2485,155.5302 536.4355,155.5302 C542.6215,155.5302 547.6375,163.5012 547.6375,173.3332" id="Fill-28" fill="#FFFFFF"></path>
                                <path d="M536.4353,155.5304 C535.5433,155.5304 534.6773,155.7014 533.8463,156.0134 C538.7843,157.8714 542.4593,164.9184 542.4593,173.3334 C542.4593,181.7484 538.7843,188.7954 533.8463,190.6524 C534.6773,190.9654 535.5433,191.1354 536.4353,191.1354 C542.6223,191.1354 547.6373,183.1654 547.6373,173.3334 C547.6373,163.5014 542.6223,155.5304 536.4353,155.5304" id="Fill-29" fill="#FFE6E6"></path>
                                <path d="M368.5403,179.9113 C368.5403,179.9113 373.8533,175.6503 376.0903,178.1303 C378.3273,180.6103 370.9163,184.8193 369.9313,183.8293 C368.9463,182.8383 368.5403,179.9113 368.5403,179.9113" id="Fill-60" fill="#311E69"></path>
                                <path d="M578.7766,126.1105 C578.7766,126.1105 582.5866,119.4005 580.4476,114.4645 C578.3106,109.5275 572.7126,109.4885 569.5256,111.0435 C566.3386,112.5985 564.4716,118.2945 562.8006,120.1305 C561.1296,121.9655 555.6686,122.7975 556.1926,127.2425 C557.5156,138.4575 573.2956,137.6005 578.7766,126.1105" id="Fill-61" fill="#163774"></path>
                                <path d="M578.9568,112.2243 C578.3218,113.1583 577.5218,114.1613 576.5098,115.2293 C571.9328,120.0563 566.3058,119.3853 563.7688,118.7433 C563.4348,119.3063 563.1138,119.7863 562.8008,120.1303 C561.1288,121.9663 555.6678,122.7983 556.1928,127.2423 C557.5158,138.4573 573.2958,137.6003 578.7768,126.1103 C578.7768,126.1103 582.5858,119.4003 580.4478,114.4643 C580.0558,113.5583 579.5458,112.8203 578.9568,112.2243" id="Fill-62" fill="#0E244C"></path>
                                <path d="M585.5813,127.8917 C594.9823,132.5477 602.4023,144.6687 605.7773,144.9357 C610.4083,145.3017 627.2873,135.5367 630.7863,132.2597 C634.2843,128.9837 639.6383,136.8737 635.9093,144.3477 C632.1803,151.8217 619.8863,162.3517 606.4453,162.3517 C587.7233,162.3517 577.7773,138.7177 577.7773,138.7177 C577.7773,138.7177 579.9893,125.1217 585.5813,127.8917" id="Fill-63" fill="#BA104A"></path>
                                <path d="M579.6477,142.4533 C583.3377,149.1143 592.4337,162.3513 606.4447,162.3513 C619.8867,162.3513 632.1807,151.8213 635.9087,144.3483 C638.8887,138.3773 636.0687,132.1443 633.0307,131.5503 C632.1837,132.4303 631.5027,133.1653 631.3747,133.3863 C630.9917,134.0443 630.1467,139.8873 629.3407,144.3113 C628.5347,148.7363 621.5537,153.2233 615.0207,153.5863 C608.4867,153.9503 609.3817,155.2803 604.4597,154.8333 C599.5367,154.3863 598.3737,149.9113 594.8827,144.3113 C591.3917,138.7133 580.7627,132.6373 580.7627,132.6373 L579.6477,142.4533 Z" id="Fill-64" fill="#930C3A"></path>
                                <path d="M630.7146,131.7394 C630.6446,131.2044 631.1336,129.7294 631.6016,128.9544 C632.4966,127.4704 631.7856,126.8544 631.6846,126.1984 C631.5836,125.5434 632.6946,125.6284 633.1846,127.0164 C633.4976,127.9054 633.0716,129.0344 633.7426,128.4034 C634.4136,127.7714 635.6516,122.2494 636.4866,124.5934 C636.6056,124.9244 636.8826,126.3394 636.8826,126.3394 C636.8826,126.3394 637.1606,127.5444 637.1016,128.3244 C637.0006,129.6234 635.9236,131.6574 634.2276,133.1444 C633.3966,133.8744 631.1076,134.7214 630.7146,131.7394" id="Fill-65" fill="#F39B9B"></path>
                                <path d="M515.9905,260.6984 C518.2025,260.5834 520.0245,259.6404 521.4405,258.7594 L525.1475,263.6604 C525.1475,263.6604 523.2145,264.5984 522.5245,266.4184 C522.2235,267.2124 524.2595,277.6674 523.5495,278.3584 C522.3655,279.5104 512.1805,265.9584 511.7475,262.7544 C511.5215,261.0784 513.5655,260.8234 515.9905,260.6984" id="Fill-66" fill="#0E244C"></path>
                                <path d="M567.6038,300.8312 C568.8388,298.9922 569.1778,296.9692 569.3208,295.3072 L575.4668,295.2812 C575.4668,295.2812 575.0578,297.3912 576.0998,299.0342 C576.5548,299.7512 586.1408,304.3942 586.2688,305.3772 C586.4798,307.0152 569.5268,307.0352 566.7038,305.4592 C565.2268,304.6352 566.2498,302.8472 567.6038,300.8312" id="Fill-67" fill="#0E244C"></path>
                                <path d="M575.095,297.379 C574.068,297.644 570.762,297.668 567.286,296.895 C563.714,296.099 561.594,292.408 562.716,288.924 C566.424,277.414 575.381,253.715 581.759,243.34 C584.916,238.204 581.753,196.736 581.264,184.101 C580.844,171.665 596.19,170.244 601.163,168.393 C614.842,210.4 594.301,292.442 575.095,297.379" id="Fill-68" fill="#BA104A"></path>
                                <path d="M554.8308,230.9542 C557.5728,230.1132 554.1088,215.7862 555.2338,199.4052 C555.8048,191.0972 557.5788,177.2982 560.8728,173.0922 C567.7348,164.3282 578.5678,178.8032 583.9998,178.5642 C587.1578,223.8392 572.9548,259.5502 531.8288,270.0732 C524.0158,272.0722 519.7378,259.7002 519.7378,259.7002 C519.7378,259.7002 538.4328,235.9812 554.8308,230.9542" id="Fill-69" fill="#BA104A"></path>
                                <path d="M560.8723,173.0919 C559.8663,174.3769 559.0023,176.5599 558.2703,179.2059 C562.6743,181.5199 573.3303,185.6369 583.9993,178.5649 C578.5683,178.8029 567.7343,164.3279 560.8723,173.0919" id="Fill-70" fill="#1E1240"></path>
                                <path d="M561.7454,174.7687 C559.9764,173.6237 559.6064,171.2037 560.9234,169.5587 C563.9864,165.7347 567.6474,159.9447 567.8534,158.9267 C569.4034,151.2617 558.0614,145.3637 565.9054,135.8817 C569.2854,131.7957 573.7484,127.5647 583.2794,127.567698 C585.1254,127.567698 586.0574,129.1247 587.7384,131.0237 C588.7524,132.1677 591.8524,133.4367 592.6554,134.3597 C596.6934,139.0047 594.9184,151.7417 600.6104,164.7677 C606.6674,177.3247 575.9094,183.9367 561.7454,174.7687" id="Fill-71" fill="#BA104A"></path>
                                <path d="M591.1257,156.5734 C594.5917,159.3364 598.7137,161.4944 603.4697,162.1454 C601.9437,149.7694 592.5557,139.1634 592.5557,139.1634 L591.1257,156.5734 Z" id="Fill-72" fill="#1E1240"></path>
                                <path d="M600.6106,164.7677 C594.9186,151.7417 596.6936,139.0047 592.6546,134.3597 C591.8526,133.4367 588.7526,132.1677 587.7376,131.0237 C586.0576,129.1247 585.1256,127.567696 583.2786,127.567696 C581.3096,127.5667 579.5666,127.7547 577.9946,128.0777 C580.9926,132.1467 584.8776,138.1897 586.8306,144.4067 C590.2736,155.3707 587.4946,163.2887 587.9436,170.2707 C588.0856,172.4657 588.3156,175.2177 588.5646,177.9587 C597.3706,175.9087 603.6616,171.0927 600.6106,164.7677" id="Fill-73" fill="#930C3A"></path>
                                <path d="M566.9978,134.6105 C566.9978,134.6105 539.1228,161.9065 536.1698,179.0455 C533.2168,196.1825 531.6048,202.0865 539.6608,202.0865 C542.9308,202.0865 548.8388,197.9275 550.0228,179.8035 L567.2348,154.8365 C570.4098,150.2305 571.0318,144.3295 568.8878,139.1635 L566.9978,134.6105 Z" id="Fill-74" fill="#BA104A"></path>
                                <path d="M568.8875,139.1632 C565.5065,143.8442 561.2545,149.8962 560.0655,152.3272 C558.0085,156.5342 545.8365,168.0792 545.3885,169.6002 C544.9415,171.1222 541.3615,184.7262 541.1815,187.6812 C541.0715,189.5052 539.0825,196.6862 537.5785,201.9112 C538.1865,202.0282 538.8765,202.0862 539.6605,202.0862 C542.9305,202.0862 548.8395,197.9282 550.0225,179.8042 L567.2345,154.8362 C570.4095,150.2302 571.0325,144.3292 568.8875,139.1632" id="Fill-75" fill="#930C3A"></path>
                                <polygon id="Fill-76" fill="#DDBCBC" points="581.2708 137.9015 588.4788 134.8795 589.7408 138.3385 582.7128 141.1505"></polygon>
                                <path d="M572.8977,139.1632 C572.6407,139.1632 572.4077,138.9842 572.3507,138.7232 C572.1607,137.8582 570.5677,130.2112 572.9977,127.7282 C573.4597,127.2562 574.2937,126.7462 575.6447,127.0152 C575.9487,127.0742 576.1467,127.3692 576.0857,127.6732 C576.0257,127.9772 575.7297,128.1752 575.4267,128.1152 C574.7287,127.9782 574.1957,128.1072 573.7997,128.5132 C572.0977,130.2512 572.9677,136.2992 573.4467,138.4822 C573.5127,138.7852 573.3217,139.0842 573.0187,139.1502 C572.9777,139.1592 572.9377,139.1632 572.8977,139.1632" id="Fill-77" fill="#163774"></path>
                                <path d="M587.3826,144.8732 C587.1136,144.8732 586.8766,144.6802 586.8306,144.4062 C586.8226,144.3662 586.1116,140.2782 584.3226,134.5662 C582.6276,129.1532 577.2856,128.4022 577.2326,128.3952 C576.9246,128.3562 576.7076,128.0752 576.7476,127.7682 C576.7876,127.4612 577.0716,127.2432 577.3756,127.2832 C577.6246,127.3152 583.4856,128.1402 585.3936,134.2312 C587.2066,140.0192 587.9286,144.1762 587.9366,144.2172 C587.9886,144.5222 587.7836,144.8122 587.4776,144.8642 C587.4456,144.8702 587.4136,144.8732 587.3826,144.8732" id="Fill-78" fill="#163774"></path>
                                <path d="M573.9324,123.0148 L574.0174,131.1578 C574.0374,132.4968 577.4154,135.8658 579.4914,134.1198 C580.0994,133.6098 579.3434,130.8368 578.7274,129.4598 L576.8734,123.4538 L573.9324,123.0148 Z" id="Fill-79" fill="#F39B9B"></path>
                                <path d="M574.0051,129.9396 C575.0791,129.3926 577.1041,128.0816 576.8241,126.0706 C576.5901,124.3916 575.0821,125.0286 573.9611,125.7616 L574.0051,129.9396 Z" id="Fill-80" fill="#311E69"></path>
                                <path d="M575.8962,118.9508 L577.1422,121.8588 C578.1292,124.1638 577.2012,126.9358 574.9172,127.9708 C572.8082,128.9258 570.3502,128.1968 569.3132,125.4898 C568.3902,123.0818 569.6062,120.4928 569.9582,119.2078 C570.7592,116.2798 574.2192,115.7118 575.8962,118.9508" id="Fill-81" fill="#F39B9B"></path>
                                <path d="M576.552,121.883 C576.587,121.607 576.579,121.329 576.555,121.052 C576.509,120.526 576.562,119.733 577.377,120.049 C578.562,120.508 578.654,123.326 577.371,123.654 C576.419,123.897 576.465,122.578 576.552,121.883" id="Fill-82" fill="#F39B9B"></path>
                                <path d="M569.9514,122.5724 C569.8454,122.3154 569.7784,122.0464 569.7284,121.7724 C569.6334,121.2534 569.3704,120.5024 568.6684,121.0234 C567.6484,121.7814 568.3094,124.5224 569.6324,124.4974 C570.6154,124.4784 570.2204,123.2194 569.9514,122.5724" id="Fill-83" fill="#F39B9B"></path>
                                <path d="M571.2112,125.1388 C571.2112,125.1388 572.7102,125.5488 574.2312,124.9238 C574.2312,124.9238 574.0972,124.6618 573.3172,124.4548 C572.3882,124.2098 571.6382,124.3328 571.2112,125.1388" id="Fill-84" fill="#FFFFFF"></path>
                                <path d="M574.3972,127.0529 C573.4962,127.3129 571.7912,127.3649 570.9862,126.9799 C570.2732,126.6399 569.4472,125.5899 569.2692,125.3549 C569.2842,125.3999 569.2952,125.4449 569.3132,125.4899 C570.3502,128.1969 572.8082,128.9259 574.9172,127.9709 C576.3242,127.3329 577.2152,126.0339 577.4612,124.5929 C576.5222,126.0709 575.2082,126.8209 574.3972,127.0529" id="Fill-85" fill="#C87171"></path>
                                <path d="M325.0701,301.0382 C324.7221,300.4842 324.5081,297.2052 324.3951,296.6362 C320.8461,297.1372 319.4151,296.2512 317.1121,297.1762 C316.8361,298.5272 312.7331,307.3272 314.4011,308.2672 C317.5901,310.0652 336.5511,310.1382 336.5521,308.2672 C336.5541,305.7552 325.5811,301.8512 325.0701,301.0382" id="Fill-86" fill="#0E244C"></path>
                                <path d="M246.7185,267.6251 C246.8395,266.9821 248.9115,264.4331 249.2155,263.9371 C246.2725,261.8931 245.8235,260.2711 243.5065,259.3831 C242.3855,260.1871 233.3935,263.8541 233.9785,265.6771 C235.0965,269.1631 248.9555,282.1041 250.2275,280.7321 C251.9365,278.8921 246.5405,268.5691 246.7185,267.6251" id="Fill-87" fill="#0E244C"></path>
                                <path d="M344.1179,134.5685 C344.1179,134.5685 350.9329,156.3105 352.8749,162.7545 C356.7819,175.7215 370.2349,191.9695 368.3549,196.6275 C366.4759,201.2845 354.0779,202.3065 348.3959,196.6275 C342.7129,190.9475 332.2419,163.0225 333.4499,148.7925 C334.6579,134.5615 344.1179,134.5685 344.1179,134.5685" id="Fill-88" fill="#930C3A"></path>
                                <path d="M339.6658,179.6749 C340.2488,176.6449 340.9698,172.3419 340.6318,171.0779 C340.0958,169.0639 342.2438,167.7219 343.5858,163.2239 C344.9288,158.7269 340.6318,140.6699 340.6318,140.6699 L333.9158,158.1539 C334.9118,164.9949 337.1228,172.8109 339.6658,179.6749" id="Fill-89" fill="#1E1240"></path>
                                <path d="M331.989,104.9708 C331.989,104.9708 330.004,101.9388 326.196,102.0768 C322.387,102.2148 319.483,106.2528 320.196,111.3638 C320.587,114.1698 322.045,115.9068 322.045,115.9068 C322.045,115.9068 330.621,117.3468 332.269,113.1208 C333.918,108.8948 331.989,104.9708 331.989,104.9708" id="Fill-90" fill="#163774"></path>
                                <path d="M239.4734,250.5998 C246.5574,240.2178 263.9564,226.6878 272.9494,225.8908 C283.8084,224.9288 284.9334,194.8458 289.9664,181.1118 C291.9214,175.7768 295.4344,173.8238 295.9614,172.4938 C301.6684,173.7158 316.4674,176.4338 331.3814,175.4648 C332.6504,180.0208 334.9824,181.2748 335.1824,185.9438 C335.9204,203.1088 335.2804,266.6268 325.9314,295.8868 C324.3304,300.8998 315.4404,299.5198 312.5064,297.1398 C304.8454,290.9278 304.6594,274.6548 306.0694,259.6808 C306.9374,250.4598 308.3064,245.8838 310.1564,241.5018 C313.3134,234.0228 311.3584,201.7448 311.3584,201.7448 C308.4524,209.0568 299.9774,234.1978 290.1394,242.6608 C270.8884,259.2208 251.9414,270.7548 241.7024,262.5928 C238.3674,259.9348 237.0214,254.1928 239.4734,250.5998" id="Fill-91" fill="#BA104A"></path>
                                <path d="M308.3025,190.7072 L291.1355,178.5702 C290.7145,179.3212 290.3145,180.1612 289.9665,181.1112 C289.1745,183.2732 288.4795,185.8402 287.8275,188.6342 C291.2815,191.2552 297.7985,194.0392 308.3025,190.7072" id="Fill-92" fill="#1E1240"></path>
                                <path d="M331.3816,175.465 C329.8176,175.567 328.2546,175.625 326.7026,175.652 C324.3326,179.8 322.4766,183.696 322.1436,186.197 C321.0986,194.035 326.2346,222.138 325.2776,232.162 C324.3206,242.187 317.1606,257.76 317.1606,272.438 C317.1606,276.021 318.0676,288.604 319.9556,299.281 C322.6556,299.245 325.1536,298.321 325.9316,295.887 C335.2796,266.627 335.9206,203.109 335.1826,185.944 C334.9826,181.275 332.6506,180.021 331.3816,175.465" id="Fill-93" fill="#930C3A"></path>
                                <path d="M335.9099,186.257 C336.6719,149.329 350.9059,143.519 342.2249,131.17 C335.7579,121.97 324.0799,117.377 315.2389,119.07 C289.7919,123.943 285.7319,177.06 288.1619,182.4 C293.4739,194.073 331.7149,192.145 335.9099,186.257" id="Fill-94" fill="#BA104A"></path>
                                <path d="M299.0813,140.6701 C299.0813,140.6701 296.3293,150.1351 296.1273,157.9881 C295.9263,165.8421 295.7373,180.8111 312.5123,187.8591 C329.2883,194.9071 299.0813,140.6701 299.0813,140.6701" id="Fill-95" fill="#1E1240"></path>
                                <path d="M342.2253,131.1701 C339.0083,126.5951 334.5033,123.1601 329.6993,121.0701 C330.4873,124.5971 331.7773,130.6831 332.3413,135.0991 C333.1813,141.6771 328.7043,150.0001 328.5263,156.8471 C328.3483,163.6941 322.4413,174.3001 320.6963,183.6971 C320.3403,185.6131 319.8833,188.0711 319.3823,190.7711 C327.4273,190.2551 334.2693,188.5591 335.9103,186.2571 C336.6723,149.3291 350.9063,143.5191 342.2253,131.1701" id="Fill-96" fill="#930C3A"></path>
                                <path d="M589.5364,172.1173 C588.9844,174.8493 588.6054,177.0073 588.5644,177.9593 C588.3934,181.9523 593.2264,188.3963 596.0464,198.0623 C598.8654,207.7283 591.7504,212.9643 593.6294,223.5703 C595.5094,234.1763 595.7774,229.2093 592.0184,241.0223 C588.2594,252.8373 574.0294,269.8873 573.2234,281.1643 C572.6404,289.3223 568.8284,293.2643 568.0844,297.0573 C571.2564,297.6613 574.1464,297.6233 575.0954,297.3793 C594.3014,292.4413 614.8414,210.4003 601.1634,168.3923 C598.7414,169.2943 593.8594,170.0973 589.5364,172.1173" id="Fill-97" fill="#930C3A"></path>
                                <path d="M319.4988,131.7873 C318.4208,145.3863 316.2888,154.0273 319.4988,164.8413 C324.1128,180.3773 347.8718,189.8773 352.8748,193.6773 C355.4668,195.6453 352.0158,207.8153 342.0018,204.8013 C332.6618,201.9883 299.4838,190.9333 298.0078,156.4443 C297.5048,144.7013 299.2668,134.3673 302.2678,129.0613 C308.1668,118.6343 320.0608,124.6913 319.4988,131.7873" id="Fill-98" fill="#BA104A"></path>
                                <path d="M332.5603,106.6251 C332.9583,108.1611 333.2593,110.5831 332.2693,113.1211 C330.6213,117.3471 322.0453,115.9071 322.0453,115.9071 C322.0453,115.9071 320.5873,114.1701 320.1953,111.3641 C319.9573,109.6551 320.1303,108.0721 320.5993,106.7091 C325.0473,109.9961 329.9233,108.1321 332.5603,106.6251" id="Fill-99" fill="#0E244C"></path>
                                <path d="M324.4006,111.6544 L319.5016,120.4994 C319.3796,122.6834 323.2426,126.0354 326.2586,124.1254 C326.9286,123.7004 327.8016,114.4354 327.8016,114.4354 L324.4006,111.6544 Z" id="Fill-100" fill="#F39B9B"></path>
                                <path d="M327.5261,117.067 C327.4271,117.953 327.3061,118.963 327.1731,119.94 C325.7981,119.473 323.9271,118.577 323.7521,117.127 C323.5671,115.586 325.9241,116.369 327.5261,117.067" id="Fill-101" fill="#311E69"></path>
                                <path d="M326.0916,108.5499 L323.4246,113.4449 C322.6746,115.1259 323.3946,117.1029 325.0556,117.8969 C326.3826,118.5319 327.2876,118.7009 329.1136,118.8149 C330.6366,118.9089 331.6636,117.6209 332.0236,115.6699 C332.4906,113.1379 332.2006,110.6739 331.9716,109.3639 C331.4506,106.3769 328.0636,105.4869 326.0916,108.5499" id="Fill-102" fill="#F39B9B"></path>
                                <path d="M328.9436,115.0504 C328.9436,115.0504 331.0026,114.4964 331.7766,115.1684 C331.7766,115.1684 330.9476,115.8464 328.9436,115.0504" id="Fill-103" fill="#FFFFFF"></path>
                                <path d="M325.0823,116.0783 C324.6123,115.5303 323.5143,114.0013 323.4833,113.3373 L323.4253,113.4443 C322.6753,115.1253 323.3953,117.1023 325.0553,117.8973 C326.3823,118.5323 327.2873,118.7013 329.1143,118.8143 C330.0423,118.8723 330.7853,118.4133 331.3073,117.6053 C331.0013,117.5983 327.6033,119.0163 325.0823,116.0783" id="Fill-104" fill="#C87171"></path>
                                <path d="M325.8074,111.4152 C325.7264,110.7642 325.2224,109.3682 324.3144,109.9632 C322.9944,110.8292 323.3274,113.5152 324.9694,113.5802 C326.1894,113.6272 325.8494,111.7582 325.8074,111.4152" id="Fill-105" fill="#F39B9B"></path>
                                <path d="M332.2908,109.3854 C330.7178,110.3504 328.3278,111.7434 325.0548,110.8484 C321.7808,109.9544 322.2958,108.3254 322.2958,108.3254 C322.2958,108.3254 324.9578,108.5984 325.6428,107.0814 C326.3268,105.5644 331.2268,103.7764 332.7598,105.4674 C334.2938,107.1584 332.7838,109.0834 332.2908,109.3854" id="Fill-106" fill="#163774"></path>
                                <path d="M424.2649,302.172 C424.2649,306.298 420.9199,309.644 416.7939,309.644 C412.6679,309.644 409.3239,306.298 409.3239,302.172 C409.3239,298.046 412.6679,294.701 416.7939,294.701 C420.9199,294.701 424.2649,298.046 424.2649,302.172" id="Fill-107" fill="#0E244C"></path>
                                <path d="M476.8079,251.5412 L526.7419,208.6192 C528.0329,207.5092 528.1799,205.5632 527.0699,204.2722 C525.9609,202.9812 524.0149,202.8342 522.7239,203.9442 L472.0799,247.4782 L421.4359,203.9442 C420.1449,202.8352 418.1989,202.9822 417.0899,204.2722 C415.9799,205.5632 416.1269,207.5092 417.4179,208.6192 L467.3519,251.5412 L417.4179,294.4642 C416.1269,295.5732 415.9799,297.5202 417.0899,298.8112 C417.6989,299.5202 418.5609,299.8832 419.4289,299.8832 C420.1399,299.8832 420.8539,299.6382 421.4359,299.1382 L472.0799,255.6052 L522.7239,299.1382 C523.3059,299.6382 524.0199,299.8832 524.7309,299.8832 C525.5989,299.8832 526.4609,299.5202 527.0699,298.8112 C528.1799,297.5202 528.0329,295.5732 526.7419,294.4642 L476.8079,251.5412 Z" id="Fill-108" fill="#163774"></path>
                                <path d="M410.9509,296.9298 L410.9509,297.0878 C410.9509,298.0628 411.2109,299.0198 411.7049,299.8608 L412.6509,301.4708 C414.9689,305.4148 418.8659,305.3348 421.1199,301.2948 L422.1209,299.5018 C422.4599,298.8958 422.6379,298.2118 422.6379,297.5178 L422.6379,293.7188 L414.1619,293.7188 C412.3879,293.7188 410.9509,295.1568 410.9509,296.9298" id="Fill-109" fill="#163774"></path>
                                <path d="M518.7385,302.172 C518.7385,306.298 522.0835,309.644 526.2095,309.644 C530.3355,309.644 533.6805,306.298 533.6805,302.172 C533.6805,298.046 530.3355,294.701 526.2095,294.701 C522.0835,294.701 518.7385,298.046 518.7385,302.172" id="Fill-110" fill="#0E244C"></path>
                                <path d="M532.053,296.9298 L532.053,297.0878 C532.053,298.0628 531.793,299.0198 531.299,299.8608 L530.353,301.4708 C528.035,305.4148 524.138,305.3348 521.884,301.2948 L520.883,299.5018 C520.544,298.8958 520.366,298.2118 520.366,297.5178 L520.366,293.7188 L528.842,293.7188 C530.616,293.7188 532.053,295.1568 532.053,296.9298" id="Fill-111" fill="#163774"></path>
                                <path d="M508.7776,299.883 C508.0666,299.883 507.3516,299.638 506.7696,299.138 L401.4636,208.619 C400.1726,207.509 400.0256,205.564 401.1356,204.273 C402.2446,202.983 404.1916,202.835 405.4816,203.945 L510.7876,294.464 C512.0786,295.573 512.2256,297.52 511.1156,298.811 C510.5066,299.52 509.6446,299.883 508.7776,299.883" id="Fill-112" fill="#163774"></path>
                                <path d="M408.3113,302.172 C408.3113,306.298 404.9663,309.644 400.8403,309.644 C396.7143,309.644 393.3693,306.298 393.3693,302.172 C393.3693,298.046 396.7143,294.701 400.8403,294.701 C404.9663,294.701 408.3113,298.046 408.3113,302.172" id="Fill-113" fill="#0E244C"></path>
                                <path d="M403.4744,299.883 C402.6074,299.883 401.7454,299.52 401.1354,298.811 C400.0254,297.52 400.1724,295.573 401.4634,294.464 L506.7694,203.945 C508.0614,202.834 510.0074,202.982 511.1164,204.273 C512.2254,205.564 512.0784,207.509 510.7874,208.619 L405.4814,299.138 C404.9004,299.638 404.1854,299.883 403.4744,299.883" id="Fill-114" fill="#163774"></path>
                                <path d="M394.9968,296.9298 L394.9968,297.0878 C394.9968,298.0628 395.2578,299.0198 395.7508,299.8608 L396.6968,301.4708 C399.0148,305.4148 402.9118,305.3348 405.1658,301.2948 L406.1668,299.5018 C406.5058,298.8958 406.6838,298.2118 406.6838,297.5178 L406.6838,293.7188 L398.2078,293.7188 C396.4338,293.7188 394.9968,295.1568 394.9968,296.9298" id="Fill-115" fill="#163774"></path>
                                <path d="M502.7849,302.172 C502.7849,306.298 506.1299,309.644 510.2559,309.644 C514.3819,309.644 517.7259,306.298 517.7259,302.172 C517.7259,298.046 514.3819,294.701 510.2559,294.701 C506.1299,294.701 502.7849,298.046 502.7849,302.172" id="Fill-116" fill="#0E244C"></path>
                                <path d="M516.0989,296.9298 L516.0989,297.0878 C516.0989,298.0628 515.8389,299.0198 515.3449,299.8608 L514.3989,301.4708 C512.0809,305.4148 508.1839,305.3348 505.9299,301.2948 L504.9289,299.5018 C504.5899,298.8958 504.4119,298.2118 504.4119,297.5178 L504.4119,293.7188 L512.8889,293.7188 C514.6619,293.7188 516.0989,295.1568 516.0989,296.9298" id="Fill-117" fill="#163774"></path>
                                <path d="M356.5139,203.6271 L353.3889,202.0861 C353.3889,202.0861 348.7649,196.6321 367.2579,195.0911 C385.7509,193.5501 554.6259,198.2331 560.2119,200.2881 C565.7979,202.3431 565.7949,206.4521 565.7949,206.4521 L356.5139,203.6271 Z" id="Fill-118" fill="#BA104A"></path>
                                <path d="M352.8748,193.6769 C352.6518,193.5069 352.3788,193.3229 352.0838,193.1299 C347.0398,193.3969 345.9108,198.1749 343.7958,198.5999 C341.1198,199.1369 331.8088,187.1369 324.4618,186.1979 C317.1148,185.2569 312.2378,179.2669 313.0438,175.2399 C313.8488,171.2119 307.5398,163.6949 305.3918,158.9269 C303.2438,154.1589 307.5398,141.9459 307.9418,138.3209 C308.2078,135.9309 306.7228,129.3409 305.6798,125.1259 C304.4318,126.0219 303.2638,127.3019 302.2678,129.0619 C299.2668,134.3669 297.5048,144.7009 298.0078,156.4449 C299.4838,190.9339 332.6618,201.9889 342.0018,204.8009 C352.0158,207.8159 355.4668,195.6459 352.8748,193.6769" id="Fill-119" fill="#930C3A"></path>
                                <path d="M399.0217,189.9503 C399.0217,189.9503 389.7597,184.2783 381.5027,184.9173 C373.2457,185.5563 364.9217,186.8523 364.3847,195.5683 C363.8477,204.2843 401.7737,201.8363 403.3847,199.0263 C404.9957,196.2173 399.0217,189.9503 399.0217,189.9503" id="Fill-120" fill="#2E88BF"></path>
                                <path d="M465.968,152.7638 C448.715,152.1498 436.376,156.3548 417.259,155.1488 C383.885,160.6518 385.211,179.8348 387.341,186.7108 C387.505,187.2398 387.675,187.7678 387.856,188.2958 C392.086,200.6128 406.719,200.8818 419.243,197.3158 C421.094,196.7888 422.897,196.4148 424.654,196.1648 C441.639,197.7418 461.791,199.6518 467.704,199.3888 C476.427,180.5928 474.22,156.8278 465.968,152.7638" id="Fill-121" fill="#163774"></path>
                                <path d="M384.0198,185.9777 C384.0198,185.9777 380.3978,191.4697 375.3428,192.6607 C373.9778,192.9817 372.3128,184.2227 372.3128,184.2227 C372.3128,184.2227 376.1998,184.3637 378.6598,185.0167 C381.1188,185.6697 384.0198,185.9777 384.0198,185.9777" id="Fill-122" fill="#0E244C"></path>
                                <path d="M379.1223,186.1349 L391.5303,185.7359 C393.9113,184.4899 395.0153,178.3089 391.1023,176.3299 C390.2333,175.8909 379.9153,180.7989 379.9153,180.7989 L379.1223,186.1349 Z" id="Fill-123" fill="#F39B9B"></path>
                                <path d="M382.863,179.4337 C383.86,178.9817 385.001,178.4727 386.113,177.9987 C386.487,179.7427 386.72,182.2787 385.3,183.3757 C383.792,184.5407 383.134,181.5617 382.863,179.4337" id="Fill-124" fill="#0E244C"></path>
                                <path d="M373.97,185.4513 L380.726,186.5353 C382.98,186.7163 384.974,185.0733 385.215,182.8263 C385.407,181.0293 385.232,179.9133 384.616,177.7523 C384.102,175.9513 382.191,175.2893 379.784,175.6713 C376.662,176.1663 373.928,177.5103 372.505,178.3103 C369.262,180.1373 369.617,184.4223 373.97,185.4513" id="Fill-125" fill="#F39B9B"></path>
                                <path d="M379.155,175.9552 C379.155,175.9552 377.573,176.3852 379.588,178.6792 C379.588,178.6792 379.453,177.5542 379.155,175.9552" id="Fill-126" fill="#FFFFFF"></path>
                                <path d="M383.0413,184.8673 C382.5993,185.6363 381.3343,186.2043 380.5793,186.5123 L380.7263,186.5353 C382.9803,186.7163 384.9743,185.0733 385.2143,182.8263 C385.4063,181.0293 385.2323,179.9133 384.6153,177.7523 C384.3023,176.6533 383.4673,175.9813 382.3183,175.7083 C382.4353,176.0653 385.4103,180.7473 383.0413,184.8673" id="Fill-127" fill="#C87171"></path>
                                <path d="M370.8484,179.338 C370.8484,179.338 366.9014,176.305 363.5144,179.721 C361.7714,181.479 360.9784,186.948 364.4664,188.816 C367.0414,190.194 369.4614,189.255 369.4614,189.255 C369.4614,189.255 368.7154,190.756 369.9744,191.844 C371.2334,192.931 375.3774,193.468 376.5444,191.896 C378.4514,189.328 370.8484,179.338 370.8484,179.338" id="Fill-128" fill="#0E244C"></path>
                                <path d="M377.4026,184.6076 C376.6816,184.9676 375.2726,186.1236 376.3326,186.9296 C377.8756,188.1036 380.8486,186.6206 380.2516,184.6916 C379.8076,183.2596 377.7816,184.4186 377.4026,184.6076" id="Fill-129" fill="#F39B9B"></path>
                                <path d="M421.4358,203.9445 C420.1448,202.8355 418.1988,202.9825 417.0898,204.2725 C415.9798,205.5635 416.1268,207.5085 417.4178,208.6195 L430.9848,220.2815 L440.4408,220.2815 L421.4358,203.9445 Z" id="Fill-130" fill="#0E244C"></path>
                                <path d="M526.7419,208.6193 C528.0329,207.5093 528.1799,205.5633 527.0699,204.2723 C525.9609,202.9813 524.0149,202.8343 522.7239,203.9443 L503.7179,220.2813 L513.1749,220.2813 L526.7419,208.6193 Z" id="Fill-131" fill="#0E244C"></path>
                                <path d="M352.0662,195.6457 C352.0662,195.6457 356.7202,196.5417 357.7052,197.4357 C358.6892,198.3317 356.9542,199.3447 355.5562,198.8687 C354.1592,198.3907 356.1832,201.3667 357.6152,202.0857 C359.0472,202.8057 362.5382,204.3487 359.7632,205.2787 C356.9882,206.2077 348.3072,202.6267 348.3972,199.8527 C348.4862,197.0787 350.4302,195.2897 352.0662,195.6457" id="Fill-132" fill="#F39B9B"></path>
                                <path d="M313.9773,144.1964 C313.9773,147.3314 311.4363,149.8714 308.3023,149.8714 C305.1683,149.8714 302.6273,147.3314 302.6273,144.1964 C302.6273,141.0624 305.1683,138.5214 308.3023,138.5214 C311.4363,138.5214 313.9773,141.0624 313.9773,144.1964" id="Fill-133" fill="#DDBCBC"></path>
                                <polygon id="Fill-134" fill="#BA104A" points="312.5125 142.6779 309.8215 142.6779 309.8215 139.9869 306.7835 139.9869 306.7835 142.6779 304.0925 142.6779 304.0925 145.7159 306.7835 145.7159 306.7835 148.4069 309.8215 148.4069 309.8215 145.7159 312.5125 145.7159"></polygon>
                                <path d="M295.3225,222.4962 C293.1745,233.9072 289.8185,233.9922 284.0455,237.3732 C278.2725,240.7542 268.3375,239.6812 261.4905,243.5732 C256.0245,246.6822 243.3785,254.3202 238.4985,257.2762 C238.9905,259.3702 240.1175,261.3302 241.7015,262.5932 C251.9415,270.7552 270.8885,259.2212 290.1395,242.6602 C299.9775,234.1972 308.4525,209.0572 311.3585,201.7442 C311.3585,201.7442 297.4705,211.0852 295.3225,222.4962" id="Fill-135" fill="#930C3A"></path>
                                <polygon id="Fill-136" fill="#DDBCBC" points="328.5261 138.1867 338.8801 139.3497 338.1041 144.1967 328.0941 142.9057"></polygon>
                                <path d="M589.5574,144.3117 C589.5574,145.5127 588.5834,146.4867 587.3834,146.4867 C586.1824,146.4867 585.2084,145.5127 585.2084,144.3117 C585.2084,143.1117 586.1824,142.1377 587.3834,142.1377 C588.5834,142.1377 589.5574,143.1117 589.5574,144.3117" id="Fill-137" fill="#163774"></path>
                                <path d="M571.2361,152.0792 L571.3071,152.2942 L573.6351,153.5212 C573.7181,153.5652 573.8081,153.5862 573.8961,153.5862 C574.0981,153.5862 574.2921,153.4772 574.3931,153.2872 C574.5381,153.0132 574.4331,152.6732 574.1591,152.5282 L572.2351,151.5142 C571.9571,150.6152 570.9161,147.0502 570.8641,144.0262 L569.7491,144.1942 C569.8401,147.7972 571.1611,151.8512 571.2361,152.0792" id="Fill-138" fill="#DDBCBC"></path>
                                <path d="M577.5325,142.3917 C577.1145,140.3627 575.3185,138.6577 573.4425,138.5097 C571.9715,138.3957 570.7865,139.2327 570.1925,140.8107 C569.8315,141.7687 569.7185,142.9547 569.7495,144.1947 L570.8645,144.0267 C570.8465,142.9767 570.9465,141.9907 571.2415,141.2057 C571.6585,140.0977 572.3935,139.5507 573.3545,139.6277 C574.7355,139.7377 576.1155,141.0787 576.4335,142.6187 C576.4695,142.7947 576.5065,142.9797 576.5435,143.1697 L577.6545,143.0017 C577.6135,142.7907 577.5725,142.5867 577.5325,142.3917" id="Fill-139" fill="#163774"></path>
                                <path d="M577.6545,143.0021 L576.5435,143.1701 C577.0805,145.9131 577.6825,149.8701 577.8385,150.9131 L576.2835,152.6511 C576.0775,152.8821 576.0975,153.2361 576.3275,153.4431 C576.5595,153.6501 576.9145,153.6311 577.1205,153.3991 L579.0255,151.2701 L578.9875,151.0101 C578.9795,150.9591 578.2785,146.1991 577.6545,143.0021" id="Fill-140" fill="#DDBCBC"></path>
                                <path d="M559.1433,152.297 C557.2153,154.769 554.6333,155.977 553.3763,154.996 C552.1193,154.016 552.6633,151.217 554.5903,148.745 C556.5183,146.275 559.1003,145.067 560.3573,146.047 C561.6143,147.027 561.0713,149.826 559.1433,152.297" id="Fill-141" fill="#DDBCBC"></path>
                                <polygon id="Fill-142" fill="#BA104A" points="559.49 150.6408 558.41 149.7988 560.066 147.6768 558.847 146.7268 557.192 148.8488 556.112 148.0068 554.244 150.4018 555.323 151.2438 553.668 153.3658 554.886 154.3168 556.542 152.1948 557.621 153.0368"></polygon>
                                <path d="M395.8342,193.3136 C395.8542,192.9726 395.8402,192.6336 395.8312,192.2926 C395.7842,190.7356 396.1572,186.3826 401.2472,183.0266 C407.5572,178.8646 431.7222,178.7396 444.2082,181.2176 C456.6932,183.6976 475.6522,190.1416 472.0802,195.5116 C468.5392,200.8346 394.9262,209.1606 395.8342,193.3136" id="Fill-143" fill="#F39B9B"></path>
                                <path d="M411.3157,194.7853 C405.5827,194.6983 399.6567,192.8083 395.8627,191.3263 C395.8297,191.7093 395.8237,192.0403 395.8307,192.2933 C395.8407,192.6343 395.8537,192.9733 395.8347,193.3133 C394.9267,209.1603 468.5387,200.8343 472.0797,195.5123 C472.1947,195.3393 472.2847,195.1663 472.3547,194.9913 C469.1067,194.6333 465.8097,194.4443 462.6897,194.0353 C451.7707,192.6023 420.8027,194.9303 411.3157,194.7853" id="Fill-144" fill="#C87171"></path>
                                <path d="M584.1843,198.7951 C582.6363,204.4951 579.5203,214.6211 576.1413,217.9321 C571.3443,222.6301 569.7923,232.8341 568.0843,236.7271 C566.3763,240.6201 554.6963,246.7551 548.1183,251.5411 C541.5393,256.3271 528.6513,257.2681 524.2213,260.3561 C522.8453,261.3151 522.7913,263.6091 523.3703,266.3171 C525.3953,268.8741 528.2383,270.9921 531.8293,270.0731 C566.6043,261.1751 582.1273,234.2661 584.1843,198.7951" id="Fill-145" fill="#930C3A"></path>
                                <path d="M353.3884,202.0861 L565.7944,206.4521 C565.7944,210.2471 562.6564,213.2891 558.8634,213.1711 L359.9784,207.8801 C357.2024,207.7941 354.7654,206.0091 353.8464,203.3891 L353.3884,202.0861 Z" id="Fill-146" fill="#163774"></path>
                                <path d="M412.2693,156.129 C412.2693,156.129 425.9493,197.597 426.2173,203.199 C426.2173,203.199 463.9423,202.698 470.5203,203.199 C477.0993,203.701 503.5293,203.498 511.8613,204.507 C513.8723,204.75 520.8123,208.903 525.8773,209.071 C533.0043,209.308 539.2163,205.531 547.1693,205.709 C556.9823,205.928 565.1013,206.143 565.7943,206.452 C565.7943,206.452 568.2783,209.473 570.1463,206.452 C572.0153,203.433 563.1543,162.391 535.9013,154.317 C508.6483,146.241 425.6363,150 412.2693,156.129" id="Fill-147" fill="#2DBAF6"></path>
                                <path d="M560.5183,175.7111 C556.9283,177.0901 552.8223,178.6801 550.0223,179.8041 C544.0063,182.2211 534.2903,195.6461 527.8153,198.2901 C521.3403,200.9351 517.1063,185.4421 511.7303,183.6381 C506.3543,181.8321 496.7003,168.2591 489.7193,167.5401 C482.7373,166.8221 477.6363,172.8231 472.0803,174.5621 C466.5233,176.3001 459.1093,166.9161 450.2483,164.3721 C441.3883,161.8291 441.6573,172.2861 434.1733,174.1661 C429.2693,175.3981 421.9023,173.4951 417.4033,172.0361 C421.3163,184.3791 426.0603,199.9231 426.2173,203.1991 C426.2173,203.1991 463.9423,202.6981 470.5203,203.1991 C477.0993,203.7011 503.5293,203.4981 511.8613,204.5071 C513.8723,204.7501 520.8123,208.9031 525.8773,209.0711 C533.0043,209.3081 539.2163,205.5311 547.1693,205.7091 C556.9823,205.9281 565.1013,206.1431 565.7943,206.4521 C565.7943,206.4521 568.2783,209.4731 570.1463,206.4521 C571.2563,204.6591 568.5813,189.4551 560.5183,175.7111" id="Fill-148" fill="#1D8EBF"></path>
                                <path d="M479.9207,188.381 L447.8647,187.337 L444.9767,187.242 L412.9207,186.198 C411.3247,186.147 409.9897,187.398 409.9387,188.992 L409.9007,190.148 L409.3807,203.231 C409.3497,204.033 409.9777,204.708 410.7797,204.735 C411.5727,204.76 412.2387,204.143 412.2727,203.35 L412.6407,194.766 C412.7227,192.268 414.8147,190.308 417.3127,190.389 L440.3197,191.139 C442.8187,191.22 444.7787,193.312 444.6977,195.811 L444.3307,204.366 C444.2957,205.17 444.9237,205.847 445.7267,205.872 C446.5187,205.899 447.1827,205.282 447.2167,204.49 L447.5857,195.904 C447.6667,193.405 449.7587,191.445 452.2567,191.527 L475.2647,192.277 C477.7637,192.359 479.7227,194.449 479.6417,196.948 L479.2747,205.507 C479.2397,206.309 479.8667,206.985 480.6687,207.011 C481.4607,207.036 482.1257,206.418 482.1567,205.626 L482.6767,192.518 L482.7147,191.363 C482.7667,189.768 481.5157,188.433 479.9207,188.381" id="Fill-149" fill="#0E244C"></path>
                                <path d="M558.864,214.5197 C558.851,214.5197 558.839,214.5197 558.826,214.5187 L358.331,208.9787 C357.587,208.9577 357,208.3367 357.019504,207.5927 C357.041,206.8487 357.672,206.2587 358.406,206.2827 L558.901,211.8237 C559.645,211.8437 560.232,212.4637 560.211546,213.2077 C560.191,213.9407 559.591,214.5197 558.864,214.5197" id="Fill-150" fill="#0E244C"></path>
                                <g id="Group-26" transform="translate(608.000000, 324.000000)">
                                    <path d="M9.99290451,38 L97.9867995,38 C105.026311,38 109.927732,32.3885996 107.263491,27.2580162 C105.077949,23.0484145 101.445148,19.0701097 95.4579345,18.4673362 C82.0809086,17.1216094 76.4049186,27.7444403 76.4049186,27.7444403 C76.4049186,27.7444403 79.2436114,1.87564617 52.8942897,0.081343767 C26.5449679,-1.71155684 25.3293821,26.7281362 25.3293821,26.7281362 C25.3293821,26.7281362 16.7253795,21.6956787 8.66985594,22.3601313 C-3.70371858,23.3820426 -2.45045105,38 9.99290451,38" id="Fill-151" fill="#FAACAC"></path>
                                    <path d="M108,32.5466671 C104.479411,30.0185776 100.209015,28.3984639 97.3078923,27.8876419 C91.4047388,26.8454555 82.5514101,33.927119 74.6679252,33.7175862 C66.7844404,33.5094228 72.0737331,27.868469 61.1994293,22.3370748 C50.3251255,16.8043112 42.5902005,30.1774391 37.6975346,31.0100927 C32.8048687,31.8427462 15.4065432,33.093096 6.70738038,29.3447856 C4.30379344,28.3080772 2.54630188,27.2727382 1.25691414,26.3168301 C-2.02121406,30.8526006 1.18543721,38 10.0275538,38 L98.3926598,38 C103.05688,38 106.769476,35.6088601 108,32.5466671" id="Fill-152" fill="#FF8F8F"></path>
                                </g>
                                <g id="Group-28" transform="translate(0.000000, 285.000000)">
                                    <path d="M7.77587213,28 L116.586585,28 C120.424923,28 123.528984,24.5568493 122.924381,20.6958966 C122.559674,18.367435 120.857708,16.1793417 116.195943,15.3536461 C104.543152,13.289407 94.5485619,22.8377511 87.7666343,19.2245071 C80.9830857,15.6112631 85.2898691,9.32771951 75.9177119,11.0187441 C66.5439337,12.7081173 69.8376424,19.9990096 62.2371503,21.0311291 C54.6366582,22.0632486 45.0116375,-1.93972276 24.2379318,0.126167651 C13.4831301,1.19626916 6.05607642,8.62918103 1.39269069,15.5485102 C-2.16198603,20.8263566 1.4931877,28 7.77587213,28" id="Fill-153" fill="#FAACAC"></path>
                                    <path d="M87.5855604,24.7136451 C83.5027381,29.1515054 65.9016327,23.7447149 63.6256695,24.4942345 C61.3497063,25.2453555 31.7718907,24.7456758 16.8560013,20.7418322 C8.88608618,18.6005766 5.24810382,15.4599616 3.58682864,13 C2.79582225,13.9721332 2.06304946,14.9522742 1.39012787,15.9244074 C-2.15726889,21.0429212 1.48880147,28 7.75861899,28 L116.348106,28 C118.785829,28 120.921061,26.6434978 122,24.6960282 C121.365901,24.8033312 120.702685,24.9042281 120.002264,24.9955157 C109.890647,26.313581 91.6683828,20.2741832 87.5855604,24.7136451" id="Fill-154" fill="#FF8F8F"></path>
                                </g>
                                <g id="Group-25" transform="translate(143.000000, 324.000000)">
                                    <path d="M158.854481,33.8852741 C151.049745,35.1734219 148.093832,38.0059692 146.977465,40.0766494 C149.20739,31.2084067 154.83837,1.08228237 128.739268,0.049008798 C98.1213386,-1.16336553 98.6226503,20.5202249 98.6226503,20.5202249 C98.6226503,20.5202249 89.0864938,8.98062558 80.051649,14.2200115 C71.0168043,19.4580196 69.5114649,32.3822055 69.5114649,32.3822055 C69.5114649,32.3822055 55.457886,9.12666158 29.3573794,14.2200115 C9.65737358,18.0624115 2.87211249,28.1044529 0.166152606,39.781822 C-0.946001117,44.5775891 3.66831345,49 9.72196837,49 L160.17727,49 C169.098371,49 173.510476,39.9182141 166.635344,35.3401233 C164.658182,34.023044 162.116517,33.3465942 158.854481,33.8852741" id="Fill-155" fill="#FAACAC"></path>
                                    <path d="M169.939785,41.0012792 C166.195959,42.2675578 160.906013,43.4959324 156.530258,43.2193726 C149.299589,42.7631192 145.128859,43.2193726 142.90447,37.5140994 C140.680081,31.8060184 144.016665,13.0869945 131.501667,9.43415961 C118.988074,5.78132473 112.8696,26.3267661 107.030578,28.1531836 C101.190153,29.979601 98.687715,25.1854307 88.6765597,21.7614244 C78.6654044,18.3360143 75.6068694,37.2852708 73.1030273,38.1977775 C70.6005896,39.1102843 56.6967533,30.4372582 42.2354155,25.035218 C27.7754819,19.6331778 20.8228616,40.709277 10.5336577,40.2530236 C5.464185,40.0284066 3.36758592,36.6437083 2.54186571,33.268837 C1.50831118,35.609066 0.742975273,38.0700266 0.165813703,40.6081993 C-0.94497657,45.4936203 3.66810313,50 9.72338462,50 L160.18421,50 C166.49788,50 170.547841,45.3644655 169.939785,41.0012792" id="Fill-156" fill="#FF8F8F"></path>
                                </g>
                                <path d="M98.6082,124.34 C98.6082,124.34 6.6152,120.657 11.1632,102.431 C15.7112,84.204 76.0032,80.213 76.0032,80.213 C76.0032,80.213 7.7212,50.651 20.6222,20.272 C33.5232,-10.107 125.0722,30.674 125.0722,30.674 C125.0722,30.674 100.9362,0.713 125.0722,0.297 C149.2082,-0.119 216.2052,73.796 206.6342,99.466 C197.0632,125.136 122.9122,128.538 98.6082,124.34" id="Fill-157" fill="#FAACAC"></path>
                                <path d="M116.7493,119.34 C116.7493,119.34 118.9683,136.268 129.7183,143.811 C140.4693,151.353 143.7983,158.532 145.0463,186.569 C146.2943,214.605 137.9723,273.677 145.8783,278.056 C153.7853,282.434 162.1073,279.455 162.1073,276.367 C162.1073,273.279 152.1203,245.004 151.7043,236.046 C151.2883,227.089 155.4493,202.12 153.3693,192.55 C151.2883,182.979 149.6243,160.488 157.5303,153.84 C165.4373,147.192 176.2563,121.118 168.3503,111.684 C160.4433,102.249 165.1533,116.234 164.8793,121.934 C164.6043,127.633 158.3623,134.351 154.6173,119.34 C150.8723,104.33 146.2943,111.464 147.9593,119.34 C149.6243,127.217 157.1143,142.628 155.8663,145.533 C154.6173,148.44 134.6433,142.946 136.3083,134.041 C137.9723,125.136 140.4693,116.465 137.5563,112.894 C134.6433,109.323 134.2273,133.49 132.5623,133.475 C130.8973,133.459 116.7493,119.34 116.7493,119.34" id="Fill-158" fill="#0E244C"></path>
                                <path d="M125.072,0.2965 C100.936,0.7135 125.072,30.6745 125.072,30.6745 C125.072,30.6745 86.465,13.4805 55.859,9.7415 C57.136,12.8605 61.179,16.9995 72.522,20.6875 C94.278,27.7615 113.609,29.8415 121.213,36.5005 C128.817,43.1585 174.592,43.1585 180.135,80.5745 C181.689,91.0695 155.033,87.7375 137.14,91.0405 C119.246,94.3425 102.49,90.8655 84.9,96.3945 C67.31,101.9225 39.995,112.1845 25.94,102.4305 C22.447,100.0075 19.227,97.5935 16.359,95.3335 C13.683,97.4185 11.826,99.7725 11.163,102.4305 C6.615,120.6575 98.608,124.3395 98.608,124.3395 C122.912,128.5385 197.063,125.1355 206.634,99.4655 C216.205,73.7955 149.208,-0.1195 125.072,0.2965" id="Fill-159" fill="#FF8F8F"></path>
                                <path d="M98.6082,66.0455 C81.5072,64.1725 55.1622,52.7295 45.1742,47.3195 C38.4632,43.6845 27.4232,39.3945 20.8972,36.9695 C30.7832,60.6335 76.0032,80.2125 76.0032,80.2125 C99.5492,83.1455 122.5752,67.2945 122.5752,67.2945 C122.5752,67.2945 115.7092,67.9185 98.6082,66.0455" id="Fill-160" fill="#FF8F8F"></path>
                            </g>
                        </g>
                    </g>
                </g>
            </g>
        </g>
    </g>
</svg>