<?xml version="1.0" encoding="UTF-8"?>
<svg width="448px" height="417px" viewBox="0 0 448 417" version="1.1" xmlns="http://www.w3.org/2000/svg" xmlns:xlink="http://www.w3.org/1999/xlink">
    <!-- Generator: Sketch 57.1 (83088) - https://sketch.com -->
    <title>Hero Illustration 2</title>
    <desc>Created with Sketch.</desc>
    <defs>
        <polygon id="path-1" points="1.37350403 1.03632771 130.951162 1.03632771 130.951162 76.1445783 1.37350403 76.1445783"></polygon>
        <polygon id="path-3" points="1.31356853 1.03632771 75.7672018 1.03632771 75.7672018 76.1445783 1.31356853 76.1445783"></polygon>
        <polygon id="path-5" points="0.633294162 0.0907710843 66.3806496 0.0907710843 66.3806496 238.052348 0.633294162 238.052348"></polygon>
        <polygon id="path-7" points="0.647678773 0.570682081 24.244048 0.570682081 24.244048 26.2940668 0.647678773 26.2940668"></polygon>
        <polygon id="path-9" points="0 0.229019066 129.089746 0.229019066 129.089746 119.629209 0 119.629209"></polygon>
        <polygon id="path-11" points="0.0598378753 0.318931606 27.6120136 0.318931606 27.6120136 27.8728324 0.0598378753 27.8728324"></polygon>
        <polygon id="path-13" points="0.974940167 0.318931606 28.5273199 0.318931606 28.5273199 27.8728324 0.974940167 27.8728324"></polygon>
    </defs>
    <g id="Home" stroke="none" stroke-width="1" fill="none" fill-rule="evenodd">
        <g transform="translate(-1443.000000, -709.000000)" id="Hero">
            <g>
                <g id="Mockup-+-Illustrations" transform="translate(42.000000, 614.000000)">
                    <g id="Hero-Illustration-2" transform="translate(1401.000000, 94.000000)">
                        <g id="Group-27" transform="translate(301.000000, 0.000000)">
                            <g id="Group-3" transform="translate(0.000000, 237.764651)">
                                <mask id="mask-2" fill="white">
                                    <use xlink:href="#path-1"></use>
                                </mask>
                                <g id="Clip-2"></g>
                                <path d="M130.893118,1.03632771 L66.1623328,1.03632771 L1.43154803,1.03632771 C1.43154803,1.03632771 -3.02503244,76.1453398 66.1623328,76.1453398 C135.349698,76.1453398 130.893118,1.03632771 130.893118,1.03632771" id="Fill-1" fill="#D8E7EB" mask="url(#mask-2)"></path>
                            </g>
                            <g id="Group-6" transform="translate(55.183960, 237.764651)">
                                <mask id="mask-4" fill="white">
                                    <use xlink:href="#path-3"></use>
                                </mask>
                                <g id="Clip-5"></g>
                                <path d="M75.7091578,1.03632771 L34.9339203,1.03632771 C34.7778829,6.11517108 34.2450722,10.6419663 32.9568122,12.4313639 C29.3527288,17.4416771 36.2355006,22.9297976 39.186891,37.0089301 C42.1363785,51.0880627 30.0073247,57.0539904 16.5671762,59.2012675 C3.12512473,61.3504482 10.0097994,64.2134843 6.40381309,71.6109301 C5.42953077,73.6097253 3.54376166,74.8527855 1.31356853,75.6123277 C4.36581237,75.9568819 7.5798023,76.1453398 10.9783731,76.1453398 C80.1657383,76.1453398 75.7091578,1.03632771 75.7091578,1.03632771" id="Fill-4" fill="#C1D6DB" mask="url(#mask-4)"></path>
                            </g>
                            <path d="M130.893118,238.800978 C130.893118,246.680039 101.912024,253.066665 66.1623328,253.066665 C30.4107385,253.066665 1.43154803,246.680039 1.43154803,238.800978 C1.43154803,230.921918 30.4107385,224.535292 66.1623328,224.535292 C101.912024,224.535292 130.893118,230.921918 130.893118,238.800978" id="Fill-7" fill="#163774"></path>
                            <g id="Group-11" transform="translate(37.259486, 0.812843)">
                                <mask id="mask-6" fill="white">
                                    <use xlink:href="#path-5"></use>
                                </mask>
                                <g id="Clip-10"></g>
                                <path d="M22.8139631,238.009455 C18.2584321,236.501793 14.8750845,232.652684 13.9693064,227.937431 C9.28818432,203.601624 -4.31180741,128.338419 2.51387754,108.50466 C10.6906181,84.7456482 19.820709,79.7067807 15.756125,56.5645398 C13.7333474,45.0438651 15.0596653,25.5394313 16.9035708,8.8542506 C17.9825123,-0.920809639 31.1353237,-3.23941205 35.4625073,5.58955181 C49.0834309,33.3842265 67.3702534,75.6140096 66.3388842,100.164925 C64.708103,139.048154 30.1572356,240.438467 22.8139631,238.009455" id="Fill-9" fill="#FAACAC" mask="url(#mask-6)"></path>
                            </g>
                            <path d="M65.9269447,18.9260843 C65.9269447,18.9260843 64.8099452,33.7876024 67.3027379,45.9364699 C69.7917247,58.087241 62.8518661,80.4680361 58.0851137,86.1255783 C53.3202642,91.7850241 46.7362469,139.782759 45.6573054,154.042735 C44.9703602,163.096325 45.9332252,187.397867 46.7286354,203.938373 C48.4716873,214.156976 50.1062743,222.919313 51.2270795,228.751988 C52.1347605,233.465337 55.5181081,237.314446 60.0736391,238.822108 C62.2695801,239.547386 66.8993241,230.986831 72.3530216,217.596807 C71.548097,213.587795 70.5585915,210.755217 70.5585915,210.755217 C70.5585915,210.755217 81.7685469,140.167289 88.6779592,119.863337 C95.5854687,99.5593855 89.1574888,86.7118916 85.5077359,71.7323494 C81.857983,56.7509036 65.9269447,18.9260843 65.9269447,18.9260843" id="Fill-12" fill="#FF8F8F"></path>
                            <path d="M51.1311736,240.851552 C54.0521177,239.279166 55.8332275,236.614106 55.7799465,233.882419 C55.5135412,219.776636 54.0787582,176.292371 46.5280702,166.540154 C37.4836095,154.853865 30.4733437,153.587961 29.9500475,140.23601 C29.6893509,133.590492 25.9768024,123.116805 22.3099235,114.270708 C20.1653606,109.090973 10.7688643,109.974251 9.05625866,115.521383 C3.66155087,132.988949 -2.87679691,159.131287 1.35904773,172.420419 C8.06294738,193.466781 46.4196052,243.387166 51.1311736,240.851552" id="Fill-14" fill="#FAACAC"></path>
                            <path d="M15.5337138,121.274106 C15.5337138,121.274106 18.4375318,129.236925 18.4660752,136.305046 C18.4927158,143.373166 26.4886812,154.5036 30.5837116,156.82601 C34.678742,159.146516 46.1037246,184.378925 48.8952718,192.020034 C50.6668672,196.86854 53.4907636,210.348034 55.317543,219.544395 C55.5858512,225.430371 55.7171509,230.5016 55.7799465,233.882419 C55.8332275,236.614106 54.0521177,239.279166 51.1311736,240.851552 C49.7230312,241.60919 45.3064115,237.674419 39.6243666,231.226877 C39.6034347,228.898757 39.8793545,227.1836 39.8793545,227.1836 C39.8793545,227.1836 22.0225863,190.325817 14.350113,180.328034 C6.67573681,170.332154 9.25986844,162.236082 9.62522431,153.426154 C9.98867729,144.61813 15.5337138,121.274106 15.5337138,121.274106" id="Fill-16" fill="#FF8F8F"></path>
                            <g id="Group-20" transform="translate(66.601331, 85.475494)" fill="#FAACAC">
                                <path d="M0.446228916,142.580533 C0.826807948,129.188605 24.966936,75.4362434 31.0428802,51.4259542 C35.0694064,35.5174482 55.0364853,14.7870867 68.0522883,2.60776145 C72.5659556,-1.61635904 79.9510917,1.47701446 80.1109349,7.65995422 C80.8644814,36.5092313 80.4915139,98.5366048 64.9562778,124.389593 C44.3745637,158.635617 -0.295900198,168.561063 0.446228916,142.580533" id="Fill-18"></path>
                            </g>
                            <path d="M135.542461,101.298337 C135.542461,101.298337 110.247276,136.479036 102.879266,152.971952 C95.5093529,169.462964 86.9729652,191.919904 81.8066048,197.775422 C77.9456305,202.148024 70.6442218,221.602964 67.1980786,231.164819 C68.7261034,242.892988 81.330881,245.377205 95.7567292,240.159398 C99.4616661,233.148386 103.549085,224.389855 111.312897,218.319229 C126.855745,206.160843 123.166031,198.75388 126.454234,167.645012 C129.738631,136.536145 135.542461,101.298337 135.542461,101.298337" id="Fill-21" fill="#FF8F8F"></path>
                            <path d="M40.0724984,241.22428 C36.066904,233.64028 41.3455352,199.29146 39.2561563,184.763075 C37.8727516,175.136496 49.9789706,160.046545 58.3060398,150.960593 C61.1965376,147.808207 69.1829886,148.266978 71.3503862,151.710617 C81.4699826,167.777123 101.349528,202.660858 95.1004207,219.860014 C86.8209238,242.644376 47.847728,255.937316 40.0724984,241.22428" id="Fill-23" fill="#FAACAC"></path>
                            <path d="M63.4573673,158.224595 C63.4573673,158.224595 51.0276561,182.347198 49.4444473,192.879896 C47.8593357,203.410692 47.1153037,217.495535 44.1448843,221.673969 C41.9242056,224.795896 41.3704632,236.980933 41.2296489,242.943053 C46.4987656,249.263053 59.2196198,248.478764 71.1507725,243.055366 C72.3667225,238.479077 73.3714511,232.857704 78.7242952,228.106282 C89.4471094,218.59392 83.5481344,215.074137 76.5055194,197.043101 C69.4648073,179.010161 63.4573673,158.224595 63.4573673,158.224595" id="Fill-25" fill="#FF8F8F"></path>
                        </g>
                        <g id="Group-191" transform="translate(0.000000, 87.000000)">
                            <path d="M312.551875,320.623142 C306.55595,317.456754 305.526153,310.973841 305.526153,310.973841 C305.526153,310.973841 305.148881,308.916171 304.482881,305.26087 C300.061488,306.39846 295.480332,307.357038 290.795234,308.152003 C291.457384,309.099032 292.123384,310.042211 292.797083,310.973841 C293.944297,314.661864 294.423586,317.129529 292.346667,320.193899 C293.035765,320.723234 293.657494,321.406558 294.146407,322.270818 C295.607372,324.848199 311.179453,324.838575 313.831904,323.983939 C315.381413,323.483477 313.983968,321.876223 312.551875,320.623142" id="Fill-1" fill="#F39B9B"></path>
                            <path d="M294.147369,322.271588 C295.608335,324.848969 311.180416,324.839345 313.832866,323.982784 C315.38045,323.484247 313.98493,321.875068 312.552838,320.623912 C317.361127,323.093501 323.299306,326.277212 323.50334,327.921039 C323.845965,330.658183 295.515942,330.57349 290.80967,327.921039 C288.345855,326.533218 290.068601,323.553542 292.345705,320.192744 C293.036728,320.724004 293.656531,321.407328 294.147369,322.271588" id="Fill-3" fill="#0E244C"></path>
                            <path d="M205.103939,320.623142 C211.097939,317.456754 212.129662,310.973841 212.129662,310.973841 C212.129662,310.973841 212.506934,308.916171 213.172934,305.26087 C217.594327,306.39846 222.175483,307.357038 226.858656,308.152003 C226.196506,309.099032 225.532431,310.042211 224.858731,310.973841 C223.711517,314.661864 223.232228,317.129529 225.309147,320.193899 C224.620049,320.723234 223.998321,321.406558 223.509408,322.270818 C222.046517,324.848199 206.476361,324.838575 203.82391,323.983939 C202.274402,323.483477 203.671847,321.876223 205.103939,320.623142" id="Fill-5" fill="#F39B9B"></path>
                            <path d="M223.508638,322.271588 C222.045747,324.848969 206.475591,324.839345 203.82314,323.982784 C202.275557,323.484247 203.671077,321.875068 205.103169,320.623912 C200.292955,323.093501 194.356701,326.277212 194.150742,327.921039 C193.808117,330.658183 222.140065,330.57349 226.846337,327.921039 C229.308227,326.533218 227.587406,323.553542 225.310302,320.192744 C224.619279,320.724004 223.999476,321.407328 223.508638,322.271588" id="Fill-7" fill="#0E244C"></path>
                            <path d="M225.215407,38.9288173 C225.215407,38.9288173 182.420095,68.4118289 167.791193,92.2165168 C162.16484,101.371129 156.286332,127.221939 164.239835,132.06295 C172.193338,136.902037 184.096644,108.781823 190.533361,100.872592 C196.571632,93.4541988 220.397494,76.9601121 220.397494,76.9601121 L225.215407,38.9288173 Z" id="Fill-9" fill="#C87171"></path>
                            <path d="M220.397686,76.9597272 L225.215599,38.9284324 C225.215599,38.9284324 198.304195,57.4705653 179.867929,77.015548 C180.493507,83.1500624 182.953472,94.5625306 192.529628,98.7048197 C200.608247,90.6627734 220.397686,76.9597272 220.397686,76.9597272" id="Fill-11" fill="#930C3A"></path>
                            <path d="M276.71838,134.930985 C275.900317,115.495719 269.06708,104.435499 262.435953,96.3684301 C254.68456,96.6051873 245.570369,96.5147191 236.446554,95.5946382 C225.678912,94.5109445 214.893947,92.2742624 206.297542,88.0549792 C203.543074,96.5974879 200.40556,107.032129 196.627068,120.157719 C182.746935,168.352251 209.038536,294.655494 212.112531,309.041864 C215.536849,309.374864 216.897721,315.805806 240.700484,315.805806 C241.064282,283.356592 230.623866,163.717199 235.603467,133.695228 C235.607317,133.675979 235.62849,133.662505 235.641964,133.647106 C235.641964,133.647106 238.238594,248.322297 284.088652,313.913673 C298.852294,313.913673 302.411351,306.283546 306.388103,305.259523 C301.29686,277.331794 277.114901,144.376251 276.71838,134.930985" id="Fill-13" fill="#D8E7EB"></path>
                            <path d="M201.421691,250.762436 C206.000922,279.914373 210.890055,303.32254 212.112338,309.041286 C215.536656,309.376211 216.897529,315.805228 240.700292,315.805228 C241.062165,283.384887 230.642922,163.924506 235.591725,133.775494 C234.66972,136.048749 220.962824,170.168737 216.597251,198.989598 C212.674396,224.880829 220.083165,245.087962 201.421691,250.762436" id="Fill-15" fill="#C1D6DB"></path>
                            <path d="M306.388295,305.259908 C301.295128,277.330254 277.115093,144.376636 276.718573,134.93137 C275.900509,115.496104 269.067272,104.435884 262.436145,96.368815 C254.77907,96.6017225 245.797694,96.5131792 236.787446,95.6258208 C243.414723,121.736486 254.409498,164.308514 263.132943,194.469075 C272.736047,227.661283 277.471191,273.132145 275.752295,300.653728 C278.35855,305.248358 281.132266,309.68515 284.088845,313.914058 C298.852486,313.914058 302.411544,306.283931 306.388295,305.259908" id="Fill-17" fill="#C1D6DB"></path>
                            <path d="M213.171779,58.0570688 C213.171779,58.0570688 198.800808,79.6712711 196.259998,95.2779994 C201.555276,90.6891439 208.727287,85.3303462 213.878201,81.5961266 L213.171779,58.0570688 Z" id="Fill-19" fill="#0E244C"></path>
                            <path d="M250.838121,12.4582046 C250.838121,12.4582046 258.229566,18.6716382 264.843369,21.8361006 C272.606312,25.5491468 278.663832,33.4314301 267.239814,44.7341815 C262.685606,49.2364185 246.060629,38.707459 247.794924,28.0572335 C249.529219,17.4089329 250.838121,12.4582046 250.838121,12.4582046" id="Fill-21" fill="#0E244C"></path>
                            <g id="Group-25" transform="translate(235.832370, 0.354173)">
                                <mask id="mask-8" fill="white">
                                    <use xlink:href="#path-7"></use>
                                </mask>
                                <g id="Clip-24"></g>
                                <path d="M0.89636763,10.7712613 C-1.2690948,19.2079029 11.3406335,25.6176717 14.1932694,26.2413249 C17.0478301,26.8630532 22.4932462,21.9450474 23.9869341,13.7624867 C25.4825468,5.57800116 20.2180671,0.527180347 14.2933618,2.27494913 C14.2933618,2.27494913 4.96358728,-5.08184855 0.89636763,10.7712613" id="Fill-23" fill="#0E244C" mask="url(#mask-8)"></path>
                            </g>
                            <path d="M233.168525,121.660839 C233.168525,121.660839 257.21382,127.473902 276.027357,127.264093 C274.59719,116.933394 271.321086,109.343688 267.525271,103.347764 L233.168525,121.660839 Z" id="Fill-26" fill="#311E69"></path>
                            <path d="M277.137614,138.654618 L240.709724,162.193676 C240.709724,162.193676 264.882059,167.435057 280.290527,158.5403 C278.814163,149.736011 277.705446,142.793057 277.137614,138.654618" id="Fill-28" fill="#0E244C"></path>
                            <path d="M278.827445,141.369049 C277.924687,133.583009 262.931988,81.0209798 264.150421,54.484922 C264.548866,45.7884249 264.797173,39.952263 253.760051,34.9052919 C244.917265,30.8650202 227.812999,32.6012399 220.021184,44.5661416 C208.597167,62.1092746 196.050959,107.52624 191.182999,153.620754 C190.220572,162.731095 282.361479,171.879934 278.827445,141.369049" id="Fill-30" fill="#BA104A"></path>
                            <path d="M249.965969,21.643615 L250.125774,34.7268578 C250.143055,36.882696 244.838154,42.4147306 241.438859,39.6872104 C240.445634,38.8883954 241.75261,35.9279676 242.69194,33.6932104 L245.257772,22.455904 L249.965969,21.643615 Z" id="Fill-32" fill="#F39B9B"></path>
                            <path d="M243.732709,29.129763 C246.541073,28.2693526 249.360987,24.0596936 249.360987,24.0596936 L244.891472,24.0596936 L243.732709,29.129763 Z" id="Fill-34" fill="#311E69"></path>
                            <path d="M249.964044,13.2618318 L250.749385,18.2837798 C251.371113,22.2663058 248.824529,26.2141844 244.857402,26.9186815 C241.194402,27.5692827 237.656518,25.4577162 237.115634,20.8303636 C236.63442,16.7150225 239.558275,13.165589 240.615021,11.3042538 C243.02494,7.06379711 248.639743,7.5527104 249.964044,13.2618318" id="Fill-36" fill="#F39B9B"></path>
                            <path d="M239.268392,16.541978 C239.204872,16.1011861 239.208721,15.6546197 239.237594,15.2080532 C239.297265,14.3611168 239.185623,13.0887873 237.886346,13.6200474 C235.998062,14.3957642 235.938392,18.926874 238.009536,19.4138624 C239.547496,19.7738104 239.43008,17.6564694 239.268392,16.541978" id="Fill-38" fill="#F39B9B"></path>
                            <path d="M245.103014,20.3268214 C245.103014,20.3268214 243.033794,20.4942838 240.279326,19.6896942 C240.279326,19.6896942 240.646973,21.8128098 241.653673,22.6308734 C242.660372,23.4470121 244.08284,22.4056653 245.103014,20.3268214" id="Fill-40" fill="#FFFFFF"></path>
                            <path d="M244.413146,25.2837092 C242.907909,25.3299058 240.23236,24.7332006 239.131342,23.8169694 C238.15544,23.0027555 237.287331,21.0394029 237.10062,20.6043855 C237.108319,20.6794549 237.106394,20.7545243 237.116018,20.8315185 C237.656903,25.4588711 241.194787,27.5685127 244.855862,26.9198364 C247.304279,26.4848191 249.204111,24.8159694 250.160764,22.6697555 C248.112718,24.5965358 245.768244,25.2432873 244.413146,25.2837092" id="Fill-42" fill="#C87171"></path>
                            <path d="M240.279711,8.85198786 C240.279711,8.85198786 242.02363,12.6208549 243.952335,14.2358087 C245.88104,15.8507624 248.483445,18.9016584 248.483445,18.9016584 C248.483445,18.9016584 250.321682,17.6447277 251.016555,16.029774 C251.713353,14.4148202 253.418775,7.41604566 248.483445,4.9926526 C243.548116,2.56925954 239.126723,6.69999942 240.279711,8.85198786" id="Fill-44" fill="#0E244C"></path>
                            <path d="M249.82122,18.088022 C249.984832,17.6722532 250.083,17.2372358 250.156145,16.7964439 C250.292809,15.9572069 250.689329,14.744548 251.834618,15.5587618 C253.495769,16.7444728 252.519867,21.1697156 250.394827,21.1716405 C248.81452,21.1716405 249.409301,19.1351434 249.82122,18.088022" id="Fill-46" fill="#F39B9B"></path>
                            <path d="M278.827445,141.369049 C277.924687,133.583009 262.931988,81.0209798 264.150421,54.484922 C264.548866,45.7884249 264.799098,39.952263 253.760051,34.9052919 C252.349132,34.2623902 250.726479,33.7657775 248.967161,33.4327775 C249.267439,36.4971474 249.346358,40.9127659 248.278063,45.8018988 C246.285838,54.9411127 248.278063,68.817396 240.709531,81.6561821 C234.623138,91.9811069 245.725705,138.397072 247.989335,161.624303 C265.669132,159.705223 280.274936,153.865211 278.827445,141.369049" id="Fill-48" fill="#930C3A"></path>
                            <path d="M278.321785,138.518338 C277.844421,136.198887 277.082178,132.924708 276.152473,128.963355 L246.546271,138.853263 C246.546271,138.853263 265.93534,141.394072 278.321785,138.518338" id="Fill-50" fill="#0E244C"></path>
                            <path d="M264.144839,61.0486792 L252.674625,48.1232746 C252.674625,48.1232746 251.506238,64.1919682 258.916932,78.6360838 C262.857111,86.3143324 266.189036,91.0668006 268.444966,93.8347428 C266.256406,82.3433555 264.495163,70.6517832 264.144839,61.0486792" id="Fill-52" fill="#0E244C"></path>
                            <path d="M124.963158,65.219841 C124.963158,65.219841 126.021829,60.8157717 130.056326,61.2623382 C134.088898,61.7089046 137.786546,65.4123266 136.620083,68.3438815 C135.453621,71.2735116 131.290158,74.5919624 128.427898,71.3120087 C125.563713,68.0320549 124.963158,65.219841 124.963158,65.219841" id="Fill-54" fill="#B5B5B5"></path>
                            <path d="M112.695862,76.5470382 C112.695862,76.5470382 104.291943,71.2594601 108.824977,65.1942405 C115.155827,56.7248763 121.301891,60.1761422 127.292041,63.7717723 C137.089555,69.6522058 137.018336,84.3792751 128.608642,85.0568243 C120.197024,85.7343734 112.695862,76.5470382 112.695862,76.5470382" id="Fill-56" fill="#D3D3D3"></path>
                            <path d="M116.406598,80.1890572 C119.388199,82.670196 123.851939,85.440063 128.608257,85.0570168 C137.019876,84.3794676 137.089171,69.6523983 127.291656,63.7719647 C125.488066,62.6882711 123.667153,61.6219012 121.834691,60.8866064 L121.832766,60.8866064 C121.832766,60.8866064 128.16554,64.7132191 127.874887,69.5619301 C127.688176,72.6570977 121.23991,77.2652017 116.406598,80.1890572" id="Fill-58" fill="#B5B5B5"></path>
                            <path d="M129.985876,163.174005 C128.661576,134.894028 128.565333,104.406242 106.808691,102.793213 C95.1171191,101.928953 92.9843792,151.203328 92.9843792,151.203328 C92.9843792,151.203328 86.6054081,153.674843 80.4882173,156.027016 C45.7330266,169.389363 43.8485931,182.695889 58.1136971,179.260022 C72.380726,175.82608 131.308252,191.452057 129.985876,163.174005" id="Fill-60" fill="#C87171"></path>
                            <path d="M9.79327977,311.829632 C9.35056301,311.829632 8.89822197,311.733389 8.47090405,311.527429 C6.95411792,310.795984 6.31699075,308.975071 7.04843584,307.458285 L41.2588925,236.481164 C41.9903376,234.966302 43.8112509,234.329175 45.328037,235.06062 C46.8428983,235.792065 47.4800254,237.612979 46.7485803,239.12784 L12.5400486,310.104961 C12.014563,311.194429 10.9270197,311.829632 9.79327977,311.829632" id="Fill-62" fill="#2550A0"></path>
                            <path d="M129.045969,194.964148 C129.045969,194.964148 128.639825,223.065113 101.40312,221.883252 C74.1644896,220.701391 56.9736052,215.818032 50.9988538,217.758287 C45.0260272,219.698541 43.2955821,276.169951 42.1637671,291.491801 C41.0338769,306.811726 35.6635301,297.008437 28.6763046,296.993038 C21.691004,296.979564 -5.36283988,218.928599 3.93806185,192.563853 C13.2389636,166.201032 47.9691312,160.722894 79.0670965,166.020096 C113.962802,171.96405 130.044969,189.863281 129.045969,194.964148" id="Fill-64" fill="#C87171"></path>
                            <g id="Group-68" transform="translate(0.000000, 163.966890)">
                                <mask id="mask-10" fill="white">
                                    <use xlink:href="#path-9"></use>
                                </mask>
                                <g id="Clip-67"></g>
                                <path d="M129.045969,30.9972578 C129.045969,30.9972578 128.639825,59.0982231 101.40312,57.9163618 C74.1644896,56.7345006 56.9736052,51.8511422 50.9988538,53.7913965 C45.0260272,55.7316509 53.0776977,95.7840439 51.9458827,111.103969 C50.8140676,126.423894 17.7970214,116.424269 10.809796,116.408871 C3.82257052,116.395397 -5.36283988,54.9617087 3.93806185,28.596963 C13.2389636,2.2341422 47.9691312,-3.24399653 79.0670965,2.05320578 C113.962802,7.99715954 130.044969,25.8963908 129.045969,30.9972578" id="Fill-66" fill="#153572" mask="url(#mask-10)"></path>
                            </g>
                            <path d="M8.92670983,309.937691 C8.92670983,309.937691 22.6759526,317.448477 50.0993688,311.829824 L52.6113052,303.579894 C52.6113052,303.579894 27.0107272,308.921368 13.8023688,300.996738 L8.92670983,309.937691 Z" id="Fill-69" fill="#0E244C"></path>
                            <path d="M23.6112399,290.783069 C23.6112399,290.783069 27.9460145,295.327653 25.4956734,298.520988 C24.4273786,299.912659 21.5920665,300.767295 17.6788353,302.003052 C15.763604,303.383173 13.8522225,305.204087 15.7193324,305.989428 C18.9222919,307.334902 38.2632399,309.067272 40.3613324,306.062572 C41.0639046,305.055873 41.910841,304.284006 42.8251474,303.708474 C40.5807659,299.712474 42.1745462,294.931133 42.164922,291.491416 L23.6112399,290.783069 Z" id="Fill-71" fill="#C87171"></path>
                            <path d="M40.3615249,306.062572 C38.3962474,308.878636 27.7017503,294.444145 19.3190046,300.505514 C17.8503399,301.56996 16.3181549,302.543936 14.6396809,303.238809 C9.17501618,305.502439 3.6429815,308.075971 3.2753341,309.758295 C2.54966358,313.084445 37.7533457,316.112243 43.889785,313.373173 C47.1004439,311.941081 45.2872301,308.08752 42.8253399,303.708474 C41.9110335,304.284006 41.0640971,305.055873 40.3615249,306.062572" id="Fill-73" fill="#0E244C"></path>
                            <path d="M59.6628208,303.714826 L59.7994855,303.123895 L56.2288786,302.411699 C55.9651734,302.350103 55.6976185,302.298132 55.4300636,302.251936 L55.3222717,302.230762 L55.3203468,302.232687 C54.3271214,302.072924 53.3011734,302.015179 52.254052,302.078699 C44.6604971,302.550288 38.8859306,309.089023 39.3555954,316.682577 C39.7347919,322.788219 44.0368439,327.713924 49.6554971,329.16719 L49.6554971,329.169115 L49.6862948,329.176814 C50.1771329,329.300005 50.6756705,329.402023 51.1838324,329.473242 L53.5417803,329.942907 L53.6226243,329.590658 C53.7361908,329.586809 53.8478324,329.586809 53.9575491,329.579109 C61.551104,329.10752 67.3256705,322.57071 66.8560058,314.977155 C66.5518786,310.057225 63.6992428,305.903387 59.6628208,303.714826" id="Fill-75" fill="#2550A0"></path>
                            <g id="Group-79" transform="translate(43.346821, 302.556486)">
                                <mask id="mask-12" fill="white">
                                    <use xlink:href="#path-11"></use>
                                </mask>
                                <g id="Clip-78"></g>
                                <path d="M27.5850665,13.2441231 C28.0566561,20.837678 22.2820896,27.3744873 14.6885347,27.8460769 C7.09305491,28.3176665 0.556245665,22.5431 0.0865809249,14.9476202 C-0.383083815,7.35406532 5.3895578,0.817256069 12.9831127,0.345666474 C20.5766676,-0.123998266 27.1154017,5.65056821 27.5850665,13.2441231" id="Fill-77" fill="#0E244C" mask="url(#mask-12)"></path>
                            </g>
                            <path d="M62.7154491,316.310118 C62.9060098,319.364864 60.5827092,321.996141 57.5260387,322.184777 C54.4712931,322.375338 51.8400156,320.050112 51.6494549,316.995366 C51.4608191,313.940621 53.7841197,311.309343 56.8388653,311.120708 C59.8955358,310.932072 62.5248884,313.255372 62.7154491,316.310118" id="Fill-80" fill="#EAE8FF"></path>
                            <path d="M57.1853393,318.283865 C56.4577439,318.283865 55.7455474,317.939316 55.3009058,317.296414 L45.9249347,303.70116 C44.5736861,301.741657 43.8499405,299.418356 43.8499405,297.03731 L43.8499405,239.682391 C43.8499405,238.431235 44.8142931,237.337917 46.067374,237.301345 C47.3608769,237.262847 48.4214723,238.300345 48.4214723,239.586148 L48.4214723,295.614842 C48.4214723,297.993963 49.1452179,300.319188 50.4964665,302.278691 L59.0235763,314.640113 C59.7069,315.631414 59.5625358,317.007686 58.6309058,317.766079 C58.1997382,318.118327 57.6896514,318.283865 57.1853393,318.283865" id="Fill-82" fill="#163774"></path>
                            <path d="M39.8878179,283.506731 L19.2090954,217.405268 C19.2090954,217.405268 13.1688988,264.793286 14.5239971,280.77921 C20.7220318,281.741638 31.4838988,284.057239 39.8878179,283.506731" id="Fill-84" fill="#0E244C"></path>
                            <path d="M120.754462,242.862829 L43.7486931,242.862829 C41.3099012,242.862829 39.3292249,240.884078 39.3292249,238.443361 C39.3292249,236.002645 41.3099012,234.023893 43.7486931,234.023893 L120.754462,234.023893 C121.430086,234.023893 122.024866,233.569627 122.205803,232.919026 L149.265421,135.42702 C150.42226,131.253934 154.256572,128.337777 158.589421,128.337777 L196.580294,128.337777 C199.019086,128.337777 200.997838,130.316529 200.997838,132.757246 C200.997838,135.197962 199.019086,137.176714 196.580294,137.176714 L158.589421,137.176714 C158.214075,137.176714 157.881075,137.42887 157.780982,137.790743 L130.723288,235.282749 C129.483682,239.746488 125.385664,242.862829 120.754462,242.862829" id="Fill-86" fill="#163774"></path>
                            <path d="M153.527629,140.072082 C153.527629,140.072082 164.264473,148.300839 192.609895,140.072082 L166.851479,237.19644 L127.994421,223.114197 L153.527629,140.072082 Z" id="Fill-88" fill="#0E244C"></path>
                            <path d="M121.724397,223.11439 C96.6550786,223.11439 76.257385,245.544731 76.257385,273.114436 C76.257385,300.684141 96.6550786,323.114482 121.724397,323.114482 C146.795639,323.114482 167.191408,300.684141 167.191408,273.114436 C167.191408,245.544731 146.795639,223.11439 121.724397,223.11439 M121.724397,330.428933 C92.6205815,330.428933 68.9410092,304.718638 68.9410092,273.114436 C68.9410092,241.512158 92.6205815,215.799939 121.724397,215.799939 C150.828212,215.799939 174.507784,241.512158 174.507784,273.114436 C174.507784,304.718638 150.828212,330.428933 121.724397,330.428933" id="Fill-90" fill="#0E244C"></path>
                            <path d="M121.724397,283.809318 C116.294379,283.809318 111.874911,279.010653 111.874911,273.114821 C111.874911,267.217064 116.294379,262.420324 121.724397,262.420324 C127.154414,262.420324 131.573882,267.217064 131.573882,273.114821 C131.573882,279.010653 127.154414,283.809318 121.724397,283.809318" id="Fill-92" fill="#0E244C"></path>
                            <path d="M170.217858,273.072282 L127.51109,272.034784 L128.229061,271.736432 L128.057749,271.742206 L166.704997,255.271218 C167.324801,255.007513 167.611604,254.291466 167.347899,253.671663 C167.084194,253.05186 166.368147,252.763131 165.750269,253.026836 L126.354251,269.815426 L156.959454,236.00149 C157.41372,235.502952 157.373298,234.73301 156.87476,234.280669 C156.376223,233.828328 155.604355,233.866825 155.153939,234.365362 L124.656529,268.059958 L139.193038,223.491854 C139.402847,222.852802 139.052523,222.163703 138.413471,221.955819 C137.772494,221.74601 137.083396,222.096334 136.875512,222.73731 L122.943408,265.446004 L122.943408,220.344715 C122.943408,219.671016 122.396749,219.126282 121.724974,219.126282 C121.051275,219.126282 120.504616,219.671016 120.504616,220.344715 L120.504616,265.446004 L106.574436,222.73731 C106.364627,222.096334 105.675529,221.74601 105.036477,221.955819 C104.397425,222.163703 104.047101,222.852802 104.254986,223.491854 L118.625957,267.551796 L117.582685,266.312189 L117.894512,267.066732 L88.2940838,234.365362 C87.8436676,233.866825 87.0737254,233.828328 86.573263,234.280669 C86.0747254,234.73301 86.0362283,235.502952 86.4885694,236.00149 L117.093772,269.815426 L77.701604,253.026836 C77.0818006,252.763131 76.3638295,253.05186 76.1001243,253.671663 C75.8364191,254.291466 76.1251474,255.007513 76.743026,255.271218 L115.392199,271.742206 L115.220887,271.736432 L115.940783,272.034784 L73.2301647,273.072282 C72.5583902,273.089605 72.0232803,273.647813 72.040195,274.321513 C72.0579277,274.983663 72.5988121,275.511073 73.2590376,275.511073 L73.2898353,275.511073 L115.220887,274.4909 L75.7882977,290.842547 C75.1665694,291.100478 74.8739913,291.812675 75.131922,292.436328 C75.3244075,292.904068 75.7786734,293.188946 76.2579624,293.188946 C76.4138757,293.188946 76.5717139,293.158149 76.7237775,293.094628 L117.178465,276.319513 L117.093772,276.411906 L117.488367,276.244443 L87.8128699,311.428877 C87.3797775,311.942813 87.4452225,312.712755 87.959159,313.145848 C88.1882168,313.338334 88.4673208,313.432651 88.7445,313.432651 C89.0928988,313.432651 89.4355231,313.286362 89.6761301,313.001484 L117.757847,279.707258 L101.548639,320.011808 C101.296483,320.635461 101.60061,321.345732 102.226188,321.595964 C102.849841,321.84812 103.560113,321.545917 103.810344,320.920339 L120.504616,279.412755 L120.504616,280.783253 L121.001228,279.264542 L121.728824,326.887391 C121.786569,327.518744 122.317829,327.990334 122.939558,327.990334 C122.978055,327.990334 123.018477,327.988409 123.055049,327.984559 C123.726824,327.921039 124.219587,327.326258 124.154142,326.656409 L122.822142,280.409831 L122.943408,280.783253 L122.943408,279.233744 L140.871512,322.43905 C141.063997,322.908715 141.518263,323.191669 141.997552,323.191669 C142.153465,323.191669 142.311303,323.160871 142.463367,323.099276 C143.085095,322.83942 143.381523,322.127224 143.123592,321.505495 L125.867263,279.917068 L153.771893,313.001484 C154.20691,313.51542 154.974928,313.57894 155.490789,313.145848 C156.002801,312.712755 156.068246,311.942813 155.635153,311.428877 L125.959656,276.244443 L126.354251,276.411906 L126.269558,276.319513 L166.726171,293.094628 C166.878234,293.158149 167.036072,293.188946 167.191986,293.188946 C167.66935,293.188946 168.123616,292.904068 168.318026,292.436328 C168.575957,291.812675 168.281454,291.100478 167.659725,290.842547 L128.229061,274.4909 L170.160113,275.511073 C170.826113,275.520698 171.390095,274.995212 171.40783,274.321513 C171.424743,273.647813 170.891558,273.089605 170.217858,273.072282" id="Fill-94" fill="#0E244C"></path>
                            <path d="M165.631313,237.13446 C165.631313,237.13446 149.329712,215.799361 106.659515,215.799361 C52.6114977,215.799361 38.6947925,230.124136 42.3500931,237.13446 C46.0092434,244.144783 80.3063185,240.949523 96.5309254,240.71854 C112.755532,240.487558 165.631313,237.13446 165.631313,237.13446" id="Fill-96" fill="#0E244C"></path>
                            <path d="M162.80601,242.862829 L85.800241,242.862829 C83.3614491,242.862829 81.3807728,240.884078 81.3807728,238.443361 C81.3807728,236.002645 83.3614491,234.023893 85.800241,234.023893 L162.80601,234.023893 C163.481634,234.023893 164.078339,233.569627 164.259276,232.919026 L191.316969,135.42702 C192.475732,131.253934 196.310045,128.337777 200.640969,128.337777 L238.631842,128.337777 C241.070634,128.337777 243.049386,130.316529 243.049386,132.757246 C243.049386,135.197962 241.070634,137.176714 238.631842,137.176714 L200.640969,137.176714 C200.265623,137.176714 199.932623,137.42887 199.83253,137.790743 L172.774836,235.282749 C171.537154,239.746488 167.437212,242.862829 162.80601,242.862829" id="Fill-98" fill="#163774"></path>
                            <path d="M98.0733121,303.714826 L98.2119017,303.123895 L94.6412948,302.411699 C94.3775896,302.350103 94.1100347,302.298132 93.8424798,302.251936 L93.732763,302.230762 L93.732763,302.232687 C92.7395376,302.072924 91.7116647,302.015179 90.6645434,302.078699 C83.0709884,302.550288 77.2983468,309.089023 77.7680116,316.682577 C78.1452832,322.788219 82.4492601,327.713924 88.0679133,329.16719 L88.0659884,329.169115 L88.098711,329.176814 C88.5876243,329.300005 89.0880867,329.402023 89.5962486,329.473242 L91.9522717,329.942907 L92.0350405,329.590658 C92.1466821,329.586809 92.2583237,329.586809 92.3699653,329.579109 C99.9635202,329.10752 105.738087,322.57071 105.266497,314.977155 C104.96237,310.057225 102.109734,305.903387 98.0733121,303.714826" id="Fill-100" fill="#0E244C"></path>
                            <g id="Group-104" transform="translate(80.843931, 302.556486)">
                                <mask id="mask-14" fill="white">
                                    <use xlink:href="#path-13"></use>
                                </mask>
                                <g id="Clip-103"></g>
                                <path d="M28.5003728,13.2441231 C28.9719624,20.837678 23.197396,27.3744873 15.603841,27.8460769 C8.00836127,28.3176665 1.47155202,22.5431 1.00188728,14.9476202 C0.530297688,7.35406532 6.30486416,0.817256069 13.8984191,0.345666474 C21.491974,-0.123998266 28.0307081,5.65056821 28.5003728,13.2441231" id="Fill-102" fill="#2550A0" mask="url(#mask-14)"></path>
                            </g>
                            <path d="M101.128058,316.310118 C101.316694,319.364864 98.9933931,321.996141 95.9386474,322.184777 C92.8819769,322.375338 90.2526243,320.050112 90.0620636,316.995366 C89.8715029,313.940621 92.1948035,311.309343 95.251474,311.120708 C98.3062197,310.932072 100.937497,313.255372 101.128058,316.310118" id="Fill-105" fill="#EAE8FF"></path>
                            <path d="M95.5958306,318.283865 C94.8701601,318.283865 94.1560387,317.939316 93.7113971,317.296414 L84.3373509,303.70116 C82.9861023,301.741657 82.2623566,299.418356 82.2623566,297.03731 L82.2623566,239.682391 C82.2623566,238.431235 83.2267092,237.337917 84.4797902,237.301345 C85.7713682,237.262847 86.8338884,238.300345 86.8338884,239.586148 L86.8338884,295.614842 C86.8338884,297.993963 87.5576341,300.319188 88.9088827,302.278691 L97.4340676,314.640113 C98.1193162,315.631414 97.974952,317.007686 97.043322,317.766079 C96.6121543,318.118327 96.1020676,318.283865 95.5958306,318.283865" id="Fill-107" fill="#163774"></path>
                            <path d="M144.989932,197.155018 C144.989932,197.155018 144.583788,225.255984 117.347083,224.074123 C90.1084526,222.892261 72.9175682,218.008903 66.9428168,219.949157 C60.9699902,221.889412 59.2395451,278.360822 58.1077301,293.680747 C56.9778399,309.002597 51.6074931,299.199308 44.6202676,299.183909 C37.6349671,299.170435 10.5811231,221.119469 19.8820249,194.754724 C29.1829266,168.391903 63.9130942,162.913764 95.0110595,168.210966 C129.906765,174.15492 145.988932,192.054151 144.989932,197.155018" id="Fill-109" fill="#F39B9B"></path>
                            <path d="M140.046202,195.768239 C140.046202,195.768239 139.640058,223.869204 112.403352,222.687343 C85.1647224,221.505482 67.973838,216.622123 61.9990865,218.562377 C56.0262599,220.502632 64.0779305,260.5531 62.9461154,275.87495 C61.8143004,291.194875 28.7972542,281.193325 21.8100287,281.179851 C14.8228033,281.166377 5.63739289,219.73269 14.9382946,193.367944 C24.2391964,167.005123 58.969364,161.526984 90.0673293,166.824187 C124.963035,172.76814 141.045202,190.667372 140.046202,195.768239" id="Fill-111" fill="#163774"></path>
                            <path d="M145.989932,198.155018 C146.592412,195.077175 140.96606,187.34118 128.750927,180.382828 C125.753927,188.906088 120.356632,198.807545 111.142349,200.680429 C94.4057301,204.079724 73.3247127,196.037677 60.4512792,203.13462 C47.573996,210.229637 39.9573428,206.170117 43.0563601,228.30403 C46.1553775,250.439868 45.2179728,261.792666 48.0513601,280.713995 C48.345863,282.685047 48.1514526,284.592579 47.6298168,286.421192 C57.9393428,287.454839 68.2661925,286.711845 68.8898457,278.261729 C70.0216607,262.93988 61.9699902,222.889412 67.9428168,220.949157 C73.9175682,219.008903 91.1084526,223.892261 118.347083,225.074123 C145.583788,226.255984 145.989932,198.155018 145.989932,198.155018" id="Fill-113" fill="#0E244C"></path>
                            <path d="M143.728575,204.941059 L109.556615,187.842568 C109.556615,187.842568 118.399401,214.136094 129.60976,222.183914 C138.300482,218.636406 142.084748,210.888862 143.728575,204.941059" id="Fill-115" fill="#0E244C"></path>
                            <path d="M39.5552029,292.97394 C39.5552029,292.97394 43.8899775,297.518524 41.4396364,300.711859 C40.3713416,302.103529 37.5360295,302.958165 33.6227983,304.193923 C31.7075671,305.574044 29.7961855,307.394957 31.6632954,308.180298 C34.8662549,309.525772 54.2072029,311.258142 56.3052954,308.253443 C57.0078676,307.244818 57.854804,306.474876 58.7691104,305.89742 C56.5247289,301.903345 58.1185092,297.122003 58.108885,293.682287 L39.5552029,292.97394 Z" id="Fill-117" fill="#F39B9B"></path>
                            <path d="M56.3054879,308.253443 C54.3402104,311.069506 43.6457133,296.63309 35.2629676,302.696385 C33.7943029,303.76083 32.2621179,304.734807 30.5836439,305.42968 C25.1189792,307.69331 19.5869445,310.266842 19.2192971,311.949165 C18.4936266,315.275316 53.6973087,318.303113 59.833748,315.564044 C63.0444069,314.130027 61.2311931,310.278391 58.7693029,305.89742 C57.8549965,306.474876 57.0080601,307.244818 56.3054879,308.253443" id="Fill-119" fill="#163774"></path>
                            <path d="M95.4379925,154.484052 C102.509912,135.26822 82.4663913,106.010416 116.84431,93.6874913 C174.025992,73.1916301 168.363068,171.397757 150.15201,218.077428 C147.297449,225.393803 130.734068,217.661659 120.668998,202.769052 C107.86486,183.81885 96.1424896,173.503549 93.8711601,169.087931 C91.9097324,165.282491 93.553559,159.604168 95.4379925,154.484052" id="Fill-121" fill="#D8E7EB"></path>
                            <path d="M125.846667,76.3695665 L130.699228,91.0658382 C131.488418,93.4892312 127.480869,101.621746 122.67643,99.7584855 C121.269361,99.2137514 121.687054,95.410237 121.94691,92.5537514 L120.828569,78.9661965 L125.846667,76.3695665 Z" id="Fill-123" fill="#F39B9B"></path>
                            <path d="M126.451842,84.4025659 C125.664576,80.7010688 122.738795,82.776063 121.252807,84.1253867 L121.932281,92.3964908 C123.429818,91.4302133 127.319951,88.4813347 126.451842,84.4025659" id="Fill-125" fill="#0E244C"></path>
                            <path d="M122.867183,71.1014295 L125.887282,76.3004642 C128.281802,80.4215798 127.16731,85.8650711 123.096241,88.344285 C119.336998,90.6310133 114.534484,89.822574 111.951328,84.9526896 C109.658825,80.6236896 111.356547,75.4573775 111.724195,72.9531405 C112.561507,67.2459439 118.959727,65.3769092 122.867183,71.1014295" id="Fill-127" fill="#F39B9B"></path>
                            <path d="M125.699993,76.8892775 C125.848207,76.3811156 125.919427,75.8594798 125.959849,75.3320694 C126.032993,74.3292197 126.375617,72.8586301 127.80771,73.6997919 C129.890403,74.9220751 129.20323,80.238526 126.697068,80.4618092 C124.835733,80.6273468 125.326571,78.1673815 125.699993,76.8892775" id="Fill-129" fill="#F39B9B"></path>
                            <path d="M134.99897,91.1819069 C135.228028,98.4559358 135.474409,111.013693 134.787236,118.720814 C133.770912,130.073612 126.346745,125.344242 124.962773,143.002866 C123.963773,155.762734 122.316097,184.283317 120.922502,203.129577 C131.008745,217.783502 147.31997,225.332786 150.151432,218.078005 C166.148906,177.072809 172.456658,96.323196 134.99897,91.1819069" id="Fill-131" fill="#C1D6DB"></path>
                            <path d="M117.812513,81.6552197 C117.812513,81.6552197 115.695172,82.2384509 112.567282,81.8611792 C112.567282,81.8611792 112.786715,83.3837399 113.77994,83.9534971 C114.982975,84.6445202 117.05412,84.221052 117.812513,81.6552197" id="Fill-133" fill="#FFFFFF"></path>
                            <path d="M121.904755,86.732411 C120.264779,87.4292087 117.059894,87.9200468 115.45264,87.3791624 C114.028247,86.9017983 112.230432,85.1116827 111.839686,84.7093879 C111.878183,84.7902318 111.910906,84.8730006 111.951328,84.9519197 C114.534484,89.821804 119.336998,90.6321682 123.096241,88.343515 C125.606253,86.8151798 126.988299,84.1627289 127.121114,81.3851624 C125.689021,84.387937 123.38112,86.1068329 121.904755,86.732411" id="Fill-135" fill="#C87171"></path>
                            <path d="M140.446503,115.584647 C140.446503,115.584647 136.837399,127.07796 140.868047,144.107156 C142.767879,152.139578 154.586492,157.983439 154.586492,157.983439 L158.210995,147.575746 L140.446503,115.584647 Z" id="Fill-137" fill="#0E244C"></path>
                            <path d="M50.0985988,311.829632 C49.6558821,311.829632 49.203541,311.733389 48.7762231,311.527429 C47.259437,310.795984 46.6242347,308.975071 47.3556798,307.458285 L81.5642116,236.481164 C82.2956566,234.966302 84.1165699,234.329175 85.6333561,235.06062 C87.1501422,235.792065 87.7853445,237.612979 87.0538994,239.12784 L52.8472925,310.104961 C52.3198821,311.194429 51.2323387,311.829632 50.0985988,311.829632" id="Fill-139" fill="#163774"></path>
                            <path d="M115.261694,269.928415 C114.64959,269.928415 114.04711,269.641612 113.667914,269.102652 C91.6186942,237.8276 115.436856,184.588022 116.460879,182.337866 L116.564821,182.139606 L118.481977,178.952045 C119.036336,178.031964 120.231671,177.733612 121.155602,178.28797 C122.075683,178.842328 122.374035,180.037664 121.819677,180.959669 L119.962191,184.047138 C118.824602,186.61682 96.5116769,238.008536 116.851625,266.860195 C117.471428,267.737929 117.259694,268.952513 116.38196,269.572317 C116.041261,269.812924 115.650515,269.928415 115.261694,269.928415" id="Fill-141" fill="#2550A0"></path>
                            <path d="M184.919327,185.600303 L112.567859,185.600303 L112.567859,184.326049 C112.567859,179.544708 116.444518,175.666124 121.225859,175.666124 L184.919327,175.666124 L184.919327,185.600303 Z" id="Fill-143" fill="#163774"></path>
                            <path d="M165.631313,223.11439 C140.561995,223.11439 120.164301,245.544731 120.164301,273.114436 C120.164301,300.684141 140.561995,323.114482 165.631313,323.114482 C190.702555,323.114482 211.098324,300.684141 211.098324,273.114436 C211.098324,245.544731 190.702555,223.11439 165.631313,223.11439 M165.631313,330.428933 C136.527498,330.428933 112.84985,304.718638 112.84985,273.114436 C112.84985,241.512158 136.527498,215.799939 165.631313,215.799939 C194.735128,215.799939 218.4147,241.512158 218.4147,273.114436 C218.4147,304.718638 194.735128,330.428933 165.631313,330.428933" id="Fill-145" fill="#0E244C"></path>
                            <path d="M165.631313,283.809318 C160.201295,283.809318 155.781827,279.010653 155.781827,273.114821 C155.781827,267.217064 160.201295,262.420324 165.631313,262.420324 C171.06133,262.420324 175.480798,267.217064 175.480798,273.114821 C175.480798,279.010653 171.06133,283.809318 165.631313,283.809318" id="Fill-147" fill="#0E244C"></path>
                            <path d="M214.124967,273.072282 L171.418198,272.034784 L172.136169,271.736432 L171.964857,271.742206 L210.612106,255.271218 C211.231909,255.007513 211.518713,254.291466 211.256932,253.671663 C210.991302,253.05186 210.275256,252.763131 209.657377,253.026836 L170.26136,269.815426 L200.866562,236.00149 C201.320828,235.502952 201.280406,234.73301 200.781869,234.280669 C200.283331,233.828328 199.511464,233.866825 199.061048,234.365362 L168.563638,268.059958 L183.100146,223.491854 C183.309955,222.852802 182.961557,222.163703 182.32058,221.955819 C181.679603,221.74601 180.990505,222.096334 180.78262,222.73731 L166.850516,265.446004 L166.850516,220.344715 C166.850516,219.671016 166.303857,219.126282 165.632083,219.126282 C164.958383,219.126282 164.413649,219.671016 164.413649,220.344715 L164.413649,265.446004 L150.481545,222.73731 C150.271736,222.096334 149.584562,221.74601 148.943586,221.955819 C148.304534,222.163703 147.95421,222.852802 148.162094,223.491854 L162.53499,267.551796 L161.489794,266.312189 L161.80162,267.066732 L132.203117,234.365362 C131.750776,233.866825 130.980834,233.828328 130.480372,234.280669 C129.981834,234.73301 129.943337,235.502952 130.395678,236.00149 L161.00088,269.815426 L121.608713,253.026836 C120.988909,252.763131 120.270938,253.05186 120.007233,253.671663 C119.743528,254.291466 120.032256,255.007513 120.650135,255.271218 L159.299308,271.742206 L159.127996,271.736432 L159.847892,272.034784 L117.137273,273.072282 C116.465499,273.089605 115.930389,273.647813 115.947304,274.321513 C115.965036,274.983663 116.505921,275.511073 117.166146,275.511073 L117.196944,275.511073 L159.127996,274.4909 L119.695406,290.842547 C119.073678,291.100478 118.7811,291.812675 119.039031,292.436328 C119.231516,292.904068 119.685782,293.188946 120.165071,293.188946 C120.320984,293.188946 120.478823,293.158149 120.630886,293.094628 L161.085574,276.319513 L161.00088,276.411906 L161.395476,276.244443 L131.719979,311.428877 C131.286886,311.942813 131.352331,312.712755 131.866268,313.145848 C132.095325,313.338334 132.374429,313.432651 132.651609,313.432651 C133.000008,313.432651 133.342632,313.286362 133.583239,313.001484 L161.66688,279.707258 L145.455747,320.011808 C145.203591,320.635461 145.507718,321.345732 146.133297,321.595964 C146.75695,321.84812 147.467221,321.545917 147.717453,320.920339 L164.413649,279.412755 L164.413649,280.783253 L164.908337,279.264542 L165.634008,326.887391 C165.695603,327.518744 166.224938,327.990334 166.846666,327.990334 C166.885164,327.990334 166.925586,327.988409 166.964083,327.984559 C167.633932,327.921039 168.126695,327.326258 168.06125,326.656409 L166.72925,280.409831 L166.850516,280.783253 L166.850516,279.233744 L184.77862,322.43905 C184.971106,322.908715 185.427297,323.191669 185.904661,323.191669 C186.060574,323.191669 186.218412,323.160871 186.370476,323.099276 C186.992204,322.83942 187.288632,322.127224 187.030701,321.505495 L169.774372,279.917068 L197.679002,313.001484 C198.114019,313.51542 198.882036,313.57894 199.397898,313.145848 C199.909909,312.712755 199.975354,311.942813 199.542262,311.428877 L169.866765,276.244443 L170.26136,276.411906 L170.176666,276.319513 L210.633279,293.094628 C210.785343,293.158149 210.943181,293.188946 211.099094,293.188946 C211.578383,293.188946 212.030724,292.904068 212.225135,292.436328 C212.483065,291.812675 212.188562,291.100478 211.566834,290.842547 L172.136169,274.4909 L214.067221,275.511073 C214.733221,275.520698 215.299129,274.995212 215.31494,274.321513 C215.331851,273.647813 214.800591,273.089605 214.124967,273.072282" id="Fill-149" fill="#0E244C"></path>
                            <path d="M172.157728,227.304223 C149.48678,227.304223 131.042814,247.85398 131.042814,273.113858 C131.042814,298.373737 149.48678,318.925419 172.157728,318.925419 C194.826751,318.925419 213.270716,298.373737 213.270716,273.113858 C213.270716,247.85398 194.826751,227.304223 172.157728,227.304223 M172.157728,321.972465 C147.806381,321.972465 127.995768,300.054136 127.995768,273.113858 C127.995768,246.173581 147.806381,224.257176 172.157728,224.257176 C196.50715,224.257176 216.319687,246.173581 216.319687,273.113858 C216.319687,300.054136 196.50715,321.972465 172.157728,321.972465" id="Fill-151" fill="#2550A0"></path>
                            <path d="M183.616777,163.174005 C182.292477,134.894028 165.034223,111.368444 148.237934,97.4459642 C147.004101,96.4200162 140.484616,97.8270855 139.291205,109.653398 C138.097795,121.47971 152.538061,154.592999 152.538061,154.592999 C152.538061,154.592999 142.036049,156.198328 136.837014,157.195403 C100.26476,164.196103 97.4794942,182.695889 111.744598,179.260022 C126.011627,175.82608 184.939153,191.452057 183.616777,163.174005" id="Fill-153" fill="#F39B9B"></path>
                            <path d="M183.616777,163.174005 C182.432991,137.894877 168.514361,116.419265 153.579408,102.202282 C152.089569,107.586103 150.942355,116.546305 155.781442,125.342895 C163.417344,139.219178 170.806864,140.795635 172.158113,153.411138 C173.507436,166.024716 178.361922,174.540276 162.216234,172.016791 C146.070546,169.493305 148.105118,168.020791 136.837014,169.703114 C131.43587,170.511554 126.038575,174.630745 121.832766,178.828854 C143.627905,179.756635 184.723569,186.843953 183.616777,163.174005" id="Fill-155" fill="#C87171"></path>
                            <path d="M171.941566,125.298238 C169.881971,121.769978 167.62989,118.418805 165.244994,115.265891 C162.197948,115.650862 159.497376,116.441978 159.000763,116.828874 C157.582145,117.931816 145.034012,131.965938 145.034012,131.965938 C145.034012,131.965938 164.053509,133.392255 171.941566,125.298238" id="Fill-157" fill="#0E244C"></path>
                            <path d="M109.370674,169.73064 C104.702899,169.058865 98.7801191,181.043016 97.4404197,185.142958 C96.0987954,189.2429 101.382524,196.576599 104.140842,196.732513 C106.901084,196.890351 107.372674,196.49768 106.980003,195.077137 C106.585408,193.658518 105.561385,191.529628 105.561385,191.529628 C105.561385,191.529628 109.659402,184.677143 110.369674,181.836056 C111.079946,178.993045 112.577483,170.192605 109.370674,169.73064" id="Fill-159" fill="#F39B9B"></path>
                            <path d="M167.791193,118.77933 C161.924234,110.306116 155.042875,103.087908 148.238511,97.4461566 C147.002754,96.4202087 140.483268,97.827278 139.289858,109.65359 C138.745124,115.054735 138.7278,124.896521 141.842216,133.997238 C147.016228,132.50355 164.418846,127.556671 167.791193,118.77933" id="Fill-161" fill="#D8E7EB"></path>
                            <path d="M167.791193,118.77933 C161.924234,110.306116 155.042875,103.087908 148.238511,97.4461566 C147.543638,96.8687 145.179916,97.0611855 143.031777,99.4422318 C144.660205,100.812729 147.530164,103.713486 148.742823,107.998214 C150.486742,114.148128 150.013228,116.827527 149.857314,119.351012 C149.726424,121.416382 151.92076,127.495076 152.935158,130.237995 C159.194788,127.649064 165.83939,123.857099 167.791193,118.77933" id="Fill-163" fill="#C1D6DB"></path>
                            <path d="M109.737166,73.3646746 C108.859432,73.3646746 108.147236,74.2000618 108.147236,75.2260098 L108.147236,77.5127382 C108.147236,78.540611 108.859432,79.3759983 109.737166,79.3759983 L111.944976,79.3759983 C112.728392,79.3759983 113.386692,78.7196225 113.515658,77.8168653 L113.839034,75.5282121 C113.914103,74.9873277 113.785138,74.4387439 113.48101,74.0210503 C113.178808,73.6033566 112.736091,73.3646746 112.268351,73.3646746 L109.737166,73.3646746 Z M111.944976,80.5617092 L109.737166,80.5617092 C108.301224,80.5617092 107.130912,79.1950618 107.130912,77.5127382 L107.130912,75.2260098 C107.130912,73.5436861 108.301224,72.1770387 109.737166,72.1770387 L112.268351,72.1770387 C113.036369,72.1770387 113.760114,72.5697092 114.254802,73.2530329 C114.74949,73.9382815 114.963149,74.837189 114.838034,75.7226225 L114.514658,78.0093509 C114.308698,79.4895647 113.226929,80.5617092 111.944976,80.5617092 L111.944976,80.5617092 Z" id="Fill-165" fill="#0E244C"></path>
                            <path d="M118.109518,73.3646746 C117.643703,73.3646746 117.199061,73.6033566 116.896859,74.0210503 C116.594657,74.4387439 116.465691,74.9873277 116.540761,75.5282121 L116.864136,77.8168653 C116.991177,78.7196225 117.651402,79.3759983 118.432894,79.3759983 L120.640703,79.3759983 C121.518437,79.3759983 122.234483,78.540611 122.234483,77.5127382 L122.234483,75.2260098 C122.234483,74.2000618 121.518437,73.3646746 120.640703,73.3646746 L118.109518,73.3646746 Z M120.640703,80.5617092 L118.432894,80.5617092 C117.152865,80.5617092 116.071096,79.4895647 115.861287,78.0093509 L115.539836,75.7226225 C115.416645,74.837189 115.628379,73.9382815 116.124992,73.2530329 C116.61968,72.5697092 117.343425,72.1770387 118.109518,72.1770387 L120.640703,72.1770387 C122.07857,72.1770387 123.246957,73.5436861 123.246957,75.2260098 L123.246957,77.5127382 C123.246957,79.1950618 122.07857,80.5617092 120.640703,80.5617092 L120.640703,80.5617092 Z" id="Fill-167" fill="#0E244C"></path>
                            <path d="M115.733669,76.4465607 C115.581605,76.2636994 115.369871,76.0365665 115.133114,76.0654393 C114.888657,76.0846879 114.692322,76.3791908 114.692322,76.3811156 L113.866559,75.6900925 C113.912755,75.6130983 114.334299,74.9470983 115.050345,74.8816532 C115.539258,74.8393064 116.016623,75.0856879 116.461264,75.6188728 L115.733669,76.4465607 Z" id="Fill-169" fill="#0E244C"></path>
                            <path d="M258.797013,40.8995463 C269.799487,40.8246075 296.495308,73.1275324 302.685643,102.674064 C309.988545,137.538972 229.837562,148.872521 229.608505,133.775879 C229.379447,118.679238 272.09969,118.144128 275.743441,103.819353 C278.940626,91.2500468 261.031771,71.1661046 255.293776,56.8740526 C250.647175,45.3056711 254.048395,40.9323994 258.797013,40.8995463" id="Fill-171" fill="#F39B9B"></path>
                            <path d="M302.685258,102.674642 C299.411079,87.0428902 290.395056,70.6431214 281.001761,58.6724451 C280.936316,69.0839884 281.327062,84.2460751 283.987212,88.6655434 C288.158374,95.596948 299.844172,103.144306 294.002235,110.691665 C288.158374,118.239023 282.770703,119.699988 271.589218,122.864451 C260.405808,126.028913 250.960542,134.090208 243.844351,134.798555 C238.356588,135.343289 233.517501,133.077734 232.093108,137.626168 C245.567097,146.25722 309.229767,133.913121 302.685258,102.674642" id="Fill-173" fill="#C87171"></path>
                            <path d="M272.853655,88.6168445 C274.135609,91.407885 275.12306,94.1103821 275.66202,96.6608156 C280.953447,94.071885 294.346592,87.092359 292.745112,83.4986538 C291.193679,80.018515 278.412638,85.8700757 272.853655,88.6168445" id="Fill-175" fill="#0E244C"></path>
                            <path d="M295.147332,81.3516699 C284.545228,59.4564387 267.213829,37.7921902 258.859956,37.8479033 C254.115187,37.8807335 249.308823,44.1018665 253.953499,55.670248 C256.971673,63.1848838 263.252476,74.0391439 267.358193,83.1186873 C268.948124,86.6315486 270.409089,90.0577913 271.589025,93.2434272 C276.401164,91.9460746 289.149482,87.6113 295.147332,81.3516699" id="Fill-177" fill="#BA104A"></path>
                            <path d="M234.92611,128.828423 C234.92611,128.828423 231.311232,124.081729 227.051527,125.298238 C222.789897,126.516672 219.140371,126.33766 219.504168,128.337585 C219.794821,129.92944 225.338405,129.194146 225.215214,131.384631 C225.093949,133.575117 221.330856,137.176521 217.921937,137.176521 C214.514943,137.176521 215.486995,138.044631 216.460972,138.853071 C217.434949,139.66151 225.346105,141.091677 231.800145,140.071504 C238.252261,139.053255 238.173342,129.436677 234.92611,128.828423" id="Fill-179" fill="#F39B9B"></path>
                            <path d="M258.860918,37.8486733 C257.975485,37.8545555 257.086202,38.0778387 256.256589,38.5090064 C257.582814,40.5955497 259.806023,43.3654168 263.326583,45.8022838 C270.021231,50.4373358 274.891115,49.3401682 274.404127,57.0107173 C273.917138,64.6774168 275.649508,72.4961798 278.925612,77.7029139 C280.638734,80.4265844 282.55204,84.9596191 283.987982,88.6649659 C288.182242,86.7073879 292.382277,84.2377983 295.148294,81.3524399 C284.54619,59.4552838 267.214791,37.7929601 258.860918,37.8486733" id="Fill-181" fill="#930C3A"></path>
                            <path d="M270.289748,89.922474 C273.714066,89.1871792 283.623222,86.3499422 292.918349,76.9835954 C292.596898,76.3830405 292.273523,75.7863353 291.942447,75.1915549 C282.58765,84.7965838 272.326245,87.5010058 269.52943,88.084237 C269.79121,88.7040405 270.043366,89.3161445 270.289748,89.922474" id="Fill-183" fill="#FFFFFF"></path>
                            <path d="M183.199469,73.585648 C184.298561,78.5613994 187.153122,89.3155671 191.984509,93.3423647 C193.329983,94.4607058 194.407902,95.3730873 195.289486,96.1295555 C195.76685,95.7060873 196.261538,95.2749197 196.77355,94.8360526 C195.843845,94.0372376 194.685082,93.0574861 193.231816,91.846752 C188.475498,87.8834746 185.663284,75.8954746 184.847145,71.9533705 C184.292787,72.4961798 183.744203,73.038989 183.199469,73.585648" id="Fill-185" fill="#D3D3D3"></path>
                            <polygon id="Fill-187" fill="#FFFFFF" points="238.593538 63.1173214 252.614185 64.3838763 252.063676 71.3345295 237.648434 70.1853908"></polygon>
                            <path d="M243.95272,37.0867306 C243.95272,37.0867306 242.770859,33.3486613 243.032639,32.1975977 C243.29442,31.048459 237.737362,36.1935977 237.100235,38.6285399 C236.465032,41.0634821 236.607472,42.1991468 237.063662,41.5504705 C237.519853,40.8998694 241.373414,40.2415688 242.69194,40.318563 C244.010466,40.3955572 243.119258,40.4263549 243.119258,40.4263549 C243.119258,40.4263549 247.188402,41.3060139 247.669616,43.3367364 C247.669616,43.3367364 251.043888,36.5188983 251.01694,34.3284127 C250.991917,32.1360023 250.08146,31.034985 250.08146,31.034985 C250.08146,31.034985 246.083535,36.4380543 243.95272,37.0867306" id="Fill-189" fill="#0E244C"></path>
                        </g>
                    </g>
                </g>
            </g>
        </g>
    </g>
</svg>