<?xml version="1.0" encoding="UTF-8"?>
<svg width="602px" height="501px" viewBox="0 0 602 501" version="1.1" xmlns="http://www.w3.org/2000/svg" xmlns:xlink="http://www.w3.org/1999/xlink">
    <!-- Generator: Sketch 57.1 (83088) - https://sketch.com -->
    <title>Hero Illustration</title>
    <desc>Created with Sketch.</desc>
    <g id="Home" stroke="none" stroke-width="1" fill="none" fill-rule="evenodd">
        <g transform="translate(-42.000000, -614.000000)" id="Hero">
            <g>
                <g id="Mockup-+-Illustrations" transform="translate(42.000000, 614.000000)">
                    <g id="Hero-Illustration">
                        <g id="Group-6" transform="translate(0.409266, 0.010168)">
                            <path d="M110.542652,157.29294 C110.542652,157.29294 -5.53256495,152.64652 0.206235503,129.647421 C5.94419177,106.650009 82.02002,101.613575 82.02002,101.613575 C82.02002,101.613575 -4.13711965,64.3122159 12.1413871,25.9809459 C28.4190497,-12.350324 143.934569,39.1064048 143.934569,39.1064048 C143.934569,39.1064048 113.480431,1.30106491 143.934569,0.77597902 C174.388706,0.250893129 258.925002,93.5161087 246.848027,125.906817 C234.771895,158.296681 141.209525,162.589385 110.542652,157.29294" id="Fill-4" fill="#FAACAC"></path>
                            <path d="M133.43302,150.983805 C133.43302,150.983805 136.233197,172.342644 149.797634,181.860037 C163.362071,191.376585 167.562759,200.436428 169.138016,235.811346 C170.713274,271.187108 160.211556,345.723135 170.188188,351.248355 C180.163976,356.772732 190.665693,353.013556 190.665693,349.117621 C190.665693,345.221686 178.063632,309.544548 177.53939,298.241694 C177.014305,286.939685 182.264319,255.434532 179.63889,243.3584 C177.014305,231.281425 174.913961,202.903994 184.889749,194.515282 C194.866381,186.125727 208.51777,153.226816 198.541138,141.3229 C188.56535,129.418139 194.508444,147.063388 194.162327,154.255883 C193.816209,161.447534 185.93992,169.924041 181.214147,150.983805 C176.488374,132.043568 170.713274,141.045161 172.812773,150.983805 C174.913961,160.922448 184.364663,180.36751 182.789405,184.033825 C181.214147,187.700984 156.010869,180.769344 158.111212,169.533181 C160.211556,158.297019 163.362071,147.356322 159.68647,142.850883 C156.010869,138.344599 155.486627,168.837569 153.385439,168.818153 C151.285096,168.798736 133.43302,150.983805 133.43302,150.983805" id="Fill-6" fill="#0E244C"></path>
                            <g id="Group-10" fill="#FF8F8F">
                                <path d="M143.934316,0.776147858 C113.480178,1.30123375 143.934316,39.1065736 143.934316,39.1065736 C143.934316,39.1065736 95.2203585,17.4117468 56.6029083,12.6944157 C58.2144661,16.6291831 63.3150592,21.8504954 77.6274486,26.5045123 C105.079648,35.4309724 129.470816,38.0564019 139.06503,46.4569319 C148.660089,54.8583062 206.417848,54.8583062 213.411114,102.07045 C215.373011,115.312407 181.739655,111.108343 159.161806,115.275263 C136.583113,119.442182 115.44123,115.054929 93.2466434,122.031312 C71.0512121,129.00685 36.585486,141.954185 18.8507523,129.64759 C14.4440829,126.589935 10.3809987,123.544099 6.76111398,120.692427 C3.38520003,123.322922 1.04257407,126.29278 0.205982246,129.64759 C-5.53281821,152.645845 110.542399,157.293108 110.542399,157.293108 C141.209272,162.589554 234.771642,158.29685 246.847773,125.906986 C258.924749,93.5154333 174.388453,0.251061967 143.934316,0.776147858" id="Fill-8"></path>
                            </g>
                            <path d="M110.542652,83.7371859 C88.9651673,81.3742994 55.7226718,66.9352816 43.1214547,60.1091651 C34.6533894,55.5226833 20.7225737,50.10974 12.488349,47.049553 C24.9620936,76.9085368 82.02002,101.613744 82.02002,101.613744 C111.730426,105.313826 140.784053,85.3124436 140.784053,85.3124436 C140.784053,85.3124436 132.12098,86.1000724 110.542652,83.7371859" id="Fill-11" fill="#FF8F8F"></path>
                            <path d="M110.427673,240.476928 C109.607121,240.940388 108.926704,241.610675 108.364474,242.448955 C109.535365,245.170622 111.246537,248.544847 113.725077,252.374091 C120.319886,262.563459 125.363074,266.86376 125.751402,278.679881 C126.138885,290.495158 129.524929,298.541128 136.754568,309.356885 C143.984207,320.171797 147.378693,330.416037 147.378693,330.416037 C147.378693,330.416037 136.229482,338.265311 140.571149,348.273178 C141.855161,351.232907 143.093587,354.087111 144.204541,356.643317 C148.133399,355.359305 152.374607,351.329144 155.737858,343.061152 C162.075189,327.478257 122.84148,233.468467 110.427673,240.476928" id="Fill-25" fill="#FF8F8F"></path>
                            <path d="M147.379115,330.416121 C147.379115,330.416121 143.984629,320.171881 136.75499,309.356969 C129.525351,298.541213 126.139307,290.495242 125.750979,278.679966 C125.363496,266.863845 120.320308,262.563543 113.7255,252.374176 C111.246959,248.544932 109.535787,245.170706 108.364896,242.449039 C100.421917,254.299772 116.82874,300.759743 116.82874,300.759743 L134.950113,339.637204 C134.950113,339.637204 128.272574,328.900801 124.30826,323.847483 C120.34479,318.794164 111.591388,306.400617 106.5482,298.374063 C103.43905,293.425424 96.7935901,291.267676 92.152236,290.339067 C91.8432627,290.427707 91.5376661,290.509594 91.2244717,290.614273 C75.7074239,295.774804 134.808289,354.122652 135.335907,354.640984 C137.497877,356.768342 140.72859,357.779681 144.204119,356.643402 C143.094009,354.087196 141.854739,351.232991 140.570727,348.273262 C136.22906,338.265396 147.379115,330.416121 147.379115,330.416121" id="Fill-27" fill="#FAACAC"></path>
                            <path d="M106.548453,298.373979 C111.591642,306.400533 120.344199,318.79408 124.308513,323.847398 C128.272827,328.900717 134.950366,339.637119 134.950366,339.637119 L116.828994,300.759659 C116.828994,300.759659 107.141074,286.075826 92.1516451,290.338983 C96.7929992,291.267591 103.439303,293.42534 106.548453,298.373979" id="Fill-29" fill="#FF8F8F"></path>
                            <path d="M156.812765,381.721234 C156.812765,381.721234 193.096875,361.815244 202.277436,349.097529 C211.457153,336.381502 180.73794,348.7894 197.645368,333.833738 C214.551952,318.878076 231.270281,302.603791 228.806936,296.133078 C226.343591,289.662365 194.613884,322.351916 194.613884,322.351916 C194.613884,322.351916 226.460934,266.697877 212.622979,261.665663 C198.78418,256.633449 177.221047,303.104395 175.280255,302.651065 C174.112741,302.379236 190.793082,266.074865 180.526049,266.920743 C170.704748,267.730321 126.23031,370.833721 156.812765,381.721234" id="Fill-31" fill="#FAACAC"></path>
                            <path d="M228.807105,296.133247 C226.34376,289.662534 194.614052,322.352085 194.614052,322.352085 C194.614052,322.352085 225.516454,268.346748 213.209859,261.925843 C211.729995,263.789813 210.212142,266.243872 209.757968,268.856639 C208.792216,274.408873 210.704305,274.95422 207.914258,281.822546 C205.125056,288.690872 198.091269,298.599968 194.388654,307.894495 C190.686038,317.187334 190.206539,330.992365 184.212793,338.369737 C178.219047,345.747954 169.201415,351.034269 164.116861,357.205294 C161.222135,360.717967 155.328004,368.435548 150.175071,376.495869 C151.806045,378.921226 153.988275,380.715129 156.812933,381.721403 C156.812933,381.721403 193.097044,361.815413 202.277605,349.097698 C211.457322,336.381671 180.738109,348.789569 197.644693,333.833907 C214.552121,318.877401 231.27045,302.603959 228.807105,296.133247" id="Fill-33" fill="#FF8F8F"></path>
                        </g>
                        <path d="M29.8142053,431.015521 L151.673071,431.015521 C155.970138,431.015521 159.44621,427.190647 158.768924,422.901324 C158.36056,420.315939 156.453914,417.884412 151.233404,416.965579 C138.184262,414.673531 126.990543,425.281086 119.395262,421.267844 C111.799981,417.253164 116.622088,410.273488 106.125575,412.151415 C95.6276396,414.029341 99.3171418,422.126284 90.8055328,423.273746 C82.2939238,424.421208 71.5142598,397.757809 48.2503334,400.051296 C36.2071608,401.23902 27.8876392,409.495571 22.6671287,417.184144 C18.6845153,423.046554 22.7781126,431.015521 29.8142053,431.015521" id="Fill-17" fill="#FAACAC"></path>
                        <path d="M119.198963,427.3647 C114.625051,432.295679 94.913637,426.289535 92.366106,427.122056 C89.8171551,427.957366 56.6893124,427.399563 39.9855183,422.952478 C31.0577997,420.574843 26.9851582,417.085785 25.124921,414.35255 C24.2388233,415.431899 23.4180468,416.523798 22.6640118,417.601753 C18.6893523,423.28716 22.774774,431.015521 29.7968144,431.015521 L151.412307,431.015521 C154.140182,431.015521 156.53435,429.509453 157.742794,427.345177 C157.03278,427.465105 156.288685,427.576665 155.503409,427.679859 C144.178682,429.142697 123.772874,422.433721 119.198963,427.3647" id="Fill-19" fill="#FF8F8F"></path>
                        <g id="Group-15" transform="translate(470.758315, 337.028825)">
                            <g id="Group-17">
                                <path d="M122.078341,27.4605651 C116.092193,28.466839 113.825544,30.6819923 112.968692,32.3003037 C114.67902,25.366975 118.998737,1.8174638 98.980471,1.00957441 C75.4976508,0.0607053772 75.8826012,17.0120312 75.8826012,17.0120312 C75.8826012,17.0120312 68.5685431,7.99102186 61.6394354,12.0870295 C54.7094835,16.1830371 53.5546322,26.2846091 53.5546322,26.2846091 C53.5546322,26.2846091 42.7768644,8.10583164 22.758598,12.0870295 C7.64844954,15.0915 2.44570944,22.9407743 0.369003186,32.0706841 C-0.483628243,35.8180415 3.05605847,39.2749976 7.69910091,39.2749976 L123.093057,39.2749976 C129.935213,39.2749976 133.318725,32.1762078 128.045072,28.5968442 C126.528908,27.5677772 124.580519,27.0401587 122.078341,27.4605651" id="Fill-21" fill="#FAACAC"></path>
                                <path d="M130.575446,32.3715533 C127.705202,33.3432154 123.647183,34.2870193 120.290685,34.0742836 C114.746048,33.7239449 111.54657,34.0742836 109.840463,29.6954725 C108.134356,25.3183497 110.693938,10.9569974 101.096348,8.15428812 C91.4987569,5.35242305 86.8059072,21.1142858 82.328326,22.5156405 C77.8490563,23.9161509 75.9302135,20.2388613 68.2514655,17.6117435 C60.5735617,14.9846256 58.227559,29.5207252 56.307872,30.2214025 C54.3890291,30.9220798 43.7243828,24.2664896 32.6342649,20.1232073 C21.5441469,15.9799251 16.2114017,32.147843 8.32076208,31.7975044 C4.43242509,31.6244455 2.82508822,29.0294069 2.19194607,26.4402776 C1.3984079,28.2358687 0.811696178,30.1234765 0.369340862,32.0710218 C-0.483290567,35.8183791 3.05555196,39.2753353 7.6985944,39.2753353 L123.093394,39.2753353 C127.935666,39.2753353 131.041439,35.719609 130.575446,32.3715533" id="Fill-23" fill="#FF8F8F"></path>
                            </g>
                        </g>
                        <path d="M413.112745,262.588742 L386.774031,301.535426 C383.030051,307.071621 377.635679,310.990349 371.425821,312.684638 L337.975655,321.810326 C337.975655,321.810326 336.683201,331.92625 344.177071,339.374534 C350.677331,345.834272 384.62979,338.675545 399.267192,323.855798 C413.904594,309.036895 429.726395,282.022829 429.726395,282.022829 L413.112745,262.588742 Z" id="Fill-35" fill="#BA104A"></path>
                        <path d="M326.131507,324.246742 C328.032622,325.669201 334.494893,325.613485 334.241636,326.147012 C333.963053,326.733724 332.931454,326.798727 331.11307,326.773401 C329.29553,326.74892 328.468224,328.942124 330.5348,328.588409 C332.60222,328.233849 334.271183,329.26376 336.688097,329.621697 C338.036268,329.821769 342.752755,329.065376 343.209461,326.008565 C343.401937,324.722021 342.68522,323.209233 342.204876,322.609858 C340.188951,320.093329 332.608973,320.704523 329.369818,321.36299 C327.433247,321.756383 325.110038,323.48275 326.131507,324.246742" id="Fill-37" fill="#F39B9B"></path>
                        <path d="M271.352808,279.360425 C271.352808,279.360425 272.523699,273.991379 265.842783,271.788044 C259.161023,269.585554 256.421628,279.012618 252.332374,280.576057 C248.24312,282.141185 240.528916,281.263228 239.713429,288.31812 C238.898786,295.373012 243.233699,299.781369 248.932822,301.430916 C254.631946,303.080462 270.359197,292.731543 271.352808,279.360425" id="Fill-39" fill="#254888"></path>
                        <path d="M271.205581,276.765217 C268.515994,279.672606 265.226187,283.043455 262.909731,284.786706 C258.328314,288.236909 251.390765,293.017554 245.81236,290.795647 C242.868671,289.622224 241.299323,287.508373 240.466108,285.767654 C240.098885,286.481839 239.829589,287.311677 239.713935,288.318795 C238.898448,295.372843 243.233361,299.782045 248.933329,301.430747 C254.632452,303.080293 270.358859,292.731374 271.35247,279.360256 C271.35247,279.360256 271.593909,278.213002 271.205581,276.765217" id="Fill-41" fill="#0E244C"></path>
                        <path d="M278.792988,295.961412 C278.792988,295.961412 282.08786,291.774232 280.690726,285.502748 C279.293592,279.232108 273.887403,277.011045 268.989415,277.932056 C264.090583,278.851378 255.525436,294.374335 262.185247,298.309103 C268.845059,302.24387 278.792988,295.961412 278.792988,295.961412" id="Fill-43" fill="#254888"></path>
                        <path d="M276.326773,310.453613 L307.419962,333.418101 C307.419962,333.418101 346.973618,337.200915 348.849407,340.220581 C350.724352,343.241091 343.077683,355.285987 321.073039,353.731834 C303.727477,352.505227 282.019143,344.050668 272.743188,335.910149 C263.466389,327.769629 276.326773,310.453613 276.326773,310.453613" id="Fill-45" fill="#BA104A"></path>
                        <path d="M321.073377,353.731496 C329.993928,354.362106 336.554124,352.756457 341.078136,350.423962 C335.264203,350.12934 329.33546,349.448079 324.745601,347.037073 C317.687333,343.331926 316.828792,345.050695 307.965646,341.722056 C299.1025,338.393417 289.903367,335.115429 284.828099,331.388332 C282.018636,329.324289 275.471946,325.636869 270.183943,322.753961 C268.861098,327.449344 268.845059,332.489155 272.743526,335.910655 C282.019481,344.050331 303.72697,352.505733 321.073377,353.731496" id="Fill-47" fill="#930C3A"></path>
                        <path d="M272.743104,335.910402 C275.094172,337.972757 278.246375,340.056217 281.921132,342.03753 C285.567187,330.706818 279.352264,320.99104 279.352264,320.99104 L270.813287,333.595634 C271.307982,334.42294 271.936903,335.202971 272.743104,335.910402" id="Fill-49" fill="#0E244C"></path>
                        <path d="M262.417906,372.708455 C267.777665,358.504966 256.641117,361.330468 260.588547,350.665822 C262.344462,345.924009 274.839311,342.433286 278.931098,333.614038 C283.303155,324.189506 283.816422,315.236032 275.099321,309.585871 C261.318771,300.652657 241.855137,295.357056 226.684207,304.992636 C214.042469,313.022567 188.094615,367.195897 195.618032,380.647213 C202.902544,388.191735 250.145079,403.641248 262.417906,372.708455" id="Fill-51" fill="#BA104A"></path>
                        <path d="M264.428175,294.57559 L256.204924,305.078152 C254.858442,306.812962 255.734711,314.578661 260.175148,314.470605 C261.4752,314.43937 262.246789,311.232294 262.868957,308.839861 L267.742463,298.146512 L264.428175,294.57559 Z" id="Fill-53" fill="#F39B9B"></path>
                        <path d="M275.099237,309.585533 C273.041103,308.251714 270.855496,307.001469 268.577873,305.867723 C269.740322,309.759436 270.687502,315.429857 268.858144,320.87488 C265.632495,330.477536 246.999544,335.821256 244.390998,349.40933 C242.397867,359.787797 244.225537,374.937622 253.273561,384.635671 C257.062283,382.047386 260.239813,378.197882 262.417822,372.708117 C267.777581,358.504628 256.641033,361.330975 260.589307,350.665484 C262.344377,345.924516 274.839226,342.432948 278.931013,333.614544 C283.303071,324.190012 283.816338,315.235694 275.099237,309.585533" id="Fill-55" fill="#930C3A"></path>
                        <path d="M264.847821,304.497265 C263.105414,302.062623 263.424518,296.907157 263.424518,296.907157 L267.046935,299.672722 L264.847821,304.497265 Z" id="Fill-57" fill="#0E244C"></path>
                        <path d="M269.616141,287.785014 L265.872161,291.368599 C262.904835,294.210141 262.524949,298.984877 265.304865,302.010452 C267.871202,304.803031 272.043186,305.281686 275.343967,301.866095 C278.279214,298.829546 278.108688,294.145138 278.402466,291.984013 C279.073597,287.055634 274.222039,283.979408 269.616141,287.785014" id="Fill-59" fill="#F39B9B"></path>
                        <path d="M266.745981,291.784193 C266.870921,291.345214 267.060864,290.932406 267.274444,290.530572 C267.682188,289.765736 268.110192,288.535752 266.67929,288.490165 C264.598363,288.421786 262.651662,292.610655 264.374653,293.92759 C265.654444,294.905162 266.430254,292.887549 266.745981,291.784193" id="Fill-61" fill="#F39B9B"></path>
                        <path d="M276.291739,296.672895 C276.617596,296.353791 276.890269,295.989945 277.141838,295.61006 C277.619649,294.888278 278.495918,293.925058 279.219388,295.160951 C280.271248,296.958231 277.516658,300.665911 275.537033,299.779512 C274.068144,299.1202 275.472031,297.475719 276.291739,296.672895" id="Fill-63" fill="#F39B9B"></path>
                        <path d="M270.516385,297.978771 C270.516385,297.978771 271.629027,297.805713 273.029537,298.681981 C273.666056,299.080439 273.976718,299.534613 274.072111,300.374581 C274.072111,300.374581 273.17305,300.664983 271.812216,299.827547 C270.88614,299.259407 270.540867,298.713216 270.516385,297.978771" id="Fill-65" fill="#FFFFFF"></path>
                        <path d="M266.675914,300.960618 C267.867909,301.928903 270.404699,303.101482 271.864303,303.039012 C273.158445,302.983296 275.076444,301.930591 275.49685,301.691686 C275.44451,301.749091 275.398924,301.809872 275.344052,301.865589 C272.042426,305.28118 267.871286,304.803368 265.304106,302.009945 C263.592089,300.145131 263.082199,297.616783 263.635143,295.285131 C264.104512,298.115699 265.603793,300.089414 266.675914,300.960618" id="Fill-67" fill="#C87171"></path>
                        <path d="M281.689571,288.04055 C282.709352,291.569262 276.539171,292.637162 272.236337,292.185521 C267.932659,291.733035 265.796015,290.367981 265.796015,290.367981 C265.796015,290.367981 266.91541,285.000624 270.448343,284.478914 C273.980432,283.957205 280.781223,284.897632 281.689571,288.04055" id="Fill-69" fill="#254888"></path>
                        <path d="M222.871678,384.401831 C222.871678,384.401831 271.136527,359.175759 294.466549,363.259104 C317.796571,367.341604 272.594442,418.523128 246.49379,420.206441 C227.84902,421.409412 222.253732,396.401141 222.871678,384.401831" id="Fill-71" fill="#8F1A3B"></path>
                        <path d="M194.729354,376.527906 C202.16582,353.19704 242.702113,359.17559 266.032979,363.258935 C289.363001,367.341436 243.34032,410.71505 217.239668,412.398364 C198.594898,413.601334 191.080767,387.97596 194.729354,376.527906" id="Fill-73" fill="#930C3A"></path>
                        <path d="M280.905995,367.344053 C280.905995,367.344053 288.778062,362.965242 297.600687,366.560645 C306.423312,370.156892 306.678257,416.178729 298.208503,443.147208 C289.73875,470.115686 283.96787,466.631716 276.531404,466.098189 C269.094939,465.564661 257.867218,378.942373 280.905995,367.344053" id="Fill-75" fill="#BA104A"></path>
                        <path d="M255.302486,366.493278 C255.302486,366.493278 264.149592,364.79899 271.402869,370.976769 C278.656145,377.154548 263.658274,414.767413 247.170408,437.72768 C230.681698,460.687947 227.121751,461.747404 220.226411,458.911772 C213.33107,456.076139 229.790234,370.294664 255.302486,366.493278" id="Fill-77" fill="#BA104A"></path>
                        <path d="M298.208588,443.147208 C306.678341,416.178729 306.423396,370.156892 297.600771,366.560645 C291.780084,364.188472 286.374739,365.287607 283.369424,366.309076 C284.401868,369.560894 286.599293,376.762675 287.90441,383.062862 C289.654415,391.506445 292.279845,407.920023 290.238594,418.328035 C288.1965,428.736048 280.906079,448.484174 282.801284,456.758075 C283.445401,459.567538 283.651383,463.022806 283.642941,466.361576 C288.1602,465.521607 292.590506,461.03474 298.208588,443.147208" id="Fill-79" fill="#930C3A"></path>
                        <path d="M247.170492,437.727595 C263.658358,414.767328 278.656229,377.154464 271.402953,370.976685 C269.882568,369.681698 268.292959,368.736206 266.727831,368.044814 C267.266424,371.058571 267.322141,375.351275 265.168613,380.154713 C261.052345,389.335274 255.875775,402.80263 252.744676,410.622358 C249.613577,418.441241 235.159364,436.437674 233.362084,442.588439 C232.446138,445.721226 229.513424,453.161068 226.855071,459.710291 C231.129203,458.394199 236.382594,452.749948 247.170492,437.727595" id="Fill-81" fill="#930C3A"></path>
                        <path d="M429.726141,282.022407 L424.568988,275.989829 C417.971646,282.886857 409.846322,291.55584 406.431575,295.889909 C400.246199,303.741716 386.874236,323.141191 376.787016,325.217897 C369.619002,326.692697 352.288635,324.40241 338.33165,328.143858 C338.986741,331.547631 340.552713,335.771955 344.177662,339.374956 C350.677078,345.834694 384.629536,338.675123 399.266939,323.85622 C413.904341,309.036472 429.726141,282.022407 429.726141,282.022407" id="Fill-83" fill="#930C3A"></path>
                        <path d="M195.028197,455.027656 C191.463185,452.400538 189.357776,455.575535 189.357776,455.575535 C189.357776,455.575535 185.995369,462.010792 179.026585,463.347988 C178.26006,463.494877 168.013288,464.323871 167.27631,464.539983 C158.297511,467.180608 188.53638,475.948361 192.830772,474.888903 C195.787124,474.159523 195.008781,469.432062 197.434137,464.799994 C198.66581,462.448926 197.164841,456.602069 195.028197,455.027656" id="Fill-85" fill="#0E244C"></path>
                        <path d="M281.632251,454.321154 C285.903006,453.148574 286.727779,456.869762 286.727779,456.869762 C286.727779,456.869762 287.55424,464.082517 293.576688,467.834095 C294.240221,468.24606 303.505202,472.700004 304.115551,473.165997 C311.546107,478.855834 280.176868,476.178065 276.549386,473.64634 C274.052273,471.903933 276.476785,467.77247 275.876567,462.577327 C275.571814,459.940079 279.071824,455.023519 281.632251,454.321154" id="Fill-87" fill="#0E244C"></path>
                        <path d="M223.476794,454.321154 C227.747548,453.148574 228.572322,456.869762 228.572322,456.869762 C228.572322,456.869762 229.398783,464.082517 235.421231,467.834095 C236.084764,468.24606 245.350589,472.700004 245.960093,473.165997 C253.391494,478.855834 222.021411,476.178065 218.393928,473.64634 C215.896816,471.903933 218.321328,467.77247 217.721109,462.577327 C217.416357,459.940079 220.917211,455.023519 223.476794,454.321154" id="Fill-89" fill="#0E244C"></path>
                        <path d="M184.668388,455.268419 C184.668388,455.268419 192.833389,468.306926 200.999234,467.036421 C209.16508,465.76676 249.701373,428.765932 249.701373,428.765932 L319.069271,439.228818 L309.193942,412.981277 C309.193942,412.981277 284.586661,392.078299 246.493452,394.900425 C222.871341,396.65043 184.668388,455.268419 184.668388,455.268419" id="Fill-91" fill="#11316D"></path>
                        <path d="M272.428221,379.763769 C280.430294,389.32506 316.33874,379.59071 323.48396,362.384439 C330.628336,345.177324 312.693529,344.594833 303.069769,349.260669 C293.446008,353.927348 265.331964,371.285574 272.428221,379.763769" id="Fill-93" fill="#311E69"></path>
                        <path d="M307.995868,412.528031 C323.197189,388.428108 306.125988,365.90682 309.912178,351.907625 C317.326695,324.483284 376.670686,335.422292 380.574219,367.62559 C381.250415,373.208215 376.180212,405.597235 362.251929,426.576189 C356.665083,429.213437 328.017511,428.656272 307.995868,412.528031" id="Fill-95" fill="#614CD4"></path>
                        <path d="M347.105565,339.418263 C347.105565,339.418263 353.730764,339.966986 355.526356,345.761503 C364.340538,374.194651 329.353103,425.981458 329.353103,425.981458 L317.249958,421.329129 C317.249958,421.329129 326.094532,398.311457 328.623723,375.178976 C331.708392,346.963629 333.896531,335.455637 347.105565,339.418263" id="Fill-97" fill="#1D8EBF"></path>
                        <path d="M403.999719,464.903238 C402.908182,467.184238 403.682303,469.921101 405.806284,471.294597 C407.674476,472.501788 409.627086,473.756254 410.024699,473.984185 C410.828368,474.44258 418.220935,478.657618 418.104437,477.151584 C417.987095,475.646394 415.847075,474.277119 415.177632,473.423643 C414.507346,472.570168 417.840206,474.600443 420.230951,475.19222 C422.62254,475.783153 424.516057,475.821141 425.112899,474.77097 C425.708897,473.722486 420.349137,466.605969 416.543531,464.729335 C414.719237,463.830273 412.185825,462.949784 410.040739,462.27612 C407.652527,461.525636 405.079437,462.645031 403.999719,464.903238" id="Fill-99" fill="#FF6161"></path>
                        <path d="M232.167218,483.221476 L219.488336,478.107376 C219.488336,478.107376 216.449253,481.560111 209.168963,481.347375 C208.367827,481.323738 197.915916,479.870887 197.129132,479.924071 C187.544204,480.569876 215.8904,496.091145 220.430451,495.986466 C224.617631,495.890228 223.683113,487.105592 232.167218,483.221476" id="Fill-101" fill="#0E244C"></path>
                        <path d="M344.411841,328.640833 L350.338895,341.237829 C350.578645,343.138944 340.959105,349.614722 337.672676,347.55912 C336.710299,346.957213 336.742379,345.105905 337.339221,343.032576 L341.003003,331.69511 L344.411841,328.640833 Z" id="Fill-103" fill="#F39B9B"></path>
                        <path d="M340.266786,333.973831 C342.320699,333.357573 345.119187,332.477927 345.119187,332.477927 C345.119187,332.477927 345.327702,335.838646 342.698051,338.694539 C341.305983,340.205638 339.57455,341.054893 337.874352,341.376529 L340.266786,333.973831 Z" id="Fill-105" fill="#311E69"></path>
                        <path d="M341.448904,322.977925 L345.292499,330.640633 C346.357866,333.265219 345.148143,336.265468 342.553948,337.400903 C340.480619,338.308407 339.080953,338.520298 336.266425,338.599652 C333.921266,338.664655 332.409323,336.631002 331.957681,333.613025 C331.372658,329.695985 331.946707,325.922458 332.366269,323.920885 C333.324424,319.357196 338.577816,318.166889 341.448904,322.977925" id="Fill-107" fill="#F39B9B"></path>
                        <path d="M345.104329,317.005959 C345.104329,317.005959 343.013272,312.335903 337.672929,312.789233 C323.137673,314.022594 332.06751,325.571951 332.06751,325.571951 C332.329209,323.366927 333.178464,321.490294 335.056785,320.936506 C338.88012,319.809513 340.534731,323.86922 340.303423,326.263342 C340.088155,328.487781 342.059338,329.075337 342.335388,328.450637 C342.611438,327.825092 341.918358,325.849689 341.918358,325.849689 C342.143757,325.768647 345.225048,330.268177 346.046445,332.114419 C347.726382,331.092106 348.160295,327.295786 349.057669,325.688449 C350.216741,323.612587 349.348914,321.099434 349.04585,320.158163 C348.299587,317.841707 345.104329,317.005959 345.104329,317.005959" id="Fill-109" fill="#0E244C"></path>
                        <path d="M332.778318,332.71582 C332.778318,332.71582 334.898922,333.816643 337.369865,331.972933 C337.369865,331.972933 336.961277,331.729807 335.786165,331.334726 C334.514816,330.90841 333.242622,331.417457 332.778318,332.71582" id="Fill-111" fill="#FFFFFF"></path>
                        <path d="M335.103131,335.710076 C337.602777,334.808481 340.143787,338.41908 344.17226,334.036048 C344.924432,333.218028 345.127038,331.492505 345.208924,330.473568 L345.292499,330.640718 C346.357866,333.265303 345.148143,336.265553 342.553948,337.400988 C340.480619,338.308491 339.080953,338.520383 336.266425,338.599737 C334.836368,338.639414 333.717816,337.895683 332.95889,336.626022 C333.429104,336.631087 334.339984,335.985282 335.103131,335.710076" id="Fill-113" fill="#C87171"></path>
                        <path d="M341.952632,326.995254 C341.987244,326.464259 341.939969,325.93664 341.862304,325.41071 C341.713726,324.41119 341.724701,322.893337 343.315154,323.401539 C345.628233,324.141893 346.127149,329.506718 343.718677,330.279151 C341.930683,330.851512 341.866525,328.330762 341.952632,326.995254" id="Fill-115" fill="#F39B9B"></path>
                        <path d="M362.251507,426.575852 C362.251507,426.575852 349.159816,427.91558 334.320652,422.106712 C315.055403,414.564723 293.271092,398.949749 282.36754,400.450718 C263.505813,403.045757 279.639119,426.797873 293.797866,443.919725 C311.126545,464.875886 322.801686,468.039065 342.495784,467.340076 C373.82619,466.228278 362.251507,426.575852 362.251507,426.575852" id="Fill-117" fill="#163774"></path>
                        <path d="M276.294272,402.901485 C257.898537,417.653697 217.51251,475.034104 218.674959,478.71477 C219.786757,482.237573 225.43354,488.873747 229.7254,487.609151 C249.922635,481.65677 291.669495,446.974932 295.760438,433.888306 C300.720896,418.020075 282.969278,397.547635 276.294272,402.901485" id="Fill-119" fill="#163774"></path>
                        <path d="M358.606043,444.043315 C353.242063,452.361959 343.5896,455.536955 335.988517,450.717477 C328.388279,445.897155 316.338318,444.971079 308.796328,442.498448 C301.254339,440.026661 292.608994,424.763714 285.749954,420.996096 C278.890914,417.229323 286.862596,427.915918 286.830517,432.303171 C286.799282,436.68958 274.81179,447.009797 269.621713,454.610879 C264.430792,462.211118 244.409148,470.924842 235.32989,476.486363 C229.488098,480.064038 224.263409,482.105288 221.276667,483.107341 C223.593123,485.927779 226.943711,488.429112 229.725316,487.60856 C246.869961,482.55693 279.536719,456.805772 291.52421,441.131705 C292.283981,442.076353 293.043752,443.007494 293.797613,443.920063 C311.127136,464.876224 322.801433,468.039402 342.496375,467.340413 C364.414067,466.562071 365.33339,446.92369 363.907554,435.193676 C362.390545,437.896771 360.572161,440.994946 358.606043,444.043315" id="Fill-121" fill="#0E244C"></path>
                        <path d="M380.573881,367.625168 C379.177592,356.105357 370.686733,347.309747 360.016178,342.014146 C362.645828,346.307694 362.962399,353.958583 362.999543,362.675685 C363.056104,375.693931 358.917043,383.586259 359.063088,394.638389 C359.184651,403.860315 356.259534,419.390026 352.238659,427.755944 C357.013395,427.839519 360.619773,427.345668 362.251591,426.575767 C376.179875,405.596813 381.250921,373.207793 380.573881,367.625168" id="Fill-123" fill="#311E69"></path>
                        <path d="M370.479485,349.077733 C370.479485,349.077733 386.140045,359.254438 396.542148,393.961602 C404.522272,420.589872 421.728543,455.256516 412.586815,464.507989 C403.444242,473.758618 393.183118,466.203965 391.073488,459.52727 C388.963859,452.850575 354.899967,377.081188 370.479485,349.077733" id="Fill-125" fill="#614CD4"></path>
                        <path d="M202.749155,356.041537 C202.749155,356.041537 202.093219,371.95873 207.233489,383.521594 C212.372915,395.08277 224.731006,399.676005 227.683981,397.598455 C230.636112,395.520904 202.749155,356.041537 202.749155,356.041537" id="Fill-127" fill="#0E244C"></path>
                        <path d="M329.339681,329.46358 C329.339681,329.46358 328.117294,323.105144 320.381985,321.397349 C312.645833,319.690398 266.221318,362.437623 270.200827,376.132066 C276.095803,396.418784 330.347643,352.802044 329.339681,329.46358" id="Fill-129" fill="#614CD4"></path>
                        <path d="M329.339681,329.46434 C329.339681,329.46434 328.618743,325.768478 324.848592,323.25617 C324.29396,324.94286 324.686508,330.361713 322.2105,333.041171 C318.552627,336.998731 299.509399,348.532049 296.623959,356.25976 C293.737675,363.988315 285.717875,369.528731 280.176615,369.82082 C276.855573,369.995568 273.853635,368.495443 271.974469,367.264614 C270.271739,370.794171 269.541515,373.863644 270.200827,376.131981 C276.095803,396.4187 330.347643,352.801959 329.339681,329.46434" id="Fill-131" fill="#311E69"></path>
                        <path d="M323.338422,327.714166 C324.543924,328.711998 326.303215,328.65797 327.447092,327.59007 C328.452522,326.649643 331.238347,320.861879 331.952532,319.515397 C332.666716,318.168071 332.974001,317.037701 332.43372,316.521901 C331.893438,316.006101 326.815638,318.154564 325.117973,320.157825 C324.304174,321.117669 323.394982,322.506361 322.668135,323.692447 C321.859402,325.014448 322.144738,326.726464 323.338422,327.714166" id="Fill-133" fill="#F39B9B"></path>
                        <path d="M370.479485,410.78689 C370.479485,410.78689 368.103091,416.480949 365.332461,424.646794 C363.602717,429.744855 361.39685,435.021039 358.04204,436.895984 C352.357268,440.070981 332.958637,421.560437 332.958637,421.560437 L370.479485,410.78689 Z" id="Fill-135" fill="#614CD4"></path>
                        <path d="M396.541811,393.961602 C391.652265,377.644262 385.599426,366.751685 380.557926,359.787121 C381.73557,366.627589 383.87137,378.823595 385.382469,386.224605 C387.569764,396.941591 389.756215,398.69244 393.256225,405.034836 C396.755391,411.378076 393.693515,432.374758 395.662165,440.249358 C396.621164,444.085355 393.076413,449.789544 389.190608,454.631815 C390.158049,457.059704 390.830024,458.75737 391.073151,459.52727 C393.18278,466.203965 403.444748,473.758618 412.586477,464.507989 C421.728205,455.256516 404.521934,420.589872 396.541811,393.961602" id="Fill-137" fill="#311E69"></path>
                        <path d="M356.491433,414.803375 C356.491433,414.803375 352.206327,426.279288 347.001054,433.031116 C351.459219,436.039807 355.808484,438.142683 358.041365,436.894971 C361.397018,435.02087 363.602886,429.744686 365.33263,424.646625 C368.10326,416.48078 370.479654,410.786721 370.479654,410.786721 L356.491433,414.803375 Z" id="Fill-139" fill="#311E69"></path>
                        <path d="M229.539003,306.199658 C229.539003,306.199658 208.445239,314.722595 200.969941,342.630657 C196.439176,359.547371 220.853981,404.27591 233.122588,400.995389 C245.39035,397.715713 236.913843,379.601094 236.08907,375.303325 C235.265141,371.0064 219.509187,348.5594 224.70433,344.245592 C229.899472,339.931783 244.693049,325.123855 244.867797,317.804731 C245.043388,310.485608 238.893467,302.730039 229.539003,306.199658" id="Fill-141" fill="#BA104A"></path>
                        <path d="M236.089323,375.303662 C235.26455,371.005894 219.50944,348.558894 224.704583,344.24593 C229.899725,339.932121 244.693303,325.124192 244.86805,317.805069 C244.953313,314.248499 243.541828,310.593158 240.998285,308.168646 C240.030844,311.543715 238.469937,315.818691 236.190626,318.828227 C231.860777,324.542546 225.130899,328.373478 222.169482,331.114561 C212.673194,339.90173 212.341427,347.074809 219.538143,362.290481 C222.008241,367.512637 238.114534,383.549706 239.09717,395.585316 C241.33174,388.865567 236.689542,378.430541 236.089323,375.303662" id="Fill-143" fill="#930C3A"></path>
                        <path d="M234.245528,396.680483 C234.245528,396.680483 242.813208,396.200983 245.098429,398.070019 C247.38365,399.940743 249.527047,402.130571 248.930205,404.395531 C248.334208,406.658803 244.958294,403.009372 244.049946,402.869237 C243.141598,402.729945 245.695271,404.66736 244.96167,405.274333 C244.100597,405.986829 241.281004,403.440753 239.059941,403.623942 C236.838035,403.805443 233.404716,404.998283 232.652543,402.317981 C231.899526,399.636835 231.747572,396.735355 234.245528,396.680483" id="Fill-145" fill="#F39B9B"></path>
                        <path d="M224.698083,334.725751 C222.758979,338.374338 218.229058,339.762186 214.579627,337.823082 C210.929351,335.883979 209.543192,331.354058 211.481451,327.704627 C213.420555,324.054351 217.950476,322.668192 221.600751,324.607295 C225.250182,326.545554 226.636342,331.07632 224.698083,334.725751" id="Fill-147" fill="#DDBCBC"></path>
                        <polygon id="Fill-149" fill="#BA104A" points="223.931812 332.050514 220.79818 330.385773 222.462922 327.251297 218.925768 325.372975 217.261026 328.506607 214.12655 326.841865 212.248229 330.379863 215.38186 332.043761 213.717118 335.177392 217.254272 337.057402 218.919014 333.922927 222.052646 335.587668"></polygon>
                        <path d="M419.127595,298.648973 L410.238279,287.681263 L425.042831,289.635562 C423.395817,292.2306 421.38749,295.322023 419.127595,298.648973" id="Fill-151" fill="#0E244C"></path>
                        <path d="M522.325629,488.421768 C520.73602,486.055504 520.301263,483.452024 520.115541,481.313692 L512.208017,481.280768 C512.208017,481.280768 512.734792,483.995682 511.394219,486.110377 C510.809195,487.032232 509.109842,487.713493 506.766372,488.687687 C503.056159,490.573607 498.474742,493.005717 498.311814,494.270313 C498.038296,496.378254 519.850465,496.40358 523.483857,494.375836 C525.383284,493.315534 524.067192,491.015118 522.325629,488.421768" id="Fill-153" fill="#0E244C"></path>
                        <path d="M429.61817,493.561953 C428.157722,491.115492 427.861411,488.491751 427.790499,486.346665 L419.895639,485.891647 C419.895639,485.891647 420.278057,488.630198 418.826051,490.670604 C418.192908,491.56038 416.458943,492.150468 414.067354,492.998035 C410.261748,494.683037 405.557079,496.8678 405.326616,498.121421 C404.942509,500.212479 426.721755,501.400253 430.457294,499.569206 C432.411593,498.611895 431.219597,496.244788 429.61817,493.561953" id="Fill-155" fill="#0E244C"></path>
                        <path d="M436.528283,313.324196 C456.576096,313.314065 494.718268,308.698881 495.817402,310.549345 C513.794418,340.789902 486.132016,380.439796 492.819685,404.155613 C494.292796,409.38199 527.883098,472.375413 521.515376,483.099997 C517.930947,489.138485 495.451024,488.577943 489.361041,483.099997 C483.058322,477.432108 452.74432,404.155613 460.911853,355.867971 C460.911853,355.867971 452.911469,381.229957 449.039172,389.715751 C443.992607,400.774634 444.918683,409.268869 446.113211,417.912525 C449.622507,443.305746 457.104559,476.937413 444.967646,490.397171 C441.105479,494.679745 427.598446,493.827113 418.39678,489.185759 C418.39678,489.185759 410.002159,428.488532 415.52738,381.599712 C417.712142,363.062154 435.229919,319.534054 436.528283,313.324196" id="Fill-157" fill="#BA104A"></path>
                        <path d="M492.819432,404.155359 C486.131763,380.439543 513.795009,340.789649 495.818837,310.549091 C495.354533,309.76906 488.313993,310.137971 478.821081,310.825141 L482.045885,326.561678 C482.045885,326.561678 473.856403,354.47987 472.487971,369.299618 C471.120384,384.119365 477.047439,440.660647 487.991512,448.868702 C494.415794,453.686492 500.288821,472.563414 504.04462,487.336731 C511.665119,487.775709 519.519459,486.462151 521.515123,483.100588 C527.882844,472.376004 494.292543,409.381737 492.819432,404.155359" id="Fill-159" fill="#930C3A"></path>
                        <path d="M496.165631,310.333232 C490.696127,295.765897 483.019911,275.100982 476.917265,260.563194 C472.154348,249.21391 460.321343,242.451107 448.148974,244.277934 C429.091395,247.138892 409.747636,256.877462 403.384136,281.2585 C401.128461,289.89878 421.932668,285.915894 429.631677,298.548346 C433.745412,305.297641 434.254458,323.282255 434.420764,336.787599 C444.65825,338.222722 499.391279,328.701952 496.165631,310.333232" id="Fill-161" fill="#BA104A"></path>
                        <path d="M427.937979,238.324456 L439.069462,248.665777 C440.085867,250.492604 432.982856,260.966463 428.818469,260.223576 C427.599459,260.00662 426.877677,258.118168 426.637083,255.776386 L425.731268,242.805414 L427.937979,238.324456 Z" id="Fill-163" fill="#F39B9B"></path>
                        <path d="M425.913275,245.412693 C427.741789,243.951401 430.217797,241.921125 430.217797,241.921125 C430.217797,241.921125 431.797276,245.239634 430.297151,249.201416 C429.503613,251.298383 428.095505,252.86351 426.505052,253.881603 L425.913275,245.412693 Z" id="Fill-165" fill="#0E244C"></path>
                        <path d="M497.027937,309.470926 C491.558433,294.903591 483.882217,274.238675 477.780416,259.700887 C473.016654,248.351603 461.183649,241.588801 449.01128,243.415627 C444.945664,244.02682 440.86654,244.95374 436.90307,246.265611 C440.733158,248.682526 445.268988,252.405402 448.658409,257.831852 C455.795187,269.261334 469.246504,297.051209 473.123022,305.726945 C476.997852,314.403525 483.609544,304.301109 482.926595,325.083367 C482.919841,325.285972 482.914776,325.494487 482.908023,325.699625 C491.908772,321.487964 498.182788,316.046318 497.027937,309.470926" id="Fill-167" fill="#930C3A"></path>
                        <path d="M422.576869,235.160433 L429.284799,240.710979 C431.348843,242.714241 431.452678,245.998983 429.504288,248.115366 C427.948447,249.807122 426.734503,250.577023 424.150438,251.801097 C421.996911,252.821723 419.759809,251.550373 418.105197,248.92832 C415.959267,245.527925 414.948772,241.785633 414.519924,239.752824 C413.544041,235.119068 417.94058,231.863029 422.576869,235.160433" id="Fill-169" fill="#F39B9B"></path>
                        <path d="M422.309768,245.508762 C422.309768,245.508762 420.934583,247.901195 418.237397,247.901195 C418.237397,247.901195 418.120055,247.804113 418.711832,246.69316 C419.303609,245.581362 421.549153,245.098486 422.309768,245.508762" id="Fill-171" fill="#FFFFFF"></path>
                        <path d="M421.886913,249.592022 C423.841212,247.730584 427.68143,250.047885 429.632352,244.32428 C429.996198,243.257224 429.478709,241.570533 429.138501,240.589585 L429.28539,240.710304 C431.348589,242.71441 431.452425,245.999152 429.504035,248.115535 C427.949038,249.806446 426.734249,250.577191 424.151029,251.801266 C422.83747,252.423434 421.493521,252.189593 420.268602,251.320078 C420.708424,251.132668 421.290071,250.160162 421.886913,249.592022" id="Fill-173" fill="#C87171"></path>
                        <path d="M415.720362,237.504157 C415.720362,237.504157 417.884864,235.515246 419.884749,236.325668 C421.883789,237.13609 422.144644,237.678904 422.874024,238.843885 C424.23739,241.024427 426.432283,239.596903 426.316629,238.254641 C426.200131,236.91238 428.249823,238.613422 428.249823,238.613422 L430.286852,240.506939 C430.286852,240.506939 428.750427,231.024158 426.716775,227.406806 C424.683966,223.789454 419.904165,226.91802 419.904165,226.91802 C419.904165,226.91802 417.14873,222.864222 410.486387,225.02788 C402.222615,227.710714 405.395924,237.665397 411.448763,238.56868 C414.546094,239.031296 415.720362,237.504157 415.720362,237.504157" id="Fill-175" fill="#254888"></path>
                        <path d="M407.258206,226.918864 C407.4262,228.920438 408.781968,231.188775 411.349992,232.278623 C414.386542,233.566857 420.544905,229.851579 420.544905,229.851579 C420.544905,229.851579 423.889584,234.068305 428.437233,232.019457 C429.557472,236.003188 430.286852,240.506939 430.286852,240.506939 L428.249823,238.613422 C428.249823,238.613422 426.200131,236.91238 426.316629,238.254641 C426.432283,239.596903 424.23739,241.024427 422.874024,238.843885 C422.144644,237.678904 421.883789,237.136934 419.884749,236.326512 C417.884864,235.515246 415.720362,237.504157 415.720362,237.504157 C415.720362,237.504157 414.54525,239.031296 411.448763,238.56868 C406.412328,237.817351 403.374934,230.800448 407.258206,226.918864" id="Fill-177" fill="#0E244C"></path>
                        <path d="M474.323915,275.348836 C474.323915,275.348836 476.631085,295.397493 470.270961,307.953968 C463.910837,320.510443 443.109162,328.701614 443.109162,328.701614 C443.109162,328.701614 470.836568,276.168544 474.323915,275.348836" id="Fill-179" fill="#0E244C"></path>
                        <path d="M424.689031,238.68847 C424.50331,238.181112 424.244143,237.70921 423.956275,237.252504 C423.40924,236.384677 422.798891,234.968971 424.484737,234.790847 C426.937108,234.532525 429.595461,239.314859 427.673241,241.017589 C426.245717,242.282185 425.155868,239.964885 424.689031,238.68847" id="Fill-181" fill="#F39B9B"></path>
                        <path d="M454.529105,249.582145 C447.426939,253.758351 439.95755,278.251666 436.216102,292.134363 C434.487202,298.547671 431.139146,304.260301 426.531559,308.682166 C426.531559,308.682166 380.763824,338.61375 376.862824,351.782263 C376.103898,354.345222 381.289754,359.728619 383.336913,360.288317 C402.933929,365.645543 439.200312,338.352051 453.809012,323.918099 C465.70111,312.168669 482.21008,274.382745 472.024933,255.093014 C469.438337,250.194183 464.420474,243.765679 454.529105,249.582145" id="Fill-183" fill="#BA104A"></path>
                        <path d="M379.017027,347.639994 C396.199661,344.703902 428.518613,330.905624 444.161445,315.176685 C460.522682,298.725964 465.934781,259.160488 467.080346,248.976186 C469.319981,250.552288 470.901992,252.965826 472.024765,255.093183 C482.209911,274.382914 465.701785,312.167994 453.809687,323.917423 C439.200143,338.353064 402.934605,365.645712 383.337589,360.287641 C381.289585,359.727943 376.103729,354.344547 376.862655,351.782432 C377.231566,350.53894 377.975297,349.144339 379.017027,347.639994" id="Fill-185" fill="#930C3A"></path>
                        <path d="M367.216523,358.424008 C368.618722,356.506854 374.813385,354.667365 374.414928,354.231763 C373.976793,353.751419 373.052406,354.403134 371.239931,354.548334 C369.332062,354.701132 368.132469,353.006 370.212552,352.74008 C372.292635,352.473316 373.681327,351.711857 375.887194,350.661686 C377.118022,350.075818 378.711008,350.05809 379.879366,350.156016 C380.882264,350.240435 381.751779,350.872733 382.176406,351.784458 C382.725129,352.962946 383.348141,354.568595 383.064494,355.282779 C381.874186,358.278808 374.447007,359.914003 371.1572,360.233107 C369.190239,360.423893 366.463506,359.45392 367.216523,358.424008" id="Fill-187" fill="#F39B9B"></path>
                        <path d="M436.041101,375.22701 C431.906261,385.259359 432.590054,420.332057 433.045917,431.066771 C433.360799,438.48382 432.04302,469.61753 428.942311,492.59046 C435.807261,493.800184 442.445123,493.194056 444.967561,490.397256 C457.104474,476.936654 449.622422,443.305831 446.113127,417.911765 C444.919443,409.268953 443.992522,400.774718 449.039087,389.715835 C452.911385,381.230042 460.911769,355.867211 460.911769,355.867211 C460.911769,355.867211 440.175097,365.195506 436.041101,375.22701" id="Fill-189" fill="#930C3A"></path>
                    </g>
                </g>
            </g>
        </g>
    </g>
</svg>