<?xml version="1.0" encoding="UTF-8"?>
<svg width="492px" height="432px" viewBox="0 0 492 432" version="1.1" xmlns="http://www.w3.org/2000/svg" xmlns:xlink="http://www.w3.org/1999/xlink">
    <!-- Generator: Sketch 57.1 (83088) - https://sketch.com -->
    <title>Illustration</title>
    <desc>Created with Sketch.</desc>
    <defs>
        <linearGradient x1="50%" y1="0%" x2="50%" y2="100%" id="linearGradient-1">
            <stop stop-color="#BA104A" stop-opacity="0" offset="0%"></stop>
            <stop stop-color="#27B8F5" offset="100%"></stop>
        </linearGradient>
        <polygon id="path-2" points="0.491140096 0.432752877 18.3844594 0.432752877 18.3844594 19.9390053 0.491140096 19.9390053"></polygon>
        <polygon id="path-4" points="0 0.173667026 97.8898077 0.173667026 97.8898077 90.7158047 0 90.7158047"></polygon>
        <polygon id="path-6" points="0.045375549 0.241848438 20.9384151 0.241848438 20.9384151 21.1361961 0.045375549 21.1361961"></polygon>
        <polygon id="path-8" points="0.739305081 0.241848438 21.6324994 0.241848438 21.6324994 21.1361961 0.739305081 21.1361961"></polygon>
    </defs>
    <g id="Home" stroke="none" stroke-width="1" fill="none" fill-rule="evenodd">
        <g transform="translate(-385.000000, -4464.000000)" id="Why-FieldMed">
            <g transform="translate(385.000000, 4185.000000)">
                <g id="The-first-dedicated-community-health-platform-for-in-the-field-and-on-the-go." transform="translate(0.000000, 279.000000)">
                    <g id="Illustration">
                        <path d="M246,432 C381.862048,432 492,335.293506 492,216 C492,145.846563 370.950318,204.564305 311.939639,165.10747 C270.604688,137.469316 301.965078,0 246,0 C110.137952,0 0,96.706494 0,216 C0,335.293506 110.137952,432 246,432 Z" id="Oval" fill="url(#linearGradient-1)" opacity="0.25"></path>
                        <g id="Group-101" transform="translate(74.000000, 29.000000)">
                            <g id="Group-18" transform="translate(0.000000, 0.000000)">
                                <polygon id="Fill-36" fill="#FFFFFF" points="181.085517 236.771296 104.498355 229.696259 34.8475748 137.268632 104.498355 137.268632 181.085517 144.970633"></polygon>
                                <polygon id="Fill-37" fill="#EFEFEF" points="111.435099 236.771176 181.085879 236.771176 181.085879 144.970512 111.435099 144.970512"></polygon>
                                <polygon id="Fill-38" fill="#D8E7EB" points="111.43534 236.771296 34.8481777 229.696259 34.8481777 137.268632 111.43534 144.970633"></polygon>
                                <polygon id="Fill-39" fill="#D8E7EB" points="121.412252 163.980757 131.544941 163.980757 131.544941 154.449712 121.412252 154.449712"></polygon>
                                <polygon id="Fill-40" fill="#D8E7EB" points="141.194144 163.980757 151.326833 163.980757 151.326833 154.449712 141.194144 154.449712"></polygon>
                                <polygon id="Fill-41" fill="#D8E7EB" points="160.976037 163.980757 171.108725 163.980757 171.108725 154.449712 160.976037 154.449712"></polygon>
                                <polygon id="Fill-42" fill="#D8E7EB" points="121.412252 179.807959 131.544941 179.807959 131.544941 170.276914 121.412252 170.276914"></polygon>
                                <polygon id="Fill-43" fill="#D8E7EB" points="141.194144 179.807959 151.326833 179.807959 151.326833 170.276914 141.194144 170.276914"></polygon>
                                <polygon id="Fill-44" fill="#D8E7EB" points="160.976037 179.807959 171.108725 179.807959 171.108725 170.276914 160.976037 170.276914"></polygon>
                                <polygon id="Fill-45" fill="#D8E7EB" points="121.412252 195.636367 131.544941 195.636367 131.544941 186.105321 121.412252 186.105321"></polygon>
                                <polygon id="Fill-46" fill="#D8E7EB" points="141.194144 195.636367 151.326833 195.636367 151.326833 186.105321 141.194144 186.105321"></polygon>
                                <polygon id="Fill-47" fill="#D8E7EB" points="160.976037 195.636367 171.108725 195.636367 171.108725 186.105321 160.976037 186.105321"></polygon>
                                <polygon id="Fill-48" fill="#D8E7EB" points="121.412252 211.464774 131.544941 211.464774 131.544941 201.933729 121.412252 201.933729"></polygon>
                                <polygon id="Fill-49" fill="#D8E7EB" points="141.194144 211.464774 151.326833 211.464774 151.326833 201.933729 141.194144 201.933729"></polygon>
                                <polygon id="Fill-50" fill="#D8E7EB" points="160.976037 211.464774 171.108725 211.464774 171.108725 201.933729 160.976037 201.933729"></polygon>
                                <polygon id="Fill-52" fill="#D8E7EB" points="141.194144 227.291976 151.326833 227.291976 151.326833 217.76093 141.194144 217.76093"></polygon>
                                <polygon id="Fill-53" fill="#D8E7EB" points="160.976037 227.291976 171.108725 227.291976 171.108725 217.76093 160.976037 217.76093"></polygon>
                                <polygon id="Fill-54" fill="#2DBAF6" points="92.325504 233.782973 30.5696366 233.782973 30.5696366 79.383659 92.325504 41.9105555"></polygon>
                                <polygon id="Fill-55" fill="#1D8EBF" points="30.5698778 233.782973 0.000602849155 222.912397 0.000602849155 67.54973 30.5698778 79.383659"></polygon>
                                <polygon id="Fill-56" fill="#6FD4FF" points="2.84217094e-14 67.5502123 60.1534943 30.0771089 92.3251423 41.9110378 30.5692749 79.3841412"></polygon>
                                <polygon id="Fill-57" fill="#1D8EBF" points="38.334816 92.9434244 48.6893531 92.9434244 48.6893531 79.1381788 38.334816 79.1381788"></polygon>
                                <polygon id="Fill-58" fill="#1D8EBF" points="58.5507596 92.9434244 68.9052967 92.9434244 68.9052967 79.1381788 58.5507596 79.1381788"></polygon>
                                <polygon id="Fill-59" fill="#1D8EBF" points="78.7667031 92.9434244 89.1212402 92.9434244 89.1212402 79.1381788 78.7667031 79.1381788"></polygon>
                                <polygon id="Fill-60" fill="#1D8EBF" points="38.334816 118.459618 48.6893531 118.459618 48.6893531 104.654372 38.334816 104.654372"></polygon>
                                <polygon id="Fill-61" fill="#1D8EBF" points="58.5507596 118.459618 68.9052967 118.459618 68.9052967 104.654372 58.5507596 104.654372"></polygon>
                                <polygon id="Fill-62" fill="#1D8EBF" points="78.7667031 118.459618 89.1212402 118.459618 89.1212402 104.654372 78.7667031 104.654372"></polygon>
                                <polygon id="Fill-63" fill="#1D8EBF" points="38.334816 143.975811 48.6893531 143.975811 48.6893531 130.16936 38.334816 130.16936"></polygon>
                                <polygon id="Fill-64" fill="#1D8EBF" points="58.5507596 143.975811 68.9052967 143.975811 68.9052967 130.16936 58.5507596 130.16936"></polygon>
                                <polygon id="Fill-65" fill="#1D8EBF" points="78.7667031 143.975811 89.1212402 143.975811 89.1212402 130.16936 78.7667031 130.16936"></polygon>
                                <polygon id="Fill-66" fill="#1D8EBF" points="38.334816 169.492004 48.6893531 169.492004 48.6893531 155.685553 38.334816 155.685553"></polygon>
                                <polygon id="Fill-67" fill="#1D8EBF" points="58.5507596 169.492004 68.9052967 169.492004 68.9052967 155.685553 58.5507596 155.685553"></polygon>
                                <polygon id="Fill-68" fill="#1D8EBF" points="78.7667031 169.492004 89.1212402 169.492004 89.1212402 155.685553 78.7667031 155.685553"></polygon>
                                <polygon id="Fill-69" fill="#1D8EBF" points="38.334816 195.006992 48.6893531 195.006992 48.6893531 181.201746 38.334816 181.201746"></polygon>
                                <polygon id="Fill-70" fill="#1D8EBF" points="58.5507596 195.006992 68.9052967 195.006992 68.9052967 181.201746 58.5507596 181.201746"></polygon>
                                <polygon id="Fill-71" fill="#1D8EBF" points="78.7667031 195.006992 89.1212402 195.006992 89.1212402 181.201746 78.7667031 181.201746"></polygon>
                                <polygon id="Fill-72" fill="#2DBAF6" points="78.7589867 44.621327 35.1524959 71.2479685 35.1524959 41.6336066 78.7589867 8.35633327"></polygon>
                                <polygon id="Fill-73" fill="#1D8EBF" points="35.1524959 71.2485713 13.5668791 63.5718902 13.5668791 33.2775145 35.1524959 41.6342095"></polygon>
                                <polygon id="Fill-74" fill="#6FD4FF" points="13.5665174 33.2772733 56.0420631 4.26325641e-13 78.758625 8.35669498 35.1521342 41.6339683"></polygon>
                            </g>
                        </g>
                        <g id="Group-191" transform="translate(154.000000, 122.000000)">
                            <path d="M237.010636,243.131144 C232.463878,240.730046 231.682974,235.814 231.682974,235.814 C231.682974,235.814 231.396886,234.253652 230.891852,231.481808 C227.539074,232.344451 224.065146,233.071349 220.512398,233.674177 C221.014512,234.392317 221.519545,235.107538 222.030417,235.814 C222.900358,238.610658 223.263807,240.481909 221.688862,242.805645 C222.211411,243.207045 222.682873,243.725215 223.05362,244.38059 C224.161482,246.335039 235.969918,246.327741 237.981293,245.679664 C239.156298,245.300159 238.096604,244.081365 237.010636,243.131144" id="Fill-1" fill="#F39B9B"></path>
                            <path d="M223.05435,244.381174 C224.162211,246.335623 235.970647,246.328325 237.982023,245.678788 C239.155568,245.300743 238.097334,244.080489 237.011366,243.131727 C240.657531,245.004437 245.160501,247.418671 245.315222,248.665199 C245.575037,250.740798 224.092149,250.676574 220.523345,248.665199 C218.655014,247.612803 219.961386,245.35329 221.688133,242.80477 C222.212141,243.207628 222.682143,243.725798 223.05435,244.381174" id="Fill-3" fill="#0E244C"></path>
                            <path d="M155.53199,243.131144 C160.077289,240.730046 160.859653,235.814 160.859653,235.814 C160.859653,235.814 161.145741,234.253652 161.650774,231.481808 C165.003553,232.344451 168.477481,233.071349 172.028769,233.674177 C171.526655,234.392317 171.023082,235.107538 170.51221,235.814 C169.642268,238.610658 169.27882,240.481909 170.853764,242.805645 C170.331216,243.207045 169.859754,243.725215 169.489007,244.38059 C168.379685,246.335039 156.572709,246.327741 154.561334,245.679664 C153.386329,245.300159 154.446023,244.081365 155.53199,243.131144" id="Fill-5" fill="#F39B9B"></path>
                            <path d="M169.488423,244.381174 C168.379102,246.335623 156.572125,246.328325 154.56075,245.678788 C153.387205,245.300743 154.445439,244.080489 155.531406,243.131727 C151.883782,245.004437 147.382272,247.418671 147.226091,248.665199 C146.966276,250.740798 168.450624,250.676574 172.019428,248.665199 C173.886299,247.612803 172.581387,245.35329 170.85464,242.80477 C170.330632,243.207628 169.86063,243.725798 169.488423,244.381174" id="Fill-7" fill="#0E244C"></path>
                            <path d="M170.78268,29.5200397 C170.78268,29.5200397 138.330646,51.8772479 127.23743,69.9285369 C122.970921,76.8705544 118.5132,96.4734339 124.544406,100.144412 C130.575612,103.813931 139.601987,82.4901438 144.483002,76.4925093 C149.061872,70.8670813 167.129217,58.3594808 167.129217,58.3594808 L170.78268,29.5200397 Z" id="Fill-9" fill="#C87171"></path>
                            <path d="M167.129363,58.3591889 L170.782826,29.5197478 C170.782826,29.5197478 150.375689,43.5803985 136.395318,58.4015183 C136.869699,63.0533706 138.73511,71.7075383 145.996788,74.8486699 C152.12287,68.7503206 167.129363,58.3591889 167.129363,58.3591889" id="Fill-11" fill="#930C3A"></path>
                            <path d="M209.837805,102.319267 C209.217461,87.5813459 204.035761,79.1942911 199.007324,73.0769666 C193.129379,73.2565015 186.218014,73.1878988 179.29935,72.4901939 C171.13416,71.6684202 162.955833,69.9723259 156.437109,66.772809 C154.348373,73.250663 151.969171,81.1633369 149.10391,91.1165785 C138.578492,127.662885 158.515627,223.439664 160.846662,234.348966 C163.44335,234.601483 164.475311,239.478119 182.525141,239.478119 C182.801011,214.871615 174.883959,124.148087 178.660031,101.382182 C178.66295,101.367585 178.679006,101.357368 178.689224,101.345691 C178.689224,101.345691 180.658269,188.304823 215.426742,238.043299 C226.622132,238.043299 229.320995,232.257311 232.336598,231.480786 C228.475867,210.302962 210.13849,109.481689 209.837805,102.319267" id="Fill-13" fill="#D8E7EB"></path>
                            <path d="M152.739711,190.155201 C156.212179,212.261352 159.919649,230.011957 160.846516,234.348528 C163.443204,234.602504 164.475165,239.477681 182.524995,239.477681 C182.799406,214.893072 174.898409,124.30529 178.651127,101.443048 C177.951963,103.166876 167.557912,129.040341 164.247463,150.895436 C161.272729,170.528967 166.890859,185.852201 152.739711,190.155201" id="Fill-15" fill="#C1D6DB"></path>
                            <path d="M232.336744,231.481078 C228.474553,210.301794 210.138636,109.481981 209.837951,102.319558 C209.217607,87.5816378 204.035907,79.194583 199.00747,73.0772585 C193.201047,73.2538742 186.390397,73.186731 179.557852,72.5138399 C184.58337,92.31377 192.920797,124.596487 199.535857,147.467486 C206.817969,172.637408 210.408668,207.118333 209.105215,227.988175 C211.081559,231.47232 213.184891,234.836776 215.426888,238.043591 C226.622278,238.043591 229.321141,232.257603 232.336744,231.481078" id="Fill-17" fill="#C1D6DB"></path>
                            <path d="M161.649899,44.0251488 C161.649899,44.0251488 150.752274,60.4153748 148.825558,72.2500842 C152.84101,68.7703176 158.279605,64.7066976 162.185584,61.8750084 L161.649899,44.0251488 Z" id="Fill-19" fill="#0E244C"></path>
                            <path d="M190.212593,9.44715819 C190.212593,9.44715819 195.817586,14.1588555 200.832887,16.5584932 C206.71959,19.3741264 211.313057,25.3513261 202.650131,33.9222947 C199.196638,37.3363778 186.589782,29.3521819 187.904912,21.276029 C189.220042,13.2013359 190.212593,9.44715819 190.212593,9.44715819" id="Fill-21" fill="#0E244C"></path>
                            <g id="Group-25" transform="translate(178.833610, 0.268573)">
                                <mask id="mask-3" fill="white">
                                    <use xlink:href="#path-2"></use>
                                </mask>
                                <g id="Clip-24"></g>
                                <path d="M0.679722886,8.16793528 C-0.962364937,14.5655094 8.59969491,19.4260894 10.7628719,19.8990107 C12.9275086,20.3704724 17.0568121,16.6411085 18.1894878,10.4362059 C19.3236231,4.22984378 15.3315252,0.399765157 10.8387729,1.72511248 C10.8387729,1.72511248 3.76392873,-3.85360721 0.679722886,8.16793528" id="Fill-23" fill="#0E244C" mask="url(#mask-3)"></path>
                            </g>
                            <path d="M176.813594,92.2564064 C176.813594,92.2564064 195.047338,96.6644999 209.313797,96.5053999 C208.229289,88.6715462 205.744992,82.9162109 202.866595,78.3694521 L176.813594,92.2564064 Z" id="Fill-26" fill="#311E69"></path>
                            <path d="M210.155713,105.142928 L182.532147,122.992787 C182.532147,122.992787 200.862226,126.96737 212.546593,120.222403 C211.427054,113.546039 210.586305,108.28114 210.155713,105.142928" id="Fill-28" fill="#0E244C"></path>
                            <path d="M211.437126,107.201303 C210.752557,101.297085 199.383471,61.4388699 200.307419,41.3163608 C200.609563,34.7217361 200.797856,30.2961269 192.428317,26.4689676 C185.72276,23.4051966 172.752456,24.7217861 166.843859,33.7948687 C158.180933,47.0979695 148.667041,81.5380248 144.975628,116.491871 C144.245811,123.400317 214.117013,130.337956 211.437126,107.201303" id="Fill-30" fill="#BA104A"></path>
                            <path d="M189.551233,16.4125298 L189.672415,26.3336595 C189.685519,27.9684492 185.662769,32.1634362 183.085056,30.0951354 C182.331885,29.4893874 183.322976,27.2444709 184.035278,25.5498363 L185.980969,17.0284952 L189.551233,16.4125298 Z" id="Fill-32" fill="#F39B9B"></path>
                            <path d="M184.824502,22.0893369 C186.954107,21.4368807 189.09247,18.2446619 189.09247,18.2446619 L185.703201,18.2446619 L184.824502,22.0893369 Z" id="Fill-34" fill="#311E69"></path>
                            <path d="M189.549773,10.0565552 L190.145304,13.8647393 C190.616766,16.8847213 188.68567,19.8784299 185.677365,20.4126558 C182.899683,20.9060119 180.216876,19.3047938 179.806719,15.7958346 C179.441811,12.6751379 181.658994,9.98357354 182.460333,8.57210783 C184.287794,5.35653497 188.545546,5.72728191 189.549773,10.0565552" id="Fill-36" fill="#F39B9B"></path>
                            <path d="M181.439173,12.5439169 C181.391005,12.2096608 181.393925,11.8710258 181.415819,11.5323908 C181.461068,10.890152 181.376409,9.92533416 180.391156,10.328193 C178.959256,10.9164254 178.914007,14.3524029 180.484573,14.7216902 C181.65082,14.9946417 181.561783,13.3890447 181.439173,12.5439169" id="Fill-38" fill="#F39B9B"></path>
                            <path d="M185.863615,15.4139945 C185.863615,15.4139945 184.294509,15.5409826 182.205773,14.9308557 C182.205773,14.9308557 182.484563,16.5408316 183.247951,17.1611759 C184.01134,17.7800606 185.090009,16.9903988 185.863615,15.4139945" id="Fill-40" fill="#FFFFFF"></path>
                            <path d="M185.340482,19.172843 C184.199049,19.2078742 182.170158,18.7553877 181.335247,18.0606021 C180.595213,17.4431771 179.936918,15.9543508 179.795334,15.6244736 C179.801172,15.6813993 179.799713,15.7383251 179.807011,15.7967104 C180.217168,19.3056696 182.899975,20.9054281 185.676198,20.4135315 C187.532852,20.0836543 188.97351,18.818152 189.698948,17.1906605 C188.145898,18.6517538 186.368064,19.1421907 185.340482,19.172843" id="Fill-42" fill="#C87171"></path>
                            <path d="M182.206065,6.7125346 C182.206065,6.7125346 183.528493,9.57049723 184.991046,10.7951298 C186.453599,12.0197624 188.427023,14.3332817 188.427023,14.3332817 C188.427023,14.3332817 189.820973,13.380141 190.347901,12.1555084 C190.876289,10.9308758 192.169524,5.62364792 188.427023,3.78596919 C184.684523,1.94829047 181.331744,5.08066421 182.206065,6.7125346" id="Fill-44" fill="#0E244C"></path>
                            <path d="M189.441469,13.7162946 C189.565538,13.4010137 189.639979,13.0711365 189.695445,12.7368804 C189.799079,12.1004802 190.099763,11.180911 190.968245,11.798336 C192.227909,12.6974703 191.487875,16.053168 189.876439,16.0546277 C188.67808,16.0546277 189.129107,14.5103353 189.441469,13.7162946" id="Fill-46" fill="#F39B9B"></path>
                            <path d="M211.437126,107.201303 C210.752557,101.297085 199.383471,61.4388699 200.307419,41.3163608 C200.609563,34.7217361 200.799316,30.2961269 192.428317,26.4689676 C191.358406,25.98145 190.127934,25.6048645 188.793829,25.3523479 C189.021532,27.6760846 189.081377,31.0244841 188.27128,34.7319535 C186.76056,41.6622939 188.27128,52.1847927 182.532001,61.9205489 C177.91664,69.7500237 186.335806,104.947629 188.052335,122.561028 C201.45907,121.105773 212.53477,116.677245 211.437126,107.201303" id="Fill-48" fill="#930C3A"></path>
                            <path d="M211.05368,105.039586 C210.691691,103.280727 210.113676,100.79789 209.408673,97.7939644 L186.958048,105.293562 C186.958048,105.293562 201.660937,107.220278 211.05368,105.039586" id="Fill-50" fill="#0E244C"></path>
                            <path d="M200.303186,46.2937114 L191.60523,36.4922717 C191.60523,36.4922717 190.719232,48.6772931 196.338821,59.6303838 C199.326691,65.4528623 201.853317,69.0566977 203.564008,71.1556509 C201.904404,62.4416382 200.56884,53.5758235 200.303186,46.2937114" id="Fill-52" fill="#0E244C"></path>
                            <path d="M94.7605823,49.4567375 C94.7605823,49.4567375 95.5633808,46.1170957 98.6227729,46.4557307 C101.680705,46.7943657 104.484662,49.6027008 103.600124,51.8257228 C102.715586,54.0472852 99.558398,56.5636936 97.3879229,54.0764779 C95.215988,51.5892622 94.7605823,49.4567375 94.7605823,49.4567375" id="Fill-54" fill="#B5B5B5"></path>
                            <path d="M85.4581913,58.0462434 C85.4581913,58.0462434 79.0854309,54.0366299 82.5228681,49.4373243 C87.3236031,43.0149364 91.9842132,45.6320595 96.5265931,48.3586551 C103.956128,52.8178358 103.902122,63.9854926 97.5249825,64.4992837 C91.1463835,65.0130747 85.4581913,58.0462434 85.4581913,58.0462434" id="Fill-56" fill="#D3D3D3"></path>
                            <path d="M88.272073,60.8080162 C90.5330455,62.6894839 93.9179358,64.7898967 97.5246905,64.4994296 C103.903289,63.9856386 103.955836,52.8179818 96.5263011,48.3588011 C95.1586244,47.5370273 93.777811,46.7283903 92.3882398,46.1708103 L92.3867802,46.1708103 C92.3867802,46.1708103 97.1889748,49.0725619 96.9685701,52.749379 C96.8269857,55.0964698 91.937213,58.5908327 88.272073,60.8080162" id="Fill-58" fill="#B5B5B5"></path>
                            <path d="M98.5693503,123.736179 C97.5651224,102.291242 97.4921407,79.1721047 80.9939019,77.9489317 C72.1280873,77.2935562 70.5108132,114.658717 70.5108132,114.658717 C70.5108132,114.658717 65.6735874,116.532887 61.0348718,118.316559 C34.6797271,128.449336 33.2507458,138.539783 44.0680906,135.934337 C54.886895,133.330351 99.5721186,145.179656 98.5693503,123.736179" id="Fill-60" fill="#C87171"></path>
                            <path d="M7.42632393,236.462953 C7.0906082,236.462953 6.7475943,236.389972 6.42355564,236.233791 C5.27336434,235.67913 4.79022562,234.298317 5.34488639,233.148125 L31.2869547,179.325595 C31.8416155,178.176864 33.2224289,177.693725 34.3726202,178.248386 C35.5213519,178.803047 36.0044906,180.18386 35.4498298,181.332592 L9.50922111,235.155122 C9.11074113,235.981274 8.28604814,236.462953 7.42632393,236.462953" id="Fill-62" fill="#2550A0"></path>
                            <path d="M97.8566112,147.842904 C97.8566112,147.842904 97.5486285,169.152095 76.8948128,168.25588 C56.2395374,167.359665 43.2035496,163.656574 38.6728468,165.127885 C34.1436037,166.599196 32.8313931,209.421927 31.9731285,221.040611 C31.1163236,232.657835 27.0439458,225.223921 21.7454757,225.212243 C16.4484653,225.202026 -4.06668523,166.015342 2.98626442,146.022741 C10.0392141,126.031599 36.3753835,121.877481 59.9572243,125.894393 C86.4189222,130.401742 98.6141611,143.974875 97.8566112,147.842904" id="Fill-64" fill="#C87171"></path>
                            <g id="Group-68" transform="translate(0.000000, 124.337430)">
                                <mask id="mask-5" fill="white">
                                    <use xlink:href="#path-4"></use>
                                </mask>
                                <g id="Clip-67"></g>
                                <path d="M97.8566112,23.5054734 C97.8566112,23.5054734 97.5486285,44.8146647 76.8948128,43.9184496 C56.2395374,43.0222346 43.2035496,39.3191441 38.6728468,40.7904548 C34.1436037,42.2617655 40.2492511,72.6338218 39.3909865,84.2510458 C38.532722,95.8682698 13.4956265,88.2854731 8.19715645,88.2737961 C2.89868641,88.2635786 -4.06668523,41.677912 2.98626442,21.6853103 C10.0392141,1.69416825 36.3753835,-2.45994903 59.9572243,1.55696269 C86.4189222,6.06431131 98.6141611,19.6374443 97.8566112,23.5054734" id="Fill-66" fill="#153572" mask="url(#mask-5)"></path>
                            </g>
                            <path d="M6.76919688,235.02828 C6.76919688,235.02828 17.1953598,240.72377 37.99076,236.463099 L39.8955819,230.20711 C39.8955819,230.20711 20.4824547,234.257593 10.4664488,228.248281 L6.76919688,235.02828 Z" id="Fill-69" fill="#0E244C"></path>
                            <path d="M17.9045958,220.503173 C17.9045958,220.503173 21.1916907,223.949368 19.3335771,226.370901 C18.5234805,227.426216 16.3734401,228.074293 13.406005,229.011378 C11.9536695,230.057935 10.5042533,231.438749 11.920098,232.034279 C14.3489283,233.054563 29.0153269,234.368233 30.6063276,232.089745 C31.1390938,231.326357 31.7813326,230.741044 32.4746586,230.304613 C30.7727258,227.274414 31.9813024,223.648684 31.9740043,221.040319 L17.9045958,220.503173 Z" id="Fill-71" fill="#C87171"></path>
                            <path d="M30.6064735,232.089745 C29.1161876,234.225189 21.0064632,223.279397 14.6497588,227.875783 C13.5360583,228.68296 12.37419,229.421535 11.1013895,229.948463 C6.95748961,231.664992 2.76250259,233.616522 2.48371257,234.892242 C1.93343069,237.414489 28.62867,239.710492 33.281982,237.633434 C35.7166508,236.547466 34.341676,233.62528 32.4748046,230.304613 C31.7814786,230.741044 31.1392398,231.326357 30.6064735,232.089745" id="Fill-73" fill="#0E244C"></path>
                            <path d="M45.2428037,230.30943 L45.3464377,229.861322 L42.6388173,229.321258 C42.4388475,229.27455 42.2359584,229.23514 42.0330694,229.200108 L41.9513299,229.184052 L41.9498702,229.185512 C41.1966993,229.064363 40.4187146,229.020574 39.6246739,229.068741 C33.8664193,229.426352 29.4875184,234.384727 29.843669,240.142982 C30.1312168,244.77294 33.393498,248.508142 37.6541685,249.610165 L37.6541685,249.611625 L37.6775226,249.617464 C38.0497292,249.71088 38.4277743,249.788241 38.8131176,249.842247 L40.6011688,250.198398 L40.6624734,249.931285 C40.7485918,249.928365 40.8332505,249.928365 40.9164496,249.922527 C46.6747043,249.564917 51.0536051,244.608001 50.6974545,238.849746 C50.4668324,235.118923 48.3036554,231.969033 45.2428037,230.30943" id="Fill-75" fill="#2550A0"></path>
                            <g id="Group-79" transform="translate(32.870248, 229.431051)">
                                <mask id="mask-7" fill="white">
                                    <use xlink:href="#path-6"></use>
                                </mask>
                                <g id="Clip-78"></g>
                                <path d="M20.9179809,10.0431266 C21.2755912,15.8013812 16.8966903,20.758297 11.1384357,21.1159072 C5.3787214,21.4735175 0.421805625,17.0946166 0.0656550216,11.3349024 C-0.290495582,5.57664772 4.08694565,0.619731944 9.84520028,0.262121707 C15.6034549,-0.0940288965 20.5618303,4.28487196 20.9179809,10.0431266" id="Fill-77" fill="#0E244C" mask="url(#mask-7)"></path>
                            </g>
                            <path d="M47.5576367,239.860543 C47.7021404,242.176981 45.9403626,244.1723 43.6224644,244.315344 C41.3060259,244.459848 39.3107067,242.696611 39.166203,240.380172 C39.0231589,238.063734 40.7849367,236.068414 43.1013752,235.92537 C45.4192734,235.782326 47.4131329,237.544104 47.5576367,239.860543" id="Fill-80" fill="#EAE8FF"></path>
                            <path d="M43.3641093,241.357251 C42.8123678,241.357251 42.2723033,241.095976 41.9351279,240.608459 L34.8252526,230.299067 C33.8005898,228.81316 33.2517675,227.051382 33.2517675,225.245815 L33.2517675,181.753112 C33.2517675,180.80435 33.983044,179.975278 34.9332655,179.947545 C35.9141393,179.918353 36.7183974,180.705095 36.7183974,181.68013 L36.7183974,224.167146 C36.7183974,225.971253 37.2672196,227.73449 38.2918824,229.220397 L44.7580594,238.594164 C45.2762293,239.345876 45.1667568,240.389514 44.4602941,240.964609 C44.1333362,241.231722 43.7465333,241.357251 43.3641093,241.357251" id="Fill-82" fill="#163774"></path>
                            <path d="M30.2472577,214.985466 L14.5664137,164.860188 C14.5664137,164.860188 9.98608341,200.794908 11.0136655,212.917166 C15.7136857,213.646982 23.8744973,215.402922 30.2472577,214.985466" id="Fill-84" fill="#0E244C"></path>
                            <path d="M91.5690934,184.164865 L33.1749908,184.164865 C31.325635,184.164865 29.823672,182.664361 29.823672,180.813546 C29.823672,178.96273 31.325635,177.462227 33.1749908,177.462227 L91.5690934,177.462227 C92.0814248,177.462227 92.5324516,177.117754 92.6696572,176.624397 L113.189187,102.695414 C114.066426,99.5309284 116.974017,97.3195835 120.259652,97.3195835 L149.068441,97.3195835 C150.917796,97.3195835 152.4183,98.8200869 152.4183,100.670902 C152.4183,102.521718 150.917796,104.022221 149.068441,104.022221 L120.259652,104.022221 C119.975023,104.022221 119.722507,104.213433 119.646606,104.487844 L99.1285359,178.416827 C98.1885319,181.801718 95.0809719,184.164865 91.5690934,184.164865" id="Fill-86" fill="#163774"></path>
                            <path d="M116.421253,106.217802 C116.421253,106.217802 124.56309,112.457736 146.057654,106.217802 L126.524837,179.867995 L97.0592134,169.189316 L116.421253,106.217802 Z" id="Fill-88" fill="#0E244C"></path>
                            <path d="M92.3046028,169.189462 C73.2943345,169.189462 57.8265971,186.198572 57.8265971,207.104905 C57.8265971,228.011237 73.2943345,245.020347 92.3046028,245.020347 C111.316331,245.020347 126.782609,228.011237 126.782609,207.104905 C126.782609,186.198572 111.316331,169.189462 92.3046028,169.189462 M92.3046028,250.566955 C70.2349425,250.566955 52.2785297,231.070629 52.2785297,207.104905 C52.2785297,183.14064 70.2349425,163.642854 92.3046028,163.642854 C114.374263,163.642854 132.330676,183.14064 132.330676,207.104905 C132.330676,231.070629 114.374263,250.566955 92.3046028,250.566955" id="Fill-90" fill="#0E244C"></path>
                            <path d="M92.3046028,215.214921 C88.1869764,215.214921 84.8356576,211.576054 84.8356576,207.105196 C84.8356576,202.632879 88.1869764,198.995472 92.3046028,198.995472 C96.4222293,198.995472 99.773548,202.632879 99.773548,207.105196 C99.773548,211.576054 96.4222293,215.214921 92.3046028,215.214921" id="Fill-92" fill="#0E244C"></path>
                            <path d="M129.07759,207.072939 L96.6926994,206.286196 L97.2371427,206.059953 L97.1072353,206.064332 L126.413759,193.574247 C126.883761,193.374277 127.101247,192.831293 126.901277,192.361291 C126.701307,191.891289 126.158323,191.672344 125.689781,191.872314 L95.8154596,204.603238 L119.023634,178.961855 C119.368108,178.58381 119.337455,177.999956 118.95941,177.656942 C118.581365,177.313928 117.996052,177.343121 117.654498,177.721166 L94.5280627,203.272053 L105.551216,169.475696 C105.710316,168.991097 105.444663,168.468549 104.960064,168.310908 C104.474006,168.151808 103.951457,168.417461 103.793817,168.903519 L93.2289888,201.28987 L93.2289888,167.089195 C93.2289888,166.578323 92.8144528,166.165247 92.3050407,166.165247 C91.7941689,166.165247 91.379633,166.578323 91.379633,167.089195 L91.379633,201.28987 L80.8162645,168.903519 C80.6571644,168.417461 80.1346156,168.151808 79.6500172,168.310908 C79.1654188,168.468549 78.8997655,168.991097 79.057406,169.475696 L89.9550306,202.886709 L89.1639091,201.946705 L89.4003698,202.518882 L66.954124,177.721166 C66.6125697,177.343121 66.0287163,177.313928 65.6492115,177.656942 C65.2711664,177.999956 65.2419737,178.58381 65.5849876,178.961855 L88.7931622,204.603238 L58.9217602,191.872314 C58.4517581,191.672344 57.9073148,191.891289 57.707345,192.361291 C57.5073752,192.831293 57.7263202,193.374277 58.1948626,193.574247 L87.5028461,206.064332 L87.3729387,206.059953 L87.9188417,206.286196 L55.5310313,207.072939 C55.0216191,207.086075 54.615841,207.509369 54.6286675,208.020241 C54.6421144,208.522355 55.0522714,208.922294 55.5529258,208.922294 L55.5762799,208.922294 L87.3729387,208.148689 L57.4708843,220.548276 C56.9994227,220.743867 56.7775584,221.283931 56.9731493,221.756853 C57.1191126,222.111544 57.4635862,222.32757 57.827035,222.32757 C57.9452653,222.32757 58.0649552,222.304215 58.1802663,222.256047 L88.8573861,209.53534 L88.7931622,209.605403 L89.0923871,209.478415 L66.5892156,236.159058 C66.260798,236.54878 66.3104256,237.132633 66.7001477,237.461051 C66.8738441,237.607014 67.085491,237.678536 67.2956782,237.678536 C67.5598719,237.678536 67.8196867,237.567604 68.0021409,237.351578 L89.2967358,212.104296 L77.0051611,242.667564 C76.8139491,243.140485 77.0445712,243.67909 77.5189521,243.868842 C77.9918734,244.060054 78.5304782,243.830892 78.7202306,243.356511 L91.379633,211.880972 L91.379633,212.920231 L91.7562185,211.76858 L92.30796,247.881375 C92.351749,248.360135 92.7546079,248.717745 93.2260695,248.717745 C93.2552622,248.717745 93.2859145,248.716286 93.3136475,248.713366 C93.8230597,248.665199 94.1967259,248.214172 94.1470983,247.706219 L93.1370319,212.637062 L93.2289888,212.920231 L93.2289888,211.745226 L106.824016,244.508162 C106.96998,244.864313 107.314453,245.078879 107.677902,245.078879 C107.796132,245.078879 107.915822,245.055525 108.031133,245.008816 C108.502595,244.811766 108.727379,244.271701 108.531788,243.80024 L95.4461722,212.263396 L116.606481,237.351578 C116.936358,237.741301 117.518752,237.789468 117.909934,237.461051 C118.298196,237.132633 118.347824,236.54878 118.019406,236.159058 L95.5162347,209.478415 L95.8154596,209.605403 L95.7512357,209.53534 L126.429815,222.256047 C126.545126,222.304215 126.664816,222.32757 126.783046,222.32757 C127.145036,222.32757 127.489509,222.111544 127.636932,221.756853 C127.832523,221.283931 127.609199,220.743867 127.137737,220.548276 L97.2371427,208.148689 L129.033801,208.922294 C129.538835,208.929593 129.966507,208.531113 129.979955,208.020241 C129.992781,207.509369 129.588462,207.086075 129.07759,207.072939" id="Fill-94" fill="#0E244C"></path>
                            <path d="M125.599576,179.820995 C125.599576,179.820995 113.237938,163.642416 80.8807803,163.642416 C39.8957279,163.642416 29.3425768,174.505009 32.114421,179.820995 C34.8891845,185.136981 60.8969364,182.713989 73.2001882,182.538833 C85.50344,182.363677 125.599576,179.820995 125.599576,179.820995" id="Fill-96" fill="#0E244C"></path>
                            <path d="M123.457125,184.164865 L65.0630227,184.164865 C63.2136669,184.164865 61.7117039,182.664361 61.7117039,180.813546 C61.7117039,178.96273 63.2136669,177.462227 65.0630227,177.462227 L123.457125,177.462227 C123.969457,177.462227 124.421943,177.117754 124.559149,176.624397 L145.077218,102.695414 C145.955918,99.5309284 148.863508,97.3195835 152.147684,97.3195835 L180.956472,97.3195835 C182.805828,97.3195835 184.306332,98.8200869 184.306332,100.670902 C184.306332,102.521718 182.805828,104.022221 180.956472,104.022221 L152.147684,104.022221 C151.863055,104.022221 151.610539,104.213433 151.534638,104.487844 L131.016568,178.416827 C130.078023,181.801718 126.969004,184.164865 123.457125,184.164865" id="Fill-98" fill="#163774"></path>
                            <path d="M74.3697926,230.30943 L74.4748862,229.861322 L71.7672658,229.321258 C71.567296,229.27455 71.364407,229.23514 71.1615179,229.200108 L71.0783188,229.184052 L71.0783188,229.185512 C70.3251478,229.064363 69.5457035,229.020574 68.7516628,229.068741 C62.9934082,229.426352 58.6159669,234.384727 58.9721175,240.142982 C59.2582057,244.77294 62.5219465,248.508142 66.782617,249.610165 L66.7811574,249.611625 L66.8059712,249.617464 C67.1767181,249.71088 67.5562228,249.788241 67.9415661,249.842247 L69.7281577,250.198398 L69.7909219,249.931285 C69.8755807,249.928365 69.9602394,249.928365 70.0448982,249.922527 C75.8031528,249.564917 80.1820537,244.608001 79.8244434,238.849746 C79.5938213,235.118923 77.4306443,231.969033 74.3697926,230.30943" id="Fill-100" fill="#0E244C"></path>
                            <g id="Group-104" transform="translate(61.304612, 229.431051)">
                                <mask id="mask-9" fill="white">
                                    <use xlink:href="#path-8"></use>
                                </mask>
                                <g id="Clip-103"></g>
                                <path d="M21.6120652,10.0431266 C21.9696754,15.8013812 17.5907746,20.758297 11.8325199,21.1159072 C6.07280568,21.4735175 1.1158899,17.0946166 0.759739299,11.3349024 C0.402129062,5.57664772 4.78102992,0.619731944 10.5392846,0.262121707 C16.2975392,-0.0940288965 21.2559146,4.28487196 21.6120652,10.0431266" id="Fill-102" fill="#2550A0" mask="url(#mask-9)"></path>
                            </g>
                            <path d="M76.6862311,239.860543 C76.8292752,242.176981 75.0674975,244.1723 72.7510589,244.315344 C70.4331607,244.459848 68.4393012,242.696611 68.2947975,240.380172 C68.1502937,238.063734 69.9120715,236.068414 72.2299697,235.92537 C74.5464083,235.782326 76.5417274,237.544104 76.6862311,239.860543" id="Fill-105" fill="#EAE8FF"></path>
                            <path d="M72.4910982,241.357251 C71.9408163,241.357251 71.3992922,241.095976 71.0621168,240.608459 L63.9537011,230.299067 C62.9290383,228.81316 62.3802161,227.051382 62.3802161,225.245815 L62.3802161,181.753112 C62.3802161,180.80435 63.1114925,179.975278 64.061714,179.947545 C65.0411282,179.918353 65.8468459,180.705095 65.8468459,181.68013 L65.8468459,224.167146 C65.8468459,225.971253 66.3956682,227.73449 67.420331,229.220397 L73.8850483,238.594164 C74.4046778,239.345876 74.2952053,240.389514 73.5887426,240.964609 C73.2617847,241.231722 72.8749818,241.357251 72.4910982,241.357251" id="Fill-107" fill="#163774"></path>
                            <path d="M109.947048,149.504259 C109.947048,149.504259 109.639066,170.81345 88.98525,169.917235 C68.3299746,169.02102 55.2939868,165.317929 50.763284,166.78924 C46.2340409,168.260551 44.9218303,211.083282 44.0635657,222.700506 C43.2067608,234.31919 39.134383,226.885275 33.8359129,226.873598 C28.5389025,226.863381 8.02375197,167.676697 15.0767016,147.684096 C22.1296513,127.692954 48.4658207,123.538836 72.0476615,127.555748 C98.5093594,132.063097 110.704598,145.63623 109.947048,149.504259" id="Fill-109" fill="#F39B9B"></path>
                            <path d="M106.198177,148.452652 C106.198177,148.452652 105.890195,169.761844 85.236379,168.865629 C64.5811037,167.969413 51.5451158,164.266323 47.0144131,165.737634 C42.4851699,167.208944 48.5908174,197.579541 47.7325528,209.198225 C46.8742882,220.815449 21.8371927,213.231192 16.5387227,213.220975 C11.2402526,213.210758 4.27488101,166.625091 11.3278307,146.632489 C18.3807803,126.641347 44.7169497,122.48723 68.2987905,126.504142 C94.7604884,131.01149 106.955727,144.584623 106.198177,148.452652" id="Fill-111" fill="#163774"></path>
                            <path d="M110.705357,150.262567 C111.162222,147.928613 106.895713,142.062345 97.6328779,136.78577 C95.3602283,143.249027 91.2674156,150.757383 84.2801495,152.177606 C71.5886352,154.755319 55.6027278,148.65697 45.8406981,154.038639 C36.0757492,159.418849 30.299979,156.340481 32.6499891,173.124808 C34.9999992,189.910595 34.2891576,198.519514 36.4377383,212.867713 C36.6610623,214.362377 36.5136393,215.808874 36.1180786,217.195526 C43.9358762,217.979349 51.7668106,217.415931 52.2397319,211.008139 C53.0979965,199.389456 46.992349,169.018859 51.5215922,167.547548 C56.0522949,166.076238 69.0882828,169.779328 89.7435581,170.675543 C110.397374,171.571758 110.705357,150.262567 110.705357,150.262567" id="Fill-113" fill="#0E244C"></path>
                            <path d="M108.990551,155.408477 L83.0776748,142.442551 C83.0776748,142.442551 89.7832317,162.381147 98.2841379,168.483875 C104.874384,165.79377 107.744023,159.918745 108.990551,155.408477" id="Fill-115" fill="#0E244C"></path>
                            <path d="M29.995033,222.164528 C29.995033,222.164528 33.2821279,225.610723 31.4240143,228.032256 C30.6139177,229.087571 28.4638773,229.735648 25.4964422,230.672733 C24.0441067,231.71929 22.5946906,233.100104 24.0105352,233.695634 C26.4393655,234.715918 41.1057641,236.029588 42.6967648,233.7511 C43.229531,232.986252 43.8717698,232.402399 44.5650958,231.964509 C42.863163,228.935769 44.0717396,225.310039 44.0644415,222.701674 L29.995033,222.164528 Z" id="Fill-117" fill="#F39B9B"></path>
                            <path d="M42.6969107,233.7511 C41.2066248,235.886544 33.0969004,224.939292 26.740196,229.537138 C25.6264955,230.344315 24.4646272,231.08289 23.1918267,231.609818 C19.0479268,233.326347 14.8529398,235.277877 14.5741498,236.553597 C14.0238679,239.075844 40.7191072,241.371847 45.3724192,239.294789 C47.807088,238.207362 46.4321132,235.286635 44.5652418,231.964509 C43.8719158,232.402399 43.229677,232.986252 42.6969107,233.7511" id="Fill-119" fill="#163774"></path>
                            <path d="M72.3714082,117.146517 C77.7341021,102.574994 62.5349372,80.3885633 88.6039937,71.0439889 C131.96533,55.5018101 127.671088,129.972317 113.861494,165.369892 C111.696857,170.91796 99.1367099,165.054611 91.5042857,153.761426 C81.7948029,139.391333 72.9056341,131.569157 71.1832664,128.220757 C69.6958998,125.335061 70.9424269,121.029142 72.3714082,117.146517" id="Fill-121" fill="#D8E7EB"></path>
                            <path d="M95.4305542,57.9116652 L99.1102905,69.0559679 C99.7087403,70.8936466 96.6697831,77.0605987 93.0265376,75.6476733 C91.9595454,75.234597 92.2762859,72.350361 92.4733365,70.1842647 L91.6252893,59.880711 L95.4305542,57.9116652 Z" id="Fill-123" fill="#F39B9B"></path>
                            <path d="M95.889463,64.0031542 C95.2924728,61.1962787 93.0738297,62.7697638 91.9469926,63.792967 L92.4622432,70.0650126 C93.5978382,69.3322765 96.5477577,67.0961178 95.889463,64.0031542" id="Fill-125" fill="#0E244C"></path>
                            <path d="M93.1711873,53.916794 L95.4613524,57.8592644 C97.2771367,60.9843399 96.4320088,65.1121838 93.3448837,66.9921919 C90.4942192,68.7262367 86.8524333,68.1131905 84.893605,64.4203175 C83.1551814,61.1376015 84.4425782,57.2199448 84.7213683,55.3209615 C85.3563089,50.9931478 90.208131,49.5758436 93.1711873,53.916794" id="Fill-127" fill="#F39B9B"></path>
                            <path d="M95.3193301,58.3057663 C95.4317219,57.920423 95.4857283,57.5248623 95.5163806,57.1249227 C95.5718467,56.3644536 95.8316615,55.2492935 96.9176289,55.8871534 C98.4969525,56.8140207 97.9758633,60.8455288 96.0754203,61.0148463 C94.6639546,61.1403748 95.0361612,59.274963 95.3193301,58.3057663" id="Fill-129" fill="#F39B9B"></path>
                            <path d="M102.37082,69.1439838 C102.544517,74.6599393 102.73135,84.182589 102.21026,90.026962 C101.439574,98.6358811 95.809767,95.0495613 94.7602904,108.44024 C94.0027406,118.116151 92.7532942,139.743543 91.6965194,154.034816 C99.3449996,165.147006 111.713935,170.871689 113.861056,165.37033 C125.992071,134.275755 130.77529,73.0426652 102.37082,69.1439838" id="Fill-131" fill="#C1D6DB"></path>
                            <path d="M89.3381894,61.9198191 C89.3381894,61.9198191 87.7325924,62.3620881 85.3606878,62.0759999 C85.3606878,62.0759999 85.527086,63.2305701 86.280257,63.6626217 C87.192528,64.1866301 88.7630938,63.8655107 89.3381894,61.9198191" id="Fill-133" fill="#FFFFFF"></path>
                            <path d="M92.4413705,65.7698947 C91.1977626,66.2982821 88.7674727,66.6704887 87.5486786,66.2603316 C86.4685497,65.8983425 85.1052519,64.5408832 84.8089463,64.2358198 C84.838139,64.2971244 84.8629527,64.3598887 84.893605,64.4197336 C86.8524333,68.1126067 90.4942192,68.7271124 93.3448837,66.9916081 C95.2482459,65.832659 96.2962629,63.8212838 96.3969776,61.7150325 C95.3110102,63.992061 93.5609095,65.2955138 92.4413705,65.7698947" id="Fill-135" fill="#C87171"></path>
                            <path d="M106.501729,87.648781 C106.501729,87.648781 103.764916,96.3642533 106.821389,109.277632 C108.262047,115.368683 117.224198,119.800131 117.224198,119.800131 L119.972688,111.907892 L106.501729,87.648781 Z" id="Fill-137" fill="#0E244C"></path>
                            <path d="M37.9901762,236.462953 C37.6544604,236.462953 37.3114465,236.389972 36.9874079,236.233791 C35.8372166,235.67913 35.3555375,234.298317 35.9101983,233.148125 L61.850807,179.325595 C62.4054677,178.176864 63.7862811,177.693725 64.9364724,178.248386 C66.0866637,178.803047 66.5683428,180.18386 66.013682,181.332592 L40.074533,235.155122 C39.6745934,235.981274 38.8499004,236.462953 37.9901762,236.462953" id="Fill-139" fill="#163774"></path>
                            <path d="M87.4038829,204.688919 C86.9397194,204.688919 86.4828541,204.471434 86.1953063,204.062736 C69.4752032,180.346609 87.5367096,139.974603 88.3132347,138.268291 L88.3920549,138.117949 L89.84585,135.700796 C90.2662245,135.003091 91.1726569,134.776847 91.8732811,135.197222 C92.5709859,135.617596 92.7972292,136.524029 92.3768547,137.223193 L90.9683082,139.564446 C90.1056648,141.513057 73.1855918,180.483815 88.6095403,202.362263 C89.0795423,203.027856 88.9189826,203.948885 88.2533897,204.418887 C87.9950345,204.601341 87.6987289,204.688919 87.4038829,204.688919" id="Fill-141" fill="#2550A0"></path>
                            <path d="M140.225834,140.742224 L85.3611257,140.742224 L85.3611257,139.775947 C85.3611257,136.150217 88.3008278,133.209055 91.9265577,133.209055 L140.225834,133.209055 L140.225834,140.742224 Z" id="Fill-143" fill="#163774"></path>
                            <path d="M125.599576,169.189462 C106.589307,169.189462 91.1215698,186.198572 91.1215698,207.104905 C91.1215698,228.011237 106.589307,245.020347 125.599576,245.020347 C144.611303,245.020347 160.077581,228.011237 160.077581,207.104905 C160.077581,186.198572 144.611303,169.189462 125.599576,169.189462 M125.599576,250.566955 C103.529915,250.566955 85.574962,231.070629 85.574962,207.104905 C85.574962,183.14064 103.529915,163.642854 125.599576,163.642854 C147.669236,163.642854 165.625649,183.14064 165.625649,207.104905 C165.625649,231.070629 147.669236,250.566955 125.599576,250.566955" id="Fill-145" fill="#0E244C"></path>
                            <path d="M125.599576,215.214921 C121.481949,215.214921 118.13063,211.576054 118.13063,207.105196 C118.13063,202.632879 121.481949,198.995472 125.599576,198.995472 C129.717202,198.995472 133.068521,202.632879 133.068521,207.105196 C133.068521,211.576054 129.717202,215.214921 125.599576,215.214921" id="Fill-147" fill="#0E244C"></path>
                            <path d="M162.372709,207.072939 L129.987818,206.286196 L130.532261,206.059953 L130.402354,206.064332 L159.708878,193.574247 C160.17888,193.374277 160.396365,192.831293 160.197855,192.361291 C159.996426,191.891289 159.453442,191.672344 158.9849,191.872314 L129.110578,204.603238 L152.318753,178.961855 C152.663226,178.58381 152.632574,177.999956 152.254529,177.656942 C151.876484,177.313928 151.291171,177.343121 150.949616,177.721166 L127.823181,203.272053 L138.846334,169.475696 C139.005435,168.991097 138.741241,168.468549 138.255183,168.310908 C137.769125,168.151808 137.246576,168.417461 137.088936,168.903519 L126.524107,201.28987 L126.524107,167.089195 C126.524107,166.578323 126.109571,166.165247 125.600159,166.165247 C125.089288,166.165247 124.676211,166.578323 124.676211,167.089195 L124.676211,201.28987 L114.111383,168.903519 C113.952283,168.417461 113.431194,168.151808 112.945136,168.310908 C112.460538,168.468549 112.194884,168.991097 112.352525,169.475696 L123.251609,202.886709 L122.459028,201.946705 L122.695488,202.518882 L100.250702,177.721166 C99.9076884,177.343121 99.3238349,177.313928 98.9443302,177.656942 C98.5662851,177.999956 98.5370924,178.58381 98.8801063,178.961855 L122.088281,204.603238 L92.2168788,191.872314 C91.7468768,191.672344 91.2024335,191.891289 91.0024637,192.361291 C90.8024938,192.831293 91.0214389,193.374277 91.4899813,193.574247 L120.797965,206.064332 L120.668057,206.059953 L121.21396,206.286196 L88.8261499,207.072939 C88.3167378,207.086075 87.9109596,207.509369 87.9237862,208.020241 C87.9372331,208.522355 88.3473901,208.922294 88.8480444,208.922294 L88.8713986,208.922294 L120.668057,208.148689 L90.766003,220.548276 C90.2945413,220.743867 90.072677,221.283931 90.2682679,221.756853 C90.4142313,222.111544 90.7587048,222.32757 91.1221536,222.32757 C91.2403839,222.32757 91.3600739,222.304215 91.4753849,222.256047 L122.152505,209.53534 L122.088281,209.605403 L122.387506,209.478415 L99.8843342,236.159058 C99.5559167,236.54878 99.6055442,237.132633 99.9952664,237.461051 C100.168963,237.607014 100.38061,237.678536 100.590797,237.678536 C100.854991,237.678536 101.114805,237.567604 101.29726,237.351578 L122.593314,212.104296 L110.30028,242.667564 C110.109068,243.140485 110.33969,243.67909 110.814071,243.868842 C111.286992,244.060054 111.825597,243.830892 112.015349,243.356511 L124.676211,211.880972 L124.676211,212.920231 L125.051337,211.76858 L125.601619,247.881375 C125.648327,248.360135 126.049727,248.717745 126.521188,248.717745 C126.550381,248.717745 126.581033,248.716286 126.610226,248.713366 C127.118178,248.665199 127.491845,248.214172 127.442217,247.706219 L126.432151,212.637062 L126.524107,212.920231 L126.524107,211.745226 L140.119135,244.508162 C140.265098,244.864313 140.611032,245.078879 140.973021,245.078879 C141.091251,245.078879 141.210941,245.055525 141.326252,245.008816 C141.797714,244.811766 142.022497,244.271701 141.826906,243.80024 L128.741291,212.263396 L149.9016,237.351578 C150.231477,237.741301 150.813871,237.789468 151.205052,237.461051 C151.593315,237.132633 151.642942,236.54878 151.314525,236.159058 L128.811353,209.478415 L129.110578,209.605403 L129.046354,209.53534 L159.724934,222.256047 C159.840245,222.304215 159.959935,222.32757 160.078165,222.32757 C160.441614,222.32757 160.784628,222.111544 160.932051,221.756853 C161.127642,221.283931 160.904318,220.743867 160.432856,220.548276 L130.532261,208.148689 L162.32892,208.922294 C162.833953,208.929593 163.263086,208.531113 163.275075,208.020241 C163.287899,207.509369 162.885041,207.086075 162.372709,207.072939" id="Fill-149" fill="#0E244C"></path>
                            <path d="M130.548609,172.366646 C113.357044,172.366646 99.3708351,187.949695 99.3708351,207.104467 C99.3708351,226.259239 113.357044,241.843747 130.548609,241.843747 C147.738714,241.843747 161.724924,226.259239 161.724924,207.104467 C161.724924,187.949695 147.738714,172.366646 130.548609,172.366646 M130.548609,244.154347 C112.082784,244.154347 97.0602351,227.533499 97.0602351,207.104467 C97.0602351,186.675434 112.082784,170.056046 130.548609,170.056046 C149.012975,170.056046 164.036983,186.675434 164.036983,207.104467 C164.036983,227.533499 149.012975,244.154347 130.548609,244.154347" id="Fill-151" fill="#2550A0"></path>
                            <path d="M139.2381,123.736179 C138.233872,102.291242 125.146797,84.4515995 112.410034,73.8940695 C111.474409,73.1160848 106.53063,74.183077 105.625657,83.1510659 C104.720684,92.1190549 115.670856,117.229132 115.670856,117.229132 C115.670856,117.229132 107.707095,118.446466 103.764624,119.202557 C76.0315855,124.511244 73.9194956,138.539783 84.7368404,135.934337 C95.5556448,133.330351 140.240868,145.179656 139.2381,123.736179" id="Fill-153" fill="#F39B9B"></path>
                            <path d="M139.2381,123.736179 C138.340425,104.56681 127.785815,88.2816781 116.460517,77.5008242 C115.330761,81.5834194 114.460819,88.3780139 118.130338,95.0485396 C123.920705,105.571038 129.524238,106.766478 130.548901,116.332917 C131.572104,125.897896 135.2533,132.355315 123.009894,130.441736 C110.766487,128.528156 112.309319,127.411536 103.764624,128.687256 C99.6688923,129.300302 95.5760796,132.423918 92.3867802,135.607379 C108.914212,136.310922 140.077389,141.685293 139.2381,123.736179" id="Fill-155" fill="#C87171"></path>
                            <path d="M130.384692,95.0146761 C128.822884,92.3391676 127.115113,89.7979455 125.306627,87.4070656 C122.996027,87.6989924 120.948161,88.2989018 120.571576,88.5922881 C119.495826,89.4286582 109.980474,100.070847 109.980474,100.070847 C109.980474,100.070847 124.403114,101.152435 130.384692,95.0146761" id="Fill-157" fill="#0E244C"></path>
                            <path d="M82.9366742,128.708129 C79.3970627,128.198717 74.9057701,137.286396 73.8898651,140.395415 C72.8725004,143.504435 76.8791947,149.065639 78.9708497,149.183869 C81.0639643,149.303559 81.4215745,149.005794 81.1238093,147.928584 C80.8245844,146.852834 80.0480593,145.238479 80.0480593,145.238479 C80.0480593,145.238479 83.1556193,140.042184 83.6942241,137.887765 C84.2328289,135.731886 85.3684238,129.058441 82.9366742,128.708129" id="Fill-159" fill="#F39B9B"></path>
                            <path d="M127.23743,90.0713349 C122.788467,83.6460277 117.570277,78.1724016 112.410472,73.8942155 C111.473387,73.1162307 106.529608,74.1832229 105.624635,83.1512119 C105.211559,87.2469438 105.198422,94.7100505 107.56011,101.611198 C111.483605,100.478523 124.680152,96.7272642 127.23743,90.0713349" id="Fill-161" fill="#D8E7EB"></path>
                            <path d="M127.23743,90.0713349 C122.788467,83.6460277 117.570277,78.1724016 112.410472,73.8942155 C111.883544,73.4563254 110.091114,73.6022887 108.462163,75.4078555 C109.697013,76.4471147 111.873327,78.6467825 112.792896,81.895927 C114.115324,86.5594564 113.756254,88.5912664 113.638024,90.5048461 C113.538769,92.0710329 115.202751,96.6805559 115.971978,98.7605338 C120.718707,96.7973266 125.757362,93.9218484 127.23743,90.0713349" id="Fill-163" fill="#C1D6DB"></path>
                            <path d="M83.2145885,55.6330312 C82.5489955,55.6330312 82.0089311,56.2665122 82.0089311,57.0444969 L82.0089311,58.7785416 C82.0089311,59.557986 82.5489955,60.191467 83.2145885,60.191467 L84.8887882,60.191467 C85.4828591,60.191467 85.9820538,59.6937319 86.0798493,59.0091637 L86.3250677,57.2736594 C86.3819934,56.8635023 86.284198,56.4475067 86.0535759,56.1307662 C85.8244134,55.8140257 85.4886977,55.6330312 85.1340067,55.6330312 L83.2145885,55.6330312 Z M84.8887882,61.0906013 L83.2145885,61.0906013 C82.1257018,61.0906013 81.2382446,60.0542614 81.2382446,58.7785416 L81.2382446,57.0444969 C81.2382446,55.7687771 82.1257018,54.7324372 83.2145885,54.7324372 L85.1340067,54.7324372 C85.7164005,54.7324372 86.2652227,55.0302025 86.6403486,55.5483724 C87.0154744,56.068002 87.1774938,56.7496509 87.0826176,57.4210824 L86.8373991,59.1551271 C86.6812183,60.2775853 85.8609042,61.0906013 84.8887882,61.0906013 L84.8887882,61.0906013 Z" id="Fill-165" fill="#0E244C"></path>
                            <path d="M89.5634109,55.6330312 C89.2101795,55.6330312 88.8730042,55.8140257 88.6438417,56.1307662 C88.4146792,56.4475067 88.3168838,56.8635023 88.3738095,57.2736594 L88.6190279,59.0091637 C88.7153637,59.6937319 89.2160181,60.191467 89.8086293,60.191467 L91.4828291,60.191467 C92.148422,60.191467 92.6914057,59.557986 92.6914057,58.7785416 L92.6914057,57.0444969 C92.6914057,56.2665122 92.148422,55.6330312 91.4828291,55.6330312 L89.5634109,55.6330312 Z M91.4828291,61.0906013 L89.8086293,61.0906013 C88.837973,61.0906013 88.0176589,60.2775853 87.8585588,59.1551271 L87.6148,57.4210824 C87.5213834,56.7496509 87.6819431,56.068002 88.0585286,55.5483724 C88.4336544,55.0302025 88.9824767,54.7324372 89.5634109,54.7324372 L91.4828291,54.7324372 C92.5731754,54.7324372 93.459173,55.7687771 93.459173,57.0444969 L93.459173,58.7785416 C93.459173,60.0542614 92.5731754,61.0906013 91.4828291,61.0906013 L91.4828291,61.0906013 Z" id="Fill-167" fill="#0E244C"></path>
                            <path d="M87.7617851,57.9700506 C87.646474,57.8313854 87.4859143,57.6591486 87.3063794,57.6810431 C87.1210059,57.6956394 86.9721233,57.9189634 86.9721233,57.920423 L86.3459405,57.3964145 C86.3809717,57.3380292 86.7006314,56.832996 87.2436152,56.7833684 C87.6143621,56.7512565 87.9763512,56.9380896 88.3135266,57.3424081 L87.7617851,57.9700506 Z" id="Fill-169" fill="#0E244C"></path>
                            <path d="M196.247886,31.0144596 C204.591152,30.9576329 224.834811,55.4532043 229.528992,77.8585804 C235.066842,104.296924 174.287698,112.891247 174.114002,101.44334 C173.940306,89.9954339 206.335414,89.5896558 209.098501,78.7270624 C211.522952,69.1956548 197.942521,53.9658376 193.591353,43.128058 C190.067797,34.35566 192.64697,31.0393724 196.247886,31.0144596" id="Fill-171" fill="#F39B9B"></path>
                            <path d="M229.5287,77.8590183 C227.045864,66.0053336 220.20894,53.5692552 213.085928,44.4917937 C213.0363,52.386952 213.332606,63.884486 215.349819,67.2358048 C218.512846,72.4919454 227.374281,78.2151689 222.944293,83.9383923 C218.512846,89.6616157 214.427331,90.7694776 205.948319,93.1691153 C197.467848,95.568753 190.305426,101.681699 184.90916,102.218844 C180.747745,102.63192 177.078226,100.913931 175.998097,104.363046 C186.215532,110.908043 234.491455,101.547412 229.5287,77.8590183" id="Fill-173" fill="#C87171"></path>
                            <path d="M206.907153,67.198876 C207.879269,69.3153448 208.628061,71.3646704 209.036758,73.2986849 C213.049291,71.3354777 223.205422,66.0428462 221.991006,63.3177103 C220.814542,60.6786927 211.122575,65.1159789 206.907153,67.198876" id="Fill-175" fill="#0E244C"></path>
                            <path d="M223.812629,61.6896349 C215.772967,45.0863025 202.630426,28.6581261 196.295616,28.7003738 C192.697619,28.7252692 189.052914,33.4428051 192.57501,42.2152031 C194.863716,47.9136128 199.6265,56.1444868 202.739899,63.0295786 C203.945556,65.6934099 205.053418,68.2915578 205.948173,70.7072514 C209.597257,69.7234584 219.264411,66.4363634 223.812629,61.6896349" id="Fill-177" fill="#BA104A"></path>
                            <path d="M178.146386,97.6916441 C178.146386,97.6916441 175.405194,94.0921876 172.175025,95.0146761 C168.943396,95.9386241 166.175931,95.8028782 166.451801,97.3194375 C166.672206,98.5265546 170.875951,97.9689745 170.782534,99.6300376 C170.690577,101.291101 167.836994,104.022075 165.251982,104.022075 C162.668431,104.022075 163.405546,104.68037 164.144121,105.293416 C164.882695,105.906462 170.881789,106.99097 175.775941,106.217364 C180.668633,105.445218 180.608788,98.1528883 178.146386,97.6916441" id="Fill-179" fill="#F39B9B"></path>
                            <path d="M196.296346,28.7009577 C195.624915,28.7054182 194.950564,28.8747357 194.321462,29.2016936 C195.327149,30.7839365 197.013026,32.8843493 199.682696,34.7322454 C204.759302,38.2470432 208.452175,37.415052 208.082888,43.231692 C207.7136,49.0454127 209.02727,54.9744445 211.511567,58.9227534 C212.810641,60.988135 214.261517,64.4255722 215.350403,67.2353669 C218.530945,65.7509195 221.715866,63.8782096 223.813359,61.6902188 C215.773697,45.0854267 202.631156,28.6587099 196.296346,28.7009577" id="Fill-181" fill="#930C3A"></path>
                            <path d="M204.962921,68.1889455 C207.559609,67.6313655 215.073803,65.4798655 222.122374,58.3772883 C221.878615,57.9218826 221.633396,57.4693962 221.382339,57.0183694 C214.28852,64.3019412 206.507213,66.3527264 204.386365,66.7949954 C204.584876,67.2649975 204.776088,67.7291609 204.962921,68.1889455" id="Fill-183" fill="#FFFFFF"></path>
                            <path d="M138.921652,55.8005971 C139.755102,59.57375 141.919739,67.7287231 145.583419,70.7822766 C146.603703,71.6303237 147.421098,72.3221901 148.08961,72.8958261 C148.451599,72.5747067 148.826725,72.2477487 149.214988,71.9149523 C148.509985,71.3092043 147.631285,70.5662508 146.529262,69.6481413 C142.922507,66.6427556 140.789983,57.5521575 140.171098,54.5628278 C139.750723,54.9744445 139.334728,55.3860612 138.921652,55.8005971" id="Fill-185" fill="#D3D3D3"></path>
                            <polygon id="Fill-187" fill="#FFFFFF" points="180.927426 47.8623797 191.559397 48.8228186 191.141942 54.0935556 180.210746 53.2221543"></polygon>
                            <path d="M184.991338,28.1231704 C184.991338,28.1231704 184.095123,25.2885619 184.293633,24.415701 C184.492143,23.5442997 180.278181,27.4459004 179.795042,29.2923369 C179.313363,31.1387734 179.421376,31.9999573 179.767309,31.5080607 C180.113242,31.0147046 183.035429,30.5155099 184.035278,30.5738952 C185.035127,30.6322806 184.359316,30.6556347 184.359316,30.6556347 C184.359316,30.6556347 187.444982,31.3226873 187.80989,32.8626007 C187.80989,32.8626007 190.368628,27.6925784 190.348193,26.0315154 C190.329218,24.3689927 189.638811,23.5340823 189.638811,23.5340823 C189.638811,23.5340823 186.607152,27.6312738 184.991338,28.1231704" id="Fill-189" fill="#0E244C"></path>
                        </g>
                    </g>
                </g>
            </g>
        </g>
    </g>
</svg>