<?xml version="1.0" encoding="UTF-8"?>
<svg width="442px" height="388px" viewBox="0 0 442 388" version="1.1" xmlns="http://www.w3.org/2000/svg" xmlns:xlink="http://www.w3.org/1999/xlink">
    <!-- Generator: Sketch 57.1 (83088) - https://sketch.com -->
    <title>Illustration</title>
    <desc>Created with Sketch.</desc>
    <defs>
        <linearGradient x1="50%" y1="0%" x2="50%" y2="100%" id="linearGradient-1">
            <stop stop-color="#BA104A" stop-opacity="0" offset="0%"></stop>
            <stop stop-color="#27B8F5" offset="100%"></stop>
        </linearGradient>
        <polygon id="path-2" points="0 0.37159255 207.767272 0.37159255 207.767272 290.994842 0 290.994842"></polygon>
        <polygon id="path-4" points="0.610726787 0.732 19.2890444 0.732 19.2890444 21.6889256 0.610726787 21.6889256"></polygon>
    </defs>
    <g id="Home" stroke="none" stroke-width="1" fill="none" fill-rule="evenodd">
        <g transform="translate(-438.000000, -5395.000000)" id="Illustration">
            <g transform="translate(438.000000, 5395.000000)">
                <path d="M221,388 C343.05493,388 442,301.143241 442,194 C442,130.99182 333.252115,183.729051 280.238456,148.290969 C243.104212,123.467811 271.27757,0 221,0 C98.9450703,0 0,86.8567585 0,194 C0,301.143241 98.9450703,388 221,388 Z" id="Oval" fill="url(#linearGradient-1)" opacity="0.25"></path>
                <g id="Group-105" transform="translate(111.000000, 29.000000)">
                    <g id="Group-3" transform="translate(0.000000, 13.268000)">
                        <mask id="mask-3" fill="white">
                            <use xlink:href="#path-2"></use>
                        </mask>
                        <g id="Clip-2"></g>
                    </g>
                    <path d="M122.6485,214.7567 C98.8275,239.0147 106.3195,279.8017 137.3745,293.6407 C146.8005,297.8407 156.9225,299.3407 166.2745,294.6247 C173.6145,290.9227 188.4405,286.9677 196.4325,263.3377 C204.4235,239.7077 199.0695,196.7287 210.6475,173.7197 C222.2245,150.7107 231.6775,133.3677 221.7245,124.2927 C211.7715,115.2177 179.1385,160.7117 164.4745,177.7567 C156.7625,186.7207 137.9235,199.2007 122.6485,214.7567" id="Fill-4" fill="#2DBAF6"></path>
                    <path d="M196.4322,263.3377 C204.4242,239.7077 199.0692,196.7287 210.6472,173.7197 C221.6492,151.8547 230.7202,135.1107 223.0532,125.7127 C221.9022,128.7317 220.0242,132.0587 217.0102,135.4537 C206.5102,147.2797 191.1932,155.3707 193.0552,172.2067 C194.9172,189.0437 204.2122,190.7887 186.9772,200.4297 C169.7412,210.0707 158.4512,194.0827 158.0632,221.3927 C157.6752,248.7027 170.4672,241.6237 159.2962,256.6497 C150.2042,268.8777 131.6352,276.0057 126.9102,287.3197 C130.0252,289.7867 133.5172,291.9217 137.3742,293.6407 C146.8002,297.8407 156.9232,299.3407 166.2742,294.6247 C173.6152,290.9227 188.4412,286.9677 196.4322,263.3377" id="Fill-6" fill="#1D8EBF"></path>
                    <path d="M57.1529,197.2054 C57.1529,197.2054 46.6839,168.5024 43.9499,158.6384 C41.2149,148.7734 41.4709,139.3454 36.4979,125.9984 C31.5239,112.6514 39.8289,97.5784 41.3289,91.4864 C42.0079,88.7244 41.9189,85.0094 41.6179,81.7714 C41.9979,81.8934 42.3939,82.1004 42.8079,82.4104 C50.5699,88.2204 40.1579,108.4484 36.6329,114.7644 C36.6439,114.8134 36.6619,114.8594 36.6699,114.9104 C36.7019,115.1354 37.9579,123.5614 41.0779,137.2264 C45.0069,127.8554 52.7819,111.4334 56.8029,117.5024 C61.4749,124.5544 46.8479,138.1634 42.2389,142.1834 C44.1629,150.1964 46.6539,159.6394 49.8119,170.0474 C51.4199,154.6984 55.2339,131.1474 63.1819,137.6194 C73.3059,145.8634 57.1179,173.2874 52.9399,179.9744 C55.6639,188.3094 58.7929,197.1184 62.3709,206.2014 C64.0299,191.7264 68.5579,161.9984 77.1879,169.4204 C87.9409,178.6674 67.0539,209.6994 64.9919,212.7034 C68.7219,221.7474 72.8929,231.0054 77.5539,240.2874 C77.6789,240.5364 77.8129,240.7804 77.9399,241.0274 C78.4249,226.3564 80.5359,196.8254 89.6809,203.4674 C100.7679,211.5204 84.0839,242.2644 81.3129,247.1844 C83.6209,251.1294 86.1439,254.9464 88.8259,258.6384 C87.7409,258.4494 86.6299,258.3244 85.4929,258.2674 C82.6069,253.2334 78.1169,245.3664 74.6899,239.2054 C69.2069,229.3464 57.1529,197.2054 57.1529,197.2054" id="Fill-8" fill="#FAACAC"></path>
                    <path d="M24.0358,232.0672 C33.1368,220.5792 61.7058,235.0662 73.9468,242.0672 C69.2648,232.7432 65.0728,223.4422 61.3228,214.3522 C50.9568,213.9212 10.7138,211.5732 18.6558,201.2662 C25.9818,191.7592 50.1038,204.0442 59.2308,209.1942 C55.8188,200.6212 52.8018,192.2752 50.1448,184.3232 C39.7748,181.6522 1.5058,171.0692 11.3508,162.6992 C19.9918,155.3542 39.2508,170.1602 47.9738,177.6672 C43.7908,164.5242 40.6188,152.6612 38.2808,142.9072 C29.8278,141.1732 6.8378,135.8402 12.7708,130.1802 C18.0818,125.1132 30.8118,133.4872 37.1998,138.2932 C35.0188,128.7682 33.7298,121.7342 33.1198,118.1532 C25.7888,115.6472 1.8018,106.8942 8.6718,101.8882 C15.0158,97.2652 27.7438,108.9952 32.9158,114.2442 C32.9938,114.1022 33.0878,113.9722 33.1958,113.8532 C33.5368,104.4172 35.0588,79.6692 41.6178,81.7722 C41.9188,85.0092 42.0088,88.7242 41.3288,91.4862 C39.8288,97.5782 31.5238,112.6512 36.4978,125.9982 C41.4718,139.3452 41.2158,148.7732 43.9498,158.6382 C46.6838,168.5022 57.1528,197.2052 57.1528,197.2052 C57.1528,197.2052 69.2068,229.3462 74.6898,239.2052 C78.1168,245.3662 82.6068,253.2332 85.4928,258.2672 C85.1828,258.2522 84.8718,258.2392 84.5578,258.2342 C84.2398,258.2292 83.9268,258.2332 83.6158,258.2432 C81.6088,255.3472 79.6988,252.3802 77.9128,249.3372 C65.1248,248.6402 13.7758,245.0172 24.0358,232.0672" id="Fill-10" fill="#FF8F8F"></path>
                    <path d="M80.2731,292.7001 C80.2731,292.7001 75.1801,298.6261 67.1261,301.7951 C59.0711,304.9641 53.9861,303.4771 49.7991,302.2591 C45.6121,301.0391 32.2871,293.4331 30.4981,283.7851 C28.7091,274.1361 31.2311,263.9921 27.2811,254.5341 C23.3311,245.0771 19.9301,237.9361 26.8191,234.4441 C33.7101,230.9521 47.1881,249.8111 53.6561,256.9171 C60.1251,264.0231 88.4611,276.9111 80.2731,292.7001" id="Fill-12" fill="#2DBAF6"></path>
                    <path d="M30.4977,283.785 C28.7087,274.136 31.2317,263.992 27.2807,254.534 C23.3307,245.077 19.9297,237.936 26.8197,234.444 C26.9607,234.373 27.1057,234.314 27.2517,234.261 C29.7827,235.723 32.2197,238.068 32.4887,241.722 C33.0647,249.575 34.5177,257.744 40.1367,263.137 C45.7547,268.53 61.1167,282.08 65.0407,289.597 C66.9557,293.264 69.0627,297.123 70.7197,300.116 C69.6017,300.722 68.4007,301.293 67.1257,301.795 C59.0707,304.964 53.9867,303.477 49.7997,302.259 C45.6117,301.039 32.2867,293.433 30.4977,283.785" id="Fill-14" fill="#1D8EBF"></path>
                    <path d="M130.1085,33.1024 L164.2455,70.8924 C164.2455,70.8924 203.6065,55.5824 214.2765,65.9854 C224.9475,76.3884 181.1635,127.0134 141.9005,110.3384 C102.6385,93.6644 130.1085,33.1024 130.1085,33.1024" id="Fill-16" fill="#D2EBF5"></path>
                    <polygon id="Fill-18" fill="#0E244C" points="172 113.8812 231.110796 113.8812 234 39.8812 174.889204 39.8812"></polygon>
                    <path d="M192.575088,69.9437957 L197.839432,69.9437957 C197.871405,69.9437957 197.90101,69.9301997 197.922918,69.9083279 C197.944233,69.8870473 197.957851,69.8574908 197.957851,69.8255697 L197.957851,62.8709262 C197.957851,62.3554609 198.168046,61.887286 198.507318,61.5485686 C198.846591,61.2104423 199.315532,61 199.831842,61 L209.198241,61 C209.715143,61 210.183492,61.2104423 210.522764,61.5485686 C210.862036,61.887286 211.072231,62.3554609 211.072231,62.8709262 L211.072231,69.8255697 C211.072231,69.8574908 211.08585,69.8870473 211.107165,69.9083279 C211.129073,69.9301997 211.158678,69.9437957 211.190651,69.9437957 L218.156685,69.9437957 C218.672994,69.9437957 219.141936,70.1536469 219.481208,70.4923643 C219.819888,70.8310817 220.030675,71.2986655 220.030675,71.8147219 L220.030675,76.4899685 C220.030675,76.9741039 219.637522,77.3666142 219.152593,77.3666142 L209.448106,77.3666142 C209.063243,77.3666142 208.735812,77.1189307 208.617393,76.7737109 L207.310632,73.6383577 L205.372103,82.7216601 C205.272039,83.1945641 204.80665,83.4960403 204.333563,83.3961394 C204.009686,83.3275683 203.765741,83.0887518 203.676334,82.7931869 L203.67515,82.793778 L201.225049,74.7171699 L200.397888,76.8085875 C200.262889,77.1538074 199.931906,77.3648408 199.581976,77.3648408 L199.581976,77.3666142 L190.755571,77.3666142 L190.755571,81.1658062 C190.755571,81.1977272 190.769189,81.2272837 190.790505,81.2485644 C190.812412,81.2704362 190.842017,81.2840322 190.87399,81.2840322 L197.839432,81.2840322 C198.356333,81.2840322 198.825275,81.4938833 199.163955,81.8326007 C199.503227,82.1713182 199.714014,82.638902 199.714014,83.1549584 L199.714014,90.1090108 C199.714014,90.1415229 199.72704,90.1704883 199.748948,90.1923601 C199.770264,90.2136408 199.799869,90.2272368 199.831842,90.2272368 L209.198241,90.2272368 C209.230214,90.2272368 209.259819,90.2136408 209.281727,90.1923601 C209.303042,90.1704883 209.316661,90.1415229 209.316661,90.1090108 L209.316661,83.1549584 C209.316661,82.638902 209.526855,82.1713182 209.866128,81.8326007 C210.2054,81.4938833 210.674341,81.2840322 211.190651,81.2840322 L216.454995,81.2840322 C216.771767,80.6798974 217.40472,80.2678798 218.134777,80.2678798 C219.181606,80.2678798 220.030675,81.114969 220.030675,82.1600867 C220.030675,83.2052044 219.181606,84.0522936 218.134777,84.0522936 C217.40472,84.0522936 216.771767,83.640276 216.454995,83.0367324 L211.190651,83.0367324 C211.158678,83.0367324 211.129073,83.0497372 211.107165,83.0716091 C211.08585,83.0934809 211.072231,83.1230374 211.072231,83.1549584 L211.072231,90.1090108 C211.072231,90.6250672 210.862036,91.092651 210.522764,91.4313684 C210.183492,91.7700859 209.715143,91.979937 209.198241,91.979937 L199.831842,91.979937 C199.315532,91.979937 198.846591,91.7700859 198.507318,91.4313684 C198.168046,91.092651 197.957851,90.6250672 197.957851,90.1090108 L197.957851,83.1549584 C197.957851,83.1230374 197.944233,83.0934809 197.922918,83.0716091 C197.90101,83.0497372 197.871405,83.0367324 197.839432,83.0367324 L190.87399,83.0367324 C190.357089,83.0367324 189.888147,82.8268813 189.549467,82.4881638 C189.210195,82.1494464 189,81.6812715 189,81.1658062 L189,76.4899685 C189,76.0064242 189.392561,75.613914 189.877489,75.613914 L198.986326,75.613914 L200.500913,71.7822098 C200.587951,71.5203392 200.79637,71.3033946 201.081169,71.2176807 C201.544781,71.0775829 202.034447,71.3400446 202.174774,71.8028993 L204.367905,79.0318272 L206.182093,70.5296055 C206.240119,70.2576857 206.42663,70.017687 206.70314,69.9030078 C207.150174,69.7179841 207.662931,69.9296086 207.848257,70.3753206 L210.031915,75.613914 L218.274512,75.613914 L218.274512,71.8147219 C218.274512,71.7828009 218.261486,71.7532444 218.239578,71.7313726 C218.217671,71.7100919 218.188658,71.696496 218.156685,71.696496 L211.190651,71.696496 C210.674341,71.696496 210.2054,71.4866448 209.866128,71.1479274 C209.526855,70.8092099 209.316661,70.3416262 209.316661,69.8255697 L209.316661,62.8709262 C209.316661,62.8390052 209.303042,62.8094487 209.281727,62.788168 C209.259819,62.7662962 209.230214,62.7532914 209.198241,62.7532914 L199.831842,62.7532914 C199.799869,62.7532914 199.770264,62.7662962 199.748948,62.788168 C199.72704,62.8094487 199.714014,62.8390052 199.714014,62.8709262 L199.714014,69.8255697 C199.714014,70.3416262 199.503227,70.8092099 199.163955,71.1479274 C198.825275,71.4866448 198.356333,71.696496 197.839432,71.696496 L192.575088,71.696496 C192.258908,72.3000396 191.625363,72.7126483 190.895306,72.7126483 C189.848477,72.7126483 189,71.864968 189,70.8198503 C189,69.7753237 189.848477,68.9276434 190.895306,68.9276434 C191.625363,68.9276434 192.258908,69.3402521 192.575088,69.9437957" id="Fill-17" fill="#FFFFFF"></path>
                    <path d="M113.8448,304.6825 C115.6758,301.9565 116.1778,298.9575 116.3908,296.4945 L126.4738,289.4205 C126.4738,289.4205 124.8938,299.5825 126.4378,302.0195 C127.1118,303.0815 129.0698,303.8675 131.7688,304.9895 C136.0438,307.1615 141.3218,309.9625 141.5098,311.4195 C141.8238,313.8485 116.6958,313.8775 112.5108,311.5415 C110.3218,310.3205 111.8378,307.6705 113.8448,304.6825" id="Fill-56" fill="#0E244C"></path>
                    <path d="M67.6827,304.6825 C69.5137,301.9565 70.0157,298.9575 70.2287,296.4945 L79.3387,296.4555 C79.3387,296.4555 78.7317,299.5825 80.2757,302.0195 C80.9497,303.0815 82.9077,303.8675 85.6067,304.9895 C89.8817,307.1615 95.1597,309.9625 95.3477,311.4195 C95.6617,313.8485 70.5337,313.8775 66.3487,311.5415 C64.1597,310.3205 65.6757,307.6705 67.6827,304.6825" id="Fill-58" fill="#0E244C"></path>
                    <g id="Group-62" transform="translate(89.000000, 0.268000)">
                        <mask id="mask-5" fill="white">
                            <use xlink:href="#path-4"></use>
                        </mask>
                        <g id="Clip-61"></g>
                        <path d="M18.9166,15.9819 C18.9166,15.9819 19.7546,10.7049 18.9166,8.5349 C18.0786,6.3649 16.8816,-0.4291 7.4306,0.9029 C-3.3934,2.4279 1.1136,20.5799 4.4096,21.5849 C7.7056,22.5899 18.9166,15.9819 18.9166,15.9819" id="Fill-60" fill="#0E244C" mask="url(#mask-5)"></path>
                    </g>
                    <path d="M61.2511,127.7826 C61.3621,125.1746 67.7131,123.1716 68.3071,120.9216 C77.7641,121.7926 102.1971,123.3216 126.1031,118.8706 C129.0331,125.9856 137.1081,169.2316 138.4231,176.7206 C146.8941,224.9536 132.0591,271.9156 128.6651,296.4556 C128.1561,300.1376 121.4711,299.2546 117.8421,300.0546 C110.7421,301.6196 109.6651,300.1546 106.5831,296.4556 C100.8141,289.5316 111.4361,209.7726 111.4361,209.7726 L102.6611,156.3586 C101.0231,176.1296 97.5161,193.6916 95.3511,209.7726 C92.1101,233.8436 91.8341,274.8336 85.2471,297.8916 C84.2911,301.2346 73.4371,299.8826 67.7721,299.1996 C66.2991,299.0206 65.4881,297.7316 65.2741,296.2636 C61.3591,269.4216 62.3151,200.4846 62.3151,200.4846 C62.3151,200.4846 60.3031,149.9906 61.2511,127.7826" id="Fill-63" fill="#163774"></path>
                    <path d="M115.5816,170.8026 C119.1146,181.0206 115.2096,204.9946 122.6476,210.4886 C130.0856,215.9806 117.6556,224.5346 126.4746,235.8776 C129.6126,239.9146 133.8466,243.0526 137.9996,245.4246 C134.9256,266.2816 130.3636,284.1766 128.6646,296.4556 C128.1556,300.1376 121.4706,299.2546 117.8416,300.0546 C110.7416,301.6196 109.6646,300.1546 106.5826,296.4556 C100.8136,289.5316 111.4356,209.7726 111.4356,209.7726 L102.6616,156.3586 C102.6616,156.3586 112.0486,160.5836 115.5816,170.8026" id="Fill-65" fill="#0E244C"></path>
                    <path d="M61.2511,127.7826 C61.3621,125.1746 67.7131,123.1716 68.3071,120.9216 C71.3411,121.2006 75.9231,121.5476 81.5291,121.7426 C81.5291,121.7426 81.5301,121.7426 81.5301,121.7426 C85.2711,134.9036 81.1791,165.9586 78.7621,177.4876 C76.3451,189.0166 73.7411,246.2916 76.1591,255.2176 C77.7251,260.9996 85.3121,264.5946 90.4651,266.4106 C89.2821,278.1936 87.7041,289.2896 85.2471,297.8916 C84.2921,301.2346 73.4371,299.8826 67.7721,299.1996 C66.2991,299.0206 65.4881,297.7316 65.2741,296.2636 C61.3591,269.4216 62.3151,200.4846 62.3151,200.4846 C62.3151,200.4846 60.3031,149.9906 61.2511,127.7826" id="Fill-67" fill="#0E244C"></path>
                    <path d="M98.985,185.8548 C98.414,189.5648 97.838,193.2008 97.281,196.7558 C89.5,196.6158 71.83,195.5518 67.383,188.8718 C62.425,181.4218 91.03,184.7888 98.985,185.8548" id="Fill-69" fill="#0E244C"></path>
                    <path d="M113.7423,191.7772 C106.5853,189.5442 127.8433,180.3562 138.3183,176.1282 C138.3553,176.3372 138.3933,176.5482 138.4233,176.7212 C139.1323,180.7562 139.6643,184.7812 140.0673,188.7872 C134.3063,190.5212 120.9653,194.0292 113.7423,191.7772" id="Fill-71" fill="#0E244C"></path>
                    <path d="M58.6686,56.0214 C58.5636,41.9974 64.5856,33.2044 86.8966,28.0084 C109.0126,22.8574 129.0856,27.8334 133.1286,37.1224 C139.9686,52.8414 133.7216,65.3454 132.6646,81.0344 C130.8856,107.4414 141.1106,184.8384 141.1106,184.8384 C141.1106,184.8384 104.6156,201.5954 58.6676,186.3174 C57.0426,185.7774 56.0026,184.1824 56.1696,182.4774 L61.8396,101.5774 C61.8396,101.5774 58.7536,67.3644 58.6686,56.0214" id="Fill-73" fill="#FDFDFD"></path>
                    <path d="M93.4527,11.4784 C96.8547,13.6524 104.2547,13.6144 108.2247,13.4144 C108.1197,14.9704 107.9167,16.2494 107.9167,16.2494 C107.9167,16.2494 96.7057,22.8584 93.4097,21.8534 C91.3057,21.2104 88.7147,13.5834 89.9277,7.7524 C90.6077,9.0094 91.6977,10.3564 93.4527,11.4784" id="Fill-75" fill="#0E244C"></path>
                    <path d="M95.318,15.9667 L90.5309807,30.2977 C90.514,32.3777 101.707,38.1337 104.987,35.5007 C105.948,34.7297 105.678,32.7377 104.772,30.5797 L99.38,18.8257 L95.318,15.9667 Z" id="Fill-77" fill="#F39B9B"></path>
                    <path d="M56.17,182.4774 L61.84,101.5774 C61.84,101.5774 58.753,67.3644 58.669,56.0214 C58.564,41.9974 64.585,33.2044 86.897,28.0084 C88.36,27.6664 89.815,27.3734 91.256,27.1194 C88.602,34.2614 84.611,47.5144 86.067,59.5854 C88.192,77.1934 104.853,103.3964 106.437,127.4754 C107.832,148.6784 92.628,170.4324 89.299,192.4114 C79.851,191.7354 69.529,189.9294 58.667,186.3174 C57.042,185.7774 56.003,184.1824 56.17,182.4774" id="Fill-79" fill="#ECF9FF"></path>
                    <path d="M104.0694,29.0487 L101.1834,22.7577 L96.0444,24.1087 C96.0444,24.1087 100.1694,27.9357 104.0694,29.0487" id="Fill-81" fill="#0E244C"></path>
                    <path d="M98.6398,10.2645 L94.5498,17.8965 C93.4028,20.5165 94.5418,23.5795 97.1308,24.7965 C99.1988,25.7695 100.6058,26.0215 103.4458,26.1785 C105.8108,26.3085 107.3938,24.2965 107.9318,21.2615 C108.6298,17.3235 108.1538,13.4975 107.7848,11.4655 C106.9418,6.8315 101.6698,5.4855 98.6398,10.2645" id="Fill-83" fill="#F39B9B"></path>
                    <path d="M102.7574,17.8031 C102.7574,17.8031 104.6884,18.3421 107.4464,18.0851 C107.4464,18.0851 107.3384,19.6841 106.1164,19.9601 C104.7664,20.2661 103.3424,19.9611 102.7574,17.8031" id="Fill-85" fill="#FFFFFF"></path>
                    <path d="M105.1705,23.9066 C102.6705,22.9276 98.5665,25.3926 95.5875,21.3546 C94.9215,20.4516 94.6935,18.7606 94.6395,17.7296 L94.5495,17.8966 C93.4025,20.5166 94.5415,23.5796 97.1305,24.7966 C99.1985,25.7696 100.6065,26.0216 103.4455,26.1786 C104.6505,26.2446 105.6505,25.7526 106.4145,24.8546 C106.5655,24.6776 105.9335,24.2056 105.1705,23.9066" id="Fill-87" fill="#C87171"></path>
                    <path d="M108.2892,5.4125 C109.5022,6.6545 108.7582,9.6295 107.1842,10.3605 C105.4162,11.1825 101.8722,11.7135 100.6542,12.1195 C98.8792,12.7115 99.2942,14.9315 98.0612,14.9815 C96.8282,15.0305 96.6602,13.2535 96.5602,12.2675 C96.4622,11.2815 95.6732,6.6455 99.5692,4.9195 C102.0742,3.8095 105.5912,2.6505 108.2892,5.4125" id="Fill-89" fill="#0E244C"></path>
                    <path d="M97.692,14.5306 C97.672,13.9946 97.734,13.4626 97.827,12.9336 C98.004,11.9296 98.034,10.3956 96.415,10.8656 C94.06,11.5496 93.409,16.9516 95.819,17.7976 C97.609,18.4256 97.742,15.8816 97.692,14.5306" id="Fill-91" fill="#F39B9B"></path>
                    <path d="M131.0587,108.7899 C123.2667,111.3759 106.6147,115.6269 97.4757,108.5139 C87.5067,100.7549 119.7087,95.7359 131.8457,94.1579 C131.5487,99.2819 131.2857,104.2279 131.0587,108.7899" id="Fill-93" fill="#311E69"></path>
                    <path d="M65.8443,66.1629 C65.8443,66.1629 66.7333,98.2229 74.5143,109.7829 C82.2963,121.3439 95.6363,125.0679 111.1983,120.8709 C126.7613,116.6749 65.8443,66.1629 65.8443,66.1629" id="Fill-95" fill="#0E244C"></path>
                    <path d="M84.0983,43.1771 C89.4293,50.4441 96.4723,85.4631 109.6833,86.0841 C111.8483,86.1861 169.5333,74.8511 169.5333,74.8511 C169.5333,74.8511 177.0943,88.3671 169.8193,100.9731 C160.6113,116.9281 119.1843,132.0821 94.5133,120.1671 C69.8423,108.2521 64.2423,70.8841 63.7233,60.4001 C62.4533,34.7551 78.1473,35.0641 84.0983,43.1771" id="Fill-97" fill="#D2EBF5"></path>
                    <path d="M70.6651,39.4174 C69.3981,45.6674 67.5931,57.3464 69.6791,65.6274 C72.6541,77.4434 79.9781,100.7324 92.5671,102.6334 C105.1551,104.5344 107.6731,111.9474 118.3491,110.5744 C129.0251,109.2014 155.2801,93.1794 162.5341,83.8414 C165.1521,80.4714 168.2551,79.0584 171.1521,78.6224 C172.8751,83.5184 174.7381,92.4504 169.8191,100.9734 C160.6111,116.9284 119.1841,132.0824 94.5131,120.1674 C69.8421,108.2514 64.2421,70.8844 63.7231,60.3994 C63.1131,48.0944 66.4131,41.7764 70.6651,39.4174" id="Fill-99" fill="#ECF9FF"></path>
                    <path d="M171.5875,83.5951 C174.9435,83.1181 181.0795,78.5771 180.7505,75.1261 C179.1845,58.7001 175.0485,73.3841 174.0145,73.1681 C172.8575,72.9281 174.2495,70.9261 173.5875,68.4591 C173.2915,67.3531 171.6465,67.1271 171.6655,67.6481 C171.8475,72.6511 163.3105,72.1081 165.4975,80.4561 C165.9945,82.3521 169.6475,83.8711 171.5875,83.5951" id="Fill-101" fill="#F39B9B"></path>
                    <path d="M91.9693,124.996 L68.5993,123.108 C68.5993,123.108 67.5873,145.18 78.6313,147.304 C89.6763,149.429 93.3863,133.022 91.9693,124.996" id="Fill-103" fill="#D2EBF5"></path>
                </g>
            </g>
        </g>
    </g>
</svg>