<?xml version="1.0" encoding="UTF-8"?>
<svg width="493px" height="433px" viewBox="0 0 493 433" version="1.1" xmlns="http://www.w3.org/2000/svg" xmlns:xlink="http://www.w3.org/1999/xlink">
    <!-- Generator: Sketch 57.1 (83088) - https://sketch.com -->
    <title>Illustration</title>
    <desc>Created with Sketch.</desc>
    <defs>
        <linearGradient x1="50%" y1="0%" x2="50%" y2="100%" id="linearGradient-1">
            <stop stop-color="#BA104A" stop-opacity="0" offset="0%"></stop>
            <stop stop-color="#27B8F5" offset="100%"></stop>
        </linearGradient>
    </defs>
    <g id="Home" stroke="none" stroke-width="1" fill="none" fill-rule="evenodd">
        <g transform="translate(-1087.000000, -4924.000000)" id="Why-FieldMed">
            <g transform="translate(385.000000, 4185.000000)">
                <g id="Reduce-emergency-calls--by-as-much-as-85%." transform="translate(35.000000, 739.000000)">
                    <g id="Illustration" transform="translate(667.000000, 0.000000)">
                        <g id="Group-3" transform="translate(0.662139, 0.381591)" fill="url(#linearGradient-1)" opacity="0.25">
                            <path d="M246,432 C381.862048,432 492,335.293506 492,216 C492,145.846563 370.950318,204.564305 311.939639,165.10747 C270.604688,137.469316 301.965078,0 246,0 C110.137952,0 0,96.706494 0,216 C0,335.293506 110.137952,432 246,432 Z" id="Oval" transform="translate(246.000000, 216.000000) scale(-1, 1) translate(-246.000000, -216.000000) "></path>
                        </g>
                        <g id="Group-6" transform="translate(21.000000, 23.000000)">
                            <path d="M75.3658008,107.239225 C75.3658008,107.239225 -3.77199372,104.071388 0.140607301,88.3910557 C4.05263277,72.711874 55.9196328,69.2781321 55.9196328,69.2781321 C55.9196328,69.2781321 -2.82060662,43.846801 8.2777584,17.7132968 C19.3755479,-8.42020747 98.1317516,26.6619759 98.1317516,26.6619759 C98.1317516,26.6619759 77.3687211,0.887040407 98.1317516,0.529047199 C118.894782,0.17105399 176.529962,63.7574394 168.296118,85.8407857 C160.06285,107.923557 96.2738705,110.850237 75.3658008,107.239225" id="Fill-4" fill="#FAACAC"></path>
                            <path d="M90.9720025,102.937782 C90.9720025,102.937782 92.8811078,117.499817 102.129074,123.988588 C111.37704,130.476783 114.240986,136.653605 115.314965,160.771527 C116.388945,184.890024 109.229081,235.707218 116.030952,239.474204 C122.832247,243.240615 129.992111,240.677683 129.992111,238.021512 C129.992111,235.36534 121.400274,211.041371 121.042857,203.335308 C120.684863,195.629821 124.26422,174.150228 122.474254,165.91696 C120.684863,157.683116 119.25289,138.335943 126.054186,132.616685 C132.856057,126.896851 142.163305,104.467023 135.361434,96.3511671 C128.560138,88.2347358 132.612023,100.264919 132.376047,105.16862 C132.14007,110.071746 126.770172,115.850861 123.548233,102.937782 C120.326295,90.0247019 116.388945,96.1618105 117.820342,102.937782 C119.25289,109.713753 125.696193,122.971013 124.622213,125.470634 C123.548233,127.970831 106.365135,123.244975 107.797108,115.584381 C109.229081,107.923787 111.37704,100.464636 108.871087,97.3929158 C106.365135,94.3206204 106.007717,115.110126 104.575169,115.096889 C103.143196,115.083651 90.9720025,102.937782 90.9720025,102.937782" id="Fill-6" fill="#0E244C"></path>
                            <g id="Group-10" fill="#FF8F8F">
                                <path d="M98.1315789,0.529162309 C77.3685484,0.887155518 98.1315789,26.662091 98.1315789,26.662091 C98.1315789,26.662091 64.9193633,11.8709857 38.590747,8.65480238 C39.6894754,11.3374492 43.1669593,14.897237 52.9248642,18.070254 C71.6412326,24.1561385 88.2706503,25.9461046 94.8117963,31.6734204 C101.353518,37.4013117 140.73162,37.4013117 145.499491,69.5896207 C146.837073,78.617726 123.906514,75.7514781 108.513382,78.5924017 C93.119674,81.4333253 78.7055552,78.4421827 63.5737233,83.1985426 C48.4413158,87.954327 24.9432632,96.7815647 12.8520713,88.3911708 C9.847691,86.3065222 7.07756027,84.2299314 4.60959423,82.2857175 C2.30796265,84.0791368 0.710806452,86.103928 0.140434635,88.3911708 C-3.77216638,104.070928 75.3656282,107.239341 75.3656282,107.239341 C96.2736978,110.850352 160.062677,107.923672 168.295946,85.8409008 C176.529789,63.7569789 118.89461,0.1711691 98.1315789,0.529162309" id="Fill-8"></path>
                            </g>
                            <path d="M75.3658008,57.0903626 C60.6546973,55.4793932 37.9906192,45.6351555 29.3993577,40.9812438 C23.6259978,37.854271 14.1282423,34.1638329 8.51431019,32.0774577 C17.0186633,52.4347243 55.9196328,69.2782472 55.9196328,69.2782472 C76.1756022,71.8008907 95.9837924,58.1643423 95.9837924,58.1643423 C95.9837924,58.1643423 90.07748,58.7013321 75.3658008,57.0903626" id="Fill-11" fill="#FF8F8F"></path>
                            <path d="M75.2874107,163.952429 C74.7279744,164.268407 74.2640796,164.725395 73.8807621,165.296918 C74.6790525,167.152497 75.8456959,169.452977 77.535516,172.06368 C82.0317265,179.01059 85.4700728,181.942451 85.7348267,189.998449 C85.9990049,198.053872 88.3075431,203.539456 93.2365686,210.913426 C98.1655941,218.28682 100.479888,225.27114 100.479888,225.27114 C100.479888,225.27114 92.8785754,230.622621 95.8386382,237.445787 C96.7140525,239.463672 97.5583869,241.409612 98.3158131,243.152383 C100.994431,242.276969 103.886003,239.529285 106.179002,233.892331 C110.499669,223.26822 83.7508997,159.174198 75.2874107,163.952429" id="Fill-25" fill="#FF8F8F"></path>
                            <path d="M100.480176,225.271198 C100.480176,225.271198 98.1658818,218.286877 93.2368564,210.913483 C88.3078309,203.539514 85.9992927,198.05393 85.7345389,189.998507 C85.4703606,181.942509 82.0320143,179.010648 77.5358037,172.063738 C75.8459837,169.453035 74.6793402,167.152554 73.8810499,165.296976 C68.4656832,173.376571 79.6515321,205.052064 79.6515321,205.052064 L92.0063267,231.55795 C92.0063267,231.55795 87.4537121,224.238083 84.7509209,220.79283 C82.0487053,217.347577 76.0808088,208.897901 72.6424625,203.425554 C70.5227053,200.05167 65.9919616,198.58056 62.8275779,197.947453 C62.616926,198.007886 62.4085762,198.063714 62.1950465,198.135083 C51.6158292,201.653431 91.909634,241.433843 92.2693538,241.787232 C93.7433419,243.237622 95.9459786,243.927133 98.3155253,243.152441 C97.5586747,241.40967 96.7137647,239.463729 95.8383504,237.445845 C92.8782876,230.622678 100.480176,225.271198 100.480176,225.271198" id="Fill-27" fill="#FAACAC"></path>
                            <path d="M72.6426351,203.425497 C76.0809815,208.897843 82.0483024,217.347519 84.7510935,220.792772 C87.4538847,224.238025 92.0064993,231.557893 92.0064993,231.557893 L79.6517048,205.052006 C79.6517048,205.052006 73.0466725,195.040859 62.827175,197.947395 C65.9915587,198.580502 70.5228779,200.051612 72.6426351,203.425497" id="Fill-29" fill="#FF8F8F"></path>
                            <path d="M106.911852,260.250012 C106.911852,260.250012 131.649643,246.678501 137.908768,238.007814 C144.167319,229.338277 123.223565,237.797737 134.750716,227.601262 C146.277291,217.404786 157.675519,206.309299 155.996059,201.897695 C154.316599,197.48609 132.683909,219.773182 132.683909,219.773182 C132.683909,219.773182 154.3966,181.829355 144.962156,178.398491 C135.527135,174.967627 120.825816,206.650601 119.502622,206.34153 C118.706634,206.156202 130.078962,181.404598 123.079101,181.981301 C116.383132,182.533255 86.0613372,252.827121 106.911852,260.250012" id="Fill-31" fill="#FAACAC"></path>
                            <path d="M155.996174,201.89781 C154.316714,197.486205 132.684024,219.773297 132.684024,219.773297 C132.684024,219.773297 153.752673,182.953523 145.362279,178.575876 C144.353337,179.846694 143.318495,181.519823 143.008848,183.301156 C142.350417,187.08656 143.654041,187.458367 141.751843,192.141056 C139.85022,196.823745 135.054722,203.579572 132.530352,209.916397 C130.005982,216.252071 129.679069,225.66407 125.592651,230.693817 C121.506233,235.724139 115.358189,239.328244 111.891641,243.535528 C109.918074,245.930399 105.899571,251.192093 102.386403,256.687462 C103.498369,258.341022 104.98617,259.56407 106.911967,260.250127 C106.911967,260.250127 131.649758,246.678616 137.908884,238.007929 C144.167434,229.338392 123.22368,237.797852 134.750255,227.601377 C146.277406,217.404326 157.675634,206.309414 155.996174,201.89781" id="Fill-33" fill="#FF8F8F"></path>
                        </g>
                        <path d="M350.257464,265.252803 L396.553698,265.252803 C400.257374,265.252803 402.836421,262.31346 401.434377,259.625633 C400.284425,257.420694 398.373593,255.337196 395.223022,255.02237 C388.1846,254.316743 385.199213,259.880602 385.199213,259.880602 C385.199213,259.880602 386.692194,246.330387 372.828878,245.390511 C358.966138,244.45121 358.3267,259.348792 358.3267,259.348792 C358.3267,259.348792 353.799409,256.71219 349.561622,257.060974 C343.05098,257.595662 343.711138,265.252803 350.257464,265.252803" id="Fill-13" fill="#FAACAC"></path>
                        <path d="M401.586668,262.328366 C399.7426,260.973518 397.504855,260.104434 395.985398,259.829896 C392.892959,259.271611 388.254011,263.06795 384.123276,262.956869 C379.993116,262.844636 382.764398,259.820687 377.067011,256.854293 C371.3702,253.888475 367.31774,261.058124 364.754232,261.504752 C362.190724,261.951956 353.075711,262.621898 348.517916,260.612071 C347.258609,260.056664 346.337726,259.501256 345.662604,258.988439 C343.944582,261.420146 345.624617,265.252745 350.257234,265.252745 L396.553468,265.252745 C398.997261,265.252745 400.942626,263.970991 401.586668,262.328366" id="Fill-15" fill="#FF8F8F"></path>
                        <path d="M66.5223001,306.449964 L115.814281,306.449964 C117.552448,306.449964 118.958521,304.918997 118.684558,303.202126 C118.519375,302.167284 117.748135,301.194026 115.636436,300.826248 C110.358051,299.908818 105.830185,304.154664 102.757889,302.548299 C99.6855938,300.941358 101.636139,298.14763 97.3902933,298.899301 C93.1438722,299.650971 94.636278,302.891903 91.1933272,303.351194 C87.7503765,303.810484 83.3899962,293.138027 73.9797245,294.056032 C69.1082542,294.531438 65.743003,297.836256 63.6313035,300.913732 C62.020334,303.260256 63.6761965,306.449964 66.5223001,306.449964" id="Fill-17" fill="#FAACAC"></path>
                        <path d="M102.757947,304.943055 C100.904094,306.978206 92.9148602,304.499304 91.8823203,304.842909 C90.8492048,305.187664 77.4221573,304.957444 70.6519417,303.122009 C67.0334476,302.140693 65.3827651,300.700663 64.6287923,299.572581 C64.269648,300.018058 63.936979,300.468715 63.631361,300.913617 C62.0203916,303.260141 63.6762541,306.449849 66.5223576,306.449849 L115.814339,306.449849 C116.919974,306.449849 117.890354,305.828253 118.380149,304.934997 C118.092373,304.984494 117.790784,305.030539 117.472504,305.073129 C112.882478,305.676883 104.611799,302.907904 102.757947,304.943055" id="Fill-19" fill="#FF8F8F"></path>
                        <path d="M427.06583,292.171055 C422.984592,292.857113 421.439236,294.367361 420.855051,295.470693 C422.021119,290.743687 424.966217,274.688094 411.318158,274.137291 C395.308034,273.490371 395.570485,285.047451 395.570485,285.047451 C395.570485,285.047451 390.583905,278.897104 385.859776,281.689681 C381.135071,284.482259 380.347716,291.369311 380.347716,291.369311 C380.347716,291.369311 372.999647,278.975379 359.351587,281.689681 C349.049786,283.73807 345.50266,289.089551 344.086803,295.314143 C343.505496,297.869018 345.918784,300.225902 349.084319,300.225902 L427.757643,300.225902 C432.422491,300.225902 434.729302,295.386087 431.13383,292.945748 C430.100139,292.24415 428.771766,291.88443 427.06583,292.171055" id="Fill-21" fill="#FAACAC"></path>
                        <path d="M432.858989,295.51927 C430.902113,296.18173 428.135436,296.825197 425.847042,296.680158 C422.066818,296.441304 419.885476,296.680158 418.722286,293.694771 C417.559096,290.710535 419.304169,280.919248 412.760721,279.008416 C406.217273,277.09816 403.01778,287.844287 399.965054,288.799703 C396.911176,289.754543 395.602947,287.24744 390.367728,285.456323 C385.133084,283.665205 383.533626,293.575632 382.224821,294.05334 C380.916592,294.531047 373.645646,289.993397 366.084622,287.168589 C358.523599,284.343781 354.887838,295.366749 349.508155,295.127895 C346.857164,295.009907 345.761313,293.24066 345.329649,291.475443 C344.788631,292.699642 344.388622,293.986576 344.087033,295.314373 C343.505726,297.869248 345.918439,300.226132 349.083974,300.226132 L427.757874,300.226132 C431.059239,300.226132 433.176694,297.801908 432.858989,295.51927" id="Fill-23" fill="#FF8F8F"></path>
                        <path d="M302.373096,202.020896 L284.41588,228.573977 C281.863308,232.348446 278.185532,235.020157 273.951774,236.175289 L251.14611,242.397004 C251.14611,242.397004 250.26494,249.293841 255.374113,254.371935 C259.805862,258.776057 282.953979,253.895378 292.933471,243.791566 C302.912964,233.68833 313.699955,215.270673 313.699955,215.270673 L302.373096,202.020896 Z" id="Fill-35" fill="#BA104A"></path>
                        <path d="M243.071003,244.058104 C244.367146,245.027909 248.772995,244.989923 248.600329,245.353671 C248.410397,245.75368 247.707073,245.797997 246.467334,245.780731 C245.228171,245.76404 244.66413,247.259323 246.073081,247.018167 C247.482607,246.776435 248.620473,247.478608 250.268278,247.722642 C251.187434,247.859048 254.403042,247.343354 254.714416,245.259281 C254.845641,244.38214 254.356998,243.350751 254.029509,242.942109 C252.655091,241.226389 247.487212,241.643089 245.27882,242.092019 C243.958504,242.360226 242.374585,243.53723 243.071003,244.058104" id="Fill-37" fill="#F39B9B"></path>
                        <path d="M205.723966,213.455498 C205.723966,213.455498 206.522256,209.794989 201.967339,208.292798 C197.411847,206.791184 195.544181,213.218371 192.756209,214.284293 C189.968236,215.351366 184.708844,214.752792 184.152861,219.562678 C183.597453,224.372564 186.552912,227.378096 190.438462,228.502724 C194.324012,229.627352 205.046541,222.571663 205.723966,213.455498" id="Fill-39" fill="#163774"></path>
                        <path d="M205.62359,211.686137 C203.789882,213.668337 201.546956,215.966515 199.967642,217.15503 C196.844123,219.50731 192.114238,222.76666 188.310992,221.251807 C186.304043,220.45179 185.234092,219.010609 184.666023,217.823821 C184.415658,218.310738 184.232057,218.876505 184.153206,219.563138 C183.597223,224.372449 186.552681,227.378556 190.438807,228.502609 C194.324357,229.627237 205.046311,222.571548 205.723736,213.455383 C205.723736,213.455383 205.888343,212.673208 205.62359,211.686137" id="Fill-41" fill="#0E244C"></path>
                        <path d="M210.796534,224.773724 C210.796534,224.773724 213.042913,221.918987 212.090374,217.643213 C211.137836,213.368014 207.452003,211.853737 204.112651,212.481664 C200.772724,213.10844 194.933176,223.691686 199.473704,226.374333 C204.014232,229.05698 210.796534,224.773724 210.796534,224.773724" id="Fill-43" fill="#163774"></path>
                        <path d="M209.115117,234.654221 L230.31384,250.310956 C230.31384,250.310956 257.280743,252.890004 258.55962,254.948753 C259.83792,257.008077 254.624572,265.22005 239.622239,264.160459 C227.796377,263.324182 212.996063,257.560031 206.6719,252.009985 C200.347161,246.459939 209.115117,234.654221 209.115117,234.654221" id="Fill-45" fill="#BA104A"></path>
                        <path d="M239.622469,264.160229 C245.704325,264.590166 250.176938,263.495466 253.26132,261.905217 C249.297495,261.704349 245.255395,261.239879 242.12612,259.596103 C237.313931,257.070006 236.728595,258.24183 230.685877,255.972429 C224.643159,253.703028 218.371371,251.468161 214.911154,248.9271 C212.995717,247.519876 208.532313,245.005865 204.927057,243.040356 C204.025167,246.241575 204.014232,249.677619 206.67213,252.010331 C212.996293,257.559801 227.796031,263.324528 239.622469,264.160229" id="Fill-47" fill="#930C3A"></path>
                        <path d="M206.671842,252.010158 C208.274754,253.416231 210.423864,254.836693 212.929241,256.187513 C215.415049,248.462457 211.177837,241.838431 211.177837,241.838431 L205.356131,250.431995 C205.693404,250.996036 206.12219,251.527846 206.671842,252.010158" id="Fill-49" fill="#0E244C"></path>
                        <path d="M199.632326,277.098345 C203.286504,267.414686 195.693825,269.341058 198.385105,262.070112 C199.582253,258.837238 208.100995,256.457331 210.890694,250.444542 C213.871477,244.019082 214.221412,237.91478 208.278265,234.062612 C198.882957,227.972123 185.613035,224.361686 175.269794,230.931034 C166.650906,236.405683 148.960171,273.339992 154.089489,282.510834 C159.055925,287.65454 191.264954,298.187713 199.632326,277.098345" id="Fill-51" fill="#BA104A"></path>
                        <path d="M201.002887,223.828898 L195.396437,230.989338 C194.478432,232.172097 195.075855,237.466597 198.103257,237.392927 C198.989607,237.371631 199.515661,235.18511 199.939843,233.553996 L203.262504,226.263482 L201.002887,223.828898 Z" id="Fill-53" fill="#F39B9B"></path>
                        <path d="M208.278207,234.062381 C206.875012,233.15301 205.384908,232.300617 203.83207,231.527651 C204.624604,234.180945 205.270374,238.046926 204.023153,241.759235 C201.823969,248.306137 189.12039,251.94938 187.341935,261.213461 C185.983058,268.289295 187.229127,278.618147 193.397891,285.230086 C195.980968,283.465444 198.147345,280.840928 199.632268,277.098115 C203.286447,267.414456 195.693767,269.341403 198.385623,262.069882 C199.582195,258.837583 208.100937,256.457101 210.890637,250.444887 C213.871419,244.019427 214.221355,237.914549 208.278207,234.062381" id="Fill-55" fill="#930C3A"></path>
                        <path d="M201.288994,230.593301 C200.101055,228.933409 200.318614,225.418514 200.318614,225.418514 L202.788306,227.304022 L201.288994,230.593301 Z" id="Fill-57" fill="#0E244C"></path>
                        <path d="M204.539941,219.199217 L201.987369,221.642434 C199.964304,223.579742 199.705306,226.835062 201.600598,228.89784 C203.350275,230.801765 206.194652,231.128103 208.44506,228.799421 C210.446253,226.729161 210.329992,223.535424 210.530284,222.062012 C210.987847,218.70194 207.680151,216.60463 204.539941,219.199217" id="Fill-59" fill="#F39B9B"></path>
                        <path d="M202.583122,221.925778 C202.668304,221.626492 202.797803,221.345047 202.943418,221.071084 C203.221409,220.549634 203.513214,219.711055 202.537654,219.679975 C201.118919,219.633356 199.791696,222.489244 200.966397,223.387104 C201.838934,224.053593 202.367866,222.678025 202.583122,221.925778" id="Fill-61" fill="#F39B9B"></path>
                        <path d="M209.091232,225.258799 C209.313395,225.04124 209.499298,224.793177 209.670812,224.534179 C209.996575,224.042082 210.593997,223.385378 211.087245,224.227986 C211.804383,225.453335 209.926357,227.981159 208.576688,227.376829 C207.575228,226.927323 208.532371,225.806149 209.091232,225.258799" id="Fill-63" fill="#F39B9B"></path>
                        <path d="M205.153709,226.14912 C205.153709,226.14912 205.912286,226.031132 206.867127,226.628554 C207.301093,226.900215 207.512896,227.209862 207.577933,227.782536 C207.577933,227.782536 206.964971,227.980526 206.037181,227.409578 C205.405801,227.022232 205.1704,226.64985 205.153709,226.14912" id="Fill-65" fill="#FFFFFF"></path>
                        <path d="M202.535351,228.182084 C203.348031,228.842242 205.077564,229.641683 206.072693,229.599092 C206.955014,229.561106 208.262667,228.843393 208.549292,228.680512 C208.513608,228.719649 208.482528,228.761089 208.445117,228.799075 C206.194134,231.127758 203.350333,230.801996 201.60008,228.897495 C200.432861,227.626101 200.085228,225.902323 200.462214,224.312649 C200.782221,226.242474 201.804401,227.588114 202.535351,228.182084" id="Fill-67" fill="#C87171"></path>
                        <path d="M212.771367,219.373437 C213.466634,221.779243 209.259926,222.507316 206.326338,222.199396 C203.392175,221.8909 201.935454,220.960233 201.935454,220.960233 C201.935454,220.960233 202.698635,217.300875 205.10732,216.945184 C207.515428,216.589493 212.152074,217.230657 212.771367,219.373437" id="Fill-69" fill="#163774"></path>
                        <path d="M172.670487,285.070658 C172.670487,285.070658 205.57651,267.87202 221.482459,270.655964 C237.388408,273.439332 206.570487,308.333886 188.775577,309.481536 C176.063941,310.301697 172.249184,293.251551 172.670487,285.070658" id="Fill-71" fill="#8F1A3B"></path>
                        <path d="M153.483605,279.702371 C158.553641,263.795847 186.190487,267.871905 202.097011,270.655849 C218.00296,273.439217 186.625604,303.010492 168.830694,304.158142 C156.119057,304.978304 150.996071,287.507429 153.483605,279.702371" id="Fill-73" fill="#930C3A"></path>
                        <path d="M212.23714,273.441001 C212.23714,273.441001 217.60416,270.455614 223.619252,272.906889 C229.634344,275.35874 229.80816,306.735521 224.033649,325.122098 C218.259138,343.508675 214.324666,341.133373 209.254631,340.769624 C204.184595,340.405876 196.529756,281.348507 212.23714,273.441001" id="Fill-75" fill="#BA104A"></path>
                        <path d="M194.781172,272.86096 C194.781172,272.86096 200.812955,271.705828 205.758096,275.917716 C210.703237,280.129604 200.477984,305.773313 189.236882,321.427171 C177.995205,337.081028 175.568103,337.803346 170.866996,335.870067 C166.165889,333.936789 177.387422,275.45267 194.781172,272.86096" id="Fill-77" fill="#BA104A"></path>
                        <path d="M224.033707,325.122098 C229.808218,306.735521 229.634401,275.35874 223.61931,272.906889 C219.65088,271.289589 215.965622,272.038957 213.916658,272.735375 C214.620558,274.9524 216.118719,279.862432 217.008522,284.157775 C218.201641,289.914444 219.991607,301.104898 218.599923,308.200876 C217.207663,315.296853 212.237198,328.760736 213.529311,334.401719 C213.968457,336.317156 214.108892,338.672889 214.103137,340.949196 C217.182914,340.376522 220.20341,337.317465 224.033707,325.122098" id="Fill-79" fill="#930C3A"></path>
                        <path d="M189.23694,321.427113 C200.478042,305.773256 210.703295,280.129546 205.758154,275.917658 C204.721585,275.034762 203.637821,274.390144 202.570748,273.918767 C202.93795,275.973487 202.975936,278.900167 201.507704,282.175057 C198.701313,288.434183 195.17203,297.61596 193.037308,302.947296 C190.902587,308.278057 181.047989,320.54767 179.822639,324.74114 C179.198166,326.877013 177.198699,331.949351 175.386286,336.414481 C178.300305,335.517196 181.881963,331.669057 189.23694,321.427113" id="Fill-81" fill="#930C3A"></path>
                        <path d="M313.699783,215.270385 L310.183737,211.157492 C305.685799,215.85975 300.146114,221.770092 297.818007,224.724975 C293.600939,230.078182 284.484198,243.304362 277.60693,244.720219 C272.71992,245.725708 260.904417,244.164236 251.38882,246.715081 C251.835448,249.035706 252.903097,251.915767 255.374516,254.372222 C259.805689,258.776345 282.953806,253.89509 292.933299,243.791854 C302.912791,233.688042 313.699783,215.270385 313.699783,215.270385" id="Fill-83" fill="#930C3A"></path>
                        <path d="M153.687351,333.221953 C151.256796,331.430836 149.821369,333.595486 149.821369,333.595486 C149.821369,333.595486 147.528947,337.982918 142.777767,338.894592 C142.255166,338.994738 135.269118,339.55993 134.766661,339.707271 C128.645093,341.507597 149.261358,347.485278 152.189189,346.76296 C154.204772,346.265683 153.674113,343.042593 155.327673,339.884541 C156.167403,338.281629 155.144072,334.295357 153.687351,333.221953" id="Fill-85" fill="#0E244C"></path>
                        <path d="M212.732287,332.740274 C215.644004,331.940833 216.206318,334.477865 216.206318,334.477865 C216.206318,334.477865 216.769783,339.395379 220.875769,341.953131 C221.328153,342.234001 227.644834,345.270612 228.060958,345.588316 C233.126965,349.467535 211.740036,347.641885 209.26689,345.915805 C207.564408,344.727867 209.217393,341.911116 208.808175,338.36917 C208.600401,336.571147 210.986639,333.219133 212.732287,332.740274" id="Fill-87" fill="#0E244C"></path>
                        <path d="M173.083043,332.740274 C175.994759,331.940833 176.557074,334.477865 176.557074,334.477865 C176.557074,334.477865 177.120539,339.395379 181.226525,341.953131 C181.678909,342.234001 187.996165,345.270612 188.411714,345.588316 C193.478296,349.467535 172.090792,347.641885 169.617646,345.915805 C167.915163,344.727867 169.568148,341.911116 169.158931,338.36917 C168.951157,336.571147 171.33797,333.219133 173.083043,332.740274" id="Fill-89" fill="#0E244C"></path>
                        <path d="M146.624237,333.386101 C146.624237,333.386101 152.190974,342.275498 157.758286,341.409293 C163.325598,340.543663 190.962444,315.317228 190.962444,315.317228 L238.25611,322.450617 L231.523305,304.555561 C231.523305,304.555561 214.746546,290.304323 188.775347,292.228393 C172.670257,293.421512 146.624237,333.386101 146.624237,333.386101" id="Fill-91" fill="#11316D"></path>
                        <path d="M206.457161,281.908519 C211.912817,288.427219 236.394487,281.790531 241.265958,270.059634 C246.136852,258.328162 233.909255,257.931032 227.347964,261.112106 C220.786674,264.293757 201.619073,276.128252 206.457161,281.908519" id="Fill-93" fill="#311E69"></path>
                        <path d="M230.706482,304.246547 C241.070443,287.815695 229.431634,272.461124 232.012984,262.916749 C237.068056,244.219374 277.527619,251.677374 280.188971,273.632948 C280.649988,277.439072 277.193224,299.521267 267.697195,313.824304 C263.888193,315.622328 244.356843,315.242464 230.706482,304.246547" id="Fill-95" fill="#614CD4"></path>
                        <path d="M257.370702,254.401748 C257.370702,254.401748 261.887633,254.775857 263.111831,258.726444 C269.121167,278.111604 245.267424,313.418828 245.267424,313.418828 L237.015738,310.246962 C237.015738,310.246962 243.045794,294.553967 244.770147,278.782697 C246.873213,259.54603 248.365043,251.700108 257.370702,254.401748" id="Fill-97" fill="#E8A5BC"></path>
                        <path d="M296.160015,339.954931 C295.415826,341.510072 295.943607,343.376011 297.391695,344.312433 C298.665392,345.135472 299.996643,345.990742 300.267728,346.146141 C300.815653,346.458666 305.85576,349.332396 305.776334,348.305612 C305.696332,347.279403 304.237308,346.345858 303.780896,345.763975 C303.323908,345.182092 305.596186,346.566294 307.226149,346.969756 C308.856687,347.372642 310.14765,347.398542 310.554565,346.682556 C310.960904,345.96772 307.306726,341.115819 304.712139,339.836367 C303.468371,339.223404 301.74114,338.623104 300.278663,338.163814 C298.650427,337.652148 296.896145,338.41533 296.160015,339.954931" id="Fill-99" fill="#F39B9B"></path>
                        <path d="M179.008003,352.443944 L170.363791,348.957251 C170.363791,348.957251 168.291805,351.311258 163.328246,351.166219 C162.782047,351.150104 155.656141,350.159579 155.119726,350.195839 C148.584912,350.636136 167.910789,361.218231 171.006107,361.146862 C173.860844,361.08125 173.223708,355.092058 179.008003,352.443944" id="Fill-101" fill="#0E244C"></path>
                        <path d="M255.534174,247.053909 L259.575123,255.642293 C259.73858,256.938435 253.180167,261.353493 250.939544,259.952024 C250.283415,259.541656 250.305286,258.279471 250.712201,256.865916 L253.210096,249.136255 L255.534174,247.053909 Z" id="Fill-103" fill="#F39B9B"></path>
                        <path d="M252.708157,250.689842 C254.108475,250.269689 256.016429,249.669964 256.016429,249.669964 C256.016429,249.669964 256.15859,251.961236 254.365746,253.908328 C253.416661,254.938565 252.236205,255.51757 251.077043,255.736856 L252.708157,250.689842 Z" id="Fill-105" fill="#311E69"></path>
                        <path d="M253.514102,243.19305 L256.13459,248.417333 C256.860936,250.206724 256.03617,252.252235 254.2675,253.026352 C252.853944,253.64507 251.89968,253.789534 249.98079,253.843636 C248.381907,253.887953 247.351094,252.501449 247.043174,250.443851 C246.644316,247.773291 247.035692,245.200575 247.321741,243.835941 C247.974992,240.724508 251.556651,239.91298 253.514102,243.19305" id="Fill-107" fill="#F39B9B"></path>
                        <path d="M256.006299,239.121481 C256.006299,239.121481 254.580657,235.937529 250.939717,236.2466 C241.029866,237.087481 247.118053,244.961605 247.118053,244.961605 C247.296474,243.458264 247.875479,242.178813 249.156082,241.801251 C251.762756,241.032889 252.890837,243.800717 252.733136,245.432982 C252.58637,246.949561 253.930284,247.350145 254.118489,246.924237 C254.306695,246.497753 253.834167,245.150962 253.834167,245.150962 C253.987839,245.095709 256.088603,248.1634 256.648615,249.422132 C257.793963,248.725139 258.089797,246.136882 258.701608,245.041032 C259.491841,243.62575 258.900174,241.912332 258.69355,241.270592 C258.184763,239.691278 256.006299,239.121481 256.006299,239.121481" id="Fill-109" fill="#0E244C"></path>
                        <path d="M247.602668,249.832155 C247.602668,249.832155 249.048454,250.582674 250.733094,249.325669 C250.733094,249.325669 250.454527,249.15991 249.653359,248.890552 C248.786578,248.599898 247.919221,248.946956 247.602668,249.832155" id="Fill-111" fill="#FFFFFF"></path>
                        <path d="M249.18768,251.873579 C250.891888,251.25889 252.624299,253.720525 255.370832,250.73226 C255.883649,250.174551 256.021781,248.998123 256.07761,248.303432 L256.13459,248.417391 C256.860936,250.206781 256.03617,252.252293 254.2675,253.02641 C252.853944,253.645128 251.89968,253.789591 249.98079,253.843693 C249.005805,253.870744 248.243199,253.363683 247.725778,252.498053 C248.04636,252.501506 248.667381,252.061209 249.18768,251.873579" id="Fill-113" fill="#C87171"></path>
                        <path d="M253.857534,245.931986 C253.881132,245.569964 253.848901,245.210244 253.79595,244.851675 C253.694653,244.170222 253.702135,243.13538 254.786475,243.481862 C256.363487,243.986621 256.703638,247.644252 255.061588,248.170882 C253.84257,248.561106 253.798828,246.842509 253.857534,245.931986" id="Fill-115" fill="#F39B9B"></path>
                        <path d="M267.696907,313.824074 C267.696907,313.824074 258.77125,314.737475 248.654201,310.777103 C235.519533,305.635123 220.66742,294.989142 213.233593,296.012473 C200.374039,297.781719 211.37341,313.975444 221.026564,325.648785 C232.840915,339.936283 240.800797,342.092875 254.227844,341.616319 C275.588297,340.858317 267.696907,313.824074 267.696907,313.824074" id="Fill-117" fill="#163774"></path>
                        <path d="M209.092958,297.683357 C196.551109,307.741125 169.016712,346.861955 169.809247,349.371361 C170.567249,351.773138 174.417114,356.297551 177.34322,355.435374 C191.113296,351.377159 219.575483,327.731765 222.364607,318.809561 C225.746549,307.990914 213.643846,294.033208 209.092958,297.683357" id="Fill-119" fill="#163774"></path>
                        <path d="M265.211502,325.733046 C261.554446,331.404533 254.973587,333.569184 249.791318,330.283359 C244.609626,326.996958 236.394199,326.365578 231.25222,324.679786 C226.11024,322.994571 220.216014,312.588595 215.539656,310.019907 C210.863298,307.451795 216.298233,314.737705 216.276362,317.728848 C216.255067,320.719415 208.082232,327.755535 204.543739,332.937803 C201.004671,338.119496 187.35431,344.060342 181.16425,347.852077 C177.181432,350.291265 173.619342,351.682949 171.58304,352.366129 C173.162354,354.289048 175.446719,355.994408 177.343162,355.434971 C189.032043,351.99087 211.303595,334.434238 219.47643,323.747968 C219.994427,324.392011 220.512424,325.026844 221.026391,325.649016 C232.841318,339.936513 240.800624,342.093106 254.228247,341.616549 C269.171298,341.08589 269.798074,327.696829 268.825967,319.699537 C267.7917,321.542454 266.551962,323.654729 265.211502,325.733046" id="Fill-121" fill="#0E244C"></path>
                        <path d="M280.18874,273.63266 C279.236778,265.77868 273.447878,259.782006 266.172903,256.17157 C267.965747,259.098826 268.181579,264.315052 268.206903,270.2582 C268.245465,279.133784 265.423535,284.514617 265.523105,292.049741 C265.605985,298.337069 263.611698,308.92492 260.870345,314.628638 C264.125666,314.685617 266.584423,314.34892 267.696965,313.824016 C277.192993,299.520979 280.650333,277.438784 280.18874,273.63266" id="Fill-123" fill="#311E69"></path>
                        <path d="M273.30658,260.987384 C273.30658,260.987384 283.983641,267.925661 291.07559,291.588322 C296.516281,309.742951 308.247178,333.377985 302.014527,339.685457 C295.781302,345.992354 288.78547,340.841741 287.347166,336.289702 C285.908862,331.737663 262.684772,280.079588 273.30658,260.987384" id="Fill-125" fill="#614CD4"></path>
                        <path d="M158.951347,265.735169 C158.951347,265.735169 158.504144,276.587197 162.008678,284.47053 C165.512638,292.352712 173.93814,295.484289 175.95142,294.067856 C177.964125,292.651423 158.951347,265.735169 158.951347,265.735169" id="Fill-127" fill="#0E244C"></path>
                        <path d="M245.258272,247.614842 C245.258272,247.614842 244.424874,243.279786 239.151093,242.115444 C233.876736,240.951679 202.225417,270.095894 204.938568,279.432495 C208.957646,293.26358 245.945481,263.526546 245.258272,247.614842" id="Fill-129" fill="#614CD4"></path>
                        <path d="M245.258272,247.61536 C245.258272,247.61536 244.766751,245.095594 242.196337,243.382752 C241.818199,244.532704 242.085831,248.227171 240.397738,250.053972 C237.903872,252.752159 224.920575,260.615348 222.953339,265.883949 C220.985527,271.153125 215.517785,274.930472 211.739863,275.129613 C209.475643,275.248752 207.42898,274.225996 206.147802,273.386842 C204.986914,275.793224 204.489062,277.88593 204.938568,279.432438 C208.957646,293.263523 245.945481,263.526489 245.258272,247.61536" id="Fill-131" fill="#311E69"></path>
                        <path d="M241.166732,246.422126 C241.98862,247.102428 243.18807,247.065593 243.967943,246.33752 C244.653425,245.696355 246.552746,241.750372 247.039663,240.832367 C247.52658,239.913786 247.73608,239.143122 247.367727,238.79146 C246.999374,238.439798 243.53743,239.904577 242.379996,241.270362 C241.825164,241.924764 241.205294,242.871547 240.709744,243.680197 C240.158366,244.581511 240.352902,245.74873 241.166732,246.422126" id="Fill-133" fill="#F39B9B"></path>
                        <path d="M273.30658,303.059471 C273.30658,303.059471 271.686402,306.941568 269.797441,312.508881 C268.618135,315.984638 267.114218,319.581837 264.826976,320.860137 C260.95121,323.024787 247.725605,310.404663 247.725605,310.404663 L273.30658,303.059471 Z" id="Fill-135" fill="#614CD4"></path>
                        <path d="M291.07536,291.588322 C287.741764,280.463481 283.615058,273.037137 280.177862,268.288834 C280.980757,272.95253 282.436903,281.267527 283.467141,286.313389 C284.958396,293.620019 286.449075,294.813714 288.835312,299.137834 C291.220975,303.46253 289.133448,317.777654 290.475635,323.146401 C291.129462,325.761709 288.71272,329.650712 286.063455,332.952077 C286.723037,334.607364 287.181177,335.764799 287.346935,336.289702 C288.785239,340.841741 295.781647,345.992354 302.014297,339.685457 C308.246947,333.377985 296.516051,309.742951 291.07536,291.588322" id="Fill-137" fill="#311E69"></path>
                        <path d="M263.769802,305.797832 C263.769802,305.797832 260.848301,313.621883 257.299449,318.225146 C260.338938,320.276412 263.304181,321.710112 264.826515,320.859446 C267.114333,319.581721 268.61825,315.984523 269.797556,312.508766 C271.686517,306.941453 273.306695,303.059356 273.306695,303.059356 L263.769802,305.797832 Z" id="Fill-139" fill="#311E69"></path>
                        <path d="M177.216138,231.753958 C177.216138,231.753958 162.834825,237.564729 157.738314,256.591895 C154.649328,268.125378 171.294861,298.620413 179.659355,296.383819 C188.023274,294.1478 182.244158,281.79761 181.681844,278.867476 C181.120106,275.937917 170.378007,260.633996 173.919953,257.692926 C177.461898,254.751856 187.547868,244.656103 187.667007,239.666069 C187.786722,234.676035 183.593827,229.38844 177.216138,231.753958" id="Fill-141" fill="#BA104A"></path>
                        <path d="M181.682017,278.867706 C181.119703,275.937572 170.37818,260.63365 173.920125,257.693156 C177.462071,254.752087 187.548041,244.656333 187.66718,239.666299 C187.725311,237.241499 186.762988,234.74936 185.02885,233.096375 C184.369268,235.397431 183.305073,238.312025 181.751083,240.363868 C178.799078,244.259778 174.210779,246.871632 172.191743,248.740448 C165.717361,254.731367 165.49117,259.62183 170.397749,269.995576 C172.081813,273.555939 183.062766,284.489696 183.732708,292.695338 C185.256193,288.113946 182.091234,280.99955 181.682017,278.867706" id="Fill-143" fill="#930C3A"></path>
                        <path d="M180.424954,293.442001 C180.424954,293.442001 186.266229,293.115088 187.824248,294.389359 C189.382267,295.664782 190.843593,297.157763 190.436677,298.701969 C190.030338,300.245023 187.728706,297.756913 187.109413,297.661371 C186.490119,297.566405 188.231163,298.887297 187.731008,299.301118 C187.143946,299.786884 185.221603,298.05102 183.707326,298.175915 C182.192474,298.299658 179.851705,299.112913 179.338888,297.285536 C178.825496,295.457584 178.721896,293.479412 180.424954,293.442001" id="Fill-145" fill="#F39B9B"></path>
                        <path d="M173.915694,251.202486 C172.593651,253.690021 169.50524,254.636228 167.01713,253.314186 C164.528444,251.992143 163.583388,248.903732 164.904855,246.415622 C166.226897,243.926936 169.315308,242.98188 171.803994,244.303922 C174.292105,245.625389 175.237161,248.714376 173.915694,251.202486" id="Fill-147" fill="#DDBCBC"></path>
                        <polygon id="Fill-149" fill="#BA104A" points="173.393265 249.378562 171.256817 248.243574 172.391805 246.106551 169.980243 244.825948 168.845255 246.962396 166.708231 245.827408 165.427629 248.239546 167.564077 249.373958 166.429089 251.510406 168.840651 252.79216 169.975639 250.655136 172.112087 251.790124"></polygon>
                        <path d="M306.473903,226.60605 L300.413342,219.128482 L310.506794,220.460884 C309.383892,222.23013 308.014655,224.337801 306.473903,226.60605" id="Fill-151" fill="#0E244C"></path>
                        <path d="M376.832288,355.989401 C375.748524,354.376129 375.452115,352.601127 375.325493,351.143254 L369.9343,351.120808 C369.9343,351.120808 370.293444,352.971783 369.379468,354.41354 C368.98061,355.042042 367.822025,355.506513 366.224293,356.170699 C363.694743,357.456482 360.571223,359.114647 360.460142,359.976823 C360.273663,361.413976 375.14477,361.431243 377.621945,360.048767 C378.916936,359.325874 378.019651,357.757496 376.832288,355.989401" id="Fill-153" fill="#0E244C"></path>
                        <path d="M313.626169,359.493878 C312.630465,357.825929 312.428446,356.037114 312.3801,354.574637 L306.99754,354.264414 C306.99754,354.264414 307.258265,356.131504 306.268315,357.522613 C305.836652,358.129244 304.654468,358.531555 303.02393,359.109409 C300.429343,360.258211 297.221793,361.747739 297.064667,362.602433 C296.802791,364.028075 311.651451,364.837876 314.198268,363.589504 C315.53067,362.936829 314.717991,361.322981 313.626169,359.493878" id="Fill-155" fill="#0E244C"></path>
                        <path d="M318.337349,236.611328 C332.005552,236.604421 358.010133,233.457879 358.759501,234.719489 C371.015877,255.336905 352.156196,282.369421 356.715717,298.538397 C357.720055,302.101638 380.62126,345.049312 376.279873,352.361122 C373.83608,356.478044 358.509712,356.095878 354.357681,352.361122 C350.060612,348.496867 329.393123,298.538397 334.961586,265.616835 C334.961586,265.616835 329.507082,282.908137 326.867026,288.693584 C323.426377,296.233312 324.057758,302.024514 324.872163,307.917589 C327.264732,325.230187 332.365848,348.159594 324.09114,357.336192 C321.45799,360.255966 312.249162,359.674659 305.975647,356.510275 C305.975647,356.510275 300.25236,315.128102 304.019347,283.160229 C305.508875,270.521687 317.45215,240.845086 318.337349,236.611328" id="Fill-157" fill="#BA104A"></path>
                        <path d="M356.715544,298.538224 C352.156023,282.369248 371.016279,255.336732 358.76048,234.719316 C358.443926,234.187506 353.643824,234.439022 347.171745,234.907522 L349.370352,245.636382 C349.370352,245.636382 343.786925,264.670455 342.853955,274.774267 C341.921561,284.878078 345.96251,323.42681 353.423964,329.0229 C357.803913,332.307574 361.808026,345.177488 364.368656,355.249644 C369.564162,355.548931 374.919096,354.653372 376.279701,352.361525 C380.621088,345.049715 357.719882,302.101466 356.715544,298.538224" id="Fill-159" fill="#930C3A"></path>
                        <path d="M358.996916,234.572148 C355.267916,224.640426 350.034424,210.551494 345.87376,200.639917 C342.626497,192.902198 334.558988,188.291453 326.260107,189.536947 C313.267025,191.487492 300.078832,198.127058 295.740322,214.749569 C294.202448,220.640341 308.386346,217.924888 313.635378,226.537445 C316.440042,231.138981 316.7871,243.400536 316.900484,252.608214 C323.8802,253.586652 361.1961,247.095579 358.996916,234.572148" id="Fill-161" fill="#BA104A"></path>
                        <path d="M312.480649,185.477983 L320.069875,192.528493 C320.762839,193.773987 315.920146,200.914858 313.080949,200.408372 C312.249852,200.260455 311.757756,198.972946 311.593723,197.376365 L310.976156,188.533012 L312.480649,185.477983 Z" id="Fill-163" fill="#F39B9B"></path>
                        <path d="M311.100245,190.310604 C312.34689,189.314324 314.034984,187.930122 314.034984,187.930122 C314.034984,187.930122 315.111841,190.192616 314.089086,192.89368 C313.548067,194.323351 312.588047,195.390424 311.503707,196.084539 L311.100245,190.310604 Z" id="Fill-165" fill="#0E244C"></path>
                        <path d="M358.996916,234.572148 C355.267916,224.640426 350.034424,210.551494 345.874336,200.639917 C342.626497,192.902198 334.558988,188.291453 326.260107,189.536947 C323.488249,189.953647 320.707183,190.585603 318.004967,191.48001 C320.616246,193.127815 323.708686,195.665998 326.019526,199.365645 C330.885241,207.158041 340.056083,226.10463 342.699017,232.019575 C345.340799,237.935097 349.848521,231.047468 349.382899,245.216402 C349.378295,245.354535 349.374842,245.496696 349.370237,245.636555 C355.50677,242.765127 359.784271,239.05512 358.996916,234.572148" id="Fill-167" fill="#930C3A"></path>
                        <path d="M308.82555,183.320815 L313.398884,187.105068 C314.806108,188.470853 314.876901,190.710325 313.548528,192.153233 C312.487786,193.306639 311.660142,193.831542 309.898378,194.666092 C308.430146,195.361934 306.904933,194.495153 305.776852,192.707489 C304.313799,190.389167 303.624864,187.837746 303.332483,186.451817 C302.667146,183.292613 305.664619,181.07271 308.82555,183.320815" id="Fill-169" fill="#F39B9B"></path>
                        <path d="M308.643445,190.376102 C308.643445,190.376102 307.705871,192.007215 305.866983,192.007215 C305.866983,192.007215 305.786981,191.941027 306.190443,191.183601 C306.593905,190.425599 308.124873,190.096384 308.643445,190.376102" id="Fill-171" fill="#FFFFFF"></path>
                        <path d="M308.355151,193.159988 C309.687553,191.890896 312.305739,193.470786 313.635839,189.568545 C313.883902,188.841048 313.531088,187.691095 313.299141,187.022304 L313.399287,187.104608 C314.805935,188.470968 314.876728,190.71044 313.548355,192.153348 C312.488188,193.306178 311.659969,193.831657 309.898781,194.666207 C309.003222,195.090389 308.086944,194.930961 307.251818,194.338143 C307.551681,194.21037 307.948236,193.547334 308.355151,193.159988" id="Fill-173" fill="#C87171"></path>
                        <path d="M304.150918,184.91872 C304.150918,184.91872 305.626633,183.56272 306.990115,184.115249 C308.353022,184.667779 308.530867,185.037859 309.028144,185.83212 C309.95766,187.318771 311.454095,186.345513 311.375244,185.430385 C311.295818,184.515258 312.693258,185.674995 312.693258,185.674995 L314.082064,186.965957 C314.082064,186.965957 313.03456,180.500784 311.648056,178.034545 C310.262127,175.568305 307.003353,177.7013 307.003353,177.7013 C307.003353,177.7013 305.124752,174.937501 300.582497,176.41264 C294.948421,178.241743 297.11192,185.02865 301.238626,185.64449 C303.350325,185.959893 304.150918,184.91872 304.150918,184.91872" id="Fill-175" fill="#163774"></path>
                        <path d="M298.381587,177.701876 C298.496122,179.066509 299.420458,180.613017 301.171286,181.356054 C303.241546,182.234346 307.440196,179.701343 307.440196,179.701343 C307.440196,179.701343 309.720533,182.576224 312.82103,181.17936 C313.584787,183.895389 314.082064,186.965957 314.082064,186.965957 L312.693258,185.674995 C312.693258,185.674995 311.295818,184.515258 311.375244,185.430385 C311.454095,186.345513 309.95766,187.318771 309.028144,185.83212 C308.530867,185.037859 308.353022,184.668355 306.990115,184.115825 C305.626633,183.56272 304.150918,184.91872 304.150918,184.91872 C304.150918,184.91872 303.34975,185.959893 301.238626,185.64449 C297.804884,185.132249 295.734049,180.348263 298.381587,177.701876" id="Fill-177" fill="#0E244C"></path>
                        <path d="M344.105665,210.720476 C344.105665,210.720476 345.678648,224.389255 341.342441,232.950012 C337.006234,241.51077 322.824062,247.095349 322.824062,247.095349 C322.824062,247.095349 341.728061,211.279337 344.105665,210.720476" id="Fill-179" fill="#0E244C"></path>
                        <path d="M310.26558,185.726161 C310.138959,185.380255 309.962264,185.058521 309.766001,184.747148 C309.393044,184.15548 308.97692,183.19028 310.126297,183.068839 C311.798275,182.89272 313.610687,186.153221 312.300156,187.314109 C311.326898,188.176285 310.58386,186.596396 310.26558,185.726161" id="Fill-181" fill="#F39B9B"></path>
                        <path d="M330.609954,193.153254 C325.767837,196.000509 320.675355,212.699568 318.12451,222.164517 C316.945779,226.536984 314.663141,230.431743 311.521779,233.446483 C311.521779,233.446483 280.31824,253.853247 277.658615,262.83128 C277.141194,264.578655 280.676808,268.248949 282.072521,268.630539 C295.43338,272.282991 320.159085,253.674826 330.119009,243.834042 C338.226807,235.823512 349.482297,210.061814 342.538265,196.910456 C340.774774,193.570529 337.353695,189.187702 330.609954,193.153254" id="Fill-183" fill="#BA104A"></path>
                        <path d="M279.127308,260.007162 C290.842089,258.005393 312.876513,248.597999 323.541488,237.874318 C334.696257,226.658541 338.386119,199.68358 339.167143,192.740123 C340.694082,193.814678 341.772666,195.460181 342.53815,196.910571 C349.482182,210.06193 338.227267,235.823052 330.119469,243.833581 C320.15897,253.675517 295.433841,272.283106 282.072982,268.630079 C280.676693,268.248488 277.141079,264.578194 277.6585,262.831395 C277.910016,261.983607 278.417077,261.032795 279.127308,260.007162" id="Fill-185" fill="#930C3A"></path>
                        <path d="M271.081957,267.359491 C272.037949,266.052413 276.261348,264.798285 275.989687,264.501301 C275.690976,264.173812 275.060747,264.618138 273.825037,264.717133 C272.52429,264.821307 271.706431,263.665599 273.12459,263.484301 C274.54275,263.302426 275.489533,262.783279 276.99345,262.067292 C277.832604,261.667859 278.91867,261.655773 279.715234,261.722537 C280.398989,261.780092 280.991808,262.21118 281.28131,262.832776 C281.655419,263.636246 282.080176,264.730946 281.886791,265.217863 C281.075263,267.260496 276.011558,268.37534 273.768633,268.592898 C272.427597,268.722973 270.568565,268.061664 271.081957,267.359491" id="Fill-187" fill="#F39B9B"></path>
                        <path d="M318.005198,278.815446 C315.186145,285.655304 315.652342,309.567178 315.96314,316.885894 C316.177821,321.942692 315.279384,343.169042 313.165383,358.831533 C317.84577,359.656298 322.371333,359.243052 324.091082,357.336249 C332.36579,348.159076 327.264675,325.230244 324.872106,307.917071 C324.058276,302.024572 323.42632,296.23337 326.866968,288.693641 C329.507024,282.908195 334.961529,265.616317 334.961529,265.616317 C334.961529,265.616317 320.823675,271.976164 318.005198,278.815446" id="Fill-189" fill="#930C3A"></path>
                    </g>
                </g>
            </g>
        </g>
    </g>
</svg>