<?xml version="1.0" encoding="UTF-8"?>
<svg width="482px" height="422px" viewBox="0 0 482 422" version="1.1" xmlns="http://www.w3.org/2000/svg" xmlns:xlink="http://www.w3.org/1999/xlink">
    <!-- Generator: Sketch 57.1 (83088) - https://sketch.com -->
    <title>Illustration</title>
    <desc>Created with Sketch.</desc>
    <defs>
        <linearGradient x1="50%" y1="0%" x2="50%" y2="100%" id="linearGradient-1">
            <stop stop-color="#BA104A" stop-opacity="0" offset="0%"></stop>
            <stop stop-color="#27B8F5" offset="100%"></stop>
        </linearGradient>
        <polygon id="path-2" points="0 0.134316832 141.249701 0.134316832 141.249701 132.391102 0 132.391102"></polygon>
        <polygon id="path-4" points="0.368765347 0.134316832 79.2677851 0.134316832 79.2677851 132.390749 0.368765347 132.390749"></polygon>
        <polygon id="path-6" points="0 0.134316832 141.249701 0.134316832 141.249701 132.391102 0 132.391102"></polygon>
        <polygon id="path-8" points="0.368765347 0.134316832 79.2677851 0.134316832 79.2677851 132.390749 0.368765347 132.390749"></polygon>
    </defs>
    <g id="Home" stroke="none" stroke-width="1" fill="none" fill-rule="evenodd">
        <g transform="translate(-1098.000000, -5821.000000)" id="Illustration">
            <g transform="translate(1098.000000, 5821.000000)">
                <path d="M241,422 C374.100625,422 482,327.532082 482,211 C482,142.470485 363.410678,199.82902 305.599402,161.285538 C265.104593,134.287156 295.827577,0 241,0 C107.899375,0 0,94.4679178 0,211 C0,327.532082 107.899375,422 241,422 Z" id="Oval" fill="url(#linearGradient-1)" opacity="0.25" transform="translate(241.000000, 211.000000) scale(-1, 1) translate(-241.000000, -211.000000) "></path>
                <g id="Group-62" transform="translate(180.500000, 178.500000) scale(-1, 1) translate(-180.500000, -178.500000) translate(24.000000, 102.000000)">
                    <path d="M264.273921,53.5465663 L264.273921,53.5465663 C262.015277,53.5465663 260.167158,55.3946851 260.167158,57.6533287 L260.167158,69.5444079 C260.167158,71.8025465 262.015277,73.6506653 264.273921,73.6506653 C266.532564,73.6506653 268.380683,71.8025465 268.380683,69.5444079 L268.380683,57.6533287 C268.380683,55.3946851 266.532564,53.5465663 264.273921,53.5465663" id="Fill-1" fill="#FFE6E6"></path>
                    <path d="M21.4825129,132.761635 L48.7008594,132.761635 C48.7008594,132.761635 68.3752455,123.164041 61.3660277,115.192387 C54.3573149,107.220734 61.5897208,105.32414 43.1797307,106.651654 C24.7702455,107.979169 13.6431564,121.12909 21.4825129,132.761635" id="Fill-3" fill="#E59C9C"></path>
                    <path d="M68.7049782,132.761635 C68.7049782,122.365714 63.097503,113.814377 55.905998,112.7661 L44.839503,112.657536 L44.839503,152.865229 L55.905998,152.757169 C63.097503,151.708892 68.7049782,143.157555 68.7049782,132.761635" id="Fill-5" fill="#0E244C"></path>
                    <path d="M59.1272287,132.761635 C59.1272287,143.864486 52.7305158,152.865229 44.8396545,152.865229 C36.9487931,152.865229 30.5515752,143.864486 30.5515752,132.761635 C30.5515752,121.658783 36.9487931,112.658041 44.8396545,112.658041 C52.7305158,112.658041 59.1272287,121.658783 59.1272287,132.761635" id="Fill-7" fill="#163774"></path>
                    <path d="M52.019697,132.761635 C52.019697,139.063417 48.8051822,144.173011 44.839301,144.173011 C40.8739248,144.173011 37.6594099,139.063417 37.6594099,132.761635 C37.6594099,126.459348 40.8739248,121.350258 44.839301,121.350258 C48.8051822,121.350258 52.019697,126.459348 52.019697,132.761635" id="Fill-9" fill="#FFFFFF"></path>
                    <path d="M44.8394525,121.35046 C44.2678485,121.35046 43.7129079,121.45953 43.1796802,121.659995 C46.3447099,122.851173 48.7008089,127.36745 48.7008089,132.761837 C48.7008089,138.155718 46.3447099,142.6725 43.1796802,143.863173 C43.7129079,144.063134 44.2678485,144.172708 44.8394525,144.172708 C48.8053337,144.172708 52.0198485,139.063619 52.0198485,132.761837 C52.0198485,126.459045 48.8053337,121.35046 44.8394525,121.35046" id="Fill-11" fill="#FFE6E6"></path>
                    <path d="M306.533935,132.761635 C306.533935,122.365714 300.926459,113.814377 293.73445,112.7661 L282.667954,112.657536 L282.667954,152.865229 L293.73445,152.757169 C300.926459,151.708892 306.533935,143.157555 306.533935,132.761635" id="Fill-13" fill="#163774"></path>
                    <path d="M296.956185,132.761635 C296.956185,143.864486 290.558967,152.865229 282.668106,152.865229 C274.777245,152.865229 268.380532,143.864486 268.380532,132.761635 C268.380532,121.658783 274.777245,112.658041 282.668106,112.658041 C290.558967,112.658041 296.956185,121.658783 296.956185,132.761635" id="Fill-15" fill="#0E244C"></path>
                    <path d="M215.596996,132.761635 C215.596996,132.761635 246.954422,120.62313 264.150006,124.163843 C281.346095,127.703546 269.71355,99.8873376 251.506046,98.3699614 C233.299046,96.8525851 229.252372,98.1169812 229.252372,98.1169812 L217.873313,104.438961 C217.873313,104.438961 205.734808,123.910862 215.596996,132.761635" id="Fill-17" fill="#E59C9C"></path>
                    <g id="Group-21" transform="translate(1.000000, 0.370634)">
                        <mask id="mask-3" fill="white">
                            <use xlink:href="#path-2"></use>
                        </mask>
                        <g id="Clip-20"></g>
                        <path d="M-0.000100990099,6.71700297 L-0.000100990099,132.391102 L21.4825129,132.391102 C21.4825129,120.589399 31.049305,111.022102 42.8510079,111.022102 C52.7354139,111.022102 61.0524535,117.733904 63.4933842,126.84826 C64.3649287,130.102161 67.2719287,132.391102 70.6399485,132.391102 L141.249701,132.391102 L141.249701,0.133963366 L6.58293861,0.133963366 C2.94729505,0.133963366 -0.000100990099,3.08135941 -0.000100990099,6.71700297" id="Fill-19" fill="#F8E8EE" mask="url(#mask-3)"></path>
                    </g>
                    <g id="Group-24" transform="translate(140.881188, 0.370634)">
                        <mask id="mask-5" fill="white">
                            <use xlink:href="#path-4"></use>
                        </mask>
                        <g id="Clip-23"></g>
                        <polygon id="Fill-22" fill="#EFDAE2" mask="url(#mask-5)" points="78.2677851 125.500194 73.7156564 132.390749 -0.631234653 132.390749 -0.631234653 0.134114851 78.2677851 0.134114851"></polygon>
                    </g>
                    <polygon id="Fill-25" fill="#930C3A" points="141.249802 100.898703 164.524485 100.898703 164.524485 77.8987129 141.249802 77.8987129"></polygon>
                    <polygon id="Fill-27" fill="#BA104A" points="0 100.898703 141.249802 100.898703 141.249802 77.8987129 0 77.8987129"></polygon>
                    <path d="M258.836816,132.761635 C258.836816,122.365714 253.228836,113.814377 246.037331,112.7661 L234.970836,112.657536 L234.970836,152.865229 L246.037331,152.757169 C253.228836,151.708892 258.836816,143.157555 258.836816,132.761635" id="Fill-28" fill="#0E244C"></path>
                    <path d="M249.259066,132.761635 C249.259066,143.864486 242.861849,152.865229 234.970987,152.865229 C227.080126,152.865229 220.683413,143.864486 220.683413,132.761635 C220.683413,121.658783 227.080126,112.658041 234.970987,112.658041 C242.861849,112.658041 249.259066,121.658783 249.259066,132.761635" id="Fill-29" fill="#163774"></path>
                    <path d="M242.151282,132.761635 C242.151282,139.063417 238.936767,144.173011 234.970886,144.173011 C231.00551,144.173011 227.790995,139.063417 227.790995,132.761635 C227.790995,126.459348 231.00551,121.350258 234.970886,121.350258 C238.936767,121.350258 242.151282,126.459348 242.151282,132.761635" id="Fill-30" fill="#FFFFFF"></path>
                    <path d="M234.971038,121.35046 C234.399434,121.35046 233.844493,121.45953 233.31177,121.659995 C236.476295,122.851173 238.832394,127.36745 238.832394,132.761837 C238.832394,138.155718 236.476295,142.6725 233.31177,143.863173 C233.844493,144.063134 234.399434,144.172708 234.971038,144.172708 C238.936919,144.172708 242.151434,139.063619 242.151434,132.761837 C242.151434,126.459045 238.936919,121.35046 234.971038,121.35046" id="Fill-31" fill="#FFE6E6"></path>
                    <path d="M243.780555,43.0870723 C242.144516,41.1490723 239.905565,39.8195376 237.419694,39.316102 C230.496318,37.9128446 215.437684,35.2815475 201.435912,35.6552109 C194.758951,35.8334584 189.21712,36.0359436 184.838694,36.2232802 C177.095783,36.5555376 170.426902,41.7651119 168.221278,49.1949535 C166.548377,54.8322208 164.990605,61.7071218 164.767922,68.2770327 C164.261961,83.1973099 163.756506,132.761736 163.756506,132.761736 L215.597249,132.761736 C215.597249,132.761736 216.102704,108.738211 238.609357,108.738211 C252.629813,108.738211 257.322318,117.841458 257.322318,117.841458 L309.921496,117.841458 L309.921496,95.7059436 C309.921496,92.0480822 307.865338,88.7017752 304.599823,87.0536168 C298.256635,83.8527356 286.785674,79.0597455 273.169179,77.8983594 L243.780555,43.0870723 Z" id="Fill-32" fill="#FFF1F6"></path>
                    <path d="M303.34694,102.162847 L309.9219,102.162847 L309.9219,95.7060446 C309.9219,94.466896 309.681039,93.2661238 309.242237,92.1532129 L303.34694,92.427401 L303.34694,102.162847 Z" id="Fill-33" fill="#FFFFFF"></path>
                    <polygon id="Fill-34" fill="#163774" points="47.1538426 62.6859683 41.6584663 58.1626218 35.766199 63.0126713 35.766199 56.1539287 27.9945059 56.1539287 27.9945059 63.0126713 22.1022386 58.1626218 16.6063574 62.6859683 26.3847238 70.7343743 16.6063574 78.7822752 22.1022386 83.3056218 27.9945059 78.4555723 27.9945059 85.3143149 35.766199 85.3143149 35.766199 78.4555723 41.6584663 83.3056218 47.1538426 78.7822752 37.3759812 70.7343743"></polygon>
                    <path d="M164.524536,77.8985614 C164.387694,84.5472446 164.256912,92.8132842 164.143803,100.898561 L250.431763,100.898561 C256.33211,100.898561 261.115506,96.1151554 261.115506,90.214304 L261.115506,87.7486307 C261.115506,87.7486307 227.060635,77.8985614 204.51207,77.8985614 L164.524536,77.8985614 Z" id="Fill-35" fill="#BA104A"></path>
                    <path d="M258.328937,91.443 C258.328937,91.443 255.859729,94.8175842 256.704511,98.7637723 C257.131699,100.758327 258.928818,102.162594 260.968818,102.162594 L275.204887,102.162594 L272.568036,94.0707624 L258.328937,91.443 Z" id="Fill-36" fill="#FFFFFF"></path>
                    <path d="M203.50732,40.1562386 L238.013617,40.1562386 C240.166726,40.1562386 242.239548,40.9606248 243.828122,42.4143772 C250.121825,48.1748525 266.496359,63.9464762 273.16928,77.8987634 L219.458706,77.8987634 C210.761439,77.8987634 203.177082,71.9923574 201.047201,63.5601891 C199.815122,58.6813574 198.399241,53.320298 197.055062,48.7908921 C195.775013,44.4806347 199.011241,40.1562386 203.50732,40.1562386" id="Fill-37" fill="#163774"></path>
                    <path d="M265.208382,94.0708129 L309.777838,94.0708129 C309.265313,91.0739317 307.370739,88.4522287 304.600075,87.0540208 C298.256382,83.8531396 286.785422,79.0596446 273.169432,77.8987634 L204.512323,77.8987634 C204.512323,77.8987634 248.674283,82.9154465 258.328937,91.4430505 C260.2326,93.1240307 262.669491,94.0708129 265.208382,94.0708129" id="Fill-38" fill="#EFDAE2"></path>
                    <path d="M309.921648,117.841458 L257.322469,117.841458 C257.322469,117.841458 256.488796,120.811072 256.336301,124.163944 L312.478212,124.163944 C312.645855,122.100211 312.098994,119.829449 309.921648,117.841458" id="Fill-39" fill="#163774"></path>
                    <path d="M256.33625,124.163691 C256.236775,126.346087 256.425122,128.691077 257.322419,130.486176 L309.921597,130.486176 C309.921597,130.486176 312.198924,127.614018 312.478666,124.163691 L256.33625,124.163691 Z" id="Fill-40" fill="#0E244C"></path>
                    <path d="M272.568137,94.0708129 L275.604909,103.390179 C276.239127,105.335249 278.052404,106.651654 280.097958,106.651654 L299.599147,106.651654 C301.990592,106.651654 304.00484,104.865645 304.291147,102.491872 L305.306602,94.0708129 L272.568137,94.0708129 Z" id="Fill-41" fill="#0E244C"></path>
                    <path d="M192.27611,51.1467891 L196.287942,65.795403 C197.606367,70.609096 193.983348,75.3576505 188.992417,75.3576505 L176.934199,75.3576505 C172.500229,75.3576505 169.0191,71.5634525 169.397308,67.1451356 C169.819447,62.2173238 170.625348,55.9559376 172.153328,50.9523832 C173.127882,47.7641257 176.06114,45.5807198 179.394823,45.5807198 L184.980585,45.5807198 C188.388496,45.5807198 191.375783,47.8600663 192.27611,51.1467891" id="Fill-42" fill="#163774"></path>
                    <polygon id="Fill-43" fill="#BA104A" points="151.491713 20.4323168 177.475455 20.4323168 177.475455 12.087505 151.491713 12.087505"></polygon>
                    <polygon id="Fill-44" fill="#930C3A" points="159.26795 20.4323168 228.114921 20.4323168 228.114921 12.087505 159.26795 12.087505"></polygon>
                    <polygon id="Fill-45" fill="#BA104A" points="181.483248 20.4323168 183.683822 20.4323168 183.683822 12.087505 181.483248 12.087505"></polygon>
                    <polygon id="Fill-46" fill="#BA104A" points="203.69905 20.4323168 205.899624 20.4323168 205.899624 12.087505 203.69905 12.087505"></polygon>
                    <polygon id="Fill-47" fill="#BA104A" points="11.240703 23.0131188 21.9724158 23.0131188 21.9724158 10.6201188 11.240703 10.6201188"></polygon>
                    <path d="M33.8104752,21.4957426 L41.5074356,21.4957426 L41.5074356,12.137495 L33.8104752,12.137495 L33.8104752,21.4957426 Z M32.293099,23.0131188 L43.0248119,23.0131188 L43.0248119,10.6201188 L32.293099,10.6201188 L32.293099,23.0131188 Z" id="Fill-48" fill="#BA104A"></path>
                    <polygon id="Fill-49" fill="#BA104A" points="117.289396 23.0131188 128.021109 23.0131188 128.021109 10.6201188 117.289396 10.6201188"></polygon>
                    <path d="M97.7543762,21.4957426 L105.451842,21.4957426 L105.451842,12.137495 L97.7543762,12.137495 L97.7543762,21.4957426 Z M96.237505,23.0131188 L106.968713,23.0131188 L106.968713,10.6201188 L96.237505,10.6201188 L96.237505,23.0131188 Z" id="Fill-50" fill="#BA104A"></path>
                    <path d="M99.4121287,126.678446 L126.514842,126.678446 L126.514842,35.6055743 L99.4121287,35.6055743 L99.4121287,126.678446 Z M127.311653,34.0114455 L98.6148119,34.0114455 C98.175,34.0114455 97.818,34.3684455 97.818,34.8087624 L97.818,127.475762 C97.818,127.916079 98.175,128.272574 98.6148119,128.272574 L127.311653,128.272574 C127.75197,128.272574 128.10897,127.916079 128.10897,127.475762 L128.10897,34.8087624 C128.10897,34.3684455 127.75197,34.0114455 127.311653,34.0114455 L127.311653,34.0114455 Z" id="Fill-51" fill="#FFF1F6"></path>
                    <path d="M12.0277693,21.8732436 L12.5332248,11.6313327 L18.4128683,11.6313327 C18.4128683,11.6313327 16.1370564,12.4533921 16.0739376,14.6029663 C16.0108188,16.7525406 16.2001752,16.8787782 15.2205713,17.9533129 C14.2404624,19.0283525 12.0277693,21.8732436 12.0277693,21.8732436" id="Fill-52" fill="#E55D8C"></path>
                    <path d="M118.048387,21.8732436 L118.553843,11.6313327 L124.433486,11.6313327 C124.433486,11.6313327 122.157674,12.4533921 122.094555,14.6029663 C122.031437,16.7525406 122.220793,16.8787782 121.240684,17.9533129 C120.26108,19.0283525 118.048387,21.8732436 118.048387,21.8732436" id="Fill-53" fill="#E55D8C"></path>
                    <polygon id="Fill-54" fill="#FB3377" points="160.216197 19.2180624 160.216197 13.2434881 179.087207 13.2434881"></polygon>
                    <polygon id="Fill-55" fill="#FB3377" points="185.109146 19.2180624 185.109146 13.2434881 201.18273 13.2434881"></polygon>
                    <polygon id="Fill-56" fill="#FB3377" points="207.678564 19.2180624 207.678564 13.2434881 225.743673 13.2434881"></polygon>
                    <path d="M214.64875,42.7359802 L208.92665,43.3000099 C204.788581,43.7080099 201.970452,47.6834851 202.957631,51.7225842 C204.436631,57.7764356 206.521066,65.4905644 207.91574,67.248802 C210.286482,70.2365941 214.64875,42.7359802 214.64875,42.7359802" id="Fill-57" fill="#21478C"></path>
                    <path d="M181.483298,47.5406347 C181.483298,47.5406347 177.411882,47.2876545 175.13607,49.6902089 C172.860258,52.0927634 171.216645,66.3803376 172.481041,69.6675653 C173.745437,72.955298 188.815684,47.3830901 181.483298,47.5406347" id="Fill-58" fill="#21478C"></path>
                    <path d="M243.827869,42.4144782 C242.239295,40.9607257 240.166473,40.1563396 238.013364,40.1563396 L220.26183,40.1563396 C221.959978,42.386201 224.38576,44.5287059 227.790642,45.5810228 C236.585869,48.2991713 238.103246,51.0385277 239.620622,55.105904 C241.137998,59.1732802 238.103246,70.5528446 243.91977,72.0697158 C246.287988,72.6877752 247.376156,75.1716267 247.835661,77.8983594 L273.169028,77.8983594 C266.496612,63.9465772 250.122077,48.1749535 243.827869,42.4144782" id="Fill-59" fill="#0E244C"></path>
                    <path d="M196.288093,65.795302 L192.276261,51.1466881 C191.597608,48.6699059 189.733836,46.7662426 187.397935,45.9780149 C188.811796,47.2641238 189.868152,49.0072129 189.803014,51.3335198 C189.613152,58.0983416 184.682816,60.184797 188.285638,65.1156386 C191.889469,70.0469851 189.708588,68.9093317 185.108994,72.1334406 C181.491529,74.669302 176.966667,73.0771931 175.383648,75.1979851 C175.883549,75.3015 176.401628,75.3575495 176.93435,75.3575495 L188.992568,75.3575495 C193.983499,75.3575495 197.606014,70.608995 196.288093,65.795302" id="Fill-60" fill="#1E1240"></path>
                    <path d="M187.790736,53.5465663 L187.790736,53.5465663 C185.531587,53.5465663 183.683973,55.3946851 183.683973,57.6533287 L183.683973,69.5444079 C183.683973,71.8025465 185.531587,73.6506653 187.790736,73.6506653 C190.049379,73.6506653 191.897498,71.8025465 191.897498,69.5444079 L191.897498,57.6533287 C191.897498,55.3946851 190.049379,53.5465663 187.790736,53.5465663" id="Fill-61" fill="#FFE6E6"></path>
                </g>
                <g id="Group-62" transform="translate(301.500000, 266.500000) scale(-1, 1) translate(-301.500000, -266.500000) translate(145.000000, 190.000000)">
                    <path d="M264.273921,53.5465663 L264.273921,53.5465663 C262.015277,53.5465663 260.167158,55.3946851 260.167158,57.6533287 L260.167158,69.5444079 C260.167158,71.8025465 262.015277,73.6506653 264.273921,73.6506653 C266.532564,73.6506653 268.380683,71.8025465 268.380683,69.5444079 L268.380683,57.6533287 C268.380683,55.3946851 266.532564,53.5465663 264.273921,53.5465663" id="Fill-1" fill="#FFE6E6"></path>
                    <path d="M21.4825129,132.761635 L48.7008594,132.761635 C48.7008594,132.761635 68.3752455,123.164041 61.3660277,115.192387 C54.3573149,107.220734 61.5897208,105.32414 43.1797307,106.651654 C24.7702455,107.979169 13.6431564,121.12909 21.4825129,132.761635" id="Fill-3" fill="#E59C9C"></path>
                    <path d="M68.7049782,132.761635 C68.7049782,122.365714 63.097503,113.814377 55.905998,112.7661 L44.839503,112.657536 L44.839503,152.865229 L55.905998,152.757169 C63.097503,151.708892 68.7049782,143.157555 68.7049782,132.761635" id="Fill-5" fill="#0E244C"></path>
                    <path d="M59.1272287,132.761635 C59.1272287,143.864486 52.7305158,152.865229 44.8396545,152.865229 C36.9487931,152.865229 30.5515752,143.864486 30.5515752,132.761635 C30.5515752,121.658783 36.9487931,112.658041 44.8396545,112.658041 C52.7305158,112.658041 59.1272287,121.658783 59.1272287,132.761635" id="Fill-7" fill="#163774"></path>
                    <path d="M52.019697,132.761635 C52.019697,139.063417 48.8051822,144.173011 44.839301,144.173011 C40.8739248,144.173011 37.6594099,139.063417 37.6594099,132.761635 C37.6594099,126.459348 40.8739248,121.350258 44.839301,121.350258 C48.8051822,121.350258 52.019697,126.459348 52.019697,132.761635" id="Fill-9" fill="#FFFFFF"></path>
                    <path d="M44.8394525,121.35046 C44.2678485,121.35046 43.7129079,121.45953 43.1796802,121.659995 C46.3447099,122.851173 48.7008089,127.36745 48.7008089,132.761837 C48.7008089,138.155718 46.3447099,142.6725 43.1796802,143.863173 C43.7129079,144.063134 44.2678485,144.172708 44.8394525,144.172708 C48.8053337,144.172708 52.0198485,139.063619 52.0198485,132.761837 C52.0198485,126.459045 48.8053337,121.35046 44.8394525,121.35046" id="Fill-11" fill="#FFE6E6"></path>
                    <path d="M306.533935,132.761635 C306.533935,122.365714 300.926459,113.814377 293.73445,112.7661 L282.667954,112.657536 L282.667954,152.865229 L293.73445,152.757169 C300.926459,151.708892 306.533935,143.157555 306.533935,132.761635" id="Fill-13" fill="#163774"></path>
                    <path d="M296.956185,132.761635 C296.956185,143.864486 290.558967,152.865229 282.668106,152.865229 C274.777245,152.865229 268.380532,143.864486 268.380532,132.761635 C268.380532,121.658783 274.777245,112.658041 282.668106,112.658041 C290.558967,112.658041 296.956185,121.658783 296.956185,132.761635" id="Fill-15" fill="#0E244C"></path>
                    <path d="M215.596996,132.761635 C215.596996,132.761635 246.954422,120.62313 264.150006,124.163843 C281.346095,127.703546 269.71355,99.8873376 251.506046,98.3699614 C233.299046,96.8525851 229.252372,98.1169812 229.252372,98.1169812 L217.873313,104.438961 C217.873313,104.438961 205.734808,123.910862 215.596996,132.761635" id="Fill-17" fill="#E59C9C"></path>
                    <g id="Group-21" transform="translate(1.000000, 0.370634)">
                        <mask id="mask-7" fill="white">
                            <use xlink:href="#path-6"></use>
                        </mask>
                        <g id="Clip-20"></g>
                        <path d="M-0.000100990099,6.71700297 L-0.000100990099,132.391102 L21.4825129,132.391102 C21.4825129,120.589399 31.049305,111.022102 42.8510079,111.022102 C52.7354139,111.022102 61.0524535,117.733904 63.4933842,126.84826 C64.3649287,130.102161 67.2719287,132.391102 70.6399485,132.391102 L141.249701,132.391102 L141.249701,0.133963366 L6.58293861,0.133963366 C2.94729505,0.133963366 -0.000100990099,3.08135941 -0.000100990099,6.71700297" id="Fill-19" fill="#FFF1F6" mask="url(#mask-7)"></path>
                    </g>
                    <g id="Group-24" transform="translate(140.881188, 0.370634)">
                        <mask id="mask-9" fill="white">
                            <use xlink:href="#path-8"></use>
                        </mask>
                        <g id="Clip-23"></g>
                        <polygon id="Fill-22" fill="#EFDAE2" mask="url(#mask-9)" points="78.2677851 125.500194 73.7156564 132.390749 -0.631234653 132.390749 -0.631234653 0.134114851 78.2677851 0.134114851"></polygon>
                    </g>
                    <polygon id="Fill-25" fill="#930C3A" points="141.249802 100.898703 164.524485 100.898703 164.524485 77.8987129 141.249802 77.8987129"></polygon>
                    <polygon id="Fill-27" fill="#BA104A" points="0 100.898703 141.249802 100.898703 141.249802 77.8987129 0 77.8987129"></polygon>
                    <path d="M258.836816,132.761635 C258.836816,122.365714 253.228836,113.814377 246.037331,112.7661 L234.970836,112.657536 L234.970836,152.865229 L246.037331,152.757169 C253.228836,151.708892 258.836816,143.157555 258.836816,132.761635" id="Fill-28" fill="#0E244C"></path>
                    <path d="M249.259066,132.761635 C249.259066,143.864486 242.861849,152.865229 234.970987,152.865229 C227.080126,152.865229 220.683413,143.864486 220.683413,132.761635 C220.683413,121.658783 227.080126,112.658041 234.970987,112.658041 C242.861849,112.658041 249.259066,121.658783 249.259066,132.761635" id="Fill-29" fill="#163774"></path>
                    <path d="M242.151282,132.761635 C242.151282,139.063417 238.936767,144.173011 234.970886,144.173011 C231.00551,144.173011 227.790995,139.063417 227.790995,132.761635 C227.790995,126.459348 231.00551,121.350258 234.970886,121.350258 C238.936767,121.350258 242.151282,126.459348 242.151282,132.761635" id="Fill-30" fill="#FFFFFF"></path>
                    <path d="M234.971038,121.35046 C234.399434,121.35046 233.844493,121.45953 233.31177,121.659995 C236.476295,122.851173 238.832394,127.36745 238.832394,132.761837 C238.832394,138.155718 236.476295,142.6725 233.31177,143.863173 C233.844493,144.063134 234.399434,144.172708 234.971038,144.172708 C238.936919,144.172708 242.151434,139.063619 242.151434,132.761837 C242.151434,126.459045 238.936919,121.35046 234.971038,121.35046" id="Fill-31" fill="#FFE6E6"></path>
                    <path d="M243.780555,43.0870723 C242.144516,41.1490723 239.905565,39.8195376 237.419694,39.316102 C230.496318,37.9128446 215.437684,35.2815475 201.435912,35.6552109 C194.758951,35.8334584 189.21712,36.0359436 184.838694,36.2232802 C177.095783,36.5555376 170.426902,41.7651119 168.221278,49.1949535 C166.548377,54.8322208 164.990605,61.7071218 164.767922,68.2770327 C164.261961,83.1973099 163.756506,132.761736 163.756506,132.761736 L215.597249,132.761736 C215.597249,132.761736 216.102704,108.738211 238.609357,108.738211 C252.629813,108.738211 257.322318,117.841458 257.322318,117.841458 L309.921496,117.841458 L309.921496,95.7059436 C309.921496,92.0480822 307.865338,88.7017752 304.599823,87.0536168 C298.256635,83.8527356 286.785674,79.0597455 273.169179,77.8983594 L243.780555,43.0870723 Z" id="Fill-32" fill="#FFF1F6"></path>
                    <path d="M303.34694,102.162847 L309.9219,102.162847 L309.9219,95.7060446 C309.9219,94.466896 309.681039,93.2661238 309.242237,92.1532129 L303.34694,92.427401 L303.34694,102.162847 Z" id="Fill-33" fill="#FFFFFF"></path>
                    <polygon id="Fill-34" fill="#163774" points="47.1538426 62.6859683 41.6584663 58.1626218 35.766199 63.0126713 35.766199 56.1539287 27.9945059 56.1539287 27.9945059 63.0126713 22.1022386 58.1626218 16.6063574 62.6859683 26.3847238 70.7343743 16.6063574 78.7822752 22.1022386 83.3056218 27.9945059 78.4555723 27.9945059 85.3143149 35.766199 85.3143149 35.766199 78.4555723 41.6584663 83.3056218 47.1538426 78.7822752 37.3759812 70.7343743"></polygon>
                    <path d="M164.524536,77.8985614 C164.387694,84.5472446 164.256912,92.8132842 164.143803,100.898561 L250.431763,100.898561 C256.33211,100.898561 261.115506,96.1151554 261.115506,90.214304 L261.115506,87.7486307 C261.115506,87.7486307 227.060635,77.8985614 204.51207,77.8985614 L164.524536,77.8985614 Z" id="Fill-35" fill="#BA104A"></path>
                    <path d="M258.328937,91.443 C258.328937,91.443 255.859729,94.8175842 256.704511,98.7637723 C257.131699,100.758327 258.928818,102.162594 260.968818,102.162594 L275.204887,102.162594 L272.568036,94.0707624 L258.328937,91.443 Z" id="Fill-36" fill="#FFFFFF"></path>
                    <path d="M203.50732,40.1562386 L238.013617,40.1562386 C240.166726,40.1562386 242.239548,40.9606248 243.828122,42.4143772 C250.121825,48.1748525 266.496359,63.9464762 273.16928,77.8987634 L219.458706,77.8987634 C210.761439,77.8987634 203.177082,71.9923574 201.047201,63.5601891 C199.815122,58.6813574 198.399241,53.320298 197.055062,48.7908921 C195.775013,44.4806347 199.011241,40.1562386 203.50732,40.1562386" id="Fill-37" fill="#163774"></path>
                    <path d="M265.208382,94.0708129 L309.777838,94.0708129 C309.265313,91.0739317 307.370739,88.4522287 304.600075,87.0540208 C298.256382,83.8531396 286.785422,79.0596446 273.169432,77.8987634 L204.512323,77.8987634 C204.512323,77.8987634 248.674283,82.9154465 258.328937,91.4430505 C260.2326,93.1240307 262.669491,94.0708129 265.208382,94.0708129" id="Fill-38" fill="#EFDAE2"></path>
                    <path d="M309.921648,117.841458 L257.322469,117.841458 C257.322469,117.841458 256.488796,120.811072 256.336301,124.163944 L312.478212,124.163944 C312.645855,122.100211 312.098994,119.829449 309.921648,117.841458" id="Fill-39" fill="#163774"></path>
                    <path d="M256.33625,124.163691 C256.236775,126.346087 256.425122,128.691077 257.322419,130.486176 L309.921597,130.486176 C309.921597,130.486176 312.198924,127.614018 312.478666,124.163691 L256.33625,124.163691 Z" id="Fill-40" fill="#0E244C"></path>
                    <path d="M272.568137,94.0708129 L275.604909,103.390179 C276.239127,105.335249 278.052404,106.651654 280.097958,106.651654 L299.599147,106.651654 C301.990592,106.651654 304.00484,104.865645 304.291147,102.491872 L305.306602,94.0708129 L272.568137,94.0708129 Z" id="Fill-41" fill="#0E244C"></path>
                    <path d="M192.27611,51.1467891 L196.287942,65.795403 C197.606367,70.609096 193.983348,75.3576505 188.992417,75.3576505 L176.934199,75.3576505 C172.500229,75.3576505 169.0191,71.5634525 169.397308,67.1451356 C169.819447,62.2173238 170.625348,55.9559376 172.153328,50.9523832 C173.127882,47.7641257 176.06114,45.5807198 179.394823,45.5807198 L184.980585,45.5807198 C188.388496,45.5807198 191.375783,47.8600663 192.27611,51.1467891" id="Fill-42" fill="#163774"></path>
                    <polygon id="Fill-43" fill="#BA104A" points="151.491713 20.4323168 177.475455 20.4323168 177.475455 12.087505 151.491713 12.087505"></polygon>
                    <polygon id="Fill-44" fill="#930C3A" points="159.26795 20.4323168 228.114921 20.4323168 228.114921 12.087505 159.26795 12.087505"></polygon>
                    <polygon id="Fill-45" fill="#BA104A" points="181.483248 20.4323168 183.683822 20.4323168 183.683822 12.087505 181.483248 12.087505"></polygon>
                    <polygon id="Fill-46" fill="#BA104A" points="203.69905 20.4323168 205.899624 20.4323168 205.899624 12.087505 203.69905 12.087505"></polygon>
                    <polygon id="Fill-47" fill="#BA104A" points="11.240703 23.0131188 21.9724158 23.0131188 21.9724158 10.6201188 11.240703 10.6201188"></polygon>
                    <path d="M33.8104752,21.4957426 L41.5074356,21.4957426 L41.5074356,12.137495 L33.8104752,12.137495 L33.8104752,21.4957426 Z M32.293099,23.0131188 L43.0248119,23.0131188 L43.0248119,10.6201188 L32.293099,10.6201188 L32.293099,23.0131188 Z" id="Fill-48" fill="#BA104A"></path>
                    <polygon id="Fill-49" fill="#BA104A" points="117.289396 23.0131188 128.021109 23.0131188 128.021109 10.6201188 117.289396 10.6201188"></polygon>
                    <path d="M97.7543762,21.4957426 L105.451842,21.4957426 L105.451842,12.137495 L97.7543762,12.137495 L97.7543762,21.4957426 Z M96.237505,23.0131188 L106.968713,23.0131188 L106.968713,10.6201188 L96.237505,10.6201188 L96.237505,23.0131188 Z" id="Fill-50" fill="#BA104A"></path>
                    <path d="M99.4121287,126.678446 L126.514842,126.678446 L126.514842,35.6055743 L99.4121287,35.6055743 L99.4121287,126.678446 Z M127.311653,34.0114455 L98.6148119,34.0114455 C98.175,34.0114455 97.818,34.3684455 97.818,34.8087624 L97.818,127.475762 C97.818,127.916079 98.175,128.272574 98.6148119,128.272574 L127.311653,128.272574 C127.75197,128.272574 128.10897,127.916079 128.10897,127.475762 L128.10897,34.8087624 C128.10897,34.3684455 127.75197,34.0114455 127.311653,34.0114455 L127.311653,34.0114455 Z" id="Fill-51" fill="#FFF1F6"></path>
                    <path d="M12.0277693,21.8732436 L12.5332248,11.6313327 L18.4128683,11.6313327 C18.4128683,11.6313327 16.1370564,12.4533921 16.0739376,14.6029663 C16.0108188,16.7525406 16.2001752,16.8787782 15.2205713,17.9533129 C14.2404624,19.0283525 12.0277693,21.8732436 12.0277693,21.8732436" id="Fill-52" fill="#E55D8C"></path>
                    <path d="M118.048387,21.8732436 L118.553843,11.6313327 L124.433486,11.6313327 C124.433486,11.6313327 122.157674,12.4533921 122.094555,14.6029663 C122.031437,16.7525406 122.220793,16.8787782 121.240684,17.9533129 C120.26108,19.0283525 118.048387,21.8732436 118.048387,21.8732436" id="Fill-53" fill="#E55D8C"></path>
                    <polygon id="Fill-54" fill="#FB3377" points="160.216197 19.2180624 160.216197 13.2434881 179.087207 13.2434881"></polygon>
                    <polygon id="Fill-55" fill="#FB3377" points="185.109146 19.2180624 185.109146 13.2434881 201.18273 13.2434881"></polygon>
                    <polygon id="Fill-56" fill="#FB3377" points="207.678564 19.2180624 207.678564 13.2434881 225.743673 13.2434881"></polygon>
                    <path d="M214.64875,42.7359802 L208.92665,43.3000099 C204.788581,43.7080099 201.970452,47.6834851 202.957631,51.7225842 C204.436631,57.7764356 206.521066,65.4905644 207.91574,67.248802 C210.286482,70.2365941 214.64875,42.7359802 214.64875,42.7359802" id="Fill-57" fill="#21478C"></path>
                    <path d="M181.483298,47.5406347 C181.483298,47.5406347 177.411882,47.2876545 175.13607,49.6902089 C172.860258,52.0927634 171.216645,66.3803376 172.481041,69.6675653 C173.745437,72.955298 188.815684,47.3830901 181.483298,47.5406347" id="Fill-58" fill="#21478C"></path>
                    <path d="M243.827869,42.4144782 C242.239295,40.9607257 240.166473,40.1563396 238.013364,40.1563396 L220.26183,40.1563396 C221.959978,42.386201 224.38576,44.5287059 227.790642,45.5810228 C236.585869,48.2991713 238.103246,51.0385277 239.620622,55.105904 C241.137998,59.1732802 238.103246,70.5528446 243.91977,72.0697158 C246.287988,72.6877752 247.376156,75.1716267 247.835661,77.8983594 L273.169028,77.8983594 C266.496612,63.9465772 250.122077,48.1749535 243.827869,42.4144782" id="Fill-59" fill="#0E244C"></path>
                    <path d="M196.288093,65.795302 L192.276261,51.1466881 C191.597608,48.6699059 189.733836,46.7662426 187.397935,45.9780149 C188.811796,47.2641238 189.868152,49.0072129 189.803014,51.3335198 C189.613152,58.0983416 184.682816,60.184797 188.285638,65.1156386 C191.889469,70.0469851 189.708588,68.9093317 185.108994,72.1334406 C181.491529,74.669302 176.966667,73.0771931 175.383648,75.1979851 C175.883549,75.3015 176.401628,75.3575495 176.93435,75.3575495 L188.992568,75.3575495 C193.983499,75.3575495 197.606014,70.608995 196.288093,65.795302" id="Fill-60" fill="#1E1240"></path>
                    <path d="M187.790736,53.5465663 L187.790736,53.5465663 C185.531587,53.5465663 183.683973,55.3946851 183.683973,57.6533287 L183.683973,69.5444079 C183.683973,71.8025465 185.531587,73.6506653 187.790736,73.6506653 C190.049379,73.6506653 191.897498,71.8025465 191.897498,69.5444079 L191.897498,57.6533287 C191.897498,55.3946851 190.049379,53.5465663 187.790736,53.5465663" id="Fill-61" fill="#FFE6E6"></path>
                </g>
            </g>
        </g>
    </g>
</svg>