<?xml version="1.0" encoding="UTF-8"?>
<svg width="153px" height="274px" viewBox="0 0 153 274" version="1.1" xmlns="http://www.w3.org/2000/svg" xmlns:xlink="http://www.w3.org/1999/xlink">
    <!-- Generator: Sketch 57.1 (83088) - https://sketch.com -->
    <title>Illustration</title>
    <desc>Created with Sketch.</desc>
    <g id="Pricing" stroke="none" stroke-width="1" fill="none" fill-rule="evenodd">
        <g transform="translate(-1179.000000, -866.000000)" id="Pricing-Tables">
            <g transform="translate(108.000000, 408.240000)">
                <g id="Illustration" transform="translate(1162.520000, 594.920000) scale(-1, 1) translate(-1162.520000, -594.920000) translate(1071.520000, 457.920000)">
                    <path d="M166.05832,168.230164 C166.05832,177.373113 128.883991,184.783957 83.0291598,184.783957 C37.1732754,184.783957 -6.39488462e-13,177.373113 -6.39488462e-13,168.230164 C-6.39488462e-13,159.088266 37.1732754,151.676371 83.0291598,151.676371 C128.883991,151.676371 166.05832,159.088266 166.05832,168.230164" id="Fill-404" fill="#132F65"></path>
                    <path d="M132.044204,71.9593993 C132.044204,71.9593993 147.190861,72.4313137 149.741101,75.1503399 C152.291341,77.8683151 146.766523,87.5041993 140.039238,89.9173744 C133.3109,92.3316006 125.121071,79.2819565 132.044204,71.9593993" id="Fill-409" fill="#930C3A"></path>
                    <path d="M143.564929,72.0681813 C143.564929,72.0681813 145.586589,70.9498806 148.072599,72.4223799 C150.559662,73.8959303 151.706323,73.6226613 151.024012,74.9322503 C150.340649,76.2407882 150.585986,77.2224544 147.908339,76.5676599 C145.231746,75.9139165 142.335086,73.5406806 143.564929,72.0681813" id="Fill-410" fill="#C87171"></path>
                    <path d="M141.050805,75.1500246 C141.050805,75.1500246 141.160312,71.2233598 142.909258,69.8055143 C144.658205,68.3866177 152.088859,70.1859888 152.362625,72.2596798 C152.635339,74.3323198 152.035158,75.313986 150.668432,74.8778067 C149.302758,74.4405764 147.929714,72.4225902 146.293433,72.8587695 C144.658205,73.2959998 146.023878,74.8221019 148.427759,74.9860633 C150.832692,75.1500246 150.588408,77.3824219 148.427759,77.9310619 C146.267109,78.4807529 139.947316,79.582237 141.050805,75.1500246" id="Fill-411" fill="#F39B9B"></path>
                    <path d="M104.285021,130.14656 C104.285021,130.14656 159.584795,127.747048 175.322156,140.837683 C191.058463,153.927266 168.764396,245.998938 160.677755,250.362833 C152.590062,254.725677 139.256582,249.490475 134.228755,235.745046 C129.201982,221.999617 150.248306,174.710422 146.969426,168.383195 C143.691599,162.055967 70.7770571,161.346519 71.4656851,144.982963 C72.1543131,128.619407 104.285021,130.14656 104.285021,130.14656" id="Fill-412" fill="#0E244C"></path>
                    <path d="M79.6816276,130.368328 C79.6816276,130.368328 133.947407,141.255995 146.086845,157.726756 C158.226282,174.198568 114.493141,258.262408 105.593624,260.565225 C96.695161,262.869092 85.0063855,254.598502 83.4227517,240.051134 C81.839118,225.504817 113.617088,184.621677 111.951324,177.69536 C110.285561,170.767992 42.9105783,175.948541 46.1894583,146.058171 C47.9752581,129.777647 79.6816276,130.368328 79.6816276,130.368328" id="Fill-413" fill="#112955"></path>
                    <path d="M111.037681,38.6609452 C111.037681,38.6609452 152.546996,81.0743907 139.242999,93.2705948 C125.940054,105.46785 102.902605,86.7310583 98.6529071,74.1817066 C94.4032091,61.6313038 111.037681,38.6609452 111.037681,38.6609452" id="Fill-414" fill="#930C3A"></path>
                    <path d="M94.3447705,265.362567 C96.0726581,262.79594 96.5464847,259.97076 96.7465448,257.650076 L105.341759,257.61434 C105.341759,257.61434 104.768955,260.559339 106.227288,262.853747 C106.863269,263.854332 108.71014,264.59426 111.257221,265.65055 C115.290012,267.696914 120.269403,270.335011 120.447351,271.707662 C120.743229,273.994713 97.0350526,274.02204 93.0864977,271.822225 C91.0206137,270.672393 92.4505171,268.176186 94.3447705,265.362567" id="Fill-415" fill="#0E244C"></path>
                    <path d="M148.841988,257.215998 C150.429834,254.561085 150.750983,251.714884 150.828901,249.387894 L159.409374,248.893907 C159.409374,248.893907 158.995566,251.865182 160.573935,254.07866 C161.26151,255.044561 163.145234,255.684641 165.744962,256.604296 C169.880942,258.432045 174.99511,260.802128 175.245712,262.163218 C175.664785,264.430299 151.990303,265.720969 147.930135,263.733463 C145.806339,262.695041 147.101465,260.127364 148.841988,257.215998" id="Fill-416" fill="#0E244C"></path>
                    <path d="M51.2170743,161.22092 C20.0698202,139.62111 43.3220704,73.0454332 44.7298618,55.9976539 C45.8280866,42.6884042 55.777392,31.7324208 68.9708302,29.5220953 C89.6296695,26.0631408 106.012487,27.6638663 120.805353,50.6731132 C126.046928,58.8280897 112.816637,63.9392704 109.117631,79.5597449 C107.256019,87.4246359 112.648165,123.244942 131.890789,128.166937 C158.755704,135.039651 63.6755548,176.274887 51.2170743,161.22092" id="Fill-417" fill="#BA104A"></path>
                    <path d="M131.891,128.167147 C112.649429,123.244101 107.256229,87.4237951 109.117841,79.5599551 C112.816847,63.9394806 126.047139,58.8272489 120.805564,50.6733234 C112.034507,37.0298448 102.703282,30.9138751 92.2527735,28.9169096 C93.9585492,33.0611386 95.4526824,37.9841841 95.1810218,42.0874227 C94.5871591,51.0863799 83.0247374,64.9968213 86.5921251,79.5599551 C90.1605658,94.1220379 86.9869806,104.103712 95.2136632,114.903092 C100.612127,121.992319 113.978249,136.128733 122.527134,145.007872 C135.254116,137.755734 141.692893,130.674915 131.891,128.167147" id="Fill-418" fill="#C61A54"></path>
                    <path d="M86.8157713,17.7018462 L79.5693833,30.7262655 C79.1766337,32.7389965 89.0006383,40.344282 92.6638443,38.3851537 C93.7357454,37.8123399 93.8347225,35.832191 93.3461546,33.576671 L90.242064,21.2080972 L86.8157713,17.7018462 Z" id="Fill-419" fill="#F39B9B"></path>
                    <path d="M90.8661463,23.6944244 C88.7128677,22.8882809 85.7835664,21.7479085 85.7835664,21.7479085 C85.7835664,21.7479085 85.3171104,25.3214257 87.9252626,28.5586119 C89.3056774,30.2728492 91.0977948,31.303914 92.8930711,31.7695223 L90.8661463,23.6944244 Z" id="Fill-420" fill="#0E244C"></path>
                    <path d="M90.8599339,13.1219634 L86.2848749,20.3362641 C84.967637,22.8314199 85.8721193,25.9246144 88.3349646,27.3056737 C90.3039773,28.4092599 91.6717568,28.7582034 94.4578571,29.1145041 C96.7796074,29.4119468 98.4822243,27.5453096 99.2287644,24.5982089 C100.197477,20.7755965 100.002681,16.9792599 99.783668,14.9549675 C99.2835177,10.337773 94.1861965,8.63825029 90.8599339,13.1219634" id="Fill-421" fill="#F39B9B"></path>
                    <path d="M95.8995535,26.3666795 C93.5072557,25.2263071 90.62639,28.5528313 87.0611082,23.8105637 C86.396698,22.9255926 86.3651095,21.1966409 86.3851156,20.1781885 L86.2850855,20.3358437 C84.9678476,22.8309995 85.8723299,25.925245 88.3351752,27.3063044 C90.3041879,28.4098906 91.6719674,28.758834 94.4580677,29.1140837 C95.8742827,29.2959126 97.0588492,28.668445 97.9380608,27.4860313 C97.4694989,27.4439899 96.6292464,26.715623 95.8995535,26.3666795" id="Fill-422" fill="#C87171"></path>
                    <path d="M97.9776516,13.2230729 C97.9776516,13.2230729 95.3494935,12.0269957 93.7300595,13.3901874 C92.1095725,14.7544302 92.0306014,15.3388053 91.7041876,16.6473433 C91.0955836,19.0941515 88.6106264,18.4309488 88.3094833,17.1434315 C88.0093931,15.8569653 86.6131841,18.0651888 86.6131841,18.0651888 L85.2864696,20.449986 C85.2864696,20.449986 83.8344544,11.1430757 84.631536,7.15229774 C85.4286176,3.16151981 90.8470879,4.62561084 90.8470879,4.62561084 C90.8470879,4.62561084 92.1843318,0.00841635734 99.0653469,2.25597319e-13 C107.601596,-0.0105022633 107.668985,10.2339308 102.291579,12.9161708 C99.5391735,14.2898729 97.9776516,13.2230729 97.9776516,13.2230729" id="Fill-423" fill="#0E244C"></path>
                    <path d="M102.657268,0.78208284 C103.110036,2.6981187 102.535126,5.22585663 100.468189,7.02207456 C98.0253502,9.14726629 91.1401233,7.55494905 91.1401233,7.55494905 C91.1401233,7.55494905 89.3006232,12.5032194 84.4286329,11.9756001 C84.5981575,16.0294401 85.2867855,20.4500911 85.2867855,20.4500911 L86.6135,18.0652939 C86.6135,18.0652939 88.009709,15.8570704 88.3097992,17.1435366 C88.6088364,18.4310539 91.0958995,19.0942566 91.7045034,16.6474484 C92.0298644,15.3389104 92.1088355,14.7534842 93.7293224,13.3902925 C95.3498093,12.0271008 97.9779675,13.223178 97.9779675,13.223178 C97.9779675,13.223178 99.5394893,14.289978 102.290842,12.9162759 C106.765871,10.6849297 107.465029,3.22048284 102.657268,0.78208284" id="Fill-424" fill="#0E244C"></path>
                    <path d="M64.1661232,37.139783 C72.9129621,39.0589719 80.5742116,78.6178078 89.1188844,91.6811154 C93.0653334,97.7140533 135.709726,73.7515182 144.178587,86.0244478 C145.827504,88.4123982 144.806144,97.1591071 142.408582,99.8108671 C130.978831,112.451659 94.491025,129.465805 74.5292372,119.490437 C58.280144,111.370144 43.9179336,72.0330768 47.9423008,48.7085195 C48.9647133,42.7859402 51.9845681,34.4670023 64.1661232,37.139783" id="Fill-425" fill="#BA104A"></path>
                    <path d="M131.744956,93.4676638 C127.919596,98.9214817 104.423062,106.776913 97.9590144,104.376351 C91.4939138,101.976839 85.9543545,105.140453 79.1775814,105.904555 C72.4018611,106.667606 67.1560743,95.2134321 67.2655809,86.0494624 C67.3740345,76.8865438 61.4733141,66.9595231 55.5715407,60.9591673 C50.6648031,55.9709576 53.0360419,42.4662155 53.9763245,38.0508197 C50.0077636,40.3504831 48.5831249,44.9992086 47.9418796,48.7093604 C43.9175125,72.0328666 58.2797229,111.369934 74.528816,119.490227 C94.4906038,129.465595 130.97841,112.451449 142.40816,99.8117079 C144.366644,97.6455259 145.405903,91.4118404 144.821517,87.9003342 C139.582048,88.9261438 133.712916,90.6624528 131.744956,93.4676638" id="Fill-426" fill="#930C3A"></path>
                    <path d="M89.9622957,17.0531477 C89.9812488,16.5244773 90.07812,16.0052663 90.2086855,15.4923615 C90.4550754,14.5170015 90.5951175,13.010869 88.965154,13.3577104 C86.596021,13.862207 85.5693968,19.1299918 87.8827235,20.1326787 C89.6021875,20.8778622 89.9149131,18.3858594 89.9622957,17.0531477" id="Fill-427" fill="#F39B9B"></path>
                    <path d="M179.228382,58.5433645 L160.89024,55.4238942 C158.639038,54.5168514 156.079321,55.6046721 155.170627,57.8507328 L140.214554,94.8671162 C139.307966,97.1131769 140.395661,99.6692928 142.647917,100.576336 L160.986059,103.695806 C163.236208,104.601798 165.796978,103.515028 166.704619,101.267916 L181.661745,64.2525838 C182.568333,62.0054721 181.479585,59.4493562 179.228382,58.5433645" id="Fill-428" fill="#163774"></path>
                    <path d="M165.409493,70.8124053 C165.773813,69.7950039 166.4835,69.1181377 166.992074,69.2999667 C167.501701,69.4807446 167.620684,70.4540026 167.255311,71.4703529 C166.890991,72.4888053 166.182357,73.1656715 165.67273,72.9838426 C165.163103,72.8030646 165.045173,71.8298067 165.409493,70.8124053" id="Fill-429" fill="#FFFFFF"></path>
                    <path d="M93.6280288,21.0694657 C93.6280288,21.0694657 96.2909342,22.0984285 98.8001093,21.748434 C98.8001093,21.748434 98.5273957,23.8095126 96.1035095,23.8095126 C93.6280288,23.8095126 93.6280288,21.0694657 93.6280288,21.0694657" id="Fill-430" fill="#FFFFFF"></path>
                    <path d="M140.00607,84.7195885 C140.439885,83.8587913 142.559469,82.3705264 143.95989,81.8586726 C146.635431,80.8812106 146.015244,79.9394837 146.525924,78.8653264 C147.037657,77.7911692 148.725532,78.486954 148.014792,81.1155913 C147.560972,82.7993485 145.867831,83.8745568 147.398818,83.8325154 C148.930857,83.790474 152.073907,78.3755444 153.101584,81.6757926 C154.472522,86.0827802 149.880616,91.3673816 143.368133,91.2790947 C141.523368,91.2538699 137.589554,89.5175609 140.00607,84.7195885" id="Fill-431" fill="#F39B9B"></path>
                </g>
            </g>
        </g>
    </g>
</svg>